/* XPM */
static char *result[] = {
/* columns rows colors chars-per-pixel */
"64 64 237 2 ",
"   c #020101",
".  c #0B0403",
"X  c #0A0708",
"o  c #0C0A0B",
"O  c #0D0807",
"+  c #130503",
"@  c #1A0602",
"#  c #150904",
"$  c #1C0905",
"%  c #130C0B",
"&  c #1B0C09",
"*  c #1A110E",
"=  c #140F11",
"-  c #151212",
";  c #1D1A1A",
":  c #1B1515",
">  c #240B04",
",  c #2B0E04",
"<  c #220A06",
"1  c #2C130B",
"2  c #2A1309",
"3  c #331204",
"4  c #3B1C0C",
"5  c #34160A",
"6  c #2A1612",
"7  c #231D1D",
"8  c #271A16",
"9  c #351C15",
"0  c #392319",
"q  c #352116",
"w  c #241F20",
"e  c #281F20",
"r  c #242021",
"t  c #2B2324",
"y  c #2E2828",
"u  c #312B2D",
"i  c #372724",
"p  c #352F31",
"a  c #3B3333",
"s  c #3A3436",
"d  c #411D0A",
"f  c #47240B",
"g  c #472717",
"h  c #552D16",
"j  c #593619",
"k  c #4A2F14",
"l  c #62361B",
"z  c #753F1C",
"x  c #432A23",
"c  c #492F25",
"v  c #493229",
"b  c #553523",
"n  c #583828",
"m  c #413D3E",
"M  c #483835",
"N  c #573D34",
"B  c #502D21",
"V  c #643E28",
"C  c #3F403E",
"Z  c #5A4338",
"A  c #4E413E",
"S  c #6B432D",
"D  c #674428",
"F  c #764929",
"G  c #674737",
"H  c #754C35",
"J  c #7A5337",
"K  c #6E5438",
"L  c #6A421F",
"P  c #453E41",
"I  c #4B4245",
"U  c #4D4449",
"Y  c #534A4D",
"T  c #584847",
"R  c #564D52",
"E  c #5B5155",
"W  c #5E565B",
"Q  c #5E504C",
"!  c #624C46",
"~  c #69544D",
"^  c #785848",
"/  c #66595A",
"(  c #755A54",
")  c #7A615A",
"_  c #756055",
"`  c #6A5E63",
"'  c #665C61",
"]  c #6E676A",
"[  c #75676B",
"{  c #786D72",
"}  c #7D7174",
"|  c #7F7E7F",
" . c #7E7279",
".. c #854D29",
"X. c #88552D",
"o. c #865838",
"O. c #935B33",
"+. c #966439",
"@. c #896339",
"#. c #A3653B",
"$. c #895D44",
"%. c #805C51",
"&. c #8A6647",
"*. c #986645",
"=. c #9B744C",
"-. c #886758",
";. c #966D57",
":. c #9A755A",
">. c #8F725F",
",. c #A46C46",
"<. c #AA744A",
"1. c #B4784A",
"2. c #A77756",
"3. c #B77D54",
"4. c #B16E43",
"5. c #866D6A",
"6. c #967768",
"7. c #82757B",
"8. c #867779",
"9. c #957A77",
"0. c #87706E",
"q. c #A97D68",
"w. c #C27C4F",
"e. c #B98457",
"r. c #AC825B",
"t. c #94827F",
"y. c #A88266",
"u. c #B78A68",
"i. c #A78678",
"p. c #B8967A",
"a. c #B98E73",
"s. c #C58858",
"d. c #CB8F54",
"f. c #C58C67",
"g. c #C89569",
"h. c #D69A69",
"j. c #CA9A78",
"k. c #D79C75",
"l. c #C28C75",
"z. c #D9A67B",
"x. c #D2A272",
"c. c #E6AE77",
"v. c #8B7E83",
"b. c #877B82",
"n. c #8E8189",
"m. c #8E878B",
"M. c #93858C",
"N. c #99888A",
"B. c #9A8C94",
"V. c #998B94",
"C. c #9F9199",
"Z. c #9F9E9D",
"A. c #AB9389",
"S. c #A8969B",
"D. c #B89C99",
"F. c #AE8E87",
"G. c #AC9CA4",
"H. c #A99AA4",
"J. c #B09EA7",
"K. c #B3A4AD",
"L. c #BBA4A7",
"P. c #BBABB4",
"I. c #B8A8B3",
"U. c #BFBDBD",
"Y. c #BFB0BA",
"T. c #AFA0AA",
"R. c #BFA09A",
"E. c #CC9D8D",
"W. c #DCAA88",
"Q. c #C6A399",
"!. c #D2AE8E",
"~. c #E6B788",
"^. c #E7BC97",
"/. c #E0AB84",
"(. c #D8B3A9",
"). c #C4B4BD",
"_. c #CBB4B7",
"`. c #D8BBB9",
"'. c #CEADAA",
"]. c #E6BBAC",
"[. c #F1CD95",
"{. c #F2DA97",
"}. c #EFCD8D",
"|. c #EBC9A6",
" X c #EED5A8",
".X c #F3D6AC",
"XX c #E9C9B6",
"oX c #F2CBB4",
"OX c #F4DAB8",
"+X c #EFD0B1",
"@X c #F6E9BB",
"#X c #F8F3BB",
"$X c #F5E9AA",
"%X c #F1E09A",
"&X c #CBBBC4",
"*X c #C8B9C3",
"=X c #CECACB",
"-X c #D4C3CC",
";X c #D8CAD2",
":X c #DEDBDA",
">X c #E6CBC8",
",X c #F4D9C8",
"<X c #E2D5DD",
"1X c #EBD7D8",
"2X c #F4DBD5",
"3X c #F4E3C3",
"4X c #F5ECC3",
"5X c #F5E5CC",
"6X c #F5ECCC",
"7X c #F9EBC8",
"8X c #F6F2C4",
"9X c #F9F5C6",
"0X c #F9F4CC",
"qX c #FCFACC",
"wX c #F6F3CB",
"eX c #F5EDD4",
"rX c #FAECD4",
"tX c #F6E9D8",
"yX c #F7F2D5",
"uX c #FAF4D2",
"iX c #FCFAD4",
"pX c #F6F2DD",
"aX c #FAF5DC",
"sX c #FDFBDC",
"dX c #EADCE4",
"fX c #F5E8E8",
"gX c #FAF5E2",
"hX c #FDFBE4",
"jX c #FDFCEB",
"kX c #F8F5E7",
"lX c #F6ECF3",
"zX c #FAF3F4",
"xX c #FDFCF3",
"cX c #FCF5F9",
"vX c #FEFCFB",
"bX c #F5F1F4",
"nX c #EEECED",
/* pixels */
"  X             .   X = w p P E [ b.v.H.I.*X<XcXlX;X&XP.K.I.G.7.8./ ` 0.Q M i ) ^ 9 $ . .         . X   X               X       ",
"                  . X = w p P E ] b.V.H.I.*XdXvXcXdX&XP.G.I.).8.v.v.{ / ~ T M ~ ! M 6 @ . . .                                   ",
"                . X X = w p P E ] v.V.H.I.&XdXcXcX;X&X).T.K.&XN.9.] T ~ Q N n ) ( G 1 < # X X                                   ",
"                    X = w a m E { v.B.K.P.&X<XcXcXdX&X).L.J._.N.5.( / ~ ( G b 5.( g , < + + .   X                               ",
"                    . - w Y I E 0.B.J.T.).&XdXvXcXdX-X`.'.L.'.A.9.( ( ^ i.-.N b S b 3 1 $ # . X                               X ",
"                .   7 - 7 Y { ' [ S.D.L.`.>XfXvXcXfX1X`.'.'.'.Q.i.;.-.%.6.i.p.V V g B 9 6 # O .                                 ",
"                  . Q i 7 s / M.5.v.C.L.>X1XlXvXcXfX2XoX].(.(.(.l.p.q.;.-.o.^ V :.6.^ x 0 a i X   .                             ",
"                    8 ` u p A / 8.N.Q.'.>XtXvXvXvXcXtX,X>X2X,XoXE.z.j.f.2.,.2.2.o.J V k b ) ) i .     o           X             ",
"                  X O t } N.t.t.0.v.E.`.>XzXvXU.| U.gXrXaXsXhXsX@X|.|.z.s.#.1.#.#.+.H F S _ t.! 8     X                         ",
"                  - a a T / t.Q 6.v.E.].2XcXvX|   7.vXjXsXqXqXsXsXsX0XOX/.W.k.d.1.#.X.=.J -.>.^ x . . X X             X o       ",
"            o o ; ; - * T Z t.) 5.F.E.].tXcXvXH.r | vXxXsXqXqXqXhXjX0X6XeXtXOXW.s.e.,.+.J o.-.i.! 6 & .               X X       ",
"              t o 8 M * a A ~ ) ;.E.'.oXtXvXvXvX| | vXvXhXsXiXiXsXuX{.[.pXxXjXtXc.h.h.<.O...o.y.b G ~ q . . .   X X             ",
"      . .     y M v.9.i 0 N ^ -.q.E.].rXjXvXvXvX| | vXvXjXhXiXiXsX@X}.}.7XiXaXhXrX[.~.x.3.1.a.A.^ $.G Z @ . O . X o             ",
"  . . . . + + 2 5 B n B k S $.:.l.W.OXhXxXvXvXvX| ' =XvXxXjXsXsXsX@X8X8XuXsXjXaXjXyX.X~./.h.g.3.*.F h n 9 + +   O     X         ",
"  . . + + @ @ 9 x > 3 d B V o.2.j.oXyXjXvXvXvXvX|   C vXvXvXhXsXsXuXsXsXwXhXjX6XjXkXaXrX|.k.s.1.,...D h 4 $ $ . .               ",
". + @ @ > > , 1 5 d d g $.2.,.q.^.rXxXvXvXvXvXvXvX|   C vXxXjXhXhXjXjXhXuXhXhXjXjXsX6XjXkXrXoXW.3.O.$.;.n 3 1 A.O % X         X ",
". > < , , g G 4 k k k k @.e.r.~.4X1XfXvXvXxXxXvXvX|     s vXxXjXjXjXjXjXjXhXsXjXjXwX}.4XkXkXhXXXf.,.a.H l d 1 F.i * 7 #         ",
"+ @ > v i.K -.D K j k K J @.=.|.hXhXOXkXcXvXvXvXvX|   C vXxXjXhXhXxXjXhXhXhXhXhXhXhX6XsXpXeXjXgX!.3.*.F F.5.N %.N 0.P . X       ",
". T i g Q._ ~ K &.L L J e.u.r.}.sXjX5XgXvXvXvXvXZ.w   C vXjXjXsXhXjXxXjXjXsXsXiXsXsXsXjXkXaXhXeX].f.,.F 6.;.B P 0.M &           ",
"# 9.x 4 j j ^ L !.=.L F r.x.d.x.4XhXjXzXvXvXvXvX|     C vXvXjXsXhXjXjXxXjXsXsXiXyXsX0XhXhXuX7X3X^.#.O.z V G d ! ~ % 7 =         ",
"7 T < , 5 4 j j @.r.r.K +.r.s.c.[.sXjXxXxXvXZ.Z.|     = ] xXjXhXjXjXjXjXhXjXjXhXiXhXhXhXhXwXrXOX|.1.O.O.;.V d 9 % & 7 7         ",
". . + $ , 4 k k K @.^ r.<.e.h.c. XyXxXvXvXvX:X| r ' U.U.=XjXhXhXxXjXjXjXhXhX8X0XhXjXxXkXjXpX3XOXoXk.4...o.l g 1 # .     X X     ",
"  # . + 0 5 f k j F J r.#.d.d.{.@XiXjXvXvXvXvX|   | vXvXjXhXhXxXxXxXxXjXhXsXqX$XwXjXxXxXxXkX5XrXoX~.w...z g d , . .             ",
"X ; X 8 M 2 v D k F @.r.d.h.x.%XsXhXjXjXjXvXU.| C C Z.vXvXxXjXxXxXhXjXxXjXhXhXiXwXsXjXxXxXjXhXiX3X.XW.3.z l g 9 6 . X           ",
"X X   A 8 * x c j o.r.g.^.6XkXeXjXjXhXhXhXxXU.U.U.C C vXvXvXxXxXxXxXjXkXyXyXsXiXsXhXhXjXxXjXjXpXaX@XoX|.u.;.-.G $ # %           ",
"    u Z v $ < -.:.F r.g. XjXjXjXjXsXsXsXhXjXvXvXvXn.C vXxXvXxXxXxX| :XjXwXyXjXhXjX#X4XsXjXhXyX5X,XaX,X(.:.V h g 6 A e X X ;     ",
"  X T M a 0 9 N F J +.e.3XkXjXsXhXsXsXsXsXhXjXvXvX| u =XxXxXxXxXxXC =XxXjXjXxXyXhXwX4XaXeX4X7X3X|.3XoXa.$.:.H 0 6 7 8 7 ; -     ",
"    O % M 8 9 n L p.e.d.OXpXeXpXiXiXsXsXsXhXxXvXvXZ.C ] nX=XxXxXvXxXhXiX#XwXwX#X0X6XwXwXiX X[.eX5X^.k.<.*.$.H d 9 2 7 7 ; ; X   ",
"    X % a $ < d L r.=.d.~.8XgXyX9XqXqXqXsXhXxXvXvXvXvXvX=X] vXvXvXhXqX#X$XiXyXsXiX8X#X8XyX@X[..X+Xz.f.#.$.V S N v M I *   X     ",
"o M 8 7 8 6 9 B k J r.x.x.~.eX$X%X9X9XqXhXjXjXvXvXvXvXvXvXvXvXxXhXhXqX#X0XhXhXiX#XiXiX@XyXeXeX.Xc.h.s.#...l -.g i 9 &           ",
"X % t M 0 [ -.x k F r.u.g.}.#XyX0XiXiXuXhXhXxXxXxXvXvXvXxXvXvXxXhXsXiXqXiXhXjX$X}.iX4X$X6XaXaX.X~.k.s.<.O.H 5.d > v t           ",
"a     + # v 2 g k @.@.@.e.x. XwXjXsXiXjXxXvXvXxXvXvXvXvXvXvXvXvXhXqXqXqXsXjXjXiXiXsXwXuXhXhXaXjXhX.Xf.<.*.F H 9 @ +   X X       ",
": s % + e g 9 3 k S F X.s.z.|.tXvXpXkXxXxXxXvXvXvX|       C vXvXhXiXiXiX#XsXjXjXjXsXiXhXhXxXxXkXxXkX^.l.,.F ^ 5 + + .     .     ",
"X u # & 6 3 3 g G -.2.X.e.f.^.kXjXkXyXjXxXvXvXcXvX|     C vXvXjXsXsXqX8XiXhXsXhXjXwX9XiXyXeXjXkXkXkX|.u.;.q.6.v + . .           ",
"  t * @ > , k p.B 6.p.y.+.w.k.5XkXyX4XkXhXxXxXxXvX:Xm.s =XxXjXhXqXsX#X#XqXqX0XjXjXyXwXwXhXpXkXxXgXOXj.u.q.>.-.! & .   .         ",
"  % O + > 3 4 E.4 ^ D o.&.3.1.W.OX@XOXyXkXxXhXjXvXvXnXZ.] jXhXjX0XhXsXiXqX9X@XhXhXjXjXgXjXjXhXpXOXk.f.<.y.S 9 6 . .             ",
"    . + > , 3 b g n f j o.=.3.w.h.c.OXaXgXjXvXcXvXxXvXU.C jXhXhXsXhXhXhX8XwX8XhX{.sXjXxXxXkXrX~.k.w.,.*.$.V g $ .           o   ",
"      + @ 3 3 d a.k g f l X.=.1.d.~.@X3XpXhXxXxXvXvXvXU.C jXhXhXsXhXhXhXjXsXuXiX{.jXjXxXpXgX3Xh.w.#.X.z ^ x > + .               ",
"    . + @ , 3 4 !.g d d f J :.1.s.8X0X0XaXhXjXvXxXvXvXU.A xXhX0XwXhXhXjXjXsXuXyX4XxXxXxX,X3X|.s.4...z h 5 > @ .                 ",
"      . + > , 3 S n 3 3 d j &.O.g.iXsXsXuX4XuX6XuXxXvXU.m vXhXiXsXjXjXxXxXhXkXjXjXxXxXgX Xz.s.4.+.z l d , + .                   ",
"      . + @ > , , , , , 3 f z X.e.4X0XiXsXiX@XOXhXgXxX<X| Z.xXvXhXhXxXxXvXjXjXpX6X5X5X^.h.w.4.O.:.j 4 , # O     X               ",
"      X . . @ > > > > > , d j z +.!..X@X0XiXsXuX2X5XgXvXU.A vXxXgXgXgXxXkX^..X7Xc.h.z.k.l.,.X.H K 4 , $ O X X               X   ",
"          . + + @ @ # $ , 4 n F X.y.g.|.OX5X5X+XoXtXtXvXU.C vXkXyXrX5XjXfX^.^./.d.s.f.s.,.*.z l f , < 8 O                       ",
"        .   . . . . . + $ , 4 V J o.$.q.E.!.E.(.XX2XtXkX=X] cXkXtX,X+X,X2X/.h.q.2.,.*.o.F V B 4 1 $ 6 u           X             ",
"                      . . $ 1 d V V $.-.6.i.F.Q.`.XX1XfXvXzXfX2X>X].(.'.(.q.q.q.-.$.-.-.( B 9 6 t 6 ;                           ",
"          o   X       X . # < 1 d N ^ %.-.9.N.D.`.-X;X1XcXzXfX2X-X'.Q.R.].v.9.%.~ G N N P 9 < i %                               ",
"            X         . . . $ 1 4 B N N ( 0.9.A.'._._.1XcXvXlX1X`._.R.D.`.9.5.( ! T Z i 9 : & : .                               ",
"                X         + $ 9 9 x N N E ) 7.V.G.P._.;XbXvXzX&X_.I.J.H.&Xv.5./ E 5./ i i e = o         X                       ",
"                        . O & 2 0 K K A Q _ { t.B.K.Y.=XnXcXcX;X).I.J.H.&Xv.7.' R P p u u = X X                                 ",
"                        . + & 6 0 K p._ Q } | t.N.T.I.).dXcXcXdX*X).I.K.&Xv.{ ' R P s u w - X X                                 ",
"    X                   . # & 6 4 k K t.Q _ | } M.H.K.).:XcXvXdX&X).I.I.).v.7.' E U s u w = o X                                 ",
"                          O # 2 4 0 0 Z Z W ] | M.S.T.).;XcXvXlX&X).I.I.*XN.b.] E U m u w - o =           X                     ",
"                        X . O # 6 9 0 v P E ' { n.C.H.P.&XlXvXcX;X).P.P.*XM.b.] W U P p w : = o   X           X                 ",
"                        X . O # < 6 8 i M P E ] 8.V.H.I.).dXcXcXdX*XY.Y.&XV.b.` ' U P u w - o     X           X                 ",
"                          .   . + * 6 e p P R `  .M.S.K.Y.:XbXcXdX&X*X*X*XV.b.{ ' Y P p w : o   X X                             ",
"                                X % = e u P R '  .m.B.J.P.=XnXcXlX&X*X*X*XC.b.[ ' U P p w - o X X                               ",
"                                X X o ; t s P W { b.V.H.I.*XdXcXlX;X;X*X*XC.v.{ ` R P p r ; o o X                               ",
"              X                   X o = w p P R `  .v.C.J.P.&XlXcXdX;X&X).C.v. .' R P p w - =                                   ",
"                                  X o = w u s R ' { b.V.H.I.*XnXcXdXdX&XY.C.v. .` R P p w - o X X             X                 ",
"                                    X o : y s P W ]  .v.C.J.I.<XcXlXdX-XI.C.v. .' R P p r : = X     X                           ",
"                                    X o = w u m R ` { b.V.H.T.&XlXlXlX;XI.C.v. .' R P p r - X X X                               ",
"                                      o = w w s P W `  .v.V.H.K.<XlXlX&XT.v.b.{ ' Y P p r - X X X                               ",
"                                      X o ; w p P E ' { b.V.C.H.&XdXdX*XH.v.b.{ W Y C u w - O X X                               ",
"                                      X X = w y s P E '  .v.v.V.K.&X;XI.V.b. .` E U s y r - o X                                 "
};
