/* XPM */
static char *result[] = {
/* columns rows colors chars-per-pixel */
"64 64 241 2 ",
"   c #020101",
".  c #0A0404",
"X  c #0A0708",
"o  c #0C0A0A",
"O  c #0A0807",
"+  c #120503",
"@  c #1A0704",
"#  c #140906",
"$  c #1D0A05",
"%  c #120C0C",
"&  c #1B0D0A",
"*  c #1B110E",
"=  c #141212",
"-  c #1A1515",
";  c #1E191A",
":  c #1D1717",
">  c #140F10",
",  c #240B04",
"<  c #2A0C04",
"1  c #230E0A",
"2  c #240A05",
"3  c #2B140C",
"4  c #29120A",
"5  c #3B1A0B",
"6  c #351709",
"7  c #2C1913",
"8  c #231C1C",
"9  c #271915",
"0  c #331B14",
"q  c #371D14",
"w  c #2B211F",
"e  c #3C231B",
"r  c #382217",
"t  c #3F210E",
"y  c #221F21",
"u  c #252122",
"i  c #2C2627",
"p  c #322C2D",
"a  c #362926",
"s  c #342F31",
"d  c #3F3C3D",
"f  c #3A3335",
"g  c #37302E",
"h  c #431C0B",
"j  c #49250C",
"k  c #4C2B1B",
"l  c #482717",
"z  c #582F16",
"x  c #59351A",
"c  c #542F0E",
"v  c #663A1B",
"b  c #452D25",
"n  c #48332B",
"m  c #573729",
"M  c #413D3E",
"N  c #4A3934",
"B  c #543A37",
"V  c #663B24",
"C  c #613F32",
"Z  c #72451C",
"A  c #57433B",
"S  c #65422C",
"D  c #6B4427",
"F  c #754927",
"G  c #684839",
"H  c #724C35",
"J  c #7A5437",
"K  c #7E522A",
"L  c #3F3F40",
"P  c #413F40",
"I  c #4B4345",
"U  c #4A4347",
"Y  c #5D4A43",
"T  c #524A4D",
"R  c #594746",
"E  c #564D51",
"W  c #5A5255",
"Q  c #5F5F5F",
"!  c #5E5459",
"~  c #664C45",
"^  c #6A5249",
"/  c #775849",
"(  c #675858",
")  c #775C55",
"_  c #724E40",
"`  c #7A655A",
"'  c #6A5E63",
"]  c #655B61",
"[  c #6D666A",
"{  c #77676A",
"}  c #786C72",
"|  c #7F7E7E",
" . c #7E7277",
".. c #5F5F60",
"X. c #824C27",
"o. c #88542A",
"O. c #865837",
"+. c #945A32",
"@. c #996337",
"#. c #8D663D",
"$. c #A56A3B",
"%. c #A9723E",
"&. c #875E48",
"*. c #815F53",
"=. c #896348",
"-. c #996B49",
";. c #856757",
":. c #966D55",
">. c #9A7459",
",. c #A26D45",
"<. c #A9754A",
"1. c #B57949",
"2. c #A97955",
"3. c #B97D53",
"4. c #A26C53",
"5. c #866C64",
"6. c #897468",
"7. c #987664",
"8. c #82757B",
"9. c #887979",
"0. c #987875",
"q. c #916A60",
"w. c #A57B68",
"e. c #C17F4A",
"r. c #B78458",
"t. c #B38052",
"y. c #998277",
"u. c #9A8364",
"i. c #A68367",
"p. c #B98866",
"a. c #A48576",
"s. c #B99372",
"d. c #B68B71",
"f. c #C78A58",
"g. c #D2935A",
"h. c #C99265",
"j. c #D39869",
"k. c #C89976",
"l. c #D0976F",
"z. c #DBA775",
"x. c #D1A474",
"c. c #E3AA78",
"v. c #E6AF73",
"b. c #D6A15E",
"n. c #F0C476",
"m. c #7F7E80",
"M. c #8B7D84",
"N. c #877A81",
"B. c #8F8B8D",
"V. c #94858A",
"C. c #9A8C94",
"Z. c #978B92",
"A. c #9F9D9E",
"S. c #9E9198",
"D. c #B79686",
"F. c #A4939A",
"G. c #B49896",
"H. c #A78C89",
"J. c #BAA296",
"K. c #AB9BA4",
"L. c #A99AA3",
"P. c #B39EA1",
"I. c #B2A3AC",
"U. c #BCA5A7",
"Y. c #BBABB5",
"T. c #B8A9B3",
"R. c #BFBDBD",
"E. c #BFB1BB",
"W. c #B7A9A9",
"Q. c #C29A94",
"!. c #D9AC86",
"~. c #DCB486",
"^. c #DAB899",
"/. c #CEA891",
"(. c #E5B687",
"). c #E6BB97",
"_. c #D8B5AC",
"`. c #C3B3BC",
"'. c #CAB3B6",
"]. c #D3B6B7",
"[. c #CBACA9",
"{. c #E5BBAA",
"}. c #E9C497",
"|. c #F2D99A",
" X c #F1CE8E",
".X c #F5E09C",
"XX c #E9C7A9",
"oX c #EDD1AA",
"OX c #F3D6A9",
"+X c #E8C5B6",
"@X c #EDD7B5",
"#X c #F3DAB7",
"$X c #F1C5BB",
"%X c #F6E7B9",
"&X c #F8F4BA",
"*X c #F4EAAA",
"=X c #DFC3BF",
"-X c #C6B6C0",
";X c #CBBBC5",
":X c #CDBEC8",
">X c #D2BEC6",
",X c #CECDCD",
"<X c #CFC0C9",
"1X c #D7C4CA",
"2X c #DACAD3",
"3X c #DEDDDD",
"4X c #DED0D9",
"5X c #F6D8C7",
"6X c #E2D3DC",
"7X c #EDDAD7",
"8X c #F4D8D4",
"9X c #E4CCCB",
"0X c #F6ECC3",
"qX c #F6EDCB",
"wX c #F7E7C6",
"eX c #F6F3C4",
"rX c #FAF4C4",
"tX c #FAF4CC",
"yX c #FCFBCC",
"uX c #F8F6C9",
"iX c #F8EBD7",
"pX c #F7F3D3",
"aX c #F9F4D3",
"sX c #FCFBD4",
"dX c #F6F4DC",
"fX c #FAF4DC",
"gX c #FCFCDC",
"hX c #EADCE3",
"jX c #F5DFE1",
"kX c #F4E6E8",
"lX c #FAF5E3",
"zX c #FDFBE4",
"xX c #FDFCEB",
"cX c #FAF5E9",
"vX c #F7EDF3",
"bX c #FBF3F5",
"nX c #FDFCF3",
"mX c #FDF5FA",
"MX c #FEFCFB",
"NX c #F7F0F5",
"BX c #EEEAEC",
/* pixels */
"  X         . .   X o ; p P P {  .Z.L.T.-X4XmXMXvXhX-XT.K.T.`.9.V.V.9.( ( ( a G P R e X . .         X X X               O   O   ",
"                  o o : i P E ' y.Z.L.T.;X3XNXMXvX2X;XY.I.K.>XV.9.) ~ ( ^ R e ~ ) ~ 0 @ % .     .                               ",
"            .   X o o ; n P E ' V.Z.K.Y.;X6XbXMXvX2X>X`.K.K.].V.5.' ( ^ *.~ e ~ / b 1 @ # X X   X                         O     ",
"                  o o 8 P P P ' V.F.W.`.:X6XbXMXbX6X>X`.[.P.'.F.6.) ^ ~ 5.*.B l m C 0 2 @ . .   X       X       X   X X       X ",
"              . . % % ; P { ] ' V.Y.U.`.1XhXMXMXbX8X9X>X].[.[.G.w.5.*.) a.D.D.G C h 5 q 1 & . O               X               O ",
"                  R N 9 i P N.N.9.F.G.].9XjXMXA.S.jX8X{.{./.^._.d.d.w.&.&.H J H &.;.:.l B 0 n #                                 ",
"                  p ) i i N ! 5.H.H.P.=X8XkXMX| N.kX8X5X{.+X{.{.k.k.k.2.-.&./ >.w.>.H l n ~ 5.I   .             X               ",
"                . o a ! } 8.M.5.0.U.].].5XbXR.d | bXiXwXcXcXxXiX(.!.l.p.1.,.<.@.X.O.V G 5 n ( y.w .   %                         ",
"      X       X X u f R { 6.E ` 0.G.[.$XjXmX|   d R.xXxXsXyXsXgXzX%X%X(.g.3.h.<.$.o.F O.G ` G y.) . . .                         ",
"          X   u i u * g ( 9.6.{ 0.Q./.{.kXmXR.d   | MXnXsXyXyXyXzXxXpX%XOXoX).g.e.3.,.X.F H / s.D.2 + . .             o o       ",
"          = 8 ; % % # a R ( 6.{ 0.Q._.5XcXMX6XQ   | MXMXgXyXyXuXgXxX0XOXfXbXlX@Xg.1.r.,.K Z D ;.a.r N 9 .             X X       ",
"          o p % N { r r b ~ ~ 5.w./.{.wXbX,X[     | nXnXgXsXyXpXgXsX Xn.wXcXcXlXXXz.z.h.<.o.X.w.;.k G 5.7 .     X           X   ",
"          . - a 5.6.^ 0 b G *.w.Q.!.$XzXnXL       | MXMXxXzXsXgXgXeX*X|.qXfXxXlXfX|.v.c.h.3.p.s.u.=._ m b # . . X o         X   ",
"          . @ 9 7 3 q l m H &.w.k.{.wXxXnXL y ;   Q ,XMXnXcXgXgXgXeXgXzXsXnXxXpXcXfX#X}.c.g.f.<.+.O.v l n , + . O   .           ",
"        . + 1 e , < 0 j V O.4.3.).wXlXnXMXL | |     d MXMXnXxXzXgXsXxXzXeXzXxXxXxXnXcXlX5Xz.j.f.$.-.F x S 7 @ # 8 . .           ",
"      . # & 1 < q j h V k.2.2.!.XXlXMXMXMXMXMX|         A nXxXzXxXxXnXxXzXzXzXxXnXxXOX%XxXzXiX(.l.,.O.7./ 0 7 r 0.% O           ",
"  X * 9 1 ^ l l t t c S K -.t.0XlX5XiXMXMXMXMX|       L MXnXnXxXxXxXxXxXxXxXzXzXxXxX%X.XlXiXiXxX~.3.2.q.V ~ e e 6.w i g         ",
"%   a a.) y.` S D c J K O.#.r.eXcX%X#XbXMXMXMXMX|     L MXxXxXgXzXxXnXgXzXxXxXpXpXgXsXdXcXlXxXxX@Xk.2.X.O.G.y.A G A ) ; O       ",
"( . % 5._ a.D u.K c v u.s.r.t.*XgXpXwXnXMXMXA.L y ..B.L MXxXxXgXgXxXxXxXzXzXgXsXsXsXsXlXxXzXzXpXoXf.3.O.O._ 0.b ` ( w   X       ",
"( % # 0 k i.x u.J.D Z K t.r.h.(.eXnXmXMXMXMX3XR...m.R.= } nXnXsXgXzXzXxXxXgXgXsXsXsXsXgXzXsXtX0XXXe.$.v V V k < ~ u o w -       ",
"; . + $ 6 c j x s.u.K K -.t.j.v.OXxXnXMXMX} L A.| | BXB.L xXzXgXzXzXxXxXzXzXzXgXpXzXzXdXxXpXeX%XOXj.,.+.V 4.l e 4 O O : =       ",
". . . $ 6 k k S J J u.%.t.f.c.n.OXxXMXMXMX,X..y y | MXBX,XzXsXgXxXxXxXgXgXzXsX%XyXnXxXxXnXzXpX#XXX).3.+.X.C l q & . .     O     ",
"o . O r , 6 t c x J %.t.t.f.v.|.&XxXnXMXMXMXm.    | MXMXnXzXzXxXnXxXxXxXgXgXgX%X&XzXnXnXnXxXdXpX#X).g.+.X.z h 3 4 . .           ",
"= . w n $ m m j v J #.r.g.b.v.0XgXxXzXzXxXMXR.| L | MXMXnXxXxXnXxXzXxXxXgXgXgXgXpXgXnXnXxXxXzXgXrX#X).h.X.V V h 0 * . .         ",
"  . A 9 1 m m x F i.x.z.oXzXdXcXxXxXgXgXxXnXR.R.R.m.A.MXMXnXxXnXnXnXnXzXdXtXgXsXgXxXxXxXxXxXxXcXlXwXOXXX/.-.7.) B + . =         ",
". Y A N 3 0 ) 7.F 2.s.^.iXcXxXnXgXzXgXgXxXxXR.R.R.A L MXMXnXxXnXnXnXnXnXzXuXxXzXzXfX%XgXxXxXlXqXiXiX5X^.s.&.z k e 4 a a %   = o ",
"O ) f a n r m S K #.t.(.lXlXzXdXzXzXgXgXxXxXnXMXA.y p ,XnXMXnXxXnXnXnXnXnXxXxXfXpXgX0XpXpXqX#XwX#X@X@Xk.-.#.i.l r 9 9 = ; u -   ",
". * & a 9 e m z u.r.r.c.dXqXpXuXrXsXgXgXgXxXnXMXMXm.o ..,XMXnXnXnXxXzXgXrX&XuX&XuXeXtXtXzX0X X@XwXXX!.<.,.&.=.k 0 9 - 9 ; u u o ",
"  . % g $ , 6 c -.#.t.x..XsXdXuX&XyXyXsXzXxXnXMXMXm.L ,XQ ,XnXnXxXxXyX&X*XyXyXsXyXyXtXeXqXaX|.wXXXc.j.<.@.J z _ B 7 n I o     O ",
"g 8 9 w & 7 m j D t.i.z.b.@XeX|.&XyXyXsXxXxXnXnXMXm.L MX,X[ MXnXxXgXrX&X&XzXgXsXyXsXsXuXtXfXqX#X}.g.f.r.O.V z q.< b i . .     O ",
"7 A N w A B m h c #.r.b.b.*XdX0XyXuXyXgXxXnXnXnXMXm.L MXMXMXMXnXgXsXyXyXsXzXxXyXn.yXtX*X%XfXlX%X).c.g.3.+.D V 6.r 1 a ;       X ",
". . . . n 9 a m x u.#.%.h.c.%XcXxXsXuXxXMXnXMXMXMXm.L MXMXMXMXxXgXyXyXyXgXxXxXfX&XsXyXrXzXxXxXcXcX5Xz.1.#.J z G r @ * . X O     ",
"i . X 1 b q < l D D Z @.l.~.oXlXcXpXcXnXMXnXMXMX|             xXgXsXgXgXyXgXxXzXzXsXsXgXgXlXnXnXcXxX+Xr.3.J V m , @ . . . o X   ",
"i . + 9 6 < < l S =.Z <.r.z.#XxXnXdXzXnXxXMXMXMX|     L MXMXMXzXgXzXgXsXsXgXzXzXxXsXyXsXdXzXxXcXxXcXwXx.i.-.7./ 1 . . .         ",
"i . X 2 2 l >.m _ /.i.,.,.h.).lXcXuXpXzXxXnXnXMX3XQ   d MXnXnXxXyXgXrX*X&XyXtXzXxXzXeXyXgXzXdXnXcXwX^.h.4.;.a.) e . .           ",
"= . X 2 < e /.l / H =.-.,.1.f.oXqX%X#XlXnXnXgXnXMX|   A MXxXxXgXyXgXsXyXyXrX&XpXxXcXzXpXzXcXzXzXaX).h.2.2.s.m q 2 .             ",
". . . @ @ < C l b 6 k J -.<.t.g.c. XwXfXcXnXnXMXMX3XB.> [ xXxXgXgXzXgXzXuX&X&XgXeXqXzXzXnXnXzXOX(.f.1.$.X.q.5 1 + .   .   X X   ",
"  . . + @ 2 < C k 5 6 x F -.<.1.g.OX%XqXgXxXMXMXMXMXR.  L xXxXsXgXgXgXzXzXsXyXxX.XrXxXxXcXcXzX(.g.%.+.X.V *.3 7 . .             ",
"  . . + @ 2 2 a.5 l 6 h v -.%.e.j.yX%XqXzXcXnXnXMXMXR.  L xXzXsXsXxXxXxXxXgXtXfX.XdXxXxXzX5XfX~.e.$.X.v z k 2 .   .             ",
"      . + @ 2 e ) < < < j J #.@.}.sXsXgXuXdXxXlXxXMX3XQ L nXgXeX&XxXxXxXxXgXfXgXcXxXnXxXaX}.XXh.$.X.v j 6 2 + .                 ",
"        . + + @ @ @ @ , h V #.@.}.sXsXsXgXpXwX#XxXnXMX3XA.MXxXnXxXxXxXnXxXxXxXcXzXaXiX#Xc.g.f.$.o.-.z 6 $ % .             X     ",
"      . . + % + + . + 2 6 c Z o.p.oX&XpXsXsXpXiXiXiXbX6XA.MXMXnXzXlXxXxXxXiXwXwX).v.c.z.z.3.+.X.:.x 5 4 @ . .     X         X   ",
"          . . + . . . @ < l D Z t.k.^.%XrXuXaXwX5XdXnXR.s ,XMXxXfXgXqXxXbX#X(.{.j.g.j.l.3.4.o.V V 6 < $ .                       ",
"              . . . o & $ j m Z :.#.t.k.^._.+X{.5XiXvX,XL } MXcXiX5X#XiXjX).c.l.3.<.2.,.+.H H l j , @ w w                       ",
"              .       . + 4 0 S H J &.7.D.Q.Q./.+X9XdXbXMXmXkX8X5X+X{.{.{.k.3.d.:.&.*.&.C l e 6 * * 9 u .           X           ",
"          o           . . @ < t k H / *.6.H.G.[.=X7X7XNXMXbX8X8X9X_.[.Q._.w.0.q./ _ ~ ~ ) A 3 1 a O O X                         ",
"            X         . . + $ 0 b _ ) ^ 6.0.V.Q.1X=X2XvXMXbXkXjX].'.P.G.>XM.w.*.^ P P n a q * w - .   .                         ",
"                X       . . # 3 q n B ~ ( 8.y.I.U.'.>XhXMXmXkX2X'.[.P.F.-XM.q.' E ) q.b w : 8 o         X                       ",
"                        . + $ 3 6 a A A ^ [ 8.Z.K.`.;X6XmXmXvX<X-XY.K.L.>XM.{ ] W P P p p p > X     O                           ",
"                      . . + * 3 A ` A A ( }  .B.L.Y.`.2XmXMXbX2X-XY.I.K.-XM.N.] W P f p i = o X             X                   ",
"      =                 . # , 7 r u.u.Y ( y.| V.L.T.`.1XNXmXmX4X:XY.I.K.`.M.N.! W P d p y - o   .                     X         ",
"      X                 . # $ 7 r b ~ ` Y { 9.B.S.K.`.>XBXmXmXhX:X-XY.T.>XM.N.' ] P d s u - > o           X                     ",
"                        . . @ 4 0 e b B P ! { N.C.K.Y.-XhXmXmXBX:X-XY.T.-XM.N.] ] E P a u - o X                                 ",
"                        . . + # 3 0 e f P ! ] N.Z.K.I.-X4XmXMXNX2X;XY.T.:XI.M.m.! P P n y - > X   X               X             ",
"                        .   . + & 9 0 a P ( ] 8.V.L.I.-X1XNXmXbX4X;X-XY.>XM.N.' ] ! P f i - > X   X             X       X       ",
"                          . . . % & ; a P R ! { N.S.K.Y.:XBXMXmXhX:X-XY.2XM.M.N.] P P s u - o X .                             o ",
"                X             X % o - u s P ] { N.Z.L.T.-X6XmXmXvX:X:X-X:XL.M. .' E P f i : > X .                       X       ",
"              X                   o > ; s P P ]  .V.S.I.E.2XvXmXvX>X2X:X:XL.M.m.' E P f u - > X . X                             ",
"                                X o o : i P P ] } N.C.K.Y.:XhXmXvX4X>X:X:XL.M.N.' ! P f i - > X X             o                 ",
"                              .   X o = i f P ! [ N.V.L.I.`.2XNXmXhX6X>X;XK.M.N.[ ! T f i - o X X   o     X                     ",
"                        X         X X > ; s P W ' } N.S.K.Y.:XvXmXvXhX2X-XL.M.M.[ ! U f i : o X X         X                     ",
"                                    X > : i f P ! } N.Z.L.T.E.6XmXvXvX4X-XL.C.M.[ ! T P p : > o X   X                           ",
"                                X   X o - y s P W [ m.M.F.I.-X>XvXmXvX6X-XL.C.M.} ! T f i ; o X X   X                           ",
"                                  X X X > y i d T ] } M.S.K.I.-XhXvXvX4X-XL.C.M.[ W T d p y = X .                               "
};
