/* XPM */
static char *result[] = {
/* columns rows colors chars-per-pixel */
"64 64 237 2 ",
"   c #010101",
".  c #0A0403",
"X  c #0B090A",
"o  c #0B0807",
"O  c #130603",
"+  c #1B0603",
"@  c #140905",
"#  c #1C0A05",
"$  c #130C0B",
"%  c #1C0C0A",
"&  c #19110E",
"*  c #141112",
"=  c #1A1515",
"-  c #1E191A",
";  c #1A1816",
":  c #131011",
">  c #240B04",
",  c #2A0D04",
"<  c #230C08",
"1  c #25120C",
"2  c #2B130C",
"3  c #2A1105",
"4  c #35190C",
"5  c #3C1C0B",
"6  c #351607",
"7  c #2C1A14",
"8  c #211C1C",
"9  c #2B1D19",
"0  c #251714",
"q  c #381D14",
"w  c #300F03",
"e  c #38231B",
"r  c #2E201A",
"t  c #221F20",
"y  c #222121",
"u  c #2B2425",
"i  c #2D282A",
"p  c #322522",
"a  c #322D2D",
"s  c #3B2A26",
"d  c #352E31",
"f  c #3B3637",
"g  c #3E312F",
"h  c #411E0C",
"j  c #401E12",
"k  c #48250D",
"l  c #51290E",
"z  c #442414",
"x  c #4B2B14",
"c  c #482817",
"v  c #522D16",
"b  c #573319",
"n  c #653B19",
"m  c #713E17",
"M  c #432B23",
"N  c #462D26",
"B  c #49332A",
"V  c #573826",
"C  c #413D3E",
"Z  c #4A3834",
"A  c #583D35",
"S  c #633C23",
"D  c #6A421D",
"F  c #76461C",
"G  c #5A4237",
"H  c #4F413D",
"J  c #694527",
"K  c #774A28",
"L  c #664737",
"P  c #724D37",
"I  c #78543A",
"U  c #78512B",
"Y  c #423F41",
"T  c #4A4244",
"R  c #4D4549",
"E  c #52494D",
"W  c #594845",
"Q  c #574D52",
"!  c #5B5255",
"~  c #5F5F5F",
"^  c #5D545A",
"/  c #5D504E",
"(  c #664D46",
")  c #69534A",
"_  c #775848",
"`  c #665859",
"'  c #785B55",
"]  c #634F51",
"[  c #796559",
"{  c #6F605E",
"}  c #685D63",
"|  c #6F6E6E",
" . c #6D6168",
".. c #71666B",
"X. c #766768",
"o. c #776B73",
"O. c #7F7E7E",
"+. c #7D7277",
"@. c #865425",
"#. c #875A38",
"$. c #8D562D",
"%. c #8A613A",
"&. c #9A673A",
"*. c #95632A",
"=. c #A66D3B",
"-. c #A7753C",
";. c #B37739",
":. c #865D43",
">. c #835F50",
",. c #886449",
"<. c #986A48",
"1. c #886859",
"2. c #9A7759",
"3. c #936E50",
"4. c #A67546",
"5. c #B77B4B",
"6. c #A97855",
"7. c #AC7047",
"8. c #977666",
"9. c #86787A",
"0. c #957B79",
"q. c #8A6E65",
"w. c #AA7D65",
"e. c #A07C70",
"r. c #C27E53",
"t. c #BA834E",
"y. c #B88658",
"u. c #B08658",
"i. c #998270",
"p. c #A98564",
"a. c #B68A66",
"s. c #BB926C",
"d. c #B79577",
"f. c #AD8B77",
"g. c #C68848",
"h. c #C68B55",
"j. c #CA9358",
"k. c #D29357",
"l. c #C88C63",
"z. c #C79566",
"x. c #D59B65",
"c. c #C49676",
"v. c #CE9972",
"b. c #D8A467",
"n. c #CDA474",
"m. c #D6A677",
"M. c #DBB87E",
"N. c #E2AD78",
"B. c #E6B57A",
"V. c #E2AC6D",
"C. c #F1C97C",
"Z. c #7F7E80",
"A. c #8A7C82",
"S. c #8F8589",
"D. c #93858A",
"F. c #97878C",
"G. c #9A8C93",
"H. c #9F999A",
"J. c #A4949C",
"K. c #AA9598",
"L. c #B59A98",
"P. c #AC8F8A",
"I. c #AB9BA4",
"U. c #AE9FA9",
"Y. c #AFA1A9",
"T. c #B3A5AC",
"R. c #B8A6A8",
"E. c #BBABB4",
"W. c #BEAEB9",
"Q. c #B6A8B0",
"!. c #BFBDBD",
"~. c #C79C90",
"^. c #DCB488",
"/. c #C7A495",
"(. c #D5AB8F",
"). c #E6BA88",
"_. c #E5B992",
"`. c #C7A8A7",
"'. c #D9B4A6",
"]. c #C3B4BD",
"[. c #C9B3B6",
"{. c #D5B5B4",
"}. c #E4BCB0",
"|. c #EAC998",
" X c #F1CF90",
".X c #EBCAA5",
"XX c #ECD5A9",
"oX c #F3D9A6",
"OX c #E5C8B9",
"+X c #EDD6B9",
"@X c #F3DCB7",
"#X c #F1CAB3",
"$X c #F5E7B8",
"%X c #F8F4BB",
"&X c #F7ECAA",
"*X c #FAE89A",
"=X c #CBBBC4",
"-X c #CABBC5",
";X c #D1BEC7",
":X c #CECDCD",
">X c #CFC0CA",
",X c #D3C3CD",
"<X c #DAC5C9",
"1X c #DBCBD4",
"2X c #DEDCD9",
"3X c #E5CAC9",
"4X c #F4D9C8",
"5X c #E6D3D9",
"6X c #EFD4D0",
"7X c #F6E9C7",
"8X c #F9F5C4",
"9X c #FBF9C5",
"0X c #F6F3CC",
"qX c #FAF5CB",
"wX c #FCFACB",
"eX c #F6F4C5",
"rX c #F9EAD8",
"tX c #F6F2D4",
"yX c #FAF5D4",
"uX c #FCFBD4",
"iX c #F7F3DC",
"pX c #FAF5DB",
"aX c #FCFCDC",
"sX c #EFE5C9",
"dX c #EADBE3",
"fX c #F3DFE6",
"gX c #EEE2E9",
"hX c #F5E6E8",
"jX c #FBF6E3",
"kX c #FDFCE4",
"lX c #FDFCEB",
"zX c #FCF5EC",
"xX c #F7ECF2",
"cX c #FAF2F5",
"vX c #FEFDF3",
"bX c #FCF6FA",
"nX c #FEFCFC",
/* pixels */
"  o         .   X : 8 d T ! ..D.J.W.].,XgXnXnXbXdX;X-XE.I.K.;XA...{ ] ] q.1.( A ' V , + + O   .     o o o               o   .   ",
"            . o X : 8 f T ! ..G.G.Q.=X<XgXnXZ.Z.dX1X=XQ.K.G.[.F.X.` ] W ' 8._ x c L V > > O . . .       o                       ",
"          .   . o : - E T ! ..D.E.[.].<XgXbXdX2XfX<X;X`.R.K.[.J.q.' ] ( q./.1.S b b j 6 2 % @ . .   . . o         .   o         ",
"            . o * : 8 Y o.+.o.A.R.Q.[.5XhXnXH.H.fX5X3X[.`.~.`./.8.q.>._ [ 2.i.p.b S v V q q 1 + @ O O O O   . .     o           ",
"              X X.r 0 a Y  .X.F.K.T.;X5XhXnXO.O.hX6X3X}.'.(.(.'.s.f.w.,.I U J J L 3.8.>.4 A s ( 2 < # + O . .                 . ",
"            . . p [ Z H ] X.+.L.L.R.{.5XhXnXZ.Z.bXrX4X#XOX4XOX.Xv.c.d.p.<.,.#.3.6.P S S 5 4 ( ) 8.> , > + O .                   ",
"        . . . . o B o.D.A.i.9.9.K.[.{.3XhXnXO.C ].jX4X4XjXlXkXrX_.).v.y.6.<.#.6.m m n S A 4 A A F.N 5 , # O . . .               ",
"        . . . # H H / { ~ / { 0.K.`.{.6XzXnXO.  A.vXjXzXpXwXuXaXiX|.B.v.y.5.7.7.$.#.#.n I _ q.S i.2.V 4 > + . .   .             ",
"      . @ f H Z r 2 H L O.~ { i.L.`.}.6XbXnXO.  H !.vXlXwX9XwXwXkXkXqXoXm.m.l.r.r.&.&.K n V P :.i./.P w , + O .                 ",
"    . & 9 1 3 2 2 q s B H ) | i.P.'.OX6XnXnXO.    O.nXlXwXwXwXeXpXlX$X).$XzXrX@Xx.5.7.<.U n b l P 8.V L M + .         X X o     ",
"      X e 2 6 L G 5 e H W ] X.0.~.'.3XrXnX:X~     O.nXvXuXwXwXuXkXkXoXC.XXjXlXrX.Xk.r.l.&.K m b 1.p.N V q.M O   o     X o       ",
".   . O 0 M ( d.d.x e J ( ' 8.f.~.}.4XlXnXC       O.vXlXaXwXwXaXaXwX$XoX$XjXiXvX7XV.x.x.z.4.%.u.8.,.P >.A M O   X           .   ",
"  .   O # 4 c x J z c V L >.8.~.(.#XrXvXnXT       ~ :XvXkXuXwXwXuXwXkXlXjXlXvXlXrX7X.Xb.k.g.t.-.@.K n k 6 Z 0 . . o             ",
"  . . O # c 4 5 5 z b S P 3.w.c.}.rXzXvXnX| -       a :XvXkXkXaXaXaXlXlXyXyXlXlXjXvXjX7X.Xb.g.;.*.&.%.b c N ( O O $ @           ",
". . O + > 3 6 z x k S w.:.6.r.(.sXvXvXnXnXnXO.        f nXvXlXpXkXkXvXlXkXkXjXlXlXlXjXoX7X@X Xg.;.u.p.I A i.0.@ % Z u           ",
". + + B e 3 6 5 5 l V :.a.7.(.rXhXzXnXnXvXnXnXO.      T nXvXvXkXkXlXlXvXlXlXlXkXvXvXpX X$XkXyX$Xb.-.6.#.p.) A q + Z Z O * .     ",
"s ) B G _ V I c b P D K %.y.XXkXrXrXnXnXnXnXnXO.      Y vXvXlXkXuXkXlXlXkXkXkXkXkXkXkXqXjXkXpXtXeXn.z.<.S b f.' A 1.N 9 B       ",
"# ( G _ J ' ,.V x I 3.%.<.y.XXaX7XpXvXvXnXnXO.        Y vXlXlXkXuXaXlXkXaXaXkXaXqXuXuXyXkXlXkXlX8XM.y.4.m S 1.e.' s X.Y 8       ",
"+ M M q.b G P.3.l U 2.s.y.y.^.wXyXzXbXnXnXnXO.    ~ S.Y nXvXlXuXuXkXkXlXkXaXaXaXuXuXuX0XkXkXkXaX&Xb.;.-.m v z j e 9 A.0 o       ",
"# < 6 L 5 x 8.d.J D U %.4.y.v..XuXvXnXnXnXnX2X~   y d Y nXlXkXaXaXkXkXlXaXaXaXuXuX9XyXuXkXkXyXyX&Xj.;.*.m S P j 1 < p . ; d a   ",
"@ # 3 4 5 x I d.I %.%.<.-.j.N.B.aXvXnXnXnX| Y y   ~ !.:XnXkXuXaXkXkXkXkXuXaXkXwXuXaXkXkXpXkXuXeXXX|.k.=.@.b P ( r 0 @     o     ",
"@ # # 4 z x I J U p.4.4.h.V.B. XpXvXnXnXnX:X~     O.vXvXlXuXwXaXlXkXlXaXuXaXaXeX$XlXvXvXlXkXkXeX$XXXm.=.@.S S j < @ . .         ",
"& r @ > 6 5 k U I u.t.;.g.b. XoXkXlXvXnXnXnXZ.    O.vXnXlXkXaXlXlXlXlXlXkXaXkXkX%XjXlX2XH.kXkXaX9X$X).7.@.m l j # O u .         ",
"H # @ 7 G 5 5 n %.&.u.h.V. X$XeXkXkXlXlXvXnXZ.    O.nXnXvXlXlXvXvXkXlXlXaXkXaXkXjXaXaX2XH.lXlXpXeX@X_.v.&.m S ( M 0 p           ",
"H = O 1 N b b J c.z.).+XlXjXlXlXkXlXkXkXvXnXS.    O.nX2XH.vXlXvXnXi.2XkXiXaXtXaXaXkXlXlXkXlXlXlXkX7X+X|.v.c.w.>._ G 0 .   *     ",
"Z s g O M _ 3.n y.y.M.sXiXlXlXkXkXkXkXkXvXnX!.O.f T H.2XH.lXaXlXvXO.2XvXvXlXlXaXkXkXpX$XpXlXlXiXiXpXsX.Xc.w.,.v c 7 p . 8 a X   ",
"p 9 Z e M V J K -.u.^.iXtXiXaXaXaXaXaXkXlXvXnXnXZ.  d :XkXkXaXlXlXvXlXlXlXlXlXkXeXlXkX8X0XtX0XoX7X+XOX(.a.<.S w.5 7 7 = ; X . i ",
"O u r 7 s k x p.u.t.n.sXtXsX%XwXuXaXkXaXlXnXnXnXZ.  : | nXvXkXlXlXkXaXaXuX%XeXeX%X8XqXuX0XkXtX|.@XsX^.l.&.<.U >.c q % 0 $ : * * ",
". s p O 3 4 b p.<.y.b. X0XaX0X9XwXwXuXkXlXvXnXnXZ.  Y nXnXvXlXlXlXaX9X%X%X&XwXeX9X%XwX8X$X$X7X|.@X.Xx.h.<.:.<.k V G B 0 E i .   ",
". s % < M z k P <.a.M.j.|.&X X&XwX9XwXlXvXnXnXnXO.y | nXnXnXvXlXkXaX9X&X&XuXaXwX9XwXuXuX9XpXkX7X XN.h.5.w.m S l >.2 0 p $ .     ",
"= 9 r Z A b 5 l %.z.n.g.V.&XXX%XwX9XuXkXnXnXnXnXO.Z.nXnXnXnXvXkXuXwXwXwXaXaXkXwX%X&XwXwX&X$XkXyXB.B.x.r.7.#.S z 8.7 # 0 ; .     ",
"# % e A q G z n ,.U -.t.b.$XaXlXuX%XeXkXnXnXnXnXO.O.nXnXnXvXvXaXuX9XwXuXlXlXlXaX*X*X9XqXqXyXpXjXlXrX_.r.=.K K V ( P.r $ 8       ",
"O > e B z L x J l D %.t.b.|.tXlXtXlXlXvXvXvXO.        C nXnXvXuXuXuXuXaXkXkXlXkXuXwXwXuXkXqXpXlXvXvXsXl.7.,.n l V < + . . o   * ",
"# e c b z k b b %.D &.z.n.).uXlXiXaXjXkXvXnXnXnXO.    Y nXvXlXkXaXaXuXuXuXaXkXaXaXuXuXuXaX0XvXjXiXlXrX.Xs.y.,.>.L < + .         ",
"+ , 4 5 v S D 2.2.F %.*.j.|.sXkX$XtXkXkXvXnXvXnXO.    Y nXlXlXkXuXaXwX9X%XwXuXwXkXkXyX8XqXiXlXiXjXpX+Xn.s.,.J f.1.2 # . .       ",
"+ , 5 5 ,.p.k p.d.2.%.$.-.h.^.eXsX@XpXiXvXvXvXnX2X~ a :XvXlXkXaX%XaX9X&X%X9X%XeXvXkXkX8XuXlXjXtXaX@X(.l.a.#.2.A B 2 @ .         ",
"O > 5 h J p.x x k U I 3.-.-.z.b.oXoX7XlXnXvXvXnXnX2X:XnXvXlXkXuX9XuXuXaXwX%X%X%XkXaXaXuXpXlXlXyXoXm.r.=.$.m 1.G > + O . . . X   ",
"O > w w z b b x 6 x J U <.&.t.j.V.&XeXiXkXvXnXnXnXnX:X| vXkXkXuXuXaXkXkXaX%XwXuXuX*X$XuXkXlXvXyXB.r.;.@.K V 1.q q + . . .       ",
". + , w 6 k 6 V 5 6 b J %.-.-.g.|.$X$XuXkXnXnXnXnX!.~ Y nXlXlXuXuXkXkXkXkXuXuXaXaXC.qXkXlXjXzX7Xx.;.*.m n k q.2 7 @ .   .       ",
". . + > > 5 B 3 2 3 3 5 I -.-.y.wXuXuXtXjXvXvXnXnXZ.  y H.vXkXwXeXkXlXkXlXuXuXyXrX%XzXlXlX0X X.Xj.&.@.l h w > O . . . X         ",
". . O O + + 7 < + + > 5 J %.*.s.uXaXaXaXpXzXkXpXnX!.~   f nXkXeXeXlXlXlXlXkXkXlXjXlXlXlX4X).V.m.7.@.@.l 6 1 O O . . o     o     ",
"      . . . . . . . # 6 v K *.y.XX9XuXaXaXyX7XrXlXnX!.  H nXvXlXlXtXkXvXlXlXlXpX@X).)._.m.h.5.=.K #.,.4 > @ .                   ",
"  .   . . .   . . . @ 3 k n F &.^..XeXyXyXyX7XrXiXbX:Xa a :XvXvXkX0XaXkXzXzXhX#X).x.k.m.v.y.=.@.m ,.V 2 + . .                   ",
"        .       . . O > k D D %.a.s.^.XX@X4XrX4XrXnXnX!.: | nXvXpX7X$XiXjXrX).).x.5.y.v.c.#.#.n l z 3 # . O   .   X             ",
"                  * $ # 6 V J ,.%.<.a.d.(.'.OX3XrXxXnX:X| bXcXrXsX#X}..X@X_.v.r.7.<.6.>.#.b b c 6 2 # . a -                     ",
".         :       . . @ > 6 V L L _ 1.0.L.L.`.<X6XxXbXnXbXhXrX4X4X'.'.~.'.~.w.w.,._ P L A c q 1 # & % 8 8                       ",
"                    . . O 3 4 M A ( [ q.P.L.`.3X3XhXcXbXnXrX6X6XOX`./.~.~.A.w.q._ P G ( ' ] B % $ a * $                         ",
"                    . . O # 2 q _ _ ' [ 9.K.I.[.5X1XhXnXnXxX6XfX[.`.L.F.`.K.q.>.( Y Y N 9 p 9 $ i .                             ",
"                      . . % % 7 e H H ` 9.S.K.E.].<XdXnXnXxX5X1X[.U.T.A.Q.K. .` Q Y ^ C u - * * .   o                           ",
"                      . . @ % 0 e Z W ! X.9.G.Y.].,X5XnXnXxX5X;X=XQ.U.A.U.U. .` Q Y Z d u a d : .                               ",
"      *                 . @ < 7 s B A / X.A.F.Y.W.-X1XcXnXcXdX;X=XU.I.J.K.U. .} ! Y Y a u u * X                                 ",
"                      . . # % 7 { ' G / S.G.D.J.E.-X,XxXnXbXgX1X=XQ.U.J.I.U.Z.} ^ E Y d u - : : .                               ",
"                      . . @ # 2 e ' X./ ..A.F.G.T.-X,XgXnXnXcX1X=XE.U.J.U.U.o.} ^ Y Y Z u - :                 X                 ",
"                        o O @ 1 9 s H W } +.D.G.Y.W.-XdXbXnXnX1X;X=XE.I.Q.U.A.} ^ Y Y Z u - : X o .           .                 ",
"                          O @ < 7 p B Y ! ..A.F.U.].-X5XbXnXbXdX;X=XE.U.Q.U.A. .^ ^ Y f u - : X   X             .               ",
"                        o   . $ 1 9 d Y Q } A.G.I.W.-X1XbXnXnXxX;X=X=XU.E.U.A.o.} Y Y d u t : X                               . ",
"                o         . . o : t u Y Y } o.A.I.Q.].1XxXnXnXxXdX;X].Q.W.Q.A.Z.} Q T f i - : X .                               ",
"              .               . X - t d Y } } A.G.T.].-XdXnXnXbXdX;X-XW.-XW.A...} Q R f i - : X                                 ",
"                            . o X : t d Y ^  .A.G.U.W.-XdXcXnXbXgX;X-X-X-XW.A.Z.} ^ R f i - : X                                 ",
"                          o   o X : - i Y ^ } 9.G.I.Q.-X1XxXnXbXxX1X;X-X-XW.A.A.} ^ R f i - : X o                               ",
"                        o       o X * u f Q ^ o.S.J.U.].;XgXnXbXxX1X,X>X-XW.A.A.} ^ E f i t * X X                               ",
"                              . o X * u d Y ^ ..A.G.U.W.-XdXbXbXxXdX1X1X-XW.A.A...^ E C a 8 * X .   o                           ",
"                              .   X : - d Y Q  .Z.G.I.Q.=X1XxXbXbXgX1X1X;XQ.J.A...^ E f a 8 * X X                               ",
"                                o o : - i Y R ~ o.S.J.Q.=X,XdXbXbXgXdX1X;XQ.J.A...} E C a t = X .                               "
};
