/* XPM */
static char *result[] = {
/* columns rows colors chars-per-pixel */
"64 64 242 2 ",
"   c #010101",
".  c #0A0404",
"X  c #0A0708",
"o  c #0D0A0A",
"O  c #0C0907",
"+  c #130503",
"@  c #1B0703",
"#  c #140905",
"$  c #1C0A05",
"%  c #120C0B",
"&  c #1C0D0A",
"*  c #1C110E",
"=  c #15100F",
"-  c #141212",
";  c #1A1414",
":  c #1E1A1A",
">  c #1B1718",
",  c #110F10",
"<  c #230B04",
"1  c #270E08",
"2  c #24110C",
"3  c #2A130B",
"4  c #2B1206",
"5  c #341A0B",
"6  c #3B1C0B",
"7  c #351608",
"8  c #231C1C",
"9  c #281916",
"0  c #331B13",
"q  c #381D15",
"w  c #3E240F",
"e  c #27201E",
"r  c #392319",
"t  c #221F20",
"y  c #232121",
"u  c #2B2425",
"i  c #2D2A2A",
"p  c #322C2C",
"a  c #382925",
"s  c #3B312C",
"d  c #342E31",
"f  c #3F3E3F",
"g  c #3B3436",
"h  c #431E08",
"j  c #47240C",
"k  c #442413",
"l  c #4C2C13",
"z  c #4B2D1B",
"x  c #45281A",
"c  c #542D15",
"v  c #57341A",
"b  c #502E13",
"n  c #623C1C",
"m  c #663B17",
"M  c #723E19",
"N  c #452D24",
"B  c #49332A",
"V  c #583927",
"C  c #413E3E",
"Z  c #493936",
"A  c #543C34",
"S  c #663D22",
"D  c #72461B",
"F  c #6D4218",
"G  c #59433A",
"H  c #4D403C",
"J  c #6B4224",
"K  c #64422B",
"L  c #69462B",
"P  c #754A28",
"I  c #684836",
"U  c #724E38",
"Y  c #785439",
"T  c #755333",
"R  c #433E40",
"E  c #4B4345",
"W  c #4C4448",
"Q  c #52494D",
"!  c #574746",
"~  c #564D51",
"^  c #5F5F5F",
"/  c #5B5257",
"(  c #5D514E",
")  c #674C45",
"_  c #68524B",
"`  c #795846",
"'  c #635A5D",
"]  c #665859",
"[  c #785C56",
"{  c #7B6359",
"}  c #6D615E",
"|  c #685D62",
" . c #6E6669",
".. c #75686A",
"X. c #796C72",
"o. c #7F7E7E",
"O. c #7E7475",
"+. c #865529",
"@. c #855938",
"#. c #90592D",
"$. c #8C623A",
"%. c #986638",
"&. c #97662D",
"*. c #A3693A",
"=. c #A8733A",
"-. c #B4793B",
";. c #825D43",
":. c #896447",
">. c #976948",
",. c #896A58",
"<. c #997556",
"1. c #927053",
"2. c #AA7947",
"3. c #B37948",
"4. c #A67C58",
"5. c #AF7349",
"6. c #866C67",
"7. c #8C7369",
"8. c #977564",
"9. c #837579",
"0. c #947A73",
"q. c #A67C68",
"w. c #C17D4B",
"e. c #B78457",
"r. c #B48350",
"t. c #9A826A",
"y. c #A78567",
"u. c #A68875",
"i. c #B99475",
"p. c #B88C6C",
"a. c #C3874B",
"s. c #C48A58",
"d. c #CA955A",
"f. c #D29753",
"g. c #C79669",
"h. c #D49B67",
"j. c #C89C75",
"k. c #C78F64",
"l. c #D4A56B",
"z. c #D8A77A",
"x. c #D7B07C",
"c. c #E8B777",
"v. c #E3AC74",
"b. c #DBA159",
"n. c #F6C67D",
"m. c #7F7E80",
"M. c #887C82",
"N. c #95858B",
"B. c #9B8C93",
"V. c #9A8C94",
"C. c #9F9D9C",
"Z. c #9F9696",
"A. c #8E878B",
"S. c #A48A86",
"D. c #A3949C",
"F. c #A89599",
"G. c #B69C9B",
"H. c #B19387",
"J. c #BAA293",
"K. c #AB9BA4",
"L. c #AA9AA4",
"P. c #B39FA5",
"I. c #B3A4AD",
"U. c #B8A3A6",
"Y. c #BAABB4",
"T. c #B9AAB4",
"R. c #BFBDBD",
"E. c #BEBFB7",
"W. c #AFA0A7",
"Q. c #C39B8A",
"!. c #C59E93",
"~. c #D7AA87",
"^. c #C7A698",
"/. c #DAB399",
"(. c #D2AB8A",
"). c #E8B987",
"_. c #E6B990",
"`. c #C6A9A7",
"'. c #C2B2BB",
"]. c #CAB5B7",
"[. c #D2B5B2",
"{. c #E2B7A8",
"}. c #EAC89A",
"|. c #F2D89B",
" X c #F0CF90",
".X c #D6D6BC",
"XX c #EACBA7",
"oX c #EDD5A7",
"OX c #F3D7A7",
"+X c #F2D9B6",
"@X c #EBCDB5",
"#X c #F5EAAC",
"$X c #F5E4BC",
"%X c #F7E8B7",
"&X c #F8F4BA",
"*X c #F3E9AF",
"=X c #F9E19D",
"-X c #CBBBC5",
";X c #C9BAC4",
":X c #D3BFC7",
">X c #CECDCB",
",X c #CFC7C6",
"<X c #D3C3CC",
"1X c #DCC5C8",
"2X c #DEDEC8",
"3X c #DBCBD5",
"4X c #D9C9D4",
"5X c #DEDCDA",
"6X c #E6C7C4",
"7X c #ECD5C8",
"8X c #F5D9C6",
"9X c #E2D3DC",
"0X c #EBD5D9",
"qX c #F3DAD8",
"wX c #E5CED3",
"eX c #F6E8C7",
"rX c #FAF5C4",
"tX c #FCFAC5",
"yX c #F6F2CC",
"uX c #FAF5CB",
"iX c #FCFACC",
"pX c #F6F2C4",
"aX c #F7EAD5",
"sX c #F9F4D4",
"dX c #FCFBD3",
"fX c #FAF5DC",
"gX c #FCFCDC",
"hX c #F6F3D8",
"jX c #EEE2C6",
"kX c #E9DBE4",
"lX c #EEE7E9",
"zX c #F6E8E8",
"xX c #FAF5E3",
"cX c #FDFCE4",
"vX c #FDFDEB",
"bX c #F9F5E5",
"nX c #F7ECF3",
"mX c #FBF3F6",
"MX c #FDFCF3",
"NX c #FCF4F9",
"BX c #FEFCFB",
"VX c #F7F1F6",
/* pixels */
"  X       X . X X : u Z Q | 9.L.P.;X<X9XNXBXBXnX3X:X].T.D.V.'.N. .] _ ) 6.1.Y z V A V 7 < + . . .   X O O   .     X     X   .   ",
"            . X , : C R Q | 9.V.'.'.<X9XNXR o.mXkX:X].U.G.S.`.F.6.[ ] ) [ ^.,.v n v j 7 4 @ + . . . . . .                       ",
"          . . X , : d  . ...X.L.].'.:XkXNXf o.nXqX6X;X`.G.G.`.G.7.[ [ ) ,.J.i.u.v v c h x 3 * + # + + . . . .                   ",
"          .   g ; > u C  .X.O.N.K.'.:X0XmXf m.VX0XqX[.[.^.!.Q.`.q.q.,.` T T L ` V L L ,.7 B B 9 9 $ & $ # . . O .   .           ",
"          . . a { a u C ! | N.F.I.;XwXqXmXf t C.zX7X@X{.{./.(./.i.p.p.4.` Y P J 1.q.U U 7 q N _ ) r 4 4 & O . .                 ",
"      . . . . O r } ..X.9.9.9.S.U.].:XqXmXf   o.NXqX8X@XqXaXaXeX/.~.k.y.<.@.@.>.;.n c S K 7 q G t.G w 5 4 $ # . X               ",
"    . . . # # $ p } 9.O.[ | 9.N.K.[.6XqXMXR   f '.xXaXaXcXcXcXvX8Xv.h.s.5.>.>.@.P +.J v U I z G u.I _ w w 2 # . O               ",
"      . # 9 s ! B r _ ] | ] X.N.G.].6XqXNXf     M.MXvXvXsXtXdXdXcX+X_.z.h.w.3.5.%.#.>.S v L ` 1.u.K t.l 5 < # O   O             ",
"  O O = H H w w r s H H { } X.N.P.[.6XqXNXR     m.BXMXvXiXtXiX&XgXvXsX X)._.~.k.w.*.#.#.T J j L T 8.1.k 6 < # . .               ",
"  O # a w e w v l x H Z G ^ O.u.`.{.8XzXBXR     m.R.C.vXdXiXdXsXcXxX+Xc.}.bXvX8X).w.3.4.+.F m j b 8.7.z { G # . .               ",
"O . O w w z ` t.v N G I ) { 7.S.`.6X8XxXBXf     ^ m. .MXdXiXiXgXcXvX%X X}.bXbXbX8Xh.f.k.2.@.F F Y S.) V U { 2 . . .             ",
"  . = 9 s T t.i.` w z H ) 6.0.H./.{.aXmX>Xd       o.MXvXgXtXiXgXgXuXsXeXyXvXbXvXaX).v.h.p.r.2.%.1.1.T I N B a . .   O   .       ",
". . # 2 r l l l l z V V ) ,.q.Q./.8XxXMXf         ^ >XMXgXiXiXdXdXdXvXvXcXvXvXvXxXxXjX).h.a.r.=.+.D n j 7 5 s # . O .           ",
". . # $ r w w l l b K I ;.q.H.~.8XfXmXMX .f t       d E.,XcXcXgXgXcXvXMXcXhXvXvXMXMXMXeXOXv.f.-.&.&.t.T x N [ ..# # ; O         ",
"  . * 3 1 5 w v w v ,.u.>.q.Q.{.vXNXBXBXBXBXo.          H MXvXgXcXcXMXMXvXvXcXcXvXvXvX*X}.$X Xl.=.&.2.,.K H..XZ 2 ; s %     .   ",
"= . e G 5 4 5 6 w b S @.>.k.XXfXfXBXBXBXBXBXo.        f BXBXMXcXcXcXvXMXMXMXvXcX9.o.vX*X*XcXcXpXc.r.&.1.L [ q [ < 9 G e = >     ",
"H Z s _ I ` K k L b n P >.j.uXgXeXMXBXBXBXBXm.        f MXvXcXcXiXgXcXcXhXcXcXcXfXgXgXgXcXcXhXyX*Xx.g.y.S j S H.6.! ( q d ;     ",
"r Z r a B ,.V K v i.:.>.>.j.$XdXaXMXBXf R.f           f MXMXvXcXdXgXvXvXcXgXO.o.gXgXgXdXgXvXcXcXtXx.3.*.;.c c G 6.A r 9.t . X   ",
"= 2 s r w <.1.` b ` %.y.r.k.XXiXcXBXBX>X^ C.^         ,  .MXMXgXdXcXvXcXcXgX2X+XdXdXsXdXsXvXvXgXtXb.-.&.M c k 1 q < N | .   X X ",
"O + 2 3 6 L t.t.F n T $.2.s.x.OXgXBXBX ., d y     ^ A.d >XvXcXcXcXvXvXvXgXiXgXdXiXpXuXcXgXcXcXiX%Xl.-.&.M S S ;.< $ - ,   t i : ",
". . & 5 6 T u.Y 1.$.%.%.3.l.v. XvXMXBX>XR.d     ^ 5XR.f MXgXdXgXcXcXvXgXdXcXcXiXdXcXcXvXbXgXgXpXOX|.l.*.+.S j 0.5 e ;     X     ",
"# . $ 5 7 K n D <.y.%.r.d.v.c.$XcXvXBXBXBXf     m.BXE.f vXdXdXcXvXvXvXcXgXgXgXdX#XcXMXMXMXcXcXiXOX%X_.3.#.m S x < & + X   o     ",
"8 + + 1 w j v Y >.e.=.a.f.c.n.eXcXvXMXBXBXf     f R.5XC.vXcXcXcXvXMXMXvXvXcXcXcXhXfXvXMXMXvXvXcXtX%XXX3.+.M c 6 < + % 8         ",
"# . # H z j b T &.3.a.l.).#XyXyXvXcXvXMXBXf       t.MX5XC.cXcXMXMXcXvXMXvXvXgXcXcXbXvXMXMXvXcXbXsX%X}.h.*.+.M S I r 9 * X .     ",
"u + # r V b T $.p.x.oXhXvXvXvXvXvXvXcXvXBXf       o.BX5XC.vXvXvXo.o.m.5XbXyX&XhXgXvXvXvXcXcXvXcXvXfX+X}.~.4.i.U ,.A Z @ . . -   ",
"9 B & 3 ) ` P $.r.e.XXaXbXcXgXdXgXgXcXvXMXC.o.f   f C.BXMXcXgXMXo.o.t.5XMXbXcXgXgXvXvX%XsXbXvXgXhXcXxX@Xz.q.q.L 6 N 1 t o p d   ",
"& E a q B v S +.r.g.+XbXhXhXiXdXdXgXcXvXMXBXBXo.    f BXgXcXdXvXvXMXvXvXvXvXvXcXdXcXcXuXpXhXhX$X$XjX@X/.p.>.@.U U k 1 9 # ; ,   ",
"9 a 0 r q j :.q.=.r.XXjXhX&X&XdXgXcXcXcXMXBX5X^     E lX>XMXcXvXcXgXgXdXgXrXtXpX&XrXiXgXyXfXfX+XXXjX_.g.>.#.1.Y ) h 1 & # ; X = ",
"2 a & < 1 z 1.>.%.l.l.#XgXiXtXiXdXgXcXvXMXBXC.y     f R.f MXcXvXcXcXiX&X&X#XtXtXtXtXiXrX#X*X%X}.OX+X~.s.5.>.<.S v V A r 8 ! u   ",
"a & @ 1 x 6 S @.$.x.f.b.oX|. XtXiXiXgXvXMX>XR.^     H R.f BXvXvXcXgXtX#X#XtXgXtXtXiXdXiXrXyXcXaX|.v.f.3.3.:.S j z ) 3 e 9 o .   ",
"9 q ) N ) 7 h S r.l.r.f. X|.|.iXtXtXgXvXBXf         f R.f BXvXcXiXiXiXiXdXgXgXiXtX&XtXdX*X$XxXgXc.).h.w.5.@.S v V [ 4 & * o .   ",
"& a [ 0 B h 7 Y T P r.r.x.dXcXgXiX&XuXMXBXf       o.BXBXBXMXvXcXiXtXtXgXvXcXcXdX#Xn.&XdXrXyXsXxXbXaX_.k.>.+.M Y k 0.0.# 9 ;     ",
"+ & B 3 ) x h L m T &.r.l.}.cXhXdXvXMXBXBXBXo.        f BXMXvXdXdXiXiXgXcXcXvXcXtXtXtXiXcXgXyXvXMXMXaXg.*.>.M j k N 1 + + . .   ",
"% r q 7 7 6 k V D F r.g.l.}.gXhXvXbXcXvXMXBXBXm.      f BXvXcXgXgXdXdXdXdXdXcXcXcXdXiXgXcXyXhXcXfXMXbX~.j.4.q.V V N & + .       ",
"+ 2 < 1 q S ` :.n D %.=.l.|.hXhXeXbXcXfXBXBXBX5X^   i >X>X..cXcXgXdXdXiXtXiXdXdXxXcXgXiXiXyXvXxXfXvX7Xz.k.8.` S 0.A 2 . .       ",
". @ < q u.z :.Q.y.1.T #.2.l.oXpX+XyXgXvXBXBXBXBXo.  f MXlX.XgXgXtXdXdX#X#XtX&X&XvXvXcXuXrXcXvXhXsXeX~.e.k.<.S ` I B 2 .   X     ",
". & @ 4 u.z k 6 K T T >.&.r.l.n.OX|.hXvXBXBXBXBXo.  f BXMXcXgXdX&XdXdXiXdXtX&X&XcXcXcXdXsXvXvXsX$X).w.*.#.m S 0.1 & @ .     ,   ",
". + @ < x x k 4 w w L $.$.=.r.b. X*XyXxXvXBXBXBXo.  -  .MXcXcXdXiXgXcXcXgX&XrXdXcX#X#XdXgXcXvXuX}.a.-.#.P c v ,.$ 3 * . X       ",
". + + @ 4 9 x < 4 6 b n T =.2.f.+XeXyXgXvXBXBXBXo.    y C.cXcXdXdXgXcXvXcXgXdXgXvX=X=XcXcXfXcXeX}.=.#.M m k k 0.$ r * . X       ",
"  . . . 8 B 2 9 @ $ 4 K t.%.-.x.iXuXyXxXvXMXBXBXo.    y C.vXcXgXdXvXvXvXvXgXdXfXhX|.pXvXvXcX+X}.g.&.+.m h 7 1 7 @ . . X         ",
"      . . 9 a # + @ 1 j @.+.&.(.iXdXgXgXfXvXbXMXR.f   t o.C.vXpX&XvXvXC.2XgXcXcXvXbXvXMXxXXX).h.j.+.D j 4 4 @ + . . X     X     ",
"      X . .   . . + < 7 L $.&.(.%XiXdXgXgXfXaXvXBXm.    t C.MXcXvXfXcXC.9XMXvXgX8X X}.@X~.a.a.3.+.m :.V < @ + .   . .   .       ",
"    . X .     X . + @ 5 b D T r.}.$XsXhXgXaX8XbXvXm.    d >XMXMXcXyXgXcXMXMXxX8X).b.f.z.h.s.5.#.M J ` 7 @ . . . .   .           ",
"                . O # 4 b F D r.g.(.XXjXeXeXqXaXbXC.d   ,  .BXMXfXpXeXgXxXfXXX).z.a.3.j.j.>.@.m c c 5 @ . . .   . .             ",
".               . O + < z J v <.:.q.i.Q.[.@X7X0XnXMX'., X.MXmXfX8X@X_.@X8X}.h.k.3.>.8.>.>.S S z 7 4 $ . o i .                   ",
"              .   % . $ 2 V U ` U :.q.H.`.`.[.1X0XBXR.E NXzXaX7X8X/./.!.{.~.3.q.>.;.;.S V x x 3 $ @ O o p -                     ",
"                    . # & 0 B V I [ 6.0.G.U.].7X0XNXR.H BXqXqX6X6X^.!.i.!.H.q.8.` ) A ) ) N q < % * 8 % -                       ",
"                O   . . @ * 9 B ` ..{ 7.N.U.'.1X9XlXNXBXmXzX0XqX[.`.F.S.P.F.6.[ _ R A B a R ] $ - u o                           ",
"                    X . . # 2 Z Z R ] 6.M.D.K.-X:XkXVXNXNXlX9XwXY.P.`.M.F.P.| ] / R Z Z t 8 , o ,                               ",
"                        O # & 9 a R ( | M.V.L.'.:X3XnX;Xf lX3X:X'.P.K.M.M.I.../ / R R g t > t t .                               ",
"                      . . + % 8 p Z Q ' 9.M.L.T.;X3XlXR.f nX3X:X'.P.K.M.P.'.| | / R R d u p d ,                                 ",
"                        X O % s A Z R / M.V.D.P.;X<XkXlX<XnXkX:X'.P.T.M.M.T.M.| ] R R Z t t , , .                               ",
"                      .   X X 9 / ] ! ] B.D.V.P.Y.<X9XNXBXVXkX4X;XT.K.M.M.Y.M.| / R R R i : - ,                                 ",
"                        o X X % q R ] ( ..M.V.L.Y.-X3XVXBXNXnX4X-XY.I.K.L.I.M.| ] R R R i : - , X .   X                         ",
"                          X X % 8 u Z ~ ] M.V.L.Y.-X3XnX5XC.VX9X:X'.T.M.L.T.M.| ] / R R u : > o   X                             ",
"                            X o 9 u d R | X.M.D.T.-X<XlXR.R NXkX:X-X'.T.K.I.M...| R R g i t - o X                               ",
"                          X . X - t d R / X.M.D.I.;X-XkX5Xo.M.lX4X:X'.K.I.T.M.m.| Q R g d t > o o                               ",
"                            . X , t d R / ..M.D.K.;X-XkXNXR.  nX9X:X;XI.T.'.M.m.| / R R i t > o X .                             ",
"                              X , t u R R | M.M.L.'.;X3XVXR.  VX9X4X;XT.'.'.M.M.| / R g i t ; o X X .                           ",
"                        X o   X , > t g / | X.M.L.T.;X4XlX>XR NXkX4X-X'.'.'.M.m. ./ ~ g d t > o X                               ",
"                            X X X > t g R '  .M.D.I.'.<XkXNXNXBXkX4X:X;X:X;XM.M. ./ Q R d t > , o                               ",
"                          .     X , : d R /  .M.V.I.'.-X9XNXBXNXnX3X4X:X:X'.M.M.../ Q R d t - o X X                             ",
"                            X X , , > i R / | m.V.L.T.-X9XnXNXNXnXkX4X4X:X;XM.M...' Q C d y > o X X                             ",
"                          .     X , > u R ~ ^ X.A.L.T.;X:XlXNXNXnXkX3X4X4X-XI.M...| Q R g y : o X X                             "
};
