/* XPM */
static char *result[] = {
/* columns rows colors chars-per-pixel */
"64 64 247 2 ",
"   c #010101",
".  c #0A0504",
"X  c #0A0708",
"o  c #0C0A0A",
"O  c #0C0806",
"+  c #130603",
"@  c #140906",
"#  c #1B0A05",
"$  c #120C0C",
"%  c #1C0C0A",
"&  c #1A0603",
"*  c #19100E",
"=  c #140F10",
"-  c #131111",
";  c #1B1414",
":  c #1E191A",
">  c #1C1718",
",  c #230B04",
"<  c #230E0A",
"1  c #280E06",
"2  c #24110C",
"3  c #2B130C",
"4  c #2B1206",
"5  c #341B0C",
"6  c #3C1D0B",
"7  c #351609",
"8  c #231513",
"9  c #231C1C",
"0  c #2A1A15",
"q  c #361C14",
"w  c #24201F",
"e  c #3D2313",
"r  c #3D241C",
"t  c #352219",
"y  c #3D210F",
"u  c #231F20",
"i  c #232121",
"p  c #2A2423",
"a  c #2D282A",
"s  c #322C2D",
"d  c #392824",
"f  c #3A3335",
"g  c #3F3E3E",
"h  c #3B3436",
"j  c #362F2F",
"k  c #421D0B",
"l  c #44230B",
"z  c #52280D",
"x  c #432313",
"c  c #4D2B13",
"v  c #472A1A",
"b  c #552E17",
"n  c #58361A",
"m  c #533416",
"M  c #673917",
"N  c #723F17",
"B  c #452D24",
"V  c #49332A",
"C  c #5B3C2C",
"Z  c #583825",
"A  c #413D3E",
"S  c #483934",
"D  c #573D35",
"F  c #623B27",
"G  c #3F403F",
"H  c #73461C",
"J  c #5A433A",
"K  c #57412C",
"L  c #694527",
"P  c #764B28",
"I  c #674837",
"U  c #7A5537",
"Y  c #755235",
"T  c #443F41",
"R  c #4B4244",
"E  c #4B4447",
"W  c #534A4D",
"Q  c #5A4946",
"!  c #574D52",
"~  c #5B5255",
"^  c #5E545A",
"/  c #5F5F5F",
"(  c #654B43",
")  c #664E47",
"_  c #695248",
"`  c #785948",
"'  c #66595A",
"]  c #775C53",
"[  c #76625D",
"{  c #7F6347",
"}  c #665C62",
"|  c #6F6E6E",
" . c #6D6367",
".. c #756769",
"X. c #786C72",
"o. c #7F7E7E",
"O. c #7D7175",
"+. c #7F726F",
"@. c #5F5E60",
"#. c #87562A",
"$. c #965B2C",
"%. c #855A38",
"&. c #975E35",
"*. c #854C26",
"=. c #8B6239",
"-. c #976839",
";. c #95622E",
":. c #A46B3A",
">. c #A5753A",
",. c #B5773E",
"<. c #845C45",
"1. c #855E51",
"2. c #886548",
"3. c #966A46",
"4. c #876958",
"5. c #966E58",
"6. c #9A7557",
"7. c #96724E",
"8. c #A9754A",
"9. c #B77A4A",
"0. c #A67858",
"q. c #B77E54",
"w. c #A96C41",
"e. c #8C746C",
"r. c #997763",
"t. c #82757B",
"y. c #867779",
"u. c #977C79",
"i. c #866B65",
"p. c #A47A69",
"a. c #BC863F",
"s. c #BE874C",
"d. c #B78557",
"f. c #AC8358",
"g. c #B68868",
"h. c #AE8C73",
"j. c #9B817E",
"k. c #C68856",
"l. c #C89656",
"z. c #CA914F",
"x. c #C58C64",
"c. c #C99A69",
"v. c #D49A66",
"b. c #C79873",
"n. c #D19E78",
"m. c #D08F62",
"M. c #D8A66B",
"N. c #DBA777",
"B. c #D2A773",
"V. c #E6B47B",
"C. c #E3A96F",
"Z. c #DDAB57",
"A. c #F0CF74",
"S. c #897C82",
"D. c #8E8388",
"F. c #94858B",
"G. c #978689",
"H. c #9A8D94",
"J. c #998B93",
"K. c #9F9E9C",
"L. c #9F9898",
"P. c #A68985",
"I. c #B89988",
"U. c #A2939B",
"Y. c #A99497",
"T. c #B99B99",
"R. c #BEA28E",
"E. c #AB9CA4",
"W. c #A99BA4",
"Q. c #B09DA3",
"!. c #B4A4AC",
"~. c #B9A5A8",
"^. c #BBACB5",
"/. c #BAABB4",
"(. c #BFBDBD",
"). c #BFB0B9",
"_. c #AEA0A8",
"`. c #C59B84",
"'. c #C8A58A",
"]. c #D7A885",
"[. c #C6A298",
"{. c #D9AF96",
"}. c #E4B789",
"|. c #E4BA9B",
" X c #E6B187",
".X c #C4B4BD",
"XX c #C9B5B9",
"oX c #D9BAB9",
"OX c #CCAEA7",
"+X c #E2B9B1",
"@X c #E9C389",
"#X c #ECC697",
"$X c #F2D391",
"%X c #F4E193",
"&X c #EAC7A7",
"*X c #EBD4A7",
"=X c #F3D7A8",
"-X c #E9C9B8",
";X c #F5D9B5",
":X c #EFCEB5",
">X c #F5E7B7",
",X c #F9F3BB",
"<X c #F7F4B9",
"1X c #F6EDAA",
"2X c #D9C2B8",
"3X c #CABBC4",
"4X c #D2BEC3",
"5X c #CECDCD",
"6X c #CEC6C7",
"7X c #D2C2CC",
"8X c #DBC5CA",
"9X c #DACAD4",
"0X c #DDDAD8",
"qX c #DEDECC",
"wX c #EED6CB",
"eX c #F5DDC6",
"rX c #E7D5DB",
"tX c #F3D8D7",
"yX c #E5CBCC",
"uX c #F6EBCA",
"iX c #F7E8C6",
"pX c #F5F3C3",
"aX c #FAF5C3",
"sX c #FAFAC5",
"dX c #FBF4CC",
"fX c #FCFACC",
"gX c #F6F3CA",
"hX c #F7E9D6",
"jX c #F6F2D3",
"kX c #FAF6D5",
"lX c #FCFBD4",
"zX c #FAF5DC",
"xX c #FCFCDC",
"cX c #F6F5DB",
"vX c #ECDDE5",
"bX c #E8D9E1",
"nX c #EEE5E9",
"mX c #F4E6E9",
"MX c #FAF5E3",
"NX c #FDFCE4",
"BX c #FDFDEC",
"VX c #FAF5EA",
"CX c #F7ECF2",
"ZX c #FCF3F6",
"AX c #FDFDF3",
"SX c #FCF5F9",
"DX c #FEFCFB",
/* pixels */
"  X     . X X $ i ! ^ ~  .S.L..X3X7XvXSXDXDXCXvXyX.XQ.Y.P.S.T.T.e.' ( ( ] I.I.Y F k x 1 2 $ .   . . . . . .   .       .     X   ",
"          O X $ : f ~ y.t.y.H.^.3X7XvXDXDXDXSXrX9X4X[.Y.P.h.T.T.4.] _ ( ( 1.4.5.I k q q d * u 9 . . . + . . .                   ",
"          ; J ; i s g ~  .S.H.!..X8XvXSXDXDXSXrXyXoXXX[.I.h.h.[.p.r.1.` I I Z Z b Z Z ( D @ s s p < & @ + . . . . .   X         ",
"    . . . o f [ j R R W  .F.Y./.XXrXvXDXDXDXSXmXtX+X+X[.].`.].{.b.p.p.0.1.I C v Z r.<.D r & 2 t _ Q V < % # + O X   X           ",
"    . . + + $ r ..+...y.D.S.H.~.XX8XrXSXDX| G L.mX:X-X|.:XwXuXwX{.b.x.0.<.Y F I 1.F k B ( B 2 d V I._ 5 4 , # O . .             ",
"  . + + # # t ) Q +...~  .y.G.E.XX8XrXZXDXG   o.AXtXuXuXzXNXBXBXhX Xv.q.8.3.<.3.F F P F v ( _ ( v T._ K 5 4 , + .               ",
". . + 2 t J J d t / ..' } t.H.Y.XX8XrXSXDXR   g .XAXAXVXzXkXNXNXBX&XC.m.x.0.&.w.%.N N ` k b J h.F j.I 4.5 4 # + o               ",
". + 0 J C e q 5 d K Q  .' t.G._.XXyXtXSXK.:     j.AXAXcXNXkXNXpXNXxX;XC.m.m.x.q.0.w.*.P M F m m I I 4.{ 7 4 , @ . X             ",
"O d t 5 5 5 y y e V S E / O.F.Q.oXyXtXDXT       j.DXAXBXxXlXxXkXMXBXuX@XV.;XiX|.m.,.:.-.=.H n c 6 6 K ] B ] B +                 ",
"O * V e m f.f.m d J Q Q [ y.G.~.oXtXtXDXA       o.DXDXBXxXsXlXNXBXBXhX$X#XcXhXVXeXv.k.x.8.=.H z c ` e.J v ( y.8 . . . o o       ",
"$ 2 t m Y h.R.n m K K Q ..S.P.[.oXeXhXAXg       / 0XAXBXlXsXfXNXNXzXNXuXuXMXVXBXxX Xm.v.q.0.8.P 2.` ` V ( D D 8     .   X       ",
"@ * t e K K K c e j h Q [ P.P.[.+XtXVXDXg       i K.DXNXlXsXxXxXxXlXBXAXAXBXAXAXMX;X|.V.l.s.8.-.#.M z k 4 # , S . O .       X . ",
"O # 4 V e e e e r B D ) i.S.`.|.yXhXZXDXR       @.(.5XAXNXlXxXxXxXxXAXAXBXzXMXBXAXBXVXhX#Xl.z.,.;.*.H Y x 3 0 p A a . . X .     ",
"O 8 % 4 5 e e t v _ 1.] r.[.|.wXMXDXDXDX| o         s 5XAXBXBXxXNXxXBXAXBXBXNXBXBXAXAXBX;X$XN.z.>.*.#.2.e.V D y.} u @ 9 p .     ",
"O J d , 4 5 5 q q I p.r.5.'.+XMXBXSXDXDXDXg           G DXAXAXNXNXNXBXAXVXBXBXBXBXAXBXMXuXuXiX@Xa.$.#.P 4.B B Q p + . $ S O O O ",
"@ _ i.r D 5 r q v V F <.p.{.hXhXBXSXDXDXDXG           G DXAXAXBXxXBXAXBXNXBXBXBXBXBXBXBXBXBXkXlX}.s.8.%.2.x 5 2 V d S [ d * p . ",
"8 _ J 4.Y y 4 V V Y J <.p.*XlXhXAXDXDXDXDXG           G AXBXBXBXNXNXBXBXkXNXNXNXNXdXxXxXxXNXNXxX>XN.d.d.F F 7 D [ [ [ T B u a . ",
"w S # V i.I I l h.7.6.6.p.#XlXNXAXDXg   (.G           G DXDXAXNXxXNXBXBXAXNXNXNXNXxXNXxXpXBXNXxXsX#Xd.;.<.F k , < S u % ..$ .   ",
"V 3 , y [ [ { n F Y 2.f.q.}.iXxXBXDX5X3X@.K.@.@.(./   J AXAXBXlXlXBXBXAXBXlXxXxXxXxXkXkXdXNXBXNXaXN.k.;.N b k q < $ $ 8 A     * ",
"@ , 4 5 L f.4.L H U U 3.g.N.|.,XNXDXDX| - s i o.DX0XD.G BXNXNXxXNXBXBXBXxXfXxXxXlXgXgXkXNXNXNXlX,XV.z.&.N b b r [ $ % $ O .   ; ",
"@ d 5 y { =.L f.=.-.7.f.N.C.@XjXAXDXDX5Xs     i K.AXnX5XBXfXsXxXBXBXBXNXlXxXNXxX<XNXAXBXBXxXxXkX>X@X Xq.*.N M q [ % ; : .     . ",
"@ 4 5 y K n K f.d.;.>.s.M.V.=XBXBXAXDXDXG       o.AXDXAXBXlXlXNXBXBXBXBXNXNXNXBX,XjXBX5X| BXBXNXiX>X=Xb.$.M z V # % .   .     . ",
"@ # 4 y y m P f.f.>.a.z.C.@X=XBXBXAXDXDXG       o.AXDXAXxXxXxXBXBXBXAXBXAXBXNXBXNXcXMXqXK.BXBXBXNXiX;Xn.&.N b x 1 %   . i       ",
"$ t V y y M U P :.Z.M.=X;XlXdXNXAXBXAXDXK.:     o.DXAXAXAXBXNXAXDXAXAXAXkXxXlXlXBXBXVXAXAXAXAXAXjXiX=X Xw.&.P L D ) J > ;     . ",
"@ 2 B K m Y 3.f.c.*XkXBXNXBXxXxXNXBXBXAXDXG   G (.DXDXDXAXNXxXBXAXo.o.qXxXpX%X<XfXNXBXBXNXMXBXNXNXxXzX&X].0.*.r.D ] _ a 9   . O ",
"w # S _ U L 3.-.l.*XjXcXNXlXsXlXNXNXBXAXDXK.G o.DXDXDXDXAXNXxXBXBXo.o.0XK.qXlXsXkXBXAXzX>XcXBXVXjXzXBXhX{.g.5.F I 1 q % 9 > . f ",
"d 8 B v c L =.>.s.uXcXcXlXfXfXlXNXNXBXAXDXDXo./ 0XDXDXDXAXNX<XNXNXAXAXAX| 6XNXxXlXxXBXxXgXjXjXuX=XhXeX|.b.8.3.Z I ( 3 % 9 : ; % ",
"8 t r 5 e 7.6.>.s.*XjXcXaXfXlXxXNXBXBXDXDX5X/   / (.5XDXAXAXxXNXNXxXNXxXlXlXpXsXaX<XdXxXkXpXcXBX*X&X:Xn.8.#.*.` Z ( q * @ % o O ",
"* @ 2 3 b 5.7.-.M.l.*XlXfXjXlXlXxXBXAXDXDXR : i   i | DXDXBXNXBXNXxXlXfXsX1X1XsXsXfXfXfX1X=X$XiX#X}.}.k.q.%.U 5.x B d V d % j R ",
". + 3 1 6 Z U ;.c.l.l.A.%X1X<XfXlXNXBXAXDXG / /   o.DXDXDXAXNXNXxXxXfX1X%X1XlXfXsXxXxXsXfX>XjXzX>XM.N.9.:.7.U c 7 r Q 2 9 ; - . ",
"0 d B d 1 k L 3.f.l.a.Z.A.$XpXfX,XNXBXDXDXg       o.DXDXDXAXNXNXsXfXlXlX,X,XlXfXfXfXlXfXfX>XzXMX#XC.C.q.:.<.<.b x r [ 2 @ * . O ",
"] < # 8 , k L P P f.s.Z.>XVXxXlX<XkXNXDXDXG       o.BXBXAXNXNXNXlXfXfXNXNXNXNXfXfXA.%XaXfXaXjXzX;XiX Xk.w.*.F k _ q d d O - f   ",
"u + T _ q x C z H =.a.l.#XNXNXpXkXBXAXDXDXG       o.DXDXAXNXNXfXxXsXfXNXNXBXNXxXsX<X,X1XxXxXxXhXBXAXMX].w.*.<.c 7 0 B u + . .   ",
"8 + & < 3 b Z b m f.f.B.v.=XcXMXVXAXDXDXDXG         G DXAXNXNXxXxXlXfXlXlX,XfXNXxXlXfXlXNXBXNXpXVXVXMX|.8.3.<.<.v D T % . .     ",
"@ . + 1 D D F Z m -.;.c.M.*XlXgXBXAXAXDXDX5X(./     G DXBXBXBXxXfXfXfXsXsXpXfXkXlXNXNXlXxXkXiXcXMXMXhX].x.0.1.C B T D > .       ",
". + 2 I 1.'.I.Z { M H f.d.@X>X*XjXAXAXDXDXDXDXo.  / 5XDXVXNXNXlXfXlXsXfX<XpX,X<XNXBXkXkX<XdXkXAXuX;X:Xd.8.0.p.b x ] V < . .     ",
". . 0 4.x Z I F { L { U -.c.B.1X*XjXNXAXDXDXDXo.  o.DXAXBXxXxXfX<XfXlXaX1XfXsX>XNXBXxXlXpXkXMXNXuX;X X,.&.U F C e.# % .   X o   ",
". . + D r , , q 5 L U ;.a.g.l.V.=X,XcXAXDXDXDXo.  o.DXAXVXxXxXfX,XlXxXxXNXlXsXlXNXBXlXdXkXBXBXxXiX Xq.&.*.F k v e.# + O X       ",
". . + < t < , , 4 I K U -.8.s.}.dXjXzXBXDXDXDXo.  g o.K.BXxXxXlXlXNXNXBXBXkXpXNXBXxX%XpXcXNXNXkX;XN.w.$.M x k D ' + . 8 $       ",
". . . 2 t r t # , 5 m { 3.8.s.>XgXiXjXBXDXDXDX(.g     i K.xXxXlXxXBXBXBXBXBXkXzXBXxX$XkXBXAXzX>X#Xq.$.H z k x < ) + O ;         ",
"  . . 2 D 8 < # & 1 5 Y %.-.d.aXxXNXNXBXAXDXDXDXo.  u / g AXNXNXdXBXAXNXBXBXNXzXcXcXuXBXVXzX;X}.k.-.#.M k 4 & + + . . . . .     ",
". . . + < 0 + . + # 7 K =.#.f.1XlXlXNXcXMXBXMXDX(.T i / g DXDXgXdXBXBXBXBXAXVXBXhX;X;XzXeXN.k.k.&.$.M F 7 # + . . . .           ",
"  . . . + . . . . # 3 v U #.7.].>XlXxXxXMXMXhXDXDXo.    s 5XDXVXBXdXNXBXBXBXBXzX@XC.M. XN.k.k.8.*.M M ` 1 + . . . .             ",
"  . . . . . . . . @ < y n L =.b.'.=XiXkXhXhXhXAXDXo.    - | DXDXzX>XiXxXNXMXhX&XC.k.k.b.b.g.8.*.M z C q + . .     O   .         ",
".   .     .   . . . @ t Z Z P h.g.'.OX-XyXhXhXmXDXo.  - | DXDXZXeX&X&X:XiX;X Xm.k.w.8.p.0.&.L F l 7 2 & . . @       X           ",
"          $   . O . + 2 J C ` 1.4.u.h.[.oX8XtXvXDXK.s G ZXVXVXeX&X{.].].&X{.g.0.w.<.<.<.F C b k 7 , # X   p g     X             ",
".             X o . . % t I I J ] e.u.OXXXoX8XtXAXDX.XA CXtXtX-X-X[.`.g.I.[.0.5.1.Y D C V B q 3 # O . . $ j o                   ",
"                o     O % d B T ) e.y.J.OX4XrXvXSXDX(.A ZXtXwXyX2X[.I.u.u.I.i.] ) T D S D S B 8 + . p = o                       ",
"                    X X $ 8 d ..[ ..t.J.~.XX4XbXCXDX(.g CXbXyXrX~.T.S.S.S.E.i.^ ) T T d u u s s X a ;                           ",
"                  .     o ; d Q T ' X.S.E.^.3X9XnXDXDXDXZXvXrX4X~.~.S.S.S.!.S.^ T T T A a : - o X . .                           ",
"                    . . O - : j T ' } S.U./..X9XvXSXDXDXZXbX9X3X~.S.S.S.S./.S.} ^ T T A a > - u =                               ",
"                      X X $ : s T ^ } S.J.Q.^.4XrXSXSXDXSXbX7X3X).!.S.S.S./.S.} ' T T f a u s u X                               ",
"                  .   O X - : A S ! } O.W._.!.3X9XCXSXDXSXnX9X3X/.Q.S.S.S./.S. .^ Q T T s u > =                                 ",
"                        o o : S ' ! ~ X.W.W.!.3X7XnXSXDXSXnX0X3X).Q.Q.S.S.!.U. .^ T T S a u - o X X X                           ",
"                      X X o - 9 T } }  .J.E._..X4XvXSXDXSXCXrX7X.X!.S.S.S./.S.} } T T T s u > = X o                             ",
"                          X o 9 a T W } S.W._.).3XbXCXSXDXCXbX7X3X/.!.!.S.3XS.} } T T S s u > o X     .                         ",
"                        X X X > a h T } X.S.U./.3X9XnXDXSXSXnX9X3X/.!.S.S..XS.S.} ! E A a u : = X X                             ",
"                    .   X X X - u h T } t.S.U.!.3X9XbXSXDXSXCXrX3X.X/.!.E.3XS. .^ ~ E T f u : o X X   .                         ",
"                          X X - u j T ^ X.S.J._..X7XbXZXDXSXSXbX9X3X/.S.S././.X.} ~ T T f u u o o X                             ",
"                        X X X - u s g !  .S.J._..X7XbXZXDXCX(.nX9X3X.X!.!..X!.X.} ^ ! T j u u = X X X                           ",
"                        X X X o > a h W } t.J.W..X7X9XCXDX3X  CX9X7X.X/./.3X!.X.} ^ ! T f a u - X X                             ",
"                            O X > a h W @.t.S.W.).7X9XCXSX5XG ZXbX9X3X/./.7X!.S. .^ ! T h a : - o X X                           ",
"                            X X : a h E @.X.S.W.).3X9XCXDXDXSXCXvX9X3X)./.3X/.S. .} ! T h a : - o X X                           ",
"                          X   X - u j T ^ X.S.U.).3X9XnXSXSXSXCXvXbX7X3X.X7X/.X...@.! E h a i - X X X                           "
};
