/* XPM */
static char *result[] = {
/* columns rows colors chars-per-pixel */
"64 64 243 2 ",
"   c #010101",
".  c #0A0504",
"X  c #0B0807",
"o  c #0A0708",
"O  c #0C0A0A",
"+  c #130503",
"@  c #1A0603",
"#  c #140906",
"$  c #1C0A05",
"%  c #120D0C",
"&  c #1B0D0B",
"*  c #151212",
"=  c #1A1413",
"-  c #1E1A1B",
";  c #1C1718",
":  c #15100F",
">  c #230B04",
",  c #240E0B",
"<  c #2A0E06",
"1  c #25110C",
"2  c #2C130C",
"3  c #2C1006",
"4  c #32160C",
"5  c #391A0A",
"6  c #241512",
"7  c #231C1C",
"8  c #2C1A16",
"9  c #341C13",
"0  c #361D16",
"q  c #28211E",
"w  c #3B231C",
"e  c #382219",
"r  c #251F21",
"t  c #232122",
"y  c #2B2323",
"u  c #2E2A2B",
"i  c #2C2729",
"p  c #332C2C",
"a  c #382926",
"s  c #342F31",
"d  c #3A3335",
"f  c #3F3D3E",
"g  c #3C3538",
"h  c #3F332F",
"j  c #421C0F",
"k  c #49230C",
"l  c #48281A",
"z  c #552C16",
"x  c #5A3519",
"c  c #542E12",
"v  c #673817",
"b  c #6E3915",
"n  c #452C25",
"m  c #4A332B",
"M  c #46322B",
"N  c #573727",
"B  c #413E3E",
"V  c #493A37",
"C  c #563C36",
"Z  c #522E21",
"A  c #643D26",
"S  c #613F31",
"D  c #79451D",
"F  c #6A4317",
"G  c #4A413E",
"H  c #5A423A",
"J  c #684529",
"K  c #764826",
"L  c #7A512C",
"P  c #6A4837",
"I  c #764C36",
"U  c #785538",
"Y  c #3F3F40",
"T  c #423E40",
"R  c #483F42",
"E  c #4B4346",
"W  c #4D4649",
"Q  c #5B4D4B",
"!  c #574846",
"~  c #574D52",
"^  c #5F5F5F",
"/  c #5D5357",
"(  c #5E514F",
")  c #654C44",
"_  c #68534D",
"`  c #755748",
"'  c #645A5E",
"]  c #665858",
"[  c #795B53",
"{  c #796359",
"}  c #685D63",
"|  c #6F6E6D",
" . c #6C6266",
".. c #73666B",
"X. c #776868",
"o. c #786C72",
"O. c #7F7E7F",
"+. c #7D7277",
"@. c #865838",
"#. c #955E37",
"$. c #895227",
"%. c #8C6439",
"&. c #996638",
"*. c #94622D",
"=. c #A76A3B",
"-. c #AE773C",
";. c #89521E",
":. c #845A46",
">. c #896747",
",. c #966846",
"<. c #99724D",
"1. c #856454",
"2. c #956E57",
"3. c #977459",
"4. c #A86D44",
"5. c #A87648",
"6. c #B57747",
"7. c #A87957",
"8. c #B57C54",
"9. c #876A66",
"0. c #88736E",
"q. c #967467",
"w. c #84797E",
"e. c #857779",
"r. c #94746E",
"t. c #A77C6A",
"y. c #B8843D",
"u. c #B78657",
"i. c #B1834C",
"p. c #BB8663",
"a. c #AE8A71",
"s. c #97807E",
"d. c #C6894B",
"f. c #C8954A",
"g. c #C98957",
"h. c #D29659",
"j. c #C48D67",
"k. c #CB9767",
"l. c #D69A67",
"z. c #C79779",
"x. c #D39D74",
"c. c #CDA266",
"v. c #D9A57B",
"b. c #DAAC70",
"n. c #E8B67B",
"m. c #E6AA72",
"M. c #F0C372",
"N. c #7F7E80",
"B. c #8A7C82",
"V. c #9D7F80",
"C. c #8E848A",
"Z. c #93858C",
"A. c #978589",
"S. c #9B8C94",
"D. c #9B8B95",
"F. c #9F9E9D",
"G. c #9F9698",
"H. c #A58785",
"J. c #B99488",
"K. c #A2949C",
"L. c #A89396",
"P. c #B69994",
"I. c #A08F96",
"U. c #BBA197",
"Y. c #AA9CA5",
"T. c #A798A2",
"R. c #B39FA7",
"E. c #B2A2AC",
"W. c #B8A3A8",
"Q. c #BBACB5",
"!. c #BBABB5",
"~. c #BEBDBD",
"^. c #BEB7B8",
"/. c #AFA1AA",
"(. c #C39A85",
"). c #D7AA89",
"_. c #D3AE8E",
"`. c #E5B888",
"'. c #E5B695",
"]. c #E3AE84",
"[. c #C7A8A5",
"{. c #C2B3BC",
"}. c #C9B5BE",
"|. c #D8BCB8",
" X c #D2B0A9",
".X c #E3BBA8",
"XX c #E9C596",
"oX c #F1CA91",
"OX c #F5E596",
"+X c #EAC9A8",
"@X c #F1CAA8",
"#X c #EBD3A9",
"$X c #F3D5A9",
"%X c #ECD7B7",
"&X c #F5DAB7",
"*X c #EACBB9",
"=X c #F5E9B9",
"-X c #F8F3BA",
";X c #F7E9A9",
":X c #CECEBF",
">X c #CABBC4",
",X c #C9BAC4",
"<X c #D6BFC1",
"1X c #CECDCD",
"2X c #CECEC3",
"3X c #D3C3CC",
"4X c #DAC5C9",
"5X c #DACAD4",
"6X c #DEDBD9",
"7X c #E6CAC6",
"8X c #E4CDD4",
"9X c #E5D2D9",
"0X c #F3D7D2",
"qX c #F5EBC3",
"wX c #F5ECCC",
"eX c #F6E6C6",
"rX c #F6F3CB",
"tX c #FAF5CD",
"yX c #FBFACC",
"uX c #F9F6C3",
"iX c #F7E9D7",
"pX c #F6F3D2",
"aX c #FAF3D4",
"sX c #FCFBD4",
"dX c #F6F3DB",
"fX c #FAF4DC",
"gX c #FDFCDC",
"hX c #EEE9CF",
"jX c #EADCE4",
"kX c #E6D8E0",
"lX c #F0DFE4",
"zX c #EDE7EA",
"xX c #F5E7EA",
"cX c #FAF5E3",
"vX c #FDFCE4",
"bX c #FDFCEB",
"nX c #F8F5E6",
"mX c #F7ECF3",
"MX c #FBF3F5",
"NX c #FDFCF3",
"BX c #FDF5F9",
"VX c #FEFCFC",
"CX c #F7F0F6",
/* pixels */
"  o   . X O * t d / ..e.Z.Y.!.>X5XBXVXVXVXBXlX<X7XW.L.t.H.r.J.P.1._ ) P ) 1.2.,.>.v x c l 2 # a % . . o .             .     o   ",
"        ; V q y d W / o.C.Y.!.>X8XCXVXVXVXMXlX4X|.[.P.H.a.t.t.J.t.q.1.` I ) J A K z x P [ 1 @ V y V 6 . .   .                   ",
"    .   : ! _ V W W ] o.B.R.{.,X9XMXVXVXVXCXlX7X|.[.[.J.a.j.j.).a.t.t.2.:.P A v z I :.[ ) > $ 6 R _ a & . .   . . .             ",
"  .   . . % a '  .X.0.C.D.T.!.,X5XmXVXVXVXMXmXxX7X.X'.).).'.+X7X'.j.p.2.:.P A N P [ Z j [ m 2 , 0 V 0.8 + + . . .   o           ",
"      . . a ] ( X.]  ...B.I.E.,X5XxXMXVX| f F.NXiX@X@X@X*XcXbXNX0X].l.8.,.@.I P S z z S N ) ` m m m 0.n 6 + + .                 ",
"  o O 6 i V a 8  .e. ...B.K.E.}.8XxXBXVXf   O.NXNXMXnXcXfXvXbXbXNX&Xx.l.p.7.#.@.$.A z A z 5 J ) 9.) _ m V + . . .               ",
"  y a a 6 1 1 8 Q ] X...B.G.R.}.8XxXVXVXY   Y ~.VXVXVXdXvXvXbXvXbXcX`.l.g.g.4.4.#.#.F v x k z l [ 0 , H V + + . X               ",
"% # @ @ > > , 8 V G ~ } B.D.R.}.8XxXBXVXF.O.G O.VXVXVXvXbXbXvXpXbXcXeX'.m.l.v.j.6.=.*.$.:.v x k 3 j C ! 9 6 8 + . .             ",
"7 6 @ 2 C w < y V G ~  .e.I.R.}.8XxXBXVXK.6XO.Y N.~.VXbXvXgXvXvXvXbXfXoXn.eXiXeX'.g.6.6.,.,.b c k 4 M { _ 8 ! X..               ",
"+ 0 8 l P.a.4 8 m G ! ..A.L.W.<X0XxXBXVXE ^ Y     N.VXNXsXyXyXbXbXaXcXiXhXdXbXbXfX'.h.j.8.8.%.L x _ ) ) w _ ) E .     O o       ",
"+ @ > C 1.C 2 0 h G Q  .V.L.W.|.8XnXBXVXY         O.VXvXsXyXsXvXvXpXbXbXbXNXNXNXcX@Xm.l.h.u.5.<.>.J l l 9 8 1 a 7 .   . o       ",
"+ $ 4 4 < < 2 8 a V _ ..w.P.[.|.0XmXVX1Xu         ^ 2XvXsXyXgXvXsXcXbXbXvXcXnXbXbXfXeX@X].d.6.6.;.K v k e > @ 6 q = 7 X     .   ",
"+ # 2 > > , , w m R ) 9.[.|. X.XiXBXVX| O           f VXbXgXvXgXvXgXNXbXvXnXnXbXbXbXNXbXdX`.d.-.&.D D v 2.n e 8 (  ./ :   * X   ",
"8 . + , 2 , , w R r.r.9.J.[.|.iXNXVXVXVXE           Y VXVXbXNXbXbXnXbXNXbXbXbXbXbXbXNXNXdX%XoXh.-.*.D v J _ h 8 ( a = % * q %   ",
") 0 > > > > , w m ) [ 9.a..XeXnXVXVXVXVXf           Y VXVXVXNXbXbXbXbXNXbXbXbXbXNXbXbXbXnXbXwX$Xk.=.;.F c 5 4 $ # e : # q y y % ",
") s.[ [ 4 8 0 w H S ` 9.J.*XfXnXVXVXVXVXf             Y NXbXnXbXvXbXbXNXrXcXbXO.e.vXvXbXbXvXnXdX&Xd.=.4.7.P e 6 h a G H ! : X t ",
"X.n { P 9 e n U 1.) ` 2.(.tXdXbXNXVXY       O.O.      Y NXbXNXbXbXbXbXNXbXvXvXvXbXvXvXnXgXvXbXvXqXv.-.&.$.N n < a ~ ! R V u s = ",
"0 > 9 0.` U k { q.q.3.t.(.rXvXbXVXVXY         O.VXN.  Y VXNXNXvXsXgXbXNXbXvXvXvXvXvXvXsXyXcXbXvXyX@Xh.*.K b l > @ + & # 6 W .   ",
"$ > 9 { { ` J x I >.2.q.z.#XgXgXNXVX1Xu       O.VXO.  f NXbXvXsXsXvXbXbXbXvXgXvXgXgXsXpXsXnXbXvXsX'.g.*.D z j n @ , . . % ;     ",
"> 2 k J >.U F J U @.>.u.z.'.&XdXNXVX| *       O.VX6XC.Y vXsXsXvXbXbX| :XvXsXgXgXgXsXrXdXvXvXdXsXtXXXl.=.$.z j S , X.= % ; . .   ",
"M 4 e U U F L a.%.<.5.j.].`.$XNXVXVX1Xp       O.NXbXzX2XvXyXyXsXbXbX2XdXvXgXgXvXuXtXbXNXNXvXpXgXqX@X'.k.,.b z z 2 ! 1 % = o .   ",
"1 1 4 c x U i.i.=.-.i.h.m.XXeXVXVXVXVXY       - F.bXVXNXgXsXsXgXbXbXNXbXbXbXbXvXgXrXbXNXbXvXbXbXfX=X&X'.5.b z j l 8 & . . %     ",
": 4 5 5 c U ` u.-.f.h.b.oXoXdXVXVXVXVXf       Y ~.NXVXNXgXgXgXvXNXNXNXNXNXNXbXvXbXsXdXvX6XF.bXbXvXtX&X'.7.b b k 0 , & . . 7 .   ",
"a M q 9 c U i.y.c.b.&XeXsXgXvXNXNXVXVXF.t     O.NXNXNXNXbXgXvXbXNXNXNXNXbXvXsXyXbXvXbXNX6XF.bXbXcXeX$X'.p.$.@.z N _ _ Q 6 % .   ",
"1 H G c U i.i.b.`.dXnXnXbXsXsXgXbXNXVXVXY     O.VXNXbXNXbXvXgXbXNXVXF.6XsXpXOXOXyXdXbXnXbXvXbXvXvXaXaX%X'.7.$.A 1.Z _ ! y 6 o   ",
"# s.Q J J ` U f._.pXdXnXgXyXsXgXbXvXNXVXF.-   O.NXNXNXbXgXvXgXvXvXNXG ~.bXbXsXyXgXbXbXbXqXrXdXnXdXwXfXnX@Xa.7.U N C < 0 $ = p   ",
"2 G 9 e x i.i.y.#XvXdXvXgXsXsXgXbXbXVXVXVXE   ^ 6XNXVXbXyXsX-XvXvXbX| 2XNXbXgXsXgXgXvXbXpXrXqXcXeX%X%X*X).5.t.A l _ P , 8 y G * ",
"e a 2 5 J <.i.y.XXdXgXpXsXgXsXvXNXVXNXVX1Xu     ^ ~.1XNXbXvXuXvXgXgXvXvXvXgXsXyXyX-X-XyXpX-XwXbXdXXXXX_.5.$.K I N P ) , 1 # ; . ",
"X & 1 e 3.<.*.y.i.#XyXsXpXgXsXvXbXNXVXVXY         q | NXNXbXgXvXgXgXgXyXyX-X-XyX-XyXuXyXtX;XoXeX#X`.m.j.=.&.A S P 4 n n M 7 . p ",
"X : $ 2 Z L L i.c.f.b.OX;XuXyXsXgXNXVXVXY         O.NXVXNXbXvXvXgXsXsX-XOXOXsXsXyXsXgXuXuXuX=XfX#Xb.l.d.#.#.@.z n > M a 1 7 * % ",
"& h q > 4 x L %.c.y.f.M.M.=XsXsXgXVXVXVXY         O.VXNXNXbXvXgXyXyXsXgX;XOXuXyXyXyXsXuXsXuXaXbX@Xm.l.u.#.@.K S j a n _ + X = . ",
"q & 1 # 3 J U F %.u.f.M.dXvXsXsXgXNXVXVXVXE     O.NXsXvXNXvXvXgXyXyXsXgXvXgXgXyXyX;XOX-XsX=XwXwX$X$X'.6.#.$.v l N n n a q   . W ",
"X ] V 1 3 Z k v U i.i.b.rXbXpXqXsXNXVXVXVXf     s.VXNXNXbXgXgXyXgX-X-XgXvXvXvXsXyX-X-XOX-XgXpXdXcXNXiXx.6.b b S 4 > , R 8 o . . ",
"# # @ 4 l N 5 k F u.u.c.b.qXpXbXVXVXVXVXVXY     O.VXVXVXNXvXgXgXgXsXyXyXsXyXuXgXgXsXyXyXvXbXnX=XcXbXcX+X4.$.A 2.2 2 R M # . .   ",
"+ + @ a C l N k L %.i.c.b.&XpXbXNXVXVXVX| F.~.^ - Y | NXbXvXvXgXsXyXyXyXyX-X-XsXaXgXgXsXaXsXiXeXcXnXfX.X=.7.@.` j m R ) 7 .     ",
"+ & e 0.a.1.l N F F %.7.c.XXXXrXvXNXVXVX1XzXVXN.  ^ 1XNXbXgXgXyXyXsXyXsXyXyXuX=XgXbXvXsXyXtXtXrXcXeX+Xx.=.,.2.` 8 C [ Q *       ",
". w 1.H q.` N ) U U %.%.u._.XX=XeXNXNXVXVXVXF.t   O.NXbXbXsXsXyXuXsXvXsX;X-XyXrXvXNXvXsXyXrXsXaXbX&X@X8.#.$.I N N m 6 = .   O   ",
". # ) 0 > 3 5 N a U U %.u.k.b.XX=XfXbXVXVX| t     O.NXNXbXsXyXsXyXtXvXvXgXvXsXgXgXbXvXgXfXvXbXbXvX@Xx.=.$.A N 4 !  .= o .       ",
". . 6 0 > $ > < l P U U 3.u.k.#XgXfXbXBXVXF.Y     O.VXVXbXsXsXsXsXsXbXbXbXvXrXgXbXbXgX-XfXbXbXvXwX@Xg.#.D z Z > ) a . o . o     ",
"  . . 6 $ # # # w n J %.<.i.b.sXwXpXcXNXVXVXO.    O.VXVXVXsXsXsXvXvXbXbXbXbXvXnXbXbX=X$XbXbXbXeX&X'.6.$.b j j 4 ] g . . t o     ",
"  . 7 h y = + # $ 9 x %.,.i.`.sXgXvXbXVXVXVX~.Y   Y F.6XF.NXvXvXvXbXbXbXbXbXvXvXbXNX&XeXMXNXiX&Xx.6.*.D k 5 1 + . . .   . .     ",
".   . 7 & . # . # 2 l [ %.<._.yXgXvXvXnXNXNXVXN.    Y ~.t F.NXbXsXNXNXbXbXbXnXbXdXeXeXbXnX&Xl.l.p.$.D v j > + .   .             ",
"      . O     . # 3 e ` U <._.XXtXvXvXvXNXNXVXF.t t ^ C.  Y VXbXvXcXvXvXvXbXcXfX$X`.m.+X.Xl.d.8.5.K v A N @ + .       .         ",
"              . X & 9 c J %.3.).#XwXfXfXcXnXMXVXF.F.~.    p ~.NXcX&XqXsXgXfXfX&Xm.g.g.x.x.j.8.#.$.z z P 2 .     . .             ",
". o             X X 1 l N P 2.a.J.+X*XiXiXxXnXVX6X6X1XY B f E BXwXXXXX$XqXeX.Xx.j.6.8.(.7.7.:.@.x k 9 2 .   .                   ",
"          %   X   X & M N H q.2.a.J.[.|.8XxXnXBXO.O.VXVXMXMXbXiX+X).).].@X.Xz.7.,.#.,.2.I :.N z j < > % . . * -     .           ",
"            X o   X % e H P [ [ 0.H.P.|.7X8XlXBXw.O.BXMXiX0X0X*X'.z.a.a.z.(.t.,.:.` S S A Z l j 2 $ + O   * T *                 ",
"              X X X X : a G H ] X.A.I.{.4X8XxXBXVXw.B MXxX0X7X.X7X_.J.t.q.P.r.9.) S C m n 0 8 , + . . = % - o                   ",
"                .   o % 7 a V ] ..B.V.E.,X5XjXCXBXN.Y BXxX8X7X8XR.V.r.9.9.I.r./ R R T n y y i g . o i O                         ",
"                  o . * 7 i { e.} B.V.!.3X5XkXmXBXB.T BXxXzX5X4XT.V.B.B...V.B./ R R T p i 7 * ; o * O                           ",
"                . . o O ; p / Q } N.B.E.,X5XkXmXVXN.Y BXxXkX5X{.T.V.B.0...T.B./ Q R T R a - * O %                               ",
"                    o o ; y s E } B.B.T.!.>X5XmXVXkXF.| mX8X3X{./.V.B.o...Y.T./ ~ R T g i r ; u * .                             ",
"                  .   o * q p T / N.N.T.!.,X5XjXVXVX~.Y CXkX3X{.R.V.B.N.../.T.' ] R R R u r i -                                 ",
"                    X o * q B W ~ ..N.V.{.,X5XjXBXVX~.Y mXkX3X{.E.D.B.B.o.T.!.} / R R R s t - %   o               .             ",
"                    . o % ; d X./ } N.T.,X{.3XkXMXVX6XF.CXkX5X{.E.K.B.B...K.!.' ' ~ R T s t - O o o                             ",
"                  . . . O ; t d / } N.B.!.{.,X5XmXVXVXVXCXjX5X,X!.T.B.B.B.K.R.} ' R R T s i - * o o                             ",
"                o   o o o * t s R ' N.B.V.{.,X3XjXBXVXVXBXjX9X>X!.K.K.B.N.T./.} ^ ~ W T s i - * o o                             ",
"                      . o % - u R / ' N.V.E.{.3XkXBXVXVXBXzXkX>X!.T.T.B.N.T.{.} ' ~ W T s i - * o o   .                         ",
"                      X O O - i T R / N.B.E.{.,X9XmXBXVXBXzXkX>X!.T.K.B.B.T.,XN.' ~ W R g i r * O o                             ",
"                      o O % = t g R / N.B.E.!.,X5XzXBXBXBXmXjX3X{.!.T.B.B.B.{.' } ~ ~ T g i r ; O o o     .                     ",
"                        o o % t s R ~ ..B.K./.,X5XjXBXVXBXCXxX5X,X!.T.T.B.T.{.N.} ~ ~ R g u t * O o                             ",
"                      o o o % - s T ~  .B.D.Y.!.>XjXCXBXBXBXCXkX,X!./.T.B.E.E.N.} ' ~ R f u t ; % O o .                         ",
"                          o O - u T R } N.B.Y.{.>XkXmXBXBXBXmXkX3X{.!.V.B./.!.N.} / ~ E g u t * O o o                           ",
"                        o o o ; i T R / N.D.Y.!.>X9XzXVX{.T mXjX5X,X!.!.V.E.{.N.} } ~ R f s i ; O o o                           "
};
