/* XPM */
static char *result[] = {
/* columns rows colors chars-per-pixel */
"64 64 252 2 ",
"   c #020101",
".  c #0A0505",
"X  c #0C0A0A",
"o  c #0D0807",
"O  c #130603",
"+  c #130906",
"@  c #1C0905",
"#  c #130D0C",
"$  c #1C0C0A",
"%  c #190703",
"&  c #19110E",
"*  c #160F10",
"=  c #141212",
"-  c #1B1515",
";  c #1D1818",
":  c #230C05",
">  c #230E09",
",  c #2A0D07",
"<  c #24120D",
"1  c #2C130C",
"2  c #2B1105",
"3  c #33150A",
"4  c #3B1A0B",
"5  c #371607",
"6  c #231513",
"7  c #2B1612",
"8  c #231815",
"9  c #241C1C",
"0  c #2C1B18",
"q  c #351B14",
"w  c #391C14",
"e  c #310D04",
"r  c #2A201F",
"t  c #22201F",
"y  c #3B241C",
"u  c #382017",
"i  c #3E200F",
"p  c #221F20",
"a  c #252223",
"s  c #2B2323",
"d  c #2D282A",
"f  c #322D2D",
"g  c #392927",
"h  c #352F31",
"j  c #3D3639",
"k  c #3F3D3E",
"l  c #3A3334",
"z  c #39312E",
"x  c #421D0B",
"c  c #421F12",
"v  c #48240D",
"b  c #51290C",
"n  c #42261D",
"m  c #472818",
"M  c #572D17",
"N  c #59341A",
"B  c #4E311B",
"V  c #683919",
"C  c #663116",
"Z  c #432B25",
"A  c #482E25",
"S  c #4A322B",
"D  c #583826",
"F  c #413D3E",
"G  c #483835",
"H  c #553C36",
"J  c #582E20",
"K  c #643B28",
"L  c #733F21",
"P  c #79451D",
"I  c #68411A",
"U  c #5A4139",
"Y  c #4B4136",
"T  c #6A462D",
"R  c #794928",
"E  c #694938",
"W  c #754B36",
"Q  c #7A5438",
"!  c #75522C",
"~  c #3F3F40",
"^  c #443E41",
"/  c #4B4345",
"(  c #4E4649",
")  c #474042",
"_  c #534A4D",
"`  c #574846",
"'  c #564D51",
"]  c #5C5155",
"[  c #5F5F5F",
"{  c #5C5359",
"}  c #664D46",
"|  c #695249",
" . c #795645",
".. c #64595D",
"X. c #685957",
"o. c #755C58",
"O. c #7D6358",
"+. c #665B62",
"@. c #6E6769",
"#. c #76686A",
"$. c #7A6E74",
"%. c #766C73",
"&. c #7F7E7E",
"*. c #7E7177",
"=. c #824B28",
"-. c #895429",
";. c #875939",
":. c #985D35",
">. c #90532F",
",. c #98673A",
"<. c #98612E",
"1. c #A86A39",
"2. c #AB753C",
"3. c #A05E30",
"4. c #885C45",
"5. c #896449",
"6. c #956647",
"7. c #866658",
"8. c #9A7458",
"9. c #966D58",
"0. c #A66A48",
"q. c #A87648",
"w. c #B7784A",
"e. c #A77656",
"r. c #B47A56",
"t. c #B06B40",
"y. c #856B67",
"u. c #997567",
"i. c #83767C",
"p. c #837B7E",
"a. c #897473",
"s. c #96766F",
"d. c #A67A64",
"f. c #B57E63",
"g. c #BA8758",
"h. c #B4864D",
"j. c #AA8666",
"k. c #B58565",
"l. c #A78779",
"z. c #BC9374",
"x. c #B59071",
"c. c #9B8261",
"v. c #C7844A",
"b. c #C58758",
"n. c #D6985D",
"m. c #C99052",
"M. c #C68C64",
"N. c #CA9569",
"B. c #D59868",
"V. c #C59674",
"C. c #D29772",
"Z. c #DDA46B",
"A. c #D9A87A",
"S. c #D5AB78",
"D. c #E4AA7B",
"F. c #E3AB66",
"G. c #F0C47D",
"H. c #8A7D83",
"J. c #877A81",
"K. c #907E81",
"L. c #8E8288",
"P. c #93858C",
"I. c #9A8889",
"U. c #9B8C93",
"Y. c #9A8C95",
"T. c #9F9E9D",
"R. c #9F9597",
"E. c #A68986",
"W. c #A3949C",
"Q. c #B3918C",
"!. c #AC9DA5",
"~. c #A89AA4",
"^. c #B09EA6",
"/. c #B2A3AC",
"(. c #B7A4A9",
"). c #BAABB4",
"_. c #BFBCBE",
"`. c #BEB8B6",
"'. c #B2A8A6",
"]. c #C69A86",
"[. c #D9A986",
"{. c #C6A498",
"}. c #D7AA96",
"|. c #D1AB88",
" X c #E3AD81",
".X c #E9B989",
"XX c #E6BB96",
"oX c #EAAE96",
"OX c #C3B3BC",
"+X c #CAB5B9",
"@X c #D7B9B7",
"#X c #CCADA8",
"$X c #E7BBB0",
"%X c #ECC59A",
"&X c #EFCB96",
"*X c #F5E596",
"=X c #D8C5B5",
"-X c #EAC8A5",
";X c #F2D6A9",
":X c #EBC8B9",
">X c #F5D9BA",
",X c #F1D1AF",
"<X c #F5E9BA",
"1X c #F7F2BA",
"2X c #F7EBA9",
"3X c #D8C198",
"4X c #C9BAC3",
"5X c #D2BEC7",
"6X c #CECDCC",
"7X c #CFC7C5",
"8X c #D3C3CC",
"9X c #DAC3C7",
"0X c #DBCBD4",
"qX c #D6C6D0",
"wX c #DEDADA",
"eX c #DDDDCD",
"rX c #E6C7C6",
"tX c #F5DBC4",
"yX c #E4D5DD",
"uX c #EDD8DB",
"iX c #F2DBDB",
"pX c #E6D3CE",
"aX c #F5ECCB",
"sX c #F9ECCC",
"dX c #F5E6C7",
"fX c #F6F2CE",
"gX c #F9F4CC",
"hX c #FCFBCD",
"jX c #FAF7C4",
"kX c #F7E9D5",
"lX c #FAF5D4",
"zX c #FCFBD4",
"xX c #FAF5DC",
"cX c #FDFCDC",
"vX c #F6F4D9",
"bX c #EDEEDE",
"nX c #EBDBE3",
"mX c #E8DAE4",
"MX c #F1DFE3",
"NX c #EEE3E9",
"BX c #F5E6EA",
"VX c #FAF5E3",
"CX c #FDFCE3",
"ZX c #FAF5EC",
"AX c #FDFCEC",
"SX c #F7F6E7",
"DX c #F9ECF3",
"FX c #F6EBF2",
"GX c #FCF3F5",
"HX c #FDFCF3",
"JX c #FDF5FA",
"KX c #FEFCFC",
/* pixels */
"  # . # r 9 d F ] #.J.Y./.4XqXMXJXKXKXJXJXnX0X#X(.E.K.s.u.9.d.Q.u.4. .^ H S g 6 g 7 w Z o.D 5 A S 8 g o .               X   .   ",
"      X ` X.` ] ] @.J.U./.4XqXnXKXKX~ _.DXnXrX@X#XQ.Q.f.f.f.f.].].d.d.7. .D Z 0 7 3 } 7.E B 5 5 n O.Y 8 .                       ",
"    . X < G X...@.i.I.W./.4X0XMXKXKX~ _.DXiXpXrX$X].].C.V.C.|.}.}.f.f.9.4.U S n w |  .B E T m 5 u  .} ...             . X       ",
"  .   . 9 X.X.#.+.i.K.U./.OX8XnXKXKX6XNXJXFXBXkX$XoXoX X.XtXAXSXrXA.C.0.4.L H J H J c m E u.c.U J 2 ` ] &   . . X   X           ",
"X X # - ` z g o.a.#.i.U.!.OX8XmXJXKXKX%.k 6XKXSXMXtXtX>XaXSXHXHXGX-XZ.b.d.6.;.K K J m C T b N  .7.A X.g z +   .                 ",
"0 p 9 - 8 8 s ..] i.$.P.!.OX8XyXJXKXKX)   f T.KXZXJXHXSXAXSXAXAXZXxX.XB.f.r.0.4.=.=.L M b b N J 7.G 0 r Y & .   X               ",
"- . . . X 9 h F _ @.*.P.!.OX8XmXJXKXKX~ [ &.&._.JXKXHXbXHXAXAXfXAXAX;XD.B.M.t.t.3.:.=.V ! b N v 4 H Z } _ .   . .               ",
"X . . . X ; p G _ ..*.P.!.OX8XyXJXKXKX~ _.KX&.&.OX=XKXHXAXHXHXAXZXVXkXXXD. XoX Xb.1.3.-.,.Q W v v 2 : 0 G d s +.9 .             ",
"g @ 8 7.| - s F ] @.$.P./.OX5XuXJXKXKX~ [ wX&.k ~ &.KXAXCXfXCXAXAXAXVXdX-X<XxXdX>XA.v.b.e.,.5.V v 4 D ` ` z ` g G       .       ",
"O @ g s.| 8 r l / ..%.I.!.OX5XiXJXKXKX~   [ k     &.KXAXcXzXcXHXHXfXxXHXHXAXHXAXxX>XD.b.C.h.e.,.W  .E n m u 7 G G     X X .     ",
": 2 g A 1 8 r l ( ..$.I.^.OX5XiXJXKXKX~           &.HXvXzXhXCXCXCXVXAXAXAXHXSXAXVXdXXXZ.[.w.t.<.;.R T v 3 1 $ $ z - . + X       ",
"3 A 2 2 : 8 r j ( ..$.I.#X+XrXiXJXKX6Xf           &.KXAXcXzXCXCXCXCXAXCXVXvXvXAXZXHXVXkXtXZ.v.1.>.P V b m H 2 q 6 z l F ;   #   ",
"5 5 5 4 3 6 s G | #.a.E.+X+XrXiXJXKX%.=           [ 6XHXHXAXAXCXCXCXHXAXSXCXAXSXVXAXHXHXHX%Xn.v.2.<.P b N 7.| q < ] ( z - X = X ",
"M v v 4 3 7 0 G o.a.a.E.(.$XiXDXKXKXKX~             k KXHXHXAXAXAXAXZXHXAXZXHXAXHXAXHXHXSXkX-XD.h.3.-.I M B B : < 6 s $ # - - - ",
"c.m D v 3 7 y G | o.y.E.{.rXBXJXKXKXKXk             k KXHXHXAXHXAXHXAXHXAXCXAXAXAXHXHXAXJXHXCXdXA.2.<.=.C i 2 > % + r 8 s l - = ",
"3Xx.c.v q w Z G X.X.y.E.#XkXAXKXKXKXk       &.KX&.  k KXHXAXVXCXAXAXHXHXlXcXAXAXAXCXvXAXvXZXSXCXjXB.1.q.d.u.D q < H g ` Y z # X ",
"v 5. .B D n | l. .y.y.E.:XxXAXKXKX          &.KX&.    k HXAXAXAXCXCXAXHXHXAXCXCXAXAXAXAXVXCXAXAXsX Xw.1.=.K K e % 0 S d r 8 9 = ",
"v b 5. .7.n U E y.y.d.l.}.xXAXGXKX          &.KXKX&.  k KXHXAXCXcXAXAXHXHXCXCXCXAXAXCXzXgXcXAXAXlX%Xb.1.=.C c e > % O + + 9 d . ",
"5 v E E 7.E D D  .7.s.l.}.kXVXAXKX          &.KXKX&.f 6XCXAXAXCXCXAXHXHXAXCXcXCXCXCXfXfXcXSXCXCXlXXXb.1.L M x c S 0 0 + o + +   ",
"4 m M 5.T D E Q 4.7.d.z.}.,XdXGXKX_.f       &.KXKXeX6XJXCXzXzXCXAXk =XAXAXcXcXcXcXzXzXSXCXCXcXCXgX;XD.r.>.C M x H G X.$ & - .   ",
"2 i I T B ! j.;.6.e.j.|.oX,XsXKXKXKXk       &.HXAXSXKXHXCXzXzXcXCX`.bXAXAXcXcXCXcX2XCXHXHXHXCXCXlX>X%X[.0.L C x q y Z + - -     ",
"< 2 q v T 8.j.h.q.g.M.D.XX,XZXKXKXKXk       ; T.KXAXKXHXcXzXcXcXAXHXHXHXHXHXAXAXAXhXCXHXHXHXAXAXcXsX>XXXf.=.M x w 7 $ + O # 8 . ",
"u 4 3 i Q ,.j.h.h.n.F..X&XsXKXKXKXKXk         &.HXHXHXHXcXzXCXCXAXHXHXHXAXHXHXAXAXzXlXSXHXHXHXAXAXVXtX-Xk.=.M v 4 , % O . 8 '   ",
"Z q 4 i ! j.2.h.S.dXlXzXVXAXCXKXKXKXk         &.HXAXAXHXAXCXCXCXHXHXHXHXVXcXcXhXcXCXAXAXHXHXAXAXAXaX,XXXM.-.C L c Z } #.H 9 6 + ",
"` u m Q ,.j.N.S.jXHXAXAXAXcXCXAXKXKXT.t       &.HXAXHXHXAXCXcXCXAXHXKXHXCXzXjX*XhXzXAXVXAXCXSXCXcXgXsXdX}.d.=.K J H w y.g 9 g O ",
"O.Z U ! Q ,.h.S.SXSXAXAXCXcXCXAXKXKXKXY     k _.AXAXAXCXgXCXcXCXAXAXHXHXT.eXzXjXcXSXHXHXzX<XvXCXlX>XdXkX:X].].K K A Z 1 7 O $ p ",
"S 2 i N c.2.h.3XHXCXAXAXCXcXCXAXHXKXKX~     [ wXAXAXHXzX1XjX2XCXAXCXHXAX@.=XCXzXcXcXCXAXCXfXaXaXaXaXtX3XoXr.4.W m n } Z $ 6 * F ",
"z $ 5 E c.2.2.S.SXSXSXvXCXCXCXAXKXKXKX~       [ wXHXHXHXCXcXhXCXCXCXAXAXHXAXcXzXjXjXjXzXfXfXdXSXAX>X%X|.r.=.L J J n H H 6 6 O - ",
"& : q E 8.,.,.n. XfXlXlXCXcXCXAXKXKXKX~   f t   &.HXHXHXHXCXzXCXCXcXzXzXzXjX1XhXjXhXhX1XxX1X;X;X<X%XA.C.:.6.R J } q 7 G H z p $ ",
"+ @ > B I ,.-.N.m.S.3X<XdXzXcXCXHXKXKX~   P.[   [ wXHXHXHXAXCXCXcXcXzX1X2X*XjXhXhXzXcXhXzXfX1XaXkXD.m.g.>.=.L K m q , H $ p s - ",
"r < : 3 B ;.! g.h.m.F.G.*XcXcXcXHXKXKX~           &.AXHXHXAXCXCXhXzXzXzX2X*XjXhXhXhXzXhXzXzXfXHX<XF.m.b.>.=.W K w 1 7 H g . + * ",
"# - O : y E I -.h.m.F.*XVXCXCXcXKXKX~         &.KXHXzXCXAXCXCXcXzXzXhXY `.zXzXhXhXjX*X1XzXdXlXkX,X.XD.w.:.L M M , Z g g 8 - . # ",
"Y + @ > n B b R ,.h.g.-XZXZXdXCXKXKX~ _.k       c.HXCXHXCXCXcXhXCX1X1XcXcXcXcXzXhXhX2X2X2XzXaXxXaXxXtX[.r.=.M J w , $ 7 d g *   ",
"= & + q U 4 i N Q h.N.S.,XvXVXHXKXKX~ _.k       &.HXHXHXAXCXcXzXcXzXhXhXcXzXzXcXhXhXhXhXcXAXCXCXdXAXkXtXr.L C L y , 7 Z 6 o . . ",
"  . + H S B B b 5.6.N.N..XaXVXGXKXKX6X[ =       p T.HXHXCXCXcXcXzXzXhXzXcXhX1XcXzXzXzXzXcXxXsXAXtXVXkX,X0.=.;.W Z : y H ` *   . ",
". - ] 7.} Z 4 B I ! j.k.S.-X<XSXHXHXHXk           &.HXAXCXzXzXzXzXcXzXzXcXlXjX2XzXCXCXzXzXlX1XxXaXVX:XoX:.>.4. .n > G ] #.$ .   ",
"o 7.O.l.7.n S O.E Q ,.c.V.%X,XaXVXKXKXk         . &.JXHXCXzXzXhXzXCXCXCXzXgXzX1XAXHXAXcXcXfXfXfXVXkX-XC.:.=.W } H y 0 8 8 o #   ",
". o.g > < y n E U O.! 8.z.|.%X>XlXAXKX6X_.f     . &.AXAXCXhXzXzXcXzXAXAXgXgXVXxXCXAXCXCXcXlXVXCXAXdXoXw.:.L L 3 u $.X.o         ",
". p 9 + + @ 0 2 | E  .8.z.S.[.aXCXHXHXKXKXk       &.AXAXAXzXzXzXcXlXAXAXAXAXcXVXAXHXHXCXvXAXAXAXxX>X X1.=.C C , @ I.l O .       ",
"  - ; +   o + $ B T E 7.e.V.,XcXvXAXKXKXT.t       &.KXKXCXzXCXCXCXCXAXAXAXAXSXvXAXHXCX&XlXSXAXxX<X,XC.>.V b 5 7 7 #.a .   = s   ",
". + s s ; . O + 8 Y 5.8.j.S.aXcXSXAXKXKXT.L.k     &.KXKXHXCXSXCXHXAXAXHXHXHXCXAXHXKXxX&XAXHXZX>X;XM.q.=.M v e & O ; =     = #   ",
"  z X.9   o . + 2 y Q 5.8.x.<XvXCXHXHXKXKXKX&.  ~ &.T.wXT.HXHXAXCXHXT.eXHXAXSXCXSXfXtXxXZXBX%XN.M.r.:.R v 3 : O             X   ",
"  X G t   . . + 8 y E 5.5.z.<XdXcXAXJXHXKXKXT.t &.T.[ T.[ 6XKXHXSXAX@.=XAXAXcXkX>X.X XdXtXoXn.w.k.6.R N N 1 O                   ",
"              o & u B  .5.j.].-XzXCXCXHXKXKXKX&.&.HX_.h T.%.HXHXCX<XfXzXlXcXlX>X Xn.n.C.[.M.M.:.>.R N N E @ O     .             ",
".             X + 0 y U  .9.l.|.:XtXiXVXZXKXKX&.&.HX6XF @.KXJXZXaX3X%X<XdXdX:X[.M.r.r.f.f.f.0.9.T M x Z <                     . ",
"X         #   o + & y U ` 7.l.E.{.@X@XuXNXKXKX&.p.GXZXZXJXJXHXGX>XD. XXX,X:X{.f.0.6.9.f.9.u.;.K M 5 : % O   . #   .             ",
"            . . X & r U U y.s.s.Q.'.+XpXMXJXKX&.&.DXBXBXkXiXkXtX[.C.V.V.|.}.Q.6.4.W  .W K K J c 4 : @ +   . X )                 ",
"            X   X # ; g ` | o.a.I.'.OXpXyXDXKX&.p.JXZXiXtX:X$X}.-X}.].8.9.^.d.7.} U H H S Z w 1 @ O o X X # h .                 ",
"                . # - p F ` X.$.P.W.(.5XyXFXKXKXKXJXGXNXiXrX@X@XQ.K.y.y.s.K.K.{ E ^ ^ l g g p - +   = s . .                     ",
"                  X * p h ^ y.a.P.W.).8XmXBXJXKXJ.&.JXBXuX9X=X5XK.s.y.y.#.K.K.{ ` ^ ^ g g p 9 ; X . t X                         ",
"      =       . . X = p h ] P.#.L.~./.8XyXBXJXKX&.&.JXFXyXyX8X).K.K.y.#.+.J.~.{ ^ ^ ^ ^ h 9 ; X X . X                           ",
"                . . X ; g ^ { @.J.Y./.4XqXNXJXKX&.p %.JXmX8X4X!.K.K.y.+...J.K.{ ' ` ^ ^ d 9 ; = ; .       .                     ",
"                  . X - d j ( +.*.Y.!.4X0XnXJXKX&.  ~ JXMXqX4X/.^.K.K.J.+.H.^.{ { ' ^ ^ h p p d = . . .       X                 ",
"                  . X = d j ( ..*.Y.~.OX0XmXDXKXwX[ ~ JXNX0X4X).K.K.J.#.%.K.4X+.{ ^ ^ G h d p = X X . .       X X               ",
"                . . X = a F ....$.P.~.4X0XmXDXJXKX&.p T.FX0X8X).K.H.J.+.+.H.5X#.{ ' ^ ^ h d a = X X .   .                       ",
"                . . X = 9 z ( i.J.K.U.OXyXmXNXJXKX&.  ~ FXyXqX).).J.J.J.#.J.4X#.{ { ' ^ j d p = X . .                         X ",
"                X . X X ; h ~ ' %.H.Y.).qXmXNXJXJX_.+.~ DXmXqXOX/.K.J.J.%.J.OX%.+.' _ ^ j h p = X . .                           ",
"              . . . X X ; d j ( +.J.Y.^.OX0XmXJXKXJX_.k DXmXqXOX).K.J.J.%.J.).%.{ { ' ^ j d d = X X .                           ",
"                  . . X ; d h ( +.i.H.~._.qXmXDXKXKXOX^ DXyXqXOX).~.H.J.%.J.OXJ.+.{ ' / j h a = X X X         X                 ",
"                    . X = d h ^ { $.H.~.).5X0XNXJXKX4X^ DXmXqXOX/.K.H.J.%.J.OXJ.+.{ ' ( j h d ; X X X     .                     ",
"                      X = p d ~ { @.p.Y./.4XqXmXJXKX6X@.DXmX0XOX/.~.H.J.%.J.).J...{ _ ^ j h d ; =   . . .                       ",
"                  X     = ; d k _ @.*.Y.~.`.8XmXFXKXKXKXDXmXyXOX/.~.H.J.%.J.).H.+.{ _ / ~ h a ; X X   .                         ",
"                      X X ; a j ( +.%.L.~.).4X0XFXKXKXKXFXmXmX4X/.H.H.J.J.H.~.H.{ { ' ^ j h p ; X X X .                         ",
"          . .         X X = p h ( { %.J.W.).4XqXmXJXKXKXnXmXmX4X).~.H.J.*.H.).H.+.{ ' / j h d ; X X                             "
};
