/* XPM */
static char *result[] = {
/* columns rows colors chars-per-pixel */
"64 64 250 2 ",
"   c #010101",
".  c #0A0505",
"X  c #0C0806",
"o  c #0A0708",
"O  c #0C0A0A",
"+  c #130604",
"@  c #140906",
"#  c #1C0905",
"$  c #130D0C",
"%  c #1B0B08",
"&  c #130F10",
"*  c #141111",
"=  c #1B1514",
"-  c #1E191B",
";  c #1C1818",
":  c #19110C",
">  c #230C05",
",  c #230E0A",
"<  c #2A0D04",
"1  c #24120E",
"2  c #2B130C",
"3  c #2C1105",
"4  c #34150A",
"5  c #371708",
"6  c #2C1B15",
"7  c #231C1B",
"8  c #2A1D1A",
"9  c #251613",
"0  c #341C13",
"q  c #361B15",
"w  c #28201E",
"e  c #3C231C",
"r  c #372319",
"t  c #3D210D",
"y  c #231F20",
"u  c #222121",
"i  c #2A2425",
"p  c #2D2829",
"a  c #332C2D",
"s  c #382824",
"d  c #342F31",
"f  c #3A2F31",
"g  c #3A3334",
"h  c #3F3D3D",
"j  c #3A3436",
"k  c #38302D",
"l  c #431C09",
"z  c #4C1D12",
"x  c #4A250D",
"c  c #4A2515",
"v  c #462818",
"b  c #552B17",
"n  c #573417",
"m  c #552E0F",
"M  c #66361B",
"N  c #743C1C",
"B  c #632F11",
"V  c #432B24",
"C  c #432C28",
"Z  c #473329",
"A  c #573729",
"S  c #413D3E",
"D  c #493836",
"F  c #563C34",
"G  c #5B2F25",
"H  c #643C27",
"J  c #6C3E2D",
"K  c #79431F",
"L  c #6C4219",
"P  c #4D413E",
"I  c #5D4239",
"U  c #5F432C",
"Y  c #68462A",
"T  c #784727",
"R  c #654736",
"E  c #774C35",
"W  c #775639",
"Q  c #6E503D",
"!  c #3F3F40",
"~  c #423F40",
"^  c #4B4345",
"/  c #4D4649",
"(  c #4F494B",
")  c #534A4C",
"_  c #594744",
"`  c #564E51",
"'  c #5B4E52",
"]  c #5E5459",
"[  c #5F5E5E",
"{  c #5C5355",
"}  c #674C45",
"|  c #67524A",
" . c #7B5544",
".. c #785A49",
"X. c #63595D",
"o. c #665757",
"O. c #745D58",
"+. c #7A6357",
"@. c #6C685F",
"#. c #665B61",
"$. c #695F61",
"%. c #6F6E6C",
"&. c #6D6667",
"*. c #75696D",
"=. c #786869",
"-. c #7A6E74",
";. c #766B71",
":. c #7D7176",
">. c #7F7E7E",
",. c #7E7778",
"<. c #854D2B",
"1. c #92572C",
"2. c #865536",
"3. c #965A35",
"4. c #8C502F",
"5. c #9B663A",
"6. c #8A633A",
"7. c #A96E3B",
"8. c #8A5C47",
"9. c #8A6446",
"0. c #976849",
"q. c #866657",
"w. c #966A54",
"e. c #9A7459",
"r. c #95714A",
"t. c #A76945",
"y. c #B57547",
"u. c #A9785A",
"i. c #B57B58",
"p. c #A8724D",
"a. c #856B67",
"s. c #8E7168",
"d. c #9B7667",
"f. c #81757B",
"g. c #85797A",
"h. c #987C79",
"j. c #986C65",
"k. c #AA7D67",
"l. c #C27F4C",
"z. c #B68351",
"x. c #9B837D",
"c. c #AB826A",
"v. c #B88667",
"b. c #A6857B",
"n. c #B88E75",
"m. c #C98754",
"M. c #CD9259",
"N. c #C48A65",
"B. c #D79966",
"V. c #C89777",
"C. c #D49A74",
"Z. c #CA956A",
"A. c #DBA679",
"S. c #CAA979",
"D. c #E6AC78",
"F. c #7F7E80",
"G. c #8B7E85",
"H. c #867B81",
"J. c #967E82",
"K. c #8E8288",
"L. c #92858B",
"P. c #958689",
"I. c #9B8D95",
"U. c #978990",
"Y. c #9F9D9B",
"T. c #9E9C96",
"R. c #9E9E8E",
"E. c #A4949B",
"W. c #B79995",
"Q. c #AF8F88",
"!. c #AB9CA4",
"~. c #AD9EA8",
"^. c #A899A1",
"/. c #B39EA5",
"(. c #B2A3AC",
"). c #B6A2A3",
"_. c #BBABB5",
"`. c #BFBDBD",
"'. c #BEBCB4",
"]. c #ABA0A6",
"[. c #BEA09F",
"{. c #CA9B8D",
"}. c #CCA789",
"|. c #D8A985",
" X c #DBAC95",
".X c #D9B396",
"XX c #D2AF92",
"oX c #E5AC86",
"OX c #E7B588",
"+X c #E6B89A",
"@X c #EDB692",
"#X c #D8B5AA",
"$X c #C3B3BC",
"%X c #CCB3B6",
"&X c #D5B9B9",
"*X c #CAADAD",
"=X c #E8B8A8",
"-X c #EAC39C",
";X c #F1CE95",
":X c #CECEBC",
">X c #DEC4BA",
",X c #EAC8A7",
"<X c #F3D7AD",
"1X c #F4D6B9",
"2X c #EFCCB0",
"3X c #F5E9A9",
"4X c #F5E8BB",
"5X c #F8F4BE",
"6X c #F5F0AE",
"7X c #F8E291",
"8X c #C9BAC4",
"9X c #D0BBC1",
"0X c #CECDC7",
"qX c #D4C4CD",
"wX c #DBC5C9",
"eX c #DACBD4",
"rX c #DEDAD7",
"tX c #DDDDCC",
"yX c #E6CAC9",
"uX c #F6DBC3",
"iX c #E4D4DC",
"pX c #EBD7DB",
"aX c #EED3CD",
"sX c #F6E7C9",
"dX c #F9F5CD",
"fX c #FBFBCD",
"gX c #F8F5C6",
"hX c #EDEDDB",
"jX c #F8EAD6",
"kX c #F6F2D4",
"lX c #FAF3D4",
"zX c #FCFBD4",
"xX c #FAF5DC",
"cX c #FCFBDC",
"vX c #F6F4D9",
"bX c #EEE7C1",
"nX c #EBDCE4",
"mX c #E8D9E2",
"MX c #EEE7E8",
"NX c #F6E8EB",
"BX c #FAF5E3",
"VX c #FCFCE4",
"CX c #FDFCEC",
"ZX c #F8F6E9",
"AX c #F9EEF4",
"SX c #F6EBF1",
"DX c #FBF2F5",
"FX c #FDFCF3",
"GX c #FDF5F9",
"HX c #FEFCFB",
/* pixels */
"  O o a D S S ' &.H.I.(.$XeXMXGXHXHXHXGXSXeX9X%X[.J.k.j.w.j.k.{.k.w.8.} F C e 9 6 , e G h.J 3 5 Z V _ = .               o o     ",
". . . * Z } o.X.&.H.U.(.9XiXMXGXHX  `.GXNXyX&X*X{.J.{.k.i.N.N.{.{.i.k.w. .D D q q 4 } | V 4 5 3 5 s.O.D :                     . ",
"  . . O a o.@.X.g.E./._.8XeXnXGXHX  `.GXNXpXyXyX X{.{.C.C.A.-X>X Xi.i.w.8.F D e V } } l F q.R 5 z v } =.; . .         .         ",
". . o * o.I ) g.*.g.P.~.8XqXmXGXHX  `.HXDXNXjXjXyXoXoXD.-XjXFXFXjX XC.i.0.} J G F z 5 c J R s.Y A c C @.= .   . .   . .         ",
"= 7 i g D i D f.K.f.P.~._.qXmXGXHX  d h ! h T.ZXpXuXsXbXBXZXFXFXHX1XD.m.u.w.2.J J b z x b l x Y a...F D 8 ; .                 . ",
"i = $ $ = p S { *.f.L.!.$XqXmXDXHX          >.FXDX^.%.BXFXZXCXvXFXFX@XB.m.i.0.3.4.4.J B B x l b G } q q _ 7   . .               ",
".   . O = a S ) X.:.L.^.$XqXiXAXHX      [ u ^ `.HX>.! CXFXtX,.vXVXZX2XOXD.m.y.t.5.3.<.N T n x x 5 v e _ D 9 . . O               ",
"  . : 7 = i f / X.f.J.E.$XqXiXAXHX      `.Y.h h g.H.Y.FXCXtX>.VXCXZXxX-XD.oX+X@XM.7.1.1.6.E W n l 4 < q Z ^ = $.o..             ",
"w + o.b.Z i k ( X.:.K.!.$XqXiXAXHX      [ >.h     >.HXFXVXdXBXFXFXcXkXBXsXbXxXjXuXoXm.m.i.5.r.M b 5 V F _ 8 D _ k . .   .       ",
"> w | ..w i k ^ X.:.L.!._.qXpXDXHX                >.FXCXcXzXcXCXFXxXVXZXCXCXFXVXxX1XOXm.C.y.i.0.2.W  .v v q 2 , f 6 . O O       ",
"t r v r 6 i k ^ ] :.K.!.$XwXpXAXHX                >.FXcXzXzXVXVXCXZXCXCXBXCXBXBXxXjX<XD.oXm.7.7.2.H E z 4 2 < , 2 s $ $ *       ",
"m v t 0 6 s D P o.;.G.E.%X9XpXAXHX                >.HXCXcXcXVXCXVXVXCXCXvXkXvXZXZXFXCXBXjXOXM.7.3.T N b c } F 5 s s D ^ j O . & ",
"m m n v r r P { =.g.J./.%XwXpXAXHX        d u     >.FXFXCXVXCXVXCXCXFX0XhXBXCXCXCXCXFXFXCX1XB.m.7.1.<.B n  .a.F 0 s D i ; = . a ",
"n n n m t e Z / a.s.K.W.&XyXSXGXHX        L.>.u   >.HXZXVXVXVXFXCXCXVX%.:XCXFXCXFXCXFXCXFXBX1XOXM.7.1.L b c V 4 > + 1 p X = ; p ",
"r.W W m v k Z ) X.a.J.E.#XpXDXHXHX          F.>.  >.HXFXVXVXcXCXBXCXFXFXZXxXCXCXCXCXCXFXFXFXCXsXOXy.1.5.H l 5 2 > 1 1 C = P w . ",
"S.S.W n v V Z o.O.=.h.W.>XBXHXHX          `.HX>.  x.HXCXVXVXBXCXCXCXFXFXkXcXCX,.>.CXkXCXvXZXZXCXdXA.7.z.u.k.Q 0 r V s | P D ; $ ",
"U 6.Y Y U n r.x.a.a.h.W.yXVXFXHX            >.HX>.>.HXHXFX'.  CXVXvXVXFXFXCXVXCXCXCXCXFXVXBXCXCXdXoXy.5.T H G l % 1 9 D @ 9 . i ",
"m W W @.6.h U [ Q.s.P.W.>XBXZXGXHX          >.HXHXF.  ! FXFXCXcXcXCX!   '.VXVXVXCXCXCXvXkXvXCXCXlX-Xm.7.K M x 3 2 # # # @ $ y   ",
"t n U W W P Z U O.j.b.W.=XjXZXFXHX          >.HXY.u a 0XBXCXVXVXVX! R.a '.cXfXVXVXVXzXgXcXVXCXVXzX-XB.t.<.B l 0 F # s + @ . . . ",
"n t U W v U Q W q.d.b.{.=XuXxXDXHX`.d       >.FXrX'.0XHXVXcXcXcXCX  '.0XhXzXcXVXcXzXvXxXVXCXVXzXzX<XA.i.3.N b 5 } # O.8 $ = =   ",
"t e U n n W c...e.k.n. X=XuXhXFXHX! O       >.FXZXZXHXFXVXzXzXcXCX'.hX%.:XcXcXcXVX6XvX0X%.FXCXzXlX4X=XoXt.<.B l q 6 s : $ 7 .   ",
"3 3 t t W c.c.z.p.M.C.OX,XuXFX! ^           - Y.FXFXHXFXcXzXcXVXCXFXCX0XMXFXCXCXVXfXcXMX0XFXCXh VXlX1X2Xv.<.B z 4 v < % + @ $ $ ",
"r 3 t m W r.z.r.z.A.OX;X<XBXHXx.>.            >.FXFXFXFXcXzXcXVXFXCXCXFXCXCXFXCXCXfXgXvXrXY.CX  FXCXsX2XV.<.B z 4 q > # + @ i 7 ",
"s 3 t n W z.5.S.OXxXxXxXZXFXFXHXHX            >.FXCXCXCXVXcXcXVXCXFXR.rXcXcXcXzXVXVXCXFXtXT.CX>.CXjX<X+XN.4.N 2.4 z F a.x.w s 1 ",
"s 2 v Y 6.v.S.OXVXFXZXFXCXVXCXHXHXF.u       h `.FXCXCXFXVXVXcXCXCXFXT.hXZXvXfX6XzXzXVXVXCXCXVXVXcXjXsXsX=Xi.4.G b F q | } 7 y + ",
"| U Y W 6.r.M.<XFXCXFXFXVXVXCXFXHXHX!       >.HXVXCXCXVXzXcXcXVXCXCXCXFXFXCXcXzXcXVXCXFXZX4XBXCXlX4XuXsXuX{.k.8.G 0 G < q @ + 7 ",
"r 2 t W z.7.z.hXFXFXFXCXVXVXCXFXHXHXh       [ rXVXVXCXcXgX5X3XVXVXVXCX0XMXCXcXcXcXzXVXCXCXgXkXsXsXkXsX,X=Xv.<.e.c q _ ~ , 9 % y ",
"9 > t ..r.7.y.<XCXvXVXZXCXVXCXFXGX`.d         >.FXCXFXCXVXzXgXcXVXVXCX%.:XCXVXzXgXfXgXzXlXkX4XvXZXjX,X@Xk.4.H G V l C } 1 9 & $ ",
"1 2 t 9.r.5.7.A.-XkXBXBXCXVXCXFXHX! &         [ rXFXCXCXCXcXzXVXVXcXcXfXcXfXfXgXfXfXfX5XcXlX3X;XjX,XA.OXt.0.<.b G V < V D a g . ",
"@ @ 2 c W 6.5.Z.M.OX;X6XdXcXVXCXHXHX!           [ rXCXFXFXCXVXVXcXVXcX5X3X7X5XfXfXzXcXfXlXlXsXsXkXOXM.v.1.N E b q D , D s $ s $ ",
"f # > t W W 1.Z.z.B.D.;X4XVXVXCXHXHX!             >.CXFXFXCXVXVXzXfXzXzX3X7X5XfXfX5XcXfXzXVXkXZXbXD.M.M.1.<.J G q , 1 i F . O & ",
"w # + 3 U R Y 6.z.M.S.3XCXCXCXVXHX            >.HXCXfXcXCXVXVXcXzXcXcXcXzXzXzXfXfXfX6X5XzXsXgXjX<X@XD.y.4.N B z 2 F C 8 p 7 = . ",
": + 1 < A v n W r.z.Z.<XFXZXjXCXHXHXh           >.CXzXCXVXcXzXfXVX6X6XcXVXVXcXfXfXfX6X3X3XzXsXkXjXjX1X|.t.2.b z 4 2 2 9 i o.o.. ",
"i . : s A 5 x L 6.p.S.|.uXZXCXFX              F.FXCXFXFXCXcXcXcXVXzXfXfXzXcXcXcXzXfXfXfXzXVXVXVXsXBXjXuXi.N B b F > , 6 6 . .   ",
". . 6 F V v x A w.r.S.C.=XBXFXFX`.`.`.d       - ! T.CX0X%.zXzXcXzXcXzXzXzXzXfXzXzXcXzXzXcXcXlXVXsXjXsXuXi.N J H F > > ~ _ 7 . . ",
". 9 @.I I v e n Y w.n.V.XX<XjXCXFXFXHXh           >.CXvXR.@.zXfXzXcXzXcXcXcX5X3XzXVXVXzXfXxXsXlXjXjXuX+Xt.4.8...q , q _ s.a .   ",
"s O.+.s.F v R ..Y 8.9.c.}.+XuXxXFXHXHX!         [ rXFXCXhX:XfXfXcXcXVXCXVXcXzXgXCXCXCXVXcXlXsXlXxXBX2XC.3.4.J J I r 1 9 p : $ . ",
"8 } w w 8 v s } |  .W c.{. X,XsXZXFXHX0Xd       u Y.CXCXVXzXfXfXcXcXCXCXfX4XxXxXVXCXCXVXVXdXkXCXVXxX2Xm.1.N H z e P o.= X       ",
"X s = + + 2 0 r .... .c.V.XX+XkXFXFXHXHXh         >.CXCXVXfXzXcXcXcXCXCXCXVXcXVXCXCXCXCXBXZXCXCXVXsX@X7.4.N M 4 # @.=.$ X   .   ",
"  ; = . . + # r I I  .d.c.XXbXVXZXHXHXY.u         F.HXFXvXzXCXCXCXCXCXFXZXCXBXvX$X'.CX3XsXZXCXBXjX1X|.3.N B 5 4 + =.g .     i . ",
"  * - w O X @ 1 r R s.c.c..XkXZXCXDXHX^         ! `.FXrXY.VXVXCXCXCXT.tXFXFXCXCX'.`.ZX;XxXHXFX4X2XA.i.1.N x 4 , X w i   . O d   ",
". =.| : o O @ : 0 Z +.r.c.}.gXVXCXFXHXY.u       ! F.Y.`.! CXCXCXVXCX! '.FXFXVXZXBXjXbXsXDXBX2XB.Z.v.V.<.B 5 > + .           O   ",
"  P { O   . X % 6 V +.9.r.}.5XhXCXFXHXHX^       u ! %.0X%.HXFXCXBXCX%.:XCXVXBXxXuX@XOXsXjX=XB.l.i.n.r.M n 5 # +                 ",
"  . X     . . $ 9 s U +.q.n.XX4XVXCXFXHX%.O     F.FXMX`.0XHXHXFXxX4XfXlXzXzXlXuX@XB.M.C. XV.N.t.3.8.J b  .2 + .   .             ",
".         . . O : r Z I +.c.Q.#XaXsXBXFXGX!     g.FX0X! %.HXHXCXsX@X;XbXgXsX1X XC.i.y.k.k.i.u.0.E M x v e @ X .                 ",
"          $ . O @ w Z I | s.n.W.*XwXyXNXDX%.u u E.DXDXDXHXGXHXDXsXOX|.+X2X1X=Xi.t.0.w.k.k.k.8.E H l 4 > + . . . .   . .         ",
"            . . $ 9 s _ | g.x.Q.[.:XwXpXAXHX>.>.DXNXNXpXjXjXpXjX+XV.V.Z..X*X{.w.8.8.8.q.8.F J z 5 < # % X . . d O               ",
"            O   $ ; w D ' +.a.J.E.*X9XpXSXHX>.>.GXNXNXaXyX=X=X X.XXX{.u.u.Q.U.8.} } F F G C e q 1 # @ @ X . u -                 ",
"            o   O * - d / { =.g.^.(.8XeXMXGXF.F.GXSXNXiXyX&X#X X{.J.j.j.a.J.J.#.} F ~ D C s 8 , @ . $ - O O O                   ",
"              o o & - a S ' f.P.I.(.$XeXNXGXHXF.>.GXDXpXeX%X&X%XJ.j.O.a.#.J._.' ~ ~ ~ C a y 7 ; $ . u *     o                   ",
"      *         o $ ; p S $.P.h.I.(.$XeXnXGXHXF.F.HXDXnXeXyX%X~.J.a.O.#.o.H.(.] ' ~ ~ D f y - & O o O .                         ",
"              . . O * i g X.&.-.U.~.$XeXnXGXGXH.u E.GXNXeX8X$XE.G.a.*.#.' a.J.] ' ~ ~ ~ f y - ; * O         .                   ",
"              . o O * y g / ] -.L.~._.qXmXGXHXF.  u %.SXiX8X_.^.G.H.*.#.] H.J.#.' ~ ' ~ d y - y u o           O                 ",
"              . o o & y g ^ { ;.K.^._.qXmXAXHXF.    h DXmXqX8X~.J.H.F.#.' H._.#.#.~ ~ ~ d i y y O             o   .             ",
"                  o & - d / ] *.K.^.(.qXmXSXGXF.    h GXnXeX8X(.J.H.F.] #.H.$XH.] ' ~ ~ j p y & O               .               ",
"              . o o O - d ^ %.H.G.^.(.eXmXSXGXF.    h HXSXeX8X(.J.G.H.#.#.H.8XH.] ' ' ~ j p y = O o o                           ",
"                O o & ; p ~ ( *.U.E.~.8XnXSXGX`.!   u E.SXiX8X_.~.J.F.#.;.F.~.G.#.` ) ~ ~ d y - O o o                   .       ",
"              O . o O * y j ^ #.:.U.~.$XeXMXAXHXF.    ~ SXmXqX$X(.G.H.F.#.H.(.G.] ] ` ~ j a y - O O .                           ",
"                  o o & y j ~ #.-.U.^.$XqXnXAXHXF.    ! SXiXqX$X~.G.G.F.#.H._.G.#.] ` / ~ p i - & o o                           ",
"                  o o & y f ~ ] %.K.E._.qXiXSXGXY.u o ~ AXmXqX$X~.J.G.G.F.H._.J.#.] ` ( ~ d p - & o O   .                       ",
"                    o & y a h ` &.G.I.(.8XmXnXGXHXF.  ! SXmXeX$X~.I.G.-.#.-.(.J.#.] ` ~ ! d p - & o o   .                       ",
"                  o o O ; p j ( #.H.U.(.8XeXnXDXHXF.  ! SXmXeX$X~.J.G.;.;.-.~.(.#.] ` / ! d i - & o O                           ",
"                o o o o ; p j ( #.:.G.!.8XqXmXAXHXF.  ! SXmXeX8X~.I.G.H.;.F.J._.#.' ] ~ j d i - & o O .                     .   ",
"                    o O * i d ~ #.:.G.^.8X8XeXSXGXHXHXHXSXmXeX8X(.I.G.F.;.G.G.~.#.] ` / ~ d p ; & o o   .                       "
};
