/* XPM */
static char *result[] = {
/* columns rows colors chars-per-pixel */
"64 64 243 2 ",
"   c #010101",
".  c #0A0504",
"X  c #090708",
"o  c #0D0A0A",
"O  c #0C0806",
"+  c #140604",
"@  c #1C0602",
"#  c #1C0A05",
"$  c #130D0C",
"%  c #190C09",
"&  c #1A110E",
"*  c #151212",
"=  c #1B1514",
"-  c #1D191A",
";  c #1D1718",
":  c #130F10",
">  c #230B05",
",  c #270E07",
"<  c #24110C",
"1  c #2B120B",
"2  c #2A1105",
"3  c #34150B",
"4  c #371709",
"5  c #2D1A14",
"6  c #231C1C",
"7  c #2B1D1B",
"8  c #261613",
"9  c #331B14",
"0  c #371D17",
"q  c #300F01",
"w  c #29201E",
"e  c #3B231C",
"r  c #35231D",
"t  c #251F20",
"y  c #232021",
"u  c #2A2424",
"i  c #2E292B",
"p  c #2C2728",
"a  c #332521",
"s  c #312D2D",
"d  c #3B2A26",
"f  c #3C312E",
"g  c #332F31",
"h  c #373133",
"j  c #3A3334",
"k  c #3F3D3D",
"l  c #3D3639",
"z  c #431D0D",
"x  c #55290D",
"c  c #472718",
"v  c #552C17",
"b  c #57321B",
"n  c #49230B",
"m  c #663518",
"M  c #743E1C",
"N  c #622F15",
"B  c #432E29",
"V  c #492C23",
"C  c #4B322B",
"Z  c #463229",
"A  c #563628",
"S  c #433432",
"D  c #413E3E",
"F  c #4C3C3A",
"G  c #4B3833",
"H  c #573C35",
"J  c #572E21",
"K  c #663B2A",
"L  c #58423B",
"P  c #54412E",
"I  c #65422A",
"U  c #774627",
"Y  c #694839",
"T  c #754C38",
"R  c #78533A",
"E  c #77502F",
"W  c #75431D",
"Q  c #433E40",
"!  c #4C4345",
"~  c #4C4548",
"^  c #524A4C",
"/  c #594A48",
"(  c #574D51",
")  c #5C5255",
"_  c #5D5459",
"`  c #5F5F5E",
"'  c #5D504B",
"]  c #654C45",
"[  c #695249",
"{  c #795747",
"}  c #61575B",
"|  c #675859",
" . c #735B58",
".. c #744D41",
"X. c #79625B",
"o. c #6E615E",
"O. c #6A5E64",
"+. c #665B62",
"@. c #7B5E60",
"#. c #6E6269",
"$. c #6D6869",
"%. c #756769",
"&. c #786C72",
"*. c #7F7E7E",
"=. c #7D7576",
"-. c #864A27",
";. c #8A522B",
":. c #995B2E",
">. c #855538",
",. c #975C3A",
"<. c #8B4D33",
"1. c #9B6139",
"2. c #AA693C",
"3. c #875C47",
"4. c #8E5C4C",
"5. c #986648",
"6. c #876558",
"7. c #966A59",
"8. c #99725B",
"9. c #8B6448",
"0. c #A46C48",
"q. c #B97949",
"w. c #A57759",
"e. c #B77957",
"r. c #A67050",
"t. c #967469",
"y. c #857779",
"u. c #957A75",
"i. c #876C69",
"p. c #A97865",
"a. c #B57962",
"s. c #C17C4D",
"d. c #BC835A",
"f. c #AA8052",
"g. c #B98768",
"h. c #A7867A",
"j. c #B58D70",
"k. c #9A8277",
"l. c #C58559",
"z. c #D59258",
"x. c #C88B66",
"c. c #D69669",
"v. c #C58C77",
"b. c #C99777",
"n. c #D69B79",
"m. c #CE9365",
"M. c #DAA57C",
"N. c #E1A378",
"B. c #E19F70",
"V. c #7F7E80",
"C. c #8A7D83",
"Z. c #877A82",
"A. c #8E888B",
"S. c #92848C",
"D. c #97878A",
"F. c #9B8D94",
"G. c #998B93",
"H. c #9F9E9C",
"J. c #9E9797",
"K. c #A68C88",
"L. c #B99785",
"P. c #A3949C",
"I. c #A79597",
"U. c #B79C98",
"Y. c #A7918D",
"T. c #BCA19C",
"R. c #AB9BA4",
"E. c #A99CA3",
"W. c #B09DA5",
"Q. c #B3A4AD",
"!. c #B7A2A6",
"~. c #BBACB5",
"^. c #BCADB6",
"/. c #BEBDBC",
"(. c #BEBAB5",
"). c #AEA1AA",
"_. c #C79B8B",
"`. c #D8A687",
"'. c #D6A793",
"]. c #DAB395",
"[. c #C9A391",
"{. c #E4AE8A",
"}. c #EAB389",
"|. c #E7B897",
" X c #E4AD97",
".X c #C6A9A9",
"XX c #D8ADA4",
"oX c #C3B4BC",
"OX c #D8B9B8",
"+X c #D6B5A8",
"@X c #E7BBA7",
"#X c #E6BCB3",
"$X c #F0CC95",
"%X c #EDC9AA",
"&X c #F2C9AA",
"*X c #EAC7B7",
"=X c #F3CBB6",
"-X c #EDD9BB",
";X c #F5D8B9",
":X c #EFD3AC",
">X c #F8F2B9",
",X c #F4EBAF",
"<X c #E2D9A9",
"1X c #CBBBC5",
"2X c #C8B8C2",
"3X c #D5BDC3",
"4X c #CEC9C9",
"5X c #D3C3CC",
"6X c #DAC2C7",
"7X c #D9CAD3",
"8X c #DED9D8",
"9X c #F6DAC7",
"0X c #E7D4DB",
"qX c #F4DAD8",
"wX c #ECCECB",
"eX c #F6EDCC",
"rX c #F7E7C8",
"tX c #F9F5CC",
"yX c #FCFBCC",
"uX c #F8F5C6",
"iX c #FAEBD3",
"pX c #F7EAD9",
"aX c #F6F3D5",
"sX c #FAF4D4",
"dX c #FCFBD4",
"fX c #F6F4DB",
"gX c #FAF4DC",
"hX c #FCFBDC",
"jX c #EDE7CC",
"kX c #EADBE4",
"lX c #F5DFE1",
"zX c #EEE3E9",
"xX c #F5E8E9",
"cX c #FAF4E3",
"vX c #FDFCE4",
"bX c #FDFCEC",
"nX c #F9F4E8",
"mX c #F6EBF2",
"MX c #FAEEF4",
"NX c #FBF3F5",
"BX c #FDFCF3",
"VX c #FCF5F9",
"CX c #FEFCFC",
/* pixels */
"X = t / o.o.%.y.P.~.1X8XMXVXCXCXCXCXCXMXkX6XOXT.C.p.p.7.r.a.a._._.7.p.6.] C B 7 < % 6 F ] 8 > @ > [ u.B % . . .         .   X   ",
"X o ; S X.%.&.A.Q.2X5X0XmXVXCXCX    /.MXqXwX#X@X_._.a.a.x.c.`.'.XXe.w.4...H G a 8 C  .B 7 G 9 > > , H  .' . .           X       ",
". o ; | o.%.y.A.P.^.1X7XzXVXCXCX    /.VXlXwX#X#X X`.{.c.M.%XaXzXwXn.x.r.3.Y A V B L d , d ]  .0 V V ,  .j + . . .     X   X     ",
"6 s d | D ( C.F.F.Q.2X7XzXVXCXCX    /.CXMXxXqXqX#X X}.}.;XbXBXCXMX|.c.e.5.3.R J Y z 3 3 c 3 9 A [ ] V  .a 7 % + .               ",
"f 8 u j S ( y.Z.F.W.2X7XzXVXCXCX    i k k 4XBXbXxXcXfXjXbXnXBXnXBXpX}.z.e.w.3.U K J b z 4 3 q c H t.A 3 7 Q = .               X ",
"X o * y l ) | &.G.R.^.5XkXMXCXCX        A.` H.BXVXI.$.nXBXBXbXfXbXnX&XN.n.e.0.,.<.-.M N b b 4 n q J V 0 H G 5 . .               ",
"X o * y l ^ | =.S.R.^.5XkXVXCXVX        /.k k *.oX/.H.BXBXBXBXbXbXpX;XN.N.l.q.q.1.:.-.M M K c v 4 q q V 1 < 6 t S O             ",
"X G ] f h ~ } =.S.R.^.3XkXMXCXCX        /.k     L /.BXBXbXcXBXBXBXBXsX&X|.{.%X%X{.q.2.:.5.>.E E v q 3 C C d t d L j X   X       ",
"X [ h./ h ~ ) &.S.E.oX1XkXVXVXCX        ` y     k /.BXBXvXhXbXBXBXcXfXbXbXcXhXsXiX&Xc.q.l.5.r.9.U v J L A r # S j u .   X       ",
"= Z P 5 h ~ ) &.C.E.^.3XkXMXCXCX      ` V.-     L /.BXhXhXsXhXcXBXbXbXbXcXvXbXeXsXiX$Xc.c.l.2.,.>.T Y A 3 9 1 @ @ j w $ o O   . ",
"r 1 5 w s ~ ) $.C.E.Q.5X0XMXCXCX      /.CXk       *.BXvXsXsXvXvXbXcXbXbXaXfXcXaXsXvXpX&X|.n.s.2.;.E m b 3 3 e 5 < 7 6 - - = o . ",
"4 3 r r f ^ ' &.Z.E.Q.3X0XmXVXCX      A./.g     - H.BXbXhXhXbXvXBXbXBXbXnXaXfXbXfXvXBXBXbX;XB.q.2.-.W b z I [ ] r # 7 r 5 = % . ",
"n c e r f ~ ) y.I.R.Q.5X0XmXVXCX                V.CXBXbXhXvXvXnXBXbXBXBXBXnXBXbXbXbXBXBXnXnX%Xz.q.:.;.m x V P Y , < < & = & 7 + ",
"b b n e s L ' %.D.I.!.1X0XmXCXoX          g k y ` 8XBXfXsXsXsXbXbXBXnXBXBXbXBXBXBXbXBXBXBXBXnX%Xc.q.2.W m x n 4 , @ @ 5 P & 6 7 ",
"E R c Z B ! ' &.y.I.!.OX0XxXCX            /.CX*.  *.bXfXaXsXeXbXaXBXBXCXfXjXbXbXbXbXbXBXBXBXBXcX<Xd.2.f.9.E A 3 1 , 9 < / S F = ",
"j.I c c G H | i.y.F.!.6XqXBXCX            /.CX*.  *.BXcXfXvXvXbXvXbXP /.BXbXbX*.  *.vXfXnXnXcXbXiX{.m.f.L.6.3.c 3 0 B G i.d S + ",
"P R P X.Z X.h.k.K.K.W.OXxXCXCXCX          /.CXCXCXV.k CXBX(.  bXvXhXbXk (.bXbXbXbXbXbXBXbXfXbXBXdX}.s.:.-.N x J e > > Q ] + . 7 ",
"P E E Y.I L ` k.K.U.T.OXzXBXCXCX          /.CXCXCX*.k CX/.k bXvXhX  (.bXBXvXdXbXbXbXbXfXaXfXbXbXhX@Xl.2.-.M b 3 0 @ @ + % . + : ",
"e b I f.P P L X.u.Y.U.OXqXbXBXCX          i H.BXCX*.k bXjX4XvXvXvX(.` k 4XdXyXbXbXvXhXuXfXvXvXnXgX;Xz.q.-.M z z C e 5 r + . X X ",
"4 P Y e C [ X.i.u.Y.U.#XwXxXBXCX            *.BXCX8X4XBXvXvXvXvXbXbX4X(.fXhXdXvXvXdXfXvXvXbXvXtXrX;X{.d.:.M N z 0 C 0 | 8 % =   ",
"9 V b c P t.6.8.h.L.'.wX9XpXCXCX            *.BXBXBXCXnXvXvXvXvXbXBXBXbXbXvXhXvXvX>XuXBXCXbXvXsXdXrX&X X0.<.N x q 9 5 5 . $ =   ",
"# 2 9 P 9.8.w.w.v.`. X=X9XnXCXk             y H.BXBXCXBXvXdXhXvXbXBXBXBXbX$.H.vXvXyXuXbXBXBXbXvXvXvXiX=Xb.>.N n q 5 r % . $ . = ",
"# 2 4 I R 8.f.x.`.@X=X;XpXCXCX                *.BXbXbXbXhXdXhXhXbXbXbXBXBXH.(.bXbXtXuXaXBXbXbXbXbXbXpX=X`.4.m x 4 > 5 & + . . s ",
"% 2 e R 0.5.d.|.9XbXbXbXCXCXVXA.            k /.BXbXbXbXvXhXhXhXbX*.*.8XbXvXvXdXvXvXbXbXbXbXvXbXbXsXiX&X`.,.-.x K 0 9 | u.' = O ",
"1 9 { E f.b.}.jXBXBXBXCXCXCXCXCX          ` /.BXBXvXbXbXvXvXvXvXbX*.*.8XbXhXdX>XuXdXfXbXvXbXnXvXhXiX9XrX&Xa.4.M V ] B 0 y.t & ; ",
"Z I Y R 0.d.].bXbXBXCXCXBXCXCXCX*.        /.CXBXdXbXvXbXvXvXvXvXbXvXbXBXBXvXhXdXvXhXbXbXBXaXeXfXtXrX:XrX9X@Xa.T H z 3 a < : . . ",
"> z K 9.0.d.|.BXBXBXCXBXCXCXCXCX/.        A.8XBXdXvXbXvXhX>X,XvXvXvXvXbXbXbXvXvXvXdXvXbXBXaXeXrXpX-XrX-X#X`.4.3.K 9 0  .t + : . ",
"# 9 I 9.0.f.`.hXnXbXbXCXCXCXCXCXk           ` 8XbXbXbXbXvXdX>XvXbXvXvXvXbXbXvXhXuXuXuXsXhXaXrXaXBXiX=X@X`.5.M J J 0 1 Q f & = . ",
"> 9 Y 8.1.f.M.M.jXnXnXBXCXCXCXCXCX        i D *.8XvXbXbXvXvXdXbXvXvXhXdXhXhXhX>XyXyXyXyXhXhXrX$XiX:X X`.v.5.,.J V ] 5 < 7 ] ; d ",
"# 2 V I 9.1.j.m.M.%XrXgXBXBXCXCXCX        A.8XH.H.bXvXbXbXbXvXvXvXhXhXyX>X$X>XyXhXhXhXdXfXaXeXjXgX:XN.d.2.M M K 0 H a 8 Q 1 < d ",
"# > 3 A { R d.b.m.}.&X:XbXCXCXCXCX          *.CXCXbXvXBXBXbXbXvXdXdXdXdX,X$X>XyXyXyXhXdXhXbXfXnXhX}.c.l.1.U M A z > > # ] 9 > 9 ",
"8 # 2 A 6.I R f.x.M.|.iXCXCXCXCXCX            *.bXhX>XvXbXhXhXvXdXhXhXhXyXdXdXyXuXyXyXuXhXaX>XfX;X}.M.d.<.M N 4 3 @ Q 5 B 7 C > ",
"@ < < c A A I 8.g.b.].pXCXnXvXCXCX              *.vXyXvXvXdXhXdX  >X>XhXvXhXhXyXyXyXuX>X,XhXcXpXiX-X;X X0.5.N z q , 0 a d H Y.H ",
"+ # 9 G e c A ..7.j.].%XnXNXBXCX              V.BXvXbXbXvXvXvXdXvXdX>XdXhXvXvXdXdXyXyXdXsXbXBXsXfXvXqX=Xv.M N n J , > < 0 1 3 , ",
"@ & Z C e c V ..8.j.'.|.9XVXCXCX/./.g         - H.bXvXvXvXhXhXdXdXhXhXhXhXcXdXdXdXhXhXhXvXvXsXbXnX9X9X;Xv.M M v H 0 > < B V , > ",
"% L [ Z [ c c I { L._.@X*XcXBXCXCXCXk           k.CXbXvXhXdXdXdXhXvXhXhXvXdXuX,XdXhXvXdXtXsXeXeXhX9X9X@Xa.-.U ..z 1 > a G ] d # ",
"' [ Y P C P Y ] [ u.h.'.#XiXcXBXCXCX4Xg         V.BXbXbXvXdXdXdXhXbXbXbXbXvXhX>XvXbXbXdXhXcXhXaXiXBXiX`.r.<.T ..C B < & 8 s 8 + ",
"X.r a w e e / [ X.6.u.L.+X*X9XMXCXCXCXk         *.bXvXBXvXdXhXvXvXbXbXbXvXuXhXsXbXbXbXbXvXfXgXbXbXbXrXn.1.M N J C 9 S t o + . . ",
"G % O + 8 w r L { X.t.[.+X*XqXBXCXCXCXk         *.bXhXbXvXuXhXbXbXvXbXbXcXeXhXbXbXBXbXBXnXvXnXBXbXiX=Xe.:.M N c 8 a ' L .       ",
"$ - . . + $ w f ]  .i.h.[.*XfXBXCXCXCXQ         *.CXBXCXdXyXbXbXbXbXBXbXbXBXnXfX(./.BXcXrXnXbXbXsX;X&Xe.-.N z 3 @ a ) & .   . p ",
". = . * . $ = r G 6.K.h.[.jXbXBXCXCXH.y         *.CXBXBXbXfXfXvXBXbXBXbXJ.8XvXbX(./.BX-X:XCXBXiX&X%X_.1.M x 4 > = t ^ = . X   A.",
"f F p * O O & w S [ k.h.L.*XbXBXCXCXH.y         k /.CXBXCXBXBXBXvXbXBXbXH.0XvXvXnXfX;X:XpXNXeXc.x.x.j.5.N 4 q +   .           . ",
"w %.& . O O $ w S | u.u.L.*XfXbXCXCXCX$.:     y k H.CXCXCXBXBXbXuXbXbXvXbXvXhXsXrX=X|.rXcX9X{.l.q.a._.R x 3 # +                 ",
". d + . X O o 6 f L X.i.K..X*XvXBXCXCXCX$.:   *.BXnXxXoX/.4XBXBXrXeXhXfXhXhXsXiX&Xc.z.M.%Xn.x.r.,.4.3.J A C . .   X             ",
". .   . . O o - a L ' %.h.L.OXwXcXbXCXCXCXD y H.BXMX4XD k $.BXbX-X$X:XuXuXrX9X@Xn.s.s.v._.a.e.5.-.K J 9 L $ . .     X           ",
"    .     * o = y F '  .y.Y..X3XwXzXmXCXCXk V.CXNXnXnXCXCXCXCXxXcX}.|.:X=X;X#Xa.a.7.7.p.p.a.7.3...z 3 , % . .     X             ",
"      . . X o = y s | X.i.I.!..X3XkXzXCXCXk V.CXMXxXqXxXcXpXxXcX9XM.n.b.%XXXOXp.7.4.3.7.7.T ..c e 1 # % . . X   -               ",
"            X $ y i L $.i.D.Y.!.3X7XzXVXCXCXVXCXMXlX9X#X@X X X`.b.]._.e.j.u..X7. .../ H H C V 9 2 % + . X X   l :               ",
"        X o X o - i l _ %.Z.D.W.oX5XkXMXCXCXVXCXmXlX0X#X#XXX'._..X7.7.4.4.Z.W.@.| ] Q H S B 7 ; % o o o * X * X                 ",
"            X o ; p j ^ +.=.G.R.oX7XkXmXCXCXV.*.mXzX0X3X.X.XT._.t.i.4.i.@.i.^.+.( ] Q Q g i u ; $ . $ y .                       ",
"      :   X   o * u h ~ +.Z.E.R.^.1X8XmXCXCXV.*.MXxXkX3XOX!.U.U.i.6. . .} i.2X+.( Q Q Q h t t * o X * o                         ",
"        X   X o * t s Q } C.C.P.oX1X7XmXVXCXV.V.VXMXlX7XoX!.I.C.@.+.| _ ( #.Q.@.] ( Q Q l a - ; o o X                           ",
"X         .   X : t i Q ) %.Z.F.~.1X7XmXVXCXV.V.VXVXmX7X2XQ.F.C.&.+._ _ _ O.C.Z._ Q ( Q l p y ; u * X         X                 ",
"            X X o - p l ( #.Z.F.Q.2X7XzXVXCXV.y E.VXmXkX1X~.E.S.Z.+.} _ _ +.C.Z._ Q Q Q g i y p * o o         X                 ",
"            . X : - u l ^ #.=.G.Q.2X7XzXVXCX/.k k /.VXkX5X^.R.G.Z.+.+.} _ +.C.Z.} ( Q Q g i t ; o X                             ",
"            X . o ; u l ^ &.C.S.R./.7XzXVXCXCXV.  V.VXzX7X2XQ.P.Z.V.+.+.} &.W.C._ _ } Q l g t - o X X                         X ",
"              X : * t h ~ O.y.E.).2X5XzXVXCXCXV.  Q P.mX0X1X2XC.Z.&.#.#.+.#.C.Q.+.( ^ ~ l g t - o X                             ",
"              o o * t g ~ _ %.A.E.oX5XkXVXCXCXV.    Q MXkX5X2XR.Z.Z.#.#.+.#.C.~._ _ ^ ~ l g p - $ o X                           ",
"              o X : - i Q _ $.Z.P.^.1XkXmXCXCXV.    Q MXkX7X2X).C.C.Z.+.+.+.C.^._ _ ( ~ Q g p - : o X X       o                 ",
"    X         X X : - i Q _ #.Z.P.^.1X0XmXCXCXH.y   g 5XzX7X1XQ.C.C.Z.#.+.V.C.).+._ ( ~ Q g i - : o $                           ",
"              . X o = p D ( O.Z.F.~.2X0XmXCXCXCXV.  : &.mX7X3X^.C.Z.Z.#.#.#.Z.Q.+._ ) ^ ! j i - : o X                         X ",
"                X o * u l ^ +.&.G.Q.2X7XzXVXCXCXV.  g 4XmX0X7X^.W.Z.Z.#.#.#.Z.2XO.} ) ^ k j i y * o o                           ",
"              X X o * u j ^ _ &.G.).2X7XzXVXCXCXV.    D mXkX7XoXR.C.Z.#.+.+.Z.5X+._ _ ~ ! l i y * o o                           ",
"                X X : t g ~ _ &.S.R.^.7XkXVXCXCXCXV.  D mXkX7X2XQ.C.Z.V.#.V.Z.1XO.` _ ^ ~ l g y = o X X X                       "
};
