/* XPM */
static char *result[] = {
/* columns rows colors chars-per-pixel */
"64 64 244 2 ",
"   c #010101",
".  c #0B0504",
"X  c #0A0708",
"o  c #0C0A0A",
"O  c #0C0806",
"+  c #120604",
"@  c #130906",
"#  c #1D0A05",
"$  c #120C0C",
"%  c #1B0D0A",
"&  c #1C0703",
"*  c #19110E",
"=  c #151212",
"-  c #1A1414",
";  c #1E191B",
":  c #1C1818",
">  c #130F11",
",  c #250B04",
"<  c #2A0E05",
"1  c #230E09",
"2  c #270D07",
"3  c #24110C",
"4  c #2C130C",
"5  c #2B1106",
"6  c #32150C",
"7  c #371608",
"8  c #231513",
"9  c #221C1C",
"0  c #2A1915",
"q  c #341B15",
"w  c #3A1E15",
"e  c #2A211F",
"r  c #39221A",
"t  c #241F20",
"y  c #242122",
"u  c #2B2425",
"i  c #2E2A2B",
"p  c #2D2629",
"a  c #3D2A24",
"s  c #322C2D",
"d  c #382825",
"f  c #352F31",
"g  c #3B3334",
"h  c #3F3D3D",
"j  c #3B3438",
"k  c #3F302E",
"l  c #481E13",
"z  c #44190B",
"x  c #482618",
"c  c #572915",
"v  c #56331E",
"b  c #50200E",
"n  c #683418",
"m  c #693215",
"M  c #472D25",
"N  c #49322B",
"B  c #583726",
"V  c #413E3E",
"C  c #483734",
"Z  c #573D36",
"A  c #512E21",
"S  c #663926",
"D  c #723B22",
"F  c #693F34",
"G  c #58423C",
"H  c #514033",
"J  c #7B4323",
"K  c #7A472B",
"L  c #674738",
"P  c #754A36",
"I  c #725036",
"U  c #7D421E",
"Y  c #3F3F40",
"T  c #433E41",
"R  c #493E41",
"E  c #513E40",
"W  c #4A4345",
"Q  c #4D4549",
"!  c #4B4545",
"~  c #534A4D",
"^  c #5B4C4C",
"/  c #594744",
"(  c #5B514F",
")  c #564C51",
"_  c #594E53",
"`  c #5B5155",
"'  c #5E545A",
"]  c #5F5F5F",
"[  c #664B45",
"{  c #6A5249",
"}  c #785748",
"|  c #61565D",
" . c #635A5E",
".. c #695755",
"X. c #765A56",
"o. c #714E41",
"O. c #76615A",
"+. c #7A654E",
"@. c #5F5E60",
"#. c #685D63",
"$. c #6F6E6E",
"%. c #6D6268",
"&. c #736668",
"*. c #786C73",
"=. c #7F7E7E",
"-. c #7D7278",
";. c #895537",
":. c #975A37",
">. c #884E2C",
",. c #9C613B",
"<. c #A86639",
"1. c #875C49",
"2. c #885C4F",
"3. c #986648",
"4. c #8A6556",
"5. c #976857",
"6. c #9A7459",
"7. c #886C4E",
"8. c #A66A47",
"9. c #B7754A",
"0. c #A56C55",
"q. c #B67959",
"w. c #A97251",
"e. c #836A66",
"r. c #8B736D",
"t. c #977569",
"y. c #85777B",
"u. c #977B78",
"i. c #8E6D69",
"p. c #A87867",
"a. c #B77D62",
"s. c #A77A74",
"d. c #C17F51",
"f. c #C27F62",
"g. c #998376",
"h. c #B88469",
"j. c #B1887A",
"k. c #BE855A",
"l. c #C8865A",
"z. c #C78A68",
"x. c #C48C74",
"c. c #C99477",
"v. c #DA9A75",
"b. c #D39169",
"n. c #DAA37A",
"m. c #E4A57A",
"M. c #7F7E80",
"N. c #897C82",
"B. c #8E878A",
"V. c #93858C",
"C. c #998787",
"Z. c #998B92",
"A. c #9F9E9D",
"S. c #9D9198",
"D. c #A38B87",
"F. c #B28C85",
"G. c #A6959B",
"H. c #B49A98",
"J. c #AB948E",
"K. c #BBA396",
"L. c #AA9BA3",
"P. c #AB9DA6",
"I. c #B19DA1",
"U. c #B3A4AC",
"Y. c #B9A4A5",
"T. c #BAABB4",
"R. c #BFBDBD",
"E. c #BDB9B6",
"W. c #ADA0A7",
"Q. c #CA9886",
"!. c #D49E86",
"~. c #C79E97",
"^. c #D49E90",
"/. c #D6A486",
"(. c #DCAA96",
"). c #D3AF94",
"_. c #E1A887",
"`. c #E8B798",
"'. c #E6B190",
"]. c #C8ABA9",
"[. c #D7ACA4",
"{. c #D8B5A9",
"}. c #C3B3BC",
"|. c #CBB5BC",
" X c #D0B4B5",
".X c #E8BEA4",
"XX c #E6B7B0",
"oX c #EEC89B",
"OX c #D7C7BE",
"+X c #E9C6A8",
"@X c #F2C8AB",
"#X c #EAC6B7",
"$X c #F3C7B4",
"%X c #EDD6BA",
"&X c #F4D6BA",
"*X c #F0D6AB",
"=X c #F5EBA7",
"-X c #F5E9B6",
";X c #F8F2BA",
":X c #F6E088",
">X c #CBBBC5",
",X c #D4BEC4",
"<X c #CECCC9",
"1X c #D3C3CB",
"2X c #DCC4C9",
"3X c #DACBD4",
"4X c #D9C9D3",
"5X c #DEDCDC",
"6X c #DCDBD3",
"7X c #E8C8C6",
"8X c #F6D8C6",
"9X c #E3D3DC",
"0X c #ECD9DB",
"qX c #F4DBD7",
"wX c #EACECC",
"eX c #F5EBCC",
"rX c #F6E6C9",
"tX c #FAF6C9",
"yX c #F9F6CA",
"uX c #F8EBD8",
"iX c #F6F3D4",
"pX c #FAF4D5",
"aX c #FCFBD4",
"sX c #FAF4DC",
"dX c #FCFBDC",
"fX c #F7F6DA",
"gX c #EDE9D6",
"hX c #EBDBE4",
"jX c #E9DBE5",
"kX c #F1DEE5",
"lX c #EEE8EA",
"zX c #F2E4EC",
"xX c #F6E7E6",
"cX c #FAF5E3",
"vX c #FDFCE4",
"bX c #FBF4EB",
"nX c #FDFCEC",
"mX c #F6F4E4",
"MX c #FAEDF4",
"NX c #F6EAF2",
"BX c #FBF3F4",
"VX c #FDFCF3",
"CX c #FCF5FA",
"ZX c #FEFCFC",
/* pixels */
"; i V #.&.B.Z.U.1X9XzXZXZXZXZXZXZXZXMXkX2X].~.F.N.p.p.0.q.a.f.Q.[.p.p.5.o.Z C a 8 % 0 ^ M 1 < 7 7 b 4.g.Z 6 # + . . .   X     . ",
": p ..u.*.Z.Z.U.1X9XzXCXZXR.      ZXCXkX7XXX[.^.f.Q.f.f.v.`.8X#XXXc.x.3.} F A a q ( / 8 1 [ [ M x B l A X.3 # .                 ",
"p p &.X.%.V.L.U.}.3XlXBXZXR.      CXZXCXqXXXXX(._.v.!.v.`.mXZXbXcX(.z.w.2.F B M d N 4 3 M M M A A B A Z { 0 # . . .   X         ",
"G s O.Q #.V.G.T.}.4XhXBXZXlXR.    ZX$.Y 1XuXqX8X$X`.`.`.rXVXVXVXZX8Xv.z.0.4.2.B B x 7 6 4 , < x A s.o.A r d d @ .               ",
"= u g ! #.-.V.P.}.4XjXMXZXZXZX  R.H >   s <XnXsXcXBXmXsXVXBXVXfXVXcX'.b.a.0.1.J S S S z 7 7 5 7 z } I 5 6 / ^ O .               ",
"= y s W ] -.N.L.}.1X9XMXZXZXZX  Y     B.E.lXZXnXVXVXVXVXVXVXVXmXnXeXoXm.!.q.<.:.>.J D m m L z c 7 6 w q N 8 0 % = .             ",
": e s W ' *.B.L.T.,XjXNXZXZXZX        R.VXA.R.ZXZXZXZXZXVXVXVXnXVXsX@X_.m.l.d.z.9.:.>.U m K v v 7 7 < 4 4 % + . ^ ` >           ",
"~ r.O.W ` *.N.G.T.,X9XNXZXZXZX      ] =.6XY Y =.}.ZXZXnXvXmXVXVXVXmX&X&X&X`..X8X@Xl.<.<.w.;.K 6.b A 5 M d 0 % @ g s :           ",
"e r.Z T _ *.N.G.T.>X9XzXCXZXZX      ] t ] t Y =.R.ZXVXnXvXvXnXVXVXnXnXvXvXvXfXeXpX&Xm.d.9.9.3.6.1.v B H a r % 8 d 9 e           ",
"3 C f T _ %.N.S.T.>X9XNXCXZXZX        ] =.t =.ZXZXZXVXdXsXpXvXvXVXmXnXsXuXsXvXrXpXpX&Xm.b.b.9.:.>.K v v 5 3 8 . . O s : = > . . ",
"8 e d R ) %.y.S.T.>X9XNXZXZXZX        R.ZXY ] R.5XVXVXvXdXdXnXnXnXdXnXcXdXeXeXsXpXsXcX&X@X'.l.9.:.J n x 6 1 4 C 0 : % 0 : . O . ",
"4 d f R ` $.y.S.T.>X9XzXCXZXZX        B.lXY   t A.ZXVXnXdXfXnXnXnXbXVXVXnXmXvXvXdXnXVXVXVXuX'.l.<.>.J c 7 N X./ N % * 8 % @ @ @ ",
"w d a C ^ &.y.L.T.>X3XzXCXZXZX          B.s   M.ZXVXVXvXsXsXpXnXVXVXnXVXVXmXVXVXnXnXnXZXbXmXrXn.l.<.>.m c 6 q C 1 1 1 , % q % % ",
"B x N H ^ %.y.Z.W.>X2XzXCXZXZX          f Y Y A.ZXVXnXpXpXdXpXnXmXnXVXVXVXmXnXnXnXVXVXVXVXZXnXgX_.k.,.>.m w < 1 1 & & 2 q C 0 a ",
"6.v N G ..%.y.C.I.>X2XkXCXZXZX          R.ZXVXZXZXZXnXpXpXpXrXnXpXnXZXVXfXiXvXnXnXnXVXnXVXnXVXmXrXn.9.:.;.o.Z q 1 1 w C w X.[ q ",
"I v H L { i.N.C.G.}.1XzXCXZXZX          R.VXVX=.  y.VXcXsXvXvXnXnXvXVXVXVXVXnXnXnXVXnXvXnXmXVXmXrX).z.w.4.P Z N 1 2 q Z r.r.r 3 ",
";.+.7.7.+.g.g.K.I.}.,XkXCX}.              R.VXZX=.=.ZXVXVXVXVXnXvXvXnXY E.nXVXnXnX=.h VXnXiXcXVXvX_.9.,.>.c l l 0 , < w J.M , , ",
"I ;.c.g.] +.$.E.I.}.,X0XCXZXZX            R.ZXVXM.  Y ZXVXVXVXnXvXnXVXnXVXnXaXnXnXnXnXaXiXsXcXVXvX`.l.<.>.m A 4 6 q 2 < 4 < , < ",
"S L g.+.{ O.r.g.Y.].,XqXBXZXZX            i A.bX5X] h nXdXnXnXvXvXVX$.OXnXvXaXvXnXnXvXeXiXmXcXvXsX&Xb.<.:.m b 7 2 Z q M 6 < , & ",
"v I v I } &.g.C.Y.].7X0XMXZXZX              =.nXZX6X<XVXvXvXnXvXvXVX<XlXnXvXvXvXdXdXfXvXvXvXdXeX-X&X'.l.:.D D x 2 q 8 E a q , e ",
"x v H L +.t.u.F.~.XXwXqXbXZXZX              =.VXBXVXZXnXvXvXvXvXVXVXVXVXnXvXvXvXvXtX;X<X$.vXpXeXpXrX$X`.x.>.D l < 1 0 8 % + > . ",
"7 x v } 6.g.j.c.(.XX8XxXBXZXZX              t A.VXZXZXnXvXvXvXvXnXY <XVXVXnXnXnXdXtXrXiX<XnXvXvXsXnXsX&X(.8.D b 7 , 3 : $ o . . ",
"4 w B I 7.h.x.!.#XqXuXcXBX9XM.              h R.VXnXnXnXvXdXvXvXvX=.6XVXVXnXVXnXdXaXyXiXnXnXvXnXnXnXcX&X(.0.J c z & & 0 @ .     ",
"7 x v 5.6.h./.+XVXVXVXZXZX5XM.            ] R.VXVXvXnXnXvXdXaXnXnXVXnXVXvXyXvXaXdXvXnXVXVXnXvXnXVXbXuXXX(.0.>.n S q e k %.&.s t ",
"q 7.I 7.h.).+XnXZXBX5XA.ZX5XM.            R.ZXnXnXdXvXnXvXvXvXvXvXVXVXnXnXaXyX=X=XdXiXVXfXnXvXdXdXpXrXrX8X^.3.F c a / % _ ` 9 $ ",
"A I L ;.k./.gXnXVXZX5XA.ZXR.            ] 5XZXvXyXvXdXvXdXnXvXvXvXvXvXvXnXdXdXdXvXfXvXnXVXvXeXmXpXtX+XrX8XXXQ.5.F Z q 0 8 9 .   ",
"7 v I 6.w./.mXVXVXVXZXZXZXR.            R.ZXZXnXtXdXvXtX-X;X;XvXvXvXvXvXvXvXvXdXvXdXvXnXVXmXeXeXuX8X$X&XXX(.a.1.P M 3 C g O   o ",
"7 L I 3.w.c.wXVXBXBXVXZXZXR.            Z.lXVXVXvXvXvXvXdXtXtXvXnXvXdXvXvXvXvXvXyXyXyXpXvXiXfXrXVXfX8X$X(.a.D m l M q t ^ ; $ = ",
"6 I 7.6.8.x./.#XgXmXVXZXZX<XY             R.ZXVXnXvXvXnXvXvXdXnXvXvXdXaXvXvXdXtX;XaXyXaXvXdXiXoXeX8X+Xv.x.8.;.S x N a # 9 s H y ",
"4 N v I 6.h.!./.+X8XbXnXZXZXZX            R.ZXZXVXvXdXnXnXnXvXnXvXdXaXaXaX=X;XaXdXaXaXdXcXeXeXiXrX%X`.k.,.U D b L r C . C ; = y ",
"# 6 r I +.6.Q.x.(.$XqXcXZXZXZX            R.VXVXVXvXvXnXnXnXnXvXaXaXaXaX;X:X=XtXaXaXaXdXdXvXpXsXvX&Xn.k.8.D n S M & # + p H X : ",
"@ # r r.I } t.j.^.+X&XBXR.T ZXZX            M.ZXnXaX;XvXvXvXdXdXaXaXaXaXaXaXaXtXyXaXdXaXdXcXrXiX&X`.v.k.:.D n l q & % u : V O X ",
"+ % 3 G G [ X.t.~..X7XMXZXZXZXZX              =.VXaX;XvXdXaXaXdXdXtX;XdXvXdXdXaXyXdXaXtX;XvXnXmXeX8X%X`.8.:.D z 4 1 % % p 9 9 g ",
"+ 8 r C M G X.t.j.[.&XuXZXZXZXZX              =.nXvXnXvXvXdXdXaXvXtX;XdXvXvXdXaXaXaXdXdXdXnXnXeXnXvX8X8X!.D c z x w & 8 % % . O ",
". d d a M C [ i.g.{.#XqXbXZXZXZX              =.nXvXvXdXdXdXdXdXdXvXdXdXvXdXaXaXaXaXdXvXvXvXfXcXnXrX8X$X^.>.m A M M % % * u $ . ",
"$ O.r Z [ C / +.r.{.{.8XuXZXZXZX              ; A.nXvXdXdXaXaXaXdXvXvXvXvXdXtX=XtXiXdXdXaXsXeX-XuXsX8X$Xf.D m F B , # % e G u = ",
"a ^ a G N / ....r.J.[.7XqXBXZXZXR.              g.nXvXvXvXdXdXvXvXnXnXnXnXnXpX-XvXvXdXpXdXcXvXsXuXVXuXXXq.:.>.o.x N 8 % % e p . ",
"k d d e g G e...u.D.H.{.qXxXVXZXZX          ] R.5XvXvXnXnXvXvXnXmXvXnXVXnXvXdXiXdXnXnXnXnXiXsXsXnXnXuX'.,.>.m x M C e 0 O o @ . ",
"d O @ e d k / ..y.u.H.XXwXuXVXZXZX          Y R.VXvXdXvXvXaXvXnXnXvXnXVXnXrXyXnXVXnXnXVXnXmXmXmXnXsXrXc.:.>.m B q 3 k g : . . . ",
"- . . O - p N ..&.C.J.].7XbXZXZXZX            =.ZXVXVXZXaXyXnXVXVXvXVXnXnXnXnXmXE.E.VXVXcXbXnXbXcX8X$Xc.>.n b 6 # @ k ( . . + + ",
"-   X X = e f ( &.D.H.].#XZXZXZXZXM.t         h R.ZXZXVXsXiXfXvXVXnXVXVXVXVXbXnXE.E.VXsXoXmXbXsX@X+X`.h.U c z , % = ` h . + + Z ",
"e y i o = y s H ..C.J.H.XXbXZXZXZX=.t         Y R.ZXZXVXZXVXVXVXnXnXVXnXnXVXnXnXfXsX&X&XoXnXmX/.z.k.h.3.m z 5 + O X     . . @ % ",
"i - o > = 9 i Y ` D.J.K. XmXZXZXZX            =.ZXVXVXVXVXVXnXmXiXvXvXvXvXvXvXsXrX&X`.%XqXuX+Xl.9.8.p.1.v 7 # O .     .   + @ & ",
"y     X o ; p Y _ y.C.H.].qXlXZXZXY >         =.bXiXVXlX<XVXBXnX-XeXmXvXaXdXsXrX$Xv.b.`.8X/.z.w.:.3.5.L 7 Z # .         .   . @ ",
"X     X o ; u g ~ %.y.D.].2XqXMXZXZX$.>   i h A.bXuXBX>XY VXBXnX*XoX-XyXeXeX8X$X(.z.q.f.^.h.a.:.K S L x N N . .           . . . ",
"X     X o y y f Q X.e.C.H. X3XxXCXZXZX$.o <XZXBXMXuXnX1X$.ZXZXmXuXoX`.&X$X&XwXQ.a.5.5.j.0.p.5.6.4.x w 1 0 @                 .   ",
"        X = e s W  .C.C.G.|.2X0XNXZXZXZXY R.ZXNXxXqXqXcXbXmXBXmXuX/.v./.$X).7Xs.5.2.2.t.t.4.2.S x 6 1 @ .   .               .   ",
"    .   X = ; i R ` y.C.G.T.|.3XNXZXZXZXY R.CXBXzX8XXXXX.X_.(.`.c.+XQ.h.Q.s.Y.u.X.X.[ [ Z N M r 6 1 @ . o     = V               ",
"      X > > : p h ) #.V.Z.U.>X1XhXCXCXZXT R.CXBXzXwX X{.[.^.^.a.[.i.5.5.2.i.L.N..._ _ E C M u 8 * @ o . X   o u                 ",
"      . X X = p j Q | y.V.I.}.1XhXMXZXZXT R.CXMXzX3X,X].~.F.F.F.i.2.2.e.X.O.S.y.` _ E R j f d t = O X ; : . X                   ",
"    X = X X = y j Q ' *.V.P.}.,XjXNXZXZXY R.CXCXkX9X,XY.~.J.F.N.2.X...X.' #.L.-._ ^ E R j d p ; = X o ;                         ",
"      X X X > 9 f R ` $.N.U.T.,X9XMXCXZX<X@.A.CXNXjX,X].Y.F.N.e...^ [ ^ _ ..G.V._ ) R R T p y ; o X X .                         ",
"      . . X > ; i Y ~ %.N.S.U.>X3XNXCXCXZX<X5XCXMXzX4XT.L.V.N.#..._ _ E ) #.V.S._ ~ R R j p t ; = : X                           ",
"          X > ; i h ~ %.N.S.P.>X3XzXCXZXZX$.A.CXCXjX4X>XP.V.N.&.' E _ _ ) ' N.Z.' ~ Q T j i y t p = X X                         ",
"          X X : p h Q #.-.Z.L.T.4XjXBXZXZXT h R.CXzX9X>XU.Z.N.*.| _ ~ E ) ' -.V.' ) Q R j p t p > o                             ",
"        X X X : y j Q | -.V.L.}.4XjXMXZXZXY   M.CXNXjX>XT.L.N.-.#.' _ _ ) ' M.V._ ) Q R j f y ; o   X                           ",
"        X X X = u j W ' *.S.U.}.1XjXNXZXZXY   M.CXMXkX4X}.P.N.N.%.| _ E ' ' N.L.' ) Q R j f t ; $ X .                           ",
"            X : t s T ` %.B.G.}.1X9XNXCXZXY   Y >XMXNX9X>XT.P.N.*.#.' _ _ ' M.T.' ) Q R j f p ; > X                             ",
"          X X > ; i T _ %.N.Z.U.>XjXzXCXZXT     | 5XMX9X1XT.P.N.*.#.| ' _ ' *.}.' ' ) R Y f p ; >                               ",
"            X X ; p j ) %.N.Z.U.>X9XzXCXZX$.t     M.MXjX4XT.T.N.M.#.| ' ' ' *.T.@.) ) Q j f p ; =                               ",
"          . X X = p j Q #.-.B.U.>X3XjXCXZXZXM.    @.<XNX4X>XU.P.N.#.#.| ' | M.P.#.' ) R T f i 9 = X .                           ",
"          . X X = p f Q #.-.B.P.>X3XzXCXZXZXM.      Y NX9X>XT.N.N.M.#.#.' ' M.U.#.' ) Q T j i 9 = o X                           ",
"            X X = p f Q @.*.V.L.T.3XkXCXZXZXM.      Y MXjX>X}.P.N.M.%.| ' | #.U.#.' _ Q T j i t : X X                           ",
"            X X > t f T | *.N.L.>X3XjXMXZXZXM.      Y CXjX,X}.N.N.M.#.#.| | *.T.$.' _ ) R V f y = > X X                         "
};
