/* XPM */
static char *result[] = {
/* columns rows colors chars-per-pixel */
"64 64 205 2 ",
"   c #010101",
".  c #0B0504",
"X  c #0C0807",
"o  c #0B0708",
"O  c #0A0909",
"+  c #120604",
"@  c #150905",
"#  c #1B0B05",
"$  c #120C0B",
"%  c #1C0D09",
"&  c #1A0707",
"*  c #1D110D",
"=  c #1D1411",
"-  c #161515",
";  c #220F06",
":  c #220E0A",
">  c #2B0F0A",
",  c #2C1307",
"<  c #25130B",
"1  c #2A140B",
"2  c #2C1806",
"3  c #311507",
"4  c #32150B",
"5  c #341B0C",
"6  c #3B1C0B",
"7  c #2D1612",
"8  c #2D1913",
"9  c #261610",
"0  c #321C14",
"q  c #3A1E10",
"w  c #3E220D",
"e  c #362016",
"r  c #3B2215",
"t  c #372118",
"y  c #392119",
"u  c #401F0A",
"i  c #44250C",
"p  c #4A270D",
"a  c #46280B",
"s  c #4B290D",
"d  c #512D0D",
"f  c #552B0E",
"g  c #54320E",
"h  c #5C340F",
"j  c #5E380F",
"k  c #452711",
"l  c #482710",
"z  c #472A11",
"x  c #4D2B12",
"c  c #46291B",
"v  c #522F11",
"b  c #502F19",
"n  c #5A2F12",
"m  c #4D301A",
"M  c #543211",
"N  c #5B3512",
"B  c #5C3814",
"V  c #53351D",
"C  c #55391D",
"Z  c #5C3A1C",
"A  c #603C0E",
"S  c #623B14",
"D  c #653E1B",
"F  c #653B14",
"G  c #4C3121",
"H  c #563523",
"J  c #65440F",
"K  c #654115",
"L  c #6B4215",
"P  c #6C431A",
"I  c #6A4518",
"U  c #704416",
"Y  c #734B16",
"T  c #714619",
"R  c #754C1B",
"E  c #7B4E1C",
"W  c #7A4917",
"Q  c #7D511C",
"!  c #795214",
"~  c #6C4321",
"^  c #674429",
"/  c #734A25",
"(  c #7F4D24",
")  c #754C2B",
"_  c #7A4F2A",
"`  c #704623",
"'  c #7C5127",
"]  c #83551E",
"[  c #86591F",
"{  c #8B5E1D",
"}  c #835521",
"|  c #865A22",
" . c #8B5D21",
".. c #87582F",
"X. c #8B5A28",
"o. c #925F28",
"O. c #805630",
"+. c #895C34",
"@. c #8E6123",
"#. c #936325",
"$. c #996726",
"%. c #9B6926",
"&. c #94642B",
"*. c #9D662B",
"=. c #9C6B2B",
"-. c #9A6735",
";. c #9E6936",
":. c #9D6C3B",
">. c #966336",
",. c #9E723C",
"<. c #A46D2C",
"1. c #A16B26",
"2. c #A4722B",
"3. c #AA752C",
"4. c #AE7A2C",
"5. c #A27025",
"6. c #B37D2F",
"7. c #A26E37",
"8. c #A26C39",
"9. c #A57133",
"0. c #AC7731",
"q. c #AE7830",
"w. c #A8733D",
"e. c #B37D33",
"r. c #B17B3C",
"t. c #A46B40",
"y. c #B77E40",
"u. c #B6812F",
"i. c #B58232",
"p. c #BB8435",
"a. c #BC8937",
"s. c #BB833B",
"d. c #BF8939",
"f. c #C18C35",
"g. c #C38C3C",
"h. c #C6903C",
"j. c #CA933E",
"k. c #D19C3F",
"l. c #BB8342",
"z. c #C78D44",
"x. c #C48C4B",
"c. c #C98E4B",
"v. c #C88D43",
"b. c #CC9442",
"n. c #CE9A43",
"m. c #CB9348",
"M. c #D39D42",
"N. c #D49C49",
"B. c #DA9E4D",
"V. c #CD9253",
"C. c #D5A24B",
"Z. c #DBA54B",
"A. c #DAAA4F",
"S. c #CBA254",
"D. c #DDAA56",
"F. c #D7A059",
"G. c #DBA45D",
"H. c #D7A95A",
"J. c #DCAD5C",
"K. c #D6A353",
"L. c #E3AB59",
"P. c #E2B45C",
"I. c #E1B057",
"U. c #D9AC64",
"Y. c #DCB264",
"T. c #DCB87B",
"R. c #E5B766",
"E. c #E1B96B",
"W. c #E8B36C",
"Q. c #E3BE73",
"!. c #E5B67A",
"~. c #EBBD77",
"^. c #EDC274",
"/. c #E7BE83",
"(. c #E5C384",
"). c #EAC482",
"_. c #EBCC8B",
"`. c #ECCB87",
"'. c #EACD94",
"]. c #EFD39A",
"[. c #EFD89C",
"{. c #F0D89E",
"}. c #EEDAA5",
"|. c #F1D6A2",
" X c #F3DDA6",
".X c #F4D3AD",
"XX c #F5DEA9",
"oX c #F3E0AC",
"OX c #F4E3B6",
"+X c #F8E9BE",
"@X c #F5E6C3",
"#X c #F7E9C2",
"$X c #FAEDCC",
"%X c #F9EEC6",
"&X c #FCFCC6",
"*X c #FAF0CE",
"=X c #FCFCCB",
"-X c #F9F1C7",
";X c #FAEFD3",
":X c #FAF3D5",
">X c #FDFDD4",
",X c #FBF5DC",
"<X c #FDFDDC",
"1X c #FDFDE4",
"2X c #FDFDEB",
/* pixels */
"  O                                                                                                   O                 O   O   ",
"                                    o                                                                                   O       ",
"                                                                                                                                ",
"                                                                                                                                ",
"                                                              . o                                                             O ",
"                                                O   .     o                                                               o     ",
"                                              o -       o o $ o .     o                                                         ",
"                                              . o o o o o X X $ o O   o . O O                                                   ",
"                                        .     o o O = = * * * * * @ $ + .   X .                                                 ",
"                            O O           . O + % 9 8 0 y y y y e 0 9 < % & @ + . . .                                 O O       ",
"                                  .   . . @ % < 0 r c c G G H H V x z i 5 4 , ; @ . . .                                         ",
"                                    . . % < 5 k V H ^ ^ ) ) _ ) / ` ~ D B M p 6 6 ; # + . .                                     ",
"                                . . + % 5 k m D / O.+.>.:.t.t.8.8.>.>.X.} ` T D d i 6 > @ . .                                   ",
"                                . & , 6 x I / ..-.w.y.l.x.c.c.V.c.g.s.r.9.=.$.[ Y J h i 2 # + .                                 ",
"                            . . & 3 6 g I ' &.8.y.z.c.F.F.G.!..X!.B.N.b.g.e.e.3.#.] Y N i 3 % . .                               ",
"                          . . # 0 a N Y [ 2.e.g.B.L.(.$X@X@X1X2X1X.X~.W.R.D.N.j.e.2.@.! S p 5 & X .       o       O           O ",
"                        . . + 3 a F ! #.3.a.N.R.OX,X2X2X2X2X1X1X2X1X2X2X2X1X@X_.N.g.e.$.Q F x 4 @ . .                 O         ",
"                        . & , i S ( &.4.h.A._.1X2X2X2X2X2X2X1X1X<X1X2X2X2X2X2X2X[.A.b.i.&.Q F i 1 . .           O               ",
"                      . + : 6 Z R &.3.h.A.^.$X2X2X2X2X1X2X2X1X<X<X<X<X1X2X2X2X2X<XoXE.b.4.[ Y g w # . .                         ",
"                      . & 5 a J  .3.f.E.#X,X1X2X1X2X1X1X1X1X<X>X=X>X<X>X<X1X1X2X1X2X*XJ.g.2.| L w , + O                         ",
"                      . # 6 g Y =.d.H.$X1X<X<X<X>X1X1X<X<X<X&X&X&X=X>X>X>X<X1X<X<X1X2X}.C.i.%.! g 5 ; . .                       ",
"                      . 1 i S | 3.n.'.1X<X>X>X=X>X<X<X<X<X>X&X&X&X&X=X&X=X>X<X>X1X1X2X<X^.h.e.@.J a 2 + .                       ",
"                      . < p A #.6.H.@X1X>X>X<X=X>X1X<X<X<X>X&X&X&X=X&X&X=X>X>X>X<X1X1X2XoXC.a.$.Y v 5 @                         ",
"                    . + < s K #.6.Q.:X<X=X>X<X>X<X1X<X<X<X<X=X=X=X=X&X&X&X&X=X=X<X<X1X2X1X(.h.2.! M 6 # .                       ",
"  O                   + < p I  .i.Z.XX1X>X<X1X1X<X<X<X<X<X<X>X=X>X>X=X=X&X&X&X&X>X<X<X1X1X'.n.3.Q h w ; . .                     ",
"                      + < i S [ 6.k.Q.1X1X1X<X>X>X=X>X>X<X<X>X=X>X<X<X=X=X=X=X&X=X<X<X<X2X_.M.4.| j a < .                       ",
"                      + < i j [ 3.k.P.:X2X<X>X=X=X=X>X>X>X<X>X&X=X<X>X=X=X=X&X&X=X1X1X<X1X].n.4.] N i % .   O                   ",
"                    . . # u j ] 3.n.I.$X2X<X=X>X=X=X>X>X>X<X>X=X=X=X>X>X=X&X=X>X>X<X<X1X1X_.h.2.] N w # o                       ",
"                      . # 6 f E <.j.I.:X1X<X>X>X=X&X=X=X>X>X<X&X&X&X=X=X&X=X=X<X<X<X<X1X-XD.f.<.R M 6 @   .                     ",
"                        @ 6 f R %.h.Y.,X2X1X<X>X>X&X=X=X>X>X<X=X&X&X&X&X&X=X>X>X>X<X1X<X`.k.p.$.I s 5 @ O                     O ",
"                      . + 4 s R $.a.J.,X2X1X1X<X>X=X=X=X=X>X>X=X&X&X&X&X&X=X>X>X<X<X1X*XP.n.6. .F k 1 O .                     O ",
"                        + , i K @.i.n.].1X1X>X>X>X>X=X=X>X>X>X&X&X=X>X=X&X=X>X>X<X<X1X:XP.h.e.| F q < . .                       ",
"                        . ; 6 S } 3.f.J.:X1X<X=X>X=X=X=X=X>X<X&X&X=X<X<X=X=X<X>X>X<X<X1XR.g.<.] n 5 % . .                   O   ",
"                      . . & 2 s R =.i.C.|.2X>X&X&X>X>X>X>X>X>X&X&X&X=X=X=X<X<X<X1X1X1X1XY.i.<.W f 1 & .                         ",
"                          + , i I @.3.b.Q.2X<X=X=X<X<X<X<X>X>X&X=X=X=X=X<X<X<X1X1X2X2X;XS.q.o.D a > +   o                       ",
"                          + @ 6 N Q $.p.H.;X1X<X>X1X1X2X1X<X<X>X>X1X1X1X2X2X1X2X+XXXOXT.p.$.} B 6 # + .                         ",
"                          . + , a I [ 3.h.(.:X1X1X1X2X2X1X2X2X2X2X2X2X2X2X2X2X2X{.Z.N.a.5.[ I s 6 + O                           ",
"                          . . # e g T #.4.j.U.}.@X1X2X1XXX-X;X$X;X.XOX+X X).(.(.K.f.6.%.[ U N w ; + .                           ",
"                            . + 1 a S Q $.e.g.k.D./.|.'.L.~.W.W.~.L.D.D.Z.N.N.g.e.3.#.[ L j p 7 @ . .                           ",
"                          O $ . # 5 p A ! @.2.e.a.g.g.z.b.b.b.v.v.h.g.g.s.e.q.2.$.[ R F d 6 2 @ . .                             ",
"                              . X < , i B T Q [ =.<.<.7.7.7.7.,.8.;.;.-.>.o.| ( P S d p 0 ; & X O         O         O           ",
"                              . . . & 7 r v N P T E ( } ( ( _ _ _ ) / ` ~ D S n f u 0 > : + . .                             O   ",
"                                . . + & , e i x M N N Z Z H H Z Z C V V m z a w 5 , : & X .       O       O                     ",
"                                    . . X * * 1 5 q q r q q k y e 0 0 8 8 1 < # & + . . O                                       ",
"                                    .   . . . + + % % % % < = * = * % $ $ X X o . .   .                                         ",
"                                              o . . $ O O o . O O O o o o o O O                                   O             ",
"                                              o . o o O o   .   .   . O . O .                         o                         ",
"                                                          o o . .         O                                                     ",
"                                                                                                                                ",
"                                                                                                                                ",
"                                                                                                                                ",
"                                                                                              O                                 ",
"                                                                                                              O                 ",
"                                                                                                              O                 ",
"                                                                                                                                ",
"                                                                                                                                ",
"                O                                                                                                               ",
"                                                                                                                                ",
"                                                                                                                                ",
"                                                                                                O                               ",
"                                                                                                                                ",
"                                                                                                                                ",
"                                                                                                                                ",
"                                                                                          O O                                   "
};
