/* XPM */
static char *result[] = {
/* columns rows colors chars-per-pixel */
"64 64 250 2 ",
"   c #010101",
".  c #0A0504",
"X  c #0C0807",
"o  c #0A0708",
"O  c #0C0A0A",
"+  c #070508",
"@  c #120504",
"#  c #1B0A06",
"$  c #130C0C",
"%  c #1B0D0A",
"&  c #150905",
"*  c #18100E",
"=  c #151112",
"-  c #1B1414",
";  c #1E191A",
":  c #1C1718",
">  c #120F10",
",  c #220B05",
"<  c #260D07",
"1  c #23110E",
"2  c #2B120C",
"3  c #2F180E",
"4  c #37160B",
"5  c #241614",
"6  c #2B1511",
"7  c #241916",
"8  c #231C1B",
"9  c #2B1D1B",
"0  c #2B1C17",
"q  c #361C15",
"w  c #300F09",
"e  c #2E211E",
"r  c #38221C",
"t  c #231F21",
"y  c #242121",
"u  c #2B2425",
"i  c #2E292B",
"p  c #2C2728",
"a  c #332523",
"s  c #322C2D",
"d  c #3A2A26",
"f  c #3D322E",
"g  c #342F31",
"h  c #382E30",
"j  c #3B3335",
"k  c #3C3639",
"l  c #3F3D3D",
"z  c #363133",
"x  c #441A0A",
"c  c #471F12",
"v  c #5B280F",
"b  c #47271B",
"n  c #582A16",
"m  c #57351D",
"M  c #632E14",
"N  c #6A361A",
"B  c #763C1D",
"V  c #462C26",
"C  c #4A322B",
"Z  c #573527",
"A  c #413D3D",
"S  c #4C3D3B",
"D  c #483835",
"F  c #573D35",
"G  c #562D22",
"H  c #663A27",
"J  c #6B3D2A",
"K  c #3F403E",
"L  c #59423A",
"P  c #4E413E",
"I  c #7C4325",
"U  c #79452B",
"Y  c #684838",
"T  c #7B4A36",
"R  c #6E503B",
"E  c #3F3F40",
"W  c #433E40",
"Q  c #4B3E41",
"!  c #4B4245",
"~  c #4E4649",
"^  c #4B4547",
"/  c #534545",
"(  c #524A4D",
")  c #57484A",
"_  c #564D51",
"`  c #594E54",
"'  c #5B5055",
"]  c #5E5359",
"[  c #5F5F5F",
"{  c #575053",
"}  c #5F504D",
"|  c #684D48",
" . c #68534C",
".. c #775546",
"X. c #625354",
"o. c #63595E",
"O. c #675859",
"+. c #735A56",
"@. c #724D44",
"#. c #7C645C",
"$. c #6A5E64",
"%. c #665B61",
"&. c #6D6669",
"*. c #71666C",
"=. c #78696A",
"-. c #776B72",
";. c #7F7E7D",
":. c #7E7376",
">. c #7A766D",
",. c #82492C",
"<. c #8A5438",
"1. c #965938",
"2. c #8D5230",
"3. c #A5653B",
"4. c #9C603B",
"5. c #865A47",
"6. c #8B5C51",
"7. c #97654B",
"8. c #896456",
"9. c #966958",
"0. c #896148",
"q. c #A36647",
"w. c #B7754C",
"e. c #A97357",
"r. c #B8795A",
"t. c #A66C51",
"y. c #856A67",
"u. c #967567",
"i. c #837A7E",
"p. c #857578",
"a. c #997C7A",
"s. c #8E7268",
"d. c #A77968",
"f. c #B27B68",
"g. c #7F8079",
"h. c #958372",
"j. c #BA8269",
"k. c #B6887A",
"l. c #B08975",
"z. c #BE8156",
"x. c #C7845C",
"c. c #C78868",
"v. c #CA947B",
"b. c #D2936F",
"n. c #E19D77",
"m. c #E1A17D",
"M. c #7F7E80",
"N. c #8A7D84",
"B. c #847D81",
"V. c #937E80",
"C. c #8F8E8E",
"Z. c #8E8187",
"A. c #93858B",
"S. c #988688",
"D. c #9A8C93",
"F. c #9F9E9B",
"G. c #9E9297",
"H. c #A3949C",
"J. c #AA979A",
"K. c #B89B97",
"L. c #AE8C88",
"P. c #AB9CA4",
"I. c #A89BA2",
"U. c #B59FA4",
"Y. c #AFA1A8",
"T. c #B2A3AC",
"R. c #B9A5A7",
"E. c #BBACB5",
"W. c #B7A8B1",
"Q. c #BEBEB4",
"!. c #BFBDBD",
"~. c #BFB1BA",
"^. c #BDBCAD",
"/. c #AEA098",
"(. c #C89785",
"). c #CF9D8C",
"_. c #DAA587",
"`. c #D9A896",
"'. c #CCA694",
"]. c #E5AB88",
"[. c #E7B79A",
"{. c #E5B394",
"}. c #C4ACAC",
"|. c #C2B3BC",
" X c #C6B2B4",
".X c #D0B2B1",
"XX c #E7B8A9",
"oX c #E5BAB5",
"OX c #EFCC99",
"+X c #D0C7BD",
"@X c #EAC4A7",
"#X c #EBC7B6",
"$X c #F4C9B7",
"%X c #F4D6BB",
"&X c #F1CDAC",
"*X c #F4ECA8",
"=X c #F5EAB5",
"-X c #F4F6BF",
";X c #F2E494",
":X c #CBBBC5",
">X c #C7B8C2",
",X c #D6BEC3",
"<X c #CECDCB",
"1X c #CDCCC4",
"2X c #D2C2CB",
"3X c #DBC4C8",
"4X c #DBCBD4",
"5X c #D8C9D3",
"6X c #DEDCDC",
"7X c #DDDCD5",
"8X c #DEDDCB",
"9X c #E6C8C7",
"0X c #F6CEC6",
"qX c #F7D9C6",
"wX c #E3D3DC",
"eX c #EAD7DD",
"rX c #F4DBD9",
"tX c #EAD1CB",
"yX c #F9E4CD",
"uX c #F5EBCC",
"iX c #F6E6CA",
"pX c #FAF6CD",
"aX c #F9F6C9",
"sX c #F5EBD3",
"dX c #FAEDD3",
"fX c #F8E8D9",
"gX c #FAF5D4",
"hX c #FCFAD4",
"jX c #F6F2DC",
"kX c #FAF5DC",
"lX c #FCFBDC",
"zX c #F6F3D3",
"xX c #ECE9DB",
"cX c #EBDBE4",
"vX c #E8DAE3",
"bX c #F0D9E1",
"nX c #EEE9E8",
"mX c #F2E4EC",
"MX c #F9EAE9",
"NX c #FBF5E3",
"BX c #FDFBE4",
"VX c #FBF5EB",
"CX c #FDFCEC",
"ZX c #F7F3E3",
"AX c #F6EBF1",
"SX c #F9EDF3",
"DX c #FAF2F5",
"FX c #FDFCF3",
"GX c #FDF5FA",
"HX c #FEFBFB",
/* pixels */
"s Q =.p.N.G.T.2XwXSXGXHXHXHXHXHXHXGXmX9X.XU.L.V.f.d.d.e.r.c.b.v.XXf.d.6.@.F D a 7 % 0 X.a 5 & @ . @ a p.~ y .     .   + .   .   ",
"d S S.*.A.I.Y.>X4XAXGX!.        HXDXAXrXoX.X`.(.c.c.c.b.m.#XnXtX$X(.v.9.5.F D d 9 / P 1 # F } D # D 5 % X.5 .                   ",
"D ' a.O.B.T.E.|.5XmXGXAXC.      HXDXDXSX0XXX`.`.n.n.b.n.@X+XK HXVXXXb.e.6.Y F G V V 2 < C d q C 2 d d a O.5 $ . . .         +   ",
"C O.+.o.:.P.T.|.5XcXGXHX!.      HXHX-.<XDXfX0X$X$XXX[.XXsXnXQ.FXHXqXm.j.e.7.5.Z G b q 4 2 , , 2 r s.+.r e 7 j % .   .           ",
"a A ~ o.:.A.I.E.5XcXDXHX!.      GXE > !.HXFXNXjXNXDXVXNXFXCXFXsXFXMX].c.f.7.<.J N H H c 4 4 3 , 3 V | 1 1 f / 8 . .           . ",
"a j ^ ] :.A.I.~.:XvXSXHX!.      HX    !.FXHXFXCXFXFXFX1XE l l VXCXfXOXn.m.r.q.q.2.,.B M v Y c 4 3 , 2 2 d 5 @ 8 $ = o           ",
"e D ! ] -.A.I.E.2XvXAXGX!.      HXM.t Q.VXHXHXFXHXFXHX7X;.;.;.VXFXVX&X].m.x.r.v.r.2.2.I B T L v 4 2 # # 6 1 & @ f -.s         + ",
"s.p.O.` *.N.H.W.:XvXAXHX!.      M.HXF.;.;.;.M.g.|.FXFXFXBXBXCXFXCXVX=XqX%XXX&XqX%Xb.3.4.z.<.U l.Z m w V C d # & f ; 7           ",
")  .Q ` *.N.G.W.:XvXAXGX>X        ;.M.;.;.;.E K !.FXFXCXBXCXCXFXHXCXCXNXkXlXlXuXdXqX].x.w.w.3.r.8.Z Z C r a 7 % e O p .     .   ",
"0 Q A _ *.N.D.W.>XwXAXHX!.          [ 6XHXF.E M.HXHXFXkXkXgXCXCXFXjXCXdXiXkXBXiXgXgX=X].b.b.w.3.T I Z Z 4 < 1 . . . ; e : - O X ",
"9 h A _ *.N.D.T.:X4XAXGX!.          !.HXHXE y F.HXHXFXBXlXkXCXFXFXVXCXCXBXzXuXkXkXkXVXyX%X[.b.w.4.I N n 4 , < u P e O * u X O . ",
"e j S _ *.N.D.Y.:X6XSXGX!.          !.<XnXE M.HXHXFXFXBXBXkXVXCXQ.VXFX1XxXZXZXBXkXVXFXHXFXNX[.c.3.2.,.v 4 r +.S P * * - - O $ $ ",
"r f D ( &.p.D.|.:XwXmXGX<Xg         C.i C.g g.HXHXHXFXgXgXBXkXCXK FXFX&.1XZXCXBXBXCXFXFXFXVXsX{.x.3.2.N n 4 6 5 a & $ $ @ e - $ ",
"Z C D _ $.i.A.Y.|.4XcXDXHX!.            g E F.HXHXFXCXdXdXkXNXBXBXFX+XnXFXZXBXCXCXHXFXFXFXFXFXZXOXx.3.,.m x w & & . . % @ D f e ",
"Y C F  .+.p.A.P.|.4XcXDXHX!.            !.HXHXHXHXFXNXdXdXzXuXCXjXFXl !.BXzXBXCXFXFXFXkXFXVXFXVX=X_.w.1.5.Y L 5 % - - P 7 L O.u ",
"Y Z L  .&.i.J.J.|.3XcXDX!.              !.FXFXg.i.HXCXkXkXCXCXFXCXBXFXFXHXCXCXCXFXFXFXBXFXCXFXVXuX{.c.t.<.Y Z V 7 * % f O./.a e ",
"0...h...g.L.G.+X|.,XvXSX!.                !.FXHXM.g.HX!.K FXFXCXZXCXCXK Q.FXFXh.g.CXFXFXFXsXjXFXVX].w.1.,.M x w a @ @ $ a.} @ . ",
"8...'.#.#.g.h.^.|.,XwXAX!.                !.FXFXg.  E HXFXQ.  CXBXFXFXFXFXCXBXCXCXg.l BXZXjXVXCXBXXXx.3.5.M G w # 9 & @ $ . .   ",
"R R h. .+.p.h.J.}.,XeXSXnXC.              i F.DX6X[ K ZXkXxXQ.CXCXFXFXFXFXCXlXCXCX8X+XaXzXNXjXBXkX$Xb.3.1.N G w , S 5 t 8 . . . ",
"m L L R #.s.S.K..X,XrXSXGX>X              C.7XFXHX7X<XFXCXBXCXCXCXCXCXFXCXCXBXCXBXCXgXCXgXkXlXdXqX=X[.x.q.B B c , 6 5 t / $ O 8 ",
"V Z F @.s.a.L.'..X9XrXMXHX!.              i F.CXFXF.&.CXBXBXBXCXFXFXFXFXFXCXBXBXBXhX-XCXFXZXuXuXdXyX$X[.v.<.,.n w % 6 * - . . $ ",
"q b Y y.u.k.L.'.oX0XrXDXHX!.                y F.FX7X<XCXBXBXCXCXFXFXHX&.1XFXCXBXzXpXaXCXFXBXBXlXdXkXNX%X`.q.J v w , & - $ O     ",
"3 b | 8.d.(.(.`.qXMXVXDX7X[                   ;.FXFXFXBXkXBXBXCXCXFXCXF.7XCXFXBXkXhXuXuXBXCXBXBXCXCXFX0X[.e.J n x , @ - - .     ",
"3 V J u.d.v.XX0XFXHX6XF.!.            [ ;.;.;.Q.CXCXZXCXBXBXlXBXCXCXCXFXCXhXlXlXlXCXFXFXCXCXBXCXCXCXsX@X[.f.,.,.G q e 5 ] o.z - ",
"C @.R 9.k.[.tXFXHXHX!.; [             [ 6XF.!.BXBXjXBXCXCX8X>.BXCXCXCXCXCXhXhX*X;XBXkXFXZXBXBXBXlXkXyXyX0X`.e.J H q D 9 D :.7 > ",
"L U R 7.j.@XCXFXFXHX6X[                 !.F.!.kXaXBXlXBXBX8Xh.BXCXBXBXBXBXhXlXlXhXCXCXFXFXFXkXjXkXpX@X%XrX$X`.d.G Y q 5 t p >   ",
"b R 0.t.f.@XHXFXHXHXHX!.                !.HXFXBX-XlXlX=X=XaXaXCXCXBXBXBXBXCXCXBXCXkXBXCXFXVXuXzXdX%X@X&XoXXX(.T @.F 6 s S $   O ",
"4 L ..7.r._.rXHXFXFXHX!.                1XHXFXCXhXBXBXhXhXpXpXCXCXBXBXBXBXBXBXBXhXpXhXhXBXkXjXuXCXZX0XoX`.c.,.n b q d 1 ( y . ; ",
"q R 9.e.e.(.`.tXnXFXHX<Xl s             C.nXFXFXFXBXBXCXBXBXlXCXCXBXlXhXlXBXlXpX*XhXaXpXkXZXlX&XfXsX$X_.j.7.2.J 4 V d $ : 8 l $ ",
"e Z L 0.h.k._.{.$XfXFXFXnXC.              !.FXHXCXlXlXCXCXCXBXCXBXlXlXhXhXaX-XhXhXlXhXlXBXuXiXiX%X%X{.j.4.,.N n V r f . u u = - ",
"1 3 C +.9.j.'.'.@XqXMXHX!.                !.FXFXFXBXlXBXCXCXCXBXlXhXhXaX-X;X*XpXlXhXhXhXBXCXBXjXlXqX_.b.t.B M J V 9 % . ; ^ = O ",
"& 3  .s. .s.l.L.XX0XfXDX!.                !.HXFXBXhXhXBXCXlXBXBXaXhXlXhXhXhXpXaXhXhXlXkXkXBXiXuX%X@X_.z.1.B B b w % $ e - } X o ",
"% % e  .| +.u.L..X#XrXQ.K !.                g.HXFXaX=XBXhXhXlXBXlXhXpXBXBXBXlXhXhXhXlXhXaXBXZXjXuXyX%X`.q.<.J x w & 5 - - p 7 : ",
"% 5 e D D | y.h.K.#XqXVXHX!.                M.HXCXBXlXBXlXBXhXhXBX-X*XlXBXlXBXlXBXhXlXBXlXVXCXuXVXBXrX0X`.,.M x b q # @ 5 @ O > ",
". 0 d D D | +.S.L.#XtXMXHX!.                M.HXBXBXlXlXlXlXhXBXBXlXhXBXBXBXhXhXhXkXBXBXCXBXCXkXCXfXqX$X`.,.M G V F 1 $ 1 t 7   ",
"; D q ) X./ O.p.D.9X9XfXDXnX!.              M.HXHXCXlXlXlXlXhXhXlXP +XBXFXBXaX;XaXpXlXlXkXjXuX=XkXkXqXXXj.I M J Z w # @ : p p : ",
"f f d L P X.O.=.S..X#XrXMXHXHX              ; F.FXCXBXCXBXBXBXBXCX^.ZXCXCXCXgX*XlXkXlXzXkXkXVXkXfXNXdXoXj.1.U @.C q 0 & > 8 u : ",
"a f e P P +.p.y.S.K. XtXMXHXHX              [ 6XFXBXBXCXCXCXCXP zXkXFX&.1XBXBXuXjXCXCXCXCXsXkXjXBXCXfXXXw.B M c r L e - . . $ . ",
"- 8 e u j / *.y.S.K. XtXnXDXHX              M.HXFXlXlXBXCXBXCX  BXBXFXF.7XkXzXkXFXFXFXFXCXVXNXjXVXBXdX_.1.B v G r q d i - @ . . ",
"$ X O - a A ) y.i.J.R.9XrXHXHX              E !.+X^.CXFXhX-XBX;.CXjXFXVXFXkXNXCXCXFXFXFXFXVXVXNXNXqX$X(.1.N v w < . e ' e . @ @ ",
"- . O = u j ^ >.p.J.}.3XrXHXHX                l ;.!.FXFXzXpXkXBXFXBXFXFXF.8XBXkXVXFXCXVX&XfXVXNX@X&XXXj.,.v x < 1 . X.X.% @ @ % ",
"> u y = e z P ] p.U.}..XrXHXHX                  ;.HXFXFXFXVXBXCXFXFXFXCXF.wXBXCXZXjX&XiX{.VXCX{.c.z.j.7.N x w & @ $     . . # & ",
"; i = : t z A ' =.U.R..X9XDXHXP               ; F.CXFXFXHXFXVXCXkXBXCXBXBXBXBXkXyX%X[.%XoXfXoXx.w.q.t.T N 4 , X . .   . . . @ @ ",
"p . . > 8 a A ( *.J.J.}.3XAXDXHX              M.VXdXxX<XFXFXFXZX=XuXlXkXgXkXkXqX$Xn.c.[.$X_.b.w.4.0.7.H 4 V 2 .   .       . . @ ",
">   + O : p k ( &.p.G.R.,XcXSXHXE E >     s E F.NXdX1XO.<XHXDXVXOX&XiXpXiXiXqX$X{.j.r.j.).k.f.5.I J @.C r L $ . +   .       . . ",
". + + O : g j ~ o.p.S.J. XtXcXGXHXHXl     !.HXHXMXfXDX<X*.HXFXVXsX[.XX=X&X#X0X).f.t.6.f.9.9.9.6.6.n b 3 q - .               . . ",
"  + . o - p j ~ O.p.D.J.|.4XbXSXHXHXl     !.GXMXrXrXyXCXCXVXGXjXkX_._.`.&X.XoXV.9.6.6.u.u.6.6.@.L 4 < & . . .                   ",
".   + + > t h Q O.-.R.J.|.3XwXAXHXHXE     !.DXAXrX9XoXoX[.].[.XXv.{.(.j.'.d.U.L.y.X.| ) Q G C d 3 # # . O   +   l               ",
"    . O O 8 s A ` =.A.Y.T.:X3XmXGXHXE     !.GXAXbX3X.X`.`.).b.c.`.d.9.9.8.8.S.S.X.X.) Q D d a 7 % $ O . . +   p >               ",
"    . o - ; u A _ $.p.J.Y.|.5XcXGXHXE     !.GXSXcX,X}.'.).V.V.j.s.5.5.y.+.$.V.D.X.` Q Q j h h ; $ . . O ; . + +                 ",
"    o = O ; u k ~ $.:.A.I.>X5XvXSXHX<Xs   !.GXSXvX,X XU.K.V.V.a.+.@.@.O.] O.A.N.` Q ~ W k s p 7 : o o y O                       ",
"  + + O o - t z ^ O.*.N.I.>X,XvXSXHXHXE   !.HXDXcX3X|.U.).V.a.y.| ) ) ) ` ] N.N.] ` ~ Q Q i t t O o + +   .                     ",
"+   + . + = ; z Q ] $.N.H.E.>X4XAXGXHXE C.AXGXSXAXvX:XW.D.B.=.] ) Q ) Q _ ] N.I.` ` Q ( E i t : $ = O         O                 ",
"      . o O ; i W ` $.B.D.W.>X4XAXGXHXE s <XHXGXAXvX:XW.D.N.-.%.` Q Q ` _ ` N.I.` Q Q Q k i t ; p ; +         o                 ",
"    +   o $ : p W _ %.B.D.W.>X5XmXGXHXE   [ !.GXSXvX:XE.H.N.B.%.] Q Q ` ( ` :.H.] ( ( W k i t p y O +                           ",
"  .   . + O = p k Q %.:.A.P.~.2XcXGXHXE     E !.SXcX4X>XP.N.p.$.] ` ` Q ( ] -.H.` _ ~ W k g y : $ +                           . ",
"    +   + O > t k ( ] -.A.T.>X:XvXGXHXF.y     ;.AXmXwX>X~.N.N.M.] ` W _ _ ` M.N.] _ ^ ! k i y : O .                             ",
"      o + O = p z W ` *.N.P.|.4XvXSXGXHXE     M.SXmXvX:XW.N.N.N.%.` _ _ _ ` M.~.] _ ~ ! k g p ; =                         +     ",
"        + + > t s W _ *.N.H.W.:XvXSXHXHXE     M.GXAXcX5X~.V.N.N.%.` _ _ _ ` $.~.[ _ ^ ! k g y : $   +                           ",
"      + + O O : i W ( $.M.H.W.:X4XAXGXHXE     [ wXGXmX5X:XW.N.N.*.] ` Q _ ` *.E.%._ ( ! k g i t = + O + . .                     ",
"          + O : i k Q %.M.H.P.>X4XmXGXHXE       %.wXSXwX>XW.N.N.M.%.` ` ` ` $.T.&._ ( ! l z i t = o o . +                       ",
"          + + : p E Q ] -.N.I.>X5XmXSXHXl         M.GXvX2XW.W.N.M.%.] ` ` ` *.P.*._ ( ^ W g p ; = o o     .                     ",
"        + + + > t z Q ] M.N.H.~.5XvXSXHXW         M.GXcX5X~.T.N.M.` ] ` ] ` %.P.*._ _ Q W h p ; = O O +                         ",
"        + + + > t z Q ] *.N.H.E.2XvXAXHXHXE       M.GXAX5X>XT.N.M.%.] ] ] ] %.T.-.{ ( ^ W j g y = O + . .                       "
};
