/* XPM */
static char *result[] = {
/* columns rows colors chars-per-pixel */
"64 64 245 2 ",
"   c #010101",
".  c #0A0504",
"X  c #0A0708",
"o  c #0D0A0A",
"O  c #0B0707",
"+  c #140906",
"@  c #130C0C",
"#  c #1A0C0A",
"$  c #180703",
"%  c #1A110E",
"&  c #140F10",
"*  c #151212",
"=  c #1B1413",
"-  c #1D1A1B",
";  c #1C1718",
":  c #240B04",
">  c #240E08",
",  c #23110D",
"<  c #2A120B",
"1  c #2E1004",
"2  c #37150A",
"3  c #231C1D",
"4  c #2B1D1A",
"5  c #271815",
"6  c #381C15",
"7  c #2A211F",
"8  c #38221C",
"9  c #221F20",
"0  c #252122",
"q  c #2A2424",
"w  c #2E292B",
"e  c #2B2628",
"r  c #322C2C",
"t  c #3A2C2A",
"y  c #382723",
"u  c #332E30",
"i  c #373133",
"p  c #3B3334",
"a  c #3F3D3D",
"s  c #3D3639",
"d  c #3E302E",
"f  c #451B0C",
"g  c #471D12",
"h  c #482618",
"j  c #592916",
"k  c #572A12",
"l  c #622C15",
"z  c #69361C",
"x  c #753C1D",
"c  c #462C25",
"v  c #49322C",
"b  c #563427",
"n  c #423D3E",
"m  c #493836",
"M  c #563D39",
"N  c #542B22",
"B  c #683927",
"V  c #733E24",
"C  c #653D31",
"Z  c #40403F",
"A  c #55423C",
"S  c #794327",
"D  c #784835",
"F  c #6B4533",
"G  c #3F3F40",
"H  c #453E41",
"J  c #493E42",
"K  c #4A4345",
"L  c #4E4649",
"P  c #4B4447",
"I  c #52464A",
"U  c #524A4D",
"Y  c #5A4C4D",
"T  c #574644",
"R  c #554D51",
"E  c #594E52",
"W  c #5B5154",
"Q  c #5F5F5E",
"!  c #5C5358",
"~  c #5E514F",
"^  c #644843",
"/  c #76544B",
"(  c #61565B",
")  c #665758",
"_  c #775B56",
"`  c #6D4F4A",
"'  c #7C635C",
"]  c #665B61",
"[  c #6B5F64",
"{  c #715F65",
"}  c #6C6166",
"|  c #6E6369",
" . c #6F6E6D",
".. c #71656B",
"X. c #756769",
"o. c #786C72",
"O. c #7D7075",
"+. c #7F7E7D",
"@. c #7E757A",
"#. c #5F5E60",
"$. c #864D35",
"%. c #8B533A",
"&. c #985A38",
"*. c #884C2A",
"=. c #A5633B",
"-. c #9E613A",
";. c #895847",
":. c #905C4E",
">. c #86645B",
",. c #986755",
"<. c #96644B",
"1. c #A76A4B",
"2. c #B7754C",
"3. c #A76A53",
"4. c #B67656",
"5. c #AA745B",
"6. c #886B65",
"7. c #976D64",
"8. c #99746B",
"9. c #82757B",
"0. c #847A7E",
"q. c #887677",
"w. c #997976",
"e. c #8D736C",
"r. c #A97666",
"t. c #B57C67",
"y. c #A87D74",
"u. c #C27F60",
"i. c #BC8169",
"p. c #A6847C",
"a. c #B98574",
"s. c #A48163",
"d. c #C5845C",
"f. c #C68566",
"g. c #C68C75",
"h. c #D5987A",
"j. c #D2936F",
"k. c #E09E78",
"l. c #7F7E80",
"z. c #8B7D83",
"x. c #887B82",
"c. c #8E858A",
"v. c #93858C",
"b. c #968588",
"n. c #9C8D94",
"m. c #978890",
"M. c #9E9D9C",
"N. c #9E9597",
"B. c #B88D85",
"V. c #A3949C",
"C. c #AB979B",
"Z. c #B69797",
"A. c #AB8D8A",
"S. c #AB9CA4",
"D. c #AA9BA4",
"F. c #B49EA1",
"G. c #B3A4AC",
"H. c #B9A4A7",
"J. c #BAABB4",
"K. c #B8AAB3",
"L. c #BFBDBD",
"P. c #BDBDB5",
"I. c #B2AAAA",
"U. c #C99688",
"Y. c #D39C8C",
"T. c #DBA489",
"R. c #D8A798",
"E. c #CEA79B",
"W. c #E4AB8A",
"Q. c #E3AC9A",
"!. c #E6B599",
"~. c #EBB58F",
"^. c #C9AAA9",
"/. c #D9ABA3",
"(. c #C3B3BC",
"). c #C7B3B7",
"_. c #D4B3B2",
"`. c #E8B8A8",
"'. c #EBB7AD",
"]. c #EFCE9C",
"[. c #EBC4AA",
"{. c #EBC5B7",
"}. c #F3CBB7",
"|. c #EDD3B8",
" X c #F2D6B9",
".X c #F1CAA8",
"XX c #F6ECB8",
"oX c #F7F1BA",
"OX c #F3E9A7",
"+X c #F5E08F",
"@X c #CBBCC5",
"#X c #CBBBC5",
"$X c #D4BFC3",
"%X c #CECDCC",
"&X c #CFC4C8",
"*X c #D4C3CB",
"=X c #D9C4C9",
"-X c #DBCCD4",
";X c #DECED8",
":X c #D7C7D1",
">X c #DEDDD4",
",X c #DEDDDB",
"<X c #DAD1C8",
"1X c #E8C9C6",
"2X c #F5DCC4",
"3X c #F8D6C6",
"4X c #E3D3DC",
"5X c #EBD6DA",
"6X c #F4DADB",
"7X c #E8CDCE",
"8X c #F6E3CB",
"9X c #FAE2CC",
"0X c #F4EACC",
"qX c #F7E6C9",
"wX c #F8F5CB",
"eX c #F4EDD4",
"rX c #FBEDD3",
"tX c #FAECDC",
"yX c #F6E7D8",
"uX c #FAF3D4",
"iX c #FBFAD4",
"pX c #F6F2DC",
"aX c #FAF4DC",
"sX c #FCFBDC",
"dX c #F6F1D4",
"fX c #EFE1D1",
"gX c #EBDBE4",
"hX c #E9DAE4",
"jX c #F2DDE1",
"kX c #EEE5EA",
"lX c #F3E5EC",
"zX c #F7E9E7",
"xX c #F6F2E4",
"cX c #FBF5E3",
"vX c #FDFCE4",
"bX c #FBF6EB",
"nX c #FDFCEC",
"mX c #F7F5EA",
"MX c #F6E9F2",
"NX c #FAEDF3",
"BX c #F2E7F0",
"VX c #FBF2F4",
"CX c #FDFCF3",
"ZX c #FDF5FA",
"AX c #FEFBFC",
/* pixels */
"E n.v.V.G.#X;XMXZXAXAXAXAXAXAXZXNX5X$X^.Z.p.t.y.7.t.r.4.4.h.W.h./.t.5.:./ M M y 5 # , A t 5 + . .   # ) Y n . .       X X   X   ",
"R Z.b.N.K.#X:XkXZXAXAXL.G AXAXZXMXlX6X7X/.U.z.t.u.u.u.f.W.6XCXxX6XQ.g.5.;.M m c 6 J T 5 # 8 A m . = q . n m   .                 ",
"Y C.9.m.K.#X-XlXZXAXAXL.G ZXZXZXNXVXVXyX'.Y.U.h.j.j.k.k.|.mXCXCXCX}.h.5.:.` M c c c 2 : y c 5 y , % t 5 ~ q @ . .               ",
"Y z.O.v.G.#X:XkXZXAXAXL.G AXZXZXVXAXAXVXzX3X{.~.}..X~.}.xXCXAXCXAXyXT.u.3.:.:.b N g 6 2 1 > : $ 7 ^ X.8 7 # r 4 .               ",
"I [ O.v.S.(.:XgXZXAXAXL.*  .ZXVXVXG G %XnXcXyX8XCXZXxXmXCXCXCXpXCXzXW.f.4.,.%.C B N B g 2 2 2 > < 5 T 8 $ 5 t n O             . ",
"U ) o.v.S.J.@XhXZXAXAXL.  G ZXZXNXL.u P.bXcXcXvXV.n a a G G Z mXCX9X~.k.h.t.<.<.%.S V z k F b 1 6 : : < 7 7 + % 3 @ O           ",
"I ( o.z.D.J.@XhXNXAXAXL.  G AXZXbXZXa P.cXCXnXCXP.p.+.l.+.+.+.mXCXtX.XW.T.u.4.T.a.&.*.*.x S D h 2 < $ $ 5 % + . @ ! U .   X     ",
"q...o.z.D.J.@XhXNXAXAXL.9 M.AXZXNXVXN.@.>XAXAXCXAXCXCXCXmXmXnXCXCXCX9X3X}.!.Q.3X XT.2.-.1.-.S s.:.h 8 < c 4 % + . t q O       . ",
"e.( | c.D.J.@X4XNXAXAXL.G AXAXZXNXVXV.9 L.CXCXAXAXCXCXCXnXnXCXCXAXnXcX9X9XaXaXrX9X3X`.d.4.2.-.5.<.F b 8 v m t . % q 5 *       . ",
"E ! ..z.D.J.#X4XNXZXAX#X9 M.AXAXNXCXM.+.,XCXCXAXAXCXbXuXaXpXnXnXCXcXnXtX9XaXsX0X0XaXrX~.h.k.d.=.*.S z b c 6 7 . .   . p @ % @ @ ",
"K ! | x.N.K.#X4XNXAXAX%Xu G ZXZXVXCXAXmXAXCXAXAXAX>X%XsXsXxXnXCXCXxXnXCXnXuX0XdXuXcXvXtX8X XW.2.-.S z k f > # + 4 7 * = o q o o ",
"I W | x.V.K.#X4XMXZXAXAXL.u L.ZXVXZXAXAXCXCXAXAX,X+. .cXuXdXcXCXCXCXCXCXbXpX0XuXuXnXCXAXCXnX8Xj.d.-.S z 2 < v T u 4 % ; + 5 . . ",
"K E } x.V.G.#X4XMXAXAXAXL.    L.ZXAXZXCXCXCXAXAX+.+.nXuXuXrXaXCXAXCXCXAXCXnXpXiXuXnXnXAXCXCXtX}.j.-.*.V h 2 8 5 r # # = O . % + ",
"J R } 9.n.K.#X;XMXAXAXAXL.      AXAXAXCXCXAXAXCXM.M.cXrXrXaXvXCXCXCXCXCXCXcXvXmXnXCXCXAXAXCXmXbX].2.=.S k 6 < . = . . . O . a = ",
"n Y ..9.n.G.).:XBXAXAXAXL.      AXAXAXCXAXCXnXCXCXcXtXuXqXtXaXCXxXbXCXCXnXeXsXnXCXCXCXnXCXCXAXnX|.h.1.&.z N h $ . + + o r = I p ",
"T Y [ 9.V.G.(.:XkXZXAXAXL.        AXZXa L.CXAXCXAXCXCXaXaXnXcXCXnXCXCXZ P.vXnX+.+.CXCXpXCXmXbXxX2X!.j.1.$.F M T 7 # O q Y ) n t ",
"_ ~ X.9.V.J.&X4XgXZXZX#X                L.CXAXAXAXAXCXCXCXCXCXCXCXmXCXG P.CXCXmXCX+.a CXCXnXcXCXmXW.2.&.V B g 2 9 4 @ + r ..e . ",
"p.q.b.O.m.H.<X5XgXZXAXAXL.        AXa   L.CXCXZX+.  Z AXCXAXCXnXmXmXCXCXCXCXmXp.+.nXnXnXmXeXeXnXcX[.d.-.$.z j 6 $ $ . . & w . . ",
"_ w.q.q.b.I.(.=X5XNXAXAXL.        a *   L.ZXCXCX,XQ Z nXnXCXCXCXCXnXCXCXCXCXvX>X>XvXnXsXdXpXaXcXtX}.h.=.3.V j 2 $ 4 9 # ; .     ",
"T T ) e.b.Z.).:XhXZXAXAXL.              u %XZXCXAX>X%XnXbXCXCXCXCXCXCXCXCXmXvXnXnXnXvXvX0XqXrX9X3X9X[.f.4.V V j < , y # Y = @   ",
"Y T ) q.A.F._.1X6XZXZXAXL.                P.xXpXCXAXCXmXvXsXnXCXCXZ %XCXCXnXvXvXvXvXwXaXCXqX9XrXrXrX[.T.g.%.$.j h > # % e = . X ",
"v Y _ w.A.^./.1X6XVXAXAXL.                u a M.mXAXAXCXCXnXnXnXCX  P.CXCXCXnXnXwXuXXXvXCXaXuXaX8XtXtX3XQ.3.*.k 2 $ + % # o     ",
"t ^ q.A.E./.'.7XNXAXAXAXL.                    +.CXCXCXnXnXnXnXnXnX+.>XCXCXnXnXvXrXiXuXvXCXvXuXvXnXCXnX3X!.t.$.l 2 : $ + % @ .   ",
"m T _ y.B.Q.1XVXAXAX,X+.Q             Q +.+.+.P.sXpXsXnXnXnXnXnXnXCXmXnXnXnXvXvXsXvXvXxXnXcXvXvXCXbXxX{.Q.U.%.l 2 h , # 7 u q * ",
"M ` 6.E.Y.1XVXAXAXAXL.                Q ,XCXCXvXsXiXvXbXnXvXsXvXnXnXnXCXnXiXiXiXXXvXbXCXnXmXxXvXvXrX2X3X3X'.U./ D c 6 4 m X.Y q ",
">./ :.p.R.xXAXAXAXL.Q                 Q ,XnXnXiXiXvXvXnXCXCXnXCXCXnXvXvXvXsXiXiX+XiXcXCXnXnXnXvXaXrX X}.6X'.`.;.C 6 b 4 q Y I * ",
"F / >.p.Y.zXZXZXAXM.u                 L.CXnXnXoXoXsXiXsXvXnXnXCXnXnXvXvXvXnXnXvXiXvXnXCXCXnXmXpXaXqX[.'.}.'.R.;./ F y , m q = . ",
"m ' >.r.U.1XVXAXAXAX%Xu               L.CXCXnXiXoXsXsXwXwXsXvXnXnXnXvXvXvXvXnXvXnXsXsXbXCXnXxXeXxX8X'.T.R.Y.r.j b 6 m 5 m p O O ",
"^ 6.p.s.B./.}.yXCXAXAXL.              L.AXnXnXnXvXvXsXnXnXvXvXnXnXnXvXsXvXvXvXvXiXwXwXwXsXeXeXeXnXbX3XT.t.r.D j 8 c c % q q ; # ",
"A >.6.6.B./._.3XzXCXAX%Xu             c.BXCXnXnXnXsXvXvXnXvXsXnXnXsXiXiXiXsXsXwXOXsXiXuXpXvXuX X|.|.Q.4.1.%.$.j 6 , t @ . q = * ",
"m m _ e.A.^._.}.yXVXAXAXL.              L.nXvXnXnXsXsXvXnXnXnXnXnXiXiXwXwXwXwXiXsXsXsXvXmXpX8X0X X.Xk.4.<.z l h 8 < y % O Y . . ",
"7 A ) ' e.Z.^._.zXbXAX(.                  P.vXCXvXvXnXnXvXnXnXnXsXiXsXiXiXwXoXiXsXsXiXvXvXnXvX0X8X}.R.f.1.x V j 6 # = O O L !   ",
"5 K 0.q.e.b.H._.7XxXAXL.                  L.AXCXvXsXsXvXvXsXsXvXwXiXsXvXvXvXsXsXvXsXvXsXaXnXeX0X2X8X X`.3.V j g > $ $ w * w q X ",
"7 t K ( | b.S.^.7XMXmXL.                    p.CXnXsXiXsXiXiXsXiXvXiXoXvXvXnXvXvXvXvXnXsXpXbXnX0XpXmX3X'.Q.;.D f < , # @ . 9 3 @ ",
"7 r Y Y } q.A.).=XzXVXkXc.                  +.CXvXvXsXsXsXiXsXiXvXiXoXvXnXvXsXiXvXvXvXnXvXbXnXpXcXnX3X'.Q.$.j g v y 5 . O ; & . ",
"d r K W [ q.n.H.$XlXMXAXmXc.                +.AXvXvXsXsXvXvXvXvXvXnXCXCXCXvXsXwXiXvXsXuXvXcXpX0XcXyX}.'.a.V l B N v y . + * w . ",
"U q ~ X._ O.b.S.=X6XVXAXAXL.                - M.nXvXvXvXmXnXnXnXnXnXnXCXCXnXuX].rX0XwX0XpXuXpX0XrX9X3X'.i.S z M ^ $ $ . 0 * a ; ",
"m t T ) X.z.b.V.(.-XlXZXAXBXL.              #.,XCXvXvXvXnXnXnXnXcXvXCXCXnXnXvXXXdXmXvXvXcXdXxXCXnXcXyX'.t.%.V N h y t = @ . * 3 ",
"t p p ~ ) z.V.C.).*XhXVXAXAXAX              p.AXCXvXvXvXnXCXCXnXwXpXM.>XCXbXnXdX0XnXCXCXnXpXmXCXeXcX9XR.,.S l 2 6 v 8 3 @ . O o ",
"= 7 r P W X.0.V.J.*XgXVXAX,X+.              a L.AXnXvXCXnXmXCXCXCXbXM.>XCXnXpXcXCXAX>XM.mXnXmXyX2X3X3XQ.<.z j g > @ ; t r @     ",
"@ = q s U } 9.V.G.@X5XMXZX(.                  +.AXCXnXCXsXwXvXCXCXxXnXnXnXtX0XpXmXCX<XN.CXnXCXtX.X'.'.U.$.j f : , . = n n . .   ",
"o = 0 p P Q O.v.K.:X4XMXAXL.                  a (.CXCXCXsX0XwXpXCXcXnXbXnXnXcXuXtX8X[.rX[.|.xX`.d.f.g.<.l f 1 $ + O q E 3 . O   ",
"; p 7 i K ( X.c.D.:X7XlXZX%XH                 9 M.nXxXCXnXmXmXnXCXcXvXsXaXsXvXrX2X}.~.3XT.}.{.u.2.-.%.;.b 2 : $ . & X o O     . ",
"r ; 3 u H ! | z.D.$X$XgXVXAXAX                l.bX9XtXCXCXCXnXxXrX0XpXdXuXrXaX3X[.T.f.Q.h.h.u.1.&.$.:.D h 1 $ . .               ",
"; & - e H W [ x.n.).@X5XMXAXAXK a         w H M.tX8XbXCXCXCXnXpX]. X0XrX X2X2X1X`.4.3.t.U.y.t.%.V V ;.M 1 v m                   ",
"o o * e s ! ] @.n.G.#X;XBXAXAXAXAX        L.VXVXyX8XCXAXZXCXCXxX].!.!.qX X{.'.R.r.7.:.7.7.7.7.B C b v M , n @ .           . X   ",
"X o * e i U ] O.m.G.#X-XkXZXAXAXAX        L.NXyXyX2XtXVXCXcXvXfX}.!.T./.`.R.^.Z.7.>.` 7./ / ;.>.8.v 5 q % = .                 X ",
"X X * 0 i L ! o.v.J.(.*XgXZXAXAXAX      L.ZXNX5X=X'./.{.`.W.[.}.Y.f.i.r./.p.Z.Z._ ` ^ ) ` T J c 5 , $ $ . .     .               ",
"  X & 9 u J W ..z.S.*X@X5XNXAXAXAX      L.VXBXjX$X^.E.U.g.t.g.t.t.t.,.7.>._ q.S.{ Y J J m t 7 5 # + X   X       G *             ",
"X X & - r H R | 0.V.).*X;XNXZXAXAXAXG   L.ZXZXlX$X^.Z.B.B.U.a.<.y./ ` >.` ) { n.E Y J H i t 9 ; # X   . X X X - &               ",
"  X & w w G U } 9.n.K.#X-XBXZXAXAXAXa   L.ZXVXgX*XH.D.A.B.8.8.7.;.^ ^ ` E E { m.J E J H i e e 9 & X . X -     .                 ",
"X X o - e s L ] O.m.S.(.-XBXZXAXAXAXG   L.ZXNXkX:XJ.F.z.z.6.b.>.J J J J E J o.z.! J J H n w e 9 * X X - X                       ",
"  X X * 0 i K ! o.c.D.J.:XgXZXAXAXAXK   L.ZXNXlX4X#XG.n.q.X.{ ~ M H H J J R [ n.E E J J R e 9 - & X X X       X                 ",
"X X X & 0 i K ! o.c.N.K.*XhXNXZXAXAXa   u %XNXlXhX@XJ.n.x.{ ! I J m H J L U | G.E J I J J w 9 - o - &         .                 ",
"  X X & 9 u a R | x.n.K.@XhXMXZXAXAXG     L.ZXBXgX@XG.n.x.| ( I H s H H L U | K.R I L H s w 9 ; 9 w &                       .   ",
"  X X o - w s R [ x.n.G.#X;XBXZXAXAXG     L.ZXZXgX@XJ.D.z.o.] U H m H H L ! | K.( R I H s i 9 9 9 X                           o ",
"  X X X - e s J [ l.v.S.#X-XhXZXAXAXM.0   #.L.NXBX#X#XD.z.o.[ E J H G J R R [ D.( U I J G u w - &                               ",
"X   X & ; e i R ] o.x.D.#X-XgXZXAXAXAXG     +.ZXBX:X#XG.z.x.| E J H H J U R #.G.] R I J s u 9 - & X .                           ",
"    X X * 0 u J ! o.x.D.(.-XlXZXAXAXAXG     Q ,XBX;X#XK.V.x...( J J J L L R #.G.{ R U P s u e - * o o                           ",
"  X X X & 9 u H ! o.x.D.K.*XhXNXAXAXAXH       +.MX4X#X#Xz.x...( J J L J U R ] K.l.R L J G i w 9 * o o     .                     ",
"    X X & - w G E ..x.V.K.@XhXMXAXAXAXG       l.MXhX$X#XD.z.l.( R P H J U R ] D.x.R L P H p r 9 * o X                           ",
"  X     o - e s E [ l.n.K.#X4XBXAXAXAXG       l.NXlX:X#XG.z.l.( R L P L U R #.D.x.R R L H u w 9 * o                             ",
"    X X o - e s R | l.z.K.#X;XBXAXAXAXH       l.MXlX;X#XD.z.l.[ R L P L U R ] V.x.R R P H u w 9 *                               ",
"      X X - 0 s J ] l.m.D.#X-XBXZXAXAXAXG     x.NXBX;X#XD.z.l.[ ! U L J U R ! D.l.E U L H p u 9 * o X X                         "
};
