/* XPM */
static char *result[] = {
/* columns rows colors chars-per-pixel */
"64 64 238 2 ",
"   c #010101",
".  c #0A0505",
"X  c #0A0807",
"o  c #0A0708",
"O  c #0D0A0A",
"+  c #1C0905",
"@  c #120C0C",
"#  c #1C0D0B",
"$  c #140603",
"%  c #1C120E",
"&  c #160F10",
"*  c #151212",
"=  c #1A1514",
"-  c #1D191A",
";  c #1B1718",
":  c #250D07",
">  c #29110A",
",  c #38160B",
"<  c #221C1C",
"1  c #261816",
"2  c #341B15",
"3  c #2B211F",
"4  c #27211F",
"5  c #38221B",
"6  c #251F21",
"7  c #252122",
"8  c #2B2525",
"9  c #2F2B2B",
"0  c #2C2728",
"q  c #322C2D",
"w  c #3A2A28",
"e  c #342E31",
"r  c #392D31",
"t  c #3A3335",
"y  c #3D3639",
"u  c #3F3C3D",
"i  c #383333",
"p  c #32302F",
"a  c #451A0D",
"s  c #461F13",
"d  c #4D230F",
"f  c #482518",
"g  c #572816",
"h  c #53240E",
"j  c #6A361B",
"k  c #6A331A",
"l  c #472C26",
"z  c #48332C",
"x  c #5A3628",
"c  c #423C3E",
"v  c #483836",
"b  c #573C38",
"n  c #683928",
"m  c #743C27",
"M  c #663B33",
"N  c #3F403E",
"B  c #5B423D",
"V  c #47403F",
"C  c #794227",
"Z  c #774835",
"A  c #6A4439",
"S  c #3F3F40",
"D  c #453E41",
"F  c #493E41",
"G  c #4B4345",
"H  c #4E4649",
"J  c #494345",
"K  c #524345",
"L  c #53464A",
"P  c #534B4D",
"I  c #5B4949",
"U  c #554D51",
"Y  c #594F53",
"T  c #5B5156",
"R  c #5E545A",
"E  c #5F5F5E",
"W  c #575054",
"Q  c #684B46",
"!  c #754D44",
"~  c #61555B",
"^  c #625A5D",
"/  c #695858",
"(  c #7B5B56",
")  c #6D504C",
"_  c #685D62",
"`  c #6D6468",
"'  c #73666B",
"]  c #756A6E",
"[  c #756566",
"{  c #7A6E73",
"}  c #756B71",
"|  c #7F7E7E",
" . c #7D7278",
".. c #5F5E60",
"X. c #844828",
"o. c #8A523A",
"O. c #975938",
"+. c #8F5131",
"@. c #A2613B",
"#. c #875647",
"$. c #965E4A",
"%. c #855B52",
"&. c #925D53",
"*. c #9A614A",
"=. c #976758",
"-. c #866259",
";. c #A76747",
":. c #A56C58",
">. c #AB735C",
",. c #BA7857",
"<. c #B4724D",
"1. c #846967",
"2. c #99726A",
"3. c #81757A",
"4. c #84797E",
"5. c #877476",
"6. c #947A79",
"7. c #906F6A",
"8. c #A47568",
"9. c #B57C68",
"0. c #A67670",
"q. c #C37E5D",
"w. c #B58376",
"e. c #B28371",
"r. c #C88666",
"t. c #C58A77",
"y. c #D49778",
"u. c #D4936F",
"i. c #D7946F",
"p. c #7F7E80",
"a. c #8B7D83",
"s. c #867A81",
"d. c #8F8289",
"f. c #8E8688",
"g. c #93858B",
"h. c #978386",
"j. c #9B8C93",
"k. c #9E8F98",
"l. c #9F9E9C",
"z. c #9E9497",
"x. c #A48786",
"c. c #A38D92",
"v. c #A3949C",
"b. c #A99498",
"n. c #B79590",
"m. c #AB9CA4",
"M. c #A798A1",
"N. c #AEA1A9",
"B. c #B4A4AB",
"V. c #BAA6AA",
"C. c #BAABB4",
"Z. c #BEAFB9",
"A. c #B6A7B1",
"S. c #BFBDBD",
"D. c #BEB9B6",
"F. c #C99485",
"G. c #C59A96",
"H. c #D79B85",
"J. c #DCA589",
"K. c #DBA698",
"L. c #DCB397",
"P. c #E2A68A",
"I. c #E3AB98",
"U. c #E8B598",
"Y. c #C6A7A8",
"T. c #DEAEA2",
"R. c #C3B3BD",
"E. c #CEB3B6",
"W. c #D6B8BA",
"Q. c #D4B1AE",
"!. c #E2AEA4",
"~. c #ECBCAC",
"^. c #E5B3A4",
"/. c #E8BBB5",
"(. c #F1BCAF",
"). c #CAC4B7",
"_. c #ECC2AC",
"`. c #ECC5A9",
"'. c #ECC7B7",
"]. c #F4CAB9",
"[. c #F4D5BB",
"{. c #F1CEAC",
"}. c #F5EBB2",
"|. c #CBBBC4",
" X c #C7B7C1",
".X c #D5BDC2",
"XX c #CECDCC",
"oX c #CDCBC3",
"OX c #D3C3CC",
"+X c #D8C3C7",
"@X c #DBCBD5",
"#X c #D8C9D2",
"$X c #DEDDD4",
"%X c #DEDDDB",
"&X c #DFD4DA",
"*X c #E8CAC9",
"=X c #F4DDC4",
"-X c #FADCCB",
";X c #F6D6C7",
":X c #E5CED5",
">X c #E3D2DB",
",X c #ECD4D8",
"<X c #F4DAD7",
"1X c #F1D2C9",
"2X c #F5E4CC",
"3X c #FAE4CC",
"4X c #F6E8C8",
"5X c #F8F5CA",
"6X c #FAE4D2",
"7X c #F5ECD5",
"8X c #FBEBD3",
"9X c #FAECDC",
"0X c #F5E8D9",
"qX c #FAF3D5",
"wX c #FBFBD3",
"eX c #F6F3DC",
"rX c #FBF4DC",
"tX c #FCFBDC",
"yX c #F6F5D3",
"uX c #EEE9D6",
"iX c #EBDCE4",
"pX c #EBDBE5",
"aX c #F3DDE2",
"sX c #EEE3E9",
"dX c #F3E4EC",
"fX c #F7E9E9",
"gX c #F6F4E4",
"hX c #FBF5E3",
"jX c #FDFCE4",
"kX c #FBF6EB",
"lX c #FDFCEC",
"zX c #F7F5E9",
"xX c #F6EAF1",
"cX c #FAEEF4",
"vX c #FAF1F6",
"bX c #FDFCF3",
"nX c #FCF4FA",
"mX c #FEFCFC",
/* pixels */
"g.m.C.OXpXnXmXmXmXmXmXmXmXnXnXxX:XE.V.b.7.1.%.%.#.:.>.,.r.P.{.K.(.t.9.:.%.A b w 2 = @ = v = .     . = / ] < O   .     . .   .   ",
"V.N.R.OXpXcXnXmXmXp.  S mXnXnXdX,X,X:X/.n.0.0.:.9.q.i.q.I.fXnXbXkX!.t.>.#.Q b z 2 1 l v # 1 w 2 X . < O 4 I 8                   ",
"N.M.B..XpXnXmXmXmXp.  S nXnXnXdXaX<X<X1XQ.a.q.q.q.i.i.P.[.bXbXmXmX-XH.>.=.! b l l l l > : 2 8 w = . 8 > 8 G @   X o             ",
"b.M.A.|.pXcXnXmXmXp.  S nXnXcXpXaX<X<X-X1X(.I.P.`.(.].-XlXbXmXmXmX9XJ.r.=.#.! x l l 2 > 2 2 + + 2 v v r p w < - @   o           ",
"a.b.B.|.&XxXnXmXmXp.e XXnXxXdXpXpXaX9X<X-X;X;X-XhXlXzXbXlXbXmXkXbX9XP.r.>.$.#.n x g g a , > > : $ 1 I z X . 1 c O               ",
"4.v.m. X@XdXnXmXmXp.S mXnXxXpX:X*X<XaX-X<X6X3XhXkXbXbX).` bXbXyXbX9XU.i.t.9.$.&.#.C m n g g g , : : + w O 8 < # y .             ",
"3.j.m.R.@XdXnXmXmXp.S nXvXdXpX:XW.<XfX;X-X9X8XjXbXbX>X| l.bXlXzXbX0X_.I.H.t.<.K.y.o.X.j j C Z f , > + $ 1 1 X . - 4 4 X         ",
"4.j.m.R.@XsXvXmXmXp.D mXcXaXpX:XW.;X9X;X6XrXhXjXbXmX%Xl.lXbXlXbXmXlXhX8X(.I.!.;X'.J.r.@.O.@.+.k d , : : # 3 @ X . q R 9   .     ",
"a.j.M.R.#XdXvXmXmXp.S mXcXaXpX,X/.<XkXhXhXhXkXbXbXbXmXkXgXgXbXbXbXkX0X-X-X[.2X8X-X;X(.r.<.;.O.e.w.x f > l b w X O < = * .       ",
"a.j.M.Z.#XdXcXmXmXp.S mXnXdXpXaX1XkXbXlXhXhXkXbXbXbXlXjXjXlXbXmXmXlXlXhX9XrXqX8X3XrX6X{.P.P.r.<.:.Z A x 2 b F . . = X 9 * X     ",
"s.g.M.Z.OXpXcXmXmXp.p XXnXcXaXaX1XvXbXlXlXkXmXbX%X$XjX7XyXrXbXbXbXzXlXlXlXrXtX8X4XjX0X).9X<X~.,.@.X.j x 5 l v X . X X = *   O O ",
"3.g.M.Z.OXdXcXmXmXp.  p OXcXdXaX1XzXbXvXlXbXmXbX| | lXrX3X3X9XbXmXkXbXbXlX8X4X4X3XhX).E ).hX3XJ.<.O.X.g , > $ 4 X 9 - O X X 0 O ",
"s.j.M.C.#XpXvXmXmXp.    D vXxXdX<XhXbX9XhXlXmX$XE | jXqX3X8XhXkXbXbXbXbXlXhXyX7X4XjXkXS.N lXgX].u.@.X.j d , 2 ) = i * @ * X * O ",
"{ a.M.C.OXaXcXmXmXl.9   p S.D.nXsXbXkX6X9XhXlXv.N z.rX3X6XhXlXbXbXmXmXmXbXjXeXlXbXbXbXoX] bXbXgX{.r.@.C h f : @ O 0 O .       * ",
"} g.v.C.OXiXvXmXmXmXS.        mXzXmXkX9XhXhXhXlXjXrX3X3X2XrXbXbXbXbXbXbXbXjXjXlXbXbXbXmXbXbXbXkX{.r.;.X.g , : + X = o     . o y ",
"} a.v.C.OXpXcXmXmXmXS.          nXbXvXbXbXbXkXlXbXbXlXhXeXzXeXbXjXbXbXS D.yXeXbXbXbXbXlXbXbXbXbX[.J.r.;.C x Q l @ @ X X J 0 u i ",
"' a.v.C.OXiXxXmXmXmXS.            vXmXmXmXzXnXmXp.p.mXzXzXbXzXbXbXbXN   D.lXlXbXbXlXbXkXkXlXzXhXqXU.y.*.+.x a x w @ O @ c G v & ",
"3.k.v.A.OX,XvXmXmXmXS.        mXmXmXS S.mXbXbXbXe.  S bXS.    bXbXkXbXbXbXbXbXlX| | lXlXbXbXuXlXrX].r.O.X.n d > > & .   @ q 8 . ",
"5.v.c.A.|.iXnXmXmXmXS.    p S.mXmXmXN p XXvXkXbX%XE N mXsXS.D.bXzXbXbXmXbXbXlXlX$X$XlXlXjX0X2XhX6X[.y.@.+.X.g f # $ . . . = O   ",
"' g.j.B.|.>XdXnXmXmXS.    S mXmXS S @   S.mXzXbXmX%XXXkXbXbXbXbXbXbXbXbXbXbXtXlXlXjXlXrX4X3X=X-X-X3X'.y.>.+.k a : % < 1 4 4 X   ",
"] 4.c.B..X,XxXnXmXmXS.    @ S u         S.mXbXbXmXbXmXlXlXlXbXmXbXN N oXbXlXlXlXlXjXyXrX8X=X3X8X=XrXeX_.F.O.j n f > % < 4 V * . ",
"[ a.c.V..X,XdXmXmXmXS.                  p oXyXeXlXmXbXlXlXgXlXbXbXS.D.gXbXlXlXjX5XqX4XqXlXqXqXtX6X6X=X^.K.>.m m f # $ 1 O *     ",
"_ 5.x.Y.+X<XfXnXmXS.E                   E %XzXbXzXbXlXjXlXlXlXlXbXbXbXbXbXlXlXlX5XtX5XhXbXrXqXhXjXlXzX1XI.9.#.g a + $ # & X   . ",
"_ h.c.Q.*X<XcXR.s.u                   E %XmXbXmXtXzXtXjXzXbXbXlXbXbXlXlXlXjXlXjXhXkXjXhXbXjXrXlXbXbXlX'.K.t.$.k a > + . @ X .   ",
"/ 6.b.Y.'.dXmX Xp.S                 E %XbXbXbXtXwX5XeXjXlXbXlXlXlXlXjXlXjX5XwXjXlXlXlXlXbXlXlXjXtXtX3X].].(.!.&.a 5 2 # 4 ~ v O ",
"7.5.n.Q.1XnXmXmXmXp.                ..$XlXjXtX5X5XwXjXlXbXlXgXlXlXlXjXlXjXwXwXjXjXjXjXbXbXkXjXrXrX8X-X;X;X*X/.=.M x 2 w @ V e.= ",
"1.7.x.T.1XnXmXmX%X..                  S.bXlXjX}.5XwXjXlXbXlXbXbXbXlXlXjXlXhXtXjX}.4XtXlXbXjXbXgXlX8X;X(.(.(.K.( ! 2 5 z @ i ` - ",
"_ 5.x.G.*XfXvXmXN.-                   D.lXlXwX}.}.wXwXjXlXbXbXbXlXlXlXzXlXlXlXjXtXtXlXbXbXbXbX0XgX4X~.K.!.K.9.A ( B v = w P *   ",
"/ 6.h.n.W.<XfXmXmX|                   D.jXlXjXwX}.tXtXtXjXjXjXlXlXjXjXjXjXjXjXjXjXtXjXbXbXlXzXgX0XhX~.r.9.=.8.g 5 2 w t * t < . ",
"[ h.x.n.W.,X0XmXmXl.p                 D.lXjXjXlXjXjXjXjXlXlXlXlXjXjXtXwXtXtXjXjXhX5XqXqXjXeX0X9XkXhX~.q.;.#.Z f 5 5 B 4 * w < & ",
"5.x.x.b..X,X<XnXmXmXS.                S.mXtXjXjXjXjXjXlXlXjXjXbXlXjXwXwXwXtXjXjX5X5XhXyX4XjXbX2X[._.y.<.*.o.Z M 1 + i 1 . 4 < & ",
"I ] h.c.V.:X,XvXmXmXS.                  S.tXtXlXlXjXjXjXlXlXlXbXlXjXtXwXwXwXwX5X5XtXtXtXzXkX2X4X{.(.J.<.O.k h h 2 3 & =   p y . ",
"L [ 5.j.B.OX>XxXmXmXS.                  S.lXtXlXlXjXjXjXjXlXlXlXtXwXjXjXtXwX5XtXlXlXjXjXgXbXlX0XeX-X].!.9.n n s 5 $ & 6 @ ; } O ",
"G 4.z.j.m.|.,XdXmXmXmXS.                S.mXbXjXtXtXtXjXjXtXjXtX5XtXlXjXjXlXtXjXlXlXlXjXgXlXgX2X2X[.1X].!.#.k a : 1 . = ; 6 i . ",
"J ^ 3.g.m.E.:XsXnXmXmXS.                q XXbXlXjXwXwXtXtXtXjXjXjXjXyXzXlXlXjXtXjXlXlXrXeXjXbX=X6X8X;X(.!.&.m s # # @ @ X X 8 < ",
"G ` } a.v.R.OXsXnXmXmXS.                  S.bXlXlXtXtXjXjXjXlXtXlXwX4XlXbXlXhXyXtXrXjXqXrXkXbX7X9X9X1X!.9.m g a 5 1 r . . @ - @ ",
"c ^ ] a.k.Z.OXiXvXmXmXS.                  p l.bXjXtXtXjXlXbXlXbXlXbXlXbXbXlXhXwXeXeXwXyXjXhX9X4X2X-X;X(.9.m h g z v q X . ; 9 < ",
"K ~ 3.h.c.A. X>XvXmXmXS.                f.S.p.l.lXjXjXjXlXbXbXbXbXbXbXlXmXlX0X}.yX0XhXhXhX2X7X2XlX<X(.I.9.m g l B $ . . * ; 0 N ",
"T I [ 4.v.A. X@XcXmXmX%X..              ..p.e.S.bXjXlXlXlXbXbXbXbXbXl.$XbXbX7X[.rX9XzXbXzX0XgXnXlX-X;X!.&.k g l w $ 4 < O o . p ",
"F I ] 4.j.C.|.&XdXmXmXmXS.                  p.mXbXbXlXlXbXbXbX| yXyXN R.bXzXjXyX2XbXbXbXbXgXzXbXgX;X;X!.8.m M , 1 i 4 8 @ o O ; ",
"c L R } d.M.Z.#XpXmXmXmXS.                  | nXbXjXkXbXbXbXbX| bXbXl.$XlXlXhXhXlXzX9XhXhXzXvXhX~.(.~.K.=.n f 2 > . @ 0 & -   . ",
"q c U ` s.M.A.OXpXcXmXmXS.                  V S.mXlXkXmXlXeXlXmXbXzXlXeXyX3X2X2X8X[.U.;XhXlXlX`.r.t.t.0.C a > $ O X X - ^ 4 X   ",
"9 c L _ s.z.A.|.pXxXmXmXXXe                 7 l.bXhXrXbXyX}.7XzXbXeXtX7X8X8X3X;X[.(.P.[.-X1X].y.<.@.$.o.f , : . . O * V W X     ",
"c v H _  .j.N. XpXnXnXmXmXS.            p S l.bXhX[.=XkXbXhXkXkXlX7XqXqX6X3X3X;X^.H.r.!.P.,.,.;.O.X.m Z x > $ . . O X O O     . ",
"P i H R { g.m.Z.&XxXnXmXmXS.            S.bXbXlXeX[.eXbXbXbXzXrXqX=X2X3X[.;X;X/.!.>.:.F.8.*.O.+.X.m =.-.5 + @ . .   .           ",
"7 e D T ' d.v.C.OXpXcXmXmXS.            S.xXaX0X2X2XlXmXnXhXjX4XU.]._.[._.!./.G.0.&.#.&.0.8.8.M x f x F + 3 U .                 ",
"< e S U ' s.k.A..XpXxXmXmXS.            D.fX<X*X1X'.9XbXlXrX8X4XP.L.J.^.~.F.G.n.( %.) ( %.7.%.l 5 f z I $ V q                   ",
"- 9 y P ` s.j.N. X>XdXmXmXmXmX          R.xXaX*X*XT.!.'.[.U._.{.y.w.>.e.T.n.6.Y.-.Q F ( F A b ( 7.v # F - & .                   ",
"; 0 y H _  .a.m. X&XsXnXmXmXmX        S.nXdX>X+XY.G.n.e.9.>.9.F.&.8.:.&.a.-.1.M.~ F F F ) F w r 1 = * . o         .             ",
"* 7 e H _ } a.m.Z.@XpXcXmXmXmX        S.nXdX,XOXV.c.x.8.8.*.=.$.&.%.Q 1.( Y ' b._ F F v r 6 6 * @ o . .   o o   0 9             ",
"& 6 e U R } a.k.Z.|.pXcXmXmXmX        S.nXxXsX#XV.c.6.2.7.6.7.! ( b B Y F I _ a.F F D S r 6 6 * @       o o o O 7 o             ",
"& 6 9 F W ' s.j.A.|.pXxXmXmXmXS.      S.nXxXsX@XV.c.h.5.1.( %.! Q z b F F F R p.Y F D S r 0 6 6 O   . . - O   o                 ",
"O - 0 S U _ p.j.N. X@XdXnXmXmXmX      S.nXxXpX@XA.v.g.{ [ ( a.) w r r D F F ~ p.Y F F F S 6 6 6 - O o ; *                       ",
"O ; 7 y P _  .g.m. X#XsXnXmXmXmX      S.nXxXpX@X XM.j.s._ U I F w r r c F F R k.~ F F F R 9 6 - @ O o o                         ",
"O ; 6 e H ^ } g.m. X#XpXvXmXmXmX      ..&XxXsXpX|.B.m.3._ U F t r y y D F U R k.` F F F Y 9 8 - & @ o                           ",
"o * 6 e D ^ } a.M.Z.|.pXvXmXmXmX        S.xXpXpX|.B.c.s._ T H y r r t D F U R N.} W F F S q 0 - * 9 *                           ",
"o & ; r D R ` s.v.C.|.pXxXmXmXmX        S.nXxXpX|.A.M.a.} R F S y y S D F U ~ Z.{ U F P D r 0 6 i O o                           ",
"o & ; q S W _ p.k.A.|.@XdXnXmXmX|       E &XvXpX#XC.m.a.p.~ W S t t D D F R R A.p.W W F S r 9 6 * O O                           ",
"o O ; 0 S F _ p.j.A. X@XxXnXmXmXmX        S.nXdX@XZ.N.a.' ~ W D S r S F F Y R N. .R U H D r q 6 ; O O o                         ",
"o O * 6 S Y ^  .g.m.R.#XdXnXmXmXmX        f.%XxX@XR.A.a.p._ R F S S D D W Y ~ m.a.R W H D S r 6 - O O o . . .                   ",
"o o * 7 t H R { g.m.Z.#XpXnXmXmXmX          p.cXpX|.A.a.s.` ~ U D S D F W Y ~ m.v.R W U D y e 0 - @ O o                         ",
"o o O 6 t D W } a.m.C.#XpXmXmXmXmX          p.cXpXOX XN.a.} ~ F D S D H U T R m.m.~ W U J S e 7 - O O o                         ",
"o o O 6 p D W ' a.m.C.OXpXvXmXmXmX          p.cXpX@XR.M.a.} ~ W D S D F U R ~ m.M.~ T P J S e 7 ; O O o                         ",
"o o O - 9 J U ' a.M.A.OXpXvXmXmXmX          s.cXpX@X Xm.a.p._ F D D D F H T ~ k.k._ T U F S i 0 ; * o o                         "
};
