/* XPM */
static char *result[] = {
/* columns rows colors chars-per-pixel */
"64 64 240 2 ",
"   c #010100",
".  c #090504",
"X  c #0D0A0A",
"o  c #0C0807",
"O  c #1C0A05",
"+  c #120D0C",
"@  c #1C0D0A",
"#  c #140704",
"$  c #15110F",
"%  c #151212",
"&  c #1B1515",
"*  c #1E1A1B",
"=  c #1C1718",
"-  c #250D07",
";  c #29110A",
":  c #37170B",
">  c #221513",
",  c #221D1D",
"<  c #291A18",
"1  c #381D14",
"2  c #27201E",
"3  c #37211B",
"4  c #231F20",
"5  c #252222",
"6  c #2A2324",
"7  c #2D292A",
"8  c #2D2728",
"9  c #332C2D",
"0  c #372726",
"q  c #342E31",
"w  c #3A2E33",
"e  c #353132",
"r  c #3A3335",
"t  c #3D3639",
"y  c #3F3E3D",
"u  c #3F352D",
"i  c #441A0C",
"p  c #511C0C",
"a  c #482618",
"s  c #562716",
"d  c #562D16",
"f  c #65331D",
"g  c #6A3619",
"h  c #773E1D",
"j  c #462C25",
"k  c #47322C",
"l  c #583326",
"z  c #413D3E",
"x  c #493937",
"c  c #583C37",
"v  c #582E22",
"b  c #683827",
"n  c #753D25",
"m  c #62392B",
"M  c #5B453E",
"N  c #784A38",
"B  c #704331",
"V  c #443E41",
"C  c #4A3E43",
"Z  c #503F40",
"A  c #464043",
"S  c #4A4245",
"D  c #4D4649",
"F  c #4E4849",
"G  c #524B4D",
"H  c #584647",
"J  c #564D51",
"K  c #594F53",
"L  c #5B5256",
"P  c #5E555A",
"I  c #5F5E5E",
"U  c #5C504F",
"Y  c #654946",
"T  c #7A5347",
"R  c #63595D",
"E  c #63565A",
"W  c #775958",
"Q  c #6D4F48",
"!  c #77615C",
"~  c #67605F",
"^  c #5F5E60",
"/  c #655B61",
"(  c #695E64",
")  c #6C6165",
"_  c #6F6E6C",
"`  c #6C6468",
"'  c #746669",
"]  c #796D73",
"[  c #7F7E7D",
"{  c #7D7377",
"}  c #864A29",
"|  c #8A543C",
" . c #975938",
".. c #8D5132",
"X. c #A5633B",
"o. c #90603E",
"O. c #875849",
"+. c #955C47",
"@. c #885D52",
"#. c #996556",
"$. c #8C6252",
"%. c #A66749",
"&. c #A66C57",
"*. c #B87859",
"=. c #B1714E",
"-. c #856867",
";. c #837B7E",
":. c #847579",
">. c #94716B",
",. c #A56E62",
"<. c #A97668",
"1. c #B77C66",
"2. c #A97B70",
"3. c #B98678",
"4. c #B0826D",
"5. c #C98766",
"6. c #C68B75",
"7. c #D29679",
"8. c #D2926F",
"9. c #CA865F",
"0. c #7F7E80",
"q. c #8B7D83",
"w. c #857B81",
"e. c #917E83",
"r. c #8F8E8D",
"t. c #8E8287",
"y. c #92858C",
"u. c #9A888C",
"i. c #978A91",
"p. c #9A8C94",
"a. c #9F9E9C",
"s. c #9E9398",
"d. c #A48788",
"f. c #B88B84",
"g. c #A2949C",
"h. c #AA959B",
"j. c #B59595",
"k. c #AB9BA4",
"l. c #AB9CA5",
"z. c #B69FA5",
"x. c #AEA0A9",
"c. c #B3A4AC",
"v. c #BDA4A7",
"b. c #BBACB4",
"n. c #BEAFB9",
"m. c #B7A8B1",
"M. c #BEBEB6",
"N. c #BFBDBD",
"B. c #BCB6B9",
"V. c #BDBCAC",
"C. c #D59C87",
"Z. c #C8978D",
"A. c #DAA68A",
"S. c #DAA698",
"D. c #D6AA93",
"F. c #E3AC96",
"G. c #E7B092",
"H. c #C5A9A9",
"J. c #C3ADB4",
"K. c #C3B3BC",
"L. c #CAB4B9",
"P. c #D6B7B8",
"I. c #DCAFA6",
"U. c #EBBCAC",
"Y. c #E6B6A8",
"T. c #EABDB5",
"R. c #E6B2A8",
"E. c #CDCCBE",
"W. c #EBC2AA",
"Q. c #EBC5B6",
"!. c #F4CBBB",
"~. c #F3C8B6",
"^. c #EED4BA",
"/. c #F3D6BB",
"(. c #F1CDAD",
"). c #F4EBB6",
"_. c #F5EA9E",
"`. c #CBBAC3",
"'. c #CBBBC5",
"]. c #D6BDC2",
"[. c #CECCC9",
"{. c #D3C3CC",
"}. c #DBC4CC",
"|. c #DDDDC9",
" X c #D6C6D0",
".X c #DBCBD4",
"XX c #DECFD9",
"oX c #D7C7D1",
"OX c #DEDCDD",
"+X c #DDD9D6",
"@X c #E7C8C9",
"#X c #F6CDC2",
"$X c #F5CDC7",
"%X c #F4D4C3",
"&X c #FAD4C4",
"*X c #F9D5CB",
"=X c #FADBCB",
"-X c #F6DAC8",
";X c #E6CED4",
":X c #E3D3DC",
">X c #ECD4D8",
",X c #F3D8D7",
"<X c #EBD9C7",
"1X c #F5E4CB",
"2X c #F9E3CC",
"3X c #F6E8CA",
"4X c #F6F4CE",
"5X c #F8F4C8",
"6X c #FBE4D3",
"7X c #F5EBD4",
"8X c #FBECD3",
"9X c #FBEDDB",
"0X c #F5E8D7",
"qX c #FAF3D6",
"wX c #FBFBD5",
"eX c #F6F3DC",
"rX c #FBF4DC",
"tX c #FCFBDC",
"yX c #F6F2D3",
"uX c #EEE8D4",
"iX c #EBDBE4",
"pX c #E8D9E3",
"aX c #F3DCE3",
"sX c #EFE2EA",
"dX c #ECEAE6",
"fX c #F2E4EC",
"gX c #F6E8E6",
"hX c #F6F1E3",
"jX c #FBF5E3",
"kX c #FDFBE4",
"lX c #FAF6EA",
"zX c #FDFBEC",
"xX c #F7F6E9",
"cX c #F6EAF2",
"vX c #F9EDF4",
"bX c #F6E6F0",
"nX c #FBF3F5",
"mX c #FDFCF3",
"MX c #FCF5FA",
"NX c #FEFCFC",
/* pixels */
"c.`..XfXMXNXNXNXNXNXNXNXMXMXvX:X].`.H.e.>.W @.n O.%.&.*.5.F.!.R.U.Z.1.,.@.Z x 0 4 & + + 6 w o o . . < ) [ X       .     .   .   ",
"L.K.oXsXMXNX0.      V NXMXbXfXpX;X@X@XT.j.>.,.&.&.5.9.8.G.lXmXmXzXY.6.&.T Y c j 3 > > x 3 @ 4 @ . . X + M S e                   ",
"L.K. XsXMXNX0.    ^ [.MXvXbXfXpX,X$X$X$XI.f.,.*.9.8.8.7./.mXNXy z ,XA.*.#.T c j 3 3 k 1 O @ 4 6 + . 6 % * G q   . .             ",
"J.n.'.pXMXNXOX^   0.NXMXbXfX:X;X>X>X$X$X$XR.R.C.W.U.!.jXlX[.y   M.0XA.9.#.O.c l j v 1 ; 1 k < - > & 2 0 k G , X o               ",
"v.b.`.:XcXNXNXOX^ 0.MXvXfXpX.X].@X$X*X$X&X#X#X2XkXzXxXnXxXM.  M.NX,XG.9.1.+.O.m v v s i : : - - O < U x $ 4 + 9 +             . ",
"s.m.`.:XcXMXNXNX:XpXMXvXsX:X].'.P.*X*X*X&X=X*XrXzXmXxX[._ dXM.eXNX9XG.8.1.&.#.#.O.n n f p i i ; O > > x . $ 6 6 e               ",
"s.m.`.:XcXMXNXN.N.MXMXvXiX;XoX`.H.$X*X&X=X=X2XjXzXNXmXM.y mXzXeXNXrX!.G.C.6.,.S.Z.+.} h g f b i : - # # + 8 % . 6 5             ",
"p.c.K.XXfXMXNX0.V N.MXcXpX.X].`.H.$X=XT.=X8X9XkXzXmXmXOXa.mXzXzXmXeXqX=XU.F.T.#X#XA.1. .....+.f i : - - # + + o . * ) S         ",
"k.c.`..XfXMXNX0.  0.MXMXiX.X].].P.*X6X-X6X9XjXzXmXmXmXmXeXzXmXmXmXmXrX&X&X(.Q.2X&X!.W.8.=.X...+.4.d : ; ; r > o   % * + .       ",
"p.l.n..XfXNXNX0.  0.MXMXaX:X@X}.T.9X9X9X9X9XkXM.N.mXmXjXjXkXmXNXNXmXlXjXjXqXqX8X8X8X6X&XY.F.5.=.4.N l l 3 j r + o 5 + 5 % .     ",
"p.c.`. XfXNXNX0.  ^ [.MXbXpX;X@XT.lXzXkXjXjXzXg.[ +XlX8X7XjXmXmXMXmXmXzXlXjXqX8X1XqXrX9X6X=XU.*.X.N n l 3 x ! $ . X o * * . . . ",
"p.c.K..XfXMXNX0.    z NXvXaX;X@XQ.lXzXlXkXzXmXmX[ [ kX8X2X-X6XmXNXxXzXzXmXkXqXyX2XtXzXdXE.9X=XS.X...h f 1 : < X . X % X X   . 4 ",
"p.x.`. XfXMXNX0.    q [.vXgXaX>XQ.hXjX=X6XlXmXmXa.a.jX7X2X8XrXzXM.mXmXmXzXjX3X7X2XjXxXM.y lXxX2X7.X.} g p ; @ H 5 t q X X . % % ",
"i.x.`.oXfXMXNX0.      y MXiXn.lX$XhX9X*X=X6XjXmXzXmX9X8X6X9XmXnXy mXmXNXzXxXtXzXkXmXmXM.z mXmXeXW.9.X.h s : - 0 + 7 * X o . .   ",
"i.x.n. XfXMXNX0.      z NX`.  nX0XlX9X6X2X=X9XjXjXhX2X2X2XjXmXNXmXmXmXmXmXkXxXzXmXmXnXM.M xXNXxX(.9.X.h d a ; # . 5 = . . . . . ",
"e.l.`. XsXMXNX0.        y NXNXNXlXnXzXlXzXkXjXzXmXzXlXjX7XzXmXNXzXmXNXy M.zXkXmXmXmXmXNXNXNXNXmX/.8.=. .n a a # . % X   4 4 = 7 ",
"e.x.n. XbXMXMX0.                NXxXmXxXjXjXmXNX[   y zXmXxXeXxXzXzXy   M.yXkXmXmXzXmXzXzXnXxXxXrXW.A.=. .n l M 0 + + X A F F % ",
"e.c.n. XsXvXNX0.          y NXNXNXMXNXmXmXnXmXNX[   A mXmXNXmXmXmXxXy M.mXmXmXmX[ [ mXkXzXmXzXzXrX!.8. .B g d 3 @ > .   = 4 t . ",
"p.m.n. XiXMXNXOXI         z NXNXNXNXNX_ [.mXmXmX[   % y y y y mXmXzXy M.mXmXzXmX[ * _ kXkXjX1XrX6X!.C.X.} B f : - + .     % 7   ",
"p.l.m.'.iXMXNXNX[         y MXNXmXNXNXy N.xXmXmX[ I N.M.r.    mXzXy % 7 [.mXtXa., I E.kX7X/./.2X=X=X(.7.=.| g a - # + o X & . . ",
"q.h.m.{.iXvXNXNX[         % y y y NXNXy N.NXxXmXOXOXNXxXdXM.M.mXNX  r.M.I E.tX|.V.|.yX8X1X2X1X8XqXjXjX%XC.&.g v : @ > > * F . X ",
"q.h.b.}.iXMXNXNX0.                NX_ a.dXNXmXxXmXmXmXmXmXzXmXmXmXM.dXmX[.dXzXzX5XwX8XyXjX2XqXtX-X!.uXW.S.&.n m 3 O @ & + 2 X . ",
"e.h.m.}.aXvXNX`.z               0.0.[ OXNXzXyXuXxXmXxXjXxXkXzXmXmXmXzXzXmXkXkXzX8XkX4XyXmXrXqXrXjXkX<XQ.F.1...n i - # & + .   . ",
":.k.J.@XaXMXNX[                 0.  I OXNXmXmXzXkXzXkXkXmXzXmXkXzX0.|.zXzXkXkXzXtXzXrXzXmXkXtXtXzXzXjXQ.S.6.&.v : - O . X X     ",
":.h.H.}.aXMXK.y                     I OXmXzXzXzXtXtXkXkXxXmXmXzXzX[ |.kXzXkXtXzXzXzXxXxXzXmXzXkXkXqX6X~.T.R.I.<.i - + o . + + . ",
"2.k.J.@XgXg.M                       N.zXmXkXkX).5X5XtXzXzXmXzXzXmXmXxXkXzX4XtXkXmXmXmX+Xa.mXmXkXrX8X=X#X#XT.T.2.i j 3 > & E K # ",
"u.h.H.@XfX_ z 4                     r.dXmXzXkX).5XwXtXkXzXmXzXzXmXmXzXkXzXkXtXzXzXzXjX[._ xXzXzXjX6X=X#X~.R.S.O.a k < r # 2 t.= ",
"-.d.z.T.0XMXNX[                       N.zXzXwX).5XwXwXzXzXmXmXmXmXmXkXzXzXzXtXzX5X5XeXzXmXxXNXxXzX8X~.C.S.Z.<.b B u j 9 & 9 r & ",
"{ p.j.P.>XxXNXa.4                   e E.kXkXwX_._.tXwXwXtXzXmXmXzXkXkXkXzXzXkXzXkXkXkXmXmXmXxX7X0X2XY.6.4.#.@.l a x x 5 , G 6 . ",
":.h.z.J.;XbXNXOXI                   r.uXkXzXkXtX5XkXkX5XkXzXzXmXzXkXtXwXtXkXkXkXkXtXkXkXmXmXmXxXrXhXY.5.%.N $.: < > 6 M . 6 2 + ",
":.p.j.J.;XfXNX;.                      M.zXtXkXkXzXkXkXzXzXzXmXzXzXzXwXwXtXkXkXzXkXyXeXeXzXxX9X9XqX/.A.=.%.| b j j > F 8 X e 8 2 ",
";.d.h.`.:XfXnXNX[                       M.wXwXkXzXkXzXkXzXzXxX  mXkXkXkXwXkXkXkX5X5XzXyX3XjXzX3XG.G.5.=.} g s a ; & & 2   8 L   ",
") q.k.n.{.fXvXNX[                       E.tXtXkXzXkXtXkXzXzXzXmXzXzXzXzXtXqX5X5XtXtXrXtXeXmX9X7XrX=XW.C.1.f p j 0 < o   . % t * ",
"' t.s.m.'.pXcXNX;.                      M.zXkXkXkXkXkXkXkXkXkXkXtXtXzXzXwX4X).kXmXzXzXzXeXmXxXeXxX7X%XT.S.O.v i - & o 8 % + / % ",
") p.l.c.`.>XbXNXOX^                     B.zXzXtXtX5XwXtXkXkXkXkX4XtXzXmXzXjXeXqXkXzXzXzXhXmXjX7X%X^.Q.U.R.$.m i @ & o 4 = 5 r + ",
"R w.i.k.`.pXfXNXNX0.                    N.NXmXzXzXtXtXkXtXkXzXzXzXtX4XmXmXmXzX7XqXkXkX3X3X7XmX/.-X9X%XR.1.b b 1 - = & X . . = 4 ",
"P w.e.l.K.XXfXNXNX0.                    e y a.zXtXtXkXzXzXzXzXzXmXxX4XmXNXmXzXtXkX7XyX3XrXrXmXhX2X*X&XU.1.b p 1 k 6 t %   % 4 * ",
"P :.p.l.n..XaXMXNX0.                    r.N.OXmXtXtXtXzXzX[.y y zXmXmXmXmXmXjXqX9XzXlXrXzXeX2X(.kX-X#XU.3.n p ; x 7 % . X 4 7 q ",
"K { y.k.J. XpXMXNX0.                    N.NXNXNXzXzXzXzXzXM.  [ mXmXmXmXNXzX7X/.1XhXxXmXxX0XlX0XzX&XU.Z.#.f s a M +   X % * * ^ ",
"R ] y.k.b. XpXMXNXN.I                   N.a.N.NXmXmXzXmX+XI   mXzXzXmXmXmXzXkX^.1XhXzXmXxX0XxXmXhX#X~.R.<.s i < @ & 7 5 %   . . ",
"L ) :.i.m.'.pXvXNXNXN.                  ^ 4 [ NXNXNXmX+X[ [ [ [ 7XeXmXmXzX8XrX7X1XtX6X9XlXnXlXlXU.U.Y.S.2.B c 3 & , % 4 *   o o ",
"G R ] y.l.'.XXbXNXNXN.                      y N.mXxXmXOXa.mXmX[ mXmXzXtXwX8X1X2X6X~.A.!.0XhXlXU.8.6.3.3.T a 1 # +   . 6 % e X   ",
"S E ' q.l.K..XiXNXNXN.                7 A y y a.NXeXhXmXkXeXzXmXmXzXtXyX3X2X3X%X=XW.C.~.*X*X~.8.=.+.+.| d : O . o . . % A z . . ",
"V L ` q.s.n. XiXMXNX[.q               N.NXNXNXmXjX(./.zXrX).1XeXzX1X3X1X-X=X%X!.Y.Z.5.F.R.7.*.%. .} B b 3 - # .   X o t F o     ",
"P J ( 0.p.m.'.:XvXNXNXN.              N.nXlXlXjXqX^.6XmXmXzXzXeXrX/.1X3X/.!.#XT.S.,.+.<.Z.....} } v b m M # . .     o           ",
"C G / ] i.m.K.XXcXNXNXN.              N.nXgX>X*X<X<XrXzXxXzXeX5X4X/.U.Q.U.I.I.j.3.T T ,.O.O.N m v l Q Q 2 # 2 .                 ",
"w D P ] y.l.n. XaXMXNXN.              N.nX,X@XT.Q.Q.6XrXjX1X4X^.D.(.A.F.Y.f.f.j.W Y Y Q @.>.>.j 1 < > k + , )                   ",
"q D L ] q.l.n.'.iXMXNXN.              N.MXgX@XP.<XD.Y.~.~.Y.G.W.9.4.1.3.S.3.2.v.W W Z Q Z Y c a c M 0 J & q =                   ",
"7 V J ` w.p.c.'.:XcXMXNXN.            N.MXaX;XJ.H.Z.3.f.4.1.3.C.<.@.@.@.Z.d.' h.E x C H Z Z 3 ' U % o 9 5                       ",
"8 t D ( w.p.l.'..XcXMXNXN.            B.cXiX}.J.h.d.>.>.+.| +.$.B #.O.-.W Z ! s.Z V z C Z 9 4 = + & % . .         4 .           ",
"5 t D ) 0.e.l.n. XbXMXNXN.            N.MXaXXXK.h.u.>.-.! O.T N T Y c ! K Z ( s.K C z w w 4 * % X   . .   . .   5 7             ",
"5 r V P ] q.g.b.'.sXvXNXN.            N.cXsXsX{.h.e.:.' ! >.-.c Y k x Z C C K :.G C V z w 4 4 * X       . X   X =               ",
"4 q V L ` q.p.m.'.pXbXNXcXr.        r.sXvXiX:X`.k.e.w.' ( Y Q H x 0 w x z C J ] J C V t q 8 4 * + o o X * X                     ",
", 7 t G ( w.p.c.'.:XfXMXNXN.        q [.cXiXpX'.z.u.w.' E E :.H 6 0 w t V D G t.P C V V V 8 4 4 * X   % X                       ",
"& 7 t G ( 0.e.x.`.oXiXNXNXN.          N.MXiXpX'.b.p.e.{ P C C x 4 w w V V D J i.( D C V / 9 4 * % X o .                         ",
"& 6 w D / { q.l.K.oXiXMXNXN.          N.nXsXpX{.n.k.p.' P C t q 9 9 w V A J J p.] J D C J q 8 * % . X                           ",
"% 4 q C P ] q.k.n. XpXvXNXN.          N.MXfXiX.X`.p.q.] ^ D z r 9 w t V D J L c.q.K J C V e 8 4 * q =                           ",
"% 4 q V L ` w.s.b.'.:XvXNXN.          I +XcXfXXXb.l.i.] / J V t w w z V D J ^ m.q.P J C V t q 4 7 %                             ",
"+ * 7 V L ` w.p.m.'.XXcXNXN.            B.MXfX:X`.g.i.0.( K C t q t t V D K P x.e.^ L D V t q 4 = % o     .                     ",
"X * 8 z J ( { p.c.'.XXfXNX[.z           B.MXbXpX'.l.g.w.` L C t w t V C J L P k.q.P P J C z e 8 * X % . . .                     ",
"X = 4 t D ( ] i.l.`..XsXNXNXNX          r.fXvXiX'.m.g.q.] P C z t t V D J P / g.l.^ P J D z r 8 * % X . .                       ",
"X & 4 t D / ] y.l.`.oXsXMXNXNX            N.MXsX Xn.x.e.] P J V t t V D K P P g.b./ P L D z t 8 * % +   .                       ",
"o % 4 q D / ] y.l.B. XiXMXNXNX            N.MXfX Xn.x.e.] / J V t t V C K P / g.b./ ^ L G V t 7 4 % +                           ",
"X % 4 q C ^ ` e.k.n. XiXMXNXNX              0.cXXX'.c.p.0./ J V t z C D K P / p.b./ ^ L J C t 8 4 % + X . .                     "
};
