/* XPM */
static char *result[] = {
/* columns rows colors chars-per-pixel */
"64 64 240 2 ",
"   c #010101",
".  c #0A0605",
"X  c #0C0806",
"o  c #090708",
"O  c #0C0A0A",
"+  c #070708",
"@  c #120D0D",
"#  c #170805",
"$  c #18110E",
"%  c #140F10",
"&  c #151212",
"*  c #1A1515",
"=  c #1E1A1A",
"-  c #1C1817",
";  c #250D07",
":  c #29120B",
">  c #381609",
",  c #221413",
"<  c #241D1C",
"1  c #281A17",
"2  c #381B14",
"3  c #300E0B",
"4  c #23201E",
"5  c #38221D",
"6  c #231F20",
"7  c #242121",
"8  c #2B2424",
"9  c #2E2B2B",
"0  c #2C2628",
"q  c #322C2D",
"w  c #3B2D2D",
"e  c #362724",
"r  c #332E30",
"t  c #353132",
"y  c #3A3335",
"u  c #3C3539",
"i  c #3F3C3C",
"p  c #3D322F",
"a  c #471B0D",
"s  c #491C10",
"d  c #492317",
"f  c #572816",
"g  c #663119",
"h  c #482B26",
"j  c #552D26",
"k  c #43322E",
"l  c #59342A",
"z  c #423C3D",
"x  c #4A3937",
"c  c #563B37",
"v  c #663826",
"b  c #663D32",
"n  c #733B26",
"m  c #48403D",
"M  c #59423F",
"N  c #69443A",
"B  c #764738",
"V  c #7A452D",
"C  c #443D41",
"Z  c #4A3E42",
"A  c #454141",
"S  c #4A4345",
"D  c #4E4649",
"F  c #4E4949",
"G  c #524A4D",
"H  c #564848",
"J  c #554D51",
"K  c #594E54",
"L  c #5B5256",
"P  c #5D5459",
"I  c #5F5F5E",
"U  c #5E504D",
"Y  c #644945",
"T  c #77524B",
"R  c #61565B",
"E  c #65575A",
"W  c #755B58",
"Q  c #724F48",
"!  c #77605C",
"~  c #655B62",
"^  c #695E64",
"/  c #6A5E68",
"(  c #6E6369",
")  c #6F6E6D",
"_  c #696064",
"`  c #75666A",
"'  c #796D73",
"]  c #766A70",
"[  c #7F7E7E",
"{  c #7D7378",
"}  c #5F5E60",
"|  c #844929",
" . c #8E5235",
".. c #A56236",
"X. c #855545",
"o. c #8D5C50",
"O. c #9B6249",
"+. c #936255",
"@. c #9B6557",
"#. c #8A645A",
"$. c #A66B55",
"%. c #AF7151",
"&. c #9B6D63",
"*. c #9D716C",
"=. c #82767C",
"-. c #847A7F",
";. c #987874",
":. c #896966",
">. c #A77668",
",. c #B67A66",
"<. c #A57B76",
"1. c #A26F65",
"2. c #C27C58",
"3. c #9B817D",
"4. c #A78179",
"5. c #B98578",
"6. c #BD836C",
"7. c #C38A78",
"8. c #CE937C",
"9. c #D28F6F",
"0. c #E0A17C",
"q. c #7F7E80",
"w. c #8B7D84",
"e. c #867B80",
"r. c #8E8489",
"t. c #93858D",
"y. c #948384",
"u. c #998B93",
"i. c #9F9D9B",
"p. c #9E9598",
"a. c #9C9C8F",
"s. c #A2939B",
"d. c #A8969D",
"f. c #B79999",
"g. c #AC8A88",
"h. c #AA9AA4",
"j. c #B29EA5",
"k. c #B2A3AC",
"l. c #BAA8AD",
"z. c #BAABB4",
"x. c #BCACB6",
"c. c #BEBDB4",
"v. c #BFBDBD",
"b. c #BEB0B9",
"n. c #B2A7AA",
"m. c #CB9788",
"M. c #D69C8B",
"N. c #C79C97",
"B. c #D39E94",
"V. c #DBA99D",
"C. c #D9A597",
"Z. c #D4A695",
"A. c #E4AD99",
"S. c #E4B49C",
"D. c #E0A78E",
"F. c #D7ABA4",
"G. c #C4AEB7",
"H. c #C3B4BC",
"J. c #CDB6BC",
"K. c #D9B8B7",
"L. c #D0ABA6",
"P. c #EBBCAC",
"I. c #E6B7A7",
"U. c #E7BCB6",
"Y. c #ECB7AA",
"T. c #EDC3AA",
"R. c #ECC6B9",
"E. c #F2C5BA",
"W. c #F5CCBC",
"Q. c #F3C8B4",
"!. c #EED4B9",
"~. c #F3D5BD",
"^. c #F4DAB9",
"/. c #F2D0AE",
"(. c #F6EAB3",
"). c #DFD7AB",
"_. c #CCBBC4",
"`. c #C7B8C2",
"'. c #D4BDC7",
"]. c #CECCCC",
"[. c #CDCAC4",
"{. c #D3C3CC",
"}. c #DCC3C8",
"|. c #DBCBD4",
" X c #D9C9D3",
".X c #DEDCDB",
"XX c #DED9D7",
"oX c #DED8CA",
"OX c #E8C8C4",
"+X c #F4CCC3",
"@X c #FACEC4",
"#X c #F0C7C2",
"$X c #ECD5C5",
"%X c #F4D4C3",
"&X c #F6DCCB",
"*X c #FADCCB",
"=X c #F9D8C6",
"-X c #E1CDD5",
";X c #E3D3DC",
":X c #EAD8DC",
">X c #F7DCD4",
",X c #F5E3CC",
"<X c #FAE4CD",
"1X c #F6E8C7",
"2X c #FAF7CD",
"3X c #F9F6C7",
"4X c #F6E5D2",
"5X c #FBE4D2",
"6X c #F6ECD4",
"7X c #FBECD5",
"8X c #F6ECDA",
"9X c #FBECDB",
"0X c #FAE5DA",
"qX c #FBF4D5",
"wX c #F6F3DC",
"eX c #FBF3DC",
"rX c #FCFBDC",
"tX c #FAF9D3",
"yX c #EDE3D5",
"uX c #E6D6E0",
"iX c #EBDCE4",
"pX c #E9DBE5",
"aX c #F1DFE7",
"sX c #EEE2EA",
"dX c #EEEBE6",
"fX c #FCEDE2",
"gX c #F3E4EC",
"hX c #F6E8E7",
"jX c #FBF5E4",
"kX c #FDFBE4",
"lX c #FBF6EA",
"zX c #FDFBEC",
"xX c #F6F2E6",
"cX c #F6EAF1",
"vX c #F9EDF4",
"bX c #F6E6F0",
"nX c #FBF2F5",
"mX c #FDFCF3",
"MX c #FDF4FA",
"NX c #FEFBFC",
/* pixels */
"pXnXMXNXNXNXNXNXvXcXgXuX X|. Xk.G.K.L.w.X.Y #.X.O.O.$.2.9.T.R.I.U.V.,.@.T Y x e 8 1 % % 1 8 Z 6 @ . - # 4 i             . +     ",
"uXcXMXNXNXNXMXNXMXbXpX;X{. X X_.U.}.K.K.w.o.O. .O.2.2.9.S.hXmXlXmX+X8.>.#.T c k 5 , % % 6 h O # . . @ J { t .           +     + ",
"uXcXMXNXNX) h.MXvXgXpX|.'. X{.'.OXU.U.U.Y.<.$.%.2.9.D.Y.6XmXmXNXNX>Xm.%.+.T Z j 5 1 , 8 8 , 1 $ . . . * G S q +   +   . . +     ",
";XgXMXNXNX]..XMXvXgXuX'._.'.'.'.}.U.U.U.U.Y.A.M.Y.Q.*XMXmX].i i mX4XD.,.@.X.N l h 5 h 2 ; # ; 6 1 . * 6 O y u . +   +         + ",
";XgXMXMXNXNXNXMXvXsXuX'.`._.`.z.G.U.#X#XE.E.W.%X9XjXxXmXmXdXc.v.mX*XA.,.$.X.Q b l l d a > c 5 ; ; @ 5 y & u 4 O X +           + ",
";XgXMXNXNXNXNXMXvXaXuX_.`.`.`.j.g.U.+X#X@XE.=XeXjXmXzXnXlXmXmXmXmX7XY.8.,.@.O.@.+.n v f s a > 3 ; 1 k U X O X < &               ",
"|.gXvXNXNXNXNXMXvXbX;X'.`.H.x.j.g.#X@X@X@X@X*XeXlXNXlXmXmXlXzXkXmXjX=XY.V.7.>.V.V.@.| n g f f > ; x 5 m $ . $ y i               ",
"|.gXnXMXNXNXNXMXMXcXiX{.`.G.x.h.f.+X@X@X@X*X&X4XkXmXmXmXmXmXzXdXmXzX0X*X%XY.E.@XE.V.7. .| | | f s > : , X 4 < . * y &           ",
" XgXvXNXNXNXv.v.MXcXiX|.H.G.G.f.K.+X@XP.*X5X9XkXc.v.mXzXzXmXmXmXmXhX0X%XE.S.5X<X*X=XY.M.,.$.$.| g s > ; # # O .   X A ( O       ",
" XgXnXNXNXNXq.[ MXvXbX|._.G.G.N.OX5X5X~.7X*X9XmXc.v.mX9X5XlXmXmXmXmXjXeX5XQ.Q.7X=X<X*X+XE.Y.9.O.6. .f > ; 4 p @ O . * = & +     ",
" XgXnXNXNXNXq.I .XMXbXuX'.J.J.N.U.,XwX7X7X9X$Xc..XmXmX9X=X4XzXmXmXmXjXjXjX1X=X7X*X5X7X9X*X@XP.7.Z.6.n v 2 k k 4 + & = & -   +   ",
"|.bXnXNXNXNX[   } .XvXsXOX'.}.L.U.jXkX8XjXzXi.6 [ zXlXjX1X*X5XzXv.mXzXzXlXeXqX5X<XeXjXlXjX>X*XP.6. . .v d 5 5 8 . * @ + 8 + + + ",
"|.gXvXNXNXNXq.    q.MXcXiX}.}.Y.>XkX8X*X5XjXzXd.i.zXjX5X5X7XeXmX  xXmXmXzXxXeX7X<XlXdXc.c.kXjX0XD...| g f 5 h w + X   O O + +   ",
" XgXMXNXNXNXq.    ~ ].MXbX:XaXaX$XlX%X+X*X=XwXlXkXlXeX7X<XjXmXmXm mXmXmXmXzXxXkXkXmX].9 i zXmXzX^.6...n s 3 ; 5 t O 9 8 O +   O ",
"|.gXvXNXNXNX[       i NXnXMXMXhXF.eX,XE.+XE.*X9X9X7X5X7X4XxXNXdXmXmXmXNXmXlXxXjXmXmXmXc.i mXNXzXS.%...n f > # M 4 * C r & .   = ",
"|.gXMXNXNXNX[         i NXNXMX0XOXjX>X@XE.@X<XeX0X0X9XjXxXmXmXmXmXmXmXi c.mXzXmXmXmXmXc.i NXmXxX/.2...| g a 2 ; . & t O   +   + ",
" XgXMXMXNXNXe.                nXxX0X*X@X@X>XlXmXmXmXmXzXmXmXNXmXmXzXzXzXmXmXmXmXmXmXmXNXNXmXmXmX(.0.%. .n v > ; . . $ @ o 7 + & ",
" XgXnXNXNXNXq.            i NXmXnXlXfX>X>XmXmXNXNX[ i NXlXlXmXmXxXzXi + c.xXlXmXmXmXmXmXmXmXzXkX3XQ.M... .X.b h 1 * . . = R z * ",
"{.aXMXNXNXNXq.            i NXNXNXhX0XfX>XfXNXmXNX.X].zX[.) mXmXzXmXi r.dXzXkXmXi.i.mXkX8XwX,X8X*XE.A...| n f l , , @   @ i C & ",
" XaXMXMXNXNX[             i nXnXmXlXfXfX9XzXNXNXi.i ) mXc.O i mXmXzX[.dX) [.mXmX.XoXkXkXqX=X^.<X=X=XQ.8.$.n v s ; # , .     8 % ",
" XiXvXNXNXNXq.            i NXNXNXlXfXfX9XlXmXmX[ I ].NXv.9 c.mXxXzXzXzX[.dXkXkXkXjX7X7XeX=XQ.1X5X5X<XE.m.$.v f ; # # X + - &   ",
"'.iXvXNXNXNXq.            % i i C mXmXkX6XlXlXmX.X.XmXmXdX].mXmXxXzXxXzXmXmXkXjXtX2XqX7X1X,X,XwX5XW.4X&XA.>.n s 3 # $ - * A r @ ",
"'.pXvXNXNXNX[                   q.q..XzXeXjXjXmXmXmXrXwXzXmXmXmXzXzXwXkXmXmXmXkXqXeXkXjX,X4XqXqX7X,XjX4XC.5.X.f j ; X   O r 9 O ",
"'.iXcXNXNXNX[                   q.  I .XmXkXrXrXrXxXtXxXmXzXmXzXmXmXzXzXmXkXzXmXkXzXmXzXmX9XeXeXeXR.$XZ.m.7.1.n l # # @ =       ",
"_.:XbXNXNXi.i             4 q.  [   I .XmXkX3XtXrXkXkXkXzXmXzXzXkXmXzXzXmXkXkXc.c.zXxXwX.Xa.kXjX9X7X*XU.V.C.F.&.d # . . . X .   ",
"_.:XbXMXNXi               = q.  [   v.NXmXzXrXkXtXkXzXkXkXzXmXmXNXmXmXzXmXkXkXc.c.mXzXmXXXi.mXkXeX5X=X@XE.P.V.>.s # X . . @ o . ",
"J.:XgXNXNX) 4                       v.NXmXzXkXrX3X2XkXkXkXmXmXNXmXmXzXkXmXmXzXmXmXzXxXzXzXmXmXmXkX<X@XU.I.C.V.1.3 # 1 $ . F F < ",
"J.-XgXNXNXNXq.                      c.mXkXkXtX(.3X2XrXzXmXmXmXzXmXmXkXkXzXzXzXzXmXmXzXmXmXNXNXmXmX5XW.F.F.5.&.f 3 1 w 9 @ @ z A ",
"G.|.aXMXNXNXq.                      v.mXzXkX2X3X2XrXkXzXmXmXmXmXmXzXkXzXzXzXkXzXmXzXjXzXNXzXmXmXmX0XQ.7.$.B l d h U 8 m @ @ q z ",
"G. XiXMXNXNXi.=                     H.mXmXkX3X(.2XkXkXkXmXmXNXmXc.zXzXkXkXkXrXmXzXrXkXmXmXlXlXzX9X=XS.,.O.B N d 5 U H t * m y @ ",
"G.|.iXnXNXNXNX[                     v.lXkXkXtX(.(.rXrX3XqXNXmXmX  zXkXkXkXzXzXmXzXzXlXmXmXmXjX6X$XQ.A.8.+.X.#.d $ U p S O X $ . ",
"x.{.:XvXNXNXNXr.                    v.rXrXrXrX2X2XkXrX(.tXzXzXmXzXmXzXmXmXkXzXmXzXwXjXxXmXmXmXeX^.I.M.6. .B N 2 , , H q @ y z 7 ",
"H.{.;XnXNXNXNXq.                    v.zXkXtXtXkXkXmXkXkXkXkXkXmXmXmXmXmXmXmXmXmXmXkXlXkXzXlXxX6X/.P.V.C.$.b b b w o * C o o F & ",
"k.{.pXnXNXNXNXq.                        c.tX2XkXkXkXkXkXkXkXkXmXmXmXNXmXwXkXmXkX2X6XkXzX6XjXlX,X!.$XI.m.7.X.s 2 e 9 * $ + + r - ",
"k.{.;XcXNXNXNXq.                        c.rXrXkXzXkXrXkXmXzXzXmXzXkXmXmXxXtX2X^.1X1XeXjXxXmXlX$X9X9X!.M.C.+.s 2 1 6 @   + + 7 L ",
"k._.;XbXNXNXNXq.                        c.mXkXkXrXrXkXkXzXmXzXmXkXrXmXmXxX6X^.1XqXlXkXeXwXmXzX&X5X&XI.V.g.X.d 2 $ < @ . = O y u ",
"h._. XsXMXNXNX.XI                       r i i.kXrX2XtXkXmXzXzXzXtXxXzX) [.kX2X7X9XjXkX1X6XkXmX8XT.S.I.Y.>.l j h # * % & 8 & t 9 ",
"s.H.{.sXnXNXNXNX[                           q.mXzXtXrXmXzXzXmXzXmXwX1X[.dXmXzXxXmXlXzX,X!.$XzX8X$XW.E.F.<.v a : e 4 8 9   + % 7 ",
"s.b.{.iXMXNXNXNX[                       _ [ v.mXzXkXkXzXkX.X[ mXmXkX2XmXNXmXzXzXmXzXmXmXjXjXmXxXwXY.I.B.1.f > # m x r 7 + % 7 i ",
"s.G. XiXMXNXNXNX[                 q.=   v.NXNXNXkXc.a.zXXXI   mXmXmXmXmXmXzXjX4XyXmXmXmXlX8XyXS.5XE.Y.B.>.b a 1 p - X +   9 = q.",
"u.n._.;XnXNXNXNXq.                [ 4   v.NXNXNXmXc.q.[ I     mXmXmXlXwXeXeX,XQ.<X~.W.=X5X>XxXxXS.I.F.5.&.N ; # 4 @ & - + O   & ",
"t.l._.;XvXNXNXNXv.i                     v.i.v.NXNXNX.Xq.[ [ [ NX6X8XkXrXqX7X7XQ.S.Y.M.Y.E.@X4XI.,.5.,.>.#.d ; # 1 4 = - 4 + O + ",
"t.k.H.|.bXNXNXNXNX[                   9 ].) i.mXNXzXlXmXmXNXmXmX6X6XjX7X<X%X=XR.Y.Y.9.Y.P.U.I.7.O.O.X.X.l k : q * X   - t       ",
"w.d.x. XsXNXNXNXNX[                 9 ].cXvXmXmXjX/.^.zXzXmXmXmXlXwX,X!.W.+X%XR.I.7.%.C.F.5.>.@.| X.B l h 5 8 * . O . @ & 4 4 + ",
"e.s.k._.pXMXNXNXNXq.                H.vXhX0X0X5X7X/.=XkXwX9XjXqX5X6X,XT.P.U.U.I.N.1.X.$.@.X.| n B N f M 5 X X     . + 4 u P * + ",
"e.p.k.`.uXvXNXNXNXi.r               v.cX:XOXU.E.$XR.$X5X=XT.Q.!.1XR.P.Q.P.N.F.F.g.o.T Y N b l j f 2 3 : k # .     + + - 9 @     ",
"' u.h.`.XXvXMXNXNXNXv.              v.bX:XU.L.L.N.I.~.*X^.W.^.*X<XP.Z.C.A.1.*.f.*.Q H ;.:.l d 2 l : 5 e m $ .       @         + ",
"' w.h.`. XbXMXNXNXNXv.              H.vXuX_.G.N.N.m.V.P.T.I.I.E.Q.M.,.5.m.<.:.f.W H x c Q x H h 1 p M ` D . z *                 ",
"] w.p.z.{.pXMXNXNXNXv.              v.nXsX_.G.f.J.4.&.>.<.$.@.5.1.+.+.&.*.<.w.u.H x x x H H x e $ S * t 7 4 S                   ",
"/ e.u.k.`.uXcXMXNXNXNXv.            v.nXbX XG.j.l.g.4.;.#.@.1.1.v B Q #.:.<.#.d.( R C D w q 1 E y.i 1 z q @ O                   ",
"~ e.w.k.`.;XsXMXNXNXNXv.          v.sXnXgX{.l.s.y.3.` T N b Q 3.v N Y W y.! E d.R Z z Z J x 6 x S O . 4 A   +         +         ",
"R { w.h.b. XpXMXNXNXNXv.          NXNXvXpX{.l.s.w.] W U H l c l l c Y ! :.Z J s.K z z Z D 0 6 6 & O @ . & .   + + t @           ",
"L ] w.s.x.'.uXvXNXNXNXcXt.        NXMXcXpX;X_.j.w.` ^ H H W Y h k k x E U Z Z e.( G Z z r 9 6 = @ O O +   .   O 4 = +           ",
"J / { u.k._.|.cXNXNXNXNXv.        NXMXcXaX|._.k.y.' ^ K E H Z k z w w x C Z G w.` S Z z u 9 6 = @ O o + O & + O O +     +       ",
"J ~ { u.h.`. XsXMXNXNXNXv.        MXMXbXpX|.`.h.y.' ^ E U Y ^ x w q w z Z S G t.] G Z C u 9 0 = & @ + O 8 +     +           +   ",
"Z ~ ] w.h.b._.pXnXNXNXNXv.        MXMXbXiX X_.h.u.' ( R D D E x 6 q r C Z G J w.=.G G S D u 9 9 7 * O O O   +                 O ",
"Z L / e.s.x._.uXvXNXNXNXv.        MXMXcXpX X_.h.s.e.w.P Z r 0 0 0 w y C Z J K w.r.L J D / i r 0 - O o       .           +       ",
"C J / q.u.k.`.|.gXNXNXNXv.        MXNXbXpX|.'.j.u.e.] P Z u 0 0 0 r y Z G K P s.s.R L G J u r 0 = * = +                       + ",
"u J ~ q.u.k.b. XgXMXNXNXv.        NXNXbXpX|.{.k.s.e.] P Z C r 0 0 y C Z G L P h.k.~ P J D i y 9 0 r = o   +   O                 ",
"y G P ' t.h.x. XaXMXNXNXv.        v.sXcXaXXX Xx.u.e.' ~ Z u r 9 0 y z Z J P ~ u.x.~ } L G A u 9 r - & . . .                     ",
"t D P ] r.h.z._.pXvXNXNX].r         v.vXbXuX'.x.s.w.q.~ J C t 9 9 u C D K ~ ~ w.x./ ~ P K Z i r 6 & @ +   . +                 + ",
"r Z K ( w.s.j._.uXvXMXNXNXv.        v.MXbXpXuX`.s.w.q./ J C u 9 9 u C D L ~ / u.`.( / ~ K D C r 0 - % + + .                     ",
"9 C J ( e.u.k.`.XXbXMXNXNXv.        v.NXbXpXuX`.k.w.' / K C u r r u C G L / / w.].( / ~ L G C y 0 = & o +                       ",
"9 i G / =.p.h.`.|.bXMXNXNXv.          `.vXgXuX_.k.w.e./ L C u r t u C G P / / w. X' ( ~ P J Z y 0 = & o . +                     "
};
