/* XPM */
static char *result[] = {
/* columns rows colors chars-per-pixel */
"64 64 238 2 ",
"   c #010101",
".  c #0A0504",
"X  c #0A0709",
"o  c #0C0A0A",
"O  c #0B0708",
"+  c #130A06",
"@  c #120D0D",
"#  c #1A0E0A",
"$  c #1A0805",
"%  c #19110F",
"&  c #151213",
"*  c #1A1514",
"=  c #1D1A1A",
"-  c #1B1718",
";  c #250D06",
":  c #2A130D",
">  c #36150A",
",  c #211512",
"<  c #231D1D",
"1  c #2C1D1B",
"2  c #271715",
"3  c #371C16",
"4  c #2A201E",
"5  c #36221D",
"6  c #221F20",
"7  c #252222",
"8  c #2A2425",
"9  c #2E2B2B",
"0  c #2D2728",
"q  c #342522",
"w  c #332926",
"e  c #322C2D",
"r  c #3A2A28",
"t  c #342E30",
"y  c #382F30",
"u  c #353132",
"i  c #3B3435",
"p  c #3E3A3B",
"a  c #3D363A",
"s  c #34312E",
"d  c #461C0D",
"f  c #411B11",
"g  c #482318",
"h  c #582917",
"j  c #67311C",
"k  c #6A3219",
"l  c #472C26",
"z  c #542D25",
"x  c #4B312C",
"c  c #5B3528",
"v  c #433433",
"b  c #413E3E",
"n  c #48393A",
"m  c #563934",
"M  c #6A3928",
"N  c #763D23",
"B  c #653D33",
"V  c #49403E",
"C  c #5A413B",
"Z  c #7D432B",
"A  c #67423A",
"S  c #77483B",
"D  c #7E431E",
"F  c #423E41",
"G  c #493E42",
"H  c #4A4345",
"J  c #4E4549",
"K  c #474243",
"L  c #534444",
"P  c #534B4D",
"I  c #5B4846",
"U  c #594E53",
"Y  c #564D51",
"T  c #5B5255",
"R  c #5D5459",
"E  c #5F5E5E",
"W  c #565253",
"Q  c #674B47",
"!  c #754B42",
"~  c #79554B",
"^  c #64595D",
"/  c #665657",
"(  c #775954",
")  c #6E514B",
"_  c #695D63",
"`  c #665B61",
"'  c #6D6668",
"]  c #766768",
"[  c #7A6C72",
"{  c #7F737A",
"}  c #7F7E7E",
"|  c #7C7175",
" . c #6F6160",
".. c #8E523B",
"X. c #975838",
"o. c #85492E",
"O. c #A2623B",
"+. c #85564A",
"@. c #8B5D52",
"#. c #8A635C",
"$. c #996558",
"%. c #A76B58",
"&. c #B8795A",
"*. c #AE6C4B",
"=. c #856664",
"-. c #837B7E",
";. c #887579",
":. c #92716F",
">. c #A87569",
",. c #B57A68",
"<. c #A77C74",
"1. c #A36F62",
"2. c #C17C59",
"3. c #B5847A",
"4. c #B58675",
"5. c #8A807F",
"6. c #C58B77",
"7. c #D09074",
"8. c #7F7E80",
"9. c #897C83",
"0. c #8D8287",
"q. c #92848B",
"w. c #9A898A",
"e. c #9A8B92",
"r. c #9F9E9D",
"t. c #9F9198",
"y. c #A88988",
"u. c #BB8C85",
"i. c #A8959A",
"p. c #B79898",
"a. c #BB958C",
"s. c #AB9BA3",
"d. c #A798A0",
"f. c #B49FA6",
"g. c #B4A4AD",
"h. c #B9A4AA",
"j. c #BAABB4",
"k. c #BFBDBD",
"l. c #BEB3B8",
"z. c #AEA0A7",
"x. c #C89589",
"c. c #D49C8B",
"v. c #C99B93",
"b. c #CB9689",
"n. c #D4A39A",
"m. c #DAA699",
"M. c #CEA19A",
"N. c #E2A799",
"B. c #E9B49C",
"V. c #CAA8A7",
"C. c #D8ACA5",
"Z. c #DBB2A8",
"A. c #C2AEB6",
"S. c #C2B3BD",
"D. c #C7B5B9",
"F. c #DAB7B5",
"G. c #E3ADA4",
"H. c #E9AEA3",
"J. c #E3B2A5",
"K. c #EBBBAD",
"L. c #E8B7A9",
"P. c #F1BEAD",
"I. c #E4BCB5",
"U. c #EDBDB3",
"Y. c #E5B9B3",
"T. c #F3BEB3",
"R. c #EDC3AB",
"E. c #F1CBA7",
"W. c #EDC5B6",
"Q. c #F2C3B4",
"!. c #F4C4BA",
"~. c #F5CBBB",
"^. c #F5CAB9",
"/. c #F3D2BC",
"(. c #F6D5BC",
"). c #EFD1B4",
"_. c #F5EDB5",
"`. c #CBBBC5",
"'. c #C8B9C3",
"]. c #D8BEC2",
"[. c #CECBCB",
"{. c #CEC8C9",
"}. c #D2C3CC",
"|. c #DAC5CC",
" X c #DACAD4",
".X c #D8C9D2",
"XX c #DEDCDC",
"oX c #DEDBD7",
"OX c #DEDACB",
"+X c #EBC9C4",
"@X c #F5CDC3",
"#X c #FACEC4",
"$X c #F4D4C3",
"%X c #FAD3C4",
"&X c #F6DAC5",
"*X c #F6DACC",
"=X c #FADCCB",
"-X c #F9D6C8",
";X c #E1CED6",
":X c #E3D3DC",
">X c #ECD8DC",
",X c #F6DCD4",
"<X c #EDD5C5",
"1X c #F6E3CD",
"2X c #FAE2CE",
"3X c #F5E8C8",
"4X c #F8F5C8",
"5X c #FBE4D3",
"6X c #FAEBD4",
"7X c #F5EDDC",
"8X c #FAEDDA",
"9X c #F6E8D5",
"0X c #FCFBD5",
"qX c #F6F2DB",
"wX c #FBF3DD",
"eX c #FCFADC",
"rX c #F9F4D6",
"tX c #EFE6D9",
"yX c #EBDCE5",
"uX c #EADAE4",
"iX c #EEE2EA",
"pX c #EFEBEA",
"aX c #F2E4EC",
"sX c #F4E9ED",
"dX c #F9EDE6",
"fX c #F6F4E4",
"gX c #FCF4E3",
"hX c #FDFBE4",
"jX c #F7F4EA",
"kX c #FAF6EB",
"lX c #FCFBEC",
"zX c #F6EAF1",
"xX c #F9EDF4",
"cX c #F5E6F0",
"vX c #FBF2F5",
"bX c #FDFCF4",
"nX c #FDF4FA",
"mX c #FEFCFC",
/* pixels */
"mXmXmXmXmXnXzXyXuX.X.X.X.X'.d.f.V.F.V.y.=.A B N +.*.*.2.7.~.*X+X~.Y.,.$.( Q Q / G g 3 3 , X . & O . O * = O       .   . O   .   ",
"mXmXmXK S.nXxXyX X.X`..X}.'.f.D.].Y.I.C.9.! N +.*.2.7.7.K.gXtXvXjX*Xb.1.( Q G v r q 1 , , % n J @   & - o < o                   ",
"mXmXmX[.pXnXnXyX X.X`.`.`.'.j.C.F.F.C.F.N.1.1.*.2.7.P.-X8XlXfXbXbX*Xc.1.@.) A v r 1 2 , , w 6 & *   O s s P =                   ",
"mXmXmX' }.nXnXyX:X`.`.`.'.'.f.f.V.F.C.I.T.L.n.7.P./.kXnXbXvXbXbXbX$Xc.&.$.! Q m x 5 3 2 5 , , , +   . 8 T W = o O               ",
"mXmXmXF k.nXnXiX:X'.'.j.S.l.s.9.v.Y.I.I.U.K.K.+X9X9XlXmXbXbXbXbXkX#XN.2.%.+.S B m z z z > ; $ 1 , . . 4 @ e u o                 ",
"mXmXmXF 9 [.nXcX:X`.j.g.g.g.i.;.9.Y.I.I.U.U.%X2XqXhXjXvXlXbXgXbXkX,XT.b.,.$.+.$.$.B c h d g 3 > ; # * v + 0 s   . .             ",
"mXmXmXF   k.nXzX:X`.'.s.g.f.d.;.y.I.!.U.!.!.=X&X1XjXjXbXkXbXhXbXbX8X,XL.N.b.<.n.C.<.o.k j M h > : 1 q n , 4 - & & o             ",
"mXmXmXF   k.nXxXyX X'.g.f.d.i.:.p.I.@X@X@X#X=X2X7XbXbXjXjXnXbXbXnXkX,X@X@X!.U.!.U.J.x.@.o.k j h d > 3 I -     4 - X             ",
"mXmXmXr.6 E k.vXcX X`.'.z.d.i.9.F.@X#X@X%X%X=X2XkXmXgX6XwXbXmXkXbXbXwX2X%X~.<X=X=X=X#XG.6.,.X.N h d g : $ @ w & s 7 O   .       ",
"mXmXmXr.6   8.nXxXuX].'.g.s.p.x.-X=X=X*X-X^.&XrXk.D.kX5X=XgXlXjXbXkX8X8X5XR.&X5X-X=X-X#X!.U.m.%.o.k d > $ * .     = u F & O     ",
"mXmXmXF     E XXxXiX;X`.A.A.p.9.+XwX6X$X5X5XwXOX} r.bXgX=X=XgXbXbXdX8XwX2XL.2X2X=X=X,X,X-X!.T.b...o.M d ; # % O o . & W 0       ",
"mXmXmXF       E :XxXyX.XA.V.V.b.W.gX8X$XgXlXbXi.r.lXbXgX2X=X6XbXbXbXgXgX6X/.%X2X&X5XgXlXgX-X#XT.x.7.X.j 3 5 v w o o & - & . o   ",
"mXmXmXF         E oXzXuX|.].].M.$X9X<X@X$X5XkXbXbXbXlX5X&X=XgXmXk.lXfXbXlXqX6X8X6XgXbXbXbXlXlX5XR.4...Z h 3 2 r X & = . 6 & .   ",
"mXmXmXF           8.vXaX;X+X>X>XgXgX@X!.!.T.%XkXqX8XwX2X%X5XgXbX  bXlXbXmXlXhXlXbXbXbXbXkXbXbXdX/.&.X.k g g 4 q . . . . o o   . ",
"mXmXmXF           8.nXxXaXdXxXxXkXgX,X~.U.H.T.2X(.%X*X6X*XgXjXbX  lXbXmXbXbXlXlXkXbXmXlXjXbXbX8XE.*.X.N h 3 2 s o .   o o O     ",
"mXmXmXF             F mXnXnXvXdXlX9X~.Y.G.L.^.%XR.Q.2XhXkXbXbXmXbXbXbXmXmXmXbXbXbXbXbXS.F lXmXfX).&.X.D h > $ 4 W o = @ 6 o   O ",
"mXmXmXb                   p mX+XI.@XY.n.H.!.-X-X6X6XgXbXbXbXbXjXmXjXbXmXmXbXbXbXbXbXkXl.  b bXlXQ.7.O.o.j > ; ; % & 6 W @       ",
"mXmXmXb                   b bX+X+X+XY.G.J.!.=XgXlXbXbXnXmXmXmXbXbXbXbXbXmXbXbXbXbXbXlXlXlXkXdXgXE.&.X.o.j z g $ . X - a o o   X ",
"mXmXmXb                 s [.sX>XxX*XY.H.K.=XgXbXr.r.vXbXbXbXmXbXbXbXjXbXbXmXbXbXbXbXbXlXhX5X5X9X(.4.2.o.N ! Q : . + o * o t 7 t ",
"mXmXmXF                 F vXsXdXjX,X^.P.Q.gXlXnX} 5.mXbXbXlXbXbXhXjXbXlXbXlXhXbXbXbXlXhXwX%X(.2XQ.P.K.6.@.S Q 3 1 * % X X u K 6 ",
"mXmXmXF                 b mXvXvXkX5X(.Q.Q.5XhXhXoXoXmXbXbXlXfXbXbXgXkXlXbXbXlXbXlXhX6X6X1X=XW./.(.~.!.L.u.@.z 3 # % o .   o 6 7 ",
"mXmXmXF                 @ b b F nXbXwX2X~.6XwX8XkXbXbXbXbX[.b bXbXqX8XhXbXbXmXbXhX3X6X6X6X2X2X=X%XT.U.T.n.:.A 3 , O . .   @ & - ",
"mXmXmXr.=                       mX-.oXeX=X3XrXgXhXhXeXqXbXoX} bXbXgXwXgXbXbXbXbXlXhXkXlXlX8X&X/.%XQ.U.U.v.<.! f $ . O o   - F   ",
"mXmXmXr.7                       mX  E :XlX6X3XhXhXwXeXeXbXmXbXhXgXbXbXbXlXlXhXeXbXbXbXbXqX8X1X&X5X2X-XC.3.>.$.A : + o * @ * W o ",
"mXmXmXr.7                 = 8.  mX  E oXhXwX4XhXlXlXlXhXbXbXmXbXbXlXlXhXlXhXhXlXbXmXbXbX3XtXhXwX5X=X#XJ.v.u.u.x.) * . . * o   o ",
"mXmXmXmXp                 F mX  }   k.bXlXlXhXhXeXhXlXlXlXbXbXbXbXbXbXlXlXlXhXbXbXbXbXbXbXjXlXhX5XJ.K.n.m.n.v.v.(   . . * .   . ",
"mXmXmXmXK                 K mX  b   k.mXbX0X4X0X0XhXhXhXkXbXbXbXbXbXbXbXlXlXlXbXbXbXlXqXbXmXbXlX8X%XT.H.v.b.v.y.3 . . . . . X   ",
"mXmXmXmXp                 9 k.  k.  k.mXlXeX0X0XeXlXlXlXlXbXbXbXbXbXlXlXbXbXbXlXbXbXkXhXbXbXmXbXkX=X#XG.<.1.#.x $   O     - a o ",
"mXmXmXmXF                           k.bXlXhXeX0X4XeXhXhXhXbXbXbXlXlXlXlXbXlXbXbXbXbXlXlXlXbXmXnXbX%XQ.c.1.S M ; $   4 - & & u 9 ",
"nXmXmXmXF                           k.bXbXhX0X0X4XhXeXlXbXbXbXlXbXlXhXhXlXhXlXbXbXbXlXbXmXmXbXbXkX%XP.3.$.M h ; # * - V -   o [ ",
"mXmXmXmXb                           k.bXlXhX4X0XrXhXhXlXbXlXlXbXlXlXlXlXlXlXlXbXbXbXbXbXmXbXbXgX5XQ.N.%.Z j c : 5 4 y i & & & F ",
"nXmXmXmXF                           k.bXhX0X4X4X0XlXlXhXlXbXbXbXbXbXlXbXbXbXeXlXbXlXlXbXbXlXgX6X^.N.b.*...S M x $ n ^ P * 9 P @ ",
"nXmXmXmXp                         mXmXhXhX0X4X_.4XhXhX4X0XlXbXbXbX  k.bXbXlXlXbXeX_.7XbXmXbXkX7X/.^.H.R.4.~ ) g # w i * % o =   ",
"vXmXmXmXK                         mXmXrXhXeXeX_._.hXeX_.eXhXqXbXbXbXmXbXbXlXlXlXlXgXgXjXbXmXbXgX2X%X#XY.M.#.g m * w s P & = K s ",
"xXmXmXmXp                         b [.gXlXhXhXeXhXhXhXhXbXkXlXbXbXmXbXbXbXlXlXrXhXlXlXkXlXbXjX9X/.W.H.n.v.+.d x r = & 9 & o s p ",
"cXmXmXmX[.s                         k.bXhX4X4XhXhXhXlXlXlXbXlXbXbXbX' [.bXbXhX6X6X6XwXwX7X8XlX*XB.K.m.u.>.B g 3 5 4 8 o     @ p ",
"pXmXmXmXmXF                         9 K [.hXfXlXhXeXhXbXbXbXbXmXbXlX[.pXqX7X3X(.).).3X6X&XgXjX$XR.K.K.n.>.S 5 3 O 4 &   X o & | ",
"aXmXmXmXmXb                       k.k.s k.lXhXlXhX0XhXlXbXbXbXbXlXlXbXbXbX9XE.(.gX7X8XrXtXlXlX7X%XK.J.v.>.! g , @ o O o -   o E ",
"iXnXmXmXmXK                       mXmXb k.mXmXbXeXrXeXbXbXbXbXbXfXqXlXbX7X*X).gXbXbXbXfXhXbXbXpX~.c.x.u.#.B z V . < & 0 & & 6 9 ",
"yXnXmXmXmXp                     8.8.8.6 k.mXmXmXbX_.4XlXbXbXbXbXfXfX3XhXlXhX7XqXgXpXgX1XR.W.8XkXL.J.G.x.#.C : + n s & J o 6 @ & ",
"uXxXmXmXmXF                     }       k.mXk.k.mXlXkXbXlXoX} kXbXgX(.rXwXwX8X6X5X$X^.Q.H.!.5X<Xc.m.C.a.#.~ 5 . i V u o O & 7 0.",
":XxXmXmXmXr.F                         ^ XXr.8.k.jXbXbXbXbXk.  bXlXbXlX6X6X5X/.!.^.K.7.N.Y.G.L.,.%.4.4.4.=.m * 4 9 4 . . O = & p ",
" XzXmXmXmXmX8.                      9 [.mX' r.mXlXkXgXlXbX{.b bXbXlXwX1X&X&XW.J.Q.N.6.m.H.b.M.,.....S ~ ) 2 @ o @ - & = O O . . ",
".XcXvXmXmXmX8.                      k.jX7XdXbXkX8XE.E.gXbXbXbXbXgX1X2X6X/.%X~.J.x.,.$.6.v.>.1.N k A h C : + .   9 & * 4 = @   O ",
"}.yXxXmXmXmX8.                    V }.aX@X@X,X@X2XE.(.6XhXlXlXgX).Q.&X$X!.Z.n.C.<.$.+.+.+.B B j g C z r $ = @ @ & . . & P 0     ",
"`.uXzXmXmXmX8.                    nXxX>X+XZ.C.Z.W.&X1X=X6XrX6X2X3X~.R.G.J.3.3.V.#.Q B G x c z m 3 > 5 5 4 s * s & o O o 7 o 7   ",
"'.XXcXmXmXmX8.                    nXxX>X].F.v.p.x.C.%X&X$X/.(.(.%X!.G.c.c.<.<.p.Q A Q ) x q 5 5 5 w 5 V P * O 7 . o . . . i ' . ",
"'. XiXnXmXmXmX8.                  mXxXuX].V.v.9.3.v.m.J.K.n.x.c.^.R.x.>.a.#.( y.:./ G n y q 6 r # / 4 # p * o .     . = J E o   ",
"j..XyXnXmXmXmX8.                  mXxXyX}.h.i.y.:.:.$.u.v.3.$.>.,.$.+.~ 4.#.#.h.i.U F ;._ G r 6 4 4 7 4 - o . &     & o         ",
"j..XyXvXmXmXmX8.                  nXnXiX Xh.i.p.p.=.) ! +.! S @.S A ( ( C ( ;.e.( G a n ] G G 6 % V s E T o V 7                 ",
"j..XuXxXmXmXmXXXE                 mXmXcX;Xj.i.t.S.=.=.( B ! B +.B ( ( #.L ( =.w.^ G F G G y y r 0 ] 4 s E & K                   ",
"g.`. XzXmXmXmXmX8.                mXnXxX:XS.z.e.i.w.=.( Q ( =.:.A ) C I ] ;.^ t.[ _ J G i 0 6 G 5.i o 4 K o o                   ",
"s.'. XcXnXmXmXmX}                 nXnXzXuXj.s.q.[ ' / m r q q ( 5 m C / ] Q P w.;.G G G G a 9 6 9 o o 6 W X . o     .           ",
"d.S.}.iXnXmXmXmXXXE               nXvXcX Xj.d.9.[ _ U n v v v q 4 v I ] :.G L 9.-.H G b G t 0 = 4 @ X X p &   o   p =           ",
"d.j.}.uXnXmXmXmXmX8.            9.vXxXaX.XS.g.e.[ ` U G v / J v q n I  .] L L 9.9.J J G F t 0 6 & @ @ .   X     - 0 .           ",
"t.j.`.uXxXmXmXmXmX8.            nXnXxXyX;X`.S.s.;.` Y n v v n q y i v I G P Y 9.e.R P K a u 0 6 % o o . o & .   o               ",
"e.g.S.:XcXnXmXmXmXk.E           nXvXcXyX X`.s.t.;.^ U U _ ] ] G y w i G J Y U -.q.R U J F a t 7 - @ X X 7 o                     ",
"0.d.S..XiXnXmXmXmXmXk.          nXzXiXyX.Xl.d.q.9.^ ' P a 0 L i 4 e i G J U U 9.9.R R Y Y F u t 0 6 o X .                       ",
"9.d.j.`.yXnXmXmXmXmXk.        F nXcXcXyX Xj.s.q.9._ [ G e 6 8 6 8 e a G J T R 9.s.` R Y ` J a t 8 * @ X                         ",
"9.t.f.'.uXxXnXmXmXmXk.        mXvXaXcXyX Xl.s.9.9._ R G y 8 6 = 8 e a G P T ^ 0.`._ R R E F a t 6 - = X                         ",
"8.e.s.'. XzXnXmXmXmX[.t       mXnXcXyXyX.XS.g.q.9._ U G t 8 6 6 8 t a H Y R ` 9.uX' ` R U G a t 0 i 0 X .                       ",
"[ 0.d.S..XiXvXmXmXmXmXk.      nXvXiXyXyX.XS.j.q.| _ T K i 0 6 6 8 u a H Y R ` [ `.[ _ ` R J F t t 6 &     .                     ",
"[ 0.t.j.}.yXxXmXmXmXmXk.      mXnXcXyXuX X'.j.q.{ _ R J u 0 7 6 8 u p H U R ` [ `.8._ R R J G i 6 6 & o                     .   ",
"[ 9.t.g.}.uXzXmXmXmXmXk.      mXvXzXaXuX X'.j.e.{ ' R J a 0 8 6 8 u a H U ` _ { S.9.' ^ R Y J a 6 - & o                         "
};
