/* XPM */
static char *result[] = {
/* columns rows colors chars-per-pixel */
"64 64 237 2 ",
"   c #010101",
".  c #090505",
"X  c #0C0807",
"o  c #090708",
"O  c #0C0A0B",
"+  c #120D0C",
"@  c #1B0E0C",
"#  c #160704",
"$  c #16100F",
"%  c #120F10",
"&  c #151213",
"*  c #1B1514",
"=  c #1D1A1B",
"-  c #1B1718",
";  c #240A05",
":  c #28110C",
">  c #35130A",
",  c #231C1D",
"<  c #2C1E1C",
"1  c #271714",
"2  c #351B16",
"3  c #28211F",
"4  c #32201C",
"5  c #241F20",
"6  c #242122",
"7  c #2A2324",
"8  c #2E2A2B",
"9  c #2C2729",
"0  c #332524",
"q  c #312C2D",
"w  c #382928",
"e  c #342E30",
"r  c #373233",
"t  c #3B3435",
"y  c #3E3B3C",
"u  c #3D3639",
"i  c #33302F",
"p  c #42190B",
"a  c #451E13",
"s  c #47241A",
"d  c #582819",
"f  c #53220F",
"g  c #6B331B",
"h  c #472B26",
"j  c #58332A",
"k  c #423534",
"l  c #413D3E",
"z  c #463839",
"x  c #573936",
"c  c #4F2F29",
"v  c #693728",
"b  c #733A25",
"n  c #633D35",
"m  c #662F20",
"M  c #3F403D",
"N  c #49403E",
"B  c #59433E",
"V  c #7B422C",
"C  c #66423B",
"Z  c #794737",
"A  c #453F41",
"S  c #4B3F42",
"D  c #4B4344",
"F  c #4E4649",
"G  c #494445",
"H  c #534A4D",
"J  c #5B4B4B",
"K  c #544445",
"L  c #554D51",
"P  c #5B4F53",
"I  c #5A5355",
"U  c #5E545A",
"Y  c #5F5E5E",
"T  c #565152",
"R  c #5A514F",
"E  c #6A4A44",
"W  c #644846",
"Q  c #744D45",
"!  c #6B514C",
"~  c #7A534A",
"^  c #64595D",
"/  c #675658",
"(  c #775855",
")  c #614E51",
"_  c #76615E",
"`  c #6B5E63",
"'  c #655B62",
"]  c #745E62",
"[  c #6F6D6C",
"{  c #776869",
"}  c #786B72",
"|  c #7F7E7D",
" . c #7E7175",
".. c #5F5E60",
"X. c #8C5135",
"o. c #A1633C",
"O. c #875648",
"+. c #895C54",
"@. c #955C49",
"#. c #89635B",
"$. c #976559",
"%. c #9F634A",
"&. c #A46C5B",
"*. c #AF6F4E",
"=. c #876864",
"-. c #986C66",
";. c #9A736B",
":. c #82767C",
">. c #83797A",
",. c #907473",
"<. c #A7756A",
"1. c #B67967",
"2. c #A87B75",
"3. c #B37D73",
"4. c #C37E5D",
"5. c #C67F60",
"6. c #B6847A",
"7. c #B08375",
"8. c #C58A7B",
"9. c #CF9478",
"0. c #7F7E80",
"q. c #887B81",
"w. c #8E858A",
"e. c #968489",
"r. c #9B8C92",
"t. c #9F9E9B",
"y. c #9F9299",
"u. c #A98786",
"i. c #BA8A84",
"p. c #A38E94",
"a. c #A3939B",
"s. c #A69398",
"d. c #B79798",
"f. c #BE9287",
"g. c #AA9AA3",
"h. c #B19FA7",
"j. c #B3A4AC",
"k. c #BBA8AD",
"l. c #BBACB5",
"z. c #BBAAB5",
"x. c #BDBCB6",
"c. c #BEBDBB",
"v. c #BFB0BA",
"b. c #AFA0A9",
"n. c #C4938C",
"m. c #C99488",
"M. c #D49A89",
"N. c #CA9B94",
"B. c #D29D93",
"V. c #D89E95",
"C. c #D8A499",
"Z. c #CCA39B",
"A. c #E4A996",
"S. c #E2B29C",
"D. c #C7A8A8",
"F. c #DCACA3",
"G. c #D6AAA5",
"H. c #D7B1AD",
"J. c #C3B3BC",
"K. c #CDB7BD",
"L. c #DDB5B2",
"P. c #D1B4B7",
"I. c #C2AFB5",
"U. c #E4AEA3",
"Y. c #E0ADAA",
"T. c #E4B4AB",
"R. c #E9B7A9",
"E. c #F2BBAD",
"W. c #ECBCB2",
"Q. c #E5B9B3",
"!. c #F1BEB4",
"~. c #EDC5A9",
"^. c #EDC2B9",
"/. c #ECC6B6",
"(. c #F2C5BB",
"). c #F4CBBD",
"_. c #F4C7B7",
"`. c #F5CFB4",
"'. c #F6EBB3",
"]. c #CBBBC5",
"[. c #CABAC4",
"{. c #D1BFCA",
"}. c #CECDCB",
"|. c #CEC9C6",
" X c #D2C2CB",
".X c #DCC2C8",
"XX c #DBCBD4",
"oX c #D8C9D3",
"OX c #DEDCDC",
"+X c #DEDAD6",
"@X c #DCD3C3",
"#X c #ECCAC6",
"$X c #F4CCC2",
"%X c #FACDC3",
"&X c #F4CCC6",
"*X c #F5D4C4",
"=X c #FAD4C4",
"-X c #F9DAC5",
";X c #FBD6C9",
":X c #F4DDCB",
">X c #FBDCCC",
",X c #F5D9C8",
"<X c #E3D4DC",
"1X c #EBD6D6",
"2X c #F8DCD3",
"3X c #E8CECB",
"4X c #F5E3CD",
"5X c #FAE3CC",
"6X c #F6E7C6",
"7X c #F9F6CA",
"8X c #F4E5D3",
"9X c #FBE4D3",
"0X c #FBEAD4",
"qX c #F6EDDB",
"wX c #FBECDB",
"eX c #F7E9D7",
"rX c #FBF3DC",
"tX c #FBFADC",
"yX c #FAF7D5",
"uX c #EFE2D5",
"iX c #EBDDE4",
"pX c #E8D9E2",
"aX c #EDE6E8",
"sX c #F2E4EB",
"dX c #F8EBE7",
"fX c #F7F3E5",
"gX c #FBF4E4",
"hX c #FCFBE5",
"jX c #FCF6EA",
"kX c #FCFBEC",
"lX c #F7F7EB",
"zX c #F5EBF1",
"xX c #F9EEF3",
"cX c #FAF2F6",
"vX c #FDFCF3",
"bX c #FCF5FA",
"nX c #FEFCFC",
/* pixels */
"nXnXnXnXcXzXiX<XoXoXoXoX{.g.e.k.D.D.D.u.! j Z X.O.o.*.4.9.%X;X$X^.Q.2.+.( ! { :.=.} k @ O . . , X , & . %           .   . . .   ",
"nX  c.bXxXzXiX<X X{.{.{.[.h.p.P.H.H.L.G.u.O.Z X.*.8.9.9.~.gXjXvXjX2Xm.$.( W x B k 4 0 < , o O , + .   * = O             . .     ",
"nX  c.bXcXzXsXXX{.[.[.[.[.h.a.D.D.L.L.L.Z.$.X.o.8.9.`.9XdXkXfXjXfX>Xm.&.+.W K k w 0 < @ 1 % r D @ . . , O 3 %   . .   . . o . . ",
"nX  e }.bXzXsXXX[.[.z.v.z.k.p.s.D.L.L.L.Q.Z.8.M.E.2XjX}.[ jXfXjXdX$XM.&.+.Q B x h w 4 1 1 4 1 - , . . t y H 9 . .     .       . ",
"nX    c.bXcXsX<X{.z.j.b.z.z.q.:.u.T.L.L.Q.T.W.).rXkX|.Y }.gXkXkXjX#XM.1.$.+.E C n h a a s : : < @     < F I 7 .             . o ",
"nX    i }.cXzXpX{.z.b.a.h.j.q.] ,.L.W.!.Q.W.(.*XeXqXaX}.nXhXgXvXjX;XE.m.3.$.O.-.-.n v m a > > : 1 X . 1 + 7 * . .               ",
"nX      c.bXzXiX Xv.h.g.a.g.e.] u.Q.!.(.^._.;X9X:XfXjXvXvXvXhXvXjX>X%XR.U.N.3.V.G.2.O.m d f a a : : @ k * & + . o               ",
"nX      ..<XbXiXoX[.z.g.g.g.u.=.N.!.#X(.).(.-X,X8XfXfXrXfXvXvXnXnXjX2X%X%X!.#X#X!.Y.N.&.b X.b d p s 2 J 1 $ $ & & & O     .     ",
"nX        c.bXzXpX{.v.h.g.p.e.q.Q.&X%X%X%X%X>X9XjXvXfX-X9XvXvXvXvXkXwX=X*X(.$X;X;X;X%XQ.B.3.@.b d p s h <     7 &               ",
"nX        Y [.cXsXoX[.z.h.g.u.m.&X>X2X9X).).-X0Xx.x.fX5X-XwXkXjXvXkXwX9XwX=X^.>X>X>X>X).!.T.B.&.X.d f > ; $ q X 9 i O O O o     ",
"nX          ..OXzX<X{.[.k.h.i.q.*X0X9X9X>X2X9X@XY | kXwX=X-XgXfXnXkXrXwX0X).*X>X>X;X9X2X%X!.R.8.X.g d p ; 1 & .   9 8 u 6   o   ",
"nX            | cXsX<X[.I.D.n.m.#XhX9X*XwXjXkX>.= t.kXgX9X>X0XjXvXjXrXwX9X~.-X>X>X0XwXjXgX2X$X!.1.%.V f > @ # + O O % M i o o   ",
"nX            Y <XxXiXoX].H.G.n.,XgX).$X(.5XgXt.t.vXkXwX-X5XgXvXvXnXvXvXlX-X0XrXeXgXvXvXlXkXjX>XS.9.o.m s 4 k 7 O O O = - o o   ",
"nX              0.bXzX1X.X.X3X1XeX8X).^.^.!.=XwX0XwXrX5X=X5XjXnXx.vXjX}.aXrXqXkXkX<X}.vXvXvXvXeXE.8.X.g d > 1 0 O . 6 . & =     ",
"nX              0.nXxXsX1XsXsXdXgX0X=XQ.U.U.E.).R.`.5X9X>XgXvXnX  fXfXl x.kXkXkXvX>.N kXvXvXvXeXS.7.o.V f c 4 , . . .   o & o   ",
"nX                0.xXxXxXvXxXxXkX:X^.F.C.R._.R.A.E.=XgXfXkXlXvX  vXvXnXnXnXnXvXvXvXnXlXlXvXvXrX~.*.o.b d 2 1 0 & O o o O     o ",
"nX                | nXbXnXnXjXdXwX!.G.Z.C.~.).W._.=XwXvXvXvXvXnXvXvXvXnXnXvXvXvXkXvXvXx.l jXvXdX6XU.*.V m > ; : J . % O % O     ",
"nX                  y c.y nXdX.X;X#XZ.N.C.R._.2XwXdXvXvXbXvXnXkXvXjXvXnXnXvXvXkXvXvXvXjXkXjXgXhX~.S.*.b m > ; . , . - t r       ",
"nX                  % ..}.cXdXQ.#X#XG.B.V.(.>XgXvXvXvXvXnXvXnXkXvXkXkXvXvXnXkXvXvXvXkXhXhX:X:XwXA.7.*.X.d s c # + . + H = o   O ",
"nX                    y bXxX2X#X2X&XW.C.C.=X2XgXt.t.lXvXvXnXvXnXnXkXqXkXnXvXvXvXvXvXgXkXgX=X_.*XR.*.5.8.$.Q ] 1 . + X 6 % 8 8 r ",
"nX                    G nXcXzXdXdX>X_.S.R.).5X0X1XOXvXnXvXvXvXvXjXeXrXgXvXkXkXvXkXhX0X0XrX-X%X=X_.R.Q.U.i.+.E < 6 % & o   6 M 9 ",
"nX                    O [ nXnXnXvXrXrX5X`.`.5X>XgXvXvXvXvXkXlXkXvXeX0XrXkXvXkXvXlX8X0X0X4X6X).-X(.R.Y.U.N.-.j : O O . .   O   9 ",
"nX                      A OX0.nXnXvXkXrX).-X5X0XrXtXrXqXvXvXkXvXvXjXfXgXkXkXkXkXkXgXkXjX8X0X-X-X%X!.!.Y.n.<.~ 2 * X . .   . o 9 ",
"nX                      6 ..  nXnXnXnXvXkX9X'.hXhXtXrXrXvXvXvXlXvXkXvXkXkXkXkXvXkXvXvXvXkXgX5X).>X%XW.B.3.q.;.Q 1 X O & O % H   ",
"nX                            nXnXnXnXvXkXhXyXkXkXkXkXvXvXnXnXvXlXvXkXtXjXkXtXlXx.x.+Xt.hXtX8X4X2X;X(.Y.A.q.i.d.( X X % O . i O ",
"nX                      5 0.0.| q.| OXvXyXhXyXhXhXkXhXkXvXvXvXnXvXvXvXvXkXkXhXkXc.x.+Xt.4XqXvXqXwX%X%XW.U.n.i.N.( = X . & 6 . O ",
"nX                      i }.nX  M   w.lXhXhXtXhXhXhXhXvXvXvXvXvXnXnXvXvXvXkXkXkXvXvXvXvXhXfXkXkX9X(.E.V.m.n.f.2.B * . . % O   . ",
"nX                        i c.  c.  i }.hXtX7XyXyXkXkXkXkXvXvXvXkXvXvXkXkXkXkXvXvXvXvXfXvXnXvXvXgX(.E.V.<.+.+.x w . .   . X X   ",
"nX                                  c.vXkXyX7XtXtXkXkXkXvXnXvXkXkXvXkXvXvXkXvXvX+X+XhXhXvXnXnXvXvX=X!.m.O.d j s X . O o o & T = ",
"nX                                  c.vXvXkXhXhXyXhXkXhXhXvXnXvXvXkXvXkXkXvXkXvX| | hXhXkXvXvXvXgX=XE.3.@.v j ; +   = & = O i r ",
"nX                                  c.nXvXhXtX7X'.tXtXkXkXvXvXvXvXkXhXhXkXhXvXvX| | vXvXvXvXnXgX>X_.V.1.X.Z c ; + * O i 8   . [ ",
"nX                                  x.vXhXyX7XyXtXkXhXhXkXkXkXvXvXvXvXvXvXvXvXkXvXvXvXx.y nXnXwX=XU.9.%.V m h ; 3 q - r = - 8 8 ",
"nX                                nXnXvXkXtXyXtXyXkXkXkXkXvXvXvXvXvXvXvXvXvXhXvXnXnXvXvXvXvXfXgX=XW.C.8.7.Z c c X 0 ^ I 3 = D = ",
"nX                                nXnXgXhXhX7X'.tXtXhXlXlXkXvXvX    c.vXvXvXtXlXhX'.qXvXvXvXfX8X).*XR.F.Z.;.C w # q q 6 O o - . ",
"nXc.r                             nXnXyXhXkXhX'.'.hXtX7XtXhXhXvXc.  i M }.vXhX0X0X~.4XvXvXnXvXrX*X;XE.F.N.-.c B + 3 9 r = O r 6 ",
"nXnXy                             A }.tXvXkXlXyXyXhXhXhXvXkXvXM M c.x.c.aXhXhX0X6X0XqXrXkXvXkX:X*X^.U.N.3.n > w 0 3 $ 6 & o 6 T ",
"nXnXA                               c.kXvX6XyXkXhXhXkXvXvXkXvX  c.vX[ }.vXkXhXwX8X0X8X0XqXjXjX0XA.C.V.B.-.c a 1 0 - 9 o o o & y ",
"nXnXM                             c.aX[ |.tXhXvXkXkXkXvXvXvXvXx.nXlX|.fXfXqX6X,XqXqXwXrX:X8XjX~.A.S.Y.n.<.C 4 1 . , &     o . U ",
"nXnXM                             nXnXM x.hXvXvXvXkXvXvXvXvXnXvXvXlXvXvXqX:XR.~.~./.:XjX*XqXkX8X(.F.M.i.+.( n 3 & + O o % O . { ",
"nXnXM                             nXnXM Y OXvXhXhXyXgXvXvXlXvXvXkXeXwXhXhX6XS.-XgXqX8X9X*XqXgX1X_.A.C.i.=.! h t X 1 - i & o O 8 ",
"nXnXA                           0.0.OXA   ..0.c.nX'.6XvXvXvXkXvX8XtXqXyX-X`./.=X>X;X!.R.U.U.(.2X6.7.6.6.( ( h * t F + l X = 6 = ",
"bXnXt.5                         | 0.OXt.0.6   0.vX0XfXvXlX+X| lXvXqX~.5X0X9X9X=X=XU.1.M.1.M.U.M.&.7.6.7.=.! 4 . q D r . o = 6  .",
"bXnXnXM                           c.aXbXnX[ M t.vXrX0XkXvXx.  vXkXgX6X5X=X).(.$XE.B.1.M.V.B.m.@.V O.O.~ C t # = 7 q , + o - = r ",
"cXnXnXA                             c.eX2XdXjXdX6X~.~.rXvX|.M kXjX8X>X*X).).T.F.C.3.$.i.n.&.+.v g d > s 4 1 X X + = - = O   .   ",
"zXnXnXM                           A ].2X(.(.*X$X=X~.`.0XrXhXhXrX>X-X>X=XW.W.H.N.i.-.O.( +.n j a s h > 4 0 . . . & O - 8 8 % o O ",
"sXbXnX[ O                       A bXsX1XL.G.G.U./.*X>X>X5X0X9X5XS.S.~.U.F.m.6.N.#.W C x S c c 2 1 h 4 r X X . O % o . & T r     ",
"sXbXnXnXy                       nXbXsX#XP.Z.f.i.n.~.).*X>X>X).)._._.R.B.B.2.=.h.W S x z h h w w * 4 r 0 X = 6 O o O o   T 8   o ",
"pXcXnXnXG                       bXbXsX.X].D.d.q.;.N.Q.W.W.C.Z.R._.C.3.<.f.=.( d.) S W ) k 5 5 5 3 X O N T 9 . = 9 o . o O + G & ",
"pXcXbXnXM                         bXzXXXJ.g.p.,.,.;.#.6.n.<.&.6.&.<.+.+.2.( ) e.] W S S w 5 , * X D N * y - o &       & M w.y   ",
"XXzXbXnXy                         bXzX<XK.h.r.e.=.( ! Q O.Q v Z O.n n Q ] / W q.j.] S } ` A 7 9 * Y i X O O o 6     % O . o .   ",
"XXzXbXnXG                         bXxXiX Xg.p.r.e.=.! x =.=.n Q n C E S J / ,.d.q.) A k ` / A 9 $ D i N 8 o 6 r     o O         ",
"oXsXbXnXy                         bXbXsXoXj.a.e.I.{ { ( W / c ! h / / ( S / ] s.:.S S S S A 7 e 0 | 3 0 T & u o                 ",
" XiXcXnX}.e                       bXcXsXoXk.h.q.p.,.] U S W ) =.( ] z J ] :./ q.q.` S S y 8 6 S e.r + - P o O O     .           ",
" XiXxXnXnXA                       nXcXsXXXj.a.q.{ ^ H u w 4 < / k S k J ] S J q.q./ S S S y 9 7 9 + % 7 T o o O   o .     o     ",
"{.pXsXnXnXM                     >.nXxXsXoXj.y.q.{ U F u q 5 4 4 1 z J ^ } S S 0.q.L L S S y e 5 7 & X X I &     o = 6   .   .   ",
"[.pXzXbXnXt.A                   nXcXcXiX Xl.h.r.[ U F z e J S z , w H ^ } L S q.r.S L S S r 8 5 = + O o 6 -     O i O         O ",
"[.XXsXbXnXnX0.                  nXzXzXpX}.J.v.a. .U K u w 5 z 0 5 S S F S H H :.y...L F A u e 5 = + o o o - o   O   .   . .     ",
"v.oXpXbXnXnX0.                  bXzXzXpXoXv.g.r.} U H K `  .P t z w u D D H P :.r.U L L S y r 9 = & O o 6 +                   . ",
"z. XpXxXnXnXt.6               y bXzXsXpX Xz.y.q.} U U H z k J z 5 q t z F L U :.r.U U L H A t 9 6 = & O &     o           .   . ",
"j.{.OXxXbXnXnX0.              nXbXsXsXpX Xj.y.0.q.` { A 9 5 e 9 5 e u A F P U q.v.' U U ..L u u 8 = & o o o .                   ",
"h.[.oXsXbXnXnX0.              nXxXsXsXpX{.j.y.q. .U L u q 5 5 = 7 q u G H U ^  .XX} ' U ' F y e 7 - % O o o                   . ",
"g.v. XaXbXnXnX0.              bXzXsXsXpX{.z.a.q. .U H A 8 5 = = 6 q u S L U ' } OXq.' ' U F A e 9 9 q O   .                     ",
"g.l. XpXcXnXnX0.              bXzXsXiX<X{.z.a.q.} U L y 8 5 = = 6 e u D L U ' } {.q.` ' I F A u e u = O               o     .   ",
"y.z.[.pXxXnXnXnX|             bXzXiXiX<X{.z.a.q.[ U L z 8 6 5 5 7 e y F L U ' [ v.w.` ^ U L G u 9 5 % O o .                     "
};
