/* XPM */
static char *result[] = {
/* columns rows colors chars-per-pixel */
"64 64 239 2 ",
"   c #010101",
".  c #0A0605",
"X  c #0A0708",
"o  c #0C0A0B",
"O  c #0E0907",
"+  c #110603",
"@  c #130D0D",
"#  c #1A0B08",
"$  c #17100E",
"%  c #120F10",
"&  c #141212",
"*  c #1A1515",
"=  c #1B1718",
"-  c #1D1A1B",
";  c #1C1817",
":  c #28120B",
">  c #37160A",
",  c #221D1D",
"<  c #261917",
"1  c #371B15",
"2  c #250D05",
"3  c #34211C",
"4  c #2B211F",
"5  c #231F20",
"6  c #252222",
"7  c #2A2324",
"8  c #2D2A2A",
"9  c #2B2728",
"0  c #342523",
"q  c #322C2D",
"w  c #3A2A28",
"e  c #352E31",
"r  c #382E32",
"t  c #343132",
"y  c #3A3334",
"u  c #3D3639",
"i  c #3D3A3C",
"p  c #39302F",
"a  c #441D13",
"s  c #471A0B",
"d  c #48241A",
"f  c #562819",
"g  c #53230D",
"h  c #642E17",
"j  c #67331D",
"k  c #462C29",
"l  c #54322D",
"z  c #413D3E",
"x  c #4A3C3C",
"c  c #473636",
"v  c #573A36",
"b  c #4B2F2C",
"n  c #673829",
"m  c #743E2C",
"M  c #673D36",
"N  c #48403E",
"B  c #5B423D",
"V  c #65423A",
"C  c #774537",
"Z  c #77412C",
"A  c #463E41",
"S  c #4B3E42",
"D  c #513E41",
"F  c #4B4244",
"G  c #4D4749",
"H  c #4A4446",
"J  c #534A4D",
"K  c #584746",
"L  c #564D51",
"P  c #594E51",
"I  c #5C5255",
"U  c #5C5659",
"Y  c #644947",
"T  c #754A43",
"R  c #6A524E",
"E  c #7A524B",
"W  c #63565A",
"Q  c #635A5D",
"!  c #6B5B5D",
"~  c #6A5555",
"^  c #775957",
"/  c #5F5E60",
"(  c #665B62",
")  c #6A5E64",
"_  c #6E676A",
"`  c #73676C",
"'  c #75696C",
"]  c #786768",
"[  c #7A6D72",
"{  c #766972",
"}  c #7F7E7D",
"|  c #7E7377",
" . c #6B605E",
".. c #874E34",
"X. c #A6653F",
"o. c #945B46",
"O. c #865B54",
"+. c #845347",
"@. c #9D6349",
"#. c #87635C",
"$. c #996557",
"%. c #A96C51",
"&. c #8C6764",
"*. c #996D67",
"=. c #85757B",
"-. c #997775",
";. c #98746F",
":. c #A6746A",
">. c #AA7D76",
",. c #B37D74",
"<. c #AF796A",
"1. c #C17E5B",
"2. c #AB817C",
"3. c #B4847B",
"4. c #BC8777",
"5. c #90827E",
"6. c #C48A77",
"7. c #D0947D",
"8. c #8C7D83",
"9. c #957C82",
"0. c #8E878A",
"q. c #96868A",
"w. c #9A8B93",
"e. c #9F9E9C",
"r. c #9E9895",
"t. c #A88683",
"y. c #BC8C83",
"u. c #B68C88",
"i. c #BD938D",
"p. c #A4949C",
"a. c #A7969A",
"s. c #B89896",
"d. c #A18F97",
"f. c #A696A0",
"g. c #AB9BA3",
"h. c #AC9CA6",
"j. c #AFA0A9",
"k. c #B2A3AC",
"l. c #B5A4A8",
"z. c #BBACB6",
"x. c #B6A7B1",
"c. c #BEBDBD",
"v. c #BEB3B8",
"b. c #BCB9AF",
"n. c #BEA29D",
"m. c #C38E83",
"M. c #C38E87",
"N. c #C4948C",
"B. c #CC9689",
"V. c #D79D87",
"C. c #C99A94",
"Z. c #D29E93",
"A. c #D19F99",
"S. c #CBA29A",
"D. c #D8A499",
"F. c #D9A289",
"G. c #E3AB9D",
"H. c #E7B59B",
"J. c #E3AC8E",
"K. c #C9A8A5",
"L. c #DDABA4",
"P. c #D5ABA5",
"I. c #DBB1AA",
"U. c #C3ADB5",
"Y. c #C3B3BC",
"T. c #CAB7BD",
"R. c #DBB5B2",
"E. c #E2ADA4",
"W. c #E5B2A5",
"Q. c #E4B4AB",
"!. c #E9B5AC",
"~. c #EBBAAD",
"^. c #E8B9AA",
"/. c #EBBBB3",
"(. c #E4B9B4",
"). c #F2BCAD",
"_. c #EDC1AD",
"`. c #EDC4BA",
"'. c #EBC5B9",
"]. c #F2C4B5",
"[. c #F3C5BB",
"{. c #F5CABD",
"}. c #F7CAB8",
"|. c #F4D4BB",
" X c #F8C7AF",
".X c #F6EDB9",
"XX c #CABBC4",
"oX c #D7BFC3",
"OX c #CECBC9",
"+X c #D7C4CC",
"@X c #DBCCD5",
"#X c #DACAD4",
"$X c #DDDCD4",
"%X c #DED7DB",
"&X c #EAC9C5",
"*X c #F5CCC2",
"=X c #F9CDC3",
"-X c #F7CEC8",
";X c #F4D2C4",
":X c #FAD3C5",
">X c #F5D4C9",
",X c #FAD5CA",
"<X c #FADBCC",
"1X c #F7DAC9",
"2X c #E3D4DD",
"3X c #E9D9DD",
"4X c #F5DBD3",
"5X c #FBDCD1",
"6X c #F4D9D8",
"7X c #ECD2CC",
"8X c #F6E4CE",
"9X c #F9E4CC",
"0X c #FAE3D4",
"qX c #FAEAD4",
"wX c #F6EDDB",
"eX c #FBECDB",
"rX c #F7E6D7",
"tX c #FBF2DC",
"yX c #FCFADD",
"uX c #F8F6D9",
"iX c #F8F6C7",
"pX c #EADBE2",
"aX c #F6DEE1",
"sX c #EFE1E9",
"dX c #EDEBE8",
"fX c #F2E5EB",
"gX c #F4E9EE",
"hX c #F8EAE4",
"jX c #FBF4E3",
"kX c #FCFAE4",
"lX c #FAF6EA",
"zX c #FCFBEC",
"xX c #F6F4E6",
"cX c #F6EBF2",
"vX c #F9EEF4",
"bX c #FAF2F5",
"nX c #FDFCF4",
"mX c #FCF5F9",
"MX c #FEFCFB",
/* pixels */
"mXmXmXfXpXXXY.x.x.Y.XXXXp.| 8.a.l.P.K.t.B B Z Z ..X.X.%.6.[.'./.(.&Xt.! R J S A r 5 * @ X o % .   X * .           .   . .   .   ",
"mXmXbXcXpXXXz.j.h.k.z.XXd.{ 9.n.K.K.K.S.2.V Z @.X.4.V.H.'.5X0X5X&X(.N.^ R D S c r 5 < # O X * * . o &   .                       ",
"MXMXbXgXpXXXXXj.f.h.k.z.r.[ =.n.s.S.K.K.i.$.o.%.<.J.4XjXjXjXeX5X,X*XM.O.~ Y ( ) ) ) c < $ O @ 5 o X ; . X         X   X         ",
"mXmXmXcXpXXXY.x.f.f.h.k.p.[ &.q.s.K.I.I.I.S.y.D. X0XmXnXMXlXeX0X,X&XN.#.O.R ~ ~ Y D k 5 < # # % ; . % . - o . X     .           ",
"MXMXmXmXsX@XXXz.h.f.f.h.p.{ ) ] t.R.R.R.L.I./.:X8XzXnXnXnXjX8XjX6X[.A.*.O.E Y D l k d 1 1 1 0 c , .   < & 7 - .               . ",
"MXz OXmXcXpXXXXXk.j.f.f.p.8.) Y -.R.(.(.L.D.Q.,X0XnXOX_ nXtXqXzX0X-X!.M.9.:.E *.:.+.l f k a 1 k w . . 0 z A e                   ",
"MX  / %XcXpX%XXXk.g.f.a.h.9.~ R u.R.(.(.(.Q.[.<X<XnX2Xe.nXlXzXnXlX*X/.(.I.A.u.C.P.9.+.M n a > > 3 . + < P G q .                 ",
"MX    c.mXcXpXXXU.j.g.f.f.8.! #.K./.(.(.[.[.}.].eXxXzX0XlXnXnXzXnX0X*X[.-X&X[.`.(.Q.P.y...m h s s 2 + < $ y y .   X             ",
"MX    / %XcXsX#XY.k.j.f.d.=.O.u./.*X*X/.!.[.=X<XhXxXrX X9XzXnXjXhX5X=X=X*X/.[.-X,X,X-X/.L.N.$.n g s > < 4 $ ; .                 ",
"MX      / %XcXpXXXz.k.h.p.9.&.u.*X,X5X-XE./.:X8XxXwXwX X X<XkXkXjXeX5X:X,X].*X,X=X:X-X=XW.Z.B.$.j j d B c O o $ & = % o o X     ",
"MX        c.bXsX#XXXz.k.s.9.&.9.>X0X0X,X*X;X5XjXxXzXjX0X=X:XeXkXzXzXeX<X<X:X:X=X,X,X<X5X{.W.G.4...h f 3 3 . . , - X . . X       ",
"MX        w.%XcX2XXXY.x.g.9.:.<.1XeX1X*X<XjXxXzX$X$XtXeX9X<X<XzXMXnXlXeXqXqX<X1X<X0XeXlXeX>X[.!.4.Z h s 2 @ , ; & 5 X       X   ",
"mX          } bXpX#XXXY.l.9.6.9.>XeX'.`.!.:XrXhXe.e.wXtX<X<XeXhXnXMXmXnXzXkXtXjXeXjXzXlXnXnXeX].F.o.m g 2 : &   o 8 9 8 H X     ",
"MX          / %XcX2XoXXXU.K.Q.=X0XqX;XI.L.W./.{.|.<XqX9X,XeXlXnXnXnXnXnXnX8XkXzXzXnXnXnXnXMXlX,X^.6.%.h d : O @ &   % t t o     ",
"MX            } vXpX#XR.oX7X6XaXeX0X'.S.D.P.E.H.G./.<X<XrXzXnXnXnXnXnXnXnX8XkXzXnXnXnXnXnXnXzX,X~.7.o.h f < 4 9 6 o o = - & X   ",
"mX            8.mXfX2X#XaXaX6XaXeX'.P.S.S.P.D.7.7.H.|.qXwXxXnXMXMXMXnXMXMXxXzXzXlXMXMXnXnXnXnX0X^.4...h s : < p o % 5 &   8 X   ",
"MX            } MXcXsX3XhXhX6X5X*XI.S.i.S.I.W.D.7.H.<XjXlXlXnXMXMXxXwXnXMXnXxXnXMXnXnXMXnXnXzX<X{.D.%.C f > < <     % o   X     ",
"MX              } mXfX3XhX0X6X5X4X`.S.i.4.S.L.}.!.].0XnXlXMXnXnXMXnXnXN c.MXMXnXnXnXMXlXtXrXeXeX*X^.:.h s 2 : < * @ . . o X     ",
"MX              } mXcXsXaX6X&XeXeX[.S.y.y.B.Z.=X0XeXeXbXlXnXnXnXMXzXnXOXdXnXMXnXnXnXnXzXjX|.[.5X[.~.4.Z g 1 # 4 y o     o %     ",
"MX              =.nXbXdXaX-X/.hXrX/.D.6.6.B.V.].tXzXnXnXMXMXMXMXMXnXnXMXnXnXlXzXnXzXzXlXjX:X}.{.~./.L.3.O.d # O 0 . o & X   X   ",
"mX              5 e.mXvXsX6X&X4XeX|.H.F.V.F.J.).eXnXMXMXnXMXMXzXnXuXwXjXjXnXzXkXzXjXeX:XeX<X{.].B./.D.Z.i.E b o & X & 8 i - % X ",
"MX                5 _ bXhXbXeX_.rXtXtX|.H.).H. XtXkXzXnXMXnXMXzXnXqX|.9XkXnXnXzXkX8X9X9XeX0X=X=XD.B.$.B.N.;.Y * X X = 5 G - 8 6 ",
"MX                  i mXmXnXnX;XbXnXzXeX|. X X9XyXeX8XuXzXnXnXnXnXxX9XtXzXnXzXzXzXjXjXzXjXeX,X:X).<.4.Z.u.*.v 0 6 . % & = % z X ",
"MX                  5 j.MXmXMXnXnXnXnXnXkX9X9XkXkXyXkXjXzXnXnXzXkXjXnXzXzXkXwXzXzXzXMXnXkXkXqX,X=X[.^.N.>.&.^ v 3 % o o       6 ",
"MX                    - e.%X} MXnXnXnXnXkXzXzXzXzXnXnXnXnXzXxXnXnXnXzXuXrXzXkXzXnXnXnXzXuXjXuX|.,X=X/.A.N.,.>.t.&.o . % .   & % ",
"MX                      H c.  } } MXMXnXkXzXzXzXzXzXzXzXnXnXzXnXnXnXnXnXkXzXzXnXnXnX$Xe.xXlXnX>X5X-X/.E.A.C.i.i.#.@   & & . 6 H ",
"mX                      8 0.  H z c.c.dXzXzXzXzXzXzXnXzXnXnXnXnXnXzXnXnXkXzXzXnXnXnXOX_ nXnXzXrX5X=X/.D.M.u.t.>.v O O - o . % 6 ",
"MX                            mXMX  q OXkXkXyXyXzXzXzXnXnXMXnXnXlXnXnXnXnXzXzXnXnXnXMXnXlXlXxXxXhX-X).Z.*.^ T b $ * O o o o o   ",
"MX                            c.c.  c.nXkXkXyXkXzXzXzXnXnXMXMXnXnXnXnXnXnXnXnXnXMXnXnXMXjXwXnXnXjX,X!.m.O.E l 3 O $ O   X % & . ",
"MX                                  0.dXzXzXyXkXkXzXzXzXzXzXnXnXnXnXzXnXzXzXzXnXnXnXnXnXnXlXzXzX5X].J.,.C d a 1 7 u o   . % % X ",
"MX                                    c.nXkXyXyXuXzXzXzXkXzXnXnXzXnXnXzXnXnXnXnXnXnXnXkXnXMXMXhX<X).6.@.m g a w w $ . . . o i y ",
"MX                                  c.MXzX.X.XyXkXzXzXzXzXzXnXnXnXnXnXnXnXnXnXnXnXnXnXzXb.z MXeX}.G.,.o.C f d < $   % & 6 . o 6 ",
"mX                                  c.MXnXkXkXyXuXzXzXzXxXzXnXMXMXnXMXMXz c.nXnX} 5.xXzXxXnXnXjX,X].D.B.2.T v + . $ O & t = X G ",
"MX                                  c.MXnXzXuXiX.XkXyXnXnXzXzXnX    b.lXnXnXnXzXzXnXnXnXnXMXMXjX<X].).D.N.#.l + , , $ y t % t i ",
"MX                        8 c.    c.dXnXzXzXkXyXiXkXzXnXnXnXnXnXc.c.dXnXnXnXzXwXwXnXnXnXOX_ nXqX[.*XE.m.y.&.l : @ 4 9 8 6 ; 8 6 ",
"MX                        & H c.c.N OXzXnXnXkXkXyXkXzXnXnXMXnXMXMXnXnXnXMXzXyXtXqXwXtXhXdXOXxX1X[.!.Z.,.:.V w w . , I _ - . X % ",
"MX                            i MXc.dXxXnXnXkXuXyXyXkXzXzXnXMXnXMXMXnXnXnXzXtX<XqXqX8XuXbXnXlX5X/.Z.Z.A.*.B c P . = = H - X - t ",
"MX                            c.MXMXnXrXnXMXnX.XiXzXzXzXzXuXtXMXMXnXnXnXnXxXtX,XwXJ.H.rXlXnXjX0X!.Z.N.N.*.v 2 p , y - t & X 5 L ",
"mX                            } } MXnXwXMXnXnXuXkXzX$X} e.zXzXMXnXkXtXzXnXzXtXqXtXH.^.8XjXeX6X,XG.B.,.<.E b $ O , ; 9 5 &   . - ",
"MX                                MXbXzXxX|.wXnXMXzX$X} e.nXnXMXnXwXqXtXyXtX0X;X<X,X[.=X~.:X-X=Xm.m.Z.t.-.^ 0 ; . O o X . . X t ",
"MX                                } %XnXnXxXzXMXnXMXnXnXnXnXnXnXnXwXkXuXqX<X1X;X{.{.W.G.A.G.G.M.$.4.i.u.^ R B 6 % % &   X o X y ",
"MX                                } $XMXnXbXnXlXzXkXnXnXnXnXlXnXlXzXkXqX{.).7.~.B.m.:.B.A.B.Z.,.#.T #.#.^ K w o O 8 ; 9 6 & % t ",
"MX                                cXhXnXnXmXnXbXkX9X9XkXzXxXxXnXzXrXqX1X}.!.4.L.M.6.@.m.B.M.M.O.V M B B B 3 O N 6 | 9 i - X o o ",
"MXH %                             lX6X,X-XeXjXxXqXH.H.eXzXzXzXzX1X X_.{.~.E.A.!.E.:.T >.9.&.E f v l V < $ p t . 8 P * . X X 6 H ",
"MXMXi                         z z vX6XR.D.!.].~. XH._.9X0XqXeXqX;X}.F.W.W.Z.N.A.y.O.V Y v V v 1 k v N 4 & & & & ; 6 9 & o % H 6 ",
"MXmXH                         MXmXhX@XP.C.N.m.B.W.;X<X:X<X8X;X,X'.{.].E.E.C.>.C.*.D c k r c 5 < : $ O , . X o . X = 6 ; & . - X ",
"MXMXH                         mXbX3X+XP.s.3.>.3.4./.:X-X:X:X_.'.{.=X/.N.y.>.&.a.! c D r r r = # @ & o o X 6 6 . X o 6 y t   X o ",
"MXMXi                         MXvXpX#XU.a.q.-.#.:.S./.Q./.^.B.W.^.L.y.>.>.E R w.=.D S r r 0 5 < o 6 & o 8 - X % 6 X X ; U i   . ",
"MXMXz                         mXmXpX#XU.h.q.9.] O.T O.N.N.*.$.$.+.C V #.u. .K a.( S c u A e e < o , u z 6 X .   . X X . H t X   ",
"MXMXMXz                       mXmXpX#XY.j.w.=.=.! Y v E C n n f f l l ~ ! &.K w.{ D L U q 9 5 5 7 X X = 9 o 5 X   o X   5 8 %   ",
"MXMXMXz                       MXmXsX%XY.h.9.8.` { ^ B l V V d d a Y v P N R J d.{ J P S r 5 5 , & @ X y U i 8 . % .   X ; , 9 t ",
"MXMXMXz                       H bXfXpXXXj.w.8.) W ( D v R B B B K K K J ! U L 8.9.J S ` P y 7 7 @ 7 & o ; - X & t .   X - I _ o ",
"MXMXMXz                         mXcXpX#Xz.w.8.8.{ D c w 0 < 3 v k p F F K Q ! =.g.{ S S ) ` P r @ ' H o . . % L o   X o . & X   ",
"MXMXMXz                         mXcXcX2XXXp.8.| p.! ! P x x , K < ! W ~ F W P =.XXP S J P ) L r 0 w.G $ 6 o t &   X             ",
"MXMXMXe.5                       mXmXfXpXY.f.w.8.w.=.) _ [ [ K ! 4 N G P _ ) Q q.k.J G L A L q A w. .& o y & o   X               ",
"MXMXMXMXz                       mXmXfX#Xz.w.0.[ _ P x q e p x 5.] ] x c P Q I q.p.` W J A u q 5 K @ O @ 9 o . . X             X ",
"MXMXMXMXi                       mXmXcX%XXXw.8.| ( J c 8 , , @ & x N p J I J K [ f.L L J L G u 9 = % o = t o .       -           ",
"MXMXMXMXH                       MXmXfXpXXXh.w.| ( G i e 4 y y 5 4 x Q ! 5.J P [ j.U L G G u t 9 9 6 o X J 9     X y 6           ",
"mXMXMXMXi                     i mXmXgX#Xv.k.g.8.( G z q , 8 A F - q J J W J I [ x.( L J L A r 8 7 = o o 9 i X o o %             ",
"mXMXMXMX_ %                   MXmXcXfX#XXXh.f.8.( J z 8 q J L 5 q y F J G J U { k.{ / L G A u q 5 = = o % 6 X .                 ",
"mXMXMXMXMXz                   mXmXcXfXpXXXj.q.=.( J S A S r y u r 8 u H G I U ` z.{ ( U L H A e 9 = % o - X                     ",
"bXMXMXMXMXz                   MXmXcXsX#XXXh.q.| | I I u 5 = A q 5 q y A J I Q _ z.} ( ( U L A y e 6 * o X                       ",
"bXMXMXMXMXz                   MXmXcXfX@Xz.f.0.| { J A e 5 = - 5 5 e u A J U ( _ z.w.) ( ) U S A u 5 = o X .                     ",
"cXMXMXMXMXMX}                 mXmXcXfX#XXXf.0.| _ J F e 5 = = - 5 e u S L ( ) ) x.j.{ ( _ I H u e 5 = o X                       "
};
