/* XPM */
static char *result[] = {
/* columns rows colors chars-per-pixel */
"64 64 240 2 ",
"   c #010101",
".  c #0A0505",
"X  c #0A0708",
"o  c #0C0A0B",
"O  c #0D0806",
"+  c #120D0D",
"@  c #180A07",
"#  c #141212",
"$  c #1A1414",
"%  c #1D1A1A",
"&  c #1B1818",
"*  c #140F10",
"=  c #250D06",
"-  c #28110B",
";  c #221614",
":  c #221C1D",
">  c #2A1A17",
",  c #381C16",
"<  c #3C1A0B",
"1  c #2B201E",
"2  c #36231E",
"3  c #231F20",
"4  c #252222",
"5  c #2A2425",
"6  c #2B2728",
"7  c #2D2A2B",
"8  c #2E2826",
"9  c #322C2D",
"0  c #392928",
"q  c #352E30",
"w  c #392F31",
"e  c #353233",
"r  c #3B3334",
"t  c #3D3639",
"y  c #3E3C3C",
"u  c #33302F",
"i  c #431D12",
"p  c #481B0D",
"a  c #492319",
"s  c #57291A",
"d  c #4F200F",
"f  c #632F1B",
"g  c #462C28",
"h  c #4B322C",
"j  c #55332C",
"k  c #453435",
"l  c #423D3D",
"z  c #4A3D3C",
"x  c #493735",
"c  c #573B37",
"v  c #512C22",
"b  c #6A392A",
"n  c #693A2D",
"m  c #3F403E",
"M  c #56413D",
"N  c #4E403F",
"B  c #65423A",
"V  c #764438",
"C  c #7C452E",
"Z  c #443E41",
"A  c #4B3E41",
"S  c #4B4345",
"D  c #4B4648",
"F  c #514444",
"G  c #534A4C",
"H  c #5A4849",
"J  c #564D51",
"K  c #594E52",
"L  c #5B5255",
"P  c #5D5559",
"I  c #684A46",
"U  c #764C43",
"Y  c #625455",
"T  c #61565B",
"R  c #645A5C",
"E  c #6B5C5D",
"W  c #6B5354",
"Q  c #7B5C59",
"!  c #755956",
"~  c #70524D",
"^  c #5F5E60",
"/  c #6B5E62",
"(  c #665D61",
")  c #735F62",
"_  c #6D6767",
"`  c #72656A",
"'  c #7A6B6C",
"]  c #766566",
"[  c #786B72",
"{  c #7F7E7D",
"}  c #7E7277",
"|  c #885038",
" . c #A6653F",
".. c #895D55",
"X. c #8D5A4A",
"o. c #88625C",
"O. c #98675D",
"+. c #A66B59",
"@. c #AF7154",
"#. c #886764",
"$. c #966D67",
"%. c #98726C",
"&. c #85787A",
"*. c #997874",
"=. c #A67568",
"-. c #A77B74",
";. c #B27B70",
":. c #AC837C",
">. c #B3837C",
",. c #BC8779",
"<. c #C48B79",
"1. c #CD8F72",
"2. c #8B7D84",
"3. c #867B81",
"4. c #937F81",
"5. c #8F868B",
"6. c #96868B",
"7. c #9B8D94",
"8. c #9A8D95",
"9. c #9F9E9B",
"0. c #9E9395",
"q. c #A68A8C",
"w. c #BB8B83",
"e. c #B78A87",
"r. c #B8928D",
"t. c #A3949C",
"y. c #A79194",
"u. c #B89896",
"i. c #A58D94",
"p. c #BFA19E",
"a. c #AB9CA5",
"s. c #AE9FA8",
"d. c #A799A1",
"f. c #B19EA5",
"g. c #B2A2AC",
"h. c #BDA7AC",
"j. c #B6A7B1",
"k. c #BAABB4",
"l. c #BAACB5",
"z. c #BEBDB5",
"x. c #BEBDBC",
"c. c #AEA1A9",
"v. c #C48F84",
"b. c #C8958A",
"n. c #D49B87",
"m. c #C49B94",
"M. c #CB9B93",
"N. c #C49A96",
"B. c #D59D92",
"V. c #D49E97",
"C. c #CBA29B",
"Z. c #D5A39C",
"A. c #DAA59B",
"S. c #D8A699",
"D. c #D7A38B",
"F. c #E4AA96",
"G. c #ECB599",
"H. c #E2A48B",
"J. c #CAA9A4",
"K. c #DDACA4",
"L. c #D6A9A4",
"P. c #DCB2AA",
"I. c #C3B3BC",
"U. c #CAB4B9",
"Y. c #D6B3B3",
"T. c #E3AEA5",
"R. c #E3B4AC",
"E. c #E8B6A9",
"W. c #F1BCAC",
"Q. c #E5BAB3",
"!. c #ECBCB4",
"~. c #E6BCB8",
"^. c #F2BDB4",
"/. c #F3C5AA",
"(. c #EDC3B5",
"). c #EDC4BB",
"_. c #F2C2B5",
"`. c #F3C4BA",
"'. c #F4CBBC",
"]. c #F8C9BA",
"[. c #F2D2B3",
"{. c #CCCBBF",
"}. c #CABAC4",
"|. c #D1BFCA",
" X c #CECDC6",
".X c #CECECA",
"XX c #D3C3CD",
"oX c #DFC9CF",
"OX c #DACBD4",
"+X c #DACAD4",
"@X c #DEDBD9",
"#X c #E9C9C7",
"$X c #F5CBC3",
"%X c #F9CDC3",
"&X c #F3CBC7",
"*X c #F5D3C4",
"=X c #FAD3C5",
"-X c #FAD5CA",
";X c #F6DCCC",
":X c #FADBCC",
">X c #F5D8C8",
",X c #E3D4DD",
"<X c #EDD3D4",
"1X c #F9DDD3",
"2X c #F5DCD9",
"3X c #EACED4",
"4X c #F5E1CC",
"5X c #FAE3CD",
"6X c #F7F4CB",
"7X c #F5E5D3",
"8X c #FBE4D4",
"9X c #F5EAD5",
"0X c #FCEAD5",
"qX c #F5ECDA",
"wX c #FBECDB",
"eX c #FAE6DA",
"rX c #F6F2DD",
"tX c #FBF2DD",
"yX c #FBFADD",
"uX c #FBFAD5",
"iX c #EBE7DA",
"pX c #EBDDE5",
"aX c #E8DAE3",
"sX c #EDE7E7",
"dX c #F6EEE2",
"fX c #FBEEE1",
"gX c #F2E5ED",
"hX c #F6E9EC",
"jX c #F6F3E2",
"kX c #FBF4E4",
"lX c #FCFAE5",
"zX c #FAF5EA",
"xX c #FCFBEC",
"cX c #F7F3EA",
"vX c #F6EBF1",
"bX c #F9EEF5",
"nX c #FBF2F5",
"mX c #FDFCF4",
"MX c #FCF5FA",
"NX c #FEFCFB",
/* pixels */
"MXbXgXaXXXI.l.j.j.I.}.j.t.[ 2.f.J.J.J.:.x a j b |  . .@.<.`.Q.Q.L.~.y.! Y G F Y z 3 % $ A / E . . . o . .         .     .   .   ",
"NXbXgXaXXXI.j.g.g.j.I.l.2.` 4.y.p.J.p.r.:.U C |  .1.F.G.`.-X&X!.Q.).N.Q Y H A Z k 3 ; * + O * . .   #                           ",
"MXMXvXpX+XI.j.s.g.g.l.l.3.) 4.q.u.J.J.J.u.o.| @.@.E.8XzXzXeX1X$X~.&XN.) W H A Z q 3 > $ X . + X   . + .     .                   ",
"NXMXvXsX+X}.j.s.c.c.c.c.2./ ` *.y.J.L.J.C.C.,.S.].eXmXmXmXzX8X8X$X~.r...! W / ] ) ) A 2 ; @ @ 3 #   & . o     .                 ",
"NXMXbXgXOX}.l.a.s.s.a.s.2.) [ E *.Y.Y.L.L.Z.R.-X1XmXmXmXmXjX9XkX2X).L.$.Q ! ! ! W B x 2 , @ @ ; : . $ . $ o                     ",
"NXMXMXvXaXXXI.s.g.s.d.d.2./ W W q.~.Q.P.L.K.`.-X:XmXmXmXmXkX9XzXfX~.K.v.4.-.Q $.-.X.j a i , g 0 8 .   $ $ 4 6                   ",
"NX3.@XvXaX+X}.g.g.g.d.t.4.[ / I u.~.Q.Q.P.R.!.-X:XmXmXkXzXmX7XzXfX^.R.~.R.N.4.V.L.4.o.n a v i x 0 O . 8 : z G                   ",
"NX  x.MXgXOX}.l.s.a.d.t.t.3.W #.L.~.!.R.!.R._.:XkXxXzX:XkXzXxXzXzX-X~.^.&XQ.`.^.~.~.R.b.$.n s p s @ O > Y S 4 o                 ",
"NX  ^ @XbXgXOXl.j.s.a.i.8.#.W N.Q.P.~.R.R.`.`.*XxXfX8X/.8XlXxXwX1X%X`.$X$XR.`.$X%X%X$XR.M.v.$.f p - = ; ; w S O                 ",
"NX    x.MXgXaX|.k.j.s.t.4.] Q N.$X-X-X&XR.^.%X1XrXjX9X].].:XlXwXeX8X-X=X-X].`.-X%X-X=X$XP.M.B.O.f d < > 8 + :                   ",
"NX    8.gXbXpXXX}.j.j.t.4.#.o.-.-X8X:X-X$X*X-XwXcXjXjX4X].].5XkXzXkX8X:X:X%X'.=X=X-X-X=X`.A.M.,.C f d g x @ # o + # + .         ",
"NX      5.sXvX,X}.j.j.s.t.$.o.=.1X9X&X`.*X7XkXmXcXxXkXqX5X].:XzXmXmXzX8X5X5X1X-X-X:X8XhX1X*X^.b.,.f f i 0 .   1 3 + o           ",
"NX        x.bXsX|.I.j.f.4.%.O.4.*X8X$XQ.R.>XwXxXcXzXwX0X*X=X8XmXNXNXNX XiXtXwXkX8XwXxXmXxXkX;XW.n.| f p - @ > > X & X           ",
"NX        x.MXvX,X}.I.f.f.N.V.^.>X8X*XP.Z.T.T.(.'.>X;X:X*X0XkXzXNXNXNX_  XlXlXxXzXmXmXxXmXxXwX`.D.| C s - @ +   X u 4 % D o     ",
"NX        x.MXbXpX|.I.h.Y.).3X2XqX;X(.C.C.S.B.F.F.W.*X5XwXzXxXjXmXmXNXNXmXxXlXxXmXmXNXmXmXzXwX].B.@.+.s , = O .   . % e S #     ",
"NX          3.MXgX+X}.U.3X2X2X2X7XQ.C.C.C.C.M.1.1.F.'.tXlXxXmXNXNXmXmXNXmX9XlXmXNXNXmXmXmXxXkX-XW.<.| s s - ; 9 7 # # & 6 & .   ",
"NX          { MXvXaX|.#X2X2X1X-X&XP.C.r.C.P.P.D.1.H.$XkXtXz.  NXNXmXmXNXmXrXxXmXmXmXmXxXmXxXzX*XR.v.X.s < - > r # . % &   4 #   ",
"NX          { NXbXpX3XoX2X<X&X%X$X#XC.r.r.r.M.(.T.W.1XzXcXcXNXNXNXmXcXmXS z.jXmXNX{ m mXxXeX8X8X`.S.+.C s < @ $ +   o o o . .   ",
"NX          3 9.nXgX,X3X&X&X~.eX7X).Z.w.w.,.v.E._.:XfXmXmXmXMXMXm cXrX_ 9.sXmX9.9.@X XxXkX*X].=X_.K.:.V p - , $ o X   .   X     ",
"NX            { MXvXpX3X&X~.R.hX7XE.D.,.,.<.,.F.=XwXjXxXcXmXmXmX  xXxX.XsXmXNX@X@XmXlXtX0X*X_._.W.R.S.,.! , @ : 9 #     o o .   ",
"NX            { NXbXvX2X-X&X&XdX9X/.G.n.1.1.1.G.8XlXxXMXmXNXNXmXx.lXwXwXkXxXxXxXlXkX9X5XwX-X*X_.^.!.T.V.e.E > @ 3 o X o X       ",
"NX            3 9.MXbXhX2XhXzXmXmXqX[././.G.G.[.0XtXkXmXmXmXmXmXmXqX4XwXkXxXzXkXkX>X:X5X8X5X-X].A.T.V.V.u.%.M O & o # 7 % % # o ",
"NX              m x.MXmXvXMXdXfXmXmXlX5X]././.5XyX0X0XrXcXmXNXjXmXqXtXkXzXxXzXlXlXqXwXwXlX0X:X=XB.S.B.N.e.*.I @     3 7 G e 4 % ",
"NX                m { t.NXNXqX[.cXNXNXmXxX6X5XuXlXlXyXlXmXNXNXmXmXlX4XrXxXxXtXlXzXlXmXmXzXtX5X:X(.M.+.<.>.#.! ~ 0 o o o D o e X ",
"NX                    y NXNXNXcXmXMX9.@XxXxXxXxXmXmXlXxXmXmXNXmXxXxXmXjXrXlXlXxXmXmXmXxXlXzXtX0X=XT.T.N.e.=.#...%.1 o o       7 ",
"NX                    4 9.NXNXNXmXNX9.@XxXxXxXxXxXxXmXmXmXlXlXcXxXmXmXxXlXxXxXz.z.xXxXxXxXmXzX*X%X$X!.Z.N.M.r.e.%.$   # o   # 4 ",
"NX                      m sXx.NXmXx.x.jXlXxXxXlXxXxXmXmXsX{.xXmXmXmXNXmXxXkXxX9.{ z.z. XxXzXmX>X-X%XR.V.,.-.q.%.M . . & #   # S ",
"NX                      y x.  NXNX  7  XxXxXlXlXxXmXmXxXz.m xXmXmXzXmXmXmXxXxXmX9.m u m mXmXxXqXfX=XW.B.$.U n g @ X . % #   X % ",
"NX                      7 8.  NXNX  5.sXxXxXlXlXxXmXmXmX.X_ NXmXxXxXmXmXmXmXmXmXmXmX.X[ mXmXcXkXfX%X^.v.V a , @ X % o + o o     ",
"NX                            x.x.  u .XxXlXyXxXmXmXxXxXNXNXNXmXmXmXmXmXxXmXmXxXmXmXmXNXjXwXxXjX:X].E.;.| V j ; X o o     o # o ",
"NX                                  x.mXlXyXuXlXmXxXxXxXmXmXmXmXmXmXmXmXNXmXmXmXmXmXmXNXzXqXxXwX-X^.V.+.n a , F * o         # o ",
"NX                                    x.lXyXuXlXyXxXmXmXlXlXmXmXxXNXNXNXmXmXmXNXNXmXmXmXmXmXNXeX].V.@.O.n p , 0 u 4 o .   o y m ",
"NX                        Z NX        x.xX6XuXuXlXxXmXmXmXmXmXmXNXNXNXmXmXmX{     &.mXjXmXNXNXkX'.W.B.v.;.j 2 > + . # # 4 o o 4 ",
"NX                        m NX        x.mXyXlXlXyXxXxXxXlXxXmXmXmXNXNXmXmXNXmXmXxXmXzXxXcXmXNXfX=X].E.V.r.%.c .   * o   e 4   7 ",
"NX                        m NX    x.x.sXmXxXlXuX6XyXlXxXxXmXmXNXmXm .XNXmXmXxXkXjXxXmXxXcXmXmX1X`.^.T.v.>.o.g O $ * * 6 7 # & S ",
"NX                        + y x.x.S .XmXmXmXlXyX6XlXlXmXNXmXmXmXmXx.iXcXmXxXlX9X8XwXwXzXmXmXxX*X%XT.V.-.$.~ g ; + 1 : 6 7 % % 3 ",
"NX                            NXNXx.sXcXmXmXmXxXyXxXmXmXmXmXNXy N y m .XNXxXzX8X8XwX9X7XxXmXhX&XQ.b.b.w.$.j > 1 o # D P 4 X # o ",
"NX                            NXNXNXNXjX_  XcXlXyXxXxXxXmXmXNX  x.z.z.qXmXlXwX=XwXmXwX8XzXhX1X`.B.v.w.e.$.H k H X # % _ 7   o m ",
"NX                            NXNXcXmX7X9.@XxXyXyXxXxXxXlXxXmX{ mXrXwXkXlXtX8X=XtXzX8X-X8X1X&X&XT.M.-.-.! h 2 _ $ y & L 3   & { ",
"NX                            NXNXNXxX7XNXNXNX[.rXNXxX9XxXrXrXNXmXjXwXyXyX9X8X'.-Xn.n.W.`.].^.^.T.M.e.-...H 0 @ : 6 % y %   X 6 ",
"NX                            NXNXmXcXzXdX9XzXmXz.x.@X9.mXmXmXmXmXmXlXtX0X8X:X-X'.n.1.V.A.A.A.F.:.O.:.:.Q Q M O .   #   . o . 7 ",
"NX                            { NXmXdXmXkX>XqXNXx.x.@X9.xXmXmXNXMXqXtX0X:X-X'.`.!.A.<.v.,.V.N.4.~ B Q %.:.~ 2 % * * &     o # & ",
"NX                              NXcXdXdXcXmXNXNXmXwXeXzXxXmXmXmXzX5X8X5X^.^.^.^.T.v.O.v.v.v.e.$.B j M B M x N + o : # & % o X y ",
"NX                        o S y MXiX&X$X(.:XwX7X*X/./.5XkXqXkXcXkX:X'.%X^.T.;.L.;.O.U =.4.*.o.h g 2 > ; + O . e & 6.r u 4 o   # ",
"NX                        m NXMXMX2X#XL.M.A.(.E.E.H.G.6X9X5X4X0X*XE._._.E.A.;.C.r.#.B I #.K 2 = 2 N N + X e 4 * 4 R & o     4 D ",
"NX                        Z NXMXbX<XY.N.e.,.>.<.n.1.D.'.=X:X'.=XT.E.v.B.M.>.-.e.#.I g k A A Z ; r N N : # # : $ & 4 7 # o o e 3 ",
"NX                        y MXnXgXoXU.y.q.-.$.+.=.S.`.%X'.'.R.'._.`.S.M.b.$.#.q.E A k k g Z q ; 4 % o % + o # X X 1 % # #   o & ",
"NX                        m NXMXpXXXU.a.q.&.#.o.X.M.Q.P.!.K.w.A.S.Z.>.%.-.#.~ 7.) k A q q q : + o # o # X   o     X 4 e t   # % ",
"NX                        S NXbXpX+XI.a.6.&.] ) Q I o.V.M.-.X.X...U U #.*.Q W i.2.Z Z t q q 3 & + 1 # . # 4 7 o 4     # P y     ",
"NX                        y NXnXgX+X}.s.6.&.[ Y W j n ! U s b n n n c Q %.H H i.[ Z k k Z q r % o 4 e 6 e o o     # . . D D     ",
"NX                        m NXMXgX,X}.g.i.2.} ) H c g g v i j s a k x K ` / K 7.` D G K t 9 6 3 4 # % 6 6 . o . . o o . e e o   ",
"NX                        m NXMXvX,XXXg.0.3.[ / / Y k 2 g j > > > k x A A R K 2.3.K K G t 7 4 7 & o o 6 y 3 3 .   X   . o % # % ",
"NX                        m NXMXvXaX+Xk.t.2.[ ( Y Y k w Y z k F z H G G E T G 3.8.K D ` J e 4 3 # $ X % 4 9 6 % o o   . 7 t R y ",
"NX                        # m MXbXpXOX}.s.5.} [ ( A k 9 0 5 0 N w g A F K ( R &.d./ D G ( ` J y # R 8 o   . o P 6 o   .   6 e   ",
"NX                            NXbXgXaX|.k.5.} / 2.A A k ; * ; z 3 T Y Y D K L [ }.&.G G ( } K t ; 5.G & . . 6 4       o     .   ",
"NX                            NXbXgXaX+Xj.8.5.} 8.[ R / S K F Y > z G K ( ` L &.XXK G K S K S Z 6.#.9 $ 4 # +                   ",
"NX                            NXMXvXpX}.g.8.2.` ( ( l 4 P _ y :.' ' z l K K Y 6.d.` ^ L Z G q 7 P + o o o . .                   ",
"NX                            3.MXvXpXXXj.8.2.` L S t 6 4 4 X > 0 k 9 z G G K 2.j.( J G J D t 6 : + o o X           #           ",
"NX                              MXgXaX+Xl.0.2.` L S r 6 % 7 ; & Z F S Y ` G K ` j.( J J D D t 7 3 : o # q #   o . 3 e           ",
"NX                              MXvXaX+Xl.a.8.3.T S t 7 % q l w 8 r K K / G K ` l.` J J J Z t 7 5 5 # o t S .   o # o           ",
"NX                            y MXvXpX+Xl.d.8.3.T S t 6 8 R R 8 4 9 S G A G K ( l.} P J G Z t q 3 $ + o $ N X                   ",
"NXm #                         NXMXvXpX,X}.s.8.[ T G Z r S G 1 9 y q t D S J J ( j.2.T L G Z t 7 4 & # o % o                     ",
"NXNXm                         NXMXvXpX+XI.a.2.[ ( J L S 9 # D r : 5 q t Z G J T c.2.T J G D t q 3 & # o #                       ",
"NXNXm                         NXMXbXpX+Xl.0.2.[ } D l 9 : # 8 1 $ 4 q t D J J P 8.8.P L P P Z e q 6 $ o                         "
};
