/* XPM */
static char *result[] = {
/* columns rows colors chars-per-pixel */
"64 64 237 2 ",
"   c #010101",
".  c #090505",
"X  c #090807",
"o  c #090708",
"O  c #0C0A0B",
"+  c #070808",
"@  c #120D0C",
"#  c #180A07",
"$  c #1A120F",
"%  c #120F10",
"&  c #151213",
"*  c #1A1514",
"=  c #1B1618",
"-  c #1D1A1A",
";  c #0F100F",
":  c #260D07",
">  c #28120D",
",  c #39160C",
"<  c #221C1C",
"1  c #281A17",
"2  c #361A16",
"3  c #340F07",
"4  c #2A211F",
"5  c #38231E",
"6  c #241E20",
"7  c #242122",
"8  c #2B2424",
"9  c #2D292A",
"0  c #2C2727",
"q  c #322C2C",
"w  c #382825",
"e  c #342F31",
"r  c #382F30",
"t  c #3B3435",
"y  c #3D3639",
"u  c #3F3D3D",
"i  c #363333",
"p  c #3D302D",
"a  c #421B11",
"s  c #4B2419",
"d  c #58281A",
"f  c #66331D",
"g  c #472A25",
"h  c #46312C",
"j  c #533129",
"k  c #413D3D",
"l  c #4A3C3C",
"z  c #463635",
"x  c #563A36",
"c  c #542D24",
"v  c #64362A",
"b  c #6B3A31",
"n  c #56423F",
"m  c #794638",
"M  c #6F4132",
"N  c #453F41",
"B  c #493F42",
"V  c #4C4344",
"C  c #4D4649",
"Z  c #484445",
"A  c #534A4C",
"S  c #5B4B4C",
"D  c #564546",
"F  c #584E52",
"G  c #5B5255",
"H  c #5D5459",
"J  c #5A5658",
"K  c #5C514E",
"L  c #654A47",
"P  c #734D47",
"I  c #6A524B",
"U  c #77534A",
"Y  c #635455",
"T  c #61565B",
"R  c #645B5D",
"E  c #6C5757",
"W  c #765A57",
"Q  c #74625E",
"!  c #6B5E62",
"~  c #665B61",
"^  c #765F61",
"/  c #6C6266",
"(  c #6E696B",
")  c #736A6D",
"_  c #7B696C",
"`  c #776566",
"'  c #776D72",
"]  c #7F7F7C",
"[  c #7E7278",
"{  c #915439",
"}  c #875D57",
"|  c #8D5A4B",
" . c #84635D",
".. c #97645A",
"X. c #A56958",
"o. c #876966",
"O. c #956C66",
"+. c #9A726C",
"@. c #82757B",
"#. c #86787D",
"$. c #9A7976",
"%. c #A87569",
"&. c #A47B76",
"*. c #A87D77",
"=. c #B37F72",
"-. c #AD7465",
";. c #AB827B",
":. c #B4857D",
">. c #B9877A",
",. c #C88D7A",
"<. c #CD9274",
"1. c #CC8D75",
"2. c #8B7D83",
"3. c #877B82",
"4. c #957F83",
"5. c #8D8589",
"6. c #968689",
"7. c #9A8C93",
"8. c #998A93",
"9. c #9E9D9C",
"0. c #9D9896",
"q. c #AB8783",
"w. c #B78A83",
"e. c #B6918A",
"r. c #A28E93",
"t. c #A3949C",
"y. c #A89597",
"u. c #BA9996",
"i. c #AB918D",
"p. c #AB9CA4",
"a. c #AA9BA5",
"s. c #AFA0AA",
"d. c #B2A3AC",
"f. c #BAA7AD",
"g. c #BAABB3",
"h. c #BEAFB9",
"j. c #B6A6B1",
"k. c #BEBDBC",
"l. c #BEB6B6",
"z. c #C18C83",
"x. c #C69388",
"c. c #D89E89",
"v. c #C49D95",
"b. c #CC9B94",
"n. c #C79893",
"m. c #D39E94",
"M. c #C2A39D",
"N. c #CDA39A",
"B. c #D4A49C",
"V. c #D8A498",
"C. c #E4AC98",
"Z. c #E7B092",
"A. c #CAA7A5",
"S. c #D4ABA3",
"D. c #DDACA4",
"F. c #D8ABA6",
"G. c #DDB1AA",
"H. c #C3B4BD",
"J. c #CBB6BC",
"K. c #DDB7B4",
"L. c #C1AAB1",
"P. c #E3ADA4",
"I. c #E8AFA6",
"U. c #E3B4AB",
"Y. c #EAB5AB",
"T. c #EAB9AE",
"R. c #E7B5A6",
"E. c #E3BAB3",
"W. c #ECBCB2",
"Q. c #E4BAB8",
"!. c #F1BEB5",
"~. c #EBC5BB",
"^. c #F3C3B4",
"/. c #F3C5BB",
"(. c #F5CABD",
"). c #F7CBBA",
"_. c #F4CBB2",
"`. c #CABBC4",
"'. c #CABBC5",
"]. c #D8BFC4",
"[. c #CECCCB",
"{. c #CEC7C7",
"}. c #D2C3CD",
"|. c #DBC3C9",
" X c #DBCBD5",
".X c #DACAD4",
"XX c #DEDDD5",
"oX c #DED6DB",
"OX c #DCDBCC",
"+X c #ECC4C2",
"@X c #EBC7C2",
"#X c #F4CCC2",
"$X c #F9CDC3",
"%X c #F2C8C6",
"&X c #F5D3C4",
"*X c #F9D2C5",
"=X c #FAD5C9",
"-X c #F6DBCA",
";X c #FADBCC",
":X c #F5D6C8",
">X c #E2D2DC",
",X c #EBD2D6",
"<X c #FADDD0",
"1X c #F5DAD6",
"2X c #EDD5C7",
"3X c #F9E2CE",
"4X c #F5E4CD",
"5X c #F6E4D3",
"6X c #FAE3D3",
"7X c #FBEBD6",
"8X c #F5EBDC",
"9X c #FBECDC",
"0X c #F8E7D7",
"qX c #FBF2DE",
"wX c #F7F2DB",
"eX c #ECE4D7",
"rX c #E6D7E0",
"tX c #EBDCE5",
"yX c #E6D9E1",
"uX c #F0DAE8",
"iX c #EEE7EA",
"pX c #FBEDE2",
"aX c #F2E5EC",
"sX c #F5E7E7",
"dX c #F7F4E3",
"fX c #FBF4E3",
"gX c #FCFAE5",
"hX c #FBF5EB",
"jX c #FCFBEC",
"kX c #F5F2E8",
"lX c #F6EAF1",
"zX c #F9EEF5",
"xX c #F3E7F0",
"cX c #FAF2F5",
"vX c #FDFCF4",
"bX c #FCF5F9",
"nX c #FEFCFB",
/* pixels */
"uX>X X.X.X}.}.'.}.`.a.5.) ' 6.i.f.M.u.;.n , a f M { { X.=.b.N.N.v.K.u.! H A B C r 6 - % @ A C *     . O .               .   .   ",
"tX X}.}.}.}.'.'.`.H.s.3.' ` #.i.i.A.e.e.;.d d { { <.Z._.!.(.T.N.B.Q.u.W Y S F B B 8 < @ 8 k r                                   ",
"uX X}.'.'.'.'.H.h.H.s.6.6.! o.6.i.M.M.N.i.m m { =.Y.3X9XpX<X/.U.G.Q.A.W Y S D F k 8 1 * 8 k B   X   .                           ",
"iX X}.'.`.'.'.h.j.h.d.p.@.T Y o.i.M.M.u.N.N.>.V.^.6XjXvXnX6X$X*X(.E.A.` E Y S B l w < * 4 z k # X   X X +   . +                 ",
"uX>X}.H.l.`.`.j.j.d.s.r.! T T D 6.S.A.M.N.B.U./.=XgXvXvXvX9X9XgX1XQ.F.+.} E S B l g w 1 > # # O         X     .                 ",
"xXyX X`.g.h.`.h.a.a.t.3.~ G ! D e.K.E.S.v.B.U.#X;XgXjXfXhXhXgXhX<XG.A.e.e.4.o.+.$.W x g a : # # . . @                           ",
"lXtX X'.g.j.h.h.s.t.r.3.~ S ` U A.E.E.S.F.P.P.$X;XhXgX=XfXjXhXjX0XW.U.Q.K.A.e.e.A.u.q.P j , : j # . # . X X                     ",
"zXuX>X}.H.j.j.j.s.a.8.@.T Y I $.G.E.E.G.G.U.T.:XpXjX3X_.pXvXgX9X=XW.U.!./.Q.Q.Q.%X+XK.n.q.U g , g # < = . O   X                 ",
"zXxXyX.X'.j.a.a.j.t.8.@.Y S U A.E./.Q.G.F.W.!.;XjXhX).R.*X9X9X;X$X!.Q.!.+XP.G.R.%X$X+XY.B.w.O.c s # # @ 8 < A O                 ",
"bXxXaXoX'.h.s.a.t.a.4.@.^ O.} b.$X<X=X!.D.R.^.1XvXvXqX).^.$X6X;X=X$X#X$X*X/.T.%X!./.$X/.m.w.w.O.U 3 # 1 A < 7 .                 ",
"bXzXxXuXrX'.j.a.t.t.r.3.$.| P 4.;X0X;X$X#XR.^.9XvXvXjX6X(.(.;X6X9X0X<X*X*X$X/././.=X=X!.U.b.n.e.U j : : z V q =                 ",
"nXbXzXxXuX XH.a.7.8.8.3.^ P | -.0X2X~.E.&X6X5XhXvXvXvX7X;X(.$X9XjXl.1X0X<X;X;X=X$X<X<X<X#X!.P.B.:.d , > 1 < k @ . + +           ",
"nXk.aXlXuXoX'.j.a.4.4.2.^ } | ..:X<X@XS.S.~.0X8X9XpXhX;X).*X;XhXnXk [.jXgXwXqXgX0XpXkXkXdX:XW.P.;.f a 5 h O = . . +             ",
"nX  k.bXxXyX>X'.s.7.7.4.o.O.4.F.#X-X~.N.B.G.U.Y.T.W.-X-X*X7XqXvXnXnX[.iXvXjXvXjXfXjXkXvXhX<XT.T.>.f d , n . . . 7 - - X         ",
"nX  k.bXzXaXuX'.j.t.4.y.e.G./.=X-X&XS.v.v.B.N.c.c.C.(.&X;XgXjXnXnXnXu k.vXjXjXhXvXkXvXvXjX5X#XV.-.f d , h # X 7 = + +     .     ",
"nX  k.bXzXxXuX].h.a.y.a.].%X%X%X:XK.S.v.M.M.n.>.1.C.).qXwXgXvXnXnXnXnXvXvXvXjXjX@.;.vXnXjX7X6XW.c.{ d , # # < &   X .   .       ",
"nX    k.bXzXxXrX'.d.p.].%XQ.~.#X~.A.M.u.v.S.S.v.<.c.T.gXvXjXvXvXnXnXnXu k.vXvXvXnXvXvXvXhXqX6XY.I.b.X.d , . . .   8 7 ; ~ 9 +   ",
"nX      k.cXzXuX XL.f.K.+X+X#X%X;X@XM.:.:.:.>.c.c.I.=XjXvXnXvX8XvXvXnXnXu k.nXvXnX] N vXgX-X(.(.W.P.*.s 2 # . * - o - 7 ; =     ",
"nX      k.cXcXxX>XJ.L.A.K.!.K.pX6X(.N.:.>.>.;.<.V.^.0XvXnXnXnXvXvXvXvXnX[.eXvXt.u ] [.jXfX*XY.!.Y.B.%.v 2 $ * 6 z O O = 7 7 -   ",
"nX      e [.bXzXuX].J.L.S.m.m.pX#XR.c.>.>.>.>.>.C.(.pXnXvXnXnXvXnXvXvXvXjXwXjXXXk.XXjX9XfX=X/.Y.B.b.w.&.U 2 @ w * X O = X O =   ",
"nX        k.bXbXaX,X@XK.U.Y.T.pX4X^.Z.<.<.<.<.Z.).3XgXhXkXdXvXnXvXjX7X3X6X7X9XjXqXqXqX5X6X=X).!.W.B.=.w.&.U 1 @ & o . ;   +     ",
"nX        e u 9.zXsX,X+X~.1XpXvXhXqX3X_.Z.Z.Z._.6X-X6XfXvXvXnXnXnX7X_.-X6X9X5XqXqX3X;X3X;X;X;X).W.Y.:.e.4.o.h O & - + . . ; X   ",
"nX            u k.zXaX1X1XcXnXnXnXvXgXwX_._._._.3X7X9X9XfXvXnXvXvXqX7XwXgXgXqXgXjXfXgX9X9X6X=X(.!.P.b.n.w.O.g < 8 %     + +     ",
"nX              Z H.nXvXcXnXnXnXnXnX9.XXqX7X7XwXgXgXwXwXfXvXvXnXvXjXjXjXfXqX9XqXvXvXvXjXhX6X3X=X%X!.P.x.*.O.I x l * . + +   O   ",
"nX                ] oX9.nXnXnXnXnXjX0.XXvXvXvXvXvXjXjXvXvXvXvXvXnXvXvXjX8XgXwX9XvXgXjXjXgXgXqX;X$X!.D.x.w.*.$.+.+.q O & % & = . ",
"nX                u ~ 7 9.nXnXnXnXjXjXvXvXvXvXvXvXjXvXnXjXdXfX8XvXvXvXjXfXgXjXjXvXwXjXvXvXjXgX;XP.P.P.b.w.w.q.&.$.8 X - Z O = ; ",
"nX                      u nXhXvXvXvXvXvXvXvXvXvXjXvXvXvXvXjXdXdXvXhX7XgX8X9XjXvXvXOX[.vXvXvXfX6X^.x.m.z.*.&.*.O.L $ O @ - Z = ; ",
"nX                    ; ( jX5X5XvXnXnXnXvXjXgXgXjXvXjXnXvXvXvXvXvXjXqXgXjXjXjXvXvX9.( vXnXnXvXfX=XI.b.w.} b n w # o O X - u + 9 ",
"nX                    u nXnXhXhXvXnXnXvXvXjXjXOXXXvXkXvXvXnXnXjXjXhXjXjXvXvXjXvXnXvXnXnXvXnXvXqX&X!.R.:.v , 2 = 0   .   O +   F ",
"nX                    k vXiXk.nXvXnXnXvXgXvXgX9.9.vXvXvXvXvXvXvXk.vXvX[.eXvXvXXXXXvXvXnXvXnXvX-X=X!.P.;.v , 5 # *   + O - O + 7 ",
"nX                    u nXk.  nXnXnXnXjXgXgXjXjXjXvXvXvXjXvXjXnX  vXvXu k.vXvX] ] nXvXnXnXvXvX(.$XC.x.| d 3 , $ @ + + = O +   o ",
"nX                              nX  k.vXjXjXjXjXjXvXvXgXvXvXjXvXvXjXjXu k.vXvX] ] vXnXnXvXjXhX=XY.x.X.{ d 5 > .   = O     =     ",
"nX                        u nXnX    k.vXjXjXgXjXjXjXvXjXvXvXnXvXjX  k.nXnXn ] kX] ] vXnXjXhXhX:X/.C.z.=.&.` x < .   +     +     ",
"nX                            nX    k.vXjXjXgXjXvXvXjXvXvXvXvXvXvX  k.vXvXvXvXjXvXvXvXnXkX4XdX6X!.I.m.e.:.o.2 9         +   & Z ",
"nX                R k.k.k.k.k.u     i [.jXgXwXvXgXvXjXvXvXvXvXnXvX  k.nXvXvXjXgXfXjXvXnXjX8X8X:XI.Y.b.w.&.P 5 V 4 7 ; &   + & / ",
"nX                ] nXbXzXnXnXk.k.  5.iXvXvXdXgXwXjXvXvXvXjXvXvXvXk.iXvXvXjXjXwX7X5X8X8XvXvXfX/.I.m.&.%.O.W 1 < i @ = O 4 = ; ; ",
"nX                7 ( bXcXnXnXvXvXk.iXnXnXhXgXgXjXvXjXvXvXvXnXu vXnXvXhXvXhXfX3X0X9X6X<X0XpX1X$XT.w.w.:.o.h 5 X + + & + = = ; 7 ",
"nX                  u nX[.( cXcXjXjXnXnXvXgXnXvXqXjXjXjXgXnXnX  vXqXqXgXjX9X;X*X6XhX0X&X&X<X<XY.b.,.%.&. .x 8 4 & & < & Z ; = Z ",
"nX                  u nXoX9.hXcXhXdXvXnXnXvXwXwX4XjXjXjXvXvXjX] jX6X;XqXgX-X;X).*XpX=XW./.!.Y.I.m.z.+.$.W j 1 @   O & - F & = + ",
"nX                  7 9.nXcXzXhXjXjXjXjXvXnXvXjXwXvXvXvXvXvXvXvXvXgX3X4X7X-X;X^.(.$XW.I.Y.Y.I.V.b.w.*.*.W I x * 4   9 J 9 +   + ",
"nX                    - 9.bXbXkXhXhXpXeXvXnXnXvXdXvXgXvXvXvXvXnXvXvXgX7X3X*X$X)./.Y.m.w.m.b.z.4.+. .;.;.E I L K . X - i 9 O   C ",
"nX                      u nXnXhXsXpXfX4XvXvXkXhXfXjXvXjXkXjXvXnXnXfX7X;X$X%X$X$XT.x.O.,.z.z.x.+.x j I Q n n n R 7 C < e y   ; i ",
"nX                      N nXbXlX0X0X1X~.fXvXvX7X9X-X7XqXfX7X8XvXvX6X;X*X!.Y./.P.B.=...*.x.z.4.} j j z n h p 1 $ & 9 = 9 i   O y ",
"nX                    ; ( nXzXiX1X+XU.P.P.&X3XC._.Z.Z.Z.4X5X9XgXgX;X(.).T.P.U.F.n.} P O.4.O...L E n w $ # 4 @     X & 0 & + + = ",
"nX                    u nXcXlXaXuX+XS.x.,.,.c.c.C.!.(.(.;X3X=X<X=X^./.^.D.D.n.n.4...E L L z B  .z 1 - 0 0 0 . ; + + ; ; @ + + + ",
"nX                    u nXcXaX,X,XQ.M.w.*.%.-.-.>.#X/././.(.V.).$XT.W.V.x.:.&.e.^ L L z w h 6 z z 0 0 $ 7 $ y 4 = ( n - n ; + = ",
"nX                    u bXcXaX>X].f.y.4.y.;.+.| ..R.W./.$XT.x.V.T.W./.n.e.&.o.r.^ z z r 8 6 6 N i 0 7 ;   X ; 9 7 5.n ; & ; + - ",
"nX                    N bXcXaX>XJ.p.r.2.o.$.o.m b =.F.U.U.>.X.x.B.B.w.O.q.} B i.4.! B r e N B 6 & u R 4 O u 9 = - 7 & +     - / ",
"nX                    u nXcXaXoX'.d.r.3.' ! L B j } o.n.M.O.M m } P U L i.o.x @.@.B A t A ' e = - q y 4 ; &   O % = 9 & O + = % ",
"nX                    u nXzXaX>X'.j.t.3._ T S B g g g $.O.d s O.j x L I I W E 5.4.B B y C F F 6 q @ + - o o O o   % = - O       ",
"nX                    u bXzXaXoX'.h.a.5.' ~ D B B 2 2 L I x x I x g x A ! o._ r.r.B V k B Z y = 6 % X X   o + 0 O o - e Z +     ",
"nX                    u bXzXaXrX'.h.a.2.' ~ A B Y w 1 g g w 5 > 2 1 l ! S l Y 5.a.D B V k t 9 7 % 0 % O o + o % *     O H C O O ",
"nX                  e [.bXzXxXtX Xh.a.5.3./ G H B 6 4 1 * # 1 g z r z T ` S G #.8.C A V y y y 7 < - 6 6 < ; O ; X O X   i ' O 7 ",
"nX                  u nXbXcXxXtX XH.s.7.3./ T B Y B 6 # * @ < 1 6 q z V K R H @.3.H R T B y e 0 6 = 6 = y & 6 % . = X + 6 Z + + ",
"nX                  u nXbXzXlXaX>X'.j.8.[ / H A B V t < # * @ $ > t r B G ` H @.2.~ H F N y q q < % O O 0 o o & + +     + O &   ",
"nX                  u nXbXcXlXaXrX'.j.t.3.( ~ H l r t 6 t t = t B V C V H ` T [ H.T A ( F y r 0 < = O 6 9 0 % y .     + 7 e 7 i ",
"nX                  N nXcXbXbXxXyX'.`.a.5.' ! ! E k 0 0 Z n n A 0 C D C C G H ) h./ G F / [ R C 1 Y 0 o X & C /     .   + & J C ",
"nX                  u bXbXbXbXxXyX}.'.h.t.#./ H 5.K R ( 7 4 4 I 1 k G ~ T / F / j.@.H H H ( V B z y.k * o   - O . e X +   O =   ",
"nX                  u nXbXbXbXlXyX X'.g.0.3.[ ! @.R l z 0 9 Z R < 0 r B R T G / h.7.H ~ A C y y 6.Y q < O o o O O 7         +   ",
"nX                  k nXxX[.bXzXtXrX.Xa.8.@.) H G n q - O & y Y z G k N A F T @.'.3.~ H A C C y Z - y 6 6 *     +               ",
"nX                  e k.5.u nXcXaXrX}.d.8.3.' H Z Z 9 < e i < p Y / Z y C F G ' j.7./ H ~ H C e 8 - - & - +         % +         ",
"nX                      + u nXzXaXrX X`.0.5.[ ~ C A 9 < F J - * 8 B k C H F H ) 9.8.~ ~ G F B i 0 - & O X .       - i .         ",
"nX                        u bXcXaXrX.X'.a.8.3.) A Z q 7 9 y k - < V F F ) F H 5.a.a.! H H A Z t 9 8 - @ - -     o & .           ",
"nX                        u nXbXxXrX.X'.a.3.3./ C y q - 4 V k q t p A C C F T ~ t.H.' ~ ' F C y q r - O 0 J @ +                 "
};
