/* XPM */
static char *result[] = {
/* columns rows colors chars-per-pixel */
"64 64 238 2 ",
"   c #010101",
".  c #090606",
"X  c #0C0A0B",
"o  c #0B0807",
"O  c #120D0C",
"+  c #190A07",
"@  c #17110E",
"#  c #130F10",
"$  c #141213",
"%  c #1A1414",
"&  c #1C1618",
"*  c #1D1A1A",
"=  c #1B1817",
"-  c #260C07",
";  c #221C1D",
":  c #271917",
">  c #2F150F",
",  c #26201F",
"<  c #36211C",
"1  c #241F20",
"2  c #252222",
"3  c #2A2324",
"4  c #2C2A2A",
"5  c #2E2728",
"6  c #322423",
"7  c #322C2C",
"8  c #3A2C2A",
"9  c #392825",
"0  c #3B312F",
"q  c #332F30",
"w  c #3C2F31",
"e  c #353233",
"r  c #3B3334",
"t  c #3E3C3D",
"y  c #3E3639",
"u  c #42170B",
"i  c #49261E",
"p  c #562714",
"a  c #64311B",
"s  c #462925",
"d  c #542D25",
"f  c #48312C",
"g  c #423C3D",
"h  c #473838",
"j  c #573C39",
"k  c #583427",
"l  c #65392F",
"z  c #58413E",
"x  c #4B413F",
"c  c #754538",
"v  c #674239",
"b  c #453E41",
"n  c #4A3E42",
"m  c #4B4244",
"M  c #4A4547",
"N  c #51464A",
"B  c #544A4C",
"V  c #5A4B4D",
"C  c #574646",
"Z  c #564D51",
"A  c #5A4E52",
"S  c #5C5155",
"D  c #5F5459",
"F  c #5F5D5E",
"G  c #545253",
"H  c #654A48",
"J  c #69524D",
"K  c #7A554D",
"L  c #624D50",
"P  c #625354",
"I  c #63565B",
"U  c #655A5E",
"Y  c #6B5B5D",
"T  c #6A5555",
"R  c #775B59",
"E  c #754B45",
"W  c #7B625C",
"Q  c #655C61",
"!  c #6A5E63",
"~  c #725E63",
"^  c #6C6265",
"/  c #6E696A",
"(  c #72656B",
")  c #756A6D",
"_  c #776466",
"`  c #7A6C72",
"'  c #7D7276",
"]  c #7F7E7D",
"[  c #7C7276",
"{  c #824C38",
"}  c #845D57",
"|  c #945D4E",
" . c #87635C",
".. c #986557",
"X. c #A76D5B",
"o. c #8E6A65",
"O. c #876665",
"+. c #936D67",
"@. c #9C716B",
"#. c #95736C",
"$. c #84757B",
"%. c #877879",
"&. c #997874",
"*. c #89716F",
"=. c #A6776D",
"-. c #A77D76",
";. c #B27E74",
":. c #B3776A",
">. c #7F807B",
",. c #99817C",
"<. c #AC837D",
"1. c #B7857A",
"2. c #C88C77",
"3. c #8B7D83",
"4. c #867A82",
"5. c #8E8688",
"6. c #93858C",
"7. c #9F878D",
"8. c #9A8B94",
"9. c #988A93",
"0. c #9F9D9C",
"q. c #9E9398",
"w. c #9E918E",
"e. c #A98986",
"r. c #B38B83",
"t. c #BD8D84",
"y. c #B78B86",
"u. c #BA938B",
"i. c #A2939C",
"p. c #AA9495",
"a. c #BA9A96",
"s. c #A79090",
"d. c #BEA19A",
"f. c #AA9BA4",
"g. c #A99AA4",
"h. c #B59CA0",
"j. c #B2A3AC",
"k. c #B7A6AA",
"l. c #BAACB5",
"z. c #B9A9B3",
"x. c #BDBDB5",
"c. c #BEBDBC",
"v. c #BEB2B9",
"b. c #B7ADAD",
"n. c #C08F86",
"m. c #C2938B",
"M. c #C9968A",
"N. c #D59A8A",
"B. c #CB9B94",
"V. c #C49B96",
"C. c #D29C93",
"Z. c #C4A19B",
"A. c #CAA29C",
"S. c #C7A49A",
"D. c #D4A39C",
"F. c #D9A59A",
"G. c #D9A187",
"H. c #E4AA9A",
"J. c #E7AF98",
"K. c #C29FA1",
"L. c #CCA8A5",
"P. c #D4ABA4",
"I. c #DCABA4",
"U. c #D6ABA7",
"Y. c #DDB2AC",
"T. c #DDB3A9",
"R. c #C2B3BD",
"E. c #CAB5BB",
"W. c #DCB6B3",
"Q. c #C7AFB6",
"!. c #E2ADA4",
"~. c #E3B1A6",
"^. c #E4B4AB",
"/. c #EBB9AB",
"(. c #EBBCB3",
"). c #E6BAB3",
"_. c #F1BEB3",
"`. c #F2BAAD",
"'. c #ECC2BB",
"]. c #ECC3B5",
"[. c #F3C4BB",
"{. c #F4CBBD",
"}. c #F5C7B7",
"|. c #F5D1BD",
" X c #F5C3AC",
".X c #CBBBC5",
"XX c #CEBEC8",
"oX c #C7B7C1",
"OX c #DABEC4",
"+X c #E3BEC1",
"@X c #CECCCB",
"#X c #CDC8C6",
"$X c #D3C3CC",
"%X c #DBC4CC",
"&X c #D6C7D1",
"*X c #DACBD4",
"=X c #DCCCD7",
"-X c #DED9DA",
";X c #DED6C9",
":X c #F5CCC2",
">X c #F7CCC4",
",X c #F5D2C4",
"<X c #FAD2C5",
"1X c #FAD5C9",
"2X c #FADACC",
"3X c #F6D9CA",
"4X c #E2D3DC",
"5X c #ECD7DB",
"6X c #F6DBD7",
"7X c #E8CACB",
"8X c #F8E2CA",
"9X c #FBE4D4",
"0X c #FBE8D5",
"qX c #FAE5DB",
"wX c #FBECDB",
"eX c #F6E7D9",
"rX c #FCF1DE",
"tX c #E5D6E0",
"yX c #EADCE4",
"uX c #EADCE5",
"iX c #F2DDE0",
"pX c #EEE9E8",
"aX c #FBEEE1",
"sX c #F2E5EC",
"dX c #F5E9EE",
"fX c #F8EAE6",
"gX c #F7F3E4",
"hX c #FCF4E4",
"jX c #FBF6EC",
"kX c #FCFAEC",
"lX c #FAF8E8",
"zX c #F6EBF1",
"xX c #F9EEF4",
"cX c #FAF2F5",
"vX c #FDFCF4",
"bX c #FCF5F9",
"nX c #FEFCFB",
"mX c #F7F4F0",
/* pixels */
"uXuXsXuX4X&XXXXXl.g.4.( Q ~ 4.3.a.d.p.<.z - > p a { 1.X.;.P.d.a.u.W.K.~ I ) Q ~ n 5 1 ; % & * 1 O . .                           ",
"4XtXtXtX4X$XXXoXz.q.4.( I Q -.3.s.h.a.d.#.k p a { 2.^.I.].].P.B.B.Y.K.Y L Q D P n 1 1 # O ; & : o                               ",
"=X=X4X4X4X$XoXoXz.i.4.! I A ~ O.s.a.a.a.<.c k | 1.(.|.8X6X'.I.I.Y.W.Q.~ T S N N w 1 : % 5 b 1 & .     .                         ",
"&X&X&X&X*XXXoXl.j.i.' Q A n n T p.a.V.a.a.1.<.H._.3XeXvXfX].^.}._.U.Q.O.T A N N n 7 1 & : n Q q .     o                         ",
"$XXX.X.XXX.XR.z.f.8.` ! D n h h p.L.L.Z.u.B.^.:X1XqXhXhXeX2X9X9X1XL.L.&.~ T L L H f 6 : 8 w h o                                 ",
"$X.XoXoXR.oXR.j.g.3.` $.! n h n a.W.L.A.V.U.).:X:XqXqX2XaXwXqXhX3XP.S.Z.a.e.*.*.3.T H < s h h + .   .                           ",
"$XoXR.l.l.v.z.f.i.3.$.4.L n n R U.W.P.V.L.P.^.:X1XwX2X}.jXvXfXhX:XP.D.W.Y.P.K.s.L.a.e.R H T C :                                 ",
"&XoXv.j.f.j.f.g.8.3.$.~ n n T e.Y.P.L.A.P.D.I.:XqXwX}./.fXvXkX9X(.T.P.T.).W.).^.:X:X).B.a.#.s + .   . O                         ",
"&XXXoXz.g.g.g.g.9.4.~ V n H O.U.Y.).W.P.D.I.F.,XlXrX}.J.}.9XwX>X(.^.^.Y.).U.I.(.).).W.U.V.-.} s - . o o                         ",
"4X&X.Xz.g.g.3.i.3.$.~ N n v } U.:X1X:XY.I.).`.1XQ.R.jX9X[.{.2X>X>X[.[.[.{._.^.(.(._.[.^.V.@.&.&.< + o . o o                     ",
"4X&XXXR.j.3.3.i.8.4.~ V z l l U.3X1X,X:X{.(.{.qX>.>.vXhX<X}.{.<X1X<X:X>X<X[.(.(.(.>X[.^.C.m.u.y.} - @ ;   o .                   ",
"uX=X=XXXl.g.i.3.7.4.~ A j l l n.9X3X'.^.{.2X9XjX0.0.vXaX<X_._.1XwXaXwX6X1X,X<X<X>X1X>X'.).U.V.V.<.s - O * ; t *                 ",
"sXuXtX&XoXj.i.i.3.3.` L } } l X.1X2X).S.S.^.,X0X0XrXkX0X<X{.{.wXR.x.gXkXhXwXhXhX9XwXhXqX{./.C.C.<.i - + m , , O                 ",
"zXsXuXtXOXoXg.3.i.3.$.O.O...;.D.'.,XW.S.V.S.D.~.~.}.3X9X8X2X2XvX    5.pXvXkXkXkXwXvXvXhX2X].!.C.=.l > - 9 g 8 2                 ",
"xXxXzXsXtX.Xz.i.8.3.$.O.3.D.Y.>X3X7XU.S.S.S.M.M.N.J.|.9XwX9XrXnX      c.kXkXlXhXvXvXvXvX9X>X(.I.=.a u > : : M 2 o   .           ",
"bXxXxXsXuXXXoXg.i.i.3.e.)._.+X6X'.L.P.S.S.V.u.:.2.2./.rXlXwXkXvX    x.nXvXkXlXlX%.    t hX2X>X`.n.c u > x O # X   X             ",
"nXnXnXxXzXtXXXz.i.8.7.+X+X!.).+X).B.d.u.d.S.P.u.2.N.!.qXvXvXvXnXnX    x.vXvXvXnX>.>.nXvXhX6X[.^.H.1.| > 1 + . . 5 & 1 &         ",
"nX  c.bXxXsX=XoXj.8.3.A.Y.U.(.:X2X,XS.r.<.u.u.u.N.H.}.aXx.g nXvXnXnXx   x.kXnXnX] ,.vXvXjX>X`._.C.D.@.s 9 % . 5 O .   . X       ",
"nX  q @XbXsXuX.Xj.p.s.u.K.D.^.6X2X3XD.u.1.<.<.1.N.`.1XjXx.# t nXvXnX@Xc.pXvXvXvX>.] vXkXhX1X`.F.F.D.=.j < - % #         $ X     ",
"nX    q $XxXsX=XQ.h.s.e.n.C.D.6X).T.B.1.S.2.1.1.H._.3XnXpX5.  nXnXvXvXnXvXvXkXvX-X-XkXwXhX1X[.!.~.C.n.+.L 6 + o   X .   q M o   ",
"nX      c.bXzXuX$XL.V.n.M.H.T.9X8X XJ.2.2.2.2.J. X{.9XvXnXpXx.hXvXlX0X8X8X8X0XrXlXgXeX0X9X:X>X/.!.I.B.3.;.} < # * * # .   & *   ",
"nX      c.nXnXcX5X+XW.I.H.3XwXkXlX0X|. X XJ.J. X8X<X2XwXvXnXnXkXvXlX2X8X|.8X2X0XgXeX8X8X1X<X<X[.^.I.B.t.3.O.n : M $ . $ $ & 3   ",
"nX      F ] ] ] v.5X7X3X'.fXvXnX>.kX0XrX|. X|.8XrXwXhXrXlXvXnXvXvXkXgXhXrXeX8X0XkXhXlXwXrX0X1X[./.D.B.m.;.O.n 6 e   X $ o   X   ",
"nX          b t ] xXxXjXeX-X] nX>.vXrX0.;X0X8XrXkXkXkXlXgXvXvXvXvXvXvXkXgXeXwXrXkXgXkXkXrX0X2X<X/.^.3.2.=...E s h = . X . .     ",
"nX          ] ] b c.nXnXnX-X] nXvXvXnX0.-XvXx.>.x.vXvXmXgXeXkXvXvXvXmXkXvXkXlXkXkXlXkXkXrXwX0X1X[.).-.;... .+. .W x X O .   $   ",
"nX          ] ]   t 0.-X0.nXnXnXnXnXnXvXvXvXx.>.x.vXvXvXkXrXwXhXvXvXwXjXgXkXkXvXvXkXkXvXkXrX0X1X[./.m.t.<.&.<.+.+.f o . . $     ",
"nX          F F     e 5.t nXnXnXnXnX@XpXnXvXvXmXvXnXvXvXrXgXhXkXc.jXlXkXhXhXkXvXvXvXvXvXlXhX0X1X[.~.B.<.@.#.&. .H s O $ X X # X ",
"nX          2 t 2   $ b / nXnXnXnXnX/ @XvXvXkXvXvXvXgXvXvXvXvXvXg vXvXvXkXkXkXvXnX-X@XpX@XkXgX2X:X!.B.1.K v z < 8 3 X X   X #   ",
"nX        4 0.nX0.2 e @XnXnXnXnXnXnXvXvXvXvXvXkXvXvXnXvXvXnXnXnXvXvXnXvXvXvXlXlXvX0./ @X/ vXvX>X_.^.I.;.k < f O 2 * . # $   X ; ",
"nX        oXnXcXcX]   t nXnXnXnXnXmX@XpXvXvXkXvXvXvXvXnXvXvXvXgXvXkXhXkXvXvXvXvXvXmXpX@XnXnXjX1X_.2.C.@.i + - % = # # X e t $ * ",
"nX        c.nXbXbX]   t nXmXmXvXnXvXt c.vXvXkXvXvXvXnXvXvXvXnXvXnXlX8XrXnXvXnXnXvXvXx.x nXnXhX<X`.1.;.@.i - , , o   X X X 2 4 t ",
"nX        c.nXbXbXbXc.b nXmX8XlXmXnXt c.kXmXkXkXvXvXvXnXvXvXnXvXvXvXkXvXnXnXvXkXvXvXnXvXvXnXvX{.H.M.;.=.d - + * * o       b G 4 ",
"nX          ] bXnXbXR.g mXmXeXjXnXnXt c.vXvXvXkXvXkXkXnXnXnXvXvXvXkXnXnXvXnXnXnXnXnXc.x nXvXvX9X`.C.;.@.o.j < . O     O 2 4     ",
"nX          ] bXnXdXcXnXmXkXvXbXnXnXnXnXmXkXvXvXvXvXvXvXvXkXmXnXnXvXvXt x.vXvXvXvXvXvXnXvXmXvX{._.C.m.1.<.W 9 % o O X o X = O   ",
"nX          ] nXbXdXsXdXjXvXnXvXnXt @XkXkXvXvXkXkXvXvXvXvXvXvXnXnXnX/ 0.pXkXlXkXvXvXvXnXnXnXkX].!.!.n.@.=.O.f o   X X     X o   ",
"nX          ] nXcXzXsX5X6XiXjXjXnXc.F @XvXvXnXkXvXvXvXkXvXvXmXvXkXgX@XgXvXkXlXeXrXwXrXkXvXgXqX^.H.M.r.=.+.R 0 %   . o         o ",
"nX          * 0.bXzXsXyX6XfXcXaXgXnX@XpXvXkXkXnXvXkXkXnXvXnXnXvXkXhXlXkXkXhXqX,XwXwXwXwXwX,X<X!.!.1.;.=.~ 9 o ,       X   . X F ",
"nX            ] bXxXsXiXdXxXhXfXeXgXvXmXkXvXvXnXvXkXkXvXvXvXvXnXhX0X0XrXrX8X|.1X,XhX3X}.<X!.~.!.B.;.@.&.W s @ #   = X * o . . * ",
"nX            ] bXcXdXsXfXfXiXiXwXeXvXvXmXmXlXnXkXvXnXvXkXvXvXnXhX8X,X0X0X9X1X{.(.1X[.`._.F.C.C.n.r.+.+.J f ; * 4 e $ . $ * X X ",
"nX            ] bXcXxXzXzXfXiXqXaXhXhXmXvXkXeXlXgXnXnXvXvXvXnXkXvXjX0X3X0X,X1X`._.(.!.M.D.F.m.B.n.<.+.} K J J 8 y   2 $ . $ . M ",
"nX            t c.bXbXxXzXiXiXqXwXaXhXhXlXvXvXhXkXvXvXvXkXvXnXvX>.kXrX8X6X>X[._.`.!.n.;.m.n.n.y. .o.+.*.W f C 8 & $ $ X t * * 3 ",
"nX              ] nXbXbXsXiXiX6X6XqXhXhXhXgXjXlXeXkXkXgXlXvXkXkX] qX8X2X>X_.[._.I.n.@.+.-.y.-.+.k z J W W J z - . . . X M $ $ . ",
"nX              F -XbXbXzXiXfXiX6X3X6XwXwXrXwXeX|.|.3X8XhXlXhXkXjX1X<X{._.I.).).m.@.} o.t.;.-.R x > s W z J x . 1   # y e $   o ",
"nX                4.nXbXsX5X7X6X>XU.C.C.G.].,X2X/.J.J.|.0X0XwXwX0X<X_./.^.F.C.Y.u.} H #.3.O.R s P + @ , 7 0 4 2 . o & M q O   q ",
"nX                ] nXbXsX4X7X7X+XL.t.:.:.2.N.N.F.}.|.}.,X,X<X>X<X[.[.^.D.B.m.L.3.} L *.T n 9 6 e @ , 7 3 & 7 ` 2 e 4 * 4 .   X ",
"nX                F @XbXsX4X%XOX+XK.y.@.| | | X.1.}. X).].`.F._.[._.(.C.t.r.&.a.O.L V A n 8 5 b * O = O X % 2 & & 2 $ X X o X e ",
"nX                  b bXsXtXXXE.h.s.&.O.K { c ....T.).(.[.B.:.~.(.(.(.D.r.+.R i.~ A B n n b g e 4 @ = O   $ $ .     $ $ 2 . # X ",
"nX                  b bXsX4X$XQ.i.3.$.R H H E K c 1.T.y.~.M.| =.n.m.<.+.&.R V i.` n I n n f h ` _ x x 4 $ 3 o     & 2 $ t   X . ",
"nX                ] nXbXsX-X&Xv.i.3.[ ~ ~ L R f i i O.u.a.=.c d E o.l z <._ U 6.3.V Z M g q 5 r x 0 e % e 1 $ * X [ ^ X b $   $ ",
"nX                ] nXbXsXtX*XR.i.9.4.Q I V h n i > j y.+.d i s l H V J T L V [ q.! %.A h b t 7 0 M ! , * * G e 4 M 4 X . 1   G ",
"nX                ] nXxXsXtX*XoXg.9.4.! 4.P f 8 6 f s H s s < < H h C V V P V ` i.I D n b b b n e e M 4 X e 2 2 ; & X X   . # ^ ",
"nX                ] nXxXuXtX*XoXj.8.3.( ! $.n w : f < + - < 9 : 8 8 C C ) ) S ' l.S A n b n b q ; , x 7 X $ X . X $ * $ . . X # ",
"nX              F -XbXxXsXtX*X.Xj.9.4.( Q D r w 1 V : : @ 1 8 h 3 g m h C I S 4.R.( S m M Q Z q 2 g r , X X X #   $ * q X .     ",
"nX              ] nXbXbXsXuX=XXXj.9.4.( I N y 7 n 5 + 7 h f 6 V f 8 m B N V I ` l.I I Z N [ ( 3 e , X o     . X $ $ $ q F $     ",
"nX              ] nXbXxXsXuX4XXXz.i.4.( Q n y 7 g & O 1 Z ; % + 3 6 h ^ C C P _ b.D D I Z U M 1 3 ; $ o o o o o *     . F e X   ",
"nX            t c.bXbXzXsXuXtX$Xl.i.3.` ( A b b f 1 ; O X . : 7 m 5 r ^ %.^ ^ ` b.U Z N D n b q 7 ; $ $ 2 X   2 o .   . 5 ] e X ",
"nX            ] nXbXbXzXpXuXtX&Xv.i.6.[ Q Z M Z D e % . O O % @ ; 8 e g C S P ( i.( ( ^ B b y q 3 1 q 2 q $ o   X . o   & F $   ",
"nX            ] bXbXxXzXsXpXtX&XoXh.9.4.! A M b 5 3 3 ; O X O ; , B x g P ^ V ) g.` S F N y q t 1 # # X 2 2 X $ . . .     # .   ",
"nX          1 0.bXbXzXzXsXsXuX=XXXf.8.3.( D N Z 7 ; ; ; & @ @ 0 x g N M B ) Y ^ 5.' D Q Z t r r 1 & X * = $ # M $       # = &   ",
"nX        q 0.nXbXbXxXzXsXsXtX*XXXj.f.3.` D B M m , 5 2 r 8 r t ; M N Z N ^ D D 8.5.S Z ( 4.Q N ; A e X & * $ N .       X * & 1 ",
"nX        c.nXbXbXxXxXzXzXsXtX=XXXl.g.i.3.! S m ) x N U r h h D % 8 m G F ^ N G g.q.Q D Q ) B g C w.8 X X O q b             e G ",
"nX      q @XbXbXxXxXxXxXzXsXuX=X$XR.f.6.4.! ! Z U h ; % % 2 m h % 1 7 y B B S Q 6.f.Q ! A n g r 5.r % , X o X X   X X . .   $   ",
"nX      c.nXbXbXbXxXxXxXxXsXpX=X&XoXj.9.` Q S b g 2 * X o o 7 V % 5 5 r m B I ` 4.z.^ Q A m t q e ; % * X X       M q           ",
"nX  c.t c.bXbXbXxXxXxXxXxXzXuXtXtXXXj.3.' ! S n w 5 ; $ o # % e D P r y M N Z ` 9..X` D Q N m h 5 ; 4 2 * 3 .     b $ .         "
};
