/* XPM */
static char *result[] = {
/* columns rows colors chars-per-pixel */
"64 64 246 2 ",
"   c #020202",
".  c #090505",
"X  c #0B0708",
"o  c #0C0A0A",
"O  c #0D0907",
"+  c #110D0D",
"@  c #150A07",
"#  c #17110F",
"$  c #130F10",
"%  c #151213",
"&  c #1A1414",
"*  c #1C1718",
"=  c #1E1A1B",
"-  c #36140A",
";  c #231513",
":  c #221C1D",
">  c #2C1E1C",
",  c #271815",
"<  c #2D120C",
"1  c #27201E",
"2  c #36211D",
"3  c #241E20",
"4  c #252122",
"5  c #2A2424",
"6  c #2D2629",
"7  c #2D292A",
"8  c #332625",
"9  c #322B2D",
"0  c #3B2A27",
"q  c #342F30",
"w  c #382F30",
"e  c #363233",
"r  c #3B3334",
"t  c #3D3639",
"y  c #3E3C3C",
"u  c #3D322F",
"i  c #431E16",
"p  c #401608",
"a  c #49241B",
"s  c #522514",
"d  c #432D28",
"f  c #4A312D",
"g  c #423B3D",
"h  c #4B3D3B",
"j  c #453635",
"k  c #573B36",
"l  c #583229",
"z  c #653D34",
"x  c #61372C",
"c  c #3F403E",
"v  c #55423E",
"b  c #40403E",
"n  c #77483A",
"m  c #3F3F40",
"M  c #463D41",
"N  c #4A3F42",
"B  c #4B4345",
"V  c #4E4649",
"C  c #4E4A4B",
"Z  c #454243",
"A  c #52464A",
"S  c #544A4D",
"D  c #594846",
"F  c #564D50",
"G  c #5A4E53",
"H  c #5C5255",
"J  c #5F5559",
"K  c #5F5E5E",
"L  c #565153",
"P  c #5F504E",
"I  c #654A47",
"U  c #6B534D",
"Y  c #62565B",
"T  c #64595D",
"R  c #685657",
"E  c #755A57",
"W  c #78504A",
"Q  c #75625D",
"!  c #5F5E60",
"~  c #665C61",
"^  c #6A5E63",
"/  c #755F64",
"(  c #6C6265",
")  c #6F6369",
"_  c #6B6868",
"`  c #71656A",
"'  c #746A6E",
"]  c #796768",
"[  c #7A6D73",
"{  c #766A70",
"}  c #7D7176",
"|  c #7F7D7D",
" . c #7F7279",
".. c #885749",
"X. c #845D57",
"o. c #8D5746",
"O. c #86635C",
"+. c #996354",
"@. c #A86B58",
"#. c #876865",
"$. c #966C66",
"%. c #8E716D",
"&. c #97726B",
"*. c #82757B",
"=. c #85797D",
"-. c #8A7778",
";. c #9C7573",
":. c #977B76",
">. c #A57369",
",. c #A67B75",
"<. c #B27767",
"1. c #AA827D",
"2. c #B6857B",
"3. c #BD816B",
"4. c #9E867E",
"5. c #C68C7A",
"6. c #D1927A",
"7. c #7F7E80",
"8. c #8A7C83",
"9. c #867A82",
"0. c #907980",
"q. c #8E8186",
"w. c #8F878B",
"e. c #92848C",
"r. c #99868C",
"t. c #9B8D94",
"y. c #9B8D96",
"u. c #9E9D9B",
"i. c #9E9799",
"p. c #AB8B84",
"a. c #A68986",
"s. c #B78C86",
"d. c #AD918C",
"f. c #BB938D",
"g. c #B6938C",
"h. c #A3949D",
"j. c #A9999F",
"k. c #B99A95",
"l. c #AB9BA4",
"z. c #AA9BA4",
"x. c #BA9EA1",
"c. c #B2A3AD",
"v. c #B8A4A9",
"b. c #BAABB4",
"n. c #B9A9B3",
"m. c #BEBCBD",
"M. c #BDB7B6",
"N. c #AFA0A7",
"B. c #BCA099",
"V. c #C5948A",
"C. c #CC9B93",
"Z. c #C69A95",
"A. c #D39F95",
"S. c #D19989",
"D. c #C4A39B",
"F. c #CBA39C",
"G. c #CCA399",
"H. c #D4A39C",
"J. c #D8A499",
"K. c #D8A48D",
"L. c #E4AC98",
"P. c #E9B39A",
"I. c #CBAAA4",
"U. c #C5A6A5",
"Y. c #D4ABA4",
"T. c #DCABA3",
"R. c #D5AAA6",
"E. c #DCB3AC",
"W. c #D7B1AA",
"Q. c #C3B4BD",
"!. c #CAB4B7",
"~. c #DBB6B5",
"^. c #C9ADB2",
"/. c #E3ADA5",
"(. c #E3B3AC",
"). c #EAB5AC",
"_. c #ECBAAC",
"`. c #E6B4A5",
"'. c #E4BAB3",
"]. c #ECBBB3",
"[. c #E6B9B4",
"{. c #F1BEB4",
"}. c #F0BEAA",
"|. c #ECC3BB",
" X c #ECC3B7",
".X c #F2C2B5",
"XX c #F3C4BB",
"oX c #F4CABD",
"OX c #F8CABA",
"+X c #F7D4BE",
"@X c #CABBC4",
"#X c #CEBEC8",
"$X c #C6B6C1",
"%X c #D4BEC5",
"&X c #E7BEC0",
"*X c #CECDCB",
"=X c #CDCAC6",
"-X c #D2C2CC",
";X c #DCC4C9",
":X c #DACBD4",
">X c #DECED9",
",X c #D7C7D1",
"<X c #DEDBDC",
"1X c #DDD9D6",
"2X c #DDD6C6",
"3X c #E7C8C9",
"4X c #F4CCC3",
"5X c #FACEC4",
"6X c #F4CCC9",
"7X c #F4D2C5",
"8X c #FAD4CA",
"9X c #F6DBCD",
"0X c #FADBCC",
"qX c #F8D5C7",
"wX c #E5CED4",
"eX c #E3D3DD",
"rX c #ECD6DA",
"tX c #FADDD2",
"yX c #F4D8D7",
"uX c #ECD2C6",
"iX c #FAE1CB",
"pX c #FAE3D3",
"aX c #FBEBDB",
"sX c #F8E7D7",
"dX c #FAF2DD",
"fX c #F6F2D9",
"gX c #ECE5DC",
"hX c #EBDBE4",
"jX c #E8D8E3",
"kX c #F2DFE4",
"lX c #EEE9E9",
"zX c #F3E5EC",
"xX c #F5E8EE",
"cX c #F8E8E5",
"vX c #FBF4E4",
"bX c #FBF5EA",
"nX c #FCFAEC",
"mX c #FAF7E5",
"MX c #F6EAF1",
"NX c #F9EDF4",
"BX c #F6E7F0",
"VX c #FBF2F6",
"CX c #FDFCF4",
"ZX c #FCF4FA",
"AX c #FEFCFA",
"SX c #F7F7F0",
/* pixels */
"hXkXhXeX,X$Xn.h.9.` ~ N N Y #.0.k.d.4.k.v < - p s O.1.+.1.I.B.g.g.U.k.( Y G F N r 6 3 3 M X .   . . X .                 .   .   ",
"hXhXjX>X#X$Xn.z.9.` Y F M N ] ] 4.d.1.d.O.2 - s n K.(.E.~.W.H.D.G.R.U.( T G S N t 9 3 * ; $   $ = o                             ",
"eXjXeX>X#X$Xn.h.9.` ~ F g t D I r.d.a.1.:.x s o.V.[.oXuX4XE.W.H.R.W.^.) ^ J F N j 7 3 * $ o o X e 6   X           .   .   .   . ",
">X>X>X,X@XQ.n.h.9.^ J N g 9 5 j d.k.B.d.p.1.&.E.'.4X0XmXvX|..X'.(.I.!.%.^ ) G A N 9 5 3 3 ; = = = o     .     .       .       . ",
",X,X,X,X@XQ.n.h.9.^ J A t 9 3 d k.I.U.k.g.k.E.4X5X8X8XtXsX7X7X4XuXD.B.0.] *.' =.] r 8 3 ; : 5 4 o .                           . ",
",X#X#X#X$Xn.c.h.8.~ H N t 8 3 U U.W.U.k.f.Z.[.{.5X8X5X XyXsXtX9X[.D.k.D.U.a.-.-.a.] R d u A j o                                 ",
"#X#X@X$X$Xn.z.h.8.) G N j 9 0 %.~.Y.Z.Z.Z.I.(.4X4X8XoX7XmXmXuX9XE.D.D.W.'.W.F.g.W.Y.f.%.] #.E Z         o       .               ",
"#X@X$X$XQ.c.z.y.9.^ G N t d f g.R.f.d.I.Y.A.Y.4XtX5X{.).7XgXaX4XE.F.G.I.'.E.R.W.[.'.~.D.p.a.Q , .     +                         ",
"$XQ.$Xn.n.c.z.y.9.J G / N f W I.E.[.~.Y.R./.T.4XaXpX4X}._.tXsX{.].Y.Y.E.'.H.Y.{.(.E.'.R.f.%.E u @ .   .                         ",
"#XQ.n.c.n.c.z.y.[ H / { h k O.I.6X8X|.E.'.XXXX8XvXnXCXbX4X4X4X{.oX].(.].XX[.(.].(.|.4XR.f.p.p.%.k . . .               o o .     ",
"#X$Xn.z.z.c.z.8.{ G ^ G f k ..F.8X8X|. XoXoX4XpXCXCXCXnX0X.X{.XX{.4X].XXXXXX).].).5X{.Y.V.g.s.s.%., . .                 .       ",
":X#Xn.z.z.z.c.8.) G S M f z W V.tX4X'.R.E.4X4XvXbXCXAXbX4X.X{.5XtXtX8X4XXX4XXX5XXX6X4X/./.G.s.V.:.2 @ .         .         . .   ",
"jX%X@Xc.h.h.h.8./ / N j l x z >.uX4XE.D.D.E. XiX4XpXbXbX0XOXOXtXCXCXvXaXsXaXaXpX8XtX8XoX{.T.C.0.O.i < O . X .     .         .   ",
"jX:X@Xc.z.h.8.8.{ G N k k n $.H. X4X~.D.D.Y.F.J.J._.5XaXiXiX0XbXm.m.lXCXdXvXvXvXcXvXdXaXXX).J.s...i < @ .                       ",
"BX>X#Xn.z.8.8.9.^ N N E 0.f.R.6X7X|.W.I.D.Y.Z.s.5.L.OXpXaXiXsXCX    M.CXvXmXdXaXnXnXCXnXtXXX(.V.+.l - , % + 4 7           .     ",
"BXjX>X$Xz.h.8.9.) / R 0./.[.[.6X~.I.I.I.D.D.Z.3.5.6./.pXmXpXaXAX    m.CXaXdXnXvXnX=.b CXaX5XXXJ.V.n i < j 5 4 %   o .         . ",
"BXBXjX,Xb.z.8.9./ / #.~.6XV.(.].R.Z.k.B.U.D.G.f.5.K.}.aXCXnXCXCXAX    m.mXnXCXCXCXCXCXCXaX8X5X/.C.0...- 2 h # :     . .         ",
"NXBXhXeX#Xc.h.8.{ Y T 0.H.Z.).&X3X3XW.g.d.p.d.V.A.P..XbXAXM.    AXCXc m.CXCXAXAXAXAXCXnXnX6X)./.T.V.&.l 0 ; t 6         .       ",
"ZXZXBXjX#Xb.z.8.9./ E O.0.5.).6X4XuXY.f.f.1.1.V.J.}.0XnX*X9   m.CXCX*XxXAXCXCXAXu.u.CXmXvX0X{.).T.C.;.k f ; # 5                 ",
"ZXZXBXhXwX@Xc.h.0.#.#.X.@.@.V.6X[./.K.V.G.C.V.V.L._.iXCXm.    AXCXnXnXCXnXbXnXCX<X<XnXaXaXqXXX).A.A.,.X.E 2 X o = o   .         ",
"AXZXZXzXjX:X,X^.a.;.$.@.<.5.K.qX+X}.P.K.K.K.6.P..X.XpXnXlXm.Q.AXCXmXaX+X+X+XiXmXnXvX9XpX0XXXOX].H.C.V.,.$.W 0 3 5 = = * .       ",
"AXAXZXMXhXzXBXwX^.f.V.V.V.oXsXnXmXdXqXOX.XP.P..X+X0XiXaXnXCXAXAXCXnXsXiXpXqXiXiXdXaX9X0X7X5XOX{.A.H.A.0.;.X.N @         o 4 .   ",
"AX7.<XMXBXNXBXzXrXE.E.|.L.sXnXSXAXCXmXfXOX.X+X0XaXmXnXmXmXnXCXAXAXAXnXdXdXdXaX9XvXvXvXdXaX0X5X).C.H.H.V.0.W h .         = K %   ",
"AX  $XVXVXZXVXMXcXrXyXtXoXvXmXCX| | 1Xu.2XpXpXmXCXnXmXnXnXCXCXCXCXCXCXCXnXmXdXvXnXvXnXnXvXtX8X5X)./.Z.0.>.#.I ; 1 & o $   o 4   ",
"AX  m.ZXZXZXZXNXbXbXvXbXmXSXCXAX| | 1Xc K 1XnXCXCXCXCXCXCXvXvXfXAXCXCXCXCXnXnXCXCXmXnXnXfXaX0X8X].T.V.&.$.O.O.U E v 9   $ & : o ",
"AX  ! <XZXZXVXZXCXyXcXCXAXAXAXAX| nXfXu.= m.CXCXCXCXAXCXCXmXaXaXAXCXCXCXvXnXCXCXCXnX1Xu.nXdXpX5X(.H.V.1.&.$.#.O.E h # % + . X   ",
"AX  q *XZXZXNXZX<XM.M.*XlXm.m.AX  nXfX*XK =XCXCXCXCXCXAXAXCXnXnXAXCXnXCXvXvXnXCXAX<Xu._ CXaXpX5X).J.V.>.O.Q O.U D 2 O X X   o   ",
"AX  m.ZXZXZXNXZXu.m m ~ u.q   AXc AXCXc w.lXCXCXCXCXCXSXCXCXCXAXCXCXCXAXCXnXCXAXAXu._ AXCXnXaXoX_.C.2.>.v l j # # 8 $ O o   + o ",
"AX  m.ZXZXBXzXkXxXCXlXw.m m.  AXAXAXAX_ c *XCXCX<X<XCXCXmXSXAXAXAXCXCXCXAXCXCXAXAXSXAXlX=XCXaX{._.A.s.$.s f 2 &   4 o %   X o o ",
"AX  m.ZXZXzXkXrXyXCX*Xq m *Xm AXAXAXAXAXCXCXCXnXu.u.CXCXmXCXCXAXAXCXmXmXCXAXCXCXAXAXAX*X_ CXpX5X{.C.2.+.2 2 @ 1 o : + + o % + + ",
"AX  m.AXVXMXkXyXcXZXAX$Xm AXAXAXAXAXAXCXCXCXCXCXnXCXAXCXfXnXCXCXAXSXbXCXCXAXAXAXAXAXAXAXbXCXaXOX/.V.>...i < O 1 & 4 % o       o ",
"AX  m.ZXVXzXzXrXyXkXbXAXAXAXAXAXAXAXAXAXCXCXSXnXCXCXmXCXAXAXAXAXAXCXCXCXCXCXAXAXSX4.b AXAXCXcX{.S.<.o.l 2 ; O O 7 4 o X   o   e ",
"AX  $XZXNXBXzXhXyXyXNXZXAXAXAXAXAXAXAXCXc m.CXCXCXCXCXAXCXAXAXAXAXAXAXAXAXAXCXbXCX| m AXAXAXCX5X/.V.>.$.O.D v ; : 1 %     X . = ",
"AX  m.AXVXBXzXhXrXrXsXvXbXCXAXCXCXSXCXCXCXc | CXCXCXCXCXCXCXCXCXAXCXmXnXCXCXCXCXCXCXm.c AXAXvX5XL.@.>.$.&.E j 1 .     X Z C e * ",
"AX  m.ZXVXBXzXjXkX6XwXyX9XpXaXCXCXCXCXAXCX*X<XCXCXCXCXAXCXCXAXmXAXbXiXdXCXnXCXmXnXvXgX=XAXCXaX.XL.<.>.$.%.I 2 & % O     % 4 : o ",
"AX  $XZXZXNXBXhXjXwX3X~.(.{.'.tXcXAXAXAXAXCXCXAXCXCXCXCXCXAXAXCXCXbXfXmXnXnXvXdXvXtXaXnXnXmX0X{.A.V.,.&.E 0 ; & o     X 4 % 4   ",
"AX  m.ZXVXNXBXzXBXeX%X[.E.6X6X0XsXnXCXAXAXAXCXCXAXCXCXAX*X' CXCXdXpXdXdXdXtX9X0XaXpXaXpXtX8X{.)./.,.;.&.N < # # % . . . * = _   ",
"AX  q *XZXNXMXBXBXwX%X%X3X6XyX8XtXaXnXAXCXCXAXAXAXCXSXCXlX=XSXCXmXpXsXaXaX5XXXOX.XtX4X.X4X).).A.A.s.$.O.I h r %   . o .   o %   ",
"AX    m.ZXVXNXNXzXjXwX%XwXyX6X6XtXpXmXCXSXAXAXAXAXAXAXCXCXCXCXCXnXpXqXpXpX0X5X.X).{.)././.J.S.V.V.0.>.X.I R h @   X . .       o ",
"AX    ! eXZXNXNXBXjXwXwX3X6X3X6XtXsXaXaXSXCXAXAXAXSXCXCXSXCXCXCXmXdXaXpXiXXX{._./.)./.C.S.V.V.0.>.,.,.O.U N > d X   . +       C ",
"AX      M.ZXZXNXNXhXeXeX&X~.&X6X9XpXaXaXbXCXCXZXCXSXnXCXCXCXmXCXnXaXsXiX8XXX{.T./.L.V.>.,.,.,.;.E W Q O.#.D 0 2 o $ + %   o     ",
"AX      ! <XZXZXxXzXrXcX;X~.6X6X|.tXpXsXvXbXnXAXCXmXnXmXnXnXmXnXaX7X0XqX].[.].].C.0.$.X.;.;.#.X.2 f v U v v j 1 O + %   o q + o ",
"AX        w.<XZXNXzXhXjX;X~.3X6X4X|.4XuX9XaXbXZXqX+XqXiXsXdXdXdXqX5X.X{./.R./.E.s.#.W X.;.$.O.R , 0 j Q v u j 1 5 e q % X % % m ",
"AX          ! m.eXxXhXeX-X!.^.[.E.s.5.5.5.L.`.+XP.L.P.}.+XqX9X7X0XXX/.J.H.V.V.~.0./ G / %.#.E k 1 8 1 2 j & 1 1 y 1 * o % = % : ",
"AX              7.NXhX>X@X^.^.W.D.s.@.+.+.@.3.6.5.+X4X7X.X X_..X4X).).T.Z.s.s.^.0.#.Y R %.G N 2 1 1 5 1 y u % & % . % % C 7 % o ",
"AX               .VXBX<X-Xn.N.k.D.d.$.n o.+.@.o.<. X(.H.T.(.C.J.).).).A.0.,.;.x.0.R N Y #.N M 6 0 & O C 7 Z L . = . o 4 Z %   o ",
"AX              | ZXBXjX-Xb.j.r.e.#.E n o.+.o.n o.`.E.J.].H.,.S.T.(.[.H.0.&./ j.0.Y Y 0.G M w 6 7 % O e 4 4 7   % . % y 7 * o 5 ",
"AX              | VXMXhX,XQ.z.h.} T U v v l x x n ,.(.E.T.Z.$.>.p.f.0.,.,.O.R z.8.^ J N N M w q L % % * 3 * o C o % 3 % C %     ",
"AX              | NXBXjX:X@Xc.z.8.) ~ N N f d z W i X.Z.Z.#.l v v I I E a.%.T i.z.J J { V y r t b & 1 r 4 * y J L y 4 7 % o .   ",
"AX              | ZXBXhX>X$Xc.e.8.[ [ G f f N N U < k k.:.a 2 d 0 w j D ] T Y 9.N.J J ~ ^ B j q.P # = O o o 7 + o   o %     . 7 ",
"AX              7.ZXMXhX>X@Xn.i.9.^ ^ S w w j f > 0 0 E k < < , > 0 t V G T ~  .b.J J J G M M =.] 1 1 #   o %     o q % e $ . o ",
"AX            ! <XNXBXhX>X@Xb.y.9.) ~ S M w A A & @ ; R > , # : > h M N F R ' *.#X~ ) J F M g ~ v D C 7 3 6 o o . C _ $ C = . o ",
"AX          ! <XZXZXBXhX>X#XQ.y.9.` ~ G N j 3 j & . : h # , # , 6 S S A V H J  .@X( T H S V M B V C _ q 7 t e 5 o 7 5 o m 4 . C ",
"AX          7.ZXZXNXzXjX>X-XM.z.8.` Y G H j 3 w & o X + % & 4 * A h T L ~ T J ' Q.} ' T S V M t 9 u e e 4 e 3 t e = = X o % o ! ",
"AX    ! | 3 m m.ZXMXzXhXeX#XQ.z.9.[ ^ N S e 3 t ; r = . O = : : h r S A T ' T ( Q.-.-.H S H F S g b 6 7 & % X 3 m * % % X X . % ",
"AX7.7.<XAXu.y 7.ZXNXBXjXeX#XQ.z.0.9.9.J 9.9.6 3 ; & $ 3 + q r r : w g g T _ J *.M.j.b.q.G A N g Z j V 5 $ % o $ X o % =       o ",
"AXAXZXAXAXAXm.m.ZXMXBXhX>X-X$XN.8.9.) G N N 6 3 r : + = : = % r : q g B S Y ( ( b.y.^ ^ G T Y g 6 4 3 % X   . . o = = L C *     ",
"AXAXAXAXZXZXZXZXZXZXMXBXjX-X@XN.r.8.[ G S M 6 6 9 e o $ $ O + 7 w e V H S G T ' h.i.) H G G B e Z y 5 % X X o o % .     L 7     ",
"AXZXZXZXZXAXZXAXZXNXBXzXjX-X$Xc.e.9.` J S g 3 3 e g * $ r % # 8 g 7 M ) ( G J ` y.q.~ H G ` } t V 7 3 o = o o $     X X e ( q   ",
"AXZXZXZXZXZXZXZXZXMXlXhX<X,X-Xb.y.9.) J S g w 3 B 8 + X 5 % % : ; 6 e V T L ( *.y.y.[ [ F ( ^ e r 7 e 4 e 3             . ~ y   ",
"ZXZXZXZXZXZXZXZXZXNXzXhXjX,X#Xb.y.9.' ^ S g g 7 * $ * $ o + % & = 9 r y H ` ( ) q.h. .) ~ Y h g 6 : 4 & 6 7   . = o o     e = . ",
"ZXZXZXZXZXZXZXZXZXNXzXjXjX-X-X$Xz.9. .[ J t M V 9 % + * o O & e e g L F A H T ( q.c.{ _ ^ S Z S 7 : & & + % o y 7 $ o   . .     ",
"ZXZXZXVXZXZXZXZXZXBXkXjX>X>X-X$Xc.9.e.{ G M t y 9 % : & % + = 1 = S S L V T T T } Q.} ( ) [ T T 7 S e 6 % o + C         % 7 7 . ",
"ZXZXVXZXZXZXZXZXZXBXlXjX>X>X-X$Xc.8.9.9.^ N e 6 F q F ' r 9 V _ & e V L T *.T T q.=X9.T } t.^ Z Z c.Y + * *   y           . o % "
};
