/* XPM */
static char *result[] = {
/* columns rows colors chars-per-pixel */
"64 64 238 2 ",
"   c #020202",
".  c #090605",
"X  c #0A0708",
"o  c #0C0B0B",
"O  c #0A0807",
"+  c #120D0D",
"@  c #170907",
"#  c #13100E",
"$  c #130F10",
"%  c #180F10",
"&  c #141213",
"*  c #1A1515",
"=  c #1B1618",
"-  c #1D1A1A",
";  c #1D1815",
":  c #231D1D",
">  c #261918",
",  c #351B15",
"<  c #2E1109",
"1  c #29211E",
"2  c #36241E",
"3  c #231F20",
"4  c #252222",
"5  c #2A2424",
"6  c #2C2728",
"7  c #2D292A",
"8  c #2E2926",
"9  c #332C2D",
"0  c #372827",
"q  c #342F31",
"w  c #382E31",
"e  c #363233",
"r  c #3B3334",
"t  c #3E3A3C",
"y  c #3E3639",
"u  c #36312F",
"i  c #411D13",
"p  c #4A251C",
"a  c #452C27",
"s  c #49322E",
"d  c #423C3D",
"f  c #483938",
"g  c #563C37",
"h  c #553129",
"j  c #6A392A",
"k  c #3F403E",
"l  c #57423D",
"z  c #40403F",
"x  c #69453D",
"c  c #794A3B",
"v  c #453E41",
"b  c #4A3F42",
"n  c #4B4345",
"m  c #4E4549",
"M  c #494546",
"N  c #544442",
"B  c #504649",
"V  c #534A4D",
"C  c #5A4746",
"Z  c #564D51",
"A  c #594E52",
"S  c #5B5255",
"D  c #5E5459",
"F  c #5F5D5B",
"G  c #664D4A",
"H  c #744D45",
"J  c #67514C",
"K  c #62565B",
"L  c #64595D",
"P  c #695657",
"I  c #755A57",
"U  c #75524A",
"Y  c #7B625D",
"T  c #665D61",
"R  c #695D63",
"E  c #755E60",
"W  c #6C6265",
"Q  c #6F6F6C",
"!  c #6E636A",
"~  c #72666C",
"^  c #75696E",
"/  c #796566",
"(  c #766B71",
")  c #7A6E74",
"_  c #7F7279",
"`  c #7F7E7D",
"'  c #7D7275",
"]  c #894C31",
"[  c #845547",
"{  c #845D56",
"}  c #945C4A",
"|  c #87645D",
" . c #956457",
".. c #A8694D",
"X. c #896966",
"o. c #966D67",
"O. c #94726C",
"+. c #9C726A",
"@. c #84767A",
"#. c #957975",
"$. c #8A706F",
"%. c #A5756B",
"&. c #BA7E65",
"*. c #A67B75",
"=. c #B27E75",
"-. c #A36D63",
";. c #9C817A",
":. c #A9827D",
">. c #B5857B",
",. c #C58A78",
"<. c #C98A74",
"1. c #897C82",
"2. c #8E868A",
"3. c #93848C",
"4. c #9A8587",
"5. c #9B8D94",
"6. c #988A93",
"7. c #9F9E9A",
"8. c #9F9198",
"9. c #A88986",
"0. c #BB8C84",
"q. c #B48984",
"w. c #AB928B",
"e. c #B4918B",
"r. c #BC948C",
"t. c #A3949D",
"y. c #A6939B",
"u. c #B89995",
"i. c #A58D94",
"p. c #BEA09A",
"a. c #AB9CA5",
"s. c #AB9CA5",
"d. c #BB9EA2",
"f. c #B3A4AD",
"g. c #B9A7AB",
"h. c #BBABB5",
"j. c #BBACB5",
"k. c #BFBDBB",
"l. c #BEBAB5",
"z. c #B4A9AA",
"x. c #C38E83",
"c. c #C3928B",
"v. c #C79589",
"b. c #C39A94",
"n. c #CD9B94",
"m. c #C59C98",
"M. c #D29E97",
"N. c #D59A8A",
"B. c #DAA18C",
"V. c #C3A29C",
"C. c #CCA39C",
"Z. c #D4A29C",
"A. c #DAA599",
"S. c #E5AC99",
"D. c #E5AA8F",
"F. c #CCAAA4",
"G. c #C6A7A6",
"H. c #D3ABA6",
"J. c #DCABA3",
"K. c #DBAEAA",
"L. c #D5AAA6",
"P. c #D5B1AB",
"I. c #DCB2AB",
"U. c #D3B1A7",
"Y. c #C8ADB2",
"T. c #C3B4BD",
"R. c #CAB3B8",
"E. c #D9B6B6",
"W. c #E2ADA5",
"Q. c #E3AFA9",
"!. c #E4B3AB",
"~. c #E9B6A9",
"^. c #ECBCB3",
"/. c #E4BAB5",
"(. c #F1BEB5",
"). c #F1BEAE",
"_. c #EDC1B4",
"`. c #EDC3BB",
"'. c #EBC5BC",
"]. c #F3C5BB",
"[. c #F4CABD",
"{. c #F5C7B7",
"}. c #F8D3BC",
"|. c #F1C0AC",
" X c #CDC8BE",
".X c #CBBBC5",
"XX c #C9BAC4",
"oX c #D5BEC4",
"OX c #E4BFC0",
"+X c #CECDCA",
"@X c #CDC5C8",
"#X c #D3C3CD",
"$X c #DDC4C9",
"%X c #D6C7D1",
"&X c #DBCBD4",
"*X c #DBCDD6",
"=X c #DEDCDA",
"-X c #DFD7D8",
";X c #DDD7CC",
":X c #ECC8C6",
">X c #F4CBC2",
",X c #F8CEC5",
"<X c #F5D3C4",
"1X c #F9D5C6",
"2X c #FAD5CB",
"3X c #F9DBCC",
"4X c #F7DAC9",
"5X c #E9CDD3",
"6X c #E2D2DC",
"7X c #E9D4DB",
"8X c #F7DAD5",
"9X c #EED2C9",
"0X c #FAE1CD",
"qX c #FAE3D4",
"wX c #FBECDC",
"eX c #F8E6D7",
"rX c #FBF1DE",
"tX c #F8F3D9",
"yX c #EEE8DD",
"uX c #EADCE4",
"iX c #E8D9E3",
"pX c #F2DEE6",
"aX c #EEE1E9",
"sX c #EEE8E8",
"dX c #FCEEE2",
"fX c #F3E5EC",
"gX c #F5E9ED",
"hX c #F6E4E5",
"jX c #FCF3E4",
"kX c #FBF5EB",
"lX c #FCFAEC",
"zX c #FAF7E8",
"xX c #F6EBF1",
"cX c #F9EEF4",
"vX c #FBF1F6",
"bX c #FDFCF4",
"nX c #FCF5FA",
"mX c #FEFCFA",
/* pixels */
"fXpXiX&X.Xj.s.3.) T A v w b P X.w.9.;.;.s @ @ < i | :.| 9.G.u.w.q.G.G.R K S V b y v E 8 @ X   X X   X                           ",
"fXuX6X&X.Xj.s.6.( T A d w f J N ;.4.;.;.J < < i c u.F.U.U.H.V.b.b.F.Y.~ T D Z m y 7 9 w 0 X X                           .     O ",
"uXiXiX%X.XT.s.2.( T A v q 8 y f ;.4.;.#.Y a , I r.H./.'.'.H.H.M.C.G.Y.) T D Z m t q 5 : y ; o   X                               ",
"iXiX6X%X.Xj.s.3.~ K A d q 4 > 0 w.u.u.9.9.O.+.I.I.'.[.qXqX/./.K.K.G.G.@.R D S m d q 5 = & + X . - o           .     .         . ",
"iX6X*X%XXXj.s.6.( K Z v q 5 > 0 p.G.p.e.9.r.I.'.>X[.`.].3X>X>X'./.p.u.4.@.^ K C n r 8 : & + . o 9 7                             ",
"*X&X%X#XXXh.s.3.~ K V f 9 5 > J F.G.u.e.e.u.I.^.>X`.^.'.eXeX3X4XI.p.u.V.d.i.@./ @./ G s 0 8 9 e 3 o                             ",
"&X%X%X%XXXh.s.2.) K B d w 1 , #.P.m.e.r.r.b.K.`.].`.^.2XlXzXjX8XE.p.u.V.R.p.u.w.u.G.w.X.I G , + X               .               ",
"#X@X#XoXj.f.a.1.) A B f w 0 a e.C.u.V.C.V.m.m.(.2X>X~.W.8XlXjX'.J.p.u.C.U.U.F.P./.P.F.m.u.9.I O .   . +                         ",
"XXXXXXXXXXf.6.1.( K b v w 2 x m.L./.H.F.I.J.J.].wXwX<X{./.2X>X/.~.C.Z.U.P.F.L.^.!.P.K.L.e.O.X.L @ .   . o                       ",
"XXj.XXXXj.f.1.1.K Z b f s a H m.>X:XK.I./.].^.>XjXlXbXkX>X].].~._.I.A.~.(.!.J.!.!.^.^.C.:.O.#.#.l . . .               O o       ",
"XXj.XXh.h.s.1.1.K A V P f p h m.2X,X].`.].[.].qXkXbXbXkX1X(.^.).^.^.!.^.(.!.W.^.^.>X/.n.c.q.9.:.#.> .                 . .       ",
"XXj.f.f.s.y.1.~ A b T R a h j x.2X[.U.F.I.>X,XjXdXlXbXjX,X(.).].,X1X[._.(.(.].1X(.,X(.J.Z.M.b.*.$., @                       .   ",
".Xf.s.s.s.6.1.! Z b S f a g H H '.'.F.p.p._.>X<X[.8XkXkX3X}.{.2XzXbXeX0X1XqXjXwX8XqX3X`.Q.Z.c.*.H , @ . .         .             ",
".XXXh.1.1.1.@.R Z b f s h H *.x.I.'.U.V.p.I.C.Z.B.~.,XeXqX1X1XwXbXk.sXjXqXjXrXwXdXlXjX4X(.W.n.=.H < < @ . .                     ",
"&X.Xh.1.1.@.~ R Z V f J 9.r.L.,X>XP.U.V.V.U.u.0.<.B.].eXwX0X0XbXmX  k.zXqXrXwX3XeXwXeXwX,X^.J.>.{ i < @ . .                     ",
"6X.Xj.s.1.@.! R A b b u.E.L.K.`.P.V.G.G.V.m.m.>.&.<.S.0XzXeXjXbX      l.qXrXzXjXzXbXbXlXqX].(.n.x.c < @ .     .   O             ",
"6X.XXXs.1.1._ R A b P G.K.1.L.!.G.u.p.p.p.V.C.>.,.N.W.qXbXbXbXmX    k.bXlXzXmXzXbX` z lXdX,X(.M.>.+.H , 5 + 8 y     . .         ",
"iX*X.Xj.s.1.1.! P P l o.M.M.K.!./.'.U.e.w.w.e.v.B.S.[.Y.z bXbXmXbXmXbXmXmXmXmX`   ;.bXlXkX,X~.J.M.c.o.a 0 e & X .       .       ",
"aX6X%XXXXX1.1.! T E H X.%.=.Q.>X'.<XC.r.u.>.>.v.A.~.1XyX+XbXbXbXbXlXbXQ +XmX7.;.k.=XbXlXwX2X(.W.W.c.+.g 0 r > ; o               ",
"fXiX6X%X.X1.1.1./ I U [ } ..x.>X/.!.A.v.B.>.v.v.S.).qXbXbXbXmXz bXzXkX XyXzX;X=XbXbXzXeXwX1X].Q.M.N.1.U G 0 9 w                 ",
"cXfXiX&XoXY.Y.1.$.X.} } ..>.B.3X<X~.S.B.B.N.v.S.|.}.qXzXbX+Xz   bXjXwX}.}.}.0XzXzXzXeX0X2X_.[.^.n.c.q.#.O.I w 5 O o             ",
"cXfXpXiX*X5X5X5Xu.*.=.x.<./.eXlXkXdX4X}.|.|.~.{.1X0XtXrXzXsXk.k.M bXeX4XtXqX1X0XjXrXqX1X,X>X{.^.J.M.0.*.X.E s o 7 * o O   O     ",
"cXcXpXiX7XpXpX8X'.m.K.].B.0XlXbXbXbXlXtX}.|.}.}.rXlXzXlXzXlXlXbX;.bXjXtXzXzXeX4XrXjXjXeXqX3X].~.Q.M.m.*.o.I s 5 4 4 4 3 o       ",
"nXcXcXpXfXpXpXpX8X:X8X3X_.wXmXmX` bXbXt.;XtXtXzXzXlXzXbXlXbXmXbXmXbXbXbXlXlXlXzXbXzXlXjXjX3X,X[.Q.Z.c.*.X.| b % & & .   o 7 .   ",
"nXnXcXxXcXgXhXpXhXdXdXeXjXbXbXmX  mXbXk F =XbXbXzXbXbXlXzXrXzXzXmXbXmXlXzXlXmXbXbXzXbXzXtXqX2X].c.M.q.| | H P H C g %   O t 7   ",
"nXnXnXcXxXfXhXhXdXvXkXkXbXbXlXbX` mXmXz   k.bXbXk.l.bXbXbXzXzXjXbXbXbXbXzXbXlXmXmXzX=X7.zXeX2X].A.M.0.+.X.Y | Y J l * &     4 o ",
"mXnXnXnXcXxXpXhXbXbXgX+XmXsXk.k.bXmXbXQ # k.bXlX` ` zXmXbXbXbXtXbXbXmXbXlXzXbXbXmX=X7.Q lXqX2X[.W.M.0.+.I U U J l a 1 o $ $ $ & ",
"mXnXnXcXxXgXpXhXvXhXz.k mXk.  z mXlXtXbXk l.bXbX7.7.bXmXmXmXmXtXmXbXbXbXmXbXmXmXmX7.Q mXbXjX8X_.J.c.q.O.x 2 0 1 8   o o $ + o   ",
"mXnXnXcXfXpX7X8X8XwXl.q +X+Xz mXmXlXzXbXQ +XbXbXlXbXmXmXmXbXmXbXmXbXzXmXbXbXmXmXmXmXbXbXmXlX8X).S.c.x.o.p @ $   $ = o       $ $ ",
"mXmXnXcXfXiX7X:X,XgX@Xq z mXmXmXmXbXbXmXbXbXbXbXbXmXbXbXbXmXmXbXk.bXbXmXmXbXmX=X=XbXmXmXmXbXqX{.W.0.q.{ , s e   $ 7 & o O   O O ",
"mXnXnXcXfXuX7X:X8XcXnXk.z nXmXmXbXmXbXbXbXbXbXbXbXmXbXbXzXbXmXmX  bXmXmXmXbXmX` ;.vXmXmXbXbXqX(.M.-.%.j , 1 & 3 O & O = o O   & ",
"mXmXnXnXxXuXuX5X5X2XdXmXmXk.  mXmXmXmXmXk l.bXbXbXmXmXbXbXbXbXmXmXmXlXzXmXmXbXbXmXbXmXmXbXvX8X).,.%.%.h , ; . e O o O O O & 3 o ",
"mXnXnXnXxXpXiX5X5X:X8XvXbXbXbX  bXmXmXbXk l.bXbXbXbXbXbXtXlXbXbX  bXlXlXmXmXmXmX;.  z mXkXbXjX{.S.=.o.{ { C O O . 7 & O   O O   ",
"mXmXnXcXxXpXiX6X$X:X9XeXdXzXlXmXmXmXmXmXk         ` zXbXlXbXbXmXmXlXzXbXkXkXbXbXmXmXbXnXbXlXeX[.S.=.-.{ O.U > o d e * o   o . z ",
"mXmXnXnXxXuXuX7X$XoX/.:X].qXkXbXbXmXbXQ # 2.k.F   ` zXbXmXbXbXmXmXmXbXbXzXzXzXzXbXbXbXbXbXzX4X^.M.x.%.X.X.G > 8 4 7 = .       & ",
"mXnXnXcXxXfXuXiX&XE.Y.L.N.^.,X8XeXbXbX+Xk.F 7.=Xk.=XmXbXbXmXmXbXbXzXjXjXzXrXrXeXrXqXwXlXlXeX<X~.M.=.%.X.J 0 e 5 o .     - 4 = X ",
"mXmXnXvXxXfXpXiX6XoXY.m.Z.`.2X>X1XqXzXbXmX+X=XmXbXbXmXbXbX+Xk zXtX0X{.0XeX4X4X1X2X8X8X8X8X,X(.A.M. .{ O.s @ O ; & o     - e t o ",
"mXmXnXvXnXfXfXuX6XoXT.g.OX/.K.(.'.0XlXmXmXQ k 7.bXmXmXmXbXsXk.lXrX0X}.0XqX[._.{.(.(.(.(.(.Q.Q.n.0.=.X.X.C ; # # o       7 = o O ",
"mXmXnXnXnXfXfXuXiXoXR.g.Y.:XZ.(.[.<XjXbXbXt   k ` l.mXmX=X7.mXzXrX1X1X1X4X2X[.(.Q.~.Q.S.A.M.c.x.q.1.o.G f > ; o & o o O - & 7 $ ",
"mX` iXnXnXcXxXfXfX#XXXR.Y.L.m.Q.2X4XqXjXbX7.k k k ` bXmX=X7.bXbXlXzXrXqX2X^.].W.A.Q.M.N.x.1.,.1.*.O.o.{ g f l : . . o       e - ",
"mX  k.nXnXvXcXxXuX%X.XoXG.d.L./.`.3XeXeXeXbXk.` ` k.lXbXbXbXkXmXbXwXqX0X,X(.Q.Q.Z.N.1.-.%.*.*.o.U G { U J / l 0 .   O     O   t ",
"mX  T =XnXnXnXcXuX*X%X5Xd.d.OXL.K.2X3X4XqXlXmXk.l.tXlXlXzXlXjXwXqX_.{.,X(.J.J.Q.c.1. .{ o.1.+.| 2 5 l C N f 5 1 . #   # #   o   ",
"mX    2.fXnXnXxXuX*X%XoXY.d.E.E./.!.^.`.<XwXjXkX}.|.{.4XeXrX0XqX2X~.W.Q.W.M.Z.K.1.| U | #.O.$.E 0 ; 1 N J S 5 &   & $ o O & $   ",
"mX      k.nXnXcXaX6X*X.Xf.i.u.E.m.%.%.,.<.B.S.{.D.D.D.~.}.<X[.[.}.^.A.n.M.x.1.Y.r.I A K $./ G b > > > N 8 n e 4 # . & o   4 o = ",
"mX      6.xXnXnXfXuX*X.Xg.i.1.m.q.=.} } ......&.>.{.{.{.(.!.W.Q.A.W.Q.n.q.1.1.L.1.E D A P G b 9 : : ; 9 : + 8 * 4 e 7 & O # O e ",
"mX        k.nXnXcXuX6X.XY.y.1.1.9.1.| c c ] ] ] >.).~.A.M.v.-.c.W.J.K.q.o.%.$.f.1.! R D b b v w 8 d = % d : : 6 - & X O - 4 - - ",
"mX        k.mXnXcXaXiXoXj.5.1.@.$.P l x j j c ..[ J.!.K.K.>.[ 0.M.K.K.r.#.E E s.1.K D A b D b 6 6 * 4 5 9 e & & 7 O o o V e o o ",
"mX        k.mXnXcXcXuXoXXXs.i.) R V N l a p h h p %.K.J.b.r.[ U O.9.#.E X.E K 6.s.R K ! 1.b b w 7 = % e q M F O 4   o 4 k &   o ",
"mX          ` nXcXfXuX*XXXs.8._ R A V f b b g 0 H p X.q.q.O.| s s f C b #.( T 3.f.K F _ ! m t e 6 * & 9 3 O &   X   $ 7 7 & O = ",
"mX          ` nXnXaXuX*XXXf.6.6.) D N d B s , 5 f @ G u.9.a 0 l w s f S @.R T 3.j.T T S V v t d D * = * = 3 O F - - 7 = z 3     ",
"mX          ` nXcXfXuX*X.Xj.a.6.) D V v w 3 % g C @ 0 Y I 0 > f w w d K D R R 1.XXT T F S V M m S : : r 4 = 7 W V e 4 4 4 O O   ",
"mX        2.=XnXcXfXuX6X@Xf.a.1.@.R L b 9 3 f b Z @ . + 5 + + : 5 9 d B V K T ) %X! T ^ W m v 1.L = - o o O q = 4 . & 4 = O O 4 ",
"mX      2.xXnXnXcXxXaX6X%Xj.s.1.( R T V w 8 d = 5 & O . : = & > : 9 d n Z T ! ( @X( T T Z M M Z y 5 : - O + $ $   3 D o z - O O ",
"mX      k.mXnXnXcXfXaX6X.XXXs.2.( T A b r 5 5 e @ & o * & = + = 5 d n n Z D T ! XX` ( T S m v D d V F f 8 4 & * o z z = = o   3 ",
"mX` ` ` =XnXmXnXcXxXuX6X.XXXf.1.) R A b w 9 0 A & o 3 T & O O : 7 V S V m D D ( j.1.T K S m v T S R ^ 9 - M v & & & & & e 7 = F ",
"mXmXnXmXnXnXnXnXxXxXaX6XoXXXf.6.) T D K A 9 > e X . X o . # * * n b L V ( ! D ) j.6.! T Z m v y 9 f 9 t 7 v = t q - = & 7 6 $ W ",
"nXmXnXmXnXnXnXnXxXxXuX6X%XT.f.3.) ! D C V 9 : y * 7 & & * : y 9 y 8 y d Z ! R ( s.8.@.L S S Z Z q t q e = $ . . + o = o X O     ",
"mXmXnXnXnXnXnXcXxXxXaX6X#XXXf.6.) ~ ~ Z @.B : + 9 * & 3 & 4 7 : : 9 d n Z Z A ( f.a.W K S B M M W v M 4 & o X 3 7 = & q O   O   ",
"nXnXnXnXnXnXnXvXxXfXuX6X#XT.h.5._ ) K B K W 1 * e * o & = $ & 8 = 5 w v Z L ~ ~ 5.z.6._ S L T M y 7 = $ O O X $ & = o M m -     ",
"nXnXnXnXnXnXnXcXcXxXfX6X#XXXj.8.@.) L m d r 5 : 3 + o o o X + : : d m A A S ~ R 1.f.1.~ Z T B r q d 7 $ o o o X o O O O Z e     ",
"nXvXnXcXnXnXnXnXcXfXaXiX%XXXj.t.@.1.! V B q 5 = B y & o o X + 9 t 9 d W ~ K K ) 8.z._ T Z S D v n q - & 7 &   X         3 F z O ",
"xXcXcXnXcXnXcXcXcXxXuX*X%X.Xj.s.1.( K Z v q 3 = = - & + 3 & * & = 4 9 n K L W @.2.s.6.` S W @.y q q d 7 7 7               V t   ",
"cXvXcXvXnXnXcXnXnXaXiX*X*X.XT.s.1.~ R K n w 6 : + o * o o X o 4 * r u t V ^ L @._ h.1.^ D T T y 9 3 - $ 4 e . o 3   O     q 4   ",
"cXcXcXcXcXnXnXmXxXaXiX*X*X.XXXf.3.~ ) ) V w d A 9 + o & o o - 7 n m K A V K R W ) T.1.^ W T b S 7 3 = $ o . o M 7 & *           "
};
