/* XPM */
static char *result[] = {
/* columns rows colors chars-per-pixel */
"64 64 235 2 ",
"   c #020202",
".  c #090606",
"X  c #090708",
"o  c #0C0A0B",
"O  c #0D0806",
"+  c #120D0D",
"@  c #150906",
"#  c #130F10",
"$  c #151213",
"%  c #1A1515",
"&  c #1B1719",
"*  c #1D1A1A",
"=  c #14100F",
"-  c #26120D",
";  c #221C1C",
":  c #261916",
">  c #361C17",
",  c #2F1109",
"<  c #21201F",
"1  c #2B211F",
"2  c #33211C",
"3  c #231F20",
"4  c #252222",
"5  c #2B2425",
"6  c #2C2729",
"7  c #2D2A2B",
"8  c #332C2C",
"9  c #372927",
"0  c #39302E",
"q  c #342E30",
"w  c #3A2F32",
"e  c #353232",
"r  c #3A3335",
"t  c #3E3639",
"y  c #3E3A3B",
"u  c #3E3837",
"i  c #4C2415",
"p  c #442B27",
"a  c #46322E",
"s  c #41373A",
"d  c #423D3E",
"f  c #483836",
"g  c #523C3A",
"h  c #56322D",
"j  c #6C392A",
"k  c #552515",
"l  c #3F403E",
"z  c #45403E",
"x  c #57413D",
"c  c #6A4038",
"v  c #463E41",
"b  c #493F42",
"n  c #464142",
"m  c #4B4244",
"M  c #4D4549",
"N  c #4E4849",
"B  c #534A4C",
"V  c #584847",
"C  c #564D51",
"Z  c #594E53",
"A  c #5B5155",
"S  c #5E5459",
"D  c #5E5C5C",
"F  c #5F514E",
"G  c #654B47",
"H  c #6B514D",
"J  c #76514B",
"K  c #61575C",
"L  c #63595E",
"P  c #685655",
"I  c #785B57",
"U  c #724D47",
"Y  c #79615D",
"T  c #665B61",
"R  c #6A5E63",
"E  c #6B6165",
"W  c #6D6269",
"Q  c #6E6C6C",
"!  c #73666B",
"~  c #786769",
"^  c #7A6D73",
"/  c #766B71",
"(  c #7F7F7C",
")  c #7D7177",
"_  c #894A30",
"`  c #8A594C",
"'  c #84625D",
"]  c #976458",
"[  c #A76B54",
"{  c #886A66",
"}  c #996C65",
"|  c #8C736E",
" . c #9A746D",
".. c #82757B",
"X. c #887878",
"o. c #987A77",
"O. c #A87569",
"+. c #B97D67",
"@. c #A27E7B",
"#. c #A87B75",
"$. c #B67F72",
"%. c #9C827D",
"&. c #AB817C",
"*. c #A6867D",
"=. c #B6847D",
"-. c #C78D77",
";. c #8A7C83",
":. c #877981",
">. c #987F81",
",. c #8E8589",
"<. c #93848B",
"1. c #998588",
"2. c #9A8C94",
"3. c #9A8B95",
"4. c #9F989B",
"5. c #AB8E8C",
"6. c #A78985",
"7. c #B78A84",
"8. c #AD918B",
"9. c #B4948D",
"0. c #B8938D",
"q. c #A3949D",
"w. c #AB9697",
"e. c #B39592",
"r. c #B69A94",
"t. c #BB9B96",
"y. c #BA9A97",
"u. c #A78F95",
"i. c #BCA29C",
"p. c #AB9CA5",
"a. c #AA9AA4",
"s. c #BA9FA1",
"d. c #B3A3AD",
"f. c #BBA2A4",
"g. c #BBACB5",
"h. c #BBABB5",
"j. c #BFBDBB",
"k. c #BEB9B5",
"l. c #AFA2A9",
"z. c #C48F84",
"x. c #C3948D",
"c. c #C8968C",
"v. c #D49A8B",
"b. c #CB9C94",
"n. c #C39E9A",
"m. c #C59994",
"M. c #D39E95",
"N. c #D89F93",
"B. c #C5A29C",
"V. c #CCA39C",
"C. c #D3A39C",
"Z. c #DBA59B",
"A. c #D8A498",
"S. c #DBA48D",
"D. c #E2AA9C",
"F. c #EAB39E",
"G. c #CBA5A2",
"H. c #CDAAA4",
"J. c #C5A7A4",
"K. c #D4ABA5",
"L. c #DDABA2",
"P. c #D5ABA6",
"I. c #DCB2AC",
"U. c #D8B2AA",
"Y. c #C5ADB3",
"T. c #C3B3BD",
"R. c #CCB4BA",
"E. c #DCB7B4",
"W. c #D0AFB2",
"Q. c #E2ADA3",
"!. c #E4AFA8",
"~. c #E3B3AB",
"^. c #E9B5AC",
"/. c #E9B7A9",
"(. c #E6BBB5",
"). c #ECBBB2",
"_. c #E7BBB7",
"`. c #F1BEB3",
"'. c #F0BBAA",
"]. c #C29FA4",
"[. c #EDC2BC",
"{. c #ECC3B7",
"}. c #F3C2B6",
"|. c #F4C5BB",
" X c #F4CABC",
".X c #F7CBBB",
"XX c #F4CCB6",
"oX c #CAC6BE",
"OX c #CBBCC5",
"+X c #CEBFC9",
"@X c #C6B7C1",
"#X c #D4BDC4",
"$X c #CECBC9",
"%X c #D4C3CC",
"&X c #D6C6D0",
"*X c #D7C8D1",
"=X c #DBCBD4",
"-X c #DECED8",
";X c #DED9D8",
":X c #E8C6C5",
">X c #F6CCC3",
",X c #F4D3C3",
"<X c #F9D1C4",
"1X c #FADBCC",
"2X c #F7D6C9",
"3X c #E2D3DC",
"4X c #EADCD8",
"5X c #F8DCD1",
"6X c #E3CDD5",
"7X c #FAE5D3",
"8X c #FBE9D5",
"9X c #FCECDB",
"0X c #F9E6D8",
"qX c #FBF1DD",
"wX c #F7F3DE",
"eX c #F7E1CD",
"rX c #E6D7E1",
"tX c #EBDCE5",
"yX c #EBDBE5",
"uX c #EEE1E9",
"iX c #EEECE9",
"pX c #F2E5EC",
"aX c #F4E8EE",
"sX c #FDEDE0",
"dX c #FCF4E4",
"fX c #FCF6EA",
"gX c #FDFAED",
"hX c #FCF8E6",
"jX c #F7EBF2",
"kX c #F9EEF4",
"lX c #FDEFF8",
"zX c #FBF1F6",
"xX c #FDFCF4",
"cX c #FCF5FA",
"vX c #FEFDFA",
/* pixels */
"pXyX-X%Xh.3.;./ S M t 6 3 b V { %.| | %.a O O @ 2 | %.{ 1.r.e.%.o.e.y.Q T S Z M s 8 5 & + X     .   X .                     X   ",
"pXrX-X+Xh.q.;./ S M v 7 3 s B V %.~ ~ ~ G = @ 9 ' r.B.i.J.y.r.9.5.B.W.~ T S Z M d r 5 & # X                             X       ",
"pXrX=X+Xh.3.:.! S M s 7 ; ; w g %.%.| { ~ p 2 | e.J.H.H.P.B.n.9.e.y.R...T K Z B d Z 8 : # + X                                   ",
"pX3X=X@Xh.3.;.! S b s 6 ; + + w %.8.6.%.*.| %.K.K.U.U.{._.I.P.m.B.r.f.,.R T A B v V A 5 $ X     X                               ",
"pX3X*X@Xd.2.;.! S b t 6 & + + G e.r.6.%.@.5.H.~.(.U.K.I.[.(.~.P.H.e.8.u...^ L F C z f 0 5 o . O .                               ",
"tX3X&XT.d.3...R A b w 6 & + : X.t.8.5.%.*.9.K.~.(.I.U.{.5X0X2X[.H.w.5.8.y.u.>.X.u.o.~ V x 5 o X .                               ",
"rX-X&XT.l.3.:.R Z b r 6 : # 9 5.y.6.*.*.5.9.n._.).~.L.[.hXhX9X[.H.8.6.9.J.J.y.9.V.B.9.%.~ Y 1 O                                 ",
"rX-X+XT.p.<...T C v r 3 : % a 6.e.9.e.i.t.9.x.(.,X~.Z.Z. XgX9XU.B.9.8.t.B.].n.P.U.V.B.i.1.o.P O .     o           X             ",
"*X&XOXg.a.<.) T B v w 3 : 2 ' e.J.G.B.B.V.V.M.).eX5X2X,X^.5X5XC.G.m.9.i.t.y.n.I.P.P.P.n.o.I G f 0 $ . .                         ",
"%XOX@Xh.a.;.^ S C t 9 5 2 2 I y.{.:XI.U.I.~.!.{.dXdXhXfX<X{.I.C.M.C.V.K.!.n.M.P.P.~.I.m.&.| | ~ X.% .                     X     ",
"OXT.g.d.3.;./ A Z w 8 3 : > h n. X[.U.U.L.^.{.7XfXxXxXsX|.L.Z.L.M.M.b.A.C.b.P.L.P.).!.m.7.@.*.| o.a O .                         ",
"@Xg.d.p.3.:.! Z Z w 8 3 - , > b.,XU.i.r.K.(.[.8X2X9XxX9X).!.D./.^.Q.Z.S.v.Z.|..X^.`.^.M.m.&.#.{ Y 2 O   X                   X   ",
"g.h.p.a.3...W B b w 8 3 - , , ] {.E.i.r.B.(.{.I.~. X0XdX|././.`.1X5X[.^.D.,XqX1X<X2X|.Q.N.7.#.} c - O . O         X         X   ",
"g.d.a.3.;.) R M s s w f g h ` #.V.H.i.i.9.K.B.c.-.A.).5X X}.'.1XgXk.eX1X).9XdX8XsXfX9X|.Q.z.#.} c - O .     .   X               ",
"h.p.3.3.;.^ T b t s b >.5.7.]._.U.H.B.r.i.B.7.&.+.-.D.1X7X1X,XsXxX  k.9X<XsXhX8XdXxXfX7X).A.z.} ` > @ .   .                     ",
"h.p.4.<.) ! K v w 9 P y.].V.G.E.H.H.i.i.r.8.8.&.[ -.v.<XhXqXdXvXvX  j.9X<X8XhX9XhXvXxXhX<X^.^.$.O.U > @           .             ",
"@Xp.q.;.) R S v w a Y n.G.0.G.H.y.y.9.i.r.i.9.=.$.-.D.1XxXxXxXxXxXgXgXgXiXgXgXxXgXxXxXxX0X).!.x. .} G - .             X         ",
"@Xd.a.<.) R S b f b a >.x.0.G.P.H.G.B.9.*.*.8.x.v.D..XhXvXxXxXvXxX9XdXl j.l   %.xXgXxXgXdX`.Q.M.7.#.' p O O .           X       ",
"OXh.a.3.:.W A V b h p `  .7.I.E.U.U.B.r.9.*.=.b.N.Q.>XdXvXxXxXvXfX9XhXl j.$Xj.;XxXfXsX9X9X>X^.C.x.@.{ g @ . X                   ",
"+Xh.p.3.;.~ R Z b h h c ` [ c.~.A.L.A.C.F.V.c.v.F.}.1XfXvXvXvXxXxXxXgXoX0X8X9XgXxXgXqX7X7X>X`.L.x.=.} G f 5 + *                 ",
"+X@Xd.u.>.u.].>.G j c _ [ +.S.>X{.F.F.S.S.-.S.'..X.XeXhXgXxXvXxXxXfX9XeX.X.X.X8XgXqX1X<X<X).).Q.z.#.#.{ { H f r   X             ",
"+X@X@Xa.a.W.E.P.7.] O.c.-.{.eXhXhX8X,XXX{.F.F.XX7X9X9XwXdXgXfXxXd xXqX1X7X8XeXeX9XqX7X<X.X).).Q.m.7.>.} { I g X o         X     ",
"3X+X@Xh.Y.#X_._.G.z.A.^.N.1XhXgXxX( ;XqXXXXXXX1XgXxXxXhXhXhXgXvX%.xXdXdXhX9X8X9X8XhXhX7X2X|.).!.M.x.7.o.{ I m ; %               ",
"yX+XOX@X#X:X:X_.[.).>X X'.7XfXxX( ( ;XxXqX,X7XgXxXxXxXxXxXhXgXgXgXgXgXgXgXgXxXxXgXfXfXqX9X<X).^.M.m.7. .{ I G f % & X           ",
"pX3X+X#X6X:X_._.>X2X5X5X8XgXvXvX  ( ( ( ( ( j.xXxXxXxXxXhXwXwXwXxXxXxXvXxXxXj.j.xXgXgXhX8X<X.X^.A.7.&.' I H G V g g %           ",
"pXyX3X3X6X:X:X:X2X0XsXsXiXxXvXvX( ( ( <   D j.xXgXxXxXxXxXxXgXgXgXxXvXxXgXxXj.j.vXxXxXgX9X<X}.L.c.7.#.' J J H H G a %           ",
"aXuXyX3X6X:X:X:X5XxXpX$XvXvXvXvXvXvXvXQ l $XxXxXgXxXxXxXvXxXxXxXj.gXgXxXxXxXxX;Xj.;XxXxXdX<X}.Q.b.7.*.' H H V G a 9 4 3 $ X X   ",
"lXpXuXrX6X:X#X:X>XfX$XQ vXxXvXvXxXvXvXvXxXvXxXxXxXgXxXxXvXxXxXxXl xXvXxXxXxXvX4.< D j.$XfX2X|.D.c.=.O.' x 9 - = . . . . . n e   ",
"lXlXpXyX=X#XW.P._.5XfXpX$XvXvXvXj.vXvX$Xj.iXxXxXgXxXxXgXxXxXvXvXxXvXvXxXxXxX;Xj.( 4 = Q vX0X.XD.=.#.#.I p : .   o     o   X * % ",
"lXlXaXyX-X+XR.J.P.>X5XoXQ vXgXvX  j.iXl   ,.;XxXxXvXvXxXxXiXj.vXvXj.j.iXxXvX4.< ( 4.Q vXvX0X|.D.-.O.} J : : O O < e $       X * ",
"lXlXjXuX3X&XR.H.I.>X0XxXvXxXfXvX    j.l     ( xXvXgXxXvXxXj.  xXvX    j.vXxXvX( ( vXvXvXcX8X.XD.z.] J g - . o 6 * & o $ $ * $ X ",
"lXlXkXpXrX*X#XY.G.I.>XaXdXxXvXvXxXxXwXy j.xXgXxXxXxXgXvXvXvXvXwXvX  j.vXl j.vXxXvXvXT.d vX9X}.N.$.` J p 2 : 5 O < . * *     X $ ",
"cXlXlXpXrX-XOXY.].G.|.1X0XfXxX.   wXwXl j.xXvXvXvXvXvXvXvXxXxXxX  xXvXvXl j.vXvX..    l xX9X>XQ.z.} ` U H I B     7 < # X   X X ",
"cXlXlXaXyX-X#X@Xf.n.E.>X2X8XdXcXvXxXvXl   j.vXvX( ( vXxXxXxXxXxXxXxXdXvXgXhXgXvXvXvXxXvXxX5X`.!.z.} ' I x g 9 e   7 = o $ o X # ",
"vXcXlXjXyX3X=X@XY.u.m.P.Q.,X0XfXxXxXvXl ,.iXvX4.< ( xXfXgXxXxXxXxXxXxXgXwX0XsXxXxXfXfXlXdX2X`.L.7.#. .' G g 1 D .       $ X X o ",
"vXcXlXkXuX3X+X@XY.u.@.O.$.D.|.2X8XxXvX$XD l l < D ;XxXxXgXxXxXvXgXgXgXqX8X1X2X9XsX|.>X5X2X}.Q.M.z.}  .U x 1 O %   o o o   # 6   ",
"cXcXlXkXuX3X+X@Xd.u.>. .>.^.`.|.<X8XxXvXl ,.j.j.;XxXxXxX9XgXxXxXhXhX8XeXeX X.X X>X|.|.}.^.Q.D.v.7.O.{ U > + O O   6 * o   o $ < ",
"vXcXcXjXuX3X=X@Xd.u.>.@.!.:X<X|.}.1XfXxXl q l 4.xXvXvXvXhXgXxXxXhX7X,X8X,X/.^.).!.).^.!.v.c.c.>.&. .{ U a : = 5 * 6 < X   X o * ",
"vXcXcXjXuXrX+X@Xd.q.>.>.W._._._.}.,X9XgX4.( l l ( j.gXxXxXvXvXxXgX7X.X2X|.).`.Q.Z.Z.N.v.z.>.>.$.#. .I V 2 = + % e u * X . X X   ",
"vXcXcXkXuXrX-XOXY.a.u.>.y.m.x.Q.2X X,XdXgXvX(   l j.xXxXvXvXvXxXxXhX8X1X>X^.).M.x.b.x.>.#.$.} { I ' I I f 2 : 0 * 6 < X .       ",
"cXvXcXkXuX-X*XOXh.a.u.].>.#.m.!.L.>X,X8X9XxXk.( j.vXxXvXvXxXxXhXhX,X/.}.`.^.!.G.x.z.#.' | { { ' I x H Y G 9 0 P % % .   % N n $ ",
"vXvXcXlXuXrX=XOXT.p.a.].@.>.W.x.m.^.>X5X8XhXfXfXdXhXfXgXwXqX8X X1X/.Z./.!.M.G.P.>.>.{ I { ' I Y H 2 0 P x 2 a % $ . X   < $ 4 X ",
"vXvXcXlXuX-X*X+X@Xd.q.w.>. .0.m.C.C.L.)..X7X9X1XXX'.XXXX,X8X1X,X XF.Z.C.M.c.n.G.>.{ P Y ' ' I H V 5 9 z u 2 f + O + O   o   o   ",
"vXcXvXlXaXrX=X%XOXd.a.3.o.>.>.G.7.} [ [ =.v.S./.S.'.'.'.}. X.X}.|.L.c.=.z.>.>.G.e.R P T ~ ~ Y V 9 < 1 % : z A % % o .   o o   e ",
"cXj.pXzXaXrX-X*X+Xh.a.>.>.{  .>.6. .] _ _ _ [ [ -.{.}.}.~.Z.A.A.~.C.M.0.#.@.| f.u.~ S P R V H F : 1 7 < ; n = %     o # X     7 ",
"vX  j.cXjXyX3X-X+Xh.p.3.u.s.u. .o. .I j j j _ _ _ C.V.V.b.=.} 0.b.K.P.x. .| | q.a.R K Z b b b s < % % * < B r *   X o o X o $ * ",
"vX  j.cXkXpXrX-X+X@Xd.u.:.;.X.P P b h j j k k j j c.V.C.C.7.` 7.0.C.G.n.o.~ { q.p.T K Z Z b b C 9 < * N q D E 7 7     o   < 7   ",
"vX  j.cXkXuXyX-X+X@Xh.q.:.! ! F b a 2 p i k , k > ] B.B.t.&.c U I o.>.{ { R ! <.@XT K S T / s M 9 < % 0 < # % o %   $ < X o   < ",
"vX  j.cXcXpXyXrX-XOXT.a.,./ ! S C t 6 p - p 2 - > p ' r.6.| G 2 f b V V ../ / ;.OXW E L Z D M t 0 u < $ r ; # & . 8 7 X X o # o ",
"vX  j.cXkXpXtXyX-X*X@Xd.<./ W S b t 8 3 3 : @ @ - % V 8.| x a 9 w w s T ! R W ) OXW R T A C S q 7 8 $ % y 8 $ q & * X   4 4 & * ",
"vX  j.cXlXpXtXyX3X=X@Xd.3.) ! S b v t 6 ; w 9 8 f . 7 | V : 2 ; 5 w v C F K T / OXQ R E S C B e r 1 $ 1 ; 8 n # X     % l l     ",
"vX  j.cXkXjXaXyX3X=X%Xg.q.;./ T B s r 8 % ; M V +   O u 1 * V 0 1 8 t b C S T / @X/ R ! E Z v y q * % 7 4 & *   e X X q 8 % . o ",
"vX  j.cXkXjXpXyXrX=X&Xh.a.3.) / T v w q & # $ : 0 O O ; r s F z s 8 r v S T K ) g.:.R T ) C v t 0 * & ; % & & o $ # $ l e 4   X ",
"vXj.iXcXkXpXaXuXrX-X*X@Xp.,.( ! T b t 8 7 * : w P % s < % + + 5 9 7 r n C R T W d.,.R D ..A v B F < & $ + & & v 5 q q $ u 7 o   ",
"vXcXcXkXjXpXpXtXrX-X*XOXd.3.) ! R B t 8 5 3 5 B f o % < O O O $ ; 7 r v B T T T l.3.R L / C n C R 5 < r N & & E N 5 * X #   o o ",
"vXcXcXkXaXpXuXtXyX-X*XOXh.3.<.:.R b t s t 3 t $ z     . * 5 o * * 7 t N B T / T 4.q.W ! K N M A 0 * ; $ e % * & u . N l D 7   $ ",
"vXcXzXjXpXpXpXpXyXrX-X+Xh.4.:.! T Z R v 3 ; w 5 M     X < o o # * 7 t v M S L ! l.l.E T Z B v v 8 r z 5 X X $ #   7 y o o     o ",
"cXzXzXkXpXaXpXtXyX3X-X+Xh.q.;.:.T S B w 3 * : $ # 3 o X X o X & 3 t B M M C S R 3.d.^ T S N v t 8 M S n 7 7 y o % % * * # X   l ",
"cXlXjXpXpXjXjXpXyX-X=XOXh.3.;./ R B v 8 3 & # 3 X $ X o   X X # 6 v A M E L A L ,.g.) T A B n C n y B r % 6 4 # * < % * X o # D ",
"cXkXjXpXpXpXpXuXyXrX=X+Xg.a.<./ T B v q 8 3 3 K + o 3 7 X $ & < 3 e d v C W L T ) g./ L C N n M m d m n ; t $ 6 6 # # o X * $ # ",
"kXjXaXpXpXpXaXpXyX3X=X+Xg.a.;./ T V C K v 3 # w 5 # X * # 8 r 5 q 6 w y B C C :.4.g...L Z B n v r m y z & 4   X # # $ o < e $   ",
"jXaXpXpXuXpXjXpXyXrX=X+Xh.p.<./ T C Z v 8 % # 3 q * & # * & $ % & 3 6 t n M C Q ,.@X2.L S Z C M s B n 4 & o X o o o o l 4 $     ",
"jXpXpXpXaXaXaXaXyX-X=XOXh.a.3./ T C b r K 9 + * 4 3 $ X o o $ 7 $ 3 8 v b m B S Q g.3.S Z A L M B N ; % o X X o 4 y X q D e     ",
"aXuXpXpXpXaXjXaXyX3X=XOXh.p.3./ R K b q M Z # X n e o o X X X o 3 5 M S K ~ u.X.W l...S Z :...d z u ; = $ # o o o   X X 7 z     "
};
