/* XPM */
static char *result[] = {
/* columns rows colors chars-per-pixel */
"64 64 236 2 ",
"   c #020101",
".  c #090606",
"X  c #0B0806",
"o  c #0C0B0B",
"O  c #0B0708",
"+  c #110D0D",
"@  c #170A08",
"#  c #1A110F",
"$  c #130F10",
"%  c #151212",
"&  c #1A1515",
"*  c #1B1718",
"=  c #1D1A1B",
"-  c #1D1816",
";  c #221D1D",
":  c #241916",
">  c #30130D",
",  c #28211E",
"<  c #39241E",
"1  c #241F21",
"2  c #252122",
"3  c #2A2425",
"4  c #2C2728",
"5  c #2D2A2B",
"6  c #3A2A26",
"7  c #322B2D",
"8  c #382826",
"9  c #342E30",
"0  c #382F30",
"q  c #363132",
"w  c #3B3435",
"e  c #3D3639",
"r  c #3E3B3B",
"t  c #3E312D",
"y  c #562717",
"u  c #68321C",
"i  c #49332E",
"p  c #423C3D",
"a  c #493936",
"s  c #543B38",
"d  c #492E2C",
"f  c #6B3C30",
"g  c #4C1C0B",
"h  c #57433D",
"j  c #48403F",
"k  c #714433",
"l  c #453E41",
"z  c #4A3E42",
"x  c #4B4244",
"c  c #4E4649",
"v  c #4B4547",
"b  c #50464A",
"n  c #534A4D",
"m  c #594745",
"M  c #564D51",
"N  c #594E53",
"B  c #5B5155",
"V  c #5D5459",
"C  c #5C5A5A",
"Z  c #5D514F",
"A  c #654D49",
"S  c #6A4E4A",
"D  c #644844",
"F  c #6C514C",
"G  c #76524A",
"H  c #62575C",
"J  c #64595E",
"K  c #6B5A5C",
"L  c #685555",
"P  c #735B59",
"I  c #7B5D59",
"U  c #755955",
"Y  c #764D47",
"T  c #7B615D",
"R  c #65615F",
"E  c #655B61",
"W  c #6A5E63",
"Q  c #7B5F61",
"!  c #6D6166",
"~  c #6E6369",
"^  c #6C6968",
"/  c #71656B",
"(  c #796667",
")  c #7A6D74",
"_  c #766A71",
"`  c #7F7F7D",
"'  c #7E7177",
"]  c #8F5136",
"[  c #895B4F",
"{  c #87635D",
"}  c #95675F",
"|  c #A46753",
" . c #8C6A66",
".. c #876B68",
"X. c #956D68",
"o. c #8B736E",
"O. c #95726D",
"+. c #82757C",
"@. c #877879",
"#. c #947572",
"$. c #987976",
"%. c #8A6D71",
"&. c #A77468",
"*. c #A77B76",
"=. c #B67A67",
"-. c #9A827E",
";. c #A9827C",
":. c #B58279",
">. c #CA8D77",
",. c #8B7D84",
"<. c #877A81",
"1. c #927F86",
"2. c #8D8187",
"3. c #93848C",
"4. c #9B8485",
"5. c #9B8C94",
"6. c #998B94",
"7. c #9F9E9B",
"8. c #9F9399",
"9. c #AA8A85",
"0. c #AC8D8A",
"q. c #A68885",
"w. c #B38C85",
"e. c #BB8C85",
"r. c #B68C87",
"t. c #AD928C",
"y. c #B4938C",
"u. c #BC948D",
"i. c #BA9087",
"p. c #A4949D",
"a. c #AB9495",
"s. c #B39692",
"d. c #BB9A94",
"f. c #BC9D9A",
"g. c #B89894",
"h. c #A18D94",
"j. c #BFA19C",
"k. c #A697A1",
"l. c #AA9BA4",
"z. c #AC9DA6",
"x. c #B29EA7",
"c. c #B3A4AD",
"v. c #B8A4A9",
"b. c #BBABB5",
"n. c #BDAEB8",
"m. c #B6A7B1",
"M. c #BEBEBA",
"N. c #BEB6B8",
"B. c #C18E84",
"V. c #C4938C",
"C. c #C9958C",
"Z. c #D49A8A",
"A. c #C49B94",
"S. c #CB9B93",
"D. c #C39E9A",
"F. c #C79994",
"G. c #D19E95",
"H. c #C4A29C",
"J. c #CBA29D",
"K. c #D5A39B",
"L. c #DBA59C",
"P. c #D9A496",
"I. c #DAA08C",
"U. c #E2AA9C",
"Y. c #E8B29B",
"T. c #C8A7A5",
"R. c #D4AAA4",
"E. c #DDABA2",
"W. c #D4A9A5",
"Q. c #DDB3AB",
"!. c #D9B2A8",
"~. c #C3B3BD",
"^. c #DBB7B1",
"/. c #E3ADA3",
"(. c #E3AEA6",
"). c #E4B4AC",
"_. c #EAB6AB",
"`. c #ECBAAE",
"'. c #E6B4A7",
"]. c #ECBCB2",
"[. c #E9BCB6",
"{. c #F1BDB3",
"}. c #F2BEAC",
"|. c #CCC6BC",
" X c #ECC3B7",
".X c #F3C2B5",
"XX c #F4C5BB",
"oX c #F5CBBD",
"OX c #F6C9BB",
"+X c #F2C9AF",
"@X c #C6B7C0",
"#X c #CABAC4",
"$X c #CEBFC9",
"%X c #C7B8C2",
"&X c #CEC9C9",
"*X c #D2C2CC",
"=X c #D5C8CF",
"-X c #D6C7D0",
";X c #DACAD4",
":X c #DECFD8",
">X c #D7C8D2",
",X c #DEDAD8",
"<X c #DBD9CD",
"1X c #F4CDC2",
"2X c #F7CCC1",
"3X c #F5D3C4",
"4X c #FAD4C4",
"5X c #FADCCC",
"6X c #F7D9CA",
"7X c #E2D3DC",
"8X c #F8DED1",
"9X c #F9E1CC",
"0X c #FBE4D3",
"qX c #FBE9D6",
"wX c #FCEDDB",
"eX c #F7E6D6",
"rX c #FBF2DD",
"tX c #E6D6E1",
"yX c #EADBE5",
"uX c #EEDFE8",
"iX c #E7D8E1",
"pX c #F0DFE9",
"aX c #EFE1E9",
"sX c #EEEAE7",
"dX c #F1E4EB",
"fX c #F8EBE8",
"gX c #FDF5E4",
"hX c #FCF6EA",
"jX c #FDFAEC",
"kX c #FDFAE6",
"lX c #F6EAF1",
"zX c #F9ECF4",
"xX c #FCF1F7",
"cX c #FDFDF4",
"vX c #FEFDF9",
"bX c #FCF3F9",
/* pixels */
">X#X~.p.<.W H c e 4 1 $ $ 8 b Q o.( T ..8 X X X t -.-.-.4.a.t.-.$.t.v._ K C B b p 9 4 * $ O O       O O                         ",
"-X#Xb.p.<./ H c e 7 1 $ + 1 a x ( ( T L j + + h o.s.g.t.g.y.t.q.q.s.N.' ! J V n l 9 4 ; $ O                                     ",
">X%Xb.p.<./ E b e 5 1 % o % 3 i K o.( T F < < -.t.j.j.j.H.t.y.9.t.t.c.2.! E V b l w 5 ; % o O                                   ",
">X#Xb.k.,.W E c e 7 1 % o X . i -.-.o.$.-.T o.T.j.H.H.R.R.w.A.:.d.t.a.4.! E V n x e 7 ; % + O . .                               ",
">X#Xb.k.,./ E b p 7 2 % X . X ( q.q.#.o.#.$.f.W.J.H.H.E.K.J.!.J.H.t.h.a.@.+.K L B x w 2 - o X X                                 ",
";X#X~.k.,./ E n p 7 1 & o o 3 $.q.-.-.o.$.9.f.!.!.H.H.).3XqX6X^.j.-.-.q.t.4.@.$.q.#.( F a j # .                                 ",
";X#Xn.l.,./ E n p 7 1 & o + h q.9.#.#.$.9.t.A.E.!.H.V.K.eXrXwX!.H.-.;.9.f.f.t.a.f.q.-.-.( ( w X                                 ",
">X#Xn.k.3./ E b p 7 2 & o + a #.-.q.t.s.s.w.r.Q.oXR.P.L.'.rXeXJ.H.t.q.y.g.y.g.H.H.f.y.t.o.T A #       o                         ",
"$X#Xb.l.,./ E n p 7 1 : + 1 I 1.f.f.g.j.H.A.A.).0X6XwX0X X6X XF.y.y.y.u.y.w.d.W.T.S.T.g.{ A m j : . .                           ",
"$X%Xn.k.,./ H n p 7 1 * # : G V.!.^.H.H.K.L.E.[.wXwXjXhX3XE.E.F.i.A.u.H.F.F.G.W.W.W.K.V.$...( T ( 0 X .                 o       ",
"$X$Xb.k.,./ E c p 9 1 * # # i D. XT.j.g.R.^.[.0X8XfXjXwX XG.P.K.u.e.i.i.e.V.W.).(.W.K.V.;.#. .....a +                           ",
"$X%Xb.k.,.~ H b l 1 1 & @ @ < S.oXT.t.t.!. X[.9XXX1XgXfX{.U.P.L.P.V.i.>.B.L._.]._.(.K.V.:.$. .U h , X                           ",
"#Xn.m.k.,.W V b p 4 ; : # @ > [ !.R.g.t.H.Q.R.!.E.{.0XgX3X/.L.(._.L.Z.E./.6XgX3X2XXXE.S.B.*.} Y s < +                           ",
"%Xn.c.p.<.E N z z 4 ; z z < S X.y.T.j.d.t.g.y.w.:.Z.'.8XqX`.'.OX6X1XXX{.).eXrX0X8X8X1X/.Z.:.X.Y h D :                           ",
"@Xn.z.6.<.E M z b 3 d 1.q...r.W.H.H.H.s.t.t.;.&.| >.I.3XgX9X3XeXqX0X9XOX2X0XqX0XwXgX0X{.G.B.*.[ Y < @                           ",
"~.b.z.1.' E n z M 8 K g.s.r.g.T.T.T.j.j.t.t.w.=.=.:.>. XrXrXrXjXgXrXwX5X2X8XwX0X6XgXgX0X].S.:.X.{ S < . X                       ",
"n.c.k.,._ V z z 0 0 P 0.D.1.t.j.g.j.d.d.t.d.y.:.=.>.I.6XhXhXhXjXgX0X9XgXjXjXcXjXcXcXcXjX4XG.B.&.[ G D : .                       ",
"b.k.p.,./ N z e 8 a s q.r.:.u.H.R.J.H.y.;.t.y.A.P./.1XwXeXeX9XcXgX4X0Xj ~.vXvXcXcXvXvXbX8X_.V.B.O. .I i O                       ",
"c.k.1.<./ z z l 7 3 i o. .w.J.J.!. X!.A.;.i.C.I.P.+X3XeX&X^ jXcXfX5XrX&XsXcXcXcXcXvXhX8X8X{.G.C.*.#.I s @   .                   ",
"z.p.1.<.W H H z 8 8 S Y Y &.C.K.J.E.K.Q. XC.A.Y.L.oXrXhXsX7.r cXcXjXjXcXjX9X6XcXcXjXwX6X4X{./.S.*.*.X.s 6 ; o                   ",
"z.6.1._ _ 1.F.1.s s f f ] &.P. XQ.'.U.U.I.Z.I.+XoX3XrXjXkXsXM.vXcXcXrX0X9X9X5X8XjXwX4XXX{.(.(.W.e.*.X.T U m 6 o                 ",
"z.6.1.<.1.x.J.F.#.G X.>.=.Y.oXwXrX9XoX4X+XY.Y.oXwXhXgXgXrXjXjXvXcXcXgXqX0XrXwX6XqXrX5XOX{._.(.L.u.*.O. .U S i .                 ",
"c.p.1.,.k.v.W.D.y.*.J.L.>.oX0XrXjX` <XrXoX+XoXqXjXvXcXkXrXjXvXhXhXjXkXjXjXwX0XrXqX5X5X5X2XXX(.G.u.*.*.X.I D i .                 ",
"%Xk.h.h.T.W.W.W.Q.R.).'.L.oXwXjXcX  M.cXjXrXrXjXcXvXcXjXkXcXvXhXjXjXjXcXvXcXvXvXjXgXgX0X5XXX(.K.V.9.*.%.I S a 3 % : .           ",
"@Xx.k.k.T.J.J.W.).[.XXXX3XwXjXvXcX` ,XcXvXcXcXcXvXvXcXjXjXhXhXjXcXcX7.,XvXvXvXvXcXjXkXqX6X].(.G.i.&. .S S A h L 8 t :           ",
"$X@Xm.x.b.T.f.J.F.W.XXXXoXhXcXvXcXvXvXvXvXcXcXvXvXcXvXvXcXcXjXjXcXcX7.,XvXcXcXM.` M.vXgX4X{./.S.*.*. .U F L D h s i -           ",
"$X#X@Xm.T.T.f.J.W.).1X8XqXcXcXvXvXvX&XsXvXcXcXcXcXvXvXvXvXcXjXvXcXvXvXvXcXcXvX7.1 ` vXgX4X_.L.C.:.O.{ U h L m j 7 3 @ .         ",
"tX$X@X~.x.l.0.V.W.2X0XxXjXcXvXvXvXvX^ &XcXjX,X,XvXcXvXvXvXvXvXvXvXcXvXvXvXvXvXvX` R &XjX5X'.U.C.*.X.I F h a = x O O             ",
"yX;X$X@Xx.1.$.$.B.(.6XcXcXcXvXvXM.vXvXvXjX&X` 7.cXvXvXvXvXcXvXM.M.M.sXvXvXvXvX,XC   l cX0X{./.C.*.{ [ S d o X , = % .           ",
"pX7X$X#Xm.k.1.%.1.E.2XzXcXcXvXvX  vXvXvX&XC 7.cXvXvXvXvXsX&XvXr r   M.vX&XM.,X`   1 ^ vXgX{.L.B.*.{ ..D # % $ , 2 o o         . ",
"pX7X;X$X~.p.1.*.B.(.[.8XgXcXvXvX  vXvXvXr M.cXcXcXcXvXvXM.p vXvXvX  M.vXp   ` `   ` vXcXgX{.U.=.&.{ S d + : . o = 2 2 2 % $ $ . ",
"dXpX7X$X@Xx.h.1.&.B.[.2XqXhXcX    vXvXp   M.cXjXcXcXvXvXvXvXvXvXcX  M.vXp M.vXvX` +.cXcXfX{.G.=.X.Y s < : =       .     o 5 n % ",
"zXpXtX;X#Xx.p.1. .e.).XX5XqXhXvXvXvXvXcXvXcXvXvXcXjXcXM.r cXcXvX  vXvXvXcXhXvXvX+.    p 0X`.P.B.*.G D D h a % . .     X . . . 5 ",
"bXdXyX:X$X~.l.1.%.$.A.).XX5XwXjXjXvXvXvXcXr   ` jXcXcXhXjXcXcXcXcXvXcXhXrXgXcXjXcXvXcXcX6X/.L.C.*.G S S F h , X o r 4       . . ",
"bXlXyX:X$X~.z.1.%...*.V.Z.`.6XwXjXvX^ l r % C ,X7.7.vXjXcXcXcXcXcXcXcXkXrXqXrXgXjXgXqX8X XE.K.V.O. .I F A m 7 % o % + o % % $   ",
"bXzXpX7X$X~.c.6.) Q U [ | Z./.XX6XrX|.7     ` vX,X<XjXcXvXvXcXgXjXcXjXkXqX6X3X6X8X2X{.].'.K.S.e.*. .{ S a a B o = % % % $ X . 1 ",
"bXlXpX7X$X@Xm.6.+.( P Y &.C._._. X+X9X|.M.M.` 7.cXcXcXvXvXvXvXgXjXjXjXrX9XOXoX.X{._.(./.G.V.e.*.*.X.T h < # & 3 . 2 r 5 * o o o ",
"bXlXpXtX$X@Xm.p.,._ L { F.).XX/.U.+XeXjXvXcX` ` vXvXvXvXvXvXvXvXkXwX9XqXOX{.(.'.G.E.G.S.B.w.*.*.O. .T F 6 # . K = 5 5 % o X o o ",
"bXlXuXtX$X#Xm.p.6.W E ..V.W.W.K.'.`.qXkXjXvX` ` vXvXvXvXvXvXvXcXkXrXXX4XOX].(.L.F.G.C.1.*.$.O. . ...U S 8 # . , = o . X o   o   ",
"bXlXuX:X$X@Xb.h.1.W K Q O.9.w.F.XX'.oX0XgXcXM.` ` M.vXsXcXcXcXjXkXrX0X4XXX(.S.K.e.e.:.*.X. .I U S F I U i : # - o 1 % o $   1   ",
"xXdXyX:X*X@Xm.p.<.W %.q.P ..w.V.E..X.X2X0XgXjX~.-.M.hXjXcXjXkXrX0XOX2X4X_.G.V.J.r.$.O.Q I T T U s s T h i < , , o . = o X o = q ",
"bXdXiX:X*Xn.m.k.<./ / 1.P #.D.V.S.).]..X6XrXrXqX9XwXrXeX+X9X6X3XoXY.L.E.L.C.V.D.1.#.Q P L I U m 8 , < a d : , , % 4 +     . o . ",
"bXaXyX:X*X~.b.k.,./ ~ ..P %.r.V.r.A.C.P.`.6X6X.XY.Y.+X+X'.+X4XoX.XG.B.e.1.B.u.f.1.Q E Q ( P L s , : , 6 8 , % o + & = .   . $   ",
"bXdXyX:X*X@Xb.z.,./ ~ Q L P  .1.O.[ [ [ | >.I.I.>.`.'.'.'.'.`.`._.S.:.*.*.1.0.f.a.! H E ( K A w 7 , : # # X X = = 1 % .   o   . ",
"bXaXyX:X*X@Xb.l.3./ W B v m U {  .{ Y u k ] ] ] | /.E.'.L.C.e.V.K.K.u.q.#.#.#.l.x./ E H H A P q B = 5 5 4 . . = % q 5 o + = % X ",
"bXaXyX:X-X$X@Xz.3.+.W N z z L L U F f y y u u u ] H.K.A.e.*.[ *.9.g.$.q.%...%.h.x.~ E N M x p 0 v , - q q % 5 q o = = . = 5 r = ",
"bXaXyX:X-X#Xn.z.5.,.! H n M H Z s < > > y u g y u H.j.u.w.X.k X.*.w.4.s.$.( / 6.b.W W V M N M x c e % 7 $ $ q V $ % % . $ l r % ",
"bXlXyX:X-X#Xn.c.p.,._ W H z z 7 : : d < > > > > > { y.d.;.X.s h D Q -.@.Q / W <.>X+.W H V M c / 7 w 3 $ * v v % %   . . .     o ",
"bXlXyX7X>X$X~.m.l.6.+.W E z N 0 7 6 : # @ @ @ @ @ <  .w.-. .h 8 0 L j Z ) ~ E ) >X! E J B M b v 2 : x 1 % j $ o o . o % $ $     ",
"bXlXaXtX:X-X@X~.m.8.<._ E b b V 0 ; + % - O X ;   . s 4.( h < , , 0 w B ! ! ~ / &X_ W V B v p l 7 = % 2 + M C = e   X     % 2 5 ",
"bXlXdXiX:X-X#X#Xb.k.3.) W M c z 0 - + o % X   &   ; p @.m a , % w 7 p b Z L ! _ ~.) E H H n p w 7 2 * e = w ; 5 ,   o 1 . o $ 2 ",
"xXzXaXyX7X;X*X$Xn.x.6.<.+.! E z p 1 * $ - .   . o ; ; 3 : - % , 4 7 q x c M H +.m.,.~ H B M v v x 3 = * = % $ $     X     %   = ",
"xXlXdXiX7X;X-X*X@Xm.8.<.+.~ J z e 4 3 2 $ o       $ .   . $ + ; 1 i 9 v v n V ^ 8.,.E V N ' v x w q * & p 7 5 =   * *   . $ 2 o ",
"zXlXdXuXtX:X-X*X#Xn.l.2._ J B p q 3 5 e o = % .   . % 9 7 $ 2 = ; 7 9 r v M _ E 6.2.E H N V M e w 1 $ 7 * 3 5 2 $ 5 5 $ * 5 = X ",
"xXdXdXuXtX:X;X-X*Xn.x.3.) W H z q 3 2 , + = 3     o * c r 5 M 7 1 4 7 r x n V E 3.3.E ! H N N r x 1 % + = & 3 o * % o * r R . % ",
"zXlXdXyXtX7X7X:X>X@Xm.5.' W V c x 5 1 % $ 2 3 7 q   X o 2 % 5 r M 4 7 v B E M ! 3.6.E N M v v q 3 = % $ $ + %   5     % 5 o   o ",
"zXdXdXyXtXtXtX:X>X%Xb.8.+.~ E ! v 5 2 - + 9 p c o . o = ; * 1 = 3 1 5 e c n M V 2.z.W V V M l l 5 2 % 2 % 1 1     o o 1 7 % .   ",
"lXdXuXuXtXtXtX:X>X#X~.k.@.2.E N a q 7 = + o ; 4 7 % o % % * = o * 1 4 q r c c V ' c.~ V E M p p M = 1 2 o . o o 4 l r % 7 5 % o ",
"lXdXuXyXyXtXtX:X:X#Xn.k.,.' W N n q 5 2 $ & 9 i Z - r * . + o % % 1 4 q v ~ E V _ m.) V ) M v v n 2 , 2 2 % o B e q r 1 v q $ o ",
"dXaXuXyXyXtXtX:X:X$X~.z.3.<.' H x q 4 5 7 % $ 0 a o 1 o * % o o % 1 5 e p H E E ` b.' V V n x c c 7 q r ^ 7 1 2 ! % r = = =     ",
"dXaXaXyXyXtXtX7X:X$X@Xc.6.+.' J M q 7 2 7 % = & j .   . o o o o * 2 r x r v M ~ 6.m.` E C b x p 9 p w 2 = % = % X o o 1 r o   % ",
"lXaXaXdXyXtXtX7X:X*X%Xx.3.' / W Z w Z t = % 5 7 w     X o o O % 1 9 c v E V M H ' n.,.E V c x e 9 p j v 2 5 5 X o * = q o o   r ",
"lXaXyXdXyXyXtX7X;X*X@Xc.3.) / ~ n n j 5 o % % q 4 % o o O $ o $ 2 5 v q n E V N W n.5.E B n x p e 7 4 3 1 = . . 4 q = % o % % 5 ",
"dXdXpXyXyXyXuXtX;X$X@Xc.6.' / N j w j q % + . X = = o = O 5 4 5 % 5 q q n C M <.~ b.8.V V M v n R e 3 , o l % = = X o X   + 2   "
};
