/* XPM */
static char *result[] = {
/* columns rows colors chars-per-pixel */
"64 64 228 2 ",
"   c #020202",
".  c #090606",
"X  c #0A0708",
"o  c #0C0A0A",
"O  c #0E0907",
"+  c #110D0D",
"@  c #150907",
"#  c #1A110E",
"$  c #14100F",
"%  c #130F10",
"&  c #151213",
"*  c #1A1515",
"=  c #1B1718",
"-  c #1D1A1B",
";  c #1C1816",
":  c #221C1D",
">  c #271A17",
",  c #361E19",
"<  c #30120A",
"1  c #22201E",
"2  c #29201E",
"3  c #34211E",
"4  c #241F20",
"5  c #252222",
"6  c #2A2425",
"7  c #2C2628",
"8  c #2D2A2A",
"9  c #2F2826",
"0  c #322B2D",
"q  c #382926",
"w  c #39302D",
"e  c #352E31",
"r  c #382F30",
"t  c #353232",
"y  c #3A3334",
"u  c #3E3639",
"i  c #3E3B3B",
"p  c #432C27",
"a  c #45312E",
"s  c #4C342E",
"d  c #423C3D",
"f  c #483835",
"g  c #533E3A",
"h  c #553B36",
"j  c #5A3226",
"k  c #6A3D2D",
"l  c #542816",
"z  c #48403F",
"x  c #5A433F",
"c  c #68443D",
"v  c #76473B",
"b  c #463E41",
"n  c #493E42",
"m  c #4B4345",
"M  c #4E4649",
"N  c #494445",
"B  c #524A4D",
"V  c #584747",
"C  c #564D51",
"Z  c #594E53",
"A  c #5B5255",
"S  c #5E545A",
"D  c #5B5959",
"F  c #634A46",
"G  c #674C48",
"H  c #6A514D",
"J  c #75534C",
"K  c #61565B",
"L  c #63595E",
"P  c #6C5B5D",
"I  c #685553",
"U  c #725652",
"Y  c #735C5A",
"T  c #795B57",
"R  c #7D4D43",
"E  c #7A625E",
"W  c #6B605F",
"Q  c #655B61",
"!  c #6A5E63",
"~  c #735E63",
"^  c #6C6165",
"/  c #6E6369",
"(  c #6F6F6D",
")  c #72656B",
"_  c #776768",
"`  c #766A71",
"'  c #7A6D73",
"]  c #7F7E7C",
"[  c #7C7176",
"{  c #5F605E",
"}  c #874F38",
"|  c #855E59",
" . c #8D5846",
".. c #85625D",
"X. c #966557",
"o. c #846461",
"O. c #886B67",
"+. c #956D68",
"@. c #8D726D",
"#. c #99736E",
"$. c #82757C",
"%. c #887677",
"&. c #977875",
"*. c #A47269",
"=. c #A37B76",
"-. c #A57E7A",
";. c #AB7D75",
":. c #B17E76",
">. c #B37864",
",. c #A96E58",
"<. c #9C817C",
"1. c #AB817C",
"2. c #A4827D",
"3. c #B5857C",
"4. c #BD836D",
"5. c #C68975",
"6. c #C98D74",
"7. c #8B7D84",
"8. c #867A81",
"9. c #937E82",
"0. c #8E848A",
"q. c #92858C",
"w. c #9B8586",
"e. c #998B94",
"r. c #9E9E9B",
"t. c #9D9397",
"y. c #AC8B84",
"u. c #AB8D8A",
"i. c #A78784",
"p. c #B38A85",
"a. c #BB8B85",
"s. c #B68B87",
"d. c #AD928D",
"f. c #B3928E",
"g. c #BB928B",
"h. c #A48E93",
"j. c #A2939C",
"k. c #AB9597",
"l. c #B69591",
"z. c #BA9692",
"x. c #BC9A95",
"c. c #BC9D9A",
"v. c #B49A99",
"b. c #AB9BA4",
"n. c #AE9FA8",
"m. c #A697A1",
"M. c #AFA0A9",
"N. c #B3A4AD",
"B. c #BAA7AA",
"V. c #BAABB5",
"C. c #BEAEB8",
"Z. c #B6A7B0",
"A. c #BFBEBA",
"S. c #BFB8B7",
"D. c #BEA09A",
"F. c #C38C85",
"G. c #C3938B",
"H. c #CA958C",
"J. c #CC978B",
"K. c #D49989",
"L. c #C49A95",
"P. c #C79B96",
"I. c #D29C93",
"U. c #D29F98",
"Y. c #DCA38D",
"T. c #C9A39D",
"R. c #D4A49B",
"E. c #DBA69C",
"W. c #DAA597",
"Q. c #E4AB9B",
"!. c #E4B29D",
"~. c #C9A5A2",
"^. c #DCABA4",
"/. c #D6AAA4",
"(. c #D9B2AB",
"). c #C3B4BD",
"_. c #E2ADA3",
"`. c #E5B2A5",
"'. c #E4B3AA",
"]. c #ECB9AC",
"[. c #EBB6A8",
"{. c #ECBCB2",
"}. c #E5BBB3",
"|. c #F1BCB2",
" X c #F4BEAC",
".X c #ECC3B9",
"XX c #F2C3B6",
"oX c #F5CABC",
"OX c #F5C8BB",
"+X c #F6D2BE",
"@X c #F0C6AE",
"#X c #CBBBC5",
"$X c #CEBEC8",
"%X c #C6B7C1",
"&X c #CECECA",
"*X c #CEC5C6",
"=X c #D2C3CC",
"-X c #DACBD5",
";X c #DECFD9",
":X c #D6C7D1",
">X c #DED7D9",
",X c #F6CDC2",
"<X c #F5D3C3",
"1X c #FAD3C4",
"2X c #FADCCC",
"3X c #F8D8C9",
"4X c #E1D2DD",
"5X c #FADED1",
"6X c #EDD7C9",
"7X c #F9E2CE",
"8X c #FBE4D3",
"9X c #FBE9D6",
"0X c #FBECDB",
"qX c #F6E7D6",
"wX c #FBF2DE",
"eX c #E5D6E1",
"rX c #EBDBE5",
"tX c #EADAE3",
"yX c #EEE5E8",
"uX c #F2E4EC",
"iX c #FAEEE3",
"pX c #FCF4E3",
"aX c #FBF6EA",
"sX c #FDFAEC",
"dX c #FBF7E5",
"fX c #FDFCF4",
"gX c #FEFDF9",
"hX c #F6E9F1",
/* pixels */
"#XV.m.7.) K B d 7 4 * X o 4 n P O.E W E 2 . . O w %.<.<.w.u.i.<.%.d.~.[ ^ Q S B b t 7 : + X .       O X                 .   .   ",
"#XC.m.7.` K B i 0 4 * o o # a f W E H F w + O I @.d.d.d.v.d.u.<.<.u.B.$.^ { S B b y 0 : & + .                                   ",
"$XC.b.7.) K C d 0 4 = o X + 4 3 I _ W I x 2 q y.u.D.D.D.c.x.y.i.i.u.M.0.! Q S B b y 0 : & + +                         .   X     ",
"$XV.n.7.` K C d 0 4 = + X X X f @.&.@.@.O.E @.T.x.x.D.T./.P.z.u.l.u.d.e./ Q S C m u 0 5 & X     .                   .           ",
"$XC.n.0.` P C d e 5 = o X   + _ <.<.@.@.@.&.l.~.x.x.x./.(.T.~.P.D.i.i.h.8.` ! K A m f 9 > % X X                               . ",
"$XC.n.q.` L Z n e 4 = + X X w &.<.@.&.@.@.i.c./.T.x.L.^.}.(.<X(.v.<.<.u.u.w.%.&.<.%._ E g d ; X                                 ",
"$XC.n.q.` Q Z n e 4 ; + X & Z <.<.o.@.&.i.i.z././.L.g.P.`.(.8X/.D.2.2.d.x.x.d.d.f.u.i.w._ ^ w O                 .               ",
"$X).n.q.` L Z b e 6 ; + X @ f @.&.i.d.f.f.y.s.^.oXR.E.'.R.6XqXL.x.u.i.f.x.l.l.L.z.u.f.f.@.I V +       o                         ",
"$XC.N.9.` Q C n y 4 = + X 4 T -.v.x.x.x.L.g.G.}.2X3X0XqX.X3X}.g.p.g.f.c.l.f.L./.L.x.L.l.@.H V f 5 .   .                         ",
"$XC.N.e.` Q Z n e 6 - % + > G f.(.(.D.D.R.R.(.}.0X0XdX0X<X^.^.P.s.T.L.L.g.G.R./.R.U.T.f.&.O._ _ _ a X                 X X .     ",
"$XC.M.q.` Q C n e 5 - + o @ a P..XD.d.d./.}.{.5X3X5XdX0X{.W.R.^.L.p.g.g.a.F./.[.^.R.U.s.=.O.o._ _ h +                 . .       ",
"#XC.n.q.` Q C n e 6 - + O O , P..XT.d.d.(..X.X3XOX,XdX0X{.W.Y._.R.F.F.J.H.R.'.{.'.U.I.a.1.+.| U h > .           .           .   ",
"%XV.n.q.' K C n r 5 ; # @ X @ T T.~.v.d.T.(.R.^.E.OX0XsX3X!.W._.[.E.E.[.{.8X0X3X,X'.U.H.F.*.| k q @       . .     .         .   ",
"%XZ.M.7.) S n n 0 5 > Z V , F ..y.D.~.D.i.f.p.3.4.K.{.qX0X].'.oXoX].|.XX|.qXpX9X5X1X|.U.F.;.| F p @ .                           ",
"%XN.b.7.) S n d 0 : f i.&.o.i.T.D.~.D.D.d.u.2.*.,.6.I.<XpX9X7X8X2XXXXXoX8X0XdXwX5X0X1X_.I.a.+.R h , @                           ",
"C.M.m.7.) Z B d e 7 Y d.u.-.f.T.~.T.D.D.d.l.G.:.>.4.K.+XdX9XwXsX0X,X,X1X5XpXdXdXsXsXiX1X_.G.:.+.J O.s .           o             ",
"Z.b.j.8.! B n u n 7 H y.z.&.2.z.l.D.l.x.d.T.g.g.5.6.K.7XdXpXaXsXdX+XoXiXaXaXaXdXsXgXfXiX{./.H.=...h h >             .           ",
"M.m.7.$.Q B n y V > a &.i.=.y.g.T.(./.l.1.f.g.W.Q.[.+X0XsXfXsXfX0X+X2XfXgXaXsXpX8XsXgXaX1X'.I.p.+.J G s + X                     ",
"M.m.7.$.P n n e e 4 , F | 1.L.L.^.,X}.T.g.G.J.E.`.oX7XqXsXgXfXfXiX2XiXfXgXfXaXaXiXdXiX3X,XU.F.*.#.+.T s O                       ",
"b.e.7.$.K S S b 3 f , j v X.G.T.W.'.(..X(.I.I.XX[.3XwXsXdXdX0XsXfXsXaXfXsX0X7XdXgXaX0X1X,X'./.H.9.#.O.h 6 > O                   ",
"Z.9.7.` ` 9.z.&.f , j  .v >.J..X[.`.`.!.Y.Y.Y.XXoXqXsXsX0XwXpXfXfXfX0X9X8X9X8X7XdX0X,XXX]._.H.H.F.=.O.U H n q X                 ",
"n.9.7.8.9.L.c.G.+.k &.H.,.Q.,X0XwX8X+X+X@X@X@X+X0XsXsXsXiXsXfXfXsXgXdXwXqX0XwX8XwXwX7XoX|._.U.G.9.=.+...J G a X           .     ",
"n.9.9.7.9.c.~.L.i.;.L.I.5.@X8XpXfXfXdXwX7X+X+X9XfXfXfXaXpXfXfXiXdXsXsXgXsXwX9XwXwXdXwX2XOX]./.H.:.-.=.+.T F p X                 ",
"N.m.9.9.V.~.~.~.~.L./.Q.Y.XX9XsXfX] >XgXsXpXwX).A.fXgXsXsXfXfXaXgXsXfXgXfXfXA.).sXdXdX2X1X|.^.P.a.-.+.o.U F f @ $ *             ",
"Z.9.m.9.P.c.c.P./.'.}.|.OXqXsXfXfX] >XgXgXdXaX] i A.gXgXfXsXsXgXfXfXr.] >Xr.] A.dXwXqX7XoX[./.G.3.#...G c x x a 3 q >           ",
"%Xn.m.n.N.L.9.P.U.^.{.OX5XdXgX] fXgXgXgXfXdXA.i   ] gXgXgXgXgXgXgXfXi   A.r.A.A.] ] t.qXoX`.I.F.-.#...H x x h V f w *   .       ",
"#XN.n.9.c.9.9.G.P._..X,X9XsXgX  sXgX&XyXfXsXr.1   { &XgXgXgXgXgXgXgXi   A.gXgXr.1   z 0XoX_.J.F.=.#...H x x a V p 6 @ .         ",
"%XC.V.n.9.9.9.9.9._.OXtX7XdXfXi A.gX( &XfXgX>X{     0 A.&XgXgXgXfXfX( z &XgXgXfX]   i dX+XQ.J.F.#.| H F x 3 # + + . .           ",
"=X%XC.b.7.` Q | *.H.'.,XuXhXfXA.  gXgXgXgXfXr.i i 1 & t i gXfXgXA.A.A.A.yXgX>XA.D   i sX,XQ.K.3.+.J J F a M y   5               ",
";X$X).N.7.8.~ U X.E.[.rXiXfXfX    A.yXgXgXfXfXfXfX] i &X( gXfXA.    t b &X&X{ .   1 ( sX2X_.I.:.+.J F h > y 1 9 & X .         . ",
"4X=X%XZ.9.7.` ~ 9.U._.,X8XfXfX      A.gXsXsXfXfXgX] i gXgXfXgX      A.gXgXi       ] gXsX5X_.K.*.O.k s a $ + . y - -           . ",
"4X:X$XC.N.7.8.~ | :._.|.2XpXsX    gXgXgXfXfXfXfXgXgXgXgXgXgXgXgX    A.gXi A.gXgX] 8.gXfX1XQ.J.*.| U T f # 7 & 5 5               ",
"rX;X$X%Xn.e.8._ ~ :.U.|.1X5XiXfXgX    A.gXi ] fXgXfXfXA.i gXfXgX    A.gXgXgXgXgXgXgXgXaX.XE.H.:.+.G G x h z # . * - 1 & . & =   ",
"rXeX:X$XV.h.7.) ~ X.9.E.|.3X0XsXfX        A.fXfXsXfXfXgXfXfXfXfX  fXsXdXaXdXaXsXfXsXpX8X[.I.G.a.#.J F F V x >   o   . & - 1 M - ",
"uXeX:X$XV.j.7.) P J | :.F.].1X8XpXA.0 0.A.{ r.fXfXgXfXfXgXgXfXfXS.fXfXdX9X7X8X0XiX8X3X.X_.I.G.s.*...J G F f $ .       . . . o 5 ",
"uXrX;X$X%Xm.e.` Q G F  .} 5.E.|.+X0X*X{ i r.>XgXfXaXfXgXfXgXgXfXsXfXfXwX7XoXoX1X1X|.`.E.I.H.a.:.=.+.T G a > # . o t 1     . . o ",
"hXrX;X$X).b.e.' Q ~ U c  .F.'._.`.OX9X&XA.yXgXgXfXfXgXsX&X( fXgXfXfXsX0X3XoXOX X[._.E.I.F.p.:.=.+.o...x # 2 A + o & & o = = & o ",
"hXrXeX$X%XN.t.$.! I ~ T s.~.^.I.Y.@X9XsXfXgXgXfXgXgXgXfXA.z gXsXsXdXwX8XOX|.'.'.U.I.P.F.p.=.=.#.o.o.T V 3 9 1 o - & - o - . o = ",
"hXrX;X$X%Xn.j.$.~ Z C U i.P.s.H.Y.!.@XdXsXgXA.] A.hXaXgX>Xr.gXqXsXpX0X2X|.|._.^.G.g.p.-.#.@.O.o.E o.U x > O O 9 . - 5 . & . . o ",
"hXrX4X-X%Xn.j.8.$.Q Z H +.-.-.F. X6.!.7XwXdXA.i ] fXfXgXgXgXfXwXwXwX8X1X|._.^.R.p.p.-.#.O.o.T I G F x V h > # { t 1 D t o . . o ",
"uXeX4X$X#XZ.j.8.8.K P O.F U #.p.R.`.'.XX2X9XsXA.A.sXfXfXfXsXpX9X7X X].OX[.U.I.P.9.9.+.~ Y T T I s a x x f q 2 # = 5 5 o o . o . ",
"uXrX;X$X%XZ.j.7./ Z P @.F o.p.s.g.^.'.}.oX8X8X<X2X7X9X7X7X9X8X1XXXI.I._.I.H.s.~.l.@.~ ~ I P I G q ; w x 3 > ; 5 $ 5 & o & . $ . ",
"uXeX;X$X%XN.j.7./ S K ~ n O.9.-.1.3.3.H.`..X.X[.Y.Q.[.].@XoX+XoX].J.F.a.9.9.9.c.h.~ ~ ~ Y I G n 2 ; s H 3 ; o - o   $ o . . 8 - ",
"uXeX;X$X%XN.m.7.) K K S V H o.+.T v v } X.4.6.6.6.[.[.].[.!.'._.'.I.3.#.=.&.&.v.h.~ Q Q ~ K V f 1 1 y 2 O O . =   1 & .   . . & ",
"uXeXeX$X%XM.m.7.) K C n V f F U T H k l j } } } X.!.E.E.3.4.4.3.I.P.a.=.+.@.&.m.Z.~ Q Q ! Z b e 9 1 ; & X . o . o = =       o   ",
"rXrX;X$X%XM.m.e.` K C n y w f n G F l < l j k l k x.T.G.1.+.J 2.&.p.9.i.O.` 7.j.V.) Q Q ! C d e N 1 - + & X & & o & $ . . o o   ",
"uXeX;X$X%XN.b.q.' Q Z n r 0 q r w , < , < < l < l T.p.g.y.#.c ..#.i.i.l.&._ ~ 7.C.) ! Q Z M d r ^ - 5 8 1 X . - & 8 $ . o 5 =   ",
"rXeX;X$X%XZ.b.t.8.! S n f r d e > = > > < < < < < ..d.l.p.O.s s f T &.@.~ ! ! 8.;X! ! S C B _ 0 t 9 - - 8 & - - o t i o = & .   ",
"uXeX;X$X#X).Z.m.9.` K Z n u b 4 + + + # * 4 + . O > ..y.&.E p 3 2 f L [ ^ ` ! [ ;X` ! S S K B A i 9 5 t - o 5 7 % 5 - . . - i 8 ",
"uXrX4X:X%XV.Z.b.e.' Q S C u n e - 4 w > X . .     @ f w.E a ; z 9 y W [ W Q L / S.8.! S L M C A u z N * - M d M . . . o & 1 o . ",
"uXrXeX:X#X%XC.n.e.$./ Q n b C 7 : 7 $ $ O         + w @.x 1 $ f 9 d d Z K A L / Z.8.! S C M N M 0 5 M 5 & N 8 o o . . & %   .   ",
"uXrXeX-X$X#X%XV.b.7.` Q K n n 0 5 = o o + X . 5   + + w 1 2 y 1 6 d y d M A / Q n.8.D A A Z b b 0 - & u & i M - t . . &   & -   ",
"uXuXeX-X$X$X%X%XN.q.8.! S Z n n 9 & X . % .   o . - = - o t 7 + 6 9 y d N C S Q e.0.L A C B f u 9 5 - 7 % 1 o 7 o . . =   + . - ",
"uXuXrX;X-X:X$X%XZ.e.8./ K n C n 0 - o o %       o 6 & X $ o O $ d 5 e d b M C Q 0.q./ S A m b y d 5 = 1 - 5 % -   o o     = . o ",
"uXuXrX;X-X$X$X#XV.j.7.[ ! B n a 0 - - - 5 .   .   1 +     + + 1 * 7 8 d b M A [ q.7.S S C C A d a y = % N y 8 7 . 1 & . o o - 1 ",
"uXrXrXeX;X:X:X$XC.b.7.8.' S n u 7 - 8 -   . %         X   o 6 + * 6 7 e i M B S q.q.Q / A ' M b b = + t & % 5 =     o o o - 5 & ",
"hXrXrXeX4X-X:X$X%Xn.e.8.) S B u 0 = % 0 X & 1       & : M 4 i e d 0 7 e B M ` L q.j.Q D C S A u y - & o & + = o % t 8 1 y { .   ",
"hXrXrXeX;X4X;X:X%XZ.j.7./ S B n n 4 * * @ % X = *   - M 7 & b - N 5 5 b N A C S ` N./ C B N N e 7 1 = & % + =   8     X 8 %   % ",
"hXrXrXeX4X4X4X:X$XZ.b.8.) K C Q d 4 ; % + 5 5 y 0   = 5 & o = % 4 4 6 i b b M C ` N.` C C M b i 7 4 & - & 8 - o $ . o 1 8 =   . ",
"uXuXrXeX4XeX4X-X$XC.M.7.) Q B b y 4 - + X 7 i d 5 .   % ; 5 7 o & : 6 e i N B C ! Z.' A S B b b n 4 - & o o =   = 7 t o 8 N + o ",
"uXuXrXeX4X4X4X$X$XC.N.7.$.8.B n M 5 - - o o o > 3 1 7 & o - % & & 4 4 t b A ! S / M.8.S A B N M B 4 5 t & o X i 8 t C 1 i i . . ",
"uXrXrXeXeX4X4X:X$X).N.9.[ ` Q n y 7 5 5 + X - f I o 8 * & o X o & 4 e i i ! D Q 0.N.7.D [ Z b M N t d y / t & i ( t 5 = & $ o . ",
"uXrXrXeX4X4X4X-X$X%XZ.j.8./ ` n b 5 4 : 4 %   > f & 5 X = % X X = 7 b b i M C / q.C.q.Q ! C N b N b 7 & B 5 & + y   . - . . . o ",
"uXuXrXrX4X4X;X:X$X).N.9.$./ Q B N 8 0 * 6 = 8 t N   .     o X & - e N b / L B L / C.t.Q S C N u e d u u + 1 b 4   o & t t o   8 "
};
