/* XPM */
static char *result[] = {
/* columns rows colors chars-per-pixel */
"64 64 240 2 ",
"   c #020202",
".  c #090605",
"X  c #0A0708",
"o  c #0C0A0A",
"O  c #0B0807",
"+  c #110D0D",
"@  c #180A08",
"#  c #1B110E",
"$  c #15110E",
"%  c #120F10",
"&  c #151213",
"*  c #1A1515",
"=  c #1D1719",
"-  c #1D1A1B",
";  c #1D1816",
":  c #28130E",
">  c #221D1D",
",  c #2A1D1B",
"<  c #251815",
"1  c #31160D",
"2  c #27211E",
"3  c #35201C",
"4  c #241E20",
"5  c #252223",
"6  c #2A2425",
"7  c #2E2A2B",
"8  c #2C2729",
"9  c #342523",
"0  c #322C2D",
"q  c #3B2D2B",
"w  c #3A2B27",
"e  c #352E31",
"r  c #3A2F31",
"t  c #3B3334",
"y  c #3D3639",
"u  c #3E3B3C",
"i  c #363233",
"p  c #3A302E",
"a  c #4C271A",
"s  c #422E2C",
"d  c #462B27",
"f  c #562D22",
"g  c #44322D",
"h  c #4A322B",
"j  c #433433",
"k  c #423B3D",
"l  c #493837",
"z  c #553D39",
"x  c #51332C",
"c  c #6B3B2B",
"v  c #451C10",
"b  c #5B423E",
"n  c #53413E",
"m  c #49423A",
"M  c #704539",
"N  c #453E41",
"B  c #4A3F42",
"V  c #4A4244",
"C  c #4D4649",
"Z  c #474344",
"A  c #534443",
"S  c #51474A",
"D  c #534A4D",
"F  c #5B4745",
"G  c #564D51",
"H  c #5A4E54",
"J  c #5B5255",
"K  c #5E545A",
"L  c #5B5859",
"P  c #5F504B",
"I  c #634B45",
"U  c #644C49",
"Y  c #674A46",
"T  c #69504D",
"R  c #74534C",
"E  c #635353",
"W  c #6B5552",
"Q  c #61565B",
"!  c #62595D",
"~  c #6B5B5C",
"^  c #6D5955",
"/  c #735956",
"(  c #775B57",
")  c #744E42",
"_  c #7D615D",
"`  c #75615E",
"'  c #665C61",
"]  c #695E64",
"[  c #735F62",
"{  c #6C6165",
"}  c #6D6269",
"|  c #6B6868",
" . c #726265",
".. c #7C6563",
"X. c #72656C",
"o. c #75696E",
"O. c #7D696A",
"+. c #7A6D74",
"@. c #766B71",
"#. c #7F7F7C",
"$. c #7E7378",
"%. c #804838",
"&. c #8D5C4E",
"*. c #84625D",
"=. c #99685B",
"-. c #A9705E",
";. c #846662",
":. c #836964",
">. c #8C6A64",
",. c #876C69",
"<. c #966D66",
"1. c #89716C",
"2. c #94726C",
"3. c #9A736B",
"4. c #82757C",
"5. c #8B7576",
"6. c #937A75",
"7. c #9B7B75",
"8. c #977876",
"9. c #806D73",
"0. c #A7756B",
"q. c #A47A74",
"w. c #AD7C73",
"e. c #A57D79",
"r. c #B37E75",
"t. c #A16E64",
"y. c #9B817D",
"u. c #80807B",
"i. c #A6837D",
"p. c #B8857B",
"a. c #BF856D",
"s. c #C48A7A",
"d. c #CA8E75",
"f. c #877981",
"g. c #8B7C84",
"h. c #8D7F88",
"j. c #8E8189",
"k. c #8F888A",
"l. c #92848C",
"z. c #9B8686",
"x. c #9B8C94",
"c. c #968790",
"v. c #9F9E9C",
"b. c #9F9297",
"n. c #A38582",
"m. c #A48A85",
"M. c #AC8B85",
"N. c #AB8D8A",
"B. c #AA8583",
"V. c #B38B85",
"C. c #BB8B85",
"Z. c #BB8E8A",
"A. c #B28C87",
"S. c #AD918B",
"D. c #B3928C",
"F. c #BC928D",
"G. c #A3949C",
"H. c #AB9597",
"J. c #BB9A95",
"K. c #B89693",
"L. c #A48D92",
"P. c #AA9BA4",
"I. c #A899A3",
"U. c #B79EA0",
"Y. c #B2A3AD",
"T. c #B3A3A9",
"R. c #B5A6B0",
"E. c #BAABB4",
"W. c #BBACB6",
"Q. c #BEBEBB",
"!. c #BEB8B8",
"~. c #C28D84",
"^. c #C3938C",
"/. c #CA9387",
"(. c #C39A95",
"). c #CC9B93",
"_. c #C69D98",
"`. c #D29D94",
"'. c #D69F95",
"]. c #D69989",
"[. c #CCA29C",
"{. c #C3A29D",
"}. c #D4A39C",
"|. c #DBA59B",
" X c #DAA599",
".X c #DAA08E",
"XX c #E3A99A",
"oX c #DBACA3",
"OX c #D3AAA4",
"+X c #DEB3AC",
"@X c #C2B3BC",
"#X c #C9A6A3",
"$X c #E3ADA4",
"%X c #EAAEA2",
"&X c #E5B1A5",
"*X c #EAB5AA",
"=X c #E9B6A9",
"-X c #EBBCB3",
";X c #E3B8B1",
":X c #F1BDB0",
">X c #EDC2B5",
",X c #EEC9BB",
"<X c #F2C3B5",
"1X c #F3C6BB",
"2X c #F5CCBC",
"3X c #F8CCBB",
"4X c #F4CEB8",
"5X c #C6B7C1",
"6X c #C9BAC4",
"7X c #CEBFC9",
"8X c #C7B8C2",
"9X c #CECDCA",
"0X c #D2C2CC",
"qX c #DACBD4",
"wX c #DECED8",
"eX c #D6C7D0",
"rX c #DEDBD8",
"tX c #F7CDC2",
"yX c #F9D4C4",
"uX c #FADCCA",
"iX c #F7D8C7",
"pX c #E2D3DD",
"aX c #E8C9C0",
"sX c #FAE1CE",
"dX c #FBE4D3",
"fX c #FBEAD5",
"gX c #FBECDA",
"hX c #F5EBDA",
"jX c #FCF2DD",
"kX c #F7F1DF",
"lX c #EADBE5",
"zX c #EADAE4",
"xX c #EEEDE9",
"cX c #F7EAE4",
"vX c #FCF5E3",
"bX c #FCF9E6",
"nX c #FBF6EA",
"mX c #FDFBEC",
"MX c #FDFDF4",
"NX c #FEFDF9",
/* pixels */
"x.4.X.K C t 7 4 o X X   X = j E ^ P n W ,   O < l 6.6.6.z.m.z.6.1.m.@X5.{ ' K G B t 7 4 % o X   .   O .                     .   ",
"x.4.X.K C y 7 4 % o X     o 2 2 F E m m 2 o ; 5.5.m.m.m.N.m.y.6.g.m.T.g.{ ' K S Z t 7 4 * o                                     ",
"G.4.X.Q C y 0 > % o X .   . # 2 F ^ P F g < l m.y.S.S.S.D.N.n.8.i.z.H.c.} ' K G Z t 0 4 * o X                         .         ",
"b.4.o.K D y 7 4 % o X   . . O A ` O.` ..W F _ D.m.N.N.K.(.D.M.i.N.z.z.z.X.' K G B k 0 4 * X     .                               ",
"G.f.X.Q S y e 4 & o .     . , ^ _ 1...../ ..n.J.M.S.D.{.[.[.J.K.S.y.6.m.5.@.' Q J B k t 5 & . O                               . ",
"G.f.o.Q D k r 4 & o X .   & A 1.:.` :.O.:.7.A.(.F.D.A.^.OX;X+X[.H.6.z.N.m.6.5.6.5.O.[ ..A k - o                                 ",
"I.g.O.' G k e 5 & o . . . > ~ ..:.^ _ 1.6.y.M._.[.D.C.F.[.-X;X_.K.y.y.N.K.m.y.n.7.6.6.6.` E p O                 .               ",
"I.h.o.! D k 0 4 & o . . . + l ..6.m.m.M.M.i.V.[.>X}.+X>X=XiXaXK.D.D.N.D.D.M.B.D.D.n.m.m...n j $       o                         ",
"I.h.@.' S N e 6 = o X   . < A ;.D.K.S.K.F.F.F.oXuXyXdXdX,X,X+XZ.B.{.D.K.A.A.F.(.^.A.J.n.:.U n 0 8 &   .                         ",
"I.h.@.Q D N e 8 = o o   X = U B.{.J.S.D.{.[.|.>XsXiXjXdX,X}.+X[.^.C.A.C.V.Z._.OX_.^.Z.B.1._ ~ W ~ j +                 . o       ",
"P.h.+.' G N e 4 = o X X . O l J.#XD.M.D.OX-X,XyX1X,XgXgX&X). X-X}.V.C.^.C.Z.).oX'.~.C.e.2.( ( ( W t o                   .       ",
"Y.h.@.' S N t 8 * o X .   . 3 J.OXJ.S.M.OX>XOX>XaXtXkXvX>X]..X&XoX}.'.).}.oX|.&XOX~.V.q.2.*.T B w # .                       .   ",
"I.h.4.' S N e 4 * o O O .   + T K.{.D.S.D.{.Z.).|.,XcXmXgXXX.X=X-X$X&X1XtXsXdXtX-X'.~.w.q.*.M h 2 .         .     .             ",
"I.h.+.Q S k e 4 * + , P t : s I 7.J.U.J.i.p.i.r.s.].-XvXmX4X&X<XtX*X:XyXiXvXjXdXtX*X`.p.w.=.Y z 1 @ .                           ",
"I.h.+.Q S N e 6 * % m z.;.T ,.S.S.J.J.{.S.S.q.0.s.].XXsXmXjXuXdXuX:X*XyXgXjXvXgXsXtX$X/.w.<.&.I d , # .                         ",
"I.h.+.Q C N e 4 = < ^ i.2.,.7.J.{.J.{.{.D.[.OXs.d.].XXuXbXvXdXjXgX*X%X<XdXbXmXmXvXdXtX$X~.r.<.( b g 3 .           . .           ",
"I.h.+.Q S j e 4 = 4 Y 8.7.,.8.M.S._.J.(.{.+X[.`..X.X=XgXjXbXvXjXjX<X:XiXbXmXmXmXmXmXcX1X'.(.Z.<.I z b 3                         ",
"G.h.@.Q S N e 4 < # 3 ;.1.<.2.M.J.;X+X[.^.^.}.>XiX2XfXbXbXbXbXMXjX2XiXmXNXNXMXMXMXmXnXtX*X}.F.q.( Y T j O                       ",
"G.h.+.Q B B r 4 = @ : I ( q.M.F.OX1X;XOX).}.$X3XdXfXbXmXmXmXMXMXbXdXvXMXNXMXMXMXMXmXgX-X$X'.^.e.>.( U g .   .                   ",
"G.h.+.Q H X. .B < @ : a c &.p.).oX-X-X,X=XXX=XyXyXbXmXNXMXMXMXMXMXmXbXmXmXmXmXbXMXjXdX-X*X}.^.Z.7.( / g < $ .                   ",
"G.h.+.Q 9.h.h.<.s : a c %.&./.-X&X-X3X<X&X&X<XsXhXmXMXMXmXmXMXMXMXMXmXjXjXbXjXfXbXdX3X=X|.'.^.~.e.2.;.I z z 9 o                 ",
"I.h.9.] g.A.A.0.R x >.w.&.s.=XgXgXgXgXdX4X4X3X3XnXNXNXmXbXMXMXMXMXMXMXMXmXvXjXjXfXfXyX:X'.'.Z.h.q.2.>.( U b j o                 ",
"L.h.9.[ h.K.D.h.>.;.q.p.-..X3XgXmXMXMXMXhXfXjXjXMXNXMXnXbXNXMXnXmXNXNXG.rXnXgXfXfXsXiX<X$X^.C.e.7.Y Y ( U b q .                 ",
"b.h.9.5.A.^.~.h.J.A.^..Xd.%XuXbXNXNXNXv.rXMXMXMXNXNXNXmXMXNXMXMXNXMXNXN Q.v.Q.mXsXdXdXtX*X).r.3.2.R T / I z h + $ < .           ",
"x.g.9.5.m.h.B.n.K.(._.$X-XyXvXMXNXNXNXv.rXNXNXNXNXQ.v.MXbXkXkXMXMXNXMXu Q.u Z Q.MXvXvXyX-X).C.e.3.*.R z m x g w < 2 #           ",
"x.f.9.5.z.5.2.3.A.F._.;XtXdXvXMXNXNXNXNXNXNXNXMXMXQ.v.NXrXv.MXMXMXMXv.5 Q.v.u u u.Q.bXyX&X`.r.q.>._ T n h w d g q 9 $ .         ",
"x.f.4.9.5.,.,.7.h.F.}.+XtXdXbXMXMXNXNXNXNXNXmXrXQ.rXNXNXQ.i Q.NXNXNXu   k.xXv.Z 4 #.nXiX*X/.w.e.*.*.R b d w w w 3 < +           ",
"G.g.9.X.~ ~ / ;.q.A.).$X2XdXvXMXQ.MXmXNXNXNXMX#.  #.xXQ.k.& u NXNXNXu   7 9XNXNXv.v.mXuX&X~.w.0.*.T b m d # o . . . .           ",
"G.h.+.' G l l B ( w.^.*XtXdXmXMXu Q.Q.xXNXnXMXv.- L k.  % | NXNXNXNXu   Q.NXNXMXnXNXmXuXXX/.r.<.R b b l w - .                   ",
"P.l.$.] J B l s Y i.).$X1XdXmXNXNX  e 9XNXvXMXrX'       N NXNXQ.Q.Q.0 7 9X9XQ.rXnXnXhXtXXX~.0.&.R b z s * *   % X               ",
"R.c.f.X.Q B l l ( q.C.oX1XdXbXNXMX  Q.NXMXvXMX#.        u NXNX        Q.NXu   #.NXNXbXyXXXp.t.R Y h d 9 < ; . y -               ",
"E.G.h.@.Q D B l U >.V.OX-XyXgXMXnXNXNXNXNXMXMXNXNXu.u NXNXNXNXNX            #.NXu.4.mX3X'.p.3.&.b z s < 2 8 .                   ",
"@XP.x.f.] H B j x >.N.^.|.1XdXmXMX    Q.NXNXNXNXMXNXNXQ.u NXNXNXMX  @XNXNXMXMXvXnXMXcX*X/.r.t.>.*.B x x j A 4   4         X .   ",
"6XR.P.h.X.K G N t b >.p.}.3XuXgXmXMXu   Q.NXMXNXNXNXNXNXNXMXnXNXNXMXMXNXbXfXgXgXdXtX:X`.p.0.0.q._ F z z b ^ A X 5               ",
"7XW.P.c.+.Q H B j h b =.p.$X<XyXsXmX9XQ.xXNXNXNXNXNXNXNXNXNXMXNXNXNXNXmXvXsXsXyX1X:XXX/.r.0.q.8.*.( T W F z 0 > 4 - X           ",
"7X5XY.x.4.] Q B k q a f &.-.s.XX<XsXkXMXxXMXNXNXNXNXNXNXNX9Xu NXNXNXMXbXfXyX3X1X*XXX'.~.r.e.3.2.;.( / b w , & 8 5               ",
"7X5XR.G.h.} ' G j r d f M -.~.`. X%X4XbXmX| v.NXNXMXNXNX9X! Q.NXMXmXmXgXuX3X:X&XXX'./.p.q.2.>.;.*./ / z @ + . + o X .     o 5   ",
"qX6X@XI.h.@.Q B N r d B 2.V.^.p.d.XX4XbXmX9XrXNXMXMXMXNXQ.m NXNXMXbXgXsX<X:X$X|././.h.r.2.>.>.*.*.U / B < @     & & - 5 & & Z 5 ",
"7X7X@XP.h.9.} B N y j B 3.B.w.w.a./.<XfXbXmXNXNXnXMXMXMXrXv.NXmXmXjXuX2X:X-X+X_.p.h.h.2.;.;.( ( T Y b h @ . . X - .   % 4 X   5 ",
"wX7X5XY.x.4.} H N r j x b ,.2.<.~.a. X>XsXjXnXxXMXMXNXNXMXMXmXjXfXiXtX*X$XOX`.OXh.e.q.,.( / / U B z h s w 8 F X 5 7 5 X         ",
"wX7X6XY.x.4.] H B t B U g F ,.>.V.^.). X<XyXjXmXjXkXvXbXjXjXfXsX3XXX&X&X'.C.Z.#XB.2.9./ ~ / W U h q p g w 9 E O O ; - + 5 O   o ",
"zX7X6XR.G.f.} K D B B / g W 8.2.i.^.C.).=X<X<X=X%X<X4X4X4XyXyX1X=Xs./.^.~.h.h._.H.O.[ ' E E T F j 2 2 w 2 2 $ - 5 % 5 . + - - & ",
"pX7X7XR.G.f.} K D Q E B s W 1.;.>.2.t.w.s.$X&X/.d..X=X X&X&X-X=X$Xr.w.q.2.7.h.H.G.[ ] ' ~ E E l m > ; w 2 < - Z - & 8     O O o ",
"pX7X6XR.G.f.X.' G k D j 0 l F Y b R ) M M -.0.-.-. X$X|././.}.p.).Z.3.*.2.2.3.L.G.[ ~ Q W H S 0 8 * + ; O + - 2 5 o - O .   .   ",
"pX7X5XR.G.f.X.K Q k 0 6 3 3 l b b b a v c c c c %.V.(.^.w.0.<.3.B.V.e.5.,. .[ x.T.] ' Q G A N y 5 = + o   o   % % & | 5 O   .   ",
"pX7X5XR.G.h.X.K ! B r 9 2 < p m b d 1 : 1 f v v f B.C.i.*.*.M *.;.e.e.e.O. .X.l.@X} ' Q G B N t 6 = + o 5 o   & X - u 5 5 % o   ",
"pX7X5XR.I.h.@.Q H k i 5 & o $ 2 9 ; @ @ @ 3 a 1 f N.i.e.2._ x F ( 8.8.h.5. .] f.@X] ' Q G V N i 5 * + o o X X * .     o % o o - ",
"pX7X5XR.I.h.+.Q D k i 5 2 2 O O + o . O @ @ @ : : I 1.7.;.U h j l E O.1.( ] } 4.qX} Q Q } G u e 5 = > m & .   + o o & . .   - 8 ",
"wX7X6XW.I.x.f.} B B t 8 e % o X & %   .   0 7 O . : P S.7.T q 0 5 t j C E { o.o.qX+.' K { G V i 0 > l j % .   X X 7 &           ",
"wX7X5X@XR.h.f.X.Q B N e 4 = % &   X o % O o o   O @ q 6.U j , , > e y J ! Q X.X.R.f.' K G V k 0 ! 6 5 o - o % o % o & X . X &   ",
"pX7X7X5XY.x.g.X.' B N r 4 > 4 = . . % - o .   . O   p 9.^ 9 # > > 8 C ' S J ' ] v.j.' J S C u e N 4 8 5 & X & - % * % o   5 & o ",
"pX7X6X5XR.I.h.@.} G N r 8 4 e % o   O $ & &       . 2 g , @ O + > 8 V V Z J L ! x.j.L G D G D D y e ; 2 4 * 0 - % o o X o &     ",
"pXqX7X7X5XI.x.f.X.G B N e 4 9 & & - 7 - X % *     . & * . o $ - = 8 k k Z G G K k.j.L G G V A A 6 6 > > y - - - & 5 8 & o O     ",
"pXwX7X7X5XY.I.h.} K B B r 4 B 4 $ 5 $ .   . o     $ o X . * + 6 > y k ] C V C J h.+.H D S k Q k 5 5 G t - C i o o i u - -   o - ",
"zXpX7X7X5XW.Y.h.X.K B B j 4 t 8 o o X o o .   *   X   o + ; O 0 * e J o.u V C G j.@.J D C B t Z y 8 H y % i Z o 8 & - o & & u i ",
"zXpXwX7X5X@XI.x.+.Q H D N e 4 < i %   o o .   o   ; & . 5 u 2 2 = 4 7 t u C K J j.f.K D D N y i 0 k > 8 - 8 8 Z i o o i   - & o ",
"zXpXwXeX6X@XY.I.f.' K D N 8 4 0 & . .       % * % 7 - o o o u % * 4 6 0 u Z C D j.b.{ G D L N i 7 2 - & o O   8   . . . .       ",
"lXzXpXeX7X@XR.I.f.] K B t 8 4 4 - + * o   X     . .   - . o o o = 4 7 i y N D G $.R.@.J D Z u e y - * * - -   5 .         - %   ",
"lXlXpXqX7X@XR.I.h.X.K G B 0 4 4 % o & * o . X X         . . - X y - 8 0 i N C G @.E.@.L D Z k e u i - 0 i * 5 5   ; -     * - o ",
"lXlXzXwX7X5XW.I.h.@.Q G N r 8 4 o . . o - X &     .   . - & i 4 Z 5 5 e Z Z C X.' R.4.} K D V k N 4 - 7 & 5 u &   . .   . - 8 % ",
"lXlXzXpX7X6X@XP.c.+.' ' B y e = & O $ & 5   % . X & o o * % - 4 G 4 5 e C G D @.' P.h.J Q @.G N y 4 ; & & % % & . X o & 5 G %   ",
"xXlXzXpXeX6X@XR.x.4.@.} G N e B 7 o > &   o X o .   % % 7 % % - = 8 8 i Z Z J L { P.j.K J K H C e 5 - % & - 5 o - 7 5 & i Z   X ",
"lXzXzXwX7X7X@XR.x.f.4.] H N e y & o O o   5 - 5 -   o % 5 * & o % e 8 i u Z G K { Y.k.K Q J J Z e 5 - * 8 7 8   5 X X * 5 % O O ",
"xXzXzXwXeX7X5XY.G.f.} ' H y 8 4 - o * y O - & 7 %   X u * & 6 & $ - 6 N k C $.' ] W.G.! L J J N t 6 - - * o * .   5 5 5 i | & X "
};
