/* XPM */
static char *result[] = {
/* columns rows colors chars-per-pixel */
"64 64 231 2 ",
"   c #020101",
".  c #090606",
"X  c #0C0807",
"o  c #0A0708",
"O  c #0C0A0A",
"+  c #070808",
"@  c #120D0D",
"#  c #1A0C09",
"$  c #15100F",
"%  c #1C120F",
"&  c #130F10",
"*  c #151212",
"=  c #1A1414",
"-  c #1C1718",
";  c #1D1A1A",
":  c #1E1917",
">  c #211614",
",  c #231916",
"<  c #221C1D",
"1  c #2A1E1B",
"2  c #2B1A15",
"3  c #391D16",
"4  c #2A100A",
"5  c #23201F",
"6  c #2D211D",
"7  c #36231E",
"8  c #241E21",
"9  c #252223",
"0  c #2B2425",
"q  c #2D2629",
"w  c #2D292A",
"e  c #332522",
"r  c #3A2623",
"t  c #3B2A25",
"y  c #322C2D",
"u  c #3B2C2A",
"i  c #332827",
"p  c #352E31",
"a  c #382F33",
"s  c #363133",
"d  c #3B3335",
"f  c #3D3639",
"g  c #3E3B3C",
"h  c #3B312E",
"j  c #441C0F",
"k  c #4B2518",
"l  c #412B26",
"z  c #45322D",
"x  c #49342E",
"c  c #443432",
"v  c #4A3633",
"b  c #4B3934",
"n  c #423C3D",
"m  c #4B3E3B",
"M  c #423838",
"N  c #533B38",
"B  c #5D3225",
"V  c #693727",
"C  c #4B403D",
"Z  c #54413D",
"A  c #5C423E",
"S  c #68453B",
"D  c #453D41",
"F  c #493E42",
"G  c #4B4245",
"H  c #4E4649",
"J  c #494446",
"K  c #534442",
"L  c #5B4542",
"P  c #52464A",
"I  c #534A4E",
"U  c #5B4A48",
"Y  c #564D51",
"T  c #594E52",
"R  c #5C5256",
"E  c #5E5359",
"W  c #5D5B5B",
"Q  c #5B524B",
"!  c #644A45",
"~  c #644D4A",
"^  c #6B4E4A",
"/  c #64514E",
"(  c #6B514D",
")  c #73524C",
"_  c #655353",
"`  c #6B5552",
"'  c #61565B",
"]  c #645A5D",
"[  c #6B5B5B",
"{  c #6D5A56",
"}  c #745955",
"|  c #745C5B",
" . c #7C5D5B",
".. c #775853",
"X. c #7C615E",
"o. c #73635E",
"O. c #665B62",
"+. c #6A5E63",
"@. c #695B65",
"#. c #6C6166",
"$. c #6E6369",
"%. c #6F6F6C",
"&. c #7D6563",
"*. c #72656C",
"=. c #766567",
"-. c #786C72",
";. c #7F7E7D",
":. c #7C7278",
">. c #88513E",
",. c #845F58",
"<. c #89594A",
"1. c #82625E",
"2. c #8B635C",
"3. c #976559",
"4. c #846562",
"5. c #826966",
"6. c #836C6B",
"7. c #8B6D6A",
"8. c #8B6A64",
"9. c #946C66",
"0. c #8B716E",
"q. c #87706D",
"w. c #96716D",
"e. c #8D7372",
"r. c #83757A",
"t. c #927472",
"y. c #937976",
"u. c #957C7A",
"i. c #9B7D7A",
"p. c #9B7875",
"a. c #846F71",
"s. c #A6746B",
"d. c #A37A75",
"f. c #A57D79",
"g. c #A87B75",
"h. c #B17D76",
"j. c #B27767",
"k. c #AF715C",
"l. c #9C817D",
"z. c #95807F",
"x. c #A3827E",
"c. c #AC827B",
"v. c #B3847D",
"b. c #BA8477",
"n. c #C68B7B",
"m. c #CC8D77",
"M. c #8B7D84",
"N. c #8B7E87",
"B. c #8E8388",
"V. c #93848C",
"C. c #9A878B",
"Z. c #9A8D95",
"A. c #9F9E9C",
"S. c #9F9199",
"D. c #A48582",
"F. c #AB8682",
"G. c #AB8A85",
"H. c #A88B87",
"J. c #B48B85",
"K. c #BC8C85",
"L. c #B38E89",
"P. c #B88A86",
"I. c #B7938D",
"U. c #A5949C",
"Y. c #B99893",
"T. c #A99091",
"R. c #AB9CA4",
"E. c #AA9CA6",
"W. c #B79FA3",
"Q. c #B3A4AD",
"!. c #BAABB4",
"~. c #BFBDBB",
"^. c #BFB5B8",
"/. c #ADA1A8",
"(. c #C38E82",
"). c #C4948C",
"_. c #CB968A",
"`. c #D39989",
"'. c #CC9B94",
"]. c #C49A94",
"[. c #D39D93",
"{. c #DA9D93",
"}. c #CBA29B",
"|. c #D8A499",
" X c #E3AB9B",
".X c #DCACA4",
"XX c #D8AAA5",
"oX c #C3B3BE",
"OX c #CBACAB",
"+X c #E2AEA5",
"@X c #E4AFA8",
"#X c #E4B4AC",
"$X c #ECBBAD",
"%X c #E9B4A8",
"&X c #E9BBB3",
"*X c #F1BEB3",
"=X c #F0BCAA",
"-X c #EEC4B9",
";X c #F3C3B5",
":X c #F4C6BB",
">X c #F4CCBD",
",X c #F6C8B7",
"<X c #F5D5B9",
"1X c #CABBC4",
"2X c #C9BAC4",
"3X c #CECDCB",
"4X c #CFC0C9",
"5X c #D2C3CC",
"6X c #D9CAD4",
"7X c #DEDDDA",
"8X c #F9CDC1",
"9X c #FAD3C4",
"0X c #FADCCC",
"qX c #F6D6C6",
"wX c #E9D3D2",
"eX c #F8E2CD",
"rX c #FCE4D2",
"tX c #FBE9D6",
"yX c #FCECDA",
"uX c #F6ECD9",
"iX c #FDF2DD",
"pX c #E4D4E1",
"aX c #EEEDE9",
"sX c #FCF4E3",
"dX c #FDF9E5",
"fX c #FCF6EA",
"gX c #FDFBEC",
"hX c #F7F3E3",
"jX c #FDFCF4",
"kX c #FEFDFA",
"lX c #FCEFE1",
/* pixels */
"E I M y 8 & O . .         & i F C Z z C $ . O i G e.&.q.u.u.e.a.e.B.OXB.$.O.E Y G d y 8 & o . .     .                   .   .   ",
"E H M y 8 & o .   .     . o % = h b z u > X i 6.6.p.y.y.z.p.e.q.0.u.U.B.+.O.E Y F d q 8 = o       .                             ",
"E P n y 8 = O o . .       . o 1 C U Z b 7 % Z e.0.l.z.l.D.l.y.q.y.u.Z.C.@.O.E Y G d w 5 = o                                     ",
"' P n y 8 * @ .     .     . @ m Q _ Q / C b ` u.0.y.y.x.G.x.i.p.z.u.y.C.*.O.E I G f y 0 = o                                     ",
"' P n p 8 % O o .   .     . 0 ~ / _ / / Z / 0.l.t.p.t.G.L.L.G.H.D.t.y.C.a.$.' ' I n M M q * X o                                 ",
"' H n p 8 = @ . .         = K { _ Z / { o.6.l.x.x.x.x.F.I.Y.].Y.Y.C.u.D.u.a.&.e.=.{ [ [ Z M <                                   ",
"' P D a 8 - @ .           6 K Q { U ` X.q.0.l.v.Y.L.L.I.Y.}.}.L.Y.H.i.H.D.i.u.u.&.X.&.6._ C 0 .                                 ",
"E P F a 0 = @ . . .       O h / q.l.l.l.l.l.l.I..X.X#X-X.X&XOXJ.F.H.G.I.H.l.l.l.l.y.z.y.{ c 0 @                                 ",
"@.I F d 8 > & o .         ; C ( x.T.x.x.H.I.v.|.*X8X0XqX#X-X#XI.J.L.J.J.F.f.F.J.D.i.D.y.{ U M q 0 % .                           ",
"' P F d 8 > & o . X .   . $ Z 0.T.x.H.I.].}.}.#X8X8XyX0X&X#X+XXX}.F.f.J.F.J.I.].J.f.f.t.X.` ~ U U d O                           ",
"@.F F d y 8 & O . .     . O m x.H.x.x.Y..X-X-X>X&X&XtXtX>X#X|.#X.X).).).P.K.).'.J.f.p.w.1.` ~ ! C i O                           ",
"@.T F M 8 - & O .   .     . u D.H.I.T.Y.}.&X]..X&X8XhXgXuX-X|.#X#XXX.X#X@X.XXX|.].h.d.8.4.) F v , $ .                           ",
"@.T F d 0 8 & o o     +   . # N l.L.H.Y.I.).J.b.'.$XlXkXjX-X|.-X8X#X;XqX0X9X9X-X+XK.g.9.4.) v r > .               .             ",
"@.T F d 0 < & o . . , K u @ e N q.x.Y.Y.c.F.J.b._.+XqXfXgXeX-X<X0X:X*X8XqX0XeX0X*X'.h.s.2...N r 2 X .                           ",
"@.T F M q 8 = o + . b q./ v ` i.z.H.W.}.I.Y.J.n.`.%X>XyXiXeXeXtXyX;X%X9XyXtXyXrX8X+X(.s.9...S v r > $ .                         ",
"@.T F M 0 ; = O . * U 7. .( &.H.Y.Y.].}.Y.qX8X X X=X,XyXuXqXiXeXyX=X X=XlXfXgXdX0X@X{.h.s.8.1.! v r 2 .                         ",
"*.T F D q > & O X > v } X.} 5.l.G.Y.].XX#X-X#X>X>X<XqXiXeX<XdXuXiX;X%X<XsXgXgXgXlX9X@X_.M.h.g.| b t N i X                       ",
"$.T F d q < = o X X 2 ^ ..} X.f.I.#XXX|.|.#X<XdXsXhXgXjXiXeXhXdXdX9X0XgXjXjXjXgXfX0X*X{.`.(.M.1.A Z Z z X                       ",
"$.T F a i e 8 o X X # N ! 1.d.c.].-X#X+X+X%X0XhXdXgXjXkXgXgXgXgXgXtXsXjXjXjXjXgXfX0X*X{.(.h.d.4.( ! N r .                       ",
"$.T F D F @._ e . # # 3 B <.h.K.|.:X>X>X;X;XqXiXhXgXjXkXkXjXkXkXjXjXjXgXjXgXdXdXlX9X*X X{.M.d.9.X.) A t # @ . .                 ",
"=.T F F &.a.&.F 2 # l B V >.b.#X$X>XeXqX;X;X<XiXgXkXkXkXjXjXkXkXjXjXjXgXhXhXgXiXyX>X%X{.(.b.s.w.4.} ~ N z a 0 @                 ",
"$.T F F a.t.t...b l ^ 3.>.j.`.0XtXyXgXfXyXtXtXdXgXkXkXkXkXkXkXkXkXkXkXkXjXjXgXdXrX9X*X|.{.M.g.9.4. .( ! N v u o                 ",
"*.I F T 6.y.t. .| ( ..2.3.m.+X0XgXjXkXjXjXgXgXjX~.~.kXkXkXjXkXkXkXkXA.z.7XkXgXdXyXqX*X X{.K.d.w.4...( ! L v r o                 ",
"*.F F *.e.e.7.7.i.9.d.v.b.{.:XyXjXkXA.;.7XA.;.~.;.;.kXkXkXkXkXkXkXkXA.; W ;.z.oXsXrX:X$X{.N.d.9.4.` ! L N v r O @ 1 X           ",
"*.T F =.a.4.&.&.y.w.f.].|.*XrXgXjXkXU.5 W ;.;.~.~.;.A.kXkXkXkXkXkXkXkXg       n ~.iXeX$X'.v.s.8.1.( A x u l r 1 % > X .         ",
"@.I F | =.~ ( | 7.w.M.].#X:XrXgXkX;.;.5   ~.kXkXkX;.9 ;.;.;.;.;.;.kXA.5   W n   z.gXeX#X_.h.9.,. .) A x r 6 6 e 1 2 @           ",
"@.T F ` ` ~ `  . .w.n.(.+X>XrXgX~.g g n g 3XkXkXkX;.& g y         kXn   w 3XA.n U.gX0X%X_.s.,.,.) ..} z 7 e , 2 % > @ .         ",
"@.E F F M m v F | 8.g.].@X9XtXgX  kXkXkXkXkXkXkXkXA.%.kX3Xy   g g kXg   B.aXjXkXjXfX0X%X(.s.,. .! N x t 1 @ . . . .             ",
"$.T F c q 8 > 2 F ,.g.'.+X8XtXgXn kX3X~.aXkXkX7X~.7XkXjXkX3Xn kXkXkX%.*   ~.kXgXuXtXqX Xn.3.2.^ N x t r 1 . .                   ",
"@.T F a 8 - = = N 8.D.P.|.*XeXgXkXjX%.g 3XkXkXA.g ;.3XkXjXaXgXkX~.kXkXn   ~.kXkXgXsX9X[.b.s.8.! N z 6 6 X . .                   ",
"*.T F D y 8 > v N ) M.P.'.$X0XjXkXjXjXkXkXkXkXkXkX;.g kXgXhXhXkX  kXjXn   ~.kXjXgXiX>X_.j.9.9.6.b 7 6 % . .                     ",
"*.E T D p 8 8 8 l 4.g.(.'.%X9XfXkXkXjXkXkXkXkXkXkX;.J kX~.g kXkX        ~.jXjXdXiXeX%Xn.s.2...X.z x r % @ = *                   ",
"-.O.T F d 0 < = > ( w.J.(.|.:XeXdXhXfXM ~.jXkXkXkXkX~.    g kXkXkX    ~.gXiXuXrX8X%X{.h.9.2.) ^ L z r r r M : .                 ",
"M.+.E I D q < - # 7 ! 2.c.'.;X,X0XiXgXg ~.iXkX;.;.kX~.  n kXkXkXkXjXkXgXfXrX9X;X+X[.(.s.9.,. . .^ N z c b b * .                 ",
"M.*.] I D a 0 > % 4 7 S <.b.[. X$XrXfX3XaXhXkX;.9 g w   D kXkXn kXjXjXgXlX9X>X*X|.'.P.s.1.,. .1.^ ! F N N M $ ; O               ",
"V.:.+.T D a 0 < = # 4 3 k >.3.n.{.;XqXfXjXhXkX;.W W p ~.3X3Xn   jXjXjXsXrX:X$X@X'.P.h.w.1.1. . .) ^ A x u i . ; *               ",
"U.M.*.E H f w 8 0 # # 7 S 2.3.j.b.m.%XtXgXjXjX7X7X7X3XkXkXaX~.oXjXdXfXtX9X*X+X|._.M.b.9.1. .| ..} ~ F x # >     *         . o   ",
"E.V.r.O.P M p 0 1 , n [ e.x.8.<.k.m.%XtXdXgXjXkXkXkXkXkXkXjXjXgXdXiXrX8X*X+XXX}.M.d.s.1. .| } | ^ ! U N % f 0 . 9               ",
"Q.Z.B.$.Y D d q 1 < u u 0.w.1.<.k.b.{.eXtXuXgXkXkXkXkXkXkXjXiXdXiXrX9X*X@X[.'.I.g.g.e.1.| _ ^ / F L / K % y G @ w 5 +           ",
"Q.U.N.*.T F f w < @ < < U ( ` 8.3.3.b.{.;X0XuXjXkXkXjXkXgXyXqX0X;X=X@X{.'.I.L.}.N.e.7.| ' ~ ~ L v N M e < M , w w * . .         ",
"!.U.V.-.E H D q < = i v z c N | 9.b.c.b.`.;X<XeXeXiXtX0X,X,X9X;X+Xn.b._.M.h.h.W.T.=.=.' _ / ~ L u 1 1 0 c 5 @ * O . +     +     ",
"!.R.V.-.' P D p 8 = 0 m 0 N ( { 1.8.2.c.b.|. Xm.`. X X X X X$X|.|.s.h.f.w.7.t.W.E.=.| ' T U U F d : > 5 6 > O * O O +     O H y ",
"!.E.Z.r.O.P D p 0 < 8 e 2 N } ! ( ) S <.k.b._.b.k.m.|._.m._._._.).9.8.4.5.a.e.T.R.+.@.' T U K M 0 1 : 1 = % p o & O 9 9 @ + ; 5 ",
"!.E.Z.r.O.U G a q 8 < = # e M x l 7 k B B >.3.<.<._.|.(.g.s.b.d.g.w.4.} &.=.=.V.U.@.@._ Y K G y 0 9 0 0 . O I O - = * * y +     ",
"oX/.S.M.@.Y G f q ; * @ X : M u z 7 3 4 3 j k V V x.J.c.,.) .. .7.0.5.5.| @.[ N.R.[ E E Y G D w 9 < * O .   * O O s g O * +   O ",
"oX/.S.N.*.' H M p ; & O X $ e r z 6 7 # # 4 3 k k 7.p.8.S N l ! ` X.&.6.| ] +.N.^.@.E E Y H D p d 5 @ * o + + = O + 5 + * ; * * ",
"oX/.U.N.*.R P D w ; $ @ @ X $ > , $ 6 X X 7 3 # t X.7.8.( N 3 i F &.5.&.=.[ O.r.1X@.' E P G D w 9 ; @ ; O + + 9 w + w     & * O ",
"2XQ.R.V.*.R P E s s , O X X . . . . . . $ % X , y U X.6.( z > : 1 K { [ ' ' E -.5X-.' E I D g p 9 ; & * O .   + * + 5 +   +     ",
"2XQ.E.N.-.' I F D I I = o . . & . 5 =   : : 5 @   $ Z { Z Z 6 < 8 p d n I E E $.oXM.E T Y G f a n < * o . + ; * O & O + +       ",
"2X!.E.Z.:.' Y F a 0 0 & @ 8 *   . f @     + O     O 6 o.~ e 5 9 0 q a H Y E T W E.N.E R Y D g d 8 = @ o . o 9 +   = -.J +       ",
"1X!.W.S.M.O.T F f w 8 = & & . . O 9 .     + O @ + O 5 o.N : ; y 0 0 p n J Y T E V.B.E T O.J g p 9 * * o ; & o * + . #.n O     o ",
"1XoXQ.S.M.$.E P E y 8 ; 9 &     $ X     * 9 ; +     O s 0 O @ y 8 w p f J H $.W V.N.E Y W I D s 9 - 8 + * O + O . . * * w * O 5 ",
"1X2XQ.U.N.-.E T D q 8 - - @ .   .   + + @ 9 *     ; * O 5 5 * 9 8 w p M n H Y T V.N.E I Y n f y J - * X @ X   O + w 5 + O + & 5 ",
"1X2XoXE.N.-.' Y n p 9 - & & - & +   O * + .       O ; 5 M h O ; * 8 w s g I Y Y N.N.W H J n f w G 8 y Q ; O . * O * & + + + + + ",
"6X2XoXE.Z.-.@.P P p w - @ ; y & +   + O *         O $ C _ $ + + & 8 0 s g I Y E N.N.' I J J J M q q y m O .   O = 5 ; O + * * * ",
"6X1X!.E.Z.a.@.T *.d q w - - 8 O     = * * w     O   + 5 9 @ ; $ & 8 y d g I T T M.Z.O.I I T G H D d 5 a @ = G 9 * +   + + 0   & ",
"6X1XoX/.Z.r.$.T H a w q * & a * & 9 5 +     +     ; w & . . O @ = q p I J J J O.B.E.#.Y H J G I 0 s s * 8 9 & ; ; O & + +       ",
"pX1X2XQ.S.M.*.@.H f w 9 & - w . O   O & o + O ;     .     ; o ; & 8 w p f D H Y -./.$.Y H J n n p < w w y s g * & + & + ; +     ",
"pX1X2XQ.U.M.-.@.P g w 0 - - ; * = * +   O O O g . .   O & * X 5 & < a g f G Y Y $.Q.:.Y Y H g d y 8 9 d ; d J < 9 * * ; + + *   ",
"pX1X1XQ.R.C.r.-.H n s d 8 * & 9 * + +       + +   9 - . + 9 ; $ & 8 s T g J I Y #.Q.B.T I J W f f q w q ; q q .   s g s + + w ; ",
"pX1X1XoXR.S.N.=.P D a a 8 @ - ; 5   + O + +   + * & + . @ @ * $ = w f I f J P T O./.Z.E E I K n J s s * & O o -   . - -   O s w ",
"pX6X2XoXR.Z.N.#.P D a y q @ o O 0 + O & .   +         + 5 = M $ & 5 9 p g G Y E O.E.Z.O.E ' P n M p 0 O - y & p w + O     ; w   ",
"pX6X1XoXR.Z.M.+.Y D a p 0 & o 0 s . .       O + +   . ; ; $ s O q 9 w s g J I R @.E.Z.-.#.] P n g f 9 * q & ; D w * -     * * & ",
"pX6X1X!./.S.V.-.T D f q > & o & .         + *         o ; * p w $.9 9 s Y R I O.@./.A.] ] R Y n J q 8 w = 9 W *     + +   + * 5 "
};
