/* XPM */
static char *result[] = {
/* columns rows colors chars-per-pixel */
"64 64 232 2 ",
"   c #020101",
".  c #090606",
"X  c #0B0907",
"o  c #0A0708",
"O  c #0C0A0A",
"+  c #070807",
"@  c #120D0D",
"#  c #170A07",
"$  c #17110F",
"%  c #130F10",
"&  c #180F10",
"*  c #151212",
"=  c #1A1515",
"-  c #1C1718",
";  c #1D1A1B",
":  c #1C1816",
">  c #260D07",
",  c #221613",
"<  c #251917",
"1  c #231D1D",
"2  c #2C1E1B",
"3  c #2C1A14",
"4  c #381B12",
"5  c #30140C",
"6  c #21201F",
"7  c #2C211D",
"8  c #35231E",
"9  c #251E21",
"0  c #262123",
"q  c #2A2325",
"w  c #2D2729",
"e  c #2D292B",
"r  c #2E2926",
"t  c #332523",
"y  c #352925",
"u  c #3A2925",
"i  c #322C2D",
"p  c #3B2D2B",
"a  c #332727",
"s  c #3D312E",
"d  c #352E31",
"f  c #3A2F32",
"g  c #363233",
"h  c #3B3335",
"j  c #3E3639",
"k  c #3E3C3C",
"l  c #481E0E",
"z  c #4B261B",
"x  c #432F2B",
"c  c #44322D",
"v  c #48342F",
"b  c #443532",
"n  c #4B3935",
"m  c #40373A",
"M  c #413D3E",
"N  c #4C3E3C",
"B  c #483834",
"V  c #523D3A",
"C  c #553C37",
"Z  c #553126",
"A  c #623729",
"S  c #4B413E",
"D  c #54413D",
"F  c #5B433D",
"G  c #784737",
"H  c #604036",
"J  c #463E41",
"K  c #493F43",
"L  c #454142",
"P  c #4B4245",
"I  c #4E4549",
"U  c #4E484A",
"Y  c #544542",
"T  c #5C4542",
"R  c #5B4A46",
"E  c #51464A",
"W  c #534A4D",
"Q  c #5D4C4B",
"!  c #554A46",
"~  c #564D51",
"^  c #594E53",
"/  c #5B5155",
"(  c #5D5359",
")  c #5F5F5E",
"_  c #575052",
"`  c #644D4A",
"'  c #644945",
"]  c #6B514D",
"[  c #64514E",
"{  c #75534B",
"}  c #645352",
"|  c #6B5553",
" . c #61555B",
".. c #63595D",
"X. c #6D5B5B",
"o. c #6B5857",
"O. c #735652",
"+. c #745A56",
"@. c #745D5B",
"#. c #7A5C59",
"$. c #7A5954",
"%. c #774C40",
"&. c #77615D",
"*. c #655B61",
"=. c #6A5E64",
"-. c #635760",
";. c #6E6669",
":. c #7B6563",
">. c #73666C",
",. c #786768",
"<. c #796D73",
"1. c #776B71",
"2. c #7F7E7D",
"3. c #7E7378",
"4. c #804A38",
"5. c #825E59",
"6. c #8D5B4A",
"7. c #85625C",
"8. c #95675C",
"9. c #A56C58",
"0. c #AC6F56",
"q. c #826563",
"w. c #846C6A",
"e. c #8A6E6B",
"r. c #8A6965",
"t. c #946A64",
"y. c #966C68",
"u. c #8C716E",
"i. c #86706E",
"p. c #96726D",
"a. c #8C7472",
"s. c #857879",
"d. c #937573",
"f. c #9D7672",
"g. c #9B7D7A",
"h. c #957A76",
"j. c #A7756B",
"k. c #A77A75",
"l. c #B27D73",
"z. c #B47C6A",
"x. c #9D817D",
"c. c #A3827D",
"v. c #AC827C",
"b. c #B3847C",
"n. c #BB877B",
"m. c #C48A79",
"M. c #CC8F76",
"N. c #8A7C83",
"B. c #867981",
"V. c #8E8189",
"C. c #8E8789",
"Z. c #92858B",
"A. c #9C8484",
"S. c #9A8C94",
"D. c #9B8D96",
"F. c #9F9E9C",
"G. c #9F9898",
"H. c #AB8B85",
"J. c #A88783",
"K. c #B48A83",
"L. c #BC8B83",
"P. c #B98D88",
"I. c #B6928C",
"U. c #A2939C",
"Y. c #A79499",
"T. c #BA9692",
"R. c #AC908D",
"E. c #A799A1",
"W. c #AB9CA5",
"Q. c #B59EA5",
"!. c #B4A4AC",
"~. c #B8AAB3",
"^. c #BFBEBB",
"/. c #BDB0B8",
"(. c #AFA0A9",
"). c #C28D84",
"_. c #C89389",
"`. c #D39B8D",
"'. c #C79B94",
"]. c #D59E93",
"[. c #D89F92",
"{. c #D3A39A",
"}. c #DCA69B",
"|. c #DBA497",
" X c #CBA49D",
".X c #E4AA97",
"XX c #DBACA4",
"oX c #D6ACA4",
"OX c #DEB2AA",
"+X c #C2B3BC",
"@X c #CFA6A1",
"#X c #E3AEA2",
"$X c #E6B2A5",
"%X c #E5B5AD",
"&X c #EBBAAC",
"*X c #E9B6AA",
"=X c #ECBBB1",
"-X c #E6BAB1",
";X c #F2BDB0",
":X c #EDC5B8",
">X c #F2C4B5",
",X c #F3C6BA",
"<X c #F5CBBC",
"1X c #F6CBB9",
"2X c #EECAB3",
"3X c #CCC8BD",
"4X c #CABBC6",
"5X c #CECDCB",
"6X c #CEC9C7",
"7X c #D1C2CB",
"8X c #DEDDD9",
"9X c #D8CCD3",
"0X c #F7CDC1",
"qX c #F6D3C2",
"wX c #FAD4C5",
"eX c #FADDCC",
"rX c #F7D9C8",
"tX c #FAE2CD",
"yX c #F5E6CD",
"uX c #FBE4D3",
"iX c #FCEAD5",
"pX c #FCEDDA",
"aX c #F4EED8",
"sX c #FDF2DD",
"dX c #EEEDEB",
"fX c #FCF4E3",
"gX c #FDF9E5",
"hX c #FDFBEC",
"jX c #FDF6E9",
"kX c #FDFCF4",
"lX c #FEFDFA",
"zX c #F4ECE0",
/* pixels */
"J h q - @ o               O q m s p 7 p O + O r S ,.&.:.i.a.,.:.;.s.!.V.;.*.( W P h d 9 % o .       . .                         ",
"M f q - @ o o     .     . . O # y y y 7 $ X y &.&.a.i.w.a.a.i.:.,.d.Y.C.=. .( ~ J h w 9 % O                                     ",
"J f q < @ o o               o < k S S g 6 @ n :.:.u.u.a.g.d.i.w.i.s.C.C.=.-.( W L h i 1 = O                                     ",
"J d w ; % O o   .           @ B S F S D p y R i.:.w.w.d.x.h.u.i.h.i.a.x.>.-.( W K h i 6 = o                                     ",
"K d w 9 % o o .           + 7 Y S F F ! S F &.r.w.u.w.x.x.x.A.J.A.a.s.A.1.=. . .W N j j w = O o                                 ",
"K f q - % o o             : S Q S S F [ [ &.a.u.h.g.h.x.c.H.I.R.R.x.d.x.d.,.,.,...Q } } m d < o                                 ",
"K f w 9 % O o .           6 B S [ D D o.&.:.r.x.v.H.H.H.K.T.I.H.R.x.h.A.A.a.a.w.X.| X.:.Q h 9 o                                 ",
"K h i 9 % O o   .         @ y F ,.u.x.x.x.d.p.c.'.@XoXOX'.oX'.H.c.J.A.H.x.d.h.d.a.e.a.w.` f 1 %                                 ",
"I f d 9 % O O . o         = p ` x.x.x.x.x.c.c.I.OX=X0X,XoX-XOXI.I.H.c.J.k.h.k.N.k.d.d.e.} K m < 6 *                             ",
"I j i 9 - O . .   o       = N q.u.x.x.x.I.'.'.{.-X-XeX0X%X-X%XOX Xb.v.v.n.N.H.I.K.p.u.r.O.Q R Y S p $                           ",
"I h d 9 - @ o . . .       O V u.x.x.x.T.oXOXXXOX-X-XeXuX,X-X}.-XXX'._.P.K.K.K._.N.d.e.q.+.` T K B q @                           ",
"E m d 9 = o o .           o x d.x.x.R.T. XoX'. XXX=XpXjXfX-X|.*X=X%X=X-X%X].{.'._.f.t.5.#.' n u & X                             ",
"E m i 9 = @ .   o           $ n r.x.v.T.T.I.H.L.].&XfXkXhXqX*X>XrX0X0X0X0X=X1X%X[.l.y.7.5.' x 8 & .                             ",
"E m f 9 - O . o     < S p @ < x &.x.R.'.v.K.b.m.}.*XuXgXkXiXqXqXuXwX=X>X0X<XwX<X$X).j.8.5.' v 8 , X .                           ",
"E m f 9 = O o .   o B ,.T u V r.e.c.T. XI.'._.M.$X>XtXfXkXgXpXaXuX;X$X1XtXtXuXrX=X'.l.t.5.O.C v t = @                           ",
"E m d 9 = @ o o . @ n &.] T | g.H.H.T.@XXXyXrX$X>X<XtXfXhXgXjXyXpX>X.X*XpXjXfXsX0X[._.k.t.5.O.K y 2 2 X                         ",
"I J f 9 = @ o . . & c ` ` ` &.u.c.K.'.oX<X<X:XrXsXpXfXgXgXgXhXsXpX1X&X<XfXgXgXfXuX;X.XN.f.f.d.O.x 8 b y X                       ",
"I j f 9 = @ o .   . , V T ' { t.b.oXoXXX$X:XaXhXhXhXkXhXfXyXsXgXsXrXyXgXkXkXgXgXpX;X[.L.k.k.u.O.C c B c O                       ",
"K m f 9 < 1 = o . . # v D $.r.c.I.-X-X-X&X2XtXhXgXkXkXlXfXyXhXhXgXfXgXkXlXhXhXsXuX,XXX).l.f.r.#.' n c t .                       ",
"K m i t K } ` 2 . . # 5 z G j.L.`.1X<X<X1XwXuXhXhXkX5X;.fXyXlXlXlXlXlXlXkXgXhXsXeX,X%X_.l.k.r.5.| ' n 7 X @                     ",
"P h i p @.X.o.B $ # 8 A A G z.OX*XqXuXtXwXeXiXgXkXF.) 5XkX3Xk lXlXkXlXkXsXfXhXpXtX;X#X_.k.j.r.q.O.] T x t u 7 O                 ",
"P h i h o.:.:.T u 8 F { G 9.n.1XuXsXgXhXgXjXgXhXlX8X5XlXlXdX^.lXlXS k k 5XhXhXfXwX1X$X`.K.k.y.#.] ] ' V n p t X                 ",
"K f i N o.:.&.` [ F F 5.6.z.[.<XfXhXF.2.8XlXlXkX^.2.F.lXlX8X2.lX2.      ) 8XhXjXuX,X$X].P.k.t.5.+.' T V B p 2 X                 ",
"K h f } :.:.@.+.r.&.t.p.9.M.*XuXhX2.6   ) 2.^.^.k   6 2.2.)   2.2.2.2.2.0 ) +XhXjXwX=XXXP.k.y.q.#.' D V v x 2 X @ 1 +           ",
"K f b [ @.] | [ e.#.7.L._.$XrXfXkX          M M k k           2.lXlXlXF.6   k ^.gXpX<X}.).j.t.q.$.' n u 8 u < < $ & X           ",
"Y f f ~ } V D [ @.q.p.K.{.*XeXfXlX              L k           2.2.2.2.6   ) k 2.kXpXqX}.m.y.5.$.| F v 8 7 , , 2 , 3 @           ",
"K f f K T K Y @.] +.y.k.`.%XrXfXlXk O g k % 6 6     * k i         k S * g 5XF.F.kXpX0X[.n.y.5.O.' n v u 3 < , , $ , o           ",
"E h f u a p t n ' O.r.L.{.>XeXgXlX^.i ^.lXL ) )   6 1.lX^.    L k lXkXk C.dXlXlXhXpX;X[.n.t.$.{ T x 8 7 , X o o .               ",
"E m f 9 & @ @ = F ] y.P.].-XeXhXlXk * ^.lX;.6 6 k F.lXlX5Xk k lXlX^.dXk   ^.lXlXjXuX;X`.l.8.{ ' C c b 2 , O                     ",
"K m p 9 & o . @ v #.u.j.).#X<XjXlXlX;.5XkXlXF.F.lX8X5XlXlXlXlXlX^.  ^.M g 5XkXkXfXwX$X).y.5.] C b n } < X +                     ",
"~ m f 9 = @ . , n F $.j.n..X<XjXlXlXlXlXkXlXlXlXlX2.k lXlXlXlXlX    ^.k ^.hXzXgXpX0X#Xl.8.5.] D c 2 3 $ .                       ",
"~ m f w - % o O 2 F 7.c.).}.,XsXkXlXlXk   ^.lXlXlXlXlXlX^.    kXlX      ^.hXsXyX;X.X).k.6.$.] C p u 2 $ o @ o                   ",
"( K m i 9 = % i $ D u.v.b._.2X<XfXzXkXk   ^.2.2.2.  k lXhXfXgXlX  lXkXkXhXfXiX<X*X`.l.y.5.5.d.+.K x < 2 2 t =                   ",
" .I J j w - 9 = # Q &.$.p.L.$X*X1XeXjXk ^.kXkXlXkX2.k lXkXkXkXlXlXlXlXgXsXtXwX1X}.n.l.7.$.] O.N.K C p x x p 2                   ",
"=.~ K j w < * O # 7 4 Z G j._._..X>XaX6XdXlXlXF.k 6 * k k k k k lXlXkXgXiX<X;X=X`.n.k.7.$.O.] +.' K n x c x = .                 ",
">.^ E m w 9 = @ O X # > 4 G 6.0.M.[.&XfXlXkXF.6     g ^.C.    ^.kXkXgXsXrX*X}.XX).N.f.t.$.| ` | ' T C a < 1 .                   ",
"3.-.W J f q < @ X X # 3 z F G 8.0.M..XtXgXaX2.      k lX^.g ^.kXjXpXfXeX1X$X].'.N.N.N.t.| O.] ` T K K u , - O o                 ",
"B.=.^ K j q ; * O . # 2 F { $.G 6.0.[.1XsXyX8X)     * k ) 5XhXgXjXuXeX;X$X}.'.'.f.d.j.5.| } ] ` ` H C p 1 w . ; 0               ",
"N.>.( E j q 0 * = . @ < R e.] { 6.8.M.&XtXtXgX^.2.2.2.2.U.gXpXsXuXwX;X}.}.].P.T.f.e.q.X.} ` ` ` ] b b 8 & 9 o .                 ",
"Z.<.-.E M i r - 0 . = S s.&.T G 7.6.z.M.#X>XiXjXkXkXhXfXpXtXqX1X#X[.`.).n.).N.Q.N.w.q.X.| K T ` b a 8 9 , - @   ; O o           ",
"D.B.>.^ K f w ; = 1 P M R p x F 7.8.y.b.n.[.$X1X2XrX1X>X.X2X;X}.].j.l.l.f.y.d.Q.Y.d.i.-.^ Q ' Y i p W ! w I U   q - %           ",
"U.N.>.( K h i 9 % o < f b b Q &.&.{ { 8.z.n.n.n.M.`..XM.M.M.'.'.).8.y.y.q.,.>.Y.Q.=.-.( ^ T K V a q r 1 * g U 0 0 ; +       +   ",
"D.N.1.( K j d 9 % @ 1 r 7 p Q ] H F H G 6.n.b.0.9.m.`.m.l.j.l.l.k.5.$.+.@.,.q.S.W.=.-. .~ K K j 6 = % = @ q ; g *               ",
"E.N.<. .W j f 9 - = % * X : t 8 7 > 5 z Z G 6.G 4.b.T.K.p.8.y.t.r.#.| } @.=.=.N.E.*.-.( ^ K J i q = @ O * o   %   +       + 0 ; ",
"W.N.3.-.W J d 9 ; % . .   1 t 7 7 7 > > 8 4 Z l z 8.c.p.$.H F O.@.#.X.o. . .-.s.Y.=. .( ~ K k i 0 - * + - * L O O + ; O +   6 0 ",
"W.Z.B.=.W E j e ; * O .   O y 7 7 , # # # > > 5 4 q.r.+.C v 8 V } o.o.X.X. .-.s.~.=.-.^ E J j i q 1 = % + + g ; - * * q g +     ",
"(.D.N.>.^ K J i 1 % O X . X r = # X . . X X X # 3 O.+.@.V x 3 7 K @.X.@.=.-...<.4X;.-.( ~ K j i w e q e + + + + 6 L j   * O     ",
"(.U.N.>.-.K J d e * O + + + @ o   O 1 . . . . < . 8 R &.T t & = 9 n W o.} / ..s.9X<. .( E I J g h 0 * - O + + O + * 9 + * +   * ",
"~.E.N.<.-.K J g 9 - % . O O O     + *   + ; ; O   @ B X.n p : * 1 i d J W  .( ;.4XB.( ( U L M i 0 - % ; %     9 ;   e + O ; ; O ",
"~.E.S.B.-.E J ~ 9 - % O .   .           = = +   e ; q o.b , @ $ 9 w d U W ^ ^ ) W.V.( ~ U L k d 0 - % O + . . + ; % 0 O         ",
"4XW.D.N.=.~ K J i 9 - O . .   .         * ; = * r i 6 Q N 1 * * 9 0 d J E W / *.S.C.( ~ U L j d w ; % o . . . o % O % O o       ",
"/.W.U.N.=.^ K j e ~ e +     . + % i :   +   ; *   o X i 6 * ; * q 0 i j P W / ( V.N.( / -.L k g d 9 % o   + %     % w *         ",
"4XW.E.N.>.( K J w i h O % 6 * % * S %     + - % o + O w @ @ - e 0 0 w h J I ~ ^ C.N.-.~ ..U J i d = ; O o % i 6   % ) U O   +   ",
"4X!.(.N.>.-.~ K j 9 - - 9 *     % :       6 - +   o   O : o * d - i w k M P ../ N.D.-.~  .U J i w 1 - O w = O * . + U L o   + * ",
"4X!.W.D.<.-.~ K ^ 9 - - ; %   .   + + O ; g *         . 0 ; * i - 0 q j M P W ~ B.S.-./ ~ J j d k 9 * O * O .   + % % + w * O O ",
"4X!.(.N.<.-.~ K J 9 - %   O * %     % * + +       ; ; O 0 e O ; 9 9 e d M U U ~ 3.E.;.~ U J k g I 9 9 O ; * .   % w 6 O * o % 6 ",
"4X/.W.D.3.-.~ N W 9 9 @ o - 9 O     . % * +       o O : 0 * + O * ; q h k ~ _ ~ 3./.<./ ~ ) ~ / d e r ! % o o * + ; * + + % * * ",
"4X+X!.D.B.=./ P -.i 9 9 & & ; O   * 9 % * e         . I U * * * * ; q k J W -.;.<./.3./ ~ I P k L k y Q % ; g 0 % % * O + 0 + + ",
"4X4X!.D.B.=.^ I J w 9 1 O % d - O - = +         + : * 1 6 + O - - 0 w M I I / ) >./.N./ ( U P / i j w 1 % 9 9 e 0 O O +   -   + ",
"4X/.!.G.N.;.( ~ J 9 9 9 % - i   . . . + % + + 0 + o 0     - O - * 1 w j k P W / ;.!.D.( ( U K L h 6 j 9 1 h g * - + O % ; +     ",
"4X4X!.U.N.1. ./ K d 0 ; % = % % ; . O O + + O g o O + O % * % ; % ; d h M P / ( =.G.D.( ( ~ P M h 1 e j e e h * - + + ; O   * o ",
"4X4X~.E.S.<.*...j i q 9 % O % g - + + +     +   + e - X o 9 ; % = 1 g M M P ~ ( -.G.D.-./ W L j j r 0 w 6 1 i o   O + ; + + d   ",
"4X/.~.W.S.<.1.( M f w w % o * d 0 . *   +       O +   + o + O % = 9 h J k P ~ ( =.E.E.-...~ I M k w w ; = . . +   1 w w +     + ",
"4X4X~.W.S.s.;.E j d 9 9 = o % o %   + * +             o o   - @ % 9 d U k I ~ ( -.W.E.=.( ~ ..P ( g k * % 0 % 9 + % g d +   * L "
};
