/* XPM */
static char *result[] = {
/* columns rows colors chars-per-pixel */
"64 64 236 2 ",
"   c #030202",
".  c #090606",
"X  c #0D0807",
"o  c #0A0708",
"O  c #0C0A0A",
"+  c #120D0D",
"@  c #160D0A",
"#  c #16100F",
"$  c #1B110E",
"%  c #130F10",
"&  c #141212",
"*  c #1A1414",
"=  c #1D1817",
"-  c #1A1718",
";  c #1D1A1A",
":  c #171817",
">  c #0F1211",
",  c #221613",
"<  c #241915",
"1  c #221C1C",
"2  c #2B1D1B",
"3  c #291A17",
"4  c #361D17",
"5  c #27100C",
"6  c #22201F",
"7  c #2C211D",
"8  c #32221F",
"9  c #231F20",
"0  c #252223",
"q  c #2A2424",
"w  c #2C2728",
"e  c #2D292B",
"r  c #2C2927",
"t  c #332522",
"y  c #352926",
"u  c #392A26",
"i  c #332C2C",
"p  c #3C2D2A",
"a  c #2F302F",
"s  c #3D312E",
"d  c #35302E",
"f  c #352E31",
"g  c #382E32",
"h  c #353132",
"j  c #3B3334",
"k  c #3D3639",
"l  c #3F3B3C",
"z  c #3F3836",
"x  c #4E281A",
"c  c #442E29",
"v  c #43312D",
"b  c #4C3125",
"n  c #56342B",
"m  c #433431",
"M  c #453935",
"N  c #4C3935",
"B  c #423C3D",
"V  c #4B3C3A",
"C  c #473634",
"Z  c #523E3B",
"A  c #533C36",
"S  c #663B2E",
"D  c #3F403F",
"F  c #4F413E",
"G  c #53413D",
"H  c #5C433B",
"J  c #734738",
"K  c #463E41",
"L  c #493E42",
"P  c #464042",
"I  c #4B4345",
"U  c #4E4649",
"Y  c #4E484A",
"T  c #534443",
"R  c #5A4643",
"E  c #5D4A46",
"W  c #534A4D",
"Q  c #5C4D4C",
"!  c #544748",
"~  c #5C514A",
"^  c #564D51",
"/  c #5B4E52",
"(  c #5B5155",
")  c #5E5459",
"_  c #5F5F5E",
"`  c #575153",
"'  c #624945",
"]  c #634C4B",
"[  c #694B46",
"{  c #64514E",
"}  c #6A524E",
"|  c #6B5146",
" . c #77554C",
".. c #624F50",
"X. c #655452",
"o. c #6A5553",
"O. c #6C5956",
"+. c #61565B",
"@. c #63595D",
"#. c #6C5A5B",
"$. c #6A5659",
"%. c #735552",
"&. c #745B56",
"*. c #735C5A",
"=. c #7B5D5A",
"-. c #7A5952",
";. c #764F47",
":. c #75615D",
">. c #7C615E",
",. c #73695D",
"<. c #695D63",
"1. c #665B61",
"2. c #6C6166",
"3. c #6E6369",
"4. c #6F6F6E",
"5. c #756362",
"6. c #7A6564",
"7. c #7C6965",
"8. c #75676B",
"9. c #786C72",
"0. c #7F7F7D",
"q. c #7D7177",
"w. c #87513D",
"e. c #85584A",
"r. c #8F5D4F",
"t. c #86625B",
"y. c #99675B",
"u. c #98614F",
"i. c #A36954",
"p. c #836562",
"a. c #846A66",
"s. c #8B6965",
"d. c #8C6E6A",
"f. c #866A68",
"g. c #936E6B",
"h. c #966B65",
"j. c #88716E",
"k. c #94716D",
"l. c #9B726C",
"z. c #997367",
"x. c #8C7472",
"c. c #867679",
"v. c #937673",
"b. c #957A76",
"n. c #9B7974",
"m. c #9B7E7B",
"M. c #977A78",
"N. c #846F70",
"B. c #A8756B",
"V. c #A57A75",
"C. c #B37E75",
"Z. c #A16E64",
"A. c #9E817D",
"S. c #A9827C",
"D. c #B3847D",
"F. c #BB8579",
"G. c #BD806C",
"H. c #C38774",
"J. c #8B7E85",
"K. c #867A82",
"L. c #8E8688",
"P. c #92858A",
"I. c #988485",
"U. c #9B8D95",
"Y. c #9F9E9C",
"T. c #9E929A",
"R. c #A48582",
"E. c #AC8884",
"W. c #BD8B83",
"Q. c #B58A85",
"!. c #BC928C",
"~. c #B5928D",
"^. c #A3959D",
"/. c #AA989E",
"(. c #BB9791",
"). c #A48E93",
"_. c #AB9CA6",
"`. c #B49DA3",
"'. c #ADA0A8",
"]. c #B2A5AE",
"[. c #BEBEBB",
"{. c #BDBBB4",
"}. c #BBB0B0",
"|. c #C4948C",
" X c #CB968B",
".X c #D59988",
"XX c #C39A94",
"oX c #CB9C93",
"OX c #C69A94",
"+X c #D29E95",
"@X c #C68E81",
"#X c #CAA19A",
"$X c #DAA59B",
"%X c #D7A49A",
"&X c #DEA28F",
"*X c #E4AB9A",
"=X c #E5B296",
"-X c #DCABA4",
";X c #D6AAA5",
":X c #C7ADB2",
">X c #E2ADA3",
",X c #E5B2A6",
"<X c #EAB6AC",
"1X c #ECB9AD",
"2X c #E6B3A9",
"3X c #ECBCB2",
"4X c #E6B9B1",
"5X c #F2BFB5",
"6X c #F2BAAF",
"7X c #F3C3B4",
"8X c #F5CABC",
"9X c #F5C7BC",
"0X c #F3CABD",
"qX c #D9D1BC",
"wX c #C8BBC3",
"eX c #CECDCA",
"rX c #CDC8C6",
"tX c #DEDED9",
"yX c #D9D4C3",
"uX c #F7CEC1",
"iX c #F6D3C3",
"pX c #F9D4C3",
"aX c #FBDCCB",
"sX c #FAD8C8",
"dX c #FBE1CE",
"fX c #FCE5D3",
"gX c #FCEEDA",
"hX c #FAEAD8",
"jX c #FDF2DD",
"kX c #FDF5E3",
"lX c #FDF9E5",
"zX c #FCF7EB",
"xX c #FDFBEC",
"cX c #FDFDF4",
"vX c #FEFDFA",
"bX c #EEEDE8",
/* pixels */
"& & . .                   X 6 M 8 7 < 8 X   # d ! ,.o.#.8.7.7.5.5.N./.P.@.) / U K f q 9 % o .   o . o                   .       ",
"* O . .                     . O = 7 7 = O # s { O.7.7.6.f.N.7.<.5.N.).P.@.( ^ U l f q ; % O   .                                 ",
"- O . .   .                 . 6 y s i 7 = @ F O.o.:.6.7.j.d.7.#.7.N.P.P.1.( ^ U l f w 1 % O O . .                         .     ",
"- O O     .               . * v i F M M 7 t F O.o.#.:.6.j.a.,.7.N.N.c.P.5.+.^ U B h w 1 * O         o               .         . ",
"- + . .                   X t F s M F F s F :.&.,.7.7.a.x.x.x.v.A.N.c.I.8.#.) ( I m k j 0 & O .                               . ",
"= O O o .                 ; z F M t v G X.o.6.:.j.v.x.d.b.A.A.A.A.A.x.I.x.8.8.6.` U ! / V r * .                                 ",
"; O O . . .               = i M E F ! X.:.:.:.:.x.b.b.k.m.R.R.I.A.A.x.I.c.N.7.7.X.Q #.#.! i = .                 .               ",
"; + o .                   + 7 G 7.j.x.j.a.a.7.t.S.~.~.!.E.!.(.~.S.A.v.I.A.x.j.j.7.5.7.:.T p 1 +       O                         ",
"- % o . .                 + 7 R j.v.b.x.v.b.v.s.~.(.;X;XoX;X#XXX(.S.b.A.J.B.l.V.g.6.a.6.X.T m 7 7 *   .                         ",
"- % O .   .               # s O.a.j.b.R.E.E.E.S.#X;X4X4X-X-X;X;X#X~.S.A.J.V.m.J.v.p.>.5.o.E T I M i + .               O .       ",
"; % X . . .               + N #.,.x.I.~.!.(.#XXX#X-X7XuXuX4X-X2X;XXX!.!.Q.J.C.J.k.f.:.*.$.T Z V p 9 X                           ",
"= % O X                   O m #.:.A.A.(.#X#X(.!.%X,XaXkXgXuX<X5X4X-X-X-X;X@X XJ.V.s.p.$.$.Z p 9 + O .                       .   ",
"= % o . .             . . . $ p :.m.S.~.XX!.W.|.$X7XhXxXxXdX7XpXiX0X<X>X-XoX#XOXE.k.p.&.%.L u 3 #                 .         .   ",
"= % . o             * F p O * u | b.S.(.!.!.XX%X7X8XgXxXcXkXhXjXfXpX<X$X4X4X4X;X!.V.f.=.&.' p t 1 X .                           ",
"; & O . .         . v O.V 2 v X.o.b.S.XXoX-X2X2XsXfXjXxXcXxXlXgXdXiX2X>X5XuX5X2XOXV.g.=.=.] v v y = @                         . ",
"9 % O .           O s { V m R p.d.A.E.#X7XfXdX0XjXhXlXxXxXxXlXfXhXpX,X,XuXdXsXuX-XQ.B.f.=.*.} L t < 2 @           O o           ",
"= & + . .         + 2 C p T ] 7.g.V.!.2X9XsXaXkXxXxXcXxXcXxXxXlXjXaX8X8XaXgXaXuX,X@XJ.Z.p.p.s...u 2 v p O             o         ",
"1 % O . .       . . @ c N ' ' t.n.(.;X<X3XaXkXcXcXcXvXvXcXcXcXxXkXdXhXkXxXzXhXsX5X+XH.C.g.f.p...N m v p O       .               ",
"1 + + O * 1 & . .   X t c [ -.h.V.#X>X5X0XfXjXxXcXvXvXvXvXvXvXcXxXkXlXxXxXlXjXuX<X$X@XJ.g.f.=.} L N c 2 .                       ",
"; + o , T ! Z 1 .   X 5 4 S s.S.|.1X3X8XdXjXlXxXcXvXeX4.vXvXvXcXcXcXcXcXxXkXjXpX,X$X.XJ.g.p.=.] [ Z m 7 O . . .                 ",
", + + q Q X.{ y X . 3 b x S u.oX,X8XiXaXhXlXlXxXcXvX[.D vXvXvXvXvXcXvXcXzXgXhXpX<X$X|.J.l.s.=.] ] ' Z p 3 t 2 %                 ",
"9 @ + t Q X.{ v 7 7 v H n e.B.$X8XhXjXlXxXcXcXcXcXY._ eXvXeXl vXF l D eXxXzXkXsX<X$X XF.l.s.=.%.' R A C m y 4 X                 ",
", % # j Q X.X.G G Z A H S u.F.*XdXxXcXY.tXcXcXcX[.D 6 Y.cX{.  vX      _ tXvXzXfX5X$X XW.V.p.=.%.o.' A C v u , X                 ",
"1 % 7 T X.E R ' *.' } t.e.B..X7XgXcXY.6 _ 0.0.0.l     D lX}.  0.      _ K.tXvXzXuX<X+XW.V.p.t.-.%.L C C p t < X X 0 O           ",
"1 , 2 I ! G V G O.' | v.V. X,X8XlXvXD                 l zXqX0.0.      _ 6 [.cXxXfX5X$XW.B.p.=.%.%.G p 8 7 t < $ @ @ X           ",
"1 & 7 V M y m G ] { >.s.D. X<XpXkXvXl                 l xXyX0.0.0.0.;     _ [.xXfX5X$XW.l.t.%.] ] A u 7 3 5 @ * @ + +           ",
", % 1 p m m V E G H &.t.V.oX1XpXkXvXD                 e [.L.    [.vX4.>   a Y.xXaX6X+XW.l.t.} ] G C p t 3 $ @ $ + + O           ",
"1 = = = 9 y 3 t M G o.l.D.+X3XaXlX[.e                         l   vXvXl a eXcXjXuX>X+XC.g.t.%.' G p 8 3 $ X .       .           ",
"9 * & o . . . @ u G &.k.S. X2XsXxXB > a l >           > e     [.  [.[._ eXcXxXhX9X>X@XB.s.%.' Z b p 2 < * .                     ",
"1 % + o       X u ' -.>.z.F.%XuXlXvX4.eXvXD   ; ;   > 4.[.            [.cXlXjXsX<X+XW.h.-.%.' v p t 2 , X .                     ",
"1 $ + o .     = y v E -.h.F.$X8XkXcXvXvXvXl   0.0.  l vX[.            [.xXjXdX9X>X XC.y.%.%.' p u 2 < #         .             . ",
"9 ; % o   . . 0 # v { s.h.D.oX7XsXlXcXF           0.vXvX[.    vXvX  [.cXkXdX8X<X+XQ.l.s.o.] ' v t t 1 @ X + .                   ",
"9 - * O .   . ; 9 C ] =.t.V.W.*X7X8XfXcXvXvX0.0.0.  D vXvXvXvXvXvXcXxXxXhXpX7X-X.XC.h.t...] ' L c 8 , 9 8 4 *                   ",
"y 9 * * > .   . 9 9 p A %.l.!.F..X=X8XxXl [.vXvXvX0.D vXvXvXvXcX  cXkXgXpX7X,X;XJ.l.s.%...] ' L N c 8 8 u u +                   ",
"i 9 ; % o o     . X $ 4 b -.z.z.H.&X<XgXeXbXvXY.D 9 > D D D F cX[.xXkXfXuX2X%X;XV.k.f.:.} ] L ' A L L c p y +                   ",
"g 9 ; % . . .       . . 5 n [ e.i.C..X0XjXcXvX0.    a [.L.a [.xXlXgXdXiX6X+XOX:Xm.g.f.>.$.%.%.$.[ L *.u < X .                   ",
"j w 9 $ o . o &       X , b H J w.i.H.,XaXkXcXtX_ _ eXzXbXrXxXgXhXaXuX6X$X|.W.:XR.k.f.:.$.$.} ] L H V 8 o . .               O   ",
"m e 9 * + o = &   O i , v N A n S u.H.=XuXaXgXxXtXtXvXvXzXhXsXpX8X6X>X+X|.Q.J.`.).J.6.$.] ..6.6.L Z C t + . .                   ",
"C i w , + o .   . L +.= v G N n S r.C.|.,X7XiXgXgXcXzXhX8X=X=X6X<X+X@XC.Q.V.C.`.M.a.6.X.Q Q ..J.Z v g 3 X ; %                   ",
"K g w 9 % + X   . ; + X u p v A A [  .y.F. X$X7X8X8X0X3X*X*X.X XF.B.Z.h.g.g.g.`.U.5.5.X./ / ! ] c m 9 * @ ; .     . . .         ",
"L j i 9 , + o o     + = & < , t ' &.| ;.y.C.G. XH.=X*XH.F.H.@XC.B.t.t.s.>.a.v._./.1.@.X./ ! ! C t , * * 2 q & . . . .           ",
"L k g 9 - + o . .   + j y p M M G G A  .t.z.u.u.u.C.F.B.i.h.V.l.l. .=.*.$.5.c.U./.c.3./ W L L V p * # & = i + % O           .   ",
"Y B g w - % o o .   O + 9 @.V p m v b G H t. .J J u.S.l.e. .t.p.f.[ ..Q ] +.<.P.'.9.q.( W K L L ^ % + % + 0 O : f .             ",
"^ L k w 9 % O o > O . * @.i = t s $ F Q 7 H b x n t.l.s.} [ [ o.o.] Q L / +.#.K._.3.<.` L K k W q % % 1 + . . .   .             ",
"( L K f 9 * % . : O : Y ) # ; U s $ < $ $ 7 5 5 4 ] >.&.A v C G } Q ] / / ) +.c._.q.3.( Y K k h w f ^ K > a h   & & o .         ",
"<.^ L g 9 w % % . 0 B l a X $ F 1 & + . $ F F @ < ] O.{ N 3 , p T Q E / ../ ) 9._.1.) ^ Y K k h 0 9 0 > o ; w . r 0 O           ",
"<.) Y m w 9 9 O . . O & #   X ; O . . . O d I X $ G ~ o.{ 1 1 1 j / Q / ) ) +.8.}.<.1.( Y L k a 0 * & > . o * 0 e O             ",
"3.) L B w 9 * + #         # > +   . > .   > a   . * V { F 7 q * 9 C V ^ / / ) 3.wXc.) ( W L k f f * % O O 0 ( l               O ",
"9.+.W K g 9 1 O o o .     o       .   .           O i ~ M k V q a e f l W ( ) 1.wXJ.) ^ W L l f 9 - : O   > W e O       -   w h ",
"q.1.^ L k w 9 + o o .     o 0 &     O   r > .     . 1 W i * % % 9 w f U Y ^ ) 1.].J.+.( ^ K k f w - % . O o O 9     &   - >     ",
"K.1.) ^ k 9 9 - 9 O . .   o 0 >     > o & .       6 6 I q + O + 9 w f P Y ^ ) @._.U.) ( Y Y K h 9 9 : O : % o . > w w 0 >       ",
"J.3.1.W k g e - - o . . o   O   o   :   O O O .   . + 7 * O O % - w f l U ^ ) ) J.T.9.) W Y K l K e % : % > O O : f D - 0 >   O ",
"J.q.1.L L g e 9 O O o . o o O     .     . > O   .   o > O O . O - 9 a K U Y ^ ) J.T.3.^ Y U K K w f 9 k % .   9 & . w . & O o   ",
"U.q.1./ L g e L + o O o o               - : o - O . & o > > > & 9 9 e l L Y ^ <.J._.3.) W U K h w 9 - - o o o O e - 0 > o > : O ",
"T.q.<.1.L k e k % o                     & > > O ; O . o ; & % O ; 9 e k U ` ^ 1.K._.3.) ) U K k e 9 - % o     . ; ; > > o     O ",
"T.K.3./ L k e 9 & o o .         O         . O   > # . 0 > + & ; 9 9 w l P W ^ ^ 9.].9.) 3.^ K l e 9 - % o o       : r o       O ",
"T.K.9.) L k i 9 ; - % o . .     0 6 O     & k r k h . . o o O w ; 9 w j K Y +.+.9.[.K.1.<.( W l e w 9 % . . o O o     > .       ",
"_.K.9.) Y K f i 0 K % : ; .       ~ 6   . 6 = O   o   % 0 o & : * e 9 K K L ( ) 3.wXU.) ) W L B k j ; > O   . % O > K D o     O ",
"T.J.N.1./ K g g ; k e : : O O > . ~ ; :   - O     O   . : r O - % 9 9 k B Y ^ ( <.wX_.@.( W L l ( e ; % ; - 9 :   o ) q.      O ",
"_.J.9.1.W B g w 9 % % O O w - % . * . O >         o > o > > O & % 9 9 j B Y ^ ) 1.}._.@.) ( Y L K w q & f 0 - - . ; l ` o   o   ",
"_.J.K.<.W L g f I % o % O - > .     & - & O       O > & o O > ; & ; 9 k L ( ( ) 2.'.].) ) 2.@.( k k 9 > % > . > : ; - O & & O a ",
"_.U.K.<.W L f f k % . + . & w % O - & O > O       ; - % O O o & ; w e K Y L W @.1.T.'.1.) W ! U K I e 9 O ; w & - 9 & O 0 a % > ",
"_.U.J.3./ L k w 1 % O - o > h : . O > .         o ; : - f -   ; - w 9 g l L W ^ 1.T.'.1.) ^ U ( h l K 5.1 e 9 0 e O & O o ; .   ",
"`.).J.3./ L g B ; * : O . 0 0         . & O   k       k K w O o + - 9 e l Y 1.1.) L.T.2.3.` Y U K r z 7.j 0 Y h 0 O > 9 - +   > "
};
