/* XPM */
static char *result[] = {
/* columns rows colors chars-per-pixel */
"64 64 225 2 ",
"   c #020102",
".  c #090606",
"X  c #0B0807",
"o  c #0A0708",
"O  c #0D0A0B",
"+  c #070807",
"@  c #120D0D",
"#  c #130A08",
"$  c #15100E",
"%  c #1A120F",
"&  c #130F10",
"*  c #141212",
"=  c #1A1514",
"-  c #1D1916",
";  c #1B1718",
":  c #1D1A1B",
">  c #26120D",
",  c #201714",
"<  c #231916",
"1  c #231C1C",
"2  c #2A1E1B",
"3  c #291A16",
"4  c #301D18",
"5  c #22201F",
"6  c #2C211E",
"7  c #38241D",
"8  c #231F20",
"9  c #252223",
"0  c #2B2424",
"q  c #2E2729",
"w  c #2D2A2B",
"e  c #322624",
"r  c #342926",
"t  c #332C2C",
"y  c #3A2D2B",
"u  c #392A26",
"i  c #3C312E",
"p  c #352E31",
"a  c #382F32",
"s  c #353233",
"d  c #3B3434",
"f  c #3D3639",
"g  c #3E3D3D",
"h  c #42241A",
"j  c #502A1D",
"k  c #41322E",
"l  c #4A3226",
"z  c #58352A",
"x  c #433533",
"c  c #463936",
"v  c #493935",
"b  c #423C3D",
"n  c #4B3D3A",
"m  c #473634",
"M  c #523C39",
"N  c #422E28",
"B  c #603B2D",
"V  c #4D413D",
"C  c #53423D",
"Z  c #5B433E",
"A  c #67453B",
"S  c #774737",
"D  c #453E41",
"F  c #4A3F42",
"G  c #464143",
"H  c #4B4345",
"J  c #4D4649",
"K  c #4F494C",
"L  c #534543",
"P  c #5A4744",
"I  c #564945",
"U  c #5B4946",
"Y  c #514649",
"T  c #534B4D",
"R  c #5B4D4A",
"E  c #5E514D",
"W  c #564E51",
"Q  c #594E52",
"!  c #5B5155",
"~  c #5E5459",
"^  c #5F5E5E",
"/  c #565354",
"(  c #634D4A",
")  c #674B45",
"_  c #64514D",
"`  c #6A514D",
"'  c #78554B",
"]  c #635452",
"[  c #6B5552",
"{  c #6B5956",
"}  c #61565B",
"|  c #645A5C",
" . c #6C5C5B",
".. c #665855",
"X. c #735955",
"o. c #7B5C56",
"O. c #735C5A",
"+. c #7A5E5B",
"@. c #745651",
"#. c #644F50",
"$. c #73615E",
"%. c #7C615E",
"&. c #665B61",
"*. c #6A5E63",
"=. c #745F61",
"-. c #6C6066",
";. c #6E656A",
":. c #736263",
">. c #7B6562",
",. c #7B6966",
"<. c #77686B",
"1. c #796D72",
"2. c #7F7F7D",
"3. c #7E7579",
"4. c #8A543D",
"5. c #835D54",
"6. c #8B5E53",
"7. c #88594A",
"8. c #85635D",
"9. c #97675B",
"0. c #A56B55",
"q. c #836563",
"w. c #836A66",
"e. c #836D6B",
"r. c #8B6D6A",
"t. c #8A6865",
"y. c #986D67",
"u. c #8B726D",
"i. c #85706D",
"p. c #97716C",
"a. c #8C7574",
"s. c #82767B",
"d. c #87797B",
"f. c #937572",
"g. c #9C7672",
"h. c #957B76",
"j. c #9A7C79",
"k. c #846E73",
"l. c #A3756D",
"z. c #A97468",
"x. c #B67B6B",
"c. c #A27A74",
"v. c #A87D78",
"b. c #9E837D",
"n. c #A2827D",
"m. c #AC837D",
"M. c #B3847D",
"N. c #BB8577",
"B. c #C88C79",
"V. c #C88B74",
"C. c #8A7D83",
"Z. c #8E8688",
"A. c #938589",
"S. c #988282",
"D. c #998D94",
"F. c #9E9E9B",
"G. c #9D9299",
"H. c #AC8682",
"J. c #AB8983",
"K. c #A88986",
"L. c #B38580",
"P. c #B48A84",
"I. c #BB8C85",
"U. c #B58E8A",
"Y. c #BD8E89",
"T. c #BB928C",
"R. c #B5908A",
"E. c #A4959B",
"W. c #B89794",
"Q. c #A599A1",
"!. c #AA9EA4",
"~. c #B29BA0",
"^. c #ACA0A6",
"/. c #AFA2A9",
"(. c #B1A4AB",
"). c #BFBEBB",
"_. c #BEBBB7",
"`. c #BAB3AE",
"'. c #B8B199",
"]. c #C08E85",
"[. c #C3938C",
"{. c #C9968D",
"}. c #C9968A",
"|. c #C39792",
" X c #CE9C94",
".X c #C79B95",
"XX c #D29D94",
"oX c #D29989",
"OX c #D4A39B",
"+X c #DAA599",
"@X c #CCA29A",
"#X c #E3AB99",
"$X c #D9AAA3",
"%X c #E3AEA3",
"&X c #E4B3AA",
"*X c #EBB6AA",
"=X c #EBBBAB",
"-X c #E6B4A7",
";X c #EDBDB2",
":X c #E5B8B1",
">X c #F1BEB4",
",X c #EEC1B5",
"<X c #F4C5BB",
"1X c #F4CABB",
"2X c #F2C5B5",
"3X c #F7D1BE",
"4X c #CECEC9",
"5X c #DEDDD6",
"6X c #DEDACE",
"7X c #FACEC2",
"8X c #FADDCB",
"9X c #F7D5C6",
"0X c #FCE4D2",
"qX c #FCEAD5",
"wX c #FCEDDA",
"eX c #F7E5D1",
"rX c #FDF3DE",
"tX c #FBE0CE",
"yX c #FDF5E3",
"uX c #FDF9E5",
"iX c #FDFCEC",
"pX c #FFF7E8",
"aX c #FDFDF3",
"sX c #FDFDF9",
"dX c #EDEDE5",
/* pixels */
"  O                       O 8 9 * % % 1 . . - y L ] R R ]  . ...| <.Z.3.T J G g d q 8 = O . . .     . .                     .   ",
"                            . X @ - = # X @ d H T ] ! ] $.:. ... .<.d.Z.W K H g s q 8 = & O +                                   ",
"                            X * 6 r e - O @ d L L E E ] $. .{ ..$.,.b.Z.! T H b s q 8 ; & & O .                                 ",
". .                       X = 6 0 i i 0 , 2 n U L E E _  . . .$.,.<.3.Z.| W H b d t 9 : & o                                     ",
".                         O 5 y 6 0 i d y x _ I ]  .{ { $.:.,.w.i.<.1.Z.=.] Q W c i s s 5 * . X                                 ",
".                         - q y 0 6 y n I I E R  .$.$.{ $.w.u.a.a.i.,.Z.<. . .} H f b H d : & +                                 ",
"                          * 1 r x c I I ] _ E U :.>.O.O.w.u.h.f.f.i.,.b.k.:.=.| T H T R V 5 $ .                                 ",
".   .                     X % d ! { $.$.$.{ _ U %.i.r.u.u.j.b.b.h.u.e.a.d.<.,.:. .] ....H i : X                                 ",
". .   .                   X # x ..,.$.,.$.%.O.) w.b.H.K.K.K.U.K.b.h.a.a.C.e.,.,.:.[ ....R L f 9 - * o                           ",
"                          X q L _ $.w.u.i.u.r.%.c.m.R.W.W.T.W.R.K.b.h.h.j.r.,.i.,.[ _ ] R L n c r 9 @                           ",
".   .                     @ i L E $.w.b.h.b.b.f.m.R.|.OXOX@X|.T.J.H.n.n.C.r.e.k.,.{ _ E I c x y 0 & X                           ",
". .                       @ t C _ ,.a.n.n.J.m.m.M.[.$X2X<X&X$XOX|.R.U.U.U.f.f.p.w.$..._ R x e , # .                             ",
"                      O X . X 6 E e.u.n.J.M.M.Y.{.+X,XtX0X9X2X1X&XOX|.U.R.K.C.l.u.>. .] _ n e , @ .                             ",
".   .               = b r X # 6 Z %.r.n.J.R.|.OX-X,X8XqXrXrXqX0X2X&X XY.U.U.].C.f.>.X.[ [ L 0 0 1 # .                           ",
".   .             . y L u * r V P $.t.n.R.OX:X,X8X8XeXrXrXuXrX0X7X;XOX].T.W.U.U.c.q.O.[ [ P y r e - @ .                         ",
". .               . 6 V 6 6 c I [ %.u.W.@X,X1X3XrXrXuXuXuXuXrXqX8X<X%XXX$X@X|.U.n.r.>.[ [ ( ( n 2 = 8 =                         ",
". o o             X , r 2 d F _ [ q.c.|.OX;X9XwXuXiXiXiXiXiXyXrX0X7X;X&X&X$X XY.c.r.q.X.[ [ X.P r 3 r y #                       ",
". .   .             # < 2 v v #.o.p.P. XOX1X0XuXiXaXiXiXiXiXiXuXwX8X9X8X9X:X$X|.C.f.q.O.X.@.#.F v y y r O                       ",
".   . o : : *       X 6 2 v P o.5.v.[.OX%X9X0XuXiXiXaXaXaXaXaXiXpXyXwXwXwX<X$X.X].c.r.q.X.X.#.) v x r 1 X                       ",
".     : n n x @     . # % N ) t.m.[. X%X1XqXrXuXiXaXaXaXaXsXsXaXaXaXpXwX0X<X:X XI.v.f.q.+.X.) M n m y 8 #     .                 ",
"X   X 5 H I V - . . % 6 > h A b.T.OX+X:XeXrXyXiXaXaX4Xg g G g sXsXsXaXyX8X,X&X XI.v.p.q.=.X.#.F v M m e , < , $                 ",
"o . . 1 c I V 6 1 < 6 u 7 z ' l. X:X1X8XuXiXiXiXaXF.s   s Z.  g g g 4XiXyX0X7XXX].v.g.t.q.X.#.) C n x u r 0 1 X                 ",
"o . X y V F L i c u u N h A 7.M.$X9XwXuXiXiXaXaX).g   5 F.).        ^ 2.5XdX7X%XoXB.g.r.q.@.` #.( v k e e 6 % .                 ",
"O . = i n x x c _ m m C Z ' b.].*XtXuXaXsXF.)._.g     g sX).            $XpXwX*XXXC.c.r.8.X.` #._ m u e 7 , % X . 9 O           ",
". o ; d k y e i V m v ` %.p.M.}.,XrXiXF.2.5 g g   g ^ g sX5X2.          _.yXqX<X+XC.N.y.5.[ ` ) ( v 6 1 , 2 % O X # .           ",
". o : t e 2 r c x c Z ` 8.y.M.+X,XrXiXE.5         g ^ g sX5X2.+ 2.2.2.2.5XuXwX=XXXY.v.y.q.[ ) Z n l 6 , % # # O @ O X .         ",
"o o * 2 0 0 t x r x C ( %.y.N.+X2XyXiX4Xw             s ).Z.    ).aXaXsXaXyX0X&X{.x.g.q.X.@.( F k y 6 3 - # X # O X X           ",
"X o X @ = < * 1 6 7 V X.8.c.T.+X1XrXaXg               & g w       _.dXaXpX0X7X&XoXC.p.5.@.#.F Z m u 4 % $ X .     .             ",
". o O .       X 6 x C _ %.y.M.@X2XrXaXg         5 5   g iX`.      V 4XaXwX7X>XOX].c.y.+.` ( n k u e 3 $ # X                     ",
". . .         . 6 c C Z A 8.l.}.,X0XuX<.&       ^ ^   g iX'.      sXaXiX8X;X&X XI.l.q.=.( ) F r 6 3 , @ X .                     ",
"o   . .       O 1 1 k P ) 8.l.}.-X9XrXaXg             g uX'.      aXiXwX1X%X+X|.C.l.q.[ ) P L e 1 , = # .                       ",
"o .             O r n ( ` 8.y.M.oX#X3XuXaXg           g aXdXsX  aXaXuXtX>XXX{.L.c.q.+.[ P L n e < < = # . X .                   ",
"+ .   . +       O q v P P @.t.l.V.V.#XtXiXaX2.                sXaXuXtX<X%X X].K.g.q.X.#.F P c y 0 < % - 1 % $ .                 ",
".   . O O         # 1 y C ` 8.8.0.x.V.2XyXiX2.            V aXaXiXqX7X&X+X].P.K.r.=. .#.P F v v u 6 , , 6 6 #                   ",
"O + . .           . X % 3 M ) S 7.0.N.#X8XuX6X&.    p ).).4XaXuXwX1X=X+XoXC.C.|.,.=.X.[ ( L n L y k u 1 0 1 #                   ",
"o   .         &         . 4 h l S 4.0.B.*X8XwX6X^   g aXaXuXqX9X>X+X+X{.].v.j.~.k.=. .] U L C P n c u < % X .                   ",
"o .           9   .     # 3 7 h j S 7.N.XX*X2X8X6X_.4XiXeX3X,X-X#XXXoXC.l.f.f.E.k.=.*.] R P L F v d y 1 #                       ",
"O     .       : 1 X . O 5 6 6 4 7 B S z.Y.oX#X=XeXwXqX9X=X+XB.oX].x.v.y.y.t.t.E.d.=.O.! T L L L v i u 6 O .                     ",
"o . .         . * O X X 6 y 7 6 7 l A 8.l.N.}.+X-X-X-X%X+XB.x.N.v.y.q.8.q.q.q.E.A.=. .#.Y F L m i 0 0 - X .                     ",
"O .   . .             X 6 5 6 6 7 u l A t.9.z.N.N.B.N.N.x.0.9.9.' ' #.[ *.=.=.G.E. .| ! L F n a 0 1 3 $ X # .       .           ",
"& . o               . X O 1 d c v l i C ' ' ' 6.9.z.0.9.7.' ' o.o.) ) #.]  .=.C.(.&.} Q J W W H c = 1 & & * O   .               ",
"O .   o . . : &     . O # = r r i 7 i { C Z Z z z ' t.8.A A ' ` #.F Q #.Q ;.1.C.(.} ~ W W J F ~ f 1 } 1 @ @ o     .             ",
"& + . o   . &       X + X 1 e 6 6 i { V 7 l l h h A %.@.A M Z ` #.m F F T } ;.A./.} ! T K F ~ D 8 1 1 & X & O                   ",
"& & o .     .   + f J +   X O < 5 d r $ X 7 7 > > M ` _ C m v V F M F F T Q } s.`.1.! W K F F 3.9 & O o . : &     .             ",
"; & o o . .     . p *     X $ * O 9 O X X X X . # i L P y u i y n F H H Y Q Q ;.Q.*.Q T T D f &.p * & o O * O .                 ",
"8 & O o + & . +       : : 0 @ O : 9 X 9 + .   X # b n v 6 = = q m F Y H Y T ~ ;.G.&.Q T F g f w r : ; O * 5 *                   ",
"8 = & + . . o       + w J K . X * d s 5 + $   X X y x V r = # = 0 F H H Y Q -.s.G.*.~ T J D f f ~ p q & O w * .                 ",
"8 : & o o .     +   . & ^ $   . * X ; w ; w .   X # 0 c r * @ * q q a F Y W ! } !.G.C.W K D f T 8 : : & O o . O g               ",
"q 2 ; @ o .     .   & q g O   f *     . & s 9   * . t D 0 & O & p q p g F F W &.(.Q.1.! W D f f 8 w W K * O 9 +                 ",
"p 8 1 & O o . o :   O p D     G + . s ; O K K     O - b b O X @ ; 9 w F K W W ~ Q.G.~ / K F f s 0 8 0 & & p q   + 9 O           ",
"x q r 9 o o o   O 9 J ^ p + + 9 *   &   + 5 G       @ s 9 X O * 8 8 p g D W W ~ D.Q.&./ W D g s q : 5 & o & O o 8 9 & +         ",
"D D q 8 & o o .   * * O + * . .   .     + + * +     X : * . & * q 9 p f D K ~ ~ C.(.-.! W F g f p 9 = O o o s : s       .       ",
"x a q : & o o .     .   . +   +   .       .             X * + : 9 8 w s D K ! ! s./.;.~ T F D f w 8 * & o o s / .   +   : O O * ",
"D a w 8 & O o o . .     . + 9 O       +             .   O ; s O ; 8 q f D K W ~ 1.^.1.~ W K F f p : * & o : K f * + +   + + O w ",
"F f p 8 ; O O . O     +   O g &   + *       +     X   . . : / O * 8 q s D F K ~ 3.(.;.~ W W K f w 0 ; & o O O O ;       O + + + ",
"F F s 8 ; & @ O * .     + + O +   + + + 5 9 * +   ; O +   O . O * 8 w s D W W ~ 1.(.s.~ W K D D J s ; : & + O o . G f *       O ",
"Y f p 0 : & O O &   &     + O   +     + * * O   O * w & + o o o ; 8 9 s D K W ~ 1.(.C.~ Q J K g p 8 ; : : & + & . & W s s + +   ",
"W D f q 8 ; & f o       +   +         + : : +   + + o o : ; * O * : q s g F ~ &.;.(.Q.&.~ T H f p q : & ; =     9   w & : *   + ",
"~ D f p : * O s .               +       O & & + + + o & ; O O * 8 : q f D F K ~ &.!.Q.~ ;./ F D p q 8 : & o   & 9 . 5 * + & & + ",
"&.F D f 8 = O & .   .   o +     9 O   & O + * * o + O * O & & ; & : 8 f D D W &.&.Q.Q.~ &.! K D p p w f & o o   ; 8 w O O     . ",
"~ F D a 8 ; O + o O .   +   .   * +   O   & ; : +   o O 8 o * ; & w q f F ! ! ~ &.G.Q.&.&.~ K g p q 8 * + O . o + = * O +       ",
"&.J F a q 8 & & . +   * : & + + +   O * + ; +   + & o & ; * O & & : 8 f D D F K &.D.!.*.~ T F D s q 8 & & +   = *     .   + +   ",
"&.Y F f p * & :   O . : * o .     ; : * + O & * 8 &   . * q o & O ; 8 w g D K / ~ G.(.*.~ W F D g w 8 * & O   .   +     +   +   ",
"*.Y D p w ; & = ; O . o   * : +   $.9 * &   & ; 8 w * & o O & & O ; 8 p f F K ~ ~ C.!.;.~ *.K W D w 8 * 8 ; o .   O J /     +   "
};
