/* XPM */
static char *result[] = {
/* columns rows colors chars-per-pixel */
"64 64 221 2 ",
"   c #020202",
".  c #090606",
"X  c #0B0806",
"o  c #0A0708",
"O  c #0C0A0A",
"+  c #120D0D",
"@  c #160904",
"#  c #14110E",
"$  c #1B120E",
"%  c #130F10",
"&  c #151213",
"*  c #1B1514",
"=  c #1E1816",
"-  c #1B1719",
";  c #1D1A1A",
":  c #24140D",
">  c #221916",
",  c #231C1C",
"<  c #291E1B",
"1  c #281814",
"2  c #341C14",
"3  c #23201F",
"4  c #2B211D",
"5  c #36241D",
"6  c #241F21",
"7  c #291F20",
"8  c #252223",
"9  c #2B2424",
"0  c #2C2728",
"q  c #2D292A",
"w  c #2F2825",
"e  c #312523",
"r  c #332926",
"t  c #332C2B",
"y  c #3A2D2B",
"u  c #3C312E",
"i  c #32302F",
"p  c #342E31",
"a  c #353232",
"s  c #3C3334",
"d  c #3C3639",
"f  c #3E3B3C",
"g  c #42251D",
"h  c #41332F",
"j  c #4C342C",
"k  c #423633",
"l  c #443935",
"z  c #4B3A35",
"x  c #433B3C",
"c  c #4A3D3B",
"v  c #4A3735",
"b  c #543C36",
"n  c #4C2E25",
"m  c #683A28",
"M  c #4D413E",
"N  c #54433E",
"B  c #5D443F",
"V  c #694438",
"C  c #7E4938",
"Z  c #443D41",
"A  c #493E41",
"S  c #454142",
"D  c #4B4345",
"F  c #4D4649",
"G  c #4E494B",
"H  c #534543",
"J  c #5B4643",
"K  c #544946",
"L  c #5C4946",
"P  c #524B4D",
"I  c #5C4D4B",
"U  c #52474B",
"Y  c #5E514E",
"T  c #564E52",
"R  c #594F53",
"E  c #575154",
"W  c #5B5255",
"Q  c #5D5459",
"!  c #5F5F5E",
"~  c #644B45",
"^  c #624D4A",
"/  c #694B45",
"(  c #724D43",
")  c #63514E",
"_  c #6A524C",
"`  c #73524B",
"'  c #645553",
"]  c #6B5552",
"[  c #6B5956",
"{  c #62565C",
"}  c #64595D",
"|  c #6B5C5B",
" . c #665957",
".. c #735A55",
"X. c #745D5B",
"o. c #7B5E59",
"O. c #755953",
"+. c #624F50",
"@. c #73615D",
"#. c #7C625E",
"$. c #6F615F",
"%. c #675D62",
"&. c #725F61",
"*. c #6C6165",
"=. c #6F696B",
"-. c #746362",
";. c #7B6563",
":. c #7C6966",
">. c #72666B",
",. c #766A6B",
"<. c #7B6969",
"1. c #766B71",
"2. c #796D74",
"3. c #7F7F7D",
"4. c #7E7177",
"5. c #835B54",
"6. c #945E52",
"7. c #8E5847",
"8. c #84615A",
"9. c #8B635B",
"0. c #976557",
"q. c #A86B59",
"w. c #856A65",
"e. c #8B6B66",
"r. c #836C6A",
"t. c #8B6E6B",
"y. c #846663",
"u. c #956C66",
"i. c #8B726D",
"p. c #85716D",
"a. c #94716D",
"s. c #99746D",
"d. c #8C7471",
"f. c #867678",
"g. c #937572",
"h. c #947A75",
"j. c #9D7A74",
"k. c #9C7D79",
"l. c #997773",
"z. c #A8756A",
"x. c #A47974",
"c. c #A77C76",
"v. c #AC776B",
"b. c #9D817D",
"n. c #A4827E",
"m. c #AC827D",
"M. c #B3847C",
"N. c #B98477",
"B. c #C48A7B",
"V. c #C2846B",
"C. c #877C82",
"Z. c #8C8186",
"A. c #98878A",
"S. c #968991",
"D. c #9C8E94",
"F. c #9D9199",
"G. c #AB8983",
"H. c #A78682",
"J. c #B38984",
"K. c #B58E89",
"L. c #BB8F8A",
"P. c #B78882",
"I. c #BD918B",
"U. c #B5918D",
"Y. c #A38E94",
"T. c #A4989F",
"R. c #A2969D",
"E. c #BE9892",
"W. c #AA9DA5",
"Q. c #A69AA1",
"!. c #B2A5AC",
"~. c #BFBBB9",
"^. c #B7AAB1",
"/. c #C58E84",
"(. c #C3938A",
"). c #CA9689",
"_. c #D59A8D",
"`. c #C39993",
"'. c #CC9C94",
"]. c #C99D97",
"[. c #D69E91",
"{. c #D3A49C",
"}. c #DAA59A",
"|. c #DCA799",
" X c #E3AE9E",
".X c #DDACA3",
"XX c #D5A8A1",
"oX c #DFB0AC",
"OX c #E4B3AA",
"+X c #E8B7A9",
"@X c #ECBCB3",
"#X c #E7BCB4",
"$X c #ECB6A9",
"%X c #EEC2B4",
"&X c #EFC6B9",
"*X c #F3C4BB",
"=X c #F5CBBC",
"-X c #F3C4B7",
";X c #F5D7BF",
":X c #CECECA",
">X c #DEDED9",
",X c #DDDED7",
"<X c #F5CCC1",
"1X c #F9CCC1",
"2X c #F9D4C5",
"3X c #FBDBCA",
"4X c #F9D5C8",
"5X c #F7E1CB",
"6X c #FCE5D2",
"7X c #FCE9D6",
"8X c #FCEEDB",
"9X c #F5EEDB",
"0X c #FDF2DD",
"qX c #EEEEE9",
"wX c #FAEFE1",
"eX c #FDF5E2",
"rX c #FDFAE4",
"tX c #FDFDEC",
"yX c #FAF7ED",
"uX c #FDFDF4",
"iX c #FEFDF9",
/* pixels */
"  o                       o , ; # + + *   o , t A I H D Y ' ' Y Q *.2.=.G S f a i 6 ; & O o .       o . .                       ",
"                            . . + = & O . + q z M P K K '  .' W  .-.4.b.G D x d i 9 ; & + o                                     ",
"                              & > 4 < # o + r c c K K K  .' ' Y  .$.f.A.R D x d p 9 , & + O o                                   ",
"                          X # < > 9 w 4 * > k D M K K K ' '  .| *.$.1.A.{ U A f a 0 6 - + o                                     ",
"                          X > 9 3 = 4 r 4 i K M K W Y Y  .| @.-.<.-.,.A.| I P P a p q q ; # . o                                 ",
"                          & < 9 4 > r M M M H M I ' ' Y  .-.<.p.<.-.,.Z.*.{ ' W M a f M a ; O .                                 ",
"                          # $ 4 u u M N Y K N M '  .Y ) X.:.p.d.d.=.-.f.,.%.} ' G M G K l = + .                 .               ",
"                          . O t K Y ' '  .Y H z [ @.@.#.:.p.g.d.d.:.-.f.f.-.-.| Y Y Y Y M s ; X                                 ",
"                            + y I | | | [ _ ) N @.p.i.b.b.b.b.b.b.p.<.p.f.<.-.*.| Y I Y K M u w & # .                           ",
"                          . 4 c K ' @.:.@.#.@._ e.g.b.n.n.H.H.n.b.i.d.d.h.<.&.-.X.I K I H c s l 9 ; O                 . o       ",
"o                         O q c K ] ;.p.r.p.i.w.a.b.G.K.U.K.G.G.b.h.b.d.h.:.;.:.[ ' I H M s r 9 = O                     .       ",
".                         # w s K @.:.g.h.h.b.x.x.m.I.].{.].E.E.m.n.b.b.A.r.y.:.@.| ) I J s 9 $ X                           .   ",
"                      + o . . > K @.:.i.k.k.c.J.J.(.{.OX@X@X@XoX`.I.G.n.H.g.d.r.:.X.) ) I c 3 = &                               ",
"                    ; l w X + > l [ @.h.k.G.K.`.{..X-X=X=X3X4X@X{.].L.n.b.b.h.d.r.X.' ^ Y c 4 4 < O .                           ",
"                    w c < + 4 s M ) ..g.n.`.XXOX*X<X2X3X3X7X7X<X+X{.I.m.H.H.k.h.i.X.] Y Y N r 9 w > + X                         ",
"                  . = u * , u N L _ #.k.K.XXOX-X7X0X0X0X0X8X7X6X1XOX'.I.U.U.H.k.d.X.[ ) L Y I u > + > >                         ",
"  .               . + > > r k H B ] e.G.I.{.@X3X0XrXrX0X0X0X7X6X1X$XXX'.`.`.G.k.e.&...] ^ ^ +.b e > r y +                       ",
"          .         . * , s h J ~ #.l.J.I. X-X6XrXrXrX0XrXrXrX0X3X1X@X@XoX].J.k.g.:.X.[ ' +.I ~ v r r 9 +                       ",
"      . ; 6 &       . = * k z ] O.a.c.(.'.-X=X7XrXrXrXrXtXtXrXrX8X7X4X-X#XXXL.m.l.e.8.[ ' ^ ^ A z u 4 > X                       ",
".   . = d l y +       @ @ e b o.s.m.M.`.OX2X3X8XrXrXtXtXtXtXtXtXuXrX7X1X@XXX`.G.l.a.y.X.] ' A v l u e < O                       ",
"  .   ; l D l +   . + > @ 1 b e.m.L./._.=X6X6X0XrXtXtXyXuXuXuXuXtXtXrX3X@XXX'.J.j.t.y.X.] ] J b h h u 4 * * $ #                 ",
"X   . = k M l > > * < < 1 h V 9.N.'.|.%X6X0X0XrXtXyXuXuXuXuXuXuXiXuXuXeX4X@X}.P.c.a.w.o.X._ ^ A M h y e 9 < = X                 ",
"    . q l s M r u 9 e 4 1 j _ u.N. X&X7XrXrXrXtXyXuXuXuXuXuXiXuXuXuXuXtXeX4XOX(.m.a.w.;.X.+.~ ^ I k y e 9 < + X                 ",
"X . & r u r r u H k y z j ( e.x.(.%X6XrXtXtXtXuXuXiXuXiXuX,X3.iXuXuXuXtXrX4X-X`.M.a.e.y.O.+.^ ^ L h e 4 < $ O .   , o           ",
". . & y r 4 < 9 k y h J ~ #.a.v._.=X0XtXtXuXuXuXuXiXiXiX,X!   iXuXuXiXuXeX4X*X'.P.x.e.5.X.+.^ A J h < = > > + . o O .           ",
"  . & 9 > * 9 y r u k N ..O.u.N.{.;X0XrXtXuXuXuXiXiXiXiX>X3.3.iXuXiXuXtXeX3X1X(.c.g.t.X...^ ~ c v y < $ + X . O O o .           ",
"    O = > < 4 r 4 5 h N ^ #.s./.{.<X0XrXtXuXuX,X>XiXiXqX:XiXiXiXuXuXtXrX7X1X*XL.x.u.e.X.] ^ J b y e 1 $ $ X . . o X X           ",
"  . . O + # # * = 4 k ~ _ 8.x.M.|.=XeXtXtXuX,X! 3.iXiX:X=.iXuXiXiXtXtX0X2XOXoXI.x.w.y.] ^ ~ A b k 9 > $ + .                     ",
". . o         . 3 y M N ~ O.u.M.{.-X8XtXuX:X!   ! ~.~.:XiXiXuXiXuXtXtX7X@X}.].L.x.w.&.] L J z y 9 < > @ + .                     ",
"    .           = u k v N / 9.c._. X5XrXtX=.3 8 f 3   f iXiXuXiXuXeXeX4X$X'.`.J.s.w.o.] J H z 9 , > $ + X                       ",
".               # = r M b _ 9.c.B.|.&XrXuXuX3.3.iX3.  S iXiXuXuXtX9X6X=X X/.L.H.a.;.X.+.H A c 9 > $ + O                         ",
".               X 4 u H N _ o.0.N.B.[.5XtXuXuXuXiX3.  f uXyXuXuXtX0X4X$X_./.C.k.y.X.] ^ H A v < & * & X . . .                   ",
"      .         X 9 u l z ~ O.8.q.q.V.@X8XrXtXuX3.    f eX8XuXtXrX3X@X}.).M.c.g.&.X.] K c A k e , % + : > $ X                   ",
".     o .         X & < u N _ ` 7.6.q.[.2X0XrXtX3.3.~.f 9X5XtXeX6X@X X'.P.x.s.A.:.| +.J c c k k e , > * < < +                   ",
"      .             . + $ y b j V 7.q.V.+X2X7XrX>X>XqX:XwX;X7X3X@XXX).N.C.a.t.Y.d.| ' I H c v c r y < * 4 > O                   ",
".                       . 1 2 5 n m C q.).+X-X6XtXtXtXtX8X;X-X X_.N.c.c.z.y.r.Y.>. .' ^ J A A c h h e * + X                     ",
"                        X $ : : 2 m m 0.N.B.|. X5X0X0X3X$X X_./.c.c.x.a.e.y.&.Y.;.} ' I L A c x y y r > o                       ",
"  .           .     . X # $ $ $ : 2 b 5.u.N.N.B.|.%X%X|.).N.q.v.z.9.u.y.&.&.&.Y.f.| { U A A A c d y e < %                       ",
"  .           -   . o . * 4 : $ : 2 j ` 5.0.q.N.N.N.N.B.v.0.6.u.5.` ] ] X.&.&.Y.A.[ { P H A A H x t 7 * o                       ",
"              8   X   . > = = * > 5 5 b _ ` 8.u.0.6.0.0.6.5.( ` ~ J A L R ] %.S.R.{ { R A Z x k 7 > - % o . .                   ",
".             ; 3 O   . O O X = r r 4 5 b B V / ` 5.5.` ` V V ~ ^ +.A ^ R +.{ C.!.%.R U D Z A k 7 & + O + & O .   .             ",
".     .             . o O # ; 9 r > 1 r l z n 5 g ` .._ j j N N J c A U P T W 4.!.Q Q U Z Z d p 9 % + O O & o               .   ",
"      .               . X ; a w 4 * # 4 y y 5 1 5 L ) ~ v h j c H k v A U T T 1.W.Q T U D Z d i p % + O o O .                   ",
".   .       & & .       . O ; & # . . = = $ # # = r N J l r r u x k l c D P Q >.Q.Q T G S S F G t - % O           .             ",
"O           ; o         . . O O . # f G -   .   . e k c e - < e s k k Z D %.=.%.Q.Q T G D D T F p , T ; . . .                   ",
"o . .     +         + .     O # & q a O       . . s l y > + + r y x d x D T %.1.F.%.T T F Z Q G 6 & 8 % . ; &     .             ",
"o o .   .   o     S G .       ; & 8 & .   O X X . 9 r k e % # # , k k Z Z T R f.W.1.T T P D f C.0 & + o . - O                   ",
"O o o           O 0 O   . &   . . - o 8 O o .     X , x y q 9 & * 0 Z f Z G U R Q.C.R U U x d E a - % O & & &                   ",
"% o o .   .         o a Q F     ; O a i . .         * a ; + X = & 0 p d Z F E Q Q.C.T T D Z d a Q , % O % 0 &                   ",
"% + O     .           O Q O   . & q & ; % & .   O . - a , O X + t 6 0 Z Z F T >.S.R.%.T F Z d E 7 6 ; % O O % o 0               ",
"- + + - .           & a D o   i - O . . ; a 8   & X ; a 3 X . O 0 6 0 f Z F E %.C.^.C.Q G Z d Z 6 p p a & o % O q               ",
"- % O O .     . O   o & a     f o . . % & E E . . X O ; 8 . . O % 6 q a f F T Q 4.!.>.T T Z f d 0 0 p ; O 8 q     o             ",
", % % o   . . . &   & i 0 + O 3 O   q & . i f         X .   o O ; 6 0 p Z F P T 2.W.=.T T Z Z a 9 ; & + & 6 - O o q &           ",
"r 0 , o o   o   . i F D ; +   3 &   O .   O .       .   o . O & 0 , 0 a F F P T 2.Q.1.T P F f d q 6 6 %   O 0 % a & .   o       ",
"0 p - o o   .                 o           .       .     .   o 3 q , 9 p Z A T T 1.W.1.T P Z Z a q 6 - + . . 0 q q       3 O   o ",
"e 6 * O o     . o   . .   . . .   .         .     .   . o + O O - 6 8 p d U P T >.^.C.T T P Z d p q - O o .   d         . o + 8 ",
"q 6 ; % O .     %   .     % S % . . . o .   .           o O O O % ; 8 p f D F R %.^.C.Q T T T d q 0 - % o ; E E ;       O O   3 ",
"p t 0 & % o O O .     . o   O     o O   . 3 & .     . .   - T O % ; 6 p d Z F Q %.W.F.Q T A Z Z F a ; ; % % & O O ; .   .     . ",
"p 0 6 & O o o % O O % . . . O .   o . . % & % . o - i %   o & O ; 6 6 p d F F R %.Q.R.Q T A U Z d i ; ; & O O % . x G -   o . . ",
"s 0 8 & O o   3         . o O         . i - O . . & &   - & & O % ; 6 p d D F Q *.S.F.Q Q T A Z p 6 8 & & O o   O o D a 8 o     ",
"x t 7 ; O + o a           .     .     O % O & o . . . & & O % & - - 8 q a S T E Q S.F.%.%.Q A f p 8 ; & - -     O   8 - ; -   . ",
"A a a 7 + o o % .               i %   .   o & o &   . & O O % ; + , 6 a d Z G T Q S.Q.%.%.E U Z p 8 0 ; & %   . 3 % q & O O % . ",
"Z p 0 6 + O . .   .             &     % o & &   % o     ; o % & + 0 8 f Z Z E } Q S.W.%.%.Q F f p 0 8 d % o     % 3 q O O   . o ",
"Z p t 6 & % O     .   O & % o O .   & 8 O &   3     o O % % O + + & ; p f G F P E C.W.>.Q T F Z a i ; 6 O . . O - &   O     .   "
};
