/* XPM */
static char *result[] = {
/* columns rows colors chars-per-pixel */
"64 64 212 2 ",
"   c #020101",
".  c #090606",
"X  c #0B0807",
"o  c #0A0708",
"O  c #0C0A0A",
"+  c #070807",
"@  c #110D0D",
"#  c #180F0F",
"$  c #15110F",
"%  c #19110F",
"&  c #120F10",
"*  c #151212",
"=  c #1A1514",
"-  c #1D1917",
";  c #1B1719",
":  c #1D1A1A",
">  c #211917",
",  c #221D1C",
"<  c #281D18",
"1  c #321D18",
"2  c #26201E",
"3  c #2A211E",
"4  c #32241F",
"5  c #231F21",
"6  c #242122",
"7  c #2B2424",
"8  c #2E2826",
"9  c #2C2728",
"0  c #2E2A2B",
"q  c #332624",
"w  c #312926",
"e  c #332C2C",
"r  c #3A2E2B",
"t  c #372927",
"y  c #37302E",
"u  c #3B312E",
"i  c #352E31",
"p  c #382F32",
"a  c #363233",
"s  c #3B3434",
"d  c #3C3639",
"f  c #3E3A3B",
"g  c #43332E",
"h  c #4B322B",
"j  c #55362F",
"k  c #423634",
"l  c #423836",
"z  c #493A35",
"x  c #413738",
"c  c #443B3C",
"v  c #4B3D3B",
"b  c #4B3631",
"n  c #523935",
"m  c #533D3A",
"M  c #543632",
"N  c #422E27",
"B  c #623D3A",
"V  c #4D413E",
"C  c #52423E",
"Z  c #68423C",
"A  c #453E41",
"S  c #4A3F41",
"D  c #474042",
"F  c #4B4243",
"G  c #4E4649",
"H  c #4F484A",
"J  c #524543",
"K  c #5B4643",
"L  c #554946",
"P  c #5B4B46",
"I  c #51474A",
"U  c #534A4C",
"Y  c #5A4D4B",
"T  c #5D504D",
"R  c #564D51",
"E  c #5B4E51",
"W  c #5C5253",
"Q  c #5D5459",
"!  c #585456",
"~  c #6E4B44",
"^  c #6D4E49",
"/  c #654844",
"(  c #64524E",
")  c #6A524F",
"_  c #604F51",
"`  c #635453",
"'  c #6B5654",
"]  c #655956",
"[  c #685856",
"{  c #655759",
"}  c #655A5B",
"|  c #6B5C5B",
" . c #6C5758",
".. c #7B5954",
"X. c #735D5C",
"o. c #795B56",
"O. c #76534E",
"+. c #6F605E",
"@. c #72615F",
"#. c #7C615E",
"$. c #665D61",
"%. c #6B5F64",
"&. c #6C6265",
"*. c #6F656A",
"=. c #656162",
"-. c #756462",
";. c #7A6463",
":. c #7C6966",
">. c #75696C",
",. c #7D6C6A",
"<. c #71676B",
"1. c #776E72",
"2. c #7E7173",
"3. c #7D7479",
"4. c #825C56",
"5. c #875C56",
"6. c #885B53",
"7. c #89625D",
"8. c #95665E",
"9. c #836663",
"0. c #836A67",
"q. c #846D6A",
"w. c #8B6D6A",
"e. c #886865",
"r. c #956A64",
"t. c #986C66",
"y. c #84716E",
"u. c #8C726E",
"i. c #93736E",
"p. c #9C736D",
"a. c #857474",
"s. c #8C7472",
"d. c #847779",
"f. c #85797D",
"g. c #8D7B7B",
"h. c #8F7876",
"j. c #9E7672",
"k. c #947974",
"l. c #9B7A75",
"z. c #9C7D7B",
"x. c #937977",
"c. c #AB756C",
"v. c #A6766C",
"b. c #A67A74",
"n. c #AE7C75",
"m. c #A27D79",
"M. c #A37572",
"N. c #9E817C",
"B. c #A2817C",
"V. c #AB807B",
"C. c #B5857D",
"Z. c #857C82",
"A. c #897D84",
"S. c #8E8286",
"D. c #8D8389",
"F. c #908489",
"G. c #988688",
"H. c #978B91",
"J. c #998E94",
"K. c #9D9196",
"L. c #A58481",
"P. c #A98683",
"I. c #A88A89",
"U. c #B28A86",
"Y. c #BB8B83",
"T. c #B78C89",
"R. c #B9928D",
"E. c #A2969D",
"W. c #A4999E",
"Q. c #AF9598",
"!. c #BD9793",
"~. c #A6908F",
"^. c #A69BA1",
"/. c #AEA4AA",
"(. c #ABA1A7",
"). c #C28D85",
"_. c #C3938C",
"`. c #CA9488",
"'. c #C39A96",
"]. c #CD9C96",
"[. c #C59B95",
"{. c #D29C91",
"}. c #CAA19C",
"|. c #D3A39C",
" X c #DBA89E",
".X c #D8A49A",
"XX c #D2A5A1",
"oX c #DBACA4",
"OX c #DBAEA9",
"+X c #D1A8A3",
"@X c #E2AEA5",
"#X c #E4B4AC",
"$X c #E6B5AA",
"%X c #ECBCB3",
"&X c #E8B8B2",
"*X c #F1BEB5",
"=X c #F2C0B6",
"-X c #F3C4BA",
";X c #F5CABD",
":X c #EDC1B5",
">X c #F7CBC0",
",X c #FACDC2",
"<X c #FAD3C5",
"1X c #FBD6C8",
"2X c #FBDCCC",
"3X c #FCE1CE",
"4X c #FCE5D2",
"5X c #FCEAD5",
"6X c #FDEED9",
"7X c #FDF3DD",
"8X c #FDF6E1",
"9X c #FDF9E2",
/* pixels */
"  +                       o = + O O + X   X 2 7 y c s x D H H D J Q } Q d p e 9 5 ; & o o o   .     o o                 .       ",
"                              . O * $ + + @ 2 8 y s s l L U L F U ` &.d.F d p e 6 : = @ O o                                     ",
"                            . O $ - - O + O 2 w y s s V J L L L Y W &.D.G A a i 7 5 - * O O O                                   ",
"                          . @ & $ - - $ @ - 0 y s s f V V G L T ] W } F.R A d d 0 5 , ; & o                                     ",
"                          . @ = $ $ , 3 2 3 s y s V V V F U T W | ] } F.Q G G S a 7 7 7 : O .                                   ",
"                          X @ = - $ 3 s s y y y f V V V L W +.+.} ] %.A.%.R R G s y a d e * +                                   ",
"                          X O , 3 8 y V V l s y J V V V T +.+.+.+.] } f.<.Q E U c s V V i ; O .                                 ",
"                          . X 7 s V V C V V l 3 V T Y T T +.+.-.@.} } a.>.} ` E Y D F G x e 2 +                                 ",
"                          . o w V L T Y C V V w L T +.+.@.:.,.,.:.+.+.>.,.} W T T V V f x s e 2 @ X                             ",
"                          + > s l V L W Y T P C T +.+.#.y.y.y.y.:.-.+.>.2.{ T ` T F V f s w 8 w , @ +                           ",
"                          o < e u C P ] T +.+.] +.@.,.:.q.y.a.y.,.@.@.:.a.} ` ] T L V s s q , ; * .                             ",
"                          @ = 7 f P ( +.+.@.-.:.:.#.#.:.q.N.h.u.0.,.,.,.a.| { { T T G V c w : @ X                               ",
"                    + ; @   . = f L T ' +.:.:.,.y.:.u.i.z.I.I.N.i.y.y.y.a.:.X.[ ` T J F V s < = *                               ",
"                    , e > . X * y V T +.@.,.y.N.N.N.V.B.I.!.}.R.N.k.0.,.a.,.@.| ] T J D J l > ; - X X                           ",
"                    , w * o = 7 y V C +.#.s.h.B.R.!.}.!.[.+X+X'.B.k.u.0.y.q.-.-.| Y F V V l q : > @ = X                         ",
"                  . * 2 X * < e u V L @.:.s.N.R.OX&X&XOXOXOXoXXXU.N.k.0.h.h.:.&.| T L F F v v r > @ @ > .                       ",
"                  . o X # > 7 s k v ( #.,.u.B.!.#X%X*X#X@X&X%XoX_.m.m.i.z.G.,.@.[ T U L J F V l 7 > < 7 @                       ",
"          .         . & # 7 7 l l K | ;.0.k.B._.&X*X%X&X%X;X;X#X|._.C.m.z.G.q.;.X.` Y P J J C l u 3 < , @                       ",
"      o ; : O       . * @ 7 w J K ( X.0.k.B.R.}.&X*X%X*X>X<X;X%X#X|.T.b.z.~.a.:.#.} ` P L J v k e 8 < = .                       ",
"      * 0 e 7 @       . X > t J ( @.X.e.l.!.[.+X$X%X-X,X2X4X2X1X<X:X|.V.m.I.h.q.;.| ] Y L L F t w w 7 > @                       ",
"    . O e s 8 X .   X $ + $ w P ' @.#.9.B.}. X%X=X;X,X<X5X5X6X6X4X<XoXY.m.L.x.0.;.| ` ( Y L C y e t w > @ @ @ O                 ",
"      * 8 a e = * $ = = O > g C ' ;.w.j.R.OX#X:X;X2X2X2X5X7X7X7X7X2X*X|.U.I.z.e.;.X.) T Y K v v c w 7 , > = & o                 ",
"    X < 7 8 y , w , > % X 4 V C o.u.m.R.|.%X%X-X;X3X3X4X5X7X7X7X7X3X,X&X'.U.L.q.:.X.[ ( P J v S F t 7 , , = @ o   .             ",
"+   X , 3 , , 3 s 7 3 7 w V P ( X.l.T.XX%X;X,X<X;X3X4X4X5X7X7X7X6X5X2X-XXXU.I.e.9.@.[ ( P J J v V t > > = @ X o . - +           ",
"  + O , - * = - 3 , 7 s z V P ( ;.m.[.#X=X,X1X<X2X3X7X5X5X7X7X7X6X5X2X;X|.U.I.0.#.X.' _ / J J v v q = & @ @ X . . .             ",
"  + O = @ & : : > < 3 r V C P o.9.M.T.#X=X,X<X1X2X5X5X5X7X9X8X7X6X3X,X%X{.U.Q.0.X. .` P L J J r e 7 - X X . o . .   .           ",
"    + + O & * = $ - 3 r u C ( #.e.j.).#X=X,X<X2X5X5X5X6X7X7X7X7X6X2X-XXX`.A.Q.q.X. .` P J m v r 7 < > @ * . . . + . .           ",
"    . . o X + + @ = w l V L ( ' e.j.T.&X-X2X5X5X5X5X5X7X9X7X9X7X5X<X*X].n.i.I.A.X.' _ L v v k r e , * @ O                       ",
"  . +         . % 3 e r u v P ) #.t.P.@X-X3X7X7X7X7X7X8X9X8X7X6X<X*X@X{.c.w.A.A.X.{ Y L v v s 7 , > & o . .                     ",
"                $ 2 7 w t k C ) o.e.b.].-X2X5X7X7X7X8X9X9X8X7X4X,X@X.XA.t.e.i.M.X.{ _ U c l r , = & @ @ .                       ",
"                + @ > r y l C ) ..4.t._.&X<X4X6X5X7X7X9X9X9X7X4X<X@X{.n.e.9.w.A.| ` Y J z k p > * @ X X   .                     ",
"                + = 8 u u z C ( ^ ^ 4.n. X*X<X5X7X8X8X9X8X7X6X3X*X].A.M.e.9.9.A._ Y I S k s t > & * & o . . .                   ",
"                X > 7 7 w g v J Z j Z r.`.@X%X2X7X7X7X7X7X5X2X-X@XY.b.i.e.;.;.a.E Y J c s s w , = @ X @ $ X .                   ",
"                    @ # - t l N g h j 5.v.)..X;X5X5X7X5X3X-X$X{.A.p.t.e.#.| %.g.{ Y I S z p 0 w , = * # - = X                   ",
"                    . X X > 7 < w N h Z r.n.).@X<X1X<X<X=X X).n.c.8.5.o.X. .` d.` R U J x s e e , 7 > $ - @ .                   ",
"                          @ # # % < 3 j 7.r.t.n..X$X$X.X).c.v.8.8.6.o.' ' ` E a.{ U U F c x l s w 8 < * X                       ",
"                          @ X X X < 4 m O.4.5.6.c.C.C.n.8.6.6.6.O.^ ' _ _ _ _ d.*.Y I S c x s r 8 7 7 & .                       ",
"                    .   o @ X X X % 4 n C / ^ ~ 4.5.7.7.6.~ Z ~ / / K J I Y E g.g.E U S x s s s 8 7 > = X                       ",
"                    .   X @ @ o X % 4 g z n C ~ Z Z Z ~ / j j K S J J S I U E d.K.E U S d d s p 5 ; > & . .                     ",
"                        & @ @ o X $ % t l b C K C b n n b g t b p z x x S I R d.D.R H D d s i i > - * O .   .                   ",
"                      . . . o @ 2 - $ % 3 u r t k b m v r t r u z d d x A G G *.E.R G A f d p 9 , * O O o & o     .             ",
"      .               +   + O = > X @ , y u 3 % # t v v 4 3 r s x p G I A G G %.K.R I A f a i 9 , & X X o o o                   ",
"                          O * o # X X $ , < > X o < l v 4 3 w w p 9 p d A A S $.J.R I A f d 0 9 : O O O .   .                   ",
"              * + +         + o . . .     # X .   - u c u w , 3 t 9 i s A S G $.J.R R S f a p i 0 : X o .                       ",
".             5 O +         +     & +   .       . < 8 e s = = > e x p a f S G ! E.$.R A A p a i 0 ; O o                         ",
"          O   ; O +     + . . .     .   X     . X e i 7 - X O ; 5 i i d A G G R H.<.H G A d i d : & O +     o                   ",
"            +         + O     + O . + + 6 O   . = D 7 7 7 @ o : > 9 0 p f G G R A.*.R G A d p 0 5 & O     o .                   ",
"                +         * 0 7                 *   * 7 > @ X O & 5 e p f A G H Z.1.R S A d a a a : & O O X +                   ",
"          . a *         +   + .   +   & +       +   $ 8 8 . o X * : 9 i f A G H Z.D.R H D A f F 5 5 & o +   .                   ",
".   .       +                     ; R Q :   +       + 6 @ o o o * 5 5 f f D G G 1.E.Q R G H Q R i ; & o + & ;                   ",
".   . *                         O 6 d ; &           X , @ X & @ * : 6 a d G $.G *./.$.H G H Q R D ; 5 & + ; ; .                 ",
"      +           & *   O :   * & : & * +         @ X @ + o X < * 5 0 i d H $.R =./.&.R R H R $.7 ; R 7 + & ; .                 ",
"            .   O =.a + ! f     + O a A   +         . +   o o = : 7 i i d f I <.1.E.&.R G A d 1.Q 6 ; & & : ; O .               ",
"  .         +     + @ d ! X   . *   + &   & O   X X * 6 6 5 - * 0 ; 5 0 p A A ! Z.E.*.H G A d ! A 5 & & + : 5 +   .             ",
".                   ; a d +   a : +     O 9 d   = = O 5 5 O * X = : 5 0 d A R >.<.(.A.! G A d G 7 : 5 p & . . + O       .       ",
"  . .                 * a     f + 6 O   ; D R     .       . . o & : 5 0 p A G ! %.(.3.R G A d d 9 9 G i & & 5 . f             + ",
".       +       O   +   * : + O   O   O ; 0 5     +       + o o ; ; 5 9 a A G G Q E.H.R S A d a 9 5 ; o + 5 9   .       +       ",
".     .   + + & *     +   +           * + 5 +         . +   o O & ; : 9 d A D H R E.H.I I S d a p 9 9 ;   : a + . 0 ;   O +   + ",
"O o +         O & * 0 H :     & + + 5 &   *               . O ; 5 ; 5 9 a f D H R J.H.R I A f a i 0 0 & * + ; 6 : 0 +   & *   + ",
"O : *       +   + 0 f 0 & + + 0 *   ;   . . +         .   + & O : * 5 9 a f D G Q A.A.R H R R d 0 5 5 & & O o & 6 O       +     ",
"O ; O   +       +     +   & f &   + + +     + + O     + + o o o * ; ; 9 a f A H R Z.A.Q H R R f i 5 : & O O + 0 +         + + : ",
". * &   +           + + + + :     + + O + : & +   + 5 & + o + o & * ; 9 a f A R R Z.K.%.R G A A A i 5 ; & O O d .       + +   ; ",
"  O           +   O +       +     +   + + 5 :   O + 6 O + + o + O * ; 9 a A D H R Z.E.%.R H G A A f 5 : * & a $.5 O   +   + + + ",
"+ .   .   .   + +         + +     + O + * ;   .   O     5 0 0 + * * ; 9 d A A R $.3.^.%.%.! G f i p : = & ; d & 9 d A       +   "
};
