/* XPM */
static char *result[] = {
/* columns rows colors chars-per-pixel */
"64 64 147 2 ",
"   c #020101",
".  c #090606",
"X  c #0B0907",
"o  c #0A0708",
"O  c #0D0A0B",
"+  c #110D0D",
"@  c #13100F",
"#  c #120F10",
"$  c #151212",
"%  c #1A1515",
"&  c #1D1916",
"*  c #1B1718",
"=  c #1E1A1A",
"-  c #211A17",
";  c #221D1C",
":  c #281F1D",
">  c #26211F",
",  c #29221E",
"<  c #241F20",
"1  c #262122",
"2  c #2B2424",
"3  c #2E2827",
"4  c #2C2628",
"5  c #2E292A",
"6  c #302725",
"7  c #312926",
"8  c #332C2C",
"9  c #3A2E2D",
"0  c #36302E",
"q  c #3A312E",
"w  c #352E31",
"e  c #363132",
"r  c #3B3334",
"t  c #3D3836",
"y  c #3C3639",
"u  c #3E393B",
"i  c #413634",
"p  c #433936",
"a  c #4B3A36",
"s  c #40373A",
"d  c #433B3C",
"f  c #4A3E3C",
"g  c #4B413E",
"h  c #51433E",
"j  c #453D41",
"k  c #493F42",
"l  c #474043",
"z  c #4C4344",
"x  c #4E4549",
"c  c #4C494A",
"v  c #524643",
"b  c #5A4743",
"n  c #544946",
"m  c #5A4A46",
"M  c #514749",
"N  c #544A4B",
"B  c #5A4E4C",
"V  c #5D514E",
"C  c #564D51",
"Z  c #584E52",
"A  c #555253",
"S  c #5C5253",
"D  c #5E5559",
"F  c #5C5A5A",
"G  c #604E4A",
"H  c #64534E",
"J  c #625554",
"K  c #6B5653",
"L  c #665956",
"P  c #6A5A55",
"I  c #625659",
"U  c #645A5B",
"Y  c #6B5C5B",
"T  c #705A56",
"R  c #735D5B",
"E  c #795F5C",
"W  c #6E605C",
"Q  c #74635D",
"!  c #7A645E",
"~  c #665D62",
"^  c #735F60",
"/  c #6C6265",
"(  c #6E6769",
")  c #6D686A",
"_  c #726564",
"`  c #7B6562",
"'  c #7E6B65",
"]  c #726669",
"[  c #746A6D",
"{  c #796D6E",
"}  c #766D72",
"|  c #796E72",
" . c #7C7275",
".. c #7E7479",
"X. c #826563",
"o. c #836B66",
"O. c #886C67",
"+. c #856D6A",
"@. c #8A6D6B",
"#. c #906F6D",
"$. c #87706A",
"%. c #8D716E",
"&. c #91716E",
"*. c #817476",
"=. c #8E7371",
"-. c #83777A",
";. c #85797C",
":. c #947572",
">. c #987774",
",. c #967876",
"<. c #9A7975",
"1. c #967A78",
"2. c #9D7C7A",
"3. c #A17E7B",
"4. c #8B807F",
"5. c #9F817E",
"6. c #A4827E",
"7. c #A8827D",
"8. c #867C81",
"9. c #897E84",
"0. c #8E8184",
"q. c #8D8289",
"w. c #90858B",
"e. c #93898E",
"r. c #968B91",
"t. c #9A8F90",
"y. c #9E9497",
"u. c #9F9499",
"i. c #A68581",
"p. c #AA8682",
"a. c #AD8985",
"s. c #B08A85",
"d. c #B48E8A",
"f. c #B98F8D",
"g. c #B5908C",
"h. c #BA928E",
"j. c #A4989E",
"k. c #B79390",
"l. c #BC9491",
"z. c #C29A95",
"x. c #C59D99",
"c. c #C89F9A",
"v. c #C7A09A",
"b. c #CCA29E",
"n. c #D1A69F",
"m. c #CFA5A1",
"M. c #D2A5A1",
/* pixels */
"  o                         O . . o o .   O * % : 7 2 7 r r u r d x D B r w 7 < < # # O o .   .     o o                         ",
"                            .   o o o X   + % & < 7 2 8 r d u u d z S / s r w 4 < * # # O .                                     ",
"                            . . X O O .   O & - < 4 4 7 r u u d z l Z  .j y w 5 1 = $ # . O o                                   ",
"                          . o o X X + X o # : < 2 8 8 8 r p d z x x Z 8.x j y e 2 < & $ O o .                                   ",
"                          . . o X O @ & % % > > 1 9 e 8 r d z N C x Z 8.D j j y 5 1 1 1 & o . X                                 ",
"                          . o # O + : 7 1 > > > 8 7 8 0 p l M N B N C 8.~ x k y e 5 5 8 1 O X                                   ",
"                          . . $ % ; 3 e 5 3 2 - r e 8 t g c V V B M N -.] N C j r e r e 2 % O .                                 ",
"                            . & > 8 r r 0 5 > & e d t d z N V V S Z S } / C N z d r r e 5 3 = o       O                         ",
"                            X < 0 t u r r r 8 6 t g z n V S L L S V S / / N z z k t 9 5 7 4 ; % . o   o                         ",
"                          . % 6 3 0 t g i d g d g h n n V J L L J S S / [ N z c l r 0 5 3 = % = $ o .                           ",
"                          . @ : 3 0 d g d v B z c B B B V L U L S S S U / N z c z p r 8 5 ; @ @ O                               ",
"                          . X - 3 e g g g B V V B B B B V L W L V J L L / S N n l d t 0 8 > % X X                               ",
"                    o $ o     $ 3 e t g n V V V V V V V F W W Y P Y L I / L N n z z t 0 r 3 % @ @                               ",
"                    % ; +   . + , 0 t n B V V F V W L L Y W ! Q Y L L L ( U A N z g r e t 5 % + O o o                           ",
"                    % * O . O @ > 3 0 g n V V W W Q ! Q Q ! ' ' Y L I S / W N V M g t e r 8 1 % @ O # X                         ",
"                    o + . X + - 3 3 t n B V H W $.o.o.' o.o.$.o.Q Y I J _ ( A N N l u r r 0 r 1 @ O O $                         ",
"                  . .   X + % , , 7 d m V V V L +.$.@.@.@.%.:.+.` Y P I _ -.I S n g u t t r 0 3 1 % & % O                       ",
"          .         . . O - & 7 9 p g m V H H W +.@.O.@.>.,.,.%.o.Q Y P _ ;.U S V c z g d u r 8 3 ; % % O                       ",
"      o # % O         + O - - i t d h B V W W Q +.O.@.%.2.2.2.,.$.` Y J W 0._ S S M z d t t t 7 ; 1 & @ X                       ",
"      O * < - .       X . + - 7 k v z v V W Q ' @.@.%.>.i.a.a.i.2.=._ L Y 0.{ J D N v l g d t 3 = 1 1 $ O                       ",
"      . ; 1 ; . .   X X   O ; 0 p h h n V Q ! $.@.&.:.>.p.g.h.g.a.1.` L Y 4.{ J S N M l d d r 5 1 < ; % O o o #                 ",
"      + = ; ; + + + + X O + 2 7 g n V V P ! ' $.&.:.>.3.p.g.l.l.d.1.+.R Y ;.-.I V V M z j p q e e 1 & % $ O O o                 ",
"    . + $ & ; + - $ + X . - 9 i g B V J W X.$.$.:.>.5.6.p.h.l.h.l.9.=.' R  .-.I S B M z f y 9 r t 1 & $ $ # o   . .             ",
".   X + $ + + $ > & @ % & 8 i p g B H P X.%.&.&.&.&.2.6.p.g.l.v.l.p.2.@._ ` -.I S N M n d t r t t < % % O O o .   % o           ",
"  . X O O O + + $ + % ; 3 7 r r g V H Q X.&.:.>.>.6.7.7.a.z.b.z.d.6.>.@.^ ^ -.S Z m M k f d s r e > $ O O o o .   .             ",
"  o o X . O + O + @ % 1 7 7 q g g h G Q O.&.:.<.7.7.s.d.h.x.b.z.d.6.:.` Y ~ -.J N N M d s s y 7 1 = $ o O . . . X   . .         ",
"      . o O + o X + % - > 8 p g m h G ! O.&.<.7.a.a.d.h.z.b.n.z.a.2.@.R H I -.~ N M k d i r 9 3 = % $ O O X o . . . .           ",
"      .   . . . X + - 1 3 q f g n h G R $.<.7.s.d.d.h.v.n.n.c.f.6.=.o.P G I *.{ N z k s r w 5 2 1 & @ O O                       ",
"    .           O % & ; > 2 q p g h G T X.3.7.d.g.h.z.b.n.n.z.3.>.X.^ K S S { | N z j s e 8 2 * % @ O X o                       ",
"                X % % & ; - 8 a g g h H X.>.7.d.g.h.z.b.M.c.z.3.:.^ R J B B ~ ^ M k d j w 8 4 % @ # O o . .                     ",
".   .             . + ; > > 8 d p i g G ! #.3.7.g.z.z.b.b.z.f.7.:.^ T J B N D ^ z j s r 8 5 2 $ O O o o .                       ",
"                X + & ; ; , 0 r r q i h T O.>.7.h.z.c.c.z.z.s.>.@.K J H B N Z } j d i w 3 3 1 @ O O O   .                       ",
"                  $ % % % ; 3 8 7 - 6 f G E X.2.7.z.f.z.d.3.>.O.R S Z B B N B { j j s 8 4 2 ; # O o o o + o .                   ",
"                    . + + * < ; - - : i m H H O.3.7.3.3.:.X.R H m b m n n M v [ k j s w 8 < < ; # + + O + O                     ",
"                          + % # % - - 7 v m b K O.#.:.#.E K H b k v k v v v z I k j y y 8 4 < < % # + O + O .                   ",
"                          . o . X + + , f v h a G T T K G f h g a a f f k d k M k s y y 9 8 4 4 < * $ O o                       ",
"                          . . . . O @ 6 r p a q a k b f a p i q i d a s s d k I C j j w w w 4 4 < % % + .                       ",
"                    .   . .   o   + $ 3 9 7 9 7 i 9 a a i 9 2 9 7 7 r w t s j ~ ~ j y w 4 4 4 4 < * # + . .                     ",
"                    .     X . . . X $ < < < 7 9 6 : 9 7 8 2 > 7 3 2 5 w y u j D } s s w 4 4 4 4 ; $ $ o .                       ",
"                      . . . # . X . + ; : < 9 9 6 : 6 6 : - ; : 2 s w 4 w y y U ..j s y 4 4 < < # + + o   . .                   ",
"                        .   . X + O o + $ - : - : 2 8 8 - - ; : 9 4 4 5 w y y C 9.s j y w 4 4 < % + o o   + .                   ",
"                          . . O O . X + $ % + o + - 3 7 - + & : w 2 4 5 w y y C 8.j y y y 4 < < % o o o o X                     ",
"                          . . . X . . X + O . o . + > 1 % + % ; 4 w 2 4 w y y C 9.k s y w 4 4 < # O o o .                       ",
"                              .   .       O o     O & ; @ @ # $ < 4 5 4 w y y F r.C j y w 4 4 * $ O . X   .                     ",
"                              .   O               $ * $ ; ; O # < 4 4 4 r y u C 9.D j y y 4 4 * * #   .                         ",
"          O               .   o   .       o       $ = % 1 4 O # * < p d e y j c 9.) j y y w 4 < * O o . .                       ",
"            .                         o = = $     O # * 5 e # # + ; < 2 e u u j ../ j j y w 4 < * O O     o                     ",
"                                                    $ e e 4 . . o % ; 4 w u j j ~ / j j y w 4 < * # + O O                       ",
"            . .   o               .                 o * w O o O O 4 1 1 w y j j D 8.x j y e 5 1 - # # O .                       ",
"              < $ .       .     .                 .   $ O o . . O * < y w y j j D w.C j u e y j k 4 #     . O                   ",
"      $     . = O .     O .   .         * .     o ; O # # O . O O * = w e y l j D u.D j u y w 4 < $ + .   . O                   ",
"              O .       # # = % #     . $       $ ; o O #     . O $ = 4 5 y j k A u.F l u y w u 4 $ # .   . .                   ",
"            $ .           # 1 $                 $     # ; .   $ O # * 4 w w u k C e.~ j j y w y w < # o o o O O                 ",
"          o e o         . . X         * o       . . .   o . . O O * = 1 w w u j C 9.~ x j j y j < < # + o o O O                 ",
"                                  * t A $         .       X $ . o * = 1 w y j k C 9./ x j j j 5 < = # o . $ *   .               ",
"                        O %     . 1 c = O         .   .   . . . o * < 1 4 j s j c e...k k C / C w * # O . $ $ o                 ",
"                X     . F j   $ $ = e F $   .       O .       o < < w 1 5 y j l C 9.9.C Z x D A F < $ O O $ * . .       .       ",
".     .     # o . 5 1 % A .   .   * . .   # #   O % $ 1 % o   1 * $ < 1 w c ~ j N 9.e.x k j u ..D 4 u 1 # 1 1   .         .     ",
"            O   $ ) u u 5 .   5 1 # .   . e y   $ + o & %     < # $ * 1 5 y l A x e.j.Z k k u } C = c c O = = O                 ",
"                  . O u j O   l = .     O e u . o     $ $ + o O $ # = 1 w e j ) ~ 8.e.D x k j j e 1 c c * O * # .               ",
"                      . 2 * . $   .   .   o $         O $ * =   o # * 1 5 e l ) 8.9.8.Z x l u u 4 < 1 $ O $ # . 5               ",
"                        .         = . $ * O     o o   . o   o # # # * < w y u l C 9.r.I C l u e w 1 * # . = 5   %       O O     ",
"            .     .           . . O   O 1 =     . o o       o * < # * < 5 y j l c } u.~ c z u y y 4 = # . 1 u     # $   $ = . . ",
"              O $   X             . . $ . 1               o * o o # * < w y j l c ^ t./ C A A y 8 < = # O . .   < t o           "
};
