/* XPM */
static char *result[] = {
/* columns rows colors chars-per-pixel */
"64 64 112 2 ",
"   c #020101",
".  c #080606",
"X  c #0B0807",
"o  c #0A0708",
"O  c #070808",
"+  c #0C0A0A",
"@  c #110E0E",
"#  c #13100E",
"$  c #120F10",
"%  c #151212",
"&  c #191515",
"*  c #1D1917",
"=  c #1B1719",
"-  c #1D1A1A",
";  c #231D17",
":  c #221D1D",
">  c #25211E",
",  c #28211F",
"<  c #241F21",
"1  c #262122",
"2  c #2A2425",
"3  c #2E2825",
"4  c #2C2629",
"5  c #2E292A",
"6  c #302927",
"7  c #322D2D",
"8  c #382E2E",
"9  c #35302E",
"0  c #3A322F",
"q  c #352E31",
"w  c #382F32",
"e  c #363132",
"r  c #3B3434",
"t  c #3E3837",
"y  c #3B3639",
"u  c #3E393B",
"i  c #413633",
"p  c #433936",
"a  c #433B3D",
"s  c #4A3E3C",
"d  c #503F3E",
"f  c #4D423D",
"g  c #53433E",
"h  c #463E41",
"j  c #493F42",
"k  c #454142",
"l  c #4B4344",
"z  c #4E4649",
"x  c #4D494B",
"c  c #524643",
"v  c #5A4744",
"b  c #544945",
"n  c #5C4B46",
"m  c #51474A",
"M  c #544B4B",
"N  c #5A4E4B",
"B  c #5C514D",
"V  c #554E51",
"C  c #5A4F53",
"Z  c #5C5253",
"A  c #5C5559",
"S  c #5D585A",
"D  c #624F4A",
"F  c #63534E",
"G  c #69534F",
"H  c #645551",
"J  c #6B5653",
"K  c #675955",
"L  c #6C5954",
"P  c #61575C",
"I  c #635B5D",
"U  c #6D5C5A",
"Y  c #705553",
"T  c #725956",
"R  c #745D5B",
"E  c #795E5B",
"W  c #76615D",
"Q  c #7C625E",
"!  c #665D61",
"~  c #685F62",
"^  c #6C6265",
"/  c #6D6568",
"(  c #6D6A6B",
")  c #7D6561",
"_  c #71676B",
"`  c #73696D",
"'  c #786E6E",
"]  c #766C72",
"[  c #777072",
"{  c #7B7276",
"}  c #7E7579",
"|  c #81635F",
" . c #826662",
".. c #866965",
"X. c #886B66",
"o. c #866B69",
"O. c #8B6D6A",
"+. c #916F6B",
"@. c #8F706D",
"#. c #92726E",
"$. c #81777B",
"%. c #847A7E",
"&. c #957571",
"*. c #997775",
"=. c #9A7A76",
"-. c #9C7D79",
";. c #877D82",
":. c #8E8386",
">. c #8E8489",
",. c #90858B",
"<. c #938A8D",
"1. c #968C91",
/* pixels */
"  O                       . . . . . . .   . & @ * < < < 5 q r e y a Z V w 7 4 < : % + + o . .     . . . .               .   .   ",
"                              . . . o . . + + $ = : : 2 q r e q u a M ! y 7 5 2 - & $ + . .                                     ",
"                          . . . . + . .   . % % ; < < < 5 e e r a a x _ h w 7 4 < - % + . O .                             .     ",
"                            . . . + + o . + = * : < 1 1 5 e y h k h m { z y q q 2 - = % + . .   .                               ",
"                          . . . . X @ & @ # & - - 2 2 2 7 e u l z j z } V u u w 5 - - < = + O O                                 ",
"                            . . X @ ; < ; & * * 2 < 2 5 e u k l z l z $.! h h y 5 2 5 5 - + .                                   ",
"                          . . + @ & 1 2 ; > > & q 4 2 7 r a c c m l z { / l j a q 5 q 5 < % +                   .               ",
"                            . % * 1 7 7 1 1 * # 4 w 7 e a l c M m z m ] ~ m j h u q 5 5 1 < & O       +                         ",
"                              ; 6 7 9 7 5 6 5 , 5 e t k g x V V M m m / ^ l k h u q 4 1 1 - # % .     .                         ",
"                  .       . % > , 2 7 r 9 t t 0 t k f f x x N B M m m I ^ l a h u e 5 1 < & $ % + . . .               O O       ",
"                        .   @ & > 5 e y 0 a l a f f k k f b B B M M M A ! x a k a r 7 2 2 & + + + .                   . .       ",
"                          . . # ; 5 e t t f l l l k k f f M B B M B B B I M l k a u e 5 5 - % + .                               ",
"                    . $   .   + 1 5 9 t f x f x x x f f g B B B N B B B S V l k a t 5 q 5 2 % + +   .             .             ",
"                    % % X .   X - 2 5 t f f x g b g b b b B B B B N M B I Z l x f y 9 5 5 2 % + + . .                           ",
"                    % $ . . + @ & 1 5 u k k x b n B N b N B H B N N b m I Z l c f y e 9 5 2 ; # $ . O .                         ",
"                    . . . . . % : < 5 f l k g N B F B B F F K H B N N m I ^ m l u y e 5 e 7 5 1 @ . + % .         O .           ",
"                    .   . + $ * ; 2 r s j k f f F H F H H L L K B Z B N K _ V m l t y e 9 7 2 > : % % & O .           .         ",
"      . . .           . . @ & < 2 7 e s l l l b Z H F J W W W L H B B M I $.A M x k y r e e 5 2 : & % + .                       ",
"      . + # O         + + # % 7 6 8 t s l b n n H F G J T W W L K H B N Z ;.~ M M l a r e e 9 4 - - & @ X                       ",
"      . # * % .     . . . + & 1 e t t t f b N B H G L L Q Q | Q W K B b Z ;.' M M c f y t t e 2 * = = $ +     .                 ",
"    . . & * & . . . . . . X % 1 9 r a t f N B B H J L T Q ..X.o.) U B M Z ;.{ V M b k t r r 9 4 < = & % O O . +                 ",
"      O % & = + @ X . . X # : 1 9 f l f f b B F J G T R ) ..@.@.o.U H B B $.%.M M x l a y r 5 5 q - & @ @ O +                   ",
"      + + % % + & @ @ X . % 3 6 9 f f f g n F F H J T R ) X.@.@.o.) L H Z ' } Z M z k k r e 5 7 q - % # # + . X   .             ",
".   . @ + + + + & @ + + # ; 6 7 e a f g n F F G G J R Q Q O.#.@.O.) R J B ~ { M M l k a y r e 9 7 - % + + . .     $ .           ",
"  . . O . . X + + + $ & : > 3 6 9 p s g D G Y Y Y W Q Q  .@.&.&.O.) T H C C ' M l l k a t r e 7 6 * + + O X X   .   .           ",
"      . . . X O + @ # - > , 3 7 t 0 p v D G Y T E Q | | @.=.=.#.o.) T C M M ^ C l j a t 0 e r 1 : & @ . + X . . . . . .         ",
"      . . . . . . + @ & * , 6 0 p 0 p g D G Y Q | | X.#.&.=.-.-.o.R K N m m ` H k h a e 7 7 5 1 & $ @ o . . .   . . .           ",
"          . .   . . $ ; ; 6 7 9 p i p b D Y E | X.X.#.=.-.=.=.O.W A Z M z m ` ~ h a t 0 7 5 2 > : % $ . + .                     ",
"    .         . + $ % & & : 3 7 0 t p f n L Q | X.#.&.-.-.=.@.R J N N c l M _ _ j a r e 4 4 < & @ @ + . . .                     ",
"                . @ + @ # & 2 0 0 0 i f n G E ..X.#.&.=.=.&.O.R J N N m l j P ~ s y y u 4 4 < % + + + . .                     . ",
"                . . O & % & 1 7 9 5 9 p v G T ..X.&.&.=.*.#.X.W J N b c j j M C a r e q 4 2 : $ + + . . . .                   . ",
"                . . # & # > 5 3 3 > 2 0 g D G Q X.&.&.&.#.X...T C b c l g j m ! y e w 5 < < : + + o . O .                       ",
"                  + @ + + % - : : & ; 0 g g v G Q X.O.X. .E J D v c l k l s k ` y w 7 2 < < = @ + o . o + . .                   ",
"      O O         . . O O @ % & % % # 6 p d p D T R E E G D j s p s s a a s a ~ a q 7 5 < : & & @ + + . + O .                   ",
"      .               . . . . + @ # + ; i a i d N G G G j d s p w i i y y y p z a q q 7 4 < : = @ $ + o + .                     ",
"                          . . . . . X * 7 t 8 8 i j d d i i w 8 6 e r r y r r a h q 5 7 2 < ; - & $ $ . .                       ",
"                          .     .   + : 6 7 7 2 8 i i 8 8 6 3 6 6 7 7 q e w y l z y q 4 4 1 - - & % % + .                   +   ",
"                          . . .   . + : : ; < : : ; 6 6 6 < ; < < 2 2 4 7 w w M V e q 4 1 1 4 1 = % + . . .                     ",
"                    .     .   . . + @ * * * ; 2 ; & : : ; ; * : ; < < < 4 q y m I q q 4 1 - < < & @ @ o                         ",
"                        . . @ .     X & & * < < : ; ; 2 & % % = & = : 1 4 7 w V / e q 5 4 1 < - @ X + . .           .           ",
"                          . . . + X . X @ # * & * ; 1 < & $ & = = - < 2 4 4 q z } w w 7 5 1 < = $ . . . . O .   .               ",
"                        .   . . X .   + @ @ X X + @ ; : & + @ = ; 5 7 < 4 q w l ] h w q 5 1 < = $ O   . . . .                   ",
"                          . .   X . .   O O X X . . & = % + + $ 4 4 < < 4 q q z { h y q 5 1 < = $ O . . .   .                   ",
"                              .   .     . . .   . . $ & + + + $ - % : < 7 q e k $.h y w 5 1 < = $ +   .                         ",
"                            . .   .     .         + $ $ o o + . 4 1 : 2 4 q e h ;.V y e q 4 1 = % + + .                         ",
"          +                                     . + = + o O . . $ 7 < < 4 q y l >.P y y q 4 1 = % + . .           .             ",
"            .                                     O + $ + o . . + < < < 4 e y A { ! y y 5 5 1 = & + . . . .                     ",
"                              .           .         o + & $ o . o 2 y y 7 q y h I P u y q 5 1 < % + . + .                       ",
"                                        + - +         @ < 2 @ $ $ $ < < 4 q y u V ] k y y 5 4 - % + @ .                         ",
"                                      O & O         O 4 a y .   O $ = q 4 y y u x ;.j y q 5 4 < & @ . . .   .                   ",
"      %                                   O         + > h 2 . . O < = 4 4 q u u x ;.V y y 5 5 < & $ . . .             .         ",
"      .     O O   .             .                 .   . @ .     O = = < 4 q u u V ;.A y y q 5 5 < % +     . .                   ",
"            O - &       O O     O       $         $ . . O O .   O $ = = 4 q y y V ;.P u y q y y u 4 @ . o . . +                 ",
"              -         & O @ O O     . &       & e O   . . . . O $ = < 4 q y y z } P h y y 5 5 1 & $ . . . O .   .             ",
"              O         + 2 x 5                   O   + % .   . O $ = < 4 q y u j } ! h u y q u e < $ .   .     .               ",
"            1 O             .                   % O   O %   O O O $ $ < 4 y y h j %.] k u y e h 4 2 $ .   o + .               O ",
"          O *   O           O     # O 1 +   O     .   . . . $ % o $ = - 4 q y u j ;.%.z j h h y 1 - $ o O O +                   ",
"              .         + %       2 ( a   O               . o . o $ % < 4 q y h j %.,.z h h u q 1 - % + O - :                   ",
"                        k u   O $ - x x $           + . . . . o < = 4 < 4 q y u j { 1.m x A ! h 4 < & + . % & $                 ",
"                    O & ( %   % + = $ 4 % + $   . O + - +   . . $ % < < 4 q y k j _ ;.V V j ! ( / 7 = + $ * -                   ",
"                  = * < 1 .   % & * O + O r k . & . . & +   o ; O + = < 4 k A k j { ;.A k j k } h < = $ @ 1 2 . .               ",
"                $ ( 5 x a +   k 5 O   O O 1 2   . + . . .   . * = + $ < 4 y x x j } 1.! z l a ^ V < A ! = + % +                 ",
"                  + O $ u -   1 -       O @ .   .   . .     O   O $ = < 4 q y ! j ! ;.! m z u k h < z y @ % -                   ",
"                    .   O   .       . .   .           & < < % O O O $ < 5 y k ] { ! ,.~ V j u e 4 < - $ + O @ . 1 .     . .     "
};
