/* XPM */
static char *result[] = {
/* columns rows colors chars-per-pixel */
"64 64 67 1 ",
"  c #020101",
". c #080607",
"X c #0A0807",
"o c #0A0708",
"O c #0C0A0A",
"+ c #110E0E",
"@ c #0F100E",
"# c #13110F",
"$ c #0E0E10",
"% c #120F10",
"& c #151212",
"* c #191616",
"= c #1A1816",
"- c #1B1718",
"; c #1E1A1B",
": c #211D1E",
"> c #24211F",
", c #2C231F",
"< c #241F21",
"1 c #262223",
"2 c #2A2425",
"3 c #2D2826",
"4 c #2C2728",
"5 c #2E292A",
"6 c #302725",
"7 c #332A26",
"8 c #3A2E27",
"9 c #322C2D",
"0 c #392E2A",
"q c #37302E",
"w c #3B312D",
"e c #342F31",
"r c #363132",
"t c #3B3435",
"y c #3D3837",
"u c #3D3639",
"i c #3E393A",
"p c #42342F",
"a c #433633",
"s c #483733",
"d c #453835",
"f c #4B3A35",
"g c #403738",
"h c #423A3C",
"j c #4C3D3A",
"k c #513E3B",
"l c #4B403F",
"z c #53413D",
"x c #443D40",
"c c #474143",
"v c #494245",
"b c #4D4648",
"n c #4F4A4C",
"m c #524A4D",
"M c #554E51",
"N c #5A5356",
"B c #5D5659",
"V c #5F585B",
"C c #625A5D",
"Z c #665F61",
"A c #6A6365",
"S c #6E6669",
"D c #6C6869",
"F c #726A6D",
"G c #746C72",
"H c #767172",
"J c #797173",
/* pixels */
" o             . .  ..XXO%+*-1<14ecn52<;*+O..  .  ...       . . ",
"                  X. ..XO++%:11255hn541;*+O.Oo                  ",
"              . XX.. .O.+++&;<1455hMr42<-%+O.oo                 ",
"             .    .  XOOO++&;125r9iBy441;*&+O..                o",
"               ...XO.XOOO+&*:15rtetZbe41:*-*%..                .",
"                 o##OXOO*##=145qtrtZNre41;:;%..                 ",
"              ...O&&##OO1&*:25rrtttZBtt52<;;%Oo                 ",
"              .XO*;-&&+O*::>50rtttuBZuue5<<-&%O.   O            ",
"              .+*&=**=;-;:23qtdtuuuMAuee4<;-&%Oo..              ",
"              +&*=;::>2<23355tiyutuMZuee51:*%Ooo.               ",
"              OO#=;;:49257529riyuuubVier52<=%$o..               ",
"              ..@&;:>959q5550rttuuxxMir954:;-%O..               ",
"          ... ..$&-25959555q9ryiuuixnirr94<;;&OO+               ",
"          .o    O&-25999r555qrttiuuinhrr51<;;*Oo. .             ",
"          XX. ..O$&<59559959q9wrtuuuncrr521;;*&$O  .           .",
"           . . .$$-<545495593qqqruuunbur952::-&&O..X            ",
"            ...O+*:254429367qwwtruurbMiur5221;-&%OOX.           ",
"     .     ...o%*;>45555q97qttwturuuxZbutr42111-++OO.           ",
"   ..O.    ...X:*;:45595q7q7wwytruutxSMiur52111-O+OO.           ",
"    oOo.   ...X+;::>295rrrtqwaaduuutxSCiir9221<-OOOO.           ",
"    OoO.  .. .+#=121255rr9qqtdddhtttiFDhyt9521<-&+OOo. o        ",
"   ........ OO##-1551445r90wtdjhhhgtxAJxyte522<;:+Oo...         ",
"   X....X... O*=:132123377qwasfjlhhtiVHhirr52<:<:%Ooo... .      ",
".  ..X .X.. .+#&;121333637qwafjjfhiduMGhure95<<<:+.o..   o.     ",
" . .. .....OX+&#::11,777880wsfljlhyttxBuee95442<;+...X.  .      ",
" .   . . OXOO+&::::1,7788ppsfjzjhiytttbhee522<<;+O...  .        ",
"     .. . OOO+&:<::,,788ppsjzzjshhyqetbxe942<<-&OXX.. .  . .    ",
"      .  ..OO+--:<:>,7wwafkkzzjtywtqetmme54<<-&%%OX..           ",
"        O...OO+--::>17wpsfkkzkfwrereeeMN952<:-&OOO. .           ",
"         ..OXX+*==;:16wpfkkkkkstwe0r99xM5455;=&O...X           .",
"          .OX+%:=&*:17wafkkkkjftw09e5exn421:**Oo....           .",
"        ..XXo+*%&+&;166pffkkffdjr459eehm41<;#&+.. . .           ",
"        ...X..O++OO=21,6waaap0dCc33599yN<<<-&%Oo..... .         ",
"   O.     .X.....oo*16:,78002,2,>122339v9<<:&%Oo.... .          ",
"              . ...O:1::2676,<1::>>1224r5:::*&%O......          ",
"              . . .O*:=#*::>;:==*;>:1>254<---&&+Oo.             ",
"             .   ..o#**+#*::-*#&&-;:<:154<<-*###OOO..           ",
"             ...  .OO++O++##&+#+O&&--:159<:-+#:*OOo             ",
"               . ..oXXO+OO##++OO$#&&*::5h<:*###+OOO.            ",
"             .+    X.X++++##OoOOOOO&-::ux<::**++O....           ",
"              .  X ...XX+X++OOoO$##*;<<eN1<<:&%O.... O          ",
"               .   .......oOO.OOOO&=;<<tB51<<-*+O. ....         ",
"                .. ..  . ..Oo.ooOO+*;<2rBe21:-&+O...            ",
"                     X.   .O..o..+&-<<<eSr51<-:%O...            ",
"                 o       o... ..++&;:12eGh52<<;++OO.           .",
"              .  .        %o . .OO&-:159Sn54<:;%Oo..            ",
"                         ...X...O1<-;459BM55<<;%+o..            ",
"                          .X.  .<;+*<144MNr4<<;%Oo..            ",
"                           .. ..oo$-<<45xNu4<<-&OoO..  .        ",
"                            .   --$<<<<<xBu94<-%Oo..            ",
"                           ..   O<*<:<4xBSx4<<:*%... .          ",
"                .           O   o&<<;<4xxZx44<-:+o.. .          ",
"                            OO oo<9<-<<tuCx94<<-%Ooo.           ",
"            .      .:1@     94OX.o$%-<<9xBx944<-%+Oo.           ",
"                   .*    oo4v; .o%$%-<<euBme4<<-%&O.            ",
"                            44o..%%%<99<eZBre4<:&Oo..          .",
"        oo      .           et. .oO%;<4exBZee4<<*+O....         ",
"      $@*   ..     @4   o4o OO .oo$%<249pBSxe94ee:+..           ",
"       ;    =OOo.  o&   *eo.o. ..O$&;24eeCJxeeeuh9%O. .         ",
"       *   o@9n9       X.  O;.o...O&;<2egMJxx44e9<&Ooo.         ",
"     .;     .    @    . &  .OOO .o$&;25eexGxurex11%O...         ",
"      O  .  O$$ o <:O      . ...OoO&:<5euMGMbxe5<;%o.&*         ",
"            ry   @ZD=    .@    .%%&&<25euxGmxxe4<-&Oo-2         ",
"          @&H&  o1i:o .  oo1$..*O*:&;<9euxGBxZm4<:%Oo+*         "
};
