/* XPM */
static char *result[] = {
/* columns rows colors chars-per-pixel */
"64 64 35 1 ",
"  c #020202",
". c #080607",
"X c #0A0708",
"o c #0C0A0B",
"O c #110D0E",
"+ c #13110E",
"@ c #1A130E",
"# c #120F10",
"$ c #151212",
"% c #1A1515",
"& c #1B1817",
"* c #1B1718",
"= c #1E191B",
"- c #211C1E",
"; c #231F20",
": c #252123",
"> c #292526",
", c #2C2729",
"< c #2D292B",
"1 c #312C2E",
"2 c #342F30",
"3 c #353133",
"4 c #393436",
"5 c #3C3738",
"6 c #3E393B",
"7 c #413C3E",
"8 c #443F41",
"9 c #464142",
"0 c #494445",
"q c #4E494A",
"w c #514B4D",
"e c #534E50",
"r c #575254",
"t c #585354",
"y c #645D5D",
/* pixels */
" .                   ..   .X.oO#%->7%%#OoX..     ...          X ",
"                 ... .  ....ooO$*%>3*%$#oX X..              X   ",
"              .       . ....oOO$**>3;$$#oo.X.o.                 ",
"                      .. ...ooO%-*-4;-%$ooXX.  ..              .",
"                  ...  . . .OO$*-*-71-*$$ooX.. o                ",
"                 .XX . .O ..oO$%*-;74--**Oooo.                  ",
"                 X.X....*.ooO%=*--;47;-*%#o....                 ",
"                 .XoXX.X.X.OO%*-*-;38;;-%OoO..     o            ",
"               ..X.XXooXoo$#$&&----3w;--#OoX...                 ",
"              oOo.XXXoOoo+o+$$==--;2w;---OOXX  .o          oXX  ",
"            . . .XXXoOOO++o##$-=---18,-%%#OX.....               ",
"                ..XooOoO+OOO$&==-;;;7;--%#OXo.                X ",
"          .     . XooOO#++OO$$&=---;7--%%#ooo. .o    ..       . ",
"          ..     .XoOOo#++#O#+$=----2;%-%#ooo...        X       ",
"          .     ...oOOo#OOOO##+&%---2,--$##o.Xo.X               ",
"               X.o.oooOoOoOOo++$%-*-21--%##oXX.X.  .     o      ",
"               ..Xoo+ooOoooOo++$$--*,2;--$##Ooo.X. ..           ",
"              . .ooOoo+o#$Oo++$$%**->72;-*#ooOOoX..             ",
"     .     .X X% .ooo+$o+o$XOO+$%**-;83;-*$#ooO.. ..   .        ",
"    .      X  .XoooooOo+$o&$O++$%*--;87;;-%#Oo.... ..           ",
"     ..      ...XX#oooo+oo++++$$**-*;88;;-*#OoooX... . .        ",
"            X  .oo#$ooooooo+++@$***-;7e;;--#OOooX ..            ",
"      . . .  ...ooooXoooooo$++@$-%---4r;--*#OOoooX. .. .        ",
"   .   ..    ...oooooXoXooo$++%&*-**-1q;--*$OO.XX. .     X      ",
".       .    ...oooXo.o...OO+$&&--*=-;5-**%#OOOOX..             ",
"         . ....XXXoXo.oOOOO@@@%$%%&**=,>**$OooOo..        . .   ",
"         ... ...XXXo.ooOOOO@@&%+%**%%-:>%*+Ooo.o.  ..           ",
"     .    ... ..XooXo.oOOO@%@%@+$$*%$*:,%%+Ooo..o..       X     ",
"        .   . ..oooooooo+@@@@@+O$$&$%*>3*$OOX.... .             ",
"        .  . . .XXXXoooOO@@@@@+O$$$$$*>4%O%-X... . .            ",
"           .....XXXXoXoOO@@@@@OO++$&$%>7$OOOXX.  ..     X      X",
"         ..  XX. X XXooOO@@@@@++OO+@%%;7OOOO.X....              ",
"        .      o....XoXOXOOOXOOOOOO+$$;9#ooooo. .. .            ",
"   oX      .       oO%.XXoXoOooXoOOO$$$1;oooXX..  .             ",
"                    X@..XoXO.XoXoooo+#+<%#ooXXX.X    ..         ",
"                .  .....XX.OXX...ooo#o+>%ooXoXX.                ",
"                    .X..X..X...OXXXX+oO:#ooo...oX.o           o ",
"               .   . .. ......-y6X.X.oO=#ooo.o#oX   .           ",
"               .    . . ..X...@3;...ooo&%#ooXXo.. .             ",
"              o    . . ......  .....XoO:;o#ooo.. . .            ",
"                .      ... .. . ...oOo#-4####X...    X          ",
"                     . ..  ..  ...XoO##=7*$##oo...   ..         ",
"                .          .. . ..XoO#$-8=$$#ooX. ..            ",
"                     .       .. ..oo#$$=0;*$#oo.X.              ",
"                 X  .    .  .  .X.XoO$%=q<=%###.XXX             ",
"     o                    O  .  XXXX#$==85=%##oXo  .  .         ",
"                          .  . ....oO*=*78=*$#ooX...            ",
"                            .    .XX#***38;%##oo  ...           ",
"                            .  . .XXo$$*<9:%$#oX..o .           ",
"                            .    XX;##$%>6-$##oo.X..  .         ",
"   $                            .XX%#O%*;6;%$ooo..    .         ",
"                                X:$ooo*%=6>%$Oo$.. .            ",
"                               .=$XXoo$$=5,%##oo.... ..O        ",
"                               XX .XXo+$=3,%##oX.X. . .X        ",
"                                $#.XXoO$=3<=$#oo.o..  .         ",
"                                 :oXX%O6te4=*##oX.             X",
"        .                    .   *53##o--57-*#oo....            ",
"                            1:.oX&#.X#$<*70-*$$$O..             ",
"                   .:<O    o3$oX.##.oo#=,50;*@+o.O.    o        ",
"                   X&X.   X=o... #o.o##*-20>-%%oO.O. O          ",
"                      . X.  oo.  . .#-***28,-=*#Oo.  .          ",
"         .      .. Xo   .   **   ...o***=182--%OO.o. .          ",
"      X #.     .. .O3.  O2O ,, . ...##$=-102--*$Oo.. .          ",
"      O+    ;OX         =<X.q4o  .oXX#$*;,85;;;>1-...           "
};
