/* XPM */
static char *result[] = {
/* columns rows colors chars-per-pixel */
"64 64 34 1 ",
"  c #020101",
". c #080607",
"X c #090807",
"o c #0A0708",
"O c #070908",
"+ c #0C0A0A",
"@ c #110D0E",
"# c #13120F",
"$ c #130F10",
"% c #151212",
"& c #191516",
"* c #1B1817",
"= c #1B1618",
"- c #1D191A",
"; c #211D1E",
": c #231F21",
"> c #252122",
", c #292425",
"< c #2C2729",
"1 c #2E292A",
"2 c #312C2E",
"3 c #352F31",
"4 c #363133",
"5 c #393436",
"6 c #3C3837",
"7 c #3B3639",
"8 c #3F3A3C",
"9 c #413C3D",
"0 c #443E40",
"q c #464143",
"w c #494446",
"e c #4C4749",
"r c #504A4D",
"t c #6D6869",
/* pixels */
" .                   .. ...X..@@%;,9&$$$....     ...        .   ",
"                     . .   .oo.@$#:3;@#@@                       ",
"              . . .  X. ....@.@@%#;3;$$@+..X                    ",
"             .   .     .   ..oo#%&;5;;&$@. ..                   ",
"                  .. ... ....o+#=&=61;$$@+Xo.                   ",
"                 .. .   @  .o++#%==44;;%#@+o.                   ",
"                 . . . .&...o@&#&==46;=&#@...                   ",
"                 ..X. ... ..o@@%%;;4q;;&&@.....                 ",
"               .. . ... ..@++@@&=;;2w;;;$@+o..                  ",
"              +++  ..X.....oo+@$&=;<r:;%%++o.   +               ",
"               .. .  .o....o.+%$%&&,w:;&$++. . ..               ",
"                 X ..........@$$%&;:9;&&#@+o...                 ",
"                  .....o...o+++$%;&:3:&%#@++o.. +               ",
"           .       ...ooooo.oo+%$%;;3:&&#@+oo..                 ",
"                 .. ....oooooo++$&&&2:;;@@+ .....               ",
"             .  . ....o.o..ooooo+&&&<5;&&@++..o..  .            ",
" .              ..........o..+++$%%%,3;=&$@++oo....             ",
"            .    ........+..++++$%%&:6<=&$@+.+@.  . .           ",
"           .. .&......O..o@oo+o+$$%=;72=%@@oo..  . .            ",
"           .  ............&+.oo++$%%;85--%@+oo...  X            ",
"       .      ............oo+oo++@%%-89--#@+oo+o. ..  .X        ",
"    .    .  o   ..oOO......ooooo+%%%=5e--#%+o...... .           ",
"      .   .  .  ..........ooooo+O%%&=2r--%%+..o .. .            ",
"       ..   . . ..... .. ..ooo+++#@%=<w-%##+@+...  ..    .      ",
"            . .... ... .. .oooo+%#$$%-5-%%@@+@o@.               ",
"         .     . ..  XX ....oo+o+@%%%&,-%%@o..@..XX             ",
"          .... .. ... . +...oo++$$@+#&-;&%@o.....   .           ",
"      .   .   .. .. . ..+...oo+o@O+%#%-;$@@+....o..             ",
"        .  .    .XX .......+.++o++++@%:1$$$@. . .               ",
"           .. . .  ..o.. ....oo++++@+%;4$$%=....   X  .         ",
"         .     . .  ......++oooo+.+%$#;8$$+. .   .              ",
"         .  ..o . ....+....++o.o..++@%-0$$++.                   ",
"        .      .X  .......... ...+o+$$=0%@+oo+O    ..           ",
"                 . X.@... .......+++@+$4-+O+O  .  .             ",
"                   ..o...  ........++$$1=$+.....                ",
"                     X.....o ....O..+++<&+ ....    .            ",
"                     .   . .. . .oo+$+$:&+O..+.+. .             ",
"                      .   .  .  .o oo@$:%+++o++..   .           ",
"                         X. .   .   o$+==+..... . .             ",
"              +      . XX  .  .+.   .++:-+.  ..                 ",
"               . .     .+  .  >t9.  .+$;3$@o...                 ",
"                    .       . .=@.  o@$;9=$@++. .               ",
"                                 . .+$%-0:=$@+...               ",
"                     +            .+@#%-0:=$+ ..                ",
"                 +        ..    +. .+%=-w2%.@.@ +.              ",
"                          +     .   +%-;07;=%@@ ..              ",
"                           ..     .+$&=&79;;&@@  .              ",
"                            .      .$&&=3q:=%$+o                ",
"                                   .@$%=1q:=%+ o                ",
"                                   -$$%&>9:&@@@  ..             ",
"   .                             ..%@$==:9;%#@ .                ",
"                            .    ....+==;9<&@  $                ",
"                                 .  X@#%-4,%$o + .     +        ",
"                                 $@. +@#-2,&$+o.       .        ",
"                                +1%..X@#;3,#$@o.                ",
"                                &.. X%@#*63%$@+.                ",
"                                . .O.@+%:57;$$+o.               ",
"                                &-OO.@$>9r0:;$$+.+              ",
"                                 >>>$+$3000:&%$@++..            ",
"                            --.  +-%++$:&30:&&%++.+  .          ",
"                    O&O    .4%@. &+..@$,:19,;-&++..             ",
"                   %5-.   .@@..  %+ .@%&,<01:-&$+.+  .          ",
"                .   O     +-++   +  ++$=-<03--&$+O+.            ",
"                        .     .   O +:%=-:95::-%+...            "
};
