/* XPM */
static char *result[] = {
/* columns rows colors chars-per-pixel */
"64 64 29 1 ",
"  c #010101",
". c #080607",
"X c #0A0708",
"o c #0C0A0B",
"O c #110D0E",
"+ c #13110F",
"@ c #130F10",
"# c #151212",
"$ c #191416",
"% c #1C1817",
"& c #1B1718",
"* c #1D1A1B",
"= c #211C1E",
"- c #241F20",
"; c #262223",
": c #292426",
"> c #2C2729",
", c #2D292A",
"< c #312C2E",
"1 c #332E30",
"2 c #363133",
"3 c #3A3436",
"4 c #3E3639",
"5 c #3D393A",
"6 c #413C3E",
"7 c #463F41",
"8 c #484042",
"9 c #4B4749",
"0 c #7D7678",
/* pixels */
"                          ....XX@%=<%@OXX...    . XX.           ",
"              .    . .   .  XXXXoO=<$@@oo.   X                  ",
"                      .     .XXXoO%,=@OoX  XX                   ",
"                  .        XXXXXoO#1=$OoX. X.                   ",
"                        .   .XXXOO$<=@@OOXXXX. X                ",
"                  .   . X.. .XXXO@#>>@@OOoXX.                   ",
"                 .     X$....X@XOO$:<$#@OoXX.                   ",
"                 . .        ..XOOO@-6$=@OoXoX                   ",
"                        . o.XXXXo@@;7&$@oooX                    ",
"              ooX     .  . .XXXXO@@-7-@@@@X..   .               ",
"                        .  ...Ooo@@-7-$@@oXX.  ..               ",
"                         . . .XXo@@&4:$@oXX. .                  ",
"                         . ....XOO@&2:@@Oo. .  XX               ",
"                       .. .  ..XoO@$,:$$OX  .. .                ",
"                         . .....XOO@:,$$oOo .. ..               ",
"                X         . . ..X@o@:1&@@oX. .. .               ",
"                            ....XOO@=1=@OXOXXX.   X        .    ",
"            .    ..  ..  .X ....XOOO=>=@OO.  XX..               ",
"           ..  $   ..    .X.  X.XoXO#>=#OoX.XX .   X            ",
"           .  .           O. ...XoOX#2,#OoXX. ..                ",
"                  ..      X..  .XooO#<2OOoXX ..X X. X  .        ",
"                .... . .  .. . ..Xoo#;6OOXoo..    .             ",
"      .          .         .X  .XXXoO;6#OoX.X.X.X.  .  X        ",
"                  .         .......Oo=6#ooX.X.   . .     .      ",
"             ..            .. .Xoo.oo$,%ooXXXX X     .          ",
"         .                    . .XoXXO==OooX .O  .              ",
"           ..           .    ..Xo.XoXX##oOX.XX X. .      .      ",
"      .          .     ..     . ...XOO#OooXXX   XXX             ",
"        .           .        .. XXXXXo#+OXoo  X                 ",
"           .        ...    .. . . XoXO#:OoO$XXX  X X  .         ",
"                .            . . Xoooo+2ooX. XX  . . .          ",
"             ..       .    .. . .  Xoo+6OooXXXo                 ",
"                . .          . . .X.ooO5#ooX                    ",
"                    X#  X      . o oooo2-oo . ..  X .           ",
"                     X      . . . .X oo>-oo                     ",
"                     .   . ..  . . X  .:=.  o.      .           ",
"                          X  .        .;-      .  X             ",
"                                      .=-.   oo..               ",
"               .         X.  .  .     .%*X   ...                ",
"              .         .             .=*X..              .     ",
"                .     . .     . X  .XXo&<@oo.X       o    .     ",
"                            .  X . .oo+&5&#@#o     .            ",
"                                   Xo++%5;##Oo      .           ",
"                              X . XX#o#$5:##@oo                 ",
"                 o             .o  XoO+$5,&$@oo                 ",
"                          o   .=#. Xo#$&25&$#o.            .    ",
"                             .;09 Xoo&&&17=&#OOXo     .         ",
"                          .   .#oXXX+###>7-$@Oo   .X.           ",
"                               .  .ooO@$:7;$Oo o  o             ",
"                                 ..*O@@#=6;#+OoX X    X         ",
"   .                              .#oO$$=5;+OOoo                ",
"                            .      Xoo&%*3:##o #                ",
"                                    XoO@%2>##X o                ",
"                                 . X oO@$<>#+o X .    .         ",
"                                 X.. OO#=<>#OX X .      .       ",
"                                    X#O@%3<#OO o                ",
"        .                       . . .oO$=36=OOXo                ",
"                                . X .oOO$36&#OOXo               ",
"                                 XOXooO#$26=%OOoX               ",
"                                O:# Xoo+$,6=##@oXX              ",
"                        .       %o. .oo##>6-%$#oo               ",
"                   .              . .oo#$:3>=#@ooX              ",
"                                @oX.Xoo$-<4-=$OooX              ",
"                            #% .X,43#oo27362-&&oo  .X           "
};
