/* XPM */
static char *result[] = {
/* columns rows colors chars-per-pixel */
"64 64 248 2 ",
"   c black",
".  c #010101",
"X  c gray1",
"o  c #020202",
"O  c #040404",
"+  c #050203",
"@  c #050303",
"#  c #080506",
"$  c #070506",
"%  c #070606",
"&  c #0A0607",
"*  c #0B0909",
"=  c #151213",
"-  c #1D1A1B",
";  c #2D2B2B",
":  c #131112",
">  c #0F0D0E",
",  c #0D0A0B",
"<  c #0B0809",
"1  c #080607",
"2  c #070505",
"3  c #040202",
"4  c #050404",
"5  c #090707",
"6  c #060405",
"7  c #030001",
"8  c gray3",
"9  c #080606",
"0  c #070707",
"q  c #0B090A",
"w  c #0E0C0D",
"e  c #181616",
"r  c #282526",
"t  c #0E0B0C",
"y  c #0A0708",
"u  c #050405",
"i  c #030202",
"p  c #080707",
"a  c #0D0B0B",
"s  c #151314",
"d  c #292728",
"f  c #1A1718",
"g  c #0F0C0D",
"h  c #090708",
"j  c #040303",
"k  c #0C0A0A",
"l  c #121010",
"z  c #292727",
"x  c #120F10",
"c  c #090607",
"v  c #0A0809",
"b  c #020102",
"n  c #060506",
"m  c #232122",
"M  c #1B191A",
"N  c gray2",
"B  c gray4",
"V  c #040203",
"C  c #0A0608",
"Z  c #0C0A0B",
"A  c #0D0B0C",
"S  c #201D1E",
"D  c #211F20",
"F  c #110E0F",
"G  c #060505",
"H  c #111111",
"J  c #050304",
"K  c #1E1C1D",
"L  c #242223",
"P  c #020101",
"I  c #010000",
"U  c #030203",
"Y  c #0C090A",
"T  c #1C1A1B",
"R  c #161113",
"E  c #181416",
"W  c #0F0D0D",
"Q  c #0E0C0C",
"!  c #1A1819",
"~  c #312D2E",
"^  c #1B1516",
"/  c #140F11",
"(  c #181617",
")  c #373334",
"_  c #1D191A",
"`  c #100D0E",
"'  c #060404",
"]  c #161314",
"[  c #363233",
"{  c #201B1D",
"}  c #231F20",
"|  c #110D0F",
" . c #141213",
".. c #2C282A",
"X. c #272324",
"o. c #110D0E",
"O. c #121011",
"+. c #282325",
"@. c #292426",
"#. c #130F10",
"$. c #151011",
"%. c #0D090A",
"&. c #221E1F",
"*. c #2B2628",
"=. c #181315",
"-. c #1E1A1C",
";. c #302B2C",
":. c #1B1617",
">. c #0F0B0D",
",. c #1A1618",
"<. c #2D292A",
"1. c #1B1718",
"2. c #0D0C0D",
"3. c #0A0808",
"4. c #141112",
"5. c #2B2728",
"6. c #1C1819",
"7. c #090808",
"8. c #131313",
"9. c #1F1B1C",
"0. c #100E0F",
"q. c #0C0C0C",
"w. c #060606",
"e. c #2A2728",
"r. c #252223",
"t. c #272526",
"y. c #2E2B2C",
"u. c #1E1C1C",
"i. c #312E2F",
"p. c #000101",
"a. c #171516",
"s. c #2A2829",
"d. c #070807",
"f. c #161415",
"g. c #0B0A0A",
"h. c #010001",
"j. c #191717",
"k. c #2F2D2E",
"l. c #020001",
"z. c #131011",
"x. c gray5",
"c. c #262324",
"v. c #201E1F",
"b. c #070405",
"n. c #252324",
"m. c #1F1C1D",
"M. c #221F20",
"N. c #242122",
"B. c #040304",
"V. c #0A0909",
"C. c #1B1919",
"Z. c #1E1B1C",
"A. c #211E1F",
"S. c #010201",
"D. c #000100",
"F. c #171415",
"G. c #2E292A",
"H. c #161313",
"J. c #342F31",
"K. c #161213",
"L. c #333132",
"P. c #332F31",
"I. c #332D2F",
"U. c #2A2526",
"Y. c #050202",
"T. c #2C2829",
"R. c #322D2E",
"E. c #191416",
"W. c #120E0F",
"Q. c #100C0D",
"!. c #131111",
"~. c #292527",
"^. c #373234",
"/. c #1B1618",
"(. c #151112",
"). c #110F10",
"_. c #120E10",
"`. c #252122",
"'. c #3B3738",
"]. c #1E191A",
"[. c #0D0C0C",
"{. c #120C0E",
"}. c #1E1719",
"|. c #383335",
" X c #1D1B1C",
".X c #0E0A0C",
"XX c #110C0E",
"oX c #1A1516",
"OX c #332E30",
"+X c #211C1E",
"@X c #0A090A",
"#X c #060304",
"$X c #141011",
"%X c #322E2F",
"&X c #100C0E",
"*X c #241C1E",
"=X c #171314",
"-X c #302B2D",
";X c #7F7779",
":X c #4B4648",
">X c #2E292B",
",X c #242021",
"<X c #1A1517",
"1X c #292526",
"2X c #241F20",
"3X c #120D0F",
"4X c #040102",
"5X c #282425",
"6X c #241F21",
"7X c #171315",
"8X c #2F2A2C",
"9X c #130E10",
"0X c #1D181A",
"qX c #141111",
"wX c #3A3637",
"eX c #1C1719",
"rX c #0F0B0C",
"tX c #100E0E",
"yX c #151110",
"uX c #302C2B",
"iX c #393434",
"pX c #1D1819",
"aX c #171213",
"sX c #0F0A0B",
"dX c #100E0C",
"fX c #14110F",
"gX c #272223",
"hX c #120D0E",
"jX c #030102",
"kX c #0D0B0A",
"lX c #110F0D",
"zX c #241F22",
"xX c #393437",
"cX c #252022",
"vX c #171214",
"bX c #110F0E",
"nX c #231E21",
"mX c #3A3538",
"MX c #1F1A1C",
"NX c #110F0F",
"BX c #211C1D",
"VX c #2E2A2B",
"CX c #191415",
"ZX c #110F0C",
"AX c #161310",
"SX c #1E191B",
"DX c #343031",
"FX c #332F30",
/* pixels */
"                          . X o o X o o . o O + + X @ # $ # % & * = - ; : > , < < 1 2 @ 3 3 3 3 3 4 5 % 6 . . 7 . X             ",
"                                    O X               o 8 9   0 q w e r = w t < y 1 u                                           ",
"                                    . o o   . .         o i   p < a s d f g a < h 1 $ $ j                                       ",
"              .                     . o .               . i   h < k l z f x k < c v 1 6 o i                                     ",
"              o                     o o                 b n 6 y w k > m M > a k w 6 j h $ 4                                     ",
"                                . X N . .   . o B       V c C < Z A w S D g g w F G o 1 1 .                                     ",
"                                . O o O .   o X H     . J y F y < A w K L > > w g * 6 $ J                                       ",
"                                  . . X     P .     I 3 6 4 U Y < Z a T d R E W g < y v 1 O                                     ",
"                                                  I 6 9 2 $ j 1 < k Q ! ~ ^ / g , y y h $ J   i                                 ",
"                          . 8             O X   . i P i 2 6 j 1 < Z a ( ) _ ` w t y v 1 6 i   ' %                               ",
"            .             . O             X o   . X   . @ @ U c < k Q ] [ { F > Y < y 1 J .   4 6                               ",
"            o                                         . @ 6 1 1 < k w : ~ } | g k y y h 2 j                                     ",
"                                                      . V 6 $ c < Z w  ...X.o.w A y h h $ j                                     ",
"                                                  . X   . ' $ 1 * t w O.+.@.#.$.%.$ 4 h G                                       ",
"                    .                                   P 2 $   c , A > &.*./ =., g k i 6                                       ",
"            . o               O                 O . . + o 6     c Y k w -.;.:.>.t , < $   b 2 $       O .                       ",
"                                                        P 4     Y w A w ,.<.1.w 2.Z 9 o v h 1     + + .                         ",
"                                                  X X   j $     3.Y Y a 4.5.6.` g Y 2 b $ h 7.@                                 ",
"                            o 8.                    o X   .     6 c Y k #.@.9.0., y $ b 6 U 6 . i     N o                       ",
"            . .             o N O                 . q.w.        6 c Y Y F e.r.w Q h G b n J '   3             . .               ",
"            . o             . . .   O X           . O w.  . 3 J $ c y < g t.e., < h $ J i 6 '   3   j .       .                 ",
"            . .       . w..         w.N             . .   . @ 6 b c c < a D y.Y < y v y 4 ' '   J   6 o                         ",
"            . .         .       o X o                     I i ' j c y Y Y u.i., < y 1 J j @ 6   i   P I P .     p..             ",
"              X o           .   . X .                 P   . i 2 $ J # y < a.s.F < y 6 . u 2 6         X P       p.d.            ",
"                .         o O                         .   I P 2 Z $ # c y : m ] y c 1 J 5 h 6 u       b .       . .             ",
"                                                              X $ 1 c c y ` T f.< , h J 2 G g.i     b h.                        ",
"                    o o   o                               .   O v 1 1 c < t = O.c Q 1 U 6 3 . .     i h.                        ",
"                    o X           X .                   . j P j 1 6 $ v v Y x t y < y 5 2 @ @ 3                                 ",
"                N                 O o                     o @   $ 6 $ h h y g g Y < < , 1 @ 3 .                                 ",
"                      o o                               . o     J ' 2 * y y a j.v y g ( 1 ' @ 4                                 ",
"                      o             o .                 . X     @ ' 2 , y c , L * 1 c $ b 4                                     ",
"                                                      O N       @ ' $ 1 c y t k.t 1 h 6 b 2 h                                   ",
"                              X                       . l.    3 3 @ . 6 q q , t.z.Z < c 2 P 6                                   ",
"                                        X x..                 i   9 9 < y < * c.v.Y < 2   b $                                   ",
"                                        . N   .           o   . 3 b.$ v y y < n.L t < c 4   P                                   ",
"                                                          .     . ' U # t < , D v.A q y 3.6                                     ",
"                                                  . P I h.      V 1 o 1 0.< A m.M.A Y y c j 6 v                                 ",
"                                                                P $ b 9 h k A T N.a A y 6   b O                                 ",
"                            .                                   G B.. j h 7.V.C.N.a a < 2         o I                           ",
"                            w..         .                   .   u     U 5 1 7.Z.A.Z k < c 4 4     P           S.D.              ",
"              o         .     o         .                 . O     j J 3.Z k a F.G.| Y < < < y j j                               ",
"              o                                             o X   j J c , A w H.J.K., Z ` < y J B.i i I                         ",
"              o                                               O     o # < Q >  .L.f > w a Z y U   4 J P                         ",
"            . o                                       .     . .     p y t a A z.P.M.` > a y , y U b                             ",
"              .                   X .               . o   . O @ O   u h Y Z A O.I.U.4.` Q k t c y h i                           ",
"              .                   X o                     . X Y.c o # y k W 4.z.T.R.E.W.Q.Z < c 1 6 P                           ",
"            o .                                           . X i 6 1 $ < < !.4.F ~.^./.(.g A Y c y 6 P                           ",
"            . .                                       o X . O X @ ' . $ , ).F _.`.'.].F [.< y h                                 ",
"            . .                                               O   ' 2 $ h k A {.}.|.{ W.A < y h   # q o                         ",
"            . .                                             o   2 @ 6  XQ , .XXXoXOX+Xg @X< y 5 $ # b       J P                 ",
"            . .                                         .     #X#X@ 6 = , Y $XW.oX%X&.&X, < y < h ' .       P I                 ",
"            . .                                           I 6 *Xo.2 y 3.y Y ] z.=X-X&.XXXXY v z.i .                             ",
"            . .                                           I c.;X:X6 1 y y Y A 0.(.>X,XXX&XY < q   ' G X                         ",
"            O X                                             4 <Xv J 6 y y < a > #.1X2X3X&XZ y 1   v j .                         ",
"            o .         .                                     4X  i U 4 9 < a 0.4.5X6X3X&XY y $   A o                           ",
"            . o         .                                               6 4.a w 7X>X8X9Xo.A < v   1 b                           ",
"            . .                                                     o . $ > w : - 8X|.0X$X> a $   1 b                           ",
"            . w.                                                  o u b $ Y g ).qXR.wXeX$.&XrX    J .                           ",
"            . O                         . .                     . 4 1 P $ * a tXyXuXiXpXaXXXsXi                                 ",
"                                        o o                     i + b.. 4 3.Z dXfXgX|.{ R / hXZ i                               ",
"                                                                jX3 .     1 kXlX= zXxXcX/.vX#.a 9                               ",
"                                                                I 3 . . b v tXbXK.nXmX8XMXK.3XA   i h..                         ",
"                                                                3 @ . u 1 * Q NXK.BX|.VX_ CX9Xw   < i j .                       ",
"                                                          O N   3 @ $ 1 < < A ZXAXSXDXFX9./.<X0.        4 ' j                   "
};
