/* XPM */
static char *result[] = {
/* columns rows colors chars-per-pixel */
"64 64 230 2 ",
"   c #010101",
".  c #0A0504",
"X  c #0B0807",
"o  c #0A0708",
"O  c #0B0A0A",
"+  c #120603",
"@  c #140906",
"#  c #1C0B05",
"$  c #110E0D",
"%  c #1C0A06",
"&  c #1A110E",
"*  c #14100E",
"=  c #120F10",
"-  c #151213",
";  c #1A1415",
":  c #1B1718",
">  c #1F1A1B",
",  c #1B1817",
"<  c #230C05",
"1  c #270D06",
"2  c #2C1105",
"3  c #2A140B",
"4  c #28140B",
"5  c #331406",
"6  c #361A06",
"7  c #331A0B",
"8  c #3B1C0A",
"9  c #391A07",
"0  c #221C1D",
"q  c #271B15",
"w  c #301E1E",
"e  c #2B221F",
"r  c #382419",
"t  c #3D220D",
"y  c #231F20",
"u  c #252122",
"i  c #2A2425",
"p  c #2E292B",
"a  c #2A2728",
"s  c #322B2D",
"d  c #382A26",
"f  c #342E31",
"g  c #363133",
"h  c #3B3335",
"j  c #3C3639",
"k  c #3F3A3B",
"l  c #411D08",
"z  c #432107",
"x  c #44220A",
"c  c #4A250A",
"v  c #4D2A0A",
"b  c #4B2807",
"n  c #532C0C",
"m  c #5B340E",
"M  c #462817",
"N  c #532C12",
"B  c #5C3412",
"V  c #5D3913",
"C  c #5D381C",
"Z  c #653B0E",
"A  c #623511",
"S  c #643B12",
"D  c #6A3E15",
"F  c #473227",
"G  c #563927",
"H  c #423A3D",
"J  c #493A3A",
"K  c #573D34",
"L  c #462B23",
"P  c #6E441A",
"I  c #754B1B",
"U  c #7C4D1B",
"Y  c #734515",
"T  c #7A5019",
"R  c #694528",
"E  c #764E22",
"W  c #7C5225",
"Q  c #64493C",
"!  c #7A5539",
"~  c #473E42",
"^  c #4A4345",
"/  c #4D4649",
"(  c #4B4649",
")  c #534A4D",
"_  c #574949",
"`  c #554E52",
"'  c #594D51",
"]  c #5B5156",
"[  c #5E5559",
"{  c #5F504F",
"}  c #7A5A47",
"|  c #665759",
" . c #755D55",
".. c #6A4E48",
"X. c #7A635B",
"o. c #695E64",
"O. c #665B60",
"+. c #6D6064",
"@. c #72646A",
"#. c #77676A",
"$. c #786C71",
"%. c #7E7178",
"&. c #81531A",
"*. c #845522",
"=. c #875A27",
"-. c #905E26",
";. c #895F38",
":. c #97662D",
">. c #9A6B36",
",. c #956A3A",
"<. c #A26C2B",
"1. c #A77438",
"2. c #825E47",
"3. c #8F6947",
"4. c #946C49",
"5. c #8A6856",
"6. c #997556",
"7. c #97724D",
"8. c #A77A49",
"9. c #A57955",
"0. c #836C6B",
"q. c #997566",
"w. c #867678",
"e. c #957975",
"r. c #916963",
"t. c #AE8147",
"y. c #B7874A",
"u. c #AD8354",
"i. c #AA865B",
"p. c #B88B58",
"a. c #BD925D",
"s. c #9A817E",
"d. c #A78367",
"f. c #BC8E69",
"g. c #BA926B",
"h. c #A98676",
"j. c #B9957A",
"k. c #C49358",
"l. c #C49563",
"z. c #C79A66",
"x. c #C69C77",
"c. c #C08F63",
"v. c #D6A76E",
"b. c #C8A477",
"n. c #D5AB77",
"m. c #D7B37B",
"M. c #CFA568",
"N. c #857A80",
"B. c #9A8587",
"V. c #978990",
"C. c #A88986",
"Z. c #B89686",
"A. c #B69893",
"S. c #A79293",
"D. c #B09DA3",
"F. c #BAA6AC",
"G. c #B9ABB2",
"H. c #C9A685",
"J. c #D4AC87",
"K. c #DBB688",
"L. c #C8A595",
"P. c #D9B796",
"I. c #D2AD99",
"U. c #E3BA87",
"Y. c #E3BE97",
"T. c #D7B8A9",
"R. c #C9B5B9",
"E. c #D3B7B2",
"W. c #E0B7A0",
"Q. c #E6C28C",
"!. c #E6C493",
"~. c #E6CA99",
"^. c #EBCC9A",
"/. c #E7C697",
"(. c #ECD19C",
"). c #EED799",
"_. c #F2D89B",
"`. c #F1DD8B",
"'. c #F6E69B",
"]. c #D7C0BD",
"[. c #E6C5A6",
"{. c #EDD3AB",
"}. c #EEDBA7",
"|. c #F2DAAA",
" X c #F3DBA8",
".X c #EDD7B8",
"XX c #F3DCB5",
"oX c #EEE2AD",
"OX c #F4E4A4",
"+X c #F6EAAB",
"@X c #F4E6A9",
"#X c #EDE1B7",
"$X c #F4E5B4",
"%X c #F5EAB4",
"&X c #F5E4BD",
"*X c #F6EBBA",
"=X c #F9EBB7",
"-X c #F7F1B4",
";X c #FAF3B5",
":X c #F9F4BB",
">X c #FAF7BE",
",X c #CDBBC2",
"<X c #DECED3",
"1X c #CFC0C5",
"2X c #F1D9C8",
"3X c #EAD4D1",
"4X c #F6ECC3",
"5X c #F5EDCB",
"6X c #F9EDCD",
"7X c #F8E9C4",
"8X c #F6F3C4",
"9X c #FAF4C3",
"0X c #FBF9C5",
"qX c #F6F3CB",
"wX c #F9F5CB",
"eX c #FCFBCC",
"rX c #F5EAD7",
"tX c #FAF5D4",
"yX c #FCFBD4",
"uX c #FBF5DA",
"iX c #FCFBDB",
"pX c #F6F4D4",
"aX c #ECDDE3",
"sX c #F6E8E7",
"dX c #FDFCE3",
"fX c #FDFCEB",
"gX c #FAF5E6",
"hX c #FEFCF3",
"jX c #FEFDFA",
"kX c #FBF5F0",
/* pixels */
"  O                               . o   o O = - : y y y y y y > : ; = O o   o                         O                 o       ",
"                                    o o O = - 0 i a p f f f p a y : = = o o o   .                                               ",
"                                  o o O = ; y i p g j j k j j g p y > = O o o   .                                     O   o     ",
"                                  o o = ; y a f k ~ ( ( ( ^ ^ H j f i 0 ; $ O . o                                               ",
"                                  O O ; y p f ~ ( ` ] ] ] ] ` / ~ j f i 0 = $ . o                                               ",
"                                o O = > i g k / ] [ O.$.$.o.+.w.#.~ H f y : $ o O .                                             ",
"                                . = - y p j ~ ` o.o.@.N.V.%.$.w.#./ ^ h i q ; O X X                                             ",
"                              o . $ : a g ~ ) | o.$.N.D.G.V.%.$.+.| _ ~ L d w & @ . o O                                         ",
"                            .   X $ 0 s H / | +.e.N.N.,X<XR.C.e.e.5.....Q G r 7 & + X .                                         ",
"                            O = $ ; w g J { | 0.e.N.A.3XaX,XA.C.e.q.r.q.q.} R M 8 1 # X . .                           O O       ",
"                            o o $ : e H _ |  .e.e.Z.A.aXaXE.T.A.Z.Z.j.j.j.6.! V b 6 2 # . . .                                   ",
"                            . o $ q d K ..5.q.h.Z.L.T.sXsX2X2X[.U.P.Y.H.P.b.i.W P n z 5 # + . .                             O   ",
"                          o . o & r F K } h.j.I..X.X2XkXkXgXdX7X.X{.|.^./.J.k.>.T P V c 9 < + . O                 O             ",
"                            . @ q M ..3.q.P.J.Y.2X6XgXkXhXfXfXdXiXuXtX5X7X|.m.k.t.=.T S v 6 2 # .                               ",
"                          . + # 7 F 5.4.g.T.[.6XgXfXhXjXhXhXfXfXfXdXgXiXuX5X$Xv.K.y.:.T S v 8 < . .                             ",
"                        . X @ 5 M R 6.x.P.{.5XhXfXfXfXjXfXdXdXfXdXdXdXdXdXtXuX^.^.m.k.>.&.Z n 9 # . . .                         ",
"                    . . . # 1 l C 9.g.x.U.{.6XdXiXiXiXhXfXyXyXiXiXyXyXiXiXtX%X*X~.OX~.n.:.T Y b 5 @ . .       o                 ",
"                      . % 2 l B 2.J.x.n.Y.*XuXdXoXyXiXhXfXiXiXqXyXyXyXeXeXtX*XiX&XOXoX(.M.:.T V x < + .                         ",
"                      + < 9 c D 7.K.Y.Y.(.tXfXfXqXdXdXhXfXiXdXyXeXeXeXeXeXyX7X=X}.eXtXoXQ.y.-.P v 6 < .                         ",
"                  . . % 2 l A ;.u.U.|.=X9XtXqXiXyXpXiXhXhXdXdXiX0XyXeXyXeX8X8XwX4XiX7X:XoXM.1.*.Z t 2 + .   o                   ",
"                  . . % 5 ! d.P.!.[.|.9XtX X_.9XwXqXyXfXjXfXdXiXiXyXeXeXeX+X`.iX8X0X).9X9Xm.p.y.I v 6 # .                       ",
"                  . + < 8 ! J.H.oX|.*XeXuXwXwX:XyXiXyXfXjXfXyXyXyXeXeXeXyXeXwXdXiX0XOXwXqX_.m.t.W n t # X                       ",
"                  . + < 9 5.x.i.^./.oXyXiXgXgXyXiXfXiXdXjXdXyXeXeX0X0XeXyXyXuXdXdXwX>XyXiX@Xn.t.*.m t # + .                     ",
"                . . . 1 9 R =.7.U.=X*X$X5XdXdXiXiXiXiXiXjXdXyXyXeX0X>X-XeXyXiXdXeX>X>X0XyX+XQ.y.*.m z 2 +                       ",
"                  . . < l R I m.z.|.9XyXqXiXfXiXdXuXyXiXhXfXyXeXeX0X>X>XeXiXiXiXeX>X>X:X9X%X(.z.*.A c 2 . .                     ",
"                  o + < x 3.3.f.K.|.8XiXtXdXuXdXfXfXfXiXhXdXyXyXyX0XOX;X>X;X:XeX>X'.:X0X8X@X~.l.>.A C 2 + .                     ",
"                    + K M 2.9.p.b.~.|.qX6XuXtXiXfXhXfXiXhXfXyXyXyXeX:X:X;X'.'.;X;X`.-X>X9X=X~.l.>.P A 2 + . .                   ",
"                  . . < 8 R 4.4.m.!.4XuX*X=XiX$XdXhXyXpXhXfXiXyXyXeX:X;X;X;X+X'.+X:X0X4X%X*X=X~.f.W v 2 + .                     ",
"                . . . % 8 ! 7.8.m.XX6XpXXX_.tX=X8XfXdXiXfXdXyX0X>XeXeXeX+X'.;X;XyXiXyXeX=X+X Xn.8.P c 2 +                       ",
"                    . # M R R p.a.$X5XuXpX%XoX%XpXiXdXdXhXfXyXeXeX0X0XeXeX0X:X'.iXdXdXeX'.^.v.1.:.A c 2 + . .                   ",
"                  .   # K N P 9.a.|.5XuXuXpXqX8XpXqXiXiXfXhXyXeX;X-X>X0X0X>X'.'.dXiXdX4X). XU.1.*.A l 5 @       O               ",
"                    . . L R C p.f.!.$X&XdXiXyX8X0X0XyXiXfXhXqXuXyXyXyX0X>X;X;X;XyXyXyXyXuX9X{.1.U A c 1 @                       ",
"                    . . 2 G B i.8.m.Q.^.qXtXwXpXwX8XpXiXdXhXfXdXdX8X0XeX+X;X0XeXyXyXiXtX#XtX&X1.U A l 1 X                       ",
"      O               o # 2 c I 8.l.Q.=XgXfXpXyXpXyXeXeXdXjXfXiXiXeX0XyX'.0XiXOX;X0XwX6X7X|.n.-.D N 9 % .                       ",
"                      . + 1 z A =.y.m.=XiXfXwXwXwXOX+X0XdXjXfXwXeXyXyXyX;XyXiXOXOX X@XtX&XK.l.=.D l 5 % . .                     ",
"                        . < 5 n U :.t.Q.8XdXfXiXyX+X*XqXfXhXjXuXeXeX;X+XiXiXiX9XtXwX%X Xv.a.8.U n 9 1 + X                       ",
"                          + 1 z A *.<.v.=XyXdXiXyXyXdXfXfXhXjXgXwX0X-XOXyXyXiXuXwX#X^.k.1.>.=.V l 5 < .                         ",
"                        . . # 9 N Y *.k.U.$X9XyXiXiXiXiXfXgXhXuX5X8X4XwXyXiXtXoX{.~.a.:.:.;.S c 5 % .                           ",
"                          . + 4 b Z &.1.m.(._.=XyXXX&X4XfXgXkX6X5X6XuXuXiXtX}.!.!.p.<.>.;.A c 6 # . .                           ",
"                          . $ % 5 v S W 8.l.J.n.^.U.U.}.6XgXfXsX6X6X7XXX{./.J.z.u.>.:.E B x 7 # + . . .                         ",
"                              X < 6 b V T 7.u.u.b.}.~.P.P.[.2XhXuX[.T.J.H.x.c.9.3.*.R M t 3 % + o                               ",
"                              . X < 3 M V R ! 7.d.g.h.L.I.I.T.sXsXE.T.Z.h.r.r.2.Q C L w 3 @ X .   .                             ",
"                                . + # 7 M G R } 5.0.q.Z.Z.Z.S.aXsXE.R.e.e.r. ...~ F M 3 % X . o                                 ",
"                                . . + % q r F K Q  .X.e.w.s.B.R.sX,XR.e.0. .| _ J w w & $ o   o                                 ",
"                                  O o X & q e d J _ | +.$.w.N.S.aX,XD.%.@.O.' ~ F y > $ o .         o                           ",
"                                      o X & e d h J ' | o.$.$.w.,XG.V.@.O.[ ) ~ h y ; $ o o                                     ",
"                                      X X * - i s H ^ ` [ +.+.$.S.D.N.o.[ ` ~ j s y = = o   o                                   ",
"                                      o   O $ , u f k ^ ` [ O.o.@.%.o.[ ` / ~ j y y = O   o                                     ",
"                                      .   o O - 0 a f H ^ ( ` ] ] ] ` ) ( k h p 0 - O O   .                                     ",
"                                        . o O O - y i f j ~ ( ( ( ( ( ) ~ g p y : = O O       .                                 ",
"      O                                   O o O = ; y i f g j H ~ ~ k ~ f p p y - O O                                           ",
"                                              O o = ; > i p p f f f f s i y u - O O O   o                                       ",
"O                                       .     . o o O = : 0 y y y u u y > ; = O O o .                                           ",
"                                                  o o O = = - : : ; : ; - O O o o o                                             ",
"                                                  o   o o O O O O O = = O o O   O                                               ",
"                                                  o o o   o O o O o o o o O o . o o                                           O ",
"                                                    .   o     o o o O o o o   o O                                               ",
"              O                                           o   o o           o                                                   ",
"                                                        .         o               O                                             ",
"                                                                    o                                                           ",
"                                                                                                                                ",
"                                                                                        O                                       ",
"                                                                                                                                ",
"                                                                                        O   O                                   "
};
