/* XPM */
static char *result[] = {
/* columns rows colors chars-per-pixel */
"64 64 197 2 ",
"   c black",
".  c #010101",
"X  c gray1",
"o  c #020202",
"O  c #060304",
"+  c #030001",
"@  c #050303",
"#  c #080506",
"$  c #060405",
"%  c #070506",
"&  c #080707",
"*  c #0A0608",
"=  c #0C090A",
"-  c #121010",
";  c #181617",
":  c #2A2728",
">  c #110F0F",
",  c #0D0B0B",
"<  c #0A0809",
"1  c #090607",
"2  c #060404",
"3  c #040202",
"4  c #040203",
"5  c #080607",
"6  c #010201",
"7  c #070607",
"8  c #141212",
"9  c #262424",
"0  c #0D0A0B",
"q  c #0C0A0B",
"w  c #0A0708",
"e  c #070505",
"r  c #050304",
"t  c #020101",
"y  c #040404",
"u  c #050405",
"i  c #121011",
"p  c #262324",
"a  c #171516",
"s  c #0B0909",
"d  c #030202",
"f  c #090708",
"g  c #070405",
"h  c #0F0D0D",
"j  c #232021",
"k  c #161415",
"l  c #100E0F",
"z  c #0A0808",
"x  c #020102",
"c  c #070304",
"v  c #080606",
"b  c #1E1B1C",
"n  c #181516",
"m  c #0E0B0C",
"M  c #090909",
"N  c #010000",
"B  c #040303",
"V  c #0B0809",
"C  c #1B191A",
"Z  c #201E1F",
"A  c #111111",
"S  c #1A1819",
"D  c #222021",
"F  c #0B090A",
"G  c #050404",
"H  c #030102",
"J  c #171415",
"K  c #201E1E",
"L  c #110F10",
"P  c #131111",
"I  c #080708",
"U  c #0C0A0A",
"Y  c #131112",
"T  c #252223",
"R  c #141112",
"E  c #0F0D0E",
"W  c gray3",
"Q  c #2B2929",
"!  c #151314",
"~  c #0D0B0C",
"^  c #060505",
"/  c gray2",
"(  c #2B292A",
")  c #1A1718",
"_  c #272525",
"`  c #1F1C1D",
"'  c #090707",
"]  c #100E0E",
"[  c #232122",
"{  c #0F0C0D",
"}  c #1C191A",
"|  c #272526",
" . c #161314",
".. c #050202",
"X. c #151313",
"o. c #282627",
"O. c #030203",
"+. c #060606",
"@. c #070606",
"#. c #211F1F",
"$. c #0E0C0D",
"%. c #201D1E",
"&. c #2A2527",
"*. c #0D090A",
"=. c #2A2627",
"-. c #0E0A0B",
";. c #131011",
":. c #110E0F",
">. c #191617",
",. c #090808",
"<. c #120F10",
"1. c #0A0909",
"2. c #1C1A1B",
"3. c #050203",
"4. c #191717",
"5. c #211E1F",
"6. c #040304",
"7. c #1B1819",
"8. c #1F1D1E",
"9. c #191718",
"0. c #010001",
"q. c #020001",
"w. c #1A1818",
"e. c #292627",
"r. c #0E0C0C",
"t. c #090809",
"y. c #2D2B2B",
"u. c #2C2A2B",
"i. c #171515",
"p. c #292728",
"a. c #1E1C1D",
"s. c #272425",
"d. c #0B0B0B",
"f. c #2C292A",
"g. c #231D1F",
"h. c #312C2E",
"j. c #151213",
"k. c #060102",
"l. c #1E1A1C",
"z. c #363133",
"x. c #191516",
"c. c #060203",
"v. c #070404",
"b. c #171315",
"n. c #302B2C",
"m. c #1A1618",
"M. c #1D1A1B",
"N. c #141011",
"B. c #2B2628",
"V. c #1B1718",
"C. c #121111",
"Z. c #151112",
"A. c #292426",
"S. c #111010",
"D. c #0C0607",
"F. c #1E1C1C",
"G. c #140D0C",
"H. c #060202",
"J. c #1D1B1B",
"K. c #282525",
"L. c #87807F",
"P. c #524D4E",
"I. c #282526",
"U. c #272324",
"Y. c #161112",
"T. c #1C1718",
"R. c #262123",
"E. c #312D2E",
"W. c #130E0F",
"Q. c #2B2527",
"!. c #342F31",
"~. c #181214",
"^. c #030101",
"/. c #120E0F",
"(. c #342F30",
"). c #191416",
"_. c #120E10",
"`. c #0C0B0B",
"'. c #211C1E",
"]. c #332E30",
"[. c #1B1618",
"{. c #130F10",
"}. c #1F1A1C",
"|. c #211C1D",
" X c #171314",
".X c #1D181A",
"XX c #2D282A",
"oX c #1C181A",
"OX c #1C1819",
"+X c #322D2E",
"@X c #2C2829",
"#X c #1A1517",
"$X c #110C0E",
"%X c #191415",
"&X c #2E2A2B",
"*X c #302B2D",
"=X c #1E191B",
/* pixels */
"                          . X o o X X o . o O + . o @ # $ % & * = - ; : > , = < 1 % 2 3 3 3 3 3 4 @ 1 5 $ 6 . +                 ",
"                                .                       X 7   & < = 8 9 8 0 q w 1 % e r                       t                 ",
"                          o                 . .       . y u   1 w = i p a , s w w $ d % 4 e f                 .                 ",
"                        o X                 .         t g $ $ & 5 w h j k l z 5 1 5 $ 2 @ o x       d .       o                 ",
"                                          X o         . c v 5 o q 5 = b n m < w = v e % %           .         .                 ",
"                                            . o M     N B e % % V w V C Z 0 = V m w 5 e 5 t                   .                 ",
"                                            o y A . X N B f h 1 w w V S D m m V V F % @ G t                   .                 ",
"                                            . .     d H d @ d < 1 w s J K L P = = $ r f $       d   t .       X                 ",
"                  .                               . I g G G   d f w U Y T R E = w % % 5 2 x     d   t d .     .                 ",
"                  y       . W                       N d e $ r r 5 1 s - Q ! V = ~ # ^ % @ o           d .     .                 ",
"                          . /     .                   . 2 % 0 ^ 5 1 V l ( ) = U < G x % B .                   o                 ",
"                  .               o .                 t @ 2 e   % f q h _ ` 0 = ' $ B 1 2 4     .             .                 ",
"                  .                                   . H B $ d 1 f = ] [ [ , q = f w < e 3   o s             .                 ",
"                  .                                     . X $ f % = = E ` 9 { > F w f z $     @ 3             .                 ",
"                  .                                     . G 2 f   V V 0 } | ]  .V ~ U % r                     .                 ",
"                  .                               . 3 ..@ $ $ $   w w V a : k ~ U F < 5 r     e               .                 ",
"                  .                                 . o t # $ $ f ~ V = X.o.) ~ V z 5 o V z 1 @   2 o         .                 ",
"                                                N B     X v 5 5 w = w V ] p ; = 0 V 1 5 # ^                   .                 ",
"                  .                               d & X   d $ % o f w V h j } , w $ o O.$ .                   o                 ",
"                  .                                 +.o     N y   x @.1 0 #.b < $.B   x 2 d     d             o                 ",
"                  .                                           y   G % % V %.j V V B   x @ d G   3 d N   B . o +.                ",
"                  .                                           y G % % # w } &.*.$ u 5 f G   .   . .     . .   .                 ",
"                  .                                           o % 5 5 1 V n =.-.1 % e 2 r d d         o       .                 ",
"                  .                                       . B O.d 5 G 5 f ;.T { # O.O.x 2 2 O.        G N     .                 ",
"                  .                                     . . @ v % < r B # :.%.P G d G r 5 @.B         t       .                 ",
"                  y                                     t t e @ % e G . % m >.R # ,.v 5 r B F                 o                 ",
"                  .                             X         . d B < 2 X x # 0 ! <.' 1.G 5 B                     .                 ",
"                                                y .     . o .   v B G f 5 z L = $ u @.% 3                     .                 ",
"                                                          t e t $ . B % O.^ = V f G u < r N   .     N         .                 ",
"                                                          t 2 $ @ 3 @ f 5 5 F i ^ G , a $ d   G   t 3 d .     .                 ",
"                                                          . 3   3 3 2 q w 1 = 2.< B o 1 $ 3       @ 3.O t     X                 ",
"                                                                3 3 2 5 x g = #.0 5 $ x % 2 < 2     d .       .                 ",
"                                                        .           3 % f < = 4.l w 1 % v e 3.                .                 ",
"                                                                  +.e 5 5 w 1 ) ` 1 $ x % 2 @                 .                 ",
"                                                                . y ^ f G v 1 } 5.f ^ x % 5 $               d G                 ",
"                                          o           y         . / % 6.F ' < 7.b % % $ f f e               t y                 ",
"                                          o           .         B ^ $ % { w F ) 8.1 # o G 1 # '               .                 ",
"                                                    . . o t     . . B 5 5 < s 9.[ s V v % = $.B         0.    .                 ",
"                  .                                   . . 0.    G   @ B # = 0 >.j , q w 5 $ f d   d G . q.    .                 ",
"                  .                                         .   G B $ r # w = w.Z U V w 1 $ 5 r d t t . N     .                 ",
"                                  . .           o .       . X     ^ 5 = U V w Y e.r.= w w f # 2 2     d t t.t .                 ",
"                                                  o               / % V < V V l y.i U = r.w 1 B % t   d t G . .                 ",
"                  .                                               / 5 < w V 0 l u.i.$.= V V 1 d % 3 N .       .                 ",
"                  o                                   . . o     . X f w = w V r.p.a.$.= V w 0 5 5 .   B N   N o                 ",
"                                                    . o . t   . W y $ e f w V h s.T <.= = s 0 1 f v o         .                 ",
"                                                    d.. . .     / G % B v 0 > E j f.R ~ , V w 1 ' 2 t     . o t                 ",
"                                                        y X         @ 1 5 > L 0 g.h.j.> = = < 5 f @ @ .   @.5 d                 ",
"                                                                  k.g 5 V , m ~ l.z.x.q = f 1 z 2   G d       .                 ",
"                                                        . o   2   c.v.x % d G = b.n.m.~ V f 5 5 %   ,.o       .                 ",
"                  .                                   . o           B M.= = V = N.B.V.< d %   1 % O .     d @.t                 ",
"                  .                                           H B d t C.w 1 ] , Z.A.m.q # 1 e w 5 @ 4 N   4 d .                 ",
"                                                          N q.3 2 e % 5 % 5 ;.h L s.7.0 = w 1 S.$ 3 t     N B t                 ",
"                                                        . B + ..@ $ $ $ 5 5 f = $.T b ~ = w 1 y $ 2 .       N X                 ",
"                                                          N N D.3.$ $ # 5 % 5 V , F.b ~ = V 1   % f t         .                 ",
"                                                            q.G.H.f % $ # 1 w 0 E J.a.r.= V 1   % F x         .                 ",
"                                                          N K.L.P.c @ . $ <.V q Y j I.E q s f $ G % 3 N       .                 ",
"                                                            +.U.Y.q.4 . G ~ V :.T.R.E.V.> = w =   B 3 .       .                 ",
"                                                          . . 0.q.O.G t d V 0 m W.Q.!.~.{ q U 1 G G @ ^.N   . d                 ",
"                                                          .       y % .   v w $./.B.(.)._.m = % w V # @ t   t `.                ",
"                                                              t   . B .   % V m /.'.].[.{.L ] B 5 # q t $ B . o                 ",
"                                                              d   o B . . % = ~ :.}.E.|. XY l = B       d @.d .                 ",
"                  X                                                 3 . r w m h /..X].XXoX<.{ = = d B o N ^ t .                 ",
"                  X                                                 B t G 1 = E /.OX+X@X#XZ.$X0 F w U # t     .                 ",
"                  .                                       X y     o $ $ z 1 = E ;.%X&X*X=XV.).m 1   % 1 e o   .                 "
};
