/* XPM */
static char *result[] = {
/* columns rows colors chars-per-pixel */
"64 64 122 2 ",
"   c black",
".  c #010101",
"X  c gray1",
"o  c #020202",
"O  c #040102",
"+  c #030101",
"@  c #020101",
"#  c #070404",
"$  c #040202",
"%  c #050202",
"&  c #040303",
"*  c #070305",
"=  c #060405",
"-  c #0D0A0B",
";  c #0A0708",
":  c #161414",
">  c #090607",
",  c #070506",
"<  c #030001",
"1  c #050203",
"2  c #070606",
"3  c #040505",
"4  c #010202",
"5  c gray2",
"6  c #060505",
"7  c #080607",
"8  c #0A0809",
"9  c #161415",
"0  c #0B090A",
"q  c #090708",
"w  c #060404",
"e  c #050304",
"r  c #050404",
"t  c #110F10",
"y  c #0D0B0B",
"u  c #070505",
"i  c #050303",
"p  c #060304",
"a  c #080606",
"s  c #010000",
"d  c #030202",
"f  c #020102",
"g  c #040203",
"h  c #020001",
"j  c #0A0808",
"k  c #0F0C0D",
"l  c #080506",
"z  c #090707",
"x  c #120F10",
"c  c #0B0809",
"v  c #0C090A",
"b  c #030102",
"n  c #0C0A0B",
"m  c #110F0F",
"M  c #080707",
"N  c #0E0C0C",
"B  c #0F0D0E",
"V  c #040404",
"C  c #010001",
"Z  c #100E0F",
"A  c #0B0909",
"S  c #000100",
"D  c #121010",
"F  c #161314",
"G  c #090808",
"H  c #0C0A0A",
"J  c #100D0E",
"K  c #171415",
"L  c #141112",
"P  c #030203",
"I  c #070405",
"U  c #151313",
"Y  c #110E0F",
"T  c #131313",
"R  c #131111",
"E  c #010201",
"W  c #040504",
"Q  c gray6",
"!  c #0E0C0D",
"~  c #0D0B0C",
"^  c #0F0D0D",
"/  c #060606",
"(  c #171515",
")  c #030403",
"_  c #0E0B0C",
"`  c #181516",
"'  c #070707",
"]  c #0B0A0A",
"[  c #030302",
"{  c #010302",
"}  c gray5",
"|  c #141212",
" . c #000101",
".. c #121011",
"X. c #090809",
"o. c #030404",
"O. c #050504",
"+. c #151213",
"@. c #0B0B0B",
"#. c #191718",
"$. c #1C1A1A",
"%. c #1C1A1B",
"&. c #191717",
"*. c #1B1919",
"=. c #020302",
"-. c #100E0E",
";. c #040001",
":. c #131112",
">. c #1A1718",
",. c #050302",
"<. c #010100",
"1. c #060605",
"2. c #231517",
"3. c #0B0707",
"4. c #191617",
"5. c #252424",
"6. c #888284",
"7. c #504D4E",
"8. c #1A1819",
"9. c #545152",
"0. c #2E2C2C",
"q. c #181617",
/* pixels */
"                          . X o o o . . . o X O + @ O # $ % & * = - ; : - ; > , = $ $ $ $ $ $ < < 1 > 2 3 4 @ @ . o             ",
"                          . X           o 5 . . .     . 5 6 1 3 6 7 8 9 0 7 q , w $ $ $ e , $ <                 . .             ",
"                                        .   . o X     @ w w % r = 7 q t y 7 7 , u r i w p a > s     d .         o X             ",
"                                            . o       @ i i i w = 7 > - y 0 , , e i i i & f g h     . s         o .             ",
"                                          X X X . @     o w i = j 7 > - k 8 l , z $ i u u d . q   h s           o .             ",
"                                    X .           s     . i $ w , 7 > - x c > > v p i = u s   X   b s           X .             ",
"                                    .       . .         d , n $ = 7 > v m 0 ; z 7 > 1 i &         @             M @             ",
"                                            . .   s h @ $ i e u i , > c N - B 8 j = i a w r   @     . .         d 5             ",
"                                                  h v u u p i i w , > ; y v v l , w = g b $   @ @   . g @       @ s             ",
"                                          V V C s d + + w $ i i w , l ; Z - ; l ; e u i s @ @ d d     V o                       ",
"                                          X X @ o r b . $ @ A w i w , ; x k q > l e e i . @ d u .     4 S       S 4             ",
"    . .                                           f @ . d @ i i i u 7 > D x > 7 = w i i i $   i i s             5 .             ",
"                                                  . s C d d $ e w u , c Z F 7 > 7 , l w r d   a G + .           V V             ",
"                                                  o X s s @ $ u = , , 8 k F , H 7 , u , r . . 1 . < s           6 @             ",
"                                                  C & s $ e $ i i , , l - 9 7 J 7 c q = i i w 1 u               r @             ",
"                                                V   @ $ f i $ $ i , , l c K Z 7 q 7 , i i i w , ,               s h             ",
"                                    X .           d g   f w $ $ w z 7 > ; L B ; > a = w u u u e =   P .           h             ",
"                                                  P w e I p w w i w , , 7 U Y ; q w i i $ , q $         o .     o               ",
"                    . o       T                   d j g s @ i @ i w , , 7 R J ; 7 e w i d @ i C   @ E W o       .               ",
"                    . .       X                   . Q r   . i d i i , , , ! ~ 7 0 w i $ $ $ i & d s                             ",
"              o                                     . @ w $ $ i i i w , , ^ x , , w $ $ d d w o $ + C d r .                     ",
"    . .               . /                           . @ . . . . i i e , , k ( l 7 , u u $   .   . $ e g f C     S )             ",
"    . .                         o                   . V r     @ i w w 7 7 _ ` 7 7 , w e i d d   d w d @ o .     . E             ",
"    . .         .               .                   . @ d . X i i = e w , c L 8 , e i i r = d @ O d . X E       @ '             ",
"                .                                   . .   s b u z a i $ w ; J 8 u i i i , a d a d d s .         . .             ",
"                                                o . . .   h + i i w w e i u y c l A a & b & ] &   p .           o .             ",
"                    o o                     .   5         d w i q i w = I u H n u n I & .   @ @ . i d           . .             ",
"                    o o           X .       o o X .   . . X w i w d $ w u u ; q = u = i & . & e j 6 w s                         ",
"                                  V o                 o   o w $ w   $ i = u 7 > , w a z i . . . [ . . .         . .             ",
"                                            .   . .     . X r w $   $ u w = l c i i A U w i u r { d $ = d       V .             ",
"    . .                               .   . .         . X X   $     i q w i , - e + g i i p i X o     i w @     M @             ",
"                                            o o   . o V V s <   $   + g i i u y a 1 i i i i ; X o & . $ @       @ C             ",
"                                                        .     i $ $ $ i u w a ; > u i $ i p <     i s i s       C C             ",
"                                        X }               C < $ $ u w = e = = 7 | e 1 $ $ i i $ $   i .          ..             ",
"                                        . 5   . .         o 1 . . d = = = = = > ..u i g i r e $ $   .           . .             ",
"                                                  . . V   @ i     i w = 0 = = q y u = w u i $ . $   @ s         . .             ",
"                  . o .                           o o .   @ $   d w i u H = 7 8 ^ u = = = i $ 2 i g M X         . .             ",
"                  . o         V                           @ < h $ r i w i = , c Y = , I i a j , i @ . f         . o             ",
"                              X                   o o     X < h w w i i w > > ; R , , = i i i $ i   V b @ .     @ &             ",
"                                .                 . .     o $   w $ i i e = , ! ..l , , i w i & $   @ P .       . .             ",
"                                o               X         o 1   1 i w u a , l c F 7 , , u , i w i     d b X.& . o.4             ",
"                                                o         C < P d d i u l 7 , c ` - 7 7 n 7 w i i @ s O.r 7 I s . o             ",
"                                                          s . i . . r = = 7 q ; +.k ; > > z i = i i . W X $ i s . .             ",
"                      S                                   . . d $ $ , e q , , 7 R m 7 , , = j , u i @ X . + + @ . 5             ",
"                      .                         S ) .   . & & b j . $ i 7 , , > R F 8 7 7 , q = , w 6 C s h C   . .             ",
"                                                  . @.  . .     u $ i e , 8 ~ 8 t #.v ; ; > , w = . . i $ .     . .             ",
"                                                                g   d = w ~ v > B $.- - 7 > u i a 1 1 p $ .     . .             ",
"                                                          . X   $   d $ a 8 ; q _ %.~ , , w i w   i w o   < h   . .             ",
"                                                                    d $ i , 7 > ; &.! , , u i e i i ; e @       o .             ",
"                                                      . .         d i *.z l , > ; F ! , , w i w i i $ .   o o   o .             ",
"    V V                                                 .     . d $ i m , u ~ c ; +.! , , w i I = $ i + . =..                   ",
"    . .                                                 . . . @ f e w e $ = -.c ; t - , 7 i i ^ i . . s o 6 = @   .             ",
"                                                        . o @ ;.h $ i i $ = , , ; ~ ~ 7 l i i u i i i i @ @ @ & . .             ",
"                                                  . .       s i < . $ = = = w , ; n v 7 , i i i i 7 w i s P X . o .             ",
"                                                            h < < 6 w r i = 7 7 8 ; c 7 , = w i i c w $ @ o .   . .             ",
"                                                          s @ @ < w g $ i -., l - - -.7 , , w w i e d d d X o.s . .             ",
"            . .                       .                     . o $ @ $ i w z , H x ! +.^ , , = > w i d s   X / @ . .             ",
"                                                            . . w d i i w , 7 q ; :.K - 7 , , = = u i + s o d d & .             ",
"                                                          . . . g d = i i = , > ; 9 >._ ; , , , = l p i f d e H $ @             ",
"    o o                 . .                 X o .         . X ,.<.  g $ i = , > ; ~ #.B 7 ; 8 7 a w A e 6 o X @ @ .             ",
"                        . .                 V V 5         o 1.2.3.. + $ i = , 7 ; n 4.Y n 8 q 7 7 i i w @ & .   .  .            ",
"                                                            5.6.7.i @ d i , q 7 > v 4.8.t c ; > > w , w . 6 d   C C             ",
"                                                          s +.9.0.i $ $ i = , , , c K q.k - c ; 2 w a w . g h   C C             ",
"                                                          & i i i i $ $ = = , , , c 9 *.Y Y Y 8 , = = a 2 w i @  . .            "
};
