/* XPM */
static char *result[] = {
/* columns rows colors chars-per-pixel */
"64 64 45 1 ",
"  c black",
". c #010101",
"X c #020202",
"o c gray1",
"O c #040404",
"+ c #070707",
"@ c #060606",
"# c gray2",
"$ c gray3",
"% c gray4",
"& c #090909",
"* c #0E0E0E",
"= c #010000",
"- c #040303",
"; c #020101",
": c #0B0B0B",
"> c #0A0B0B",
", c #040504",
"< c #131313",
"1 c #101010",
"2 c #040304",
"3 c #030202",
"4 c #010001",
"5 c gray7",
"6 c #030203",
"7 c #080607",
"8 c #030001",
"9 c #040203",
"0 c #020001",
"q c #030101",
"w c #020000",
"e c #050404",
"r c #181818",
"t c gray6",
"y c #0C0C0C",
"u c #050303",
"i c #0D0A0B",
"p c #040202",
"a c #0B0809",
"s c #070505",
"d c #050606",
"f c #010100",
"g c #000101",
"h c #0C0A0B",
"j c #070607",
/* pixels */
"      .      XoXXX.X.XOX..Xo.   X+X..XX..      ..o@@O....o.o#o#X",
"      .      X#   OoX. X...X#o  XoX..oO..  XX#X  X          #  O",
"     .X       .   .OX  .o ..oX  ....o..X...oo#@  .          X  X",
"     .X     XX    .X.  XX  ...     Xo@...XXXXX..# .            O",
"      .           XX        .X..O  XooX.@XXoOo.@. .            O",
"      X                 .   XX.XoX.XXooX$oXo#..o               o",
"      X               ..X.o.XO%X.XXX.XoO#@X.....               .",
"      .               X. .oX...#...XX#&OOXX#OO.   .*           .",
"     ..        o        .o%#OX....X..X#Xo.XoXX. .  @.          .",
"      .        %     Oo XX.ooXXXXXXoX..XO X... XX  X. X         ",
"      .              oX Xo.XXX+X....X.XX.  ....O...   X         ",
"      .                 .XXX...  .X. .XX...X...XX.o            .",
"      .                 ...X. ...XXoXX..oooXX..@&   X.  .=  ==  ",
"      .    ..            Xo . .oXXXo. .@XXXOo..oo   -;  @;     X",
"      .       X            .XX.X.X.....:.##X.XO.O   X. .#.     O",
"      .                 o.  XX...o...O+.ooX...XoO  XoX  .>,    X",
"      .     .X            .XXo..X@oX.X#XXOoXO##.OO.X           .",
"      .          #X      oX.OooXXo...@OXXoX. O@XX.  X.         .",
"      .    @#  < .       .+oXXX.....XooO..X...X..X.#X          X",
"      .    Oo  o         .1@XX.   X....X@.. .XXX. .o.          .",
"      .      .            O+O..   ..  .....  XoO. 2oo.        ..",
"     ..    .@     X.      .o..  .    ....Xo#X.X.o = .         .;",
"     .X     .    XX        O#.  XX.X.o..X..X..O.OX.     ==     ;",
"     .X.      .  o.        ...X. . X.oX.  X.XoXX . o    =O     ;",
"      ..     XO            ....O+O. Xo    ..OO.#o. .           X",
"                            .XO.XXX......@o. X%X              .X",
"     XO                      XoX@XXXo..o.+X   ...=  ;      . .X.",
"     X#          o.   XX   ..ooXOXXooX..XoXXX..X@#X 34     .   .",
"                 OX  ....  X.XOoO.XXX.  ooO#X......  .X        .",
"                     XX    X.XoOX.XOX....o$5X.oo..X=  X3       @",
"                           .o XoX.O$X.XXX........6.            7",
"                         .X    XX.Xo.........X@o X;.893        0",
"                            .  .....Xoo  o. .o..XX o           .",
"                   O#o      .....Ooo.X  %..  ..X. oX            ",
"     .X            XX.        X..oooX. .@X.  XoX. ..o.          ",
"      .                       X..ooo@....   ooXX.               ",
"           .                ;  qXOXX@.X.X...ooo+o @X            ",
"           .                   wXo.XXX.XX.XX.@&@oXX.            ",
"          ..             oo    ;ooX.XoXXX....XXX.X#.            ",
"     XO        .       Xo..   .Xo...X..+.    X.X...O      OO    ",
"     ..     .  X       ..    .XX..XOOXXXX   .XX.XX.. $. XXX.    ",
"                 .            .....XXo.X X..#X..X  Xo#.         ",
"                 .           .XX..X..XoX  oXXo.oXo.#X           ",
"                             .....oXO.XX ...XX@Xoo.O           O",
"             .X                .+. .X.XX.ooXoX#Xo##X...  == =  O",
"             .X         X.% .XX O ..XO$OX..ooXXXo..o. X  e9=0  .",
"                            XO. o..X $@XX..@Xoo.O..X;4e.       X",
"        #                    oo.. ..oOoXX  ....O..XO    ..-e   X",
"                            X.oo. ......X  ..X. .X$X.          .",
"                         ..     X.Xr#X.XXX.    ..X.. X#        o",
"                                X.Xto.+OXOX    XO.X  .X        .",
"                             .  OoOO..:#Xo..o.XyX.. ..  44      ",
"                o           .o .XoXX..XXo......#XXooX3ui;=     .",
"            o.                 - pXXX........  ..#Xo.;pa=      .",
"                              .; s-X..oXO.X..   .$oX. ..d      .",
"                              ; .-3..:X #X. ...X oX..X-fg      #",
"                         X.   ..X..XX@o$:XX@X..O.    =0= .     .",
"                              ..oXX..oo..@XX. .X.OX.. =4o.     .",
"                               .XXo.... .%X.X   XOoXXX9h       .",
"     ..               oX.      o .X ... ..X..oo.XX$XOju;        ",
"      .               oo.      X    ........@#oXoXoXXO...      O",
"      .                       .     .XoX..X$&o.XoOO..O  ..     .",
"      .                       .. ..       ..##XXoO@OXX          ",
"      .                      .oX .. o     .X+$:XXooOOoX    .X   "
};
