/* XPM */
static char *result[] = {
/* columns rows colors chars-per-pixel */
"64 64 228 2 ",
"   c #010101",
".  c #0A0504",
"X  c #0A0708",
"o  c #0C0A0A",
"O  c #0E0807",
"+  c #130604",
"@  c #1A0603",
"#  c #140805",
"$  c #1C0905",
"%  c #120D0D",
"&  c #1B0E0A",
"*  c #120F10",
"=  c #151112",
"-  c #191415",
";  c #1B1718",
":  c #1E1A1B",
">  c #230B04",
",  c #2B0E05",
"<  c #230C07",
"1  c #2B1106",
"2  c #23110B",
"3  c #2A130A",
"4  c #2B180F",
"5  c #321404",
"6  c #34160A",
"7  c #3B1B0B",
"8  c #391908",
"9  c #211C1D",
"0  c #2D1A16",
"q  c #351C12",
"w  c #2B211D",
"e  c #392315",
"r  c #251F21",
"t  c #262123",
"y  c #2A2425",
"u  c #2D2629",
"i  c #2E292A",
"p  c #322C2D",
"a  c #382B28",
"s  c #352F31",
"d  c #3B3335",
"f  c #3F393A",
"g  c #393336",
"h  c #3F302E",
"j  c #411E06",
"k  c #401F10",
"l  c #4A240C",
"z  c #48250C",
"x  c #512C0D",
"c  c #55300D",
"v  c #5C330E",
"b  c #4A2A16",
"n  c #5B3515",
"m  c #582F16",
"M  c #663D16",
"N  c #573929",
"B  c #423A3D",
"V  c #483936",
"C  c #563D36",
"Z  c #483028",
"A  c #623C26",
"S  c #6C431A",
"D  c #77491B",
"F  c #7F511E",
"G  c #5C4235",
"H  c #694426",
"J  c #774D27",
"K  c #7E5327",
"L  c #6A4938",
"P  c #724E37",
"I  c #7A5537",
"U  c #453E41",
"Y  c #464042",
"T  c #4B4345",
"R  c #4E4649",
"E  c #524A4D",
"W  c #554746",
"Q  c #574E52",
"!  c #594E53",
"~  c #5C5256",
"^  c #5E545A",
"/  c #654D48",
"(  c #6E5347",
")  c #745749",
"_  c #655A5D",
"`  c #615559",
"'  c #765B54",
"]  c #79615E",
"[  c #665C62",
"{  c #695E64",
"}  c #6C6166",
"|  c #6D6269",
" . c #71656B",
".. c #776769",
"X. c #766B71",
"o. c #7A6E73",
"O. c #7E7278",
"+. c #82531F",
"@. c #875928",
"#. c #835C3B",
"$. c #815936",
"%. c #8C633C",
"&. c #996837",
"*. c #9B6A2F",
"=. c #A5733A",
"-. c #A16C34",
";. c #865F4B",
":. c #896446",
">. c #966B44",
",. c #976A46",
"<. c #886656",
"1. c #97745C",
"2. c #927149",
"3. c #A3764B",
"4. c #AB7A48",
"5. c #A77955",
"6. c #B17E49",
"7. c #836A69",
"8. c #99796D",
"9. c #82767C",
"0. c #88767A",
"q. c #8F7575",
"w. c #A27B67",
"e. c #A37E71",
"r. c #BA884C",
"t. c #AD8356",
"y. c #B88759",
"u. c #9D8076",
"i. c #AD8565",
"p. c #B88C65",
"a. c #A7867A",
"s. c #B99575",
"d. c #B89075",
"f. c #C18D59",
"g. c #C48F52",
"h. c #CA9A6A",
"j. c #C89869",
"k. c #C79B78",
"l. c #D19D72",
"z. c #CEA377",
"x. c #D6A879",
"c. c #D4A971",
"v. c #8C7D84",
"b. c #927F81",
"n. c #97868B",
"m. c #9B8C93",
"M. c #978990",
"N. c #998B93",
"B. c #AA8B86",
"V. c #BB9687",
"C. c #A9969A",
"Z. c #AF9493",
"A. c #AD9DA5",
"S. c #B7A5AA",
"D. c #BDAFB6",
"F. c #C49B88",
"G. c #C9A68C",
"H. c #D5A988",
"J. c #DBB588",
"K. c #CBA597",
"L. c #D6AC94",
"P. c #DAB699",
"I. c #CBB08D",
"U. c #E2B68A",
"Y. c #E5BB96",
"T. c #E2AE81",
"R. c #C8AFA8",
"E. c #D7B6A7",
"W. c #C5B5BC",
"Q. c #D8B9B9",
"!. c #CFAFA8",
"~. c #E6BDA9",
"^. c #E3BEB5",
"/. c #DEC090",
"(. c #E8C898",
"). c #F1D89A",
"_. c #EFD294",
"`. c #F4E59B",
"'. c #F6E18D",
"]. c #E8C8A7",
"[. c #EDD4A3",
"{. c #EED6AC",
"}. c #F2D9A8",
"|. c #EED8B5",
" X c #F5DAB8",
".X c #EDCAB2",
"XX c #F5E3AC",
"oX c #F6ECAA",
"OX c #F6E7A9",
"+X c #F6ECB5",
"@X c #F4E5BA",
"#X c #F4EBBC",
"$X c #F8EDBC",
"%X c #F5E7B5",
"&X c #FAF4BC",
"*X c #F7F3B9",
"=X c #F4ECAB",
"-X c #CCBBC3",
";X c #D2BEC0",
":X c #D6C5C9",
">X c #DBCDD4",
",X c #F5DAC3",
"<X c #E9CFC9",
"1X c #F4EBC3",
"2X c #F5EDCD",
"3X c #F6E8C9",
"4X c #FAF5C3",
"5X c #FBF9C4",
"6X c #FAF5CC",
"7X c #FCFACC",
"8X c #F6F3C8",
"9X c #F9EBD5",
"0X c #F6F2D4",
"qX c #F9F4D4",
"wX c #FCFBD4",
"eX c #FAF6DC",
"rX c #FCFBDC",
"tX c #F6F3DB",
"yX c #EEDEE2",
"uX c #F7EAE8",
"iX c #FAF6E3",
"pX c #FDFBE3",
"aX c #FAF4EC",
"sX c #FDFCEB",
"dX c #F9EDF2",
"fX c #FDFCF3",
"gX c #FEFCFB",
"hX c #FDF5F4",
/* pixels */
"                            . . X o * : u g f T Q ~ ^ ^ ~ Q Q R B f p t - % O X           .       X X   .                       ",
"                            X . X * ; y s B T Q ^ [ {  .} } [ ^ E B d i : = o X X . .                                           ",
"                            X   o - : u g Y Q ^ |  .O.N.O. . .n.X.T f p t = o X                                                 ",
"                        X .   X o ; t s U Q ^ } X.9.m.D.A.O.o.| _ E T d i 9 % X X .                                             ",
"                            X X * 9 u g R ! [ X.9.n.S.>XW.N.v.o.| ^ E f p w = o o .                                             ",
"                      .   . X X = r p f E [ | o.v.M.-XyX>XS.N.9.o.[ Q G d h 9 % o . X                                           ",
"                        .   X X - y d U ! { ..v.M.N.:XdX>XD.N.n.O.} ~ G / W e & % #                                             ",
"                            X o ; u d U ~  .9.v.M.A.>XdX>X-XA.N.0.o.] ] ' / / q 2 $ # X . .                                     ",
"                            X * 9 i V R _ 7.q.n.Z.S.yXaX;X;XR.Z.B.B.V.e.8.w.( b 7 , < # . .                                     ",
"                      . . . o - t a V / 7.q.B.B.K.!.yXdXQ.Q.<X!.K.V.V.V.a.V.d.;.A j 7 , @ . .   .                               ",
"                      . X . o * t d G ] 8.B.K.E.Q.^.yXaX<X<X,XE.L.F.H.H.k.k.d.>.D n l j 1 @ +   X                               ",
"                          . o & G V L a.V.F.G.~.<X,XdXdX9X9X9X|. XY.Y.Y.Y.H.k.5.%.@.M x 7 1 @ +                                 ",
"                        X . + 2 ) G ) a.L.L.~.,XuXhXgXgXiXpXrXtXeX9X9X,X X].U.l.6.l.5.D c j 5 > %                               ",
"                    .     + # 4 ' <.a.L.L.,XaXfXgXgXgXgXsXpXsXsXaXiXpXsXpXeX3X|.x.H.H.,.S c z 1 # . .                           ",
"                  . . . + @ w e <.u.F.P.].aXgXgXgXgXgXgXsXrXiXsXsXeXiXaXsXsXfX3X XT.Y.p.@.S c j 1 + +                           ",
"                    . @ $ < Z a.a.<.i.L.,XfXhX9XaXhXgXgXsXpXrXrXeXpXpXsXfXfXsXqXiX(.Y.x.k.3.J x 8 > @ .                         ",
"                . . @ > , 8 N F.1.,.5.l.Y.eXhX3XfXfXgXgXfXrXwXwXrX8XqXpXiXsXsX2XrX+XXX[.c.t.t.S x 8 1 + .                       ",
"                . @ > , j l H #.,.,.6.j.(.aXfXhXfXgXgXgXsXrXpXrXwXpXrXrXrXiXpXqX0X).+X7X).r.=.@.M l 8 > . .                     ",
"              . + @ , 6 l A M J ,.z.H.x. XiXsXsXiXpXsXgXsXsXpXrXwXiXpXeXrXrXiX7X8X#X4X4X).c.r.=.@.n z 3 # . .                   ",
"                + > 6 A ;.F.J 5.p.l.Y.}. X1XqXrX4X4XqXgXfXsXsXpXrXwXrXwXrXrXqX'.wXwX4X_._.}.x.p.5.$.H 7 $ .   .                 ",
"                . > 6 8.1.I.s.(.H.Y.{.7XpXeXOX7XwX7XrXgXgXpXrXpXpXwXwXrXrXwX5X6XrXrXwX1X#X1X].[.s.>.J z 2 O . .                 ",
"                . > Z a.G :.i.J.H.}.#XpXpXsXwXqXrXrXpXgXfXpXpXpXpXrXrXpXpXwX7XwXrXrXrXrXpXpXeX(.r.=.J c 5 # .                   ",
"                . @ C ) x K 2.k.J.}.#XpXeXpXsXwXrXrXrXgXfXpXpXpXsXsXsXsXpXwX5X7XwXwX7XwXeXsXpXY.r.*.D c 5 $ . .                 ",
"              . . + 4 6 m 2.%.z.[. X#XtXsXsXpXpXrXrXrXfXfXpXpXpXsXsXsXpX*X1X4X7XrX7X4X6XeXsXpX[.r.-.+.v 7 $ .                   ",
"                  + 4 8 L I @.t.U.3XqX%XiXpXeXpXpXrXrXsXfXsXpXrXrXrXrXwXrX7X7XwXwX7X7XrXwXpXiX2Xz.3.+.v 7 > . .                 ",
"                o O a ) H :.s.z.Y.1XqXiXrXrXpXsXsXpXwXsXfXsXrX7XwXwX5X=XwX&X+X&X7X7X&X+XrXpXtX|.l.l.&.M 7 0 +                   ",
"          X   X f . 0 ) I :.p.p.x.[.2XqXeXwXrXsXsXsXrXfXgXwX5X7X7X7X5X5X&X&X`.`.5X&X`.`.%XqXqX].j.3.%.H 7 4 .                   ",
"            .   O . % C L J 3.z.Y.qXqX#XwX4X+XrXsXpXqXsXgXrX7X5X7X5X&X&X&X&X&X&X+X`.'.XX1X[.{.(.z.3.%.) 7 @ . .                 ",
"                . . a ( P I t.x.{.wX#X_.OX7X+XoXsXsXpXsXgXrX7X5X5X5X4X5XwXoXoX7X5X&X`.*X6X+X(._.H.3.;.m , + .                   ",
"                  o w N P 2.>.h.(.6X6X1XoXoXoX+XpXfXsXfXgXrXwX5X5X7XwXwX7XoXoX&X`.wXrXwX5X).c.l.6.@.J b > . .                   ",
"                  p & 1 N I >.p.z.#X0X2X*XoXoXwXpXsXpXpXgXsXwX7X5XwX7X7XwXpXrX$X'.pXpXrXwX}.c.h.=.D n k > O                     ",
"                  a V > G P %.y.j.XX8XwXwX6X4XwXwXpXrXsXgXsXwXwX&X+X5X7X7XwXrX7X).rXpXrX2X4X).J.s.J x 8 > .                     ",
"                  . V > N i.%.i.j.(.$X6X1X+X4XwX$X5XpXpXfXfXwXwXwXwXwXwXwXrXrXrXrXqXrXsXiXeX XP.{.2.c 6 @ .                     ",
"                    % 2 q 8.J &.t.x.XX8X6X1XeXtXeXrXrXpXfXfXeXpXrXpX7X5X5X`.*XpXpXpXiXpXiX2X(.H.s.K x 1 @ .                     ",
"                    . + 1 N ;.%.c.x._.4XrX0XeXrXpXsXrXrXfXfXrXpXrXrXwXwX&X'.&XpX8XeXqX2X8X|.J.H.5.S z 1 +     .                 ",
"                      + $ 5 A $.*.r.c.XXeX0X0XeX#X2XwXpXfXgXsXrXrXrXrXrX7X+XwXpX%XwX}._.}.x.r.&.D x 7 > O   .                   ",
"                    . . + 8 k M @.-.g.}.iXfXfXsX#X1X2XsXgXgXgXpXrXwXwX1X7XwXwXwX1XwX6X(.T.6.*.K v j 6 + .                       ",
"                        . 1 5 c D *.r.).tXfXfXfXsXfXhXfXgXgXgXsXwXwX7XXX$XwXwXwX7X|.{.h.f.@.D M z 6 > . .                       ",
"                      . . @ 1 x M &.t.U.,XfXfXfXfXfXsXfXgXgXgXeXqXeX2X#X@X1XqX6X%X(.(.g.-.K M M 8 < $ .                         ",
"            X             # 2 7 c F *.f.J.2XsXfXfXrX1XtXfXgXgXtXqXrX9XsXpXrX@Xx.x.J.h.@.+.M I k > + .                           ",
"                          . # 1 z M K *.y.x.Y.[.Y.(.]. X9XdXhX9X,X0X3X9X.XY.J.z.y.3.%.+.J N q < + .                             ",
"                            . > 8 x M F >.y.y.h.[.].Y.Y.~..XuXuX9X.X^.L.F.G.s.i.,.#.I H b 6 < + .                               ",
"                            . + 1 7 c J :.5.5.5.L.P.I.K.~..XuXuX<X!.Q.K.F.d.w.w.;.( A Z q 2 O .                                 ",
"                            . . # 3 7 b A ;.,.8.a.e.a.!.R.R.:XhX;XR.Q.S.B.q.7.' / C Z q 2 # O .                                 ",
"                              . . & 2 q Z N ) ) <.7.q.Z.C.C.S.dX<XD.-XA.0.0.../ U V a r % O X     .                             ",
"                                  X + & 0 a V W / ] 7.v.n.N.C.yXuXW.-XA.0.o.| ! U d r ; % X X .                                 ",
"                                  . X % 2 w a V W _ } 9.v.n.N.:XhX-X-Xm.9.X.} ! U d r r * X X                                   ",
"                                  . X X = 9 y d U ! _ X.9.v.M.S.dX>X-XN.9. .{ Q U s u ; o X .                                   ",
"                                  .   X X = 9 i f R ~ } X.9.v.N.>X:XD.v.o.{ ^ E B s t - X X .                                   ",
"                                  .   X X = : t g Y E ^ | X.O.9.A.-XA.v. .[ ! R f i : = X X X                                   ",
"                                        . o = 9 i f Y Q ^ | X.o.v.S.M.X.{ ^ Q U g y : = X X   X                                 ",
"                                    . X X X o : t g f Y Q ^ [ | | O.| [ ^ Q E f i r ; o X   X o                                 ",
"                                      .   X X = : u s f Y Q ~ ~ ^ ^ ^ Q E U f s y : * o X X   .                                 ",
"                                  X .   X X X X - : t s f Y Y R E E R R U g s y 9 = o X . .                                     ",
"                                              X * : : u s g g f Y Y U f g p i r ; o o X       X                                 ",
"                                          X X X X * = : r y s s s s s s i u r ; = o X . X .                                     ",
"                                            . X X X o * - : r t y y t t : : ; = = X . X                                         ",
"                                          .   X   X X X o * = = ; ; ; ; = * o X X o X                                           ",
"                                              .   . X X X o o * * * = o o X X X . o   X .                     X                 ",
"                                          X       X X   X X X X X X X X X X X X                                                 ",
"                                                X   .     X X X X X X X X X     .                                               ",
"                                                      X   .   .             X                                                   ",
"                                                              .   . X     X                                                     ",
"                                                            X           X               X . X           X                       "
};
