/* XPM */
static char *result[] = {
/* columns rows colors chars-per-pixel */
"64 64 233 2 ",
"   c #010101",
".  c #0A0505",
"X  c #0D0907",
"o  c #0A0708",
"O  c #0C0A0A",
"+  c #130603",
"@  c #1A0602",
"#  c #150905",
"$  c #1D0905",
"%  c #110D0D",
"&  c #1E0E0C",
"*  c #1C110C",
"=  c #130F10",
"-  c #151212",
";  c #1A1515",
":  c #1B1718",
">  c #1E191A",
",  c #1D1916",
"<  c #220E0A",
"1  c #250B05",
"2  c #2C120A",
"3  c #2A1209",
"4  c #361708",
"5  c #211C1D",
"6  c #281814",
"7  c #351D15",
"8  c #36231C",
"9  c #302118",
"0  c #241F21",
"q  c #252122",
"w  c #2A2424",
"e  c #2E292B",
"r  c #2C2729",
"t  c #322C2D",
"y  c #3A2B28",
"u  c #342F31",
"i  c #353133",
"p  c #3A3335",
"a  c #3E3A3C",
"s  c #3C3639",
"d  c #441E0C",
"f  c #49240A",
"g  c #462716",
"h  c #562E13",
"j  c #5A3417",
"k  c #572F0E",
"l  c #653A1A",
"z  c #63370D",
"x  c #49322A",
"c  c #583826",
"v  c #423B3D",
"b  c #453633",
"n  c #563E35",
"m  c #462C25",
"M  c #633C24",
"N  c #78481C",
"B  c #58423B",
"V  c #4B423F",
"C  c #694225",
"Z  c #744828",
"A  c #684834",
"S  c #744C35",
"D  c #7A5439",
"F  c #7C522D",
"G  c #453F41",
"H  c #4A4245",
"J  c #4E464A",
"K  c #494346",
"L  c #524A4D",
"P  c #574847",
"I  c #574D53",
"U  c #5B5255",
"Y  c #5E555A",
"T  c #575054",
"R  c #654B42",
"E  c #6A5249",
"W  c #79574A",
"Q  c #61565C",
"!  c #64595E",
"~  c #6A5854",
"^  c #755F59",
"/  c #79655E",
"(  c #675C62",
")  c #6B6066",
"_  c #6E666B",
"`  c #75696E",
"'  c #766668",
"]  c #766A71",
"[  c #7A6E73",
"{  c #7D7177",
"}  c #834E2C",
"|  c #87532C",
" . c #875938",
".. c #985F35",
"X. c #97653A",
"o. c #956432",
"O. c #AC7538",
"+. c #855C48",
"@. c #896449",
"#. c #956847",
"$. c #9C744A",
"%. c #876758",
"&. c #966E54",
"*. c #9A7357",
"=. c #A56C46",
"-. c #A97647",
";. c #B4794C",
":. c #A47957",
">. c #AE7759",
",. c #866C63",
"<. c #9A786A",
"1. c #83767C",
"2. c #867577",
"3. c #967C78",
"4. c #A67C6A",
"5. c #AC825B",
"6. c #B88457",
"7. c #AE804F",
"8. c #9A8176",
"9. c #AB856A",
"0. c #B98966",
"q. c #BC926B",
"w. c #A88676",
"e. c #B78C7C",
"r. c #C18A5C",
"t. c #C18A4E",
"y. c #C48C66",
"u. c #CA9968",
"i. c #D29A69",
"p. c #C79675",
"a. c #CB9674",
"s. c #CAA275",
"d. c #D5A478",
"f. c #D5A670",
"g. c #E2AE7B",
"h. c #867A80",
"j. c #8B7D83",
"k. c #8E7F88",
"l. c #917F83",
"z. c #8E8189",
"x. c #93858C",
"c. c #99888A",
"v. c #9B8B93",
"b. c #988992",
"n. c #9E959A",
"m. c #A78D88",
"M. c #B09389",
"N. c #A2949B",
"B. c #AA979B",
"V. c #B79994",
"C. c #B08E89",
"Z. c #BFA29F",
"A. c #AA9CA4",
"S. c #B6A5AA",
"D. c #BAACB4",
"F. c #BFB8BB",
"G. c #C89B89",
"H. c #C19C95",
"J. c #CDA387",
"K. c #D7A985",
"L. c #DDB389",
"P. c #CEA899",
"I. c #D8AB94",
"U. c #DDBA9B",
"Y. c #E5B787",
"T. c #E6B998",
"R. c #E3AE89",
"E. c #C6ABAB",
"W. c #D5ADA6",
"Q. c #C8AEB2",
"!. c #C7B5BB",
"~. c #D7B5B2",
"^. c #DCB3AA",
"/. c #E7BAA5",
"(. c #E4BCB4",
"). c #F2DB8C",
"_. c #EAC593",
"`. c #F0D897",
"'. c #EDCAA8",
"]. c #EDD7A8",
"[. c #F2DBA9",
"{. c #EAC5BA",
"}. c #ECD4B9",
"|. c #F3DCB2",
" X c #F3D9B9",
".X c #F1C2AC",
"XX c #F5E8AB",
"oX c #F4E3B5",
"OX c #F5EAB4",
"+X c #F4E9BC",
"@X c #F7E5BA",
"#X c #F7F2BE",
"$X c #EEE0AE",
"%X c #E4D0A3",
"&X c #C9BBC3",
"*X c #CFCBCC",
"=X c #D3C2CA",
"-X c #DCCDD5",
";X c #D5C6D0",
":X c #DFDDDF",
">X c #EACBC5",
",X c #F3D9C5",
"<X c #E5D4DB",
"1X c #EDD4D2",
"2X c #F5EAC3",
"3X c #F4E3CC",
"4X c #F7EAC7",
"5X c #F5F2C3",
"6X c #FAF5C4",
"7X c #FAF4CC",
"8X c #FCFACC",
"9X c #F7F3CC",
"0X c #F8EAD8",
"qX c #F7F3D3",
"wX c #FAF4D3",
"eX c #FCFBD4",
"rX c #F7F3DC",
"tX c #F9F5DB",
"yX c #FCFBDC",
"uX c #EADEE5",
"iX c #EDE5E8",
"pX c #F4E8ED",
"aX c #F9ECE6",
"sX c #FAF6E2",
"dX c #FCFBE4",
"fX c #FBF5EA",
"gX c #FDFCEC",
"hX c #F6F2E5",
"jX c #FDFCF3",
"kX c #FCF5F9",
"lX c #FEFCFA",
"zX c #FAF4F4",
"xX c #FBEDF0",
/* pixels */
"                    .     o o - 0 t v G ( ` 1.k.b.&X-X&XA.b.k.{ ( ( L v e > - O o                   . o .               .   .   ",
"                    o     o O - 0 p G I ( [ h.k.v.&XuXuX&XA.k.h._ Q L v t 0 ; O o                                               ",
"                          o O - 0 s G I ( { k.b.N.;XpXuX;XS.N.j.] ( T G p 0 ; % o .   o                                         ",
"                    .     o O : 0 s G U ( h.k.b.A.<XkXuX;XD.A.b.{ ( U K p G r % o o                                           o ",
"                        o o O : r v G Q ` h.k.N.A.uXkXuX&X!.N.k.1.( Y J L H y 0 X . .                                         . ",
"                    . o   o O : 0 v G ( ] h.x.N.S.uXkX-XD.&XS.v.j.' 1.^ ~ P B w % X   .                                         ",
"                    .     o O > r v J Q ] h.b.B.D.uXkX-XD.&XS.m.c.M.E.V.,./ ,.x * X .                                           ",
"                          o O > r G P ( 2.l.m.A.S.uXkX-XE.Q.&XH.V.3.%.3.W %.%.E 7 < + X   .                                     ",
"      .                 o o O 5 e P U ,.3.B.H.~.~.pXkX1X~.^.~.H.e.<.<.4.&.<.e.@.7 4 1 # . .                                     ",
"                      . o o w p t 2.,.3.M.V.^.(.(.xXkX1X>X>X{.W.J.p.4.G.G.9.*. .l f d 2 1 X .   .                               ",
"                      . X X y B b / 8.<.C.P.W.(.1XkXlX0X,X0X3X,X.XT.I.a.y.y.y.#.#.Z +.M 4 $ # X .                               ",
"                    o   X # 6 E E ' m.M.G.W.(.xXlXlXlXfXdXfXrXtX9X4X4X}.R.y.r.-...X.&.w.Z 4 3 * .                               ",
"                    . . # - x / 3.S.~.9.I.,XgXlXlX:X*XlXfXhXsXgXtXwXqXwX9X X.XT.y.>.5.J.*.h 4 4 < X               .             ",
"                    . . y %.8.c %.C.(.J.3XhXhXzXlXn.` lXfXrXdXjXfXfXtXtXsXtXwX4X].R.6.6.5.&.W h 4 $ X .                         ",
"                  . . X E 8.9.c S :.P.}.wX4X,XzXlXlXlXlXjXgXdXsXrXtX2XtXdXyXwXyX2X|.i.u.5.5.*.D f 3 $ .                       . ",
"                . . + # m 9.<.M +.>.y.'.tXrXrXlXlXlXlXlXlXjXgXgXjX|. XtXfXwXtXtX4X2X_.T.K.5.-.#.l d 3 # . .                     ",
"                X # # $ m c A S  .;.i.,XzXlXlXlXlXlXlXlXjXjXgXjXdXhXgXhXgXsXsXdXqXqX2X3X2Xi.;.o.F k f 1 + .           o         ",
"              . # # $ 3 7 g h  .y.y.T.zXjXlXlXgXjXgXF.G lXgXgXjXgXgXjXdXgXdXgXgXdXsXsXrXqXY.i.-.o.C M 4 @ . .                   ",
"              . 9 # 9 ,.f c C @.y.d.'.sXfXlXlXrXqXtXhX*XlXjXgXgXgXgXjXdXdXjXgXyXrXrXrXqXoXg.d.6.-. .D c 7 & . .                 ",
"              . B B ^ w.%.%.D p.0.d. XjXrXrXjXfXsXgXlXlXjXdXyXdXjXjXgXjXzXdXdXyXyXdXyXsX|.3X Xd.y.J.4.W n 7 . .                 ",
"              % w.V V ,.8.9.@.s.K.Y.oXgXjXsXsXgXgXjXlXlXgXeXyXdXgXgXgXjXgXdXeXeXdXgXgXjXgXzXgX'.d.T.*.+.g 4 + X                 ",
"              t ~ * 3 A W 8.5.q.Y.[.9XrXlXjXsXdXgXgXjXlXgXyXeXyXgXgXgXdXdXyX8X8XdXdXjXgXgXjXfXrXR.y.=.} h 4 @ . . .             ",
"              * , * , c D 7.7.s.d.XX8XsXjXjXjXjXjXjXlXlXgXyX8XdXdXdXdXyX8X6X8XeXyXdXdXyXqXsXhXgXT.y.;.} h 4 1 .                 ",
"              5 X * B A c D s.f.`.6X7XgXjXlXjXjXjXlXlXlXgXyXyXyXeXeXyXeX8XXXXX6XyXdXgXyXdXgXdXhX Xd.=.} h 4 1 + . o .           ",
"              . < 6 ~ D M 7.s.s.|.oX|.yXdXdXjXlXjXjXlXlXjXjXgXeX8X8XeX#XeXeX8XdXdXyXdXrXdXjXsXgX0X'.y.X.k 4 1 + .     .         ",
"              . ~ E g A 9.7.5.L.oXtXyXyXyXdXjXlXlXgXgXlXlXjXgXeX8X8X8X8XyXeX6X#X8XqXsXdX2XrXgXfX}.K.>. .} g 1 y y     . .       ",
"        ; 0 . . / %.W A @.X.O.u.|.dXwXyXeXeXdXjXjXgXjXiX*XgXgXdXeX8X8XyXyX6X6XXXOXyXqXXXXX$XoXrX}.s.;.F S n 7 5 0 . .           ",
"          . .   - B B c D q.s.%X+X4X9XyX#X6XyXgXgXdXgX*X` jXgXdXdX8X8X6X#X#X8X8X2XwX5X).XX4X].[.L.6.#.F C A x < . . .           ",
"              6 8 ^ 8 j F 9.q.XX6X[.`.OX7XOX+XdXgXdXdXlXlXjXgXdXeXeX8XXXyXyX8X7XqXwX9X`.@X5XOX_.u.6.7.D S x 6 . . . .           ",
"              , p 9 W ,.Z :.0.Y.OXrX2XOX6XOXOXdXgXgXjXlXjXgXgXdXyXdXyX6XyX#X).+X5XOX8XqXqXOX[.Y.t.-.9.Z c 7 @ . o   .         . ",
"            : . * * c S @.q.7.f.2XhXrXwX+XOXtXgXjXjXjXlXjXjXgXgXgXgXdXeXeXyX6XwXXX).wXdXdX9XOXY.6.q.s.M h y + . o             o ",
"            O b . 2 A g S X.o.u.].rXhXsX9XsXdX5XgXjXlXlXlXlXlXgXjXdXeXeXdXgXdXdX7XXXwXdXsXrXyX#Xi.$.o.j 4 $ +                   ",
"              V # + 4 A @.9.:.u.d.0XrXrXqXqXgXeXjXgXlXlXlXjXyXjXyX#X6XyXyXwXyXqXgXwX+XeXdXyX0X4XK.J.J.@.4 @ .                   ",
"      O .     ; , & 8 8.c W #.0.i.@X5XoX[.qXyXwX2XlXlXlXlXjXdXgXyXyXyXeX8XeXdXfXlXjXdXdXfXrXqX@Xs.-.&.W 4 @ .                   ",
"      .       . % + 1 W C A  .>.d.'.+X7X2XrXyXsXsXgXjXjXlXjXtXgXdXjXdX5X8X8XXXtXgXjXdXtXdXwX7X].7.X.Z j 3 # .                   ",
"                . . + 3 8 Z :.X.6.i._.2X9X9XqXdXjXgXgXgXlXgXyXdXfXjXjXyX7X6X).wXgX9X5XOX|._.Y.y.$.| C 8 $ . . .                 ",
"                  . + @ 2 j l } -.i.g.3XrXrXsX2XrXtXdXgXlXlXsXyXdXjXjXgXdX9X7XdXdX+X]._.g.u.;.o.N z f 3 @ .                     ",
"                  . . + 1 d f l o.r.Y.sXjXlXgX2X$X4XsXjXlXlXlXgXgXgXjXfXtXgXgXdXgX3X]._.i.6.O.N z f 4 $ . .                     ",
"                    . $ 1 4 f l ..6.R.fXjXlXjXfXfXjXjXlXlXlXlXjXgXgXjXfX[.dXgXrXgXqXoXg.O.6. .z f 4 < + .                       ",
"                      . @ 3 f C } 6.K.,XjXjXjXjXdXwXtXjXlXlXlXzXgXgXhXtX'. X2X7X9XU.s.f.o.| z f 4 $ + .                         ",
"                        + $ 4 k Z =.6.T.0XxXzXfX3X X X0XlXlXkXfX0XsXtXjXsX7X|.i.i.p.y.5.Z z f g x . . .                         ",
"      .               . . # 3 f l } =.>.J.T././.T././.,XxXlXkXaX0X3X3X3X(.R.d.J.a.y.9.F j c x 8 X                               ",
"                        . . 1 4 k Z } =.>.y.a.a.I.I.T.(.>XxXjX0X,X{.{..XG.G.J.4.#.+.F c c m 6 # .                               ",
"                          . . 3 d h l  .#.=.>.4.P.W.P.I.(.1XkXaX(.W.~.~.G.l.4.%.4.A M x 8 < # X o                               ",
"                            . @ 2 d h n +.W +.,.C.w.C.E.~.;XzXpX!.Q.E.!.m.3.,./ ~ P n w 6 % o .                                 ",
"                            . X # 2 7 m E E R ^ ' 2.c.S.A.Q.uXkX!.E.D.!.b.1.] ~ P v u 7 ; + .                                   ",
"                          .     . # & 6 m R G ~ ' 2.l.c.B.S.-XkX&XS.D.&Xb.1.] ! L v t 0 = X o                                   ",
"                              . . o % & 0 y G P ! ` 1.x.N.A.F.kX<XD.D.F.b.1.] ( L G u 0 - X o .                                 ",
"                                  o X O : r i K T ) [ j.b.A.S.pXpX&X!.F.x.h.] ! L G u 0 - O o       o                           ",
"                                  o . o - q t a L ! ` 1.x.v.A.-XkX-X&XF.x.{ ] Q L v u 0 - O o . .                               ",
"      O                               o % 5 r p H Q ) 1.j.b.A.&XkXuX=XD.z.{ ] ( L a u 0 - o . . .                               ",
"      .                               o O : q i G I ! ` h.k.b.A.uXiX*XA.z.{ ] Q J s e 0 - o o =                                 ",
"                                  .   o o - 5 e v J U ( { h.k.x.&X<X&Xv.1.] ( T K p e : = o o                                   ",
"                                      . o O : q i G L Y _ [ h.h.A.&XD.k.[ ( Q L a u q : X o     . o                             ",
"                                        o o = 5 e v K I ( ) ] { h.A.N.[ ) ! T J a e 0 - X o o     o                     .       ",
"                                  o     o o = - q u s H I Y ( _ ] ] ] ( Q Y L a i q > - o o o                                 . ",
"                                      . . o O = 0 q u a G L I Y Q Q Q Y I J G i t 5 - = o                                       ",
"                                          . o O = > 0 u a G G J L L J J G a s e 0 > = O o   .                                   ",
"                                          o .   O - > q u i a G G G G a s u e q : - O o o                                       ",
"                                            o o o = - : 0 r e i i i i u e q 0 : - o o . .   .                                   ",
"                                          .   o o o o = - > q q q r q q 0 : - = O o o   . .                                   . ",
"                                              . o o o o o = - : : : : - = = O o o . . o o                                       ",
"                                            .   o o o o o o o = = O = O o o o o o   .                                           ",
"                                                        o o o o o o o o o o o o .                                               "
};
