/* XPM */
static char *result[] = {
/* columns rows colors chars-per-pixel */
"64 64 240 2 ",
"   c #010101",
".  c #0A0504",
"X  c #0D0906",
"o  c #0A0708",
"O  c #0C090A",
"+  c #070807",
"@  c #120603",
"#  c #1A0603",
"$  c #1B0A04",
"%  c #120C0C",
"&  c #1A0D0C",
"*  c #150905",
"=  c #130F10",
"-  c #151213",
";  c #1A1415",
":  c #1B1718",
">  c #1E191B",
",  c #13100F",
"<  c #230B05",
"1  c #270D06",
"2  c #2A130B",
"3  c #291107",
"4  c #321509",
"5  c #381809",
"6  c #221512",
"7  c #221D1E",
"8  c #271A18",
"9  c #341B15",
"0  c #3A221C",
"q  c #312017",
"w  c #241F21",
"e  c #262223",
"r  c #2A2425",
"t  c #2D282A",
"y  c #322423",
"u  c #322C2D",
"i  c #3C2A25",
"p  c #332F30",
"a  c #363132",
"s  c #3B3334",
"d  c #3E3C3C",
"f  c #3D3739",
"g  c #35302F",
"h  c #48230B",
"j  c #442414",
"k  c #4B2A1A",
"l  c #542D15",
"z  c #5A341B",
"x  c #582E0E",
"c  c #65391B",
"v  c #452D24",
"b  c #49322A",
"n  c #583827",
"m  c #413D3E",
"M  c #483836",
"N  c #533B36",
"B  c #623D2A",
"V  c #72421E",
"C  c #5B4139",
"Z  c #49413E",
"A  c #684228",
"S  c #774727",
"D  c #6A4834",
"F  c #754B35",
"G  c #795337",
"H  c #7E502D",
"J  c #453E41",
"K  c #4B4245",
"L  c #4D4549",
"P  c #524A4D",
"I  c #584948",
"U  c #564D51",
"Y  c #594E53",
"T  c #5B5155",
"R  c #5D5559",
"E  c #5A504F",
"W  c #644C44",
"Q  c #6C534B",
"!  c #765647",
"~  c #60565B",
"^  c #645A5D",
"/  c #685756",
"(  c #755D55",
")  c #734E41",
"_  c #7A635B",
"`  c #665B62",
"'  c #695E65",
"]  c #6D6066",
"[  c #6E6369",
"{  c #6F6E6D",
"}  c #71666D",
"|  c #796969",
" . c #786C72",
".. c #7D7378",
"X. c #7F7E7E",
"o. c #7D7177",
"O. c #885A3A",
"+. c #935D37",
"@. c #86512D",
"#. c #8B613C",
"$. c #986438",
"%. c #A3653C",
"&. c #875D44",
"*. c #825850",
"=. c #88624A",
"-. c #986747",
";. c #866658",
":. c #996B53",
">. c #9B7559",
",. c #A86D46",
"<. c #A97549",
"1. c #A97654",
"2. c #B67B53",
"3. c #B3794A",
"4. c #886E69",
"5. c #997765",
"6. c #81757B",
"7. c #87777A",
"8. c #947A77",
"9. c #906E67",
"0. c #A97A64",
"q. c #B47D63",
"w. c #A47D79",
"e. c #BA865A",
"r. c #AB815C",
"t. c #998477",
"y. c #AA8469",
"u. c #B78766",
"i. c #BE946C",
"p. c #A98378",
"a. c #B58875",
"s. c #B69778",
"d. c #C38957",
"f. c #CE925D",
"g. c #C78B65",
"h. c #C99568",
"j. c #D49667",
"k. c #C89679",
"l. c #D49B77",
"z. c #C58B74",
"x. c #D9A679",
"c. c #DEA26D",
"v. c #E2B078",
"b. c #8A7C82",
"n. c #867981",
"m. c #8D8088",
"M. c #92848B",
"N. c #9B888C",
"B. c #9C8D95",
"V. c #988993",
"C. c #9E9198",
"Z. c #9E9A9B",
"A. c #A98C8B",
"S. c #BA948D",
"D. c #A59499",
"F. c #B69B98",
"G. c #A58E8F",
"H. c #AB9CA5",
"J. c #A89AA3",
"K. c #B7A4AB",
"L. c #B8AAB3",
"P. c #BFBDBD",
"I. c #BFB1BA",
"U. c #C89884",
"Y. c #CB9C92",
"T. c #D8A587",
"R. c #CCA298",
"E. c #DEB592",
"W. c #DAAC90",
"Q. c #E4B78A",
"!. c #E6BA97",
"~. c #E0AB80",
"^. c #C6A9AA",
"/. c #D9ABA5",
"(. c #D7B2AC",
"). c #C6AEB2",
"_. c #C3B4BD",
"`. c #C9B4B9",
"'. c #D6B6B6",
"]. c #E5B7A6",
"[. c #E1BBB9",
"{. c #E8C599",
"}. c #F0D299",
"|. c #EDC7A8",
" X c #F1CCAE",
".X c #F2DAA8",
"XX c #ECC5B9",
"oX c #F5CDBA",
"OX c #EED3B6",
"+X c #F3D9B8",
"@X c #EFD3A9",
"#X c #F4E5A9",
"$X c #F5ECBC",
"%X c #F5E6B8",
"&X c #F6F1BB",
"*X c #CBBCC5",
"=X c #C9BBC3",
"-X c #D3BEC1",
";X c #CECDCC",
":X c #CFC0C9",
">X c #D4C4CC",
",X c #D9C3C7",
"<X c #D8CBD3",
"1X c #DEDCDB",
"2X c #F5D7C5",
"3X c #E6D6DB",
"4X c #F6DDD7",
"5X c #EBC9C3",
"6X c #F4E4C3",
"7X c #F5ECC4",
"8X c #FAECC3",
"9X c #F5ECCB",
"0X c #F7E6CC",
"qX c #FAF5C5",
"wX c #F6F3CB",
"eX c #F9F4CD",
"rX c #F7F3C6",
"tX c #F6EED4",
"yX c #FAECD3",
"uX c #F8EADA",
"iX c #FAF5D3",
"pX c #FCFAD5",
"aX c #F6F2DD",
"sX c #FAF5DC",
"dX c #FCFBDC",
"fX c #F6F4D4",
"gX c #E9DDE5",
"hX c #EDE8EA",
"jX c #F5EAE7",
"kX c #FAF5E4",
"lX c #FCFBE4",
"zX c #FAF6EB",
"xX c #FDFCEB",
"cX c #F5F3E3",
"vX c #F7EEF3",
"bX c #F9EFF5",
"nX c #FDFCF3",
"mX c #FCF5FA",
"MX c #FEFCFA",
"NX c #FAF2F4",
/* pixels */
"                    .   o O = w a J U ' ..M.B.H.I.hXbXgX*XL.D.b.n.' ` J M t 7 & o .                 + + .                       ",
"                          O - w s J U ' ..M.J.H.=XbXbX3X<XL.L.B.6.[ / J s w w & o . .                                           ",
"                    . . o O - w s J Y ' ..b.C.H.=XmXbX<X>X=XJ.V.6.] ~ I M I s & % .   .                                         ",
"                    .   o O - w s J T [ n.M.C.H.=XmXbX<X=X=XJ.M.6.' / J Y J p M @ @ .                                           ",
"                  .     o O - w s J R ' n.V.D.H.*XmXvX*X_.=XK.V.M.| 4.4.( I W i $ @ . . +                                       ",
"                      o o O ; w a L T } 7.b.J.H.*XmXbX*XL.).`.N.N.G.G.S.8.! 4.Q i $ @ . .                                       ",
"                        o O - e a L T  .n.N.J.K.>XmXjX-X^.^.-XD.S.8._ 8._ Q ( ) v 6 $ . +                                       ",
"                .     . o O ; t M I ` 7.N.F.^.).<XmXvX-X'.^.'.S.w.4.9.9.;.G 5.p.h 4 < @ . .                                     ",
"                o   . . @ 8 r y ^ ^ | A.S.^.(.[.3XMXbX[.[.(.'.R.U.0.0.a.U.y.:.F l 5 5 1 * .     +                               ",
"                o @ @ # < N Q i E 8.9.8.S./.].2XjXMXmX4X2X2X5XXX/.W.U.u.1.q.0.:.&.! n D 0 $ @ . .                     O O       ",
"                . @ # < < k _ M W 8.A.p.Y.].5XNXnX3X;XkXsXsXyX0X6XOX@XE.d.2.3.,.@.&.F 9.( 5 < * @                               ",
"              . . # # 1 2 b _ _ D.S.w.p.W.5XbX3XP.^ m zXzXkXlXdXpXwXeX8X|.l.g.d.%.-.&.0.y.n 5 3 $ @ . +                         ",
"                . $ 3 5 D ;.C | w.(.a.U.OXcXnXZ.d 7 m nXlXcXkXlXlXsXtXfXsX9X2X@Xx.u.1.<.a.=.D j 5 # @   .   +     O             ",
"              . @ $ 3 Q 5._ n D *.Y.U.].tX2XcXnXMXX.m MXnXxXxXzXkXsX%XyXdXlXdXeX%X!.j.3.u.1.>.=.n 3 $ @ o                       ",
"              . @ # < b 5.5.n F -.q.U.+XfX2XjXMXMXX.d MXMXnXlXzXkX.X{.8XlXfXpXpXiX+X~.j.x.u.-.#.=.5 3 @ o                       ",
"              . . @ # 0 ) ! D H -.g.T.0XxXnXMXMXMXX.m MXMXnXxXxXnX6XeXyXzXlXsXsXiXyX+X{.!.z.r.+.O.z 5 1 @ .                     ",
"                X X $ 0 5 k c :.1.l.5XnXMXMXMXn.X.X.d MXnXxXxXnXlXzXnXaXxXlXlXxXlXlXcXtXjX!.g.3.@.c x h # .           O         ",
"                X * q $ k n A a.g.!.uXNXMXMXzXzXaXMXP.m MXxXxXxXxXnXnXzXkXnXnXxX9XlXlXzXjX Xj.f.$.S c D 2 . .                   ",
"              t , g ! q n n G 1.g. XjXzXzXMXnXaXfXnXP.m MXxXlXxXxXnXnXnXxXxXxXlXiXkXkX9XsX{.Q.l.,.-.&.=.v M J .                 ",
"            % ~ E Z | _ ;.A a.i.j.!.kXnXzXnXMXMXnXMXP.d xXdXdXlXxXxXxXnXnXlXlXdXlXsXdXkXkX6XaX!.2.q.a.*.( b y o                 ",
"          + P E 7 q ( _ t.G r.x.c.{.9XnXMXnXMXMXMXMXvX;XxXpXdXlXxXxXxXxXlXlXlXdXlXlXxXnXnXnXzX0Xf.k.a.B *.9 6 o                 ",
"          O R ; + 6 b Z =.=.s.f.Q.%XwXxXMXzXzXMXMXMX;X{ xXdXdXlXxXxXxXdXpXlXlXdXdXxXxXlXdXsXkXkXQ.z.1.@.l 5 9 .   +             ",
"            + + + q i z G r.i.i.Q.&XwXxXnXMXmXMXMXMX1XZ.nXdXlXxXxXxXxXdXpX&XeXdXxXlXxXlX0X9XkXzX Xg.,.@.l 4 < @ .               ",
"          + 7 . , W i q G r.i.i.#X$XaXxXnXMXnXMXMXMXMXMXnXxXlXlXlXlXxXlXxXpX#X&XxXnXxXxXlXlXkXaXoX!.2.V @.4 < @ . o +           ",
"            . 8 M C N l G i.f.v.8X.XsXlXlXxXMXMXMXMXMXMXMXMXxXlXdXpXdXlXlXdXpXdXdXlXxXxXaXlXxXtX0XoXT.,.H 5 1 .                 ",
"          . . _ I 1 n 5.G 3.c.Q.sXdXdXiXdXxXnXMXMXMXMXMXnXnXnXdXdXdXdXpXeXlXpXpX#XiXaXxXfX%XfXpX+XW.u.-.c n 0 X & g +           ",
"      e o   X / Q C n ! #.<.e.{.dX9XsXdXpXdXlXnXnXxXMXhX;XnXnXlXxXlXlXxXpXpXqXpX#XrXsX7X}.#X@X7X+XT.a.&.z k N 8 & w + +         ",
"          o . 6 Z n A S r.i.i.&XsXtXdXrXeXpXlXnXnXlXMX;X{ MXnXnXnXlXdXqXqXqXwXsXrX$XrX#X}.wXfX{.E.k.1.H c n N i r   .           ",
"          X 6 8 Q 4 h A r.i.v.&X7X.X.XqXqX7XdXnXnXlXnXMXMXMXMXxXxXlXpX#XpXlXxXsXrXrXrX7X.XsX7X.Xx.e.,.-.F n N 6 X   +           ",
"          % 8 M q ;._ A #.i.x.}.9X7X#XqXqX$XiXxXxXxXnXMXnXMXMXxXlXlXlXqXdXdX#X#XpX%X$XiXiX7X}.Q.f.e.#.r.n n 0 * .   +           ",
"        o * . 8 2 ;.) F r.r.e.}.cXtXlX7X&X7XxXxXxXxXnXMXMXnXMXnXnXxXlXdXdXlX$X8X%X#X%XlXdXiX%X.Xf.e.r.y.x n N & @               ",
"        o u 6 . 9 N k A G $.3.v.aXuXzXsXsXxXsXdXnXnXMXP.  Z MXMXnXlXdXpXlXxXxXdX&XqX8XxXnXlXlXlX{.e.$.G h 5 1 *   +             ",
"        + 7 M @ 2 9 0 G y.-.3.j.2XnXzXzXkXxXsXdXnXMXP.  m MXnXnXxXqX&XpXlXiXdXwXiXdX#X8XxXaXaXcX Xx.i.S.D 4 1 @ .               ",
"          + u @ $ 0 p.D ! >.u.3.W.yX0X7X6XkXlXsXxXMXMXP.m nXlXlXiXdXdXdXsXqXdXdXlXxXlXlXnXxXkXkX].k.y.r.=.4 # .                 ",
"            % . & 3 ;.A D =.1.u.l.+X6X+X9XcXzXcXzXnXnXhX;XnXlXlXkXlXlXrXpXqXfXrXxXxXlXxXnXlXuX0XW.u.=.A n 1 # .                 ",
"              . @ $ 9 b z G O.<.j.x.}.7XaXfXlXnXnXxXlXMXMXxXkXxXxXnXnXpXpXeX%X#XlXxXkXdX7X@X|.T.e.<.#.A v $ @ .                 ",
"              . . # $ 3 j A V #.e.f.x.$X6X9XdXkXnXzXzXMXMXnXsXsXdXnXnXnXlXfX$XeXxXxX6X.Xv.c.d.,.+.@.c h 3 * .                   ",
"              .   . @ $ 4 h x S <.h.{.xXnXnXsX%X%X9XxXMX;X{ xXlXlXnXnXnXlXlXlXxXnXxX%Xx.v.e.3.$.V x h 3 $ . .                   ",
"                + . . @ < 5 l V <.g. XnXnXnXlX%X6XkXnXMXP.d MXnXnXnXnXnXsXlXxXxXnXaX%X!.x.<.3.H c h 5 < @ .             +       ",
"                    X . * 4 l V +.2.!.kXnXlXcXsXlXfXzXMXP.J MXMXxXnXnXnX|.6XkXaXlXtX!.x.,.-.-.x h 3 < X                         ",
"                        @ 1 h c +.2.z.oXjXzXkXuX0XoX0XzX_.K MXnXzXkXzXxXoX+X+X!.~.l.j.u.+.S z 5 2 0 @                           ",
"                      + . < 3 l A -.1.z.]. XoX|.].[.oX0X1XZ.nXjX0X0XuX0X2X[.T.j.g.2.1.-.D l h 9 i @   + +                       ",
"                        . @ 1 h c S +.2.z.z.l.U.R./.].5XuXMXMXjX2X5X5XoX/.z.U.z.0.u.0.O.z j v 9 % +   +                         ",
"                        . . $ 4 h c B &.:.:.q.w.S.R./.].,XNXMX4XXX(./.[.U.w.w.9.*.) B b k v 6 o o                               ",
"                            . < 2 j n B F ! *.4.F.F.F.^.'.hXMXgX'.).^.-Xb.b.4._ 8.Q M b 8 & o o   +                             ",
"                            . . # 2 0 Q W C ~ 4.8.M.D.).).3XmXhX_.).K.=XA.w.4./ Y M N y : & . o .                               ",
"                              . o < 2 M *.J Y ] | b.N.H.K.*XbXbX_.L.K.=XD.b.| ~ P M u w ; % o .                                 ",
"                              o o O & 6 J I J ~ } 6.M.C.H._.gXmX=XK.K.=XB.n. .` P J s w ; O o .                                 ",
"                                o o O - w p J U `  .b.B.J.L.<XmX<XI.L.*XC.b. .' U J a e - O                                     ",
"                                . + o O w u f P ~  .6.M.C.H.=XbXhX=XI.*XC.b. .' U J s r : O O o                                 ",
"      +                             O O > t a J R } ..b.C.J.L.hXbX<X=X=XB.b...' U J a r : O o +                                 ",
"                                + . o O - w p J U '  .n.V.C.J.3XmXgX*X=XB.b...' U J s r - O O O                                 ",
"                                  o   + = 7 t f L R ' 6.b.C.Z.=XbXbX>XI.V.n. .` U J a w - O o +   +                             ",
"                                .     O O : w a J Y `  .n.M.V.H.3XvX>XK.b...} ` P d p w - O o .   .                             ",
"                                      o O - w t d U R [ ..n.m.B.*XgX*XJ.n. .' R L f t w = o o     +                             ",
"                                      + + = : t s K U ~ } o.n.b.H.*XI.V...} ` U K a t > = O +                                   ",
"                                      + + O - w p f J R ` [  .o.n.J.C...[ ` R L J u w : O O o .                                 ",
"                                  . .   o O O : e p d J Y R ` [ } } } [ ` U U J a t 7 - O o o                                   ",
"                                        o o O - > t p f J Y ` ` ` ` ` R R J J f u r : = O o     + .                             ",
"                                      .   o O O - w t p f J J J U U U L J d f p w > - O o o o .     +                           ",
"                                      +   o o O = : > r t a f J J J J J J p u e > - O O + . + . .                               ",
"                                      + .   + + o O - : w w t p p p p p u r w : = O o O O .                                     ",
"                                          + +   o o = = : w w e r r t e w > : = O o o + + . +                                   ",
"                                            + + + o o o O = : : > : : : : = = o + o .   o O O                                   "
};
