/* XPM */
static char *result[] = {
/* columns rows colors chars-per-pixel */
"64 64 242 2 ",
"   c #020201",
".  c #0A0504",
"X  c #0B0907",
"o  c #0A0708",
"O  c #0C0A0A",
"+  c #130603",
"@  c #1A0603",
"#  c #1C0A05",
"$  c #120C0C",
"%  c #1B0D0A",
"&  c #120807",
"*  c #141111",
"=  c #1A1515",
"-  c #1D191A",
";  c #1C1719",
":  c #18110F",
">  c #220B04",
",  c #2A0E05",
"<  c #230E0A",
"1  c #2C140B",
"2  c #271209",
"3  c #32150A",
"4  c #3A1B0B",
"5  c #341608",
"6  c #221C1D",
"7  c #291915",
"8  c #361C13",
"9  c #2B211E",
"0  c #382219",
"q  c #231F20",
"w  c #2A2425",
"e  c #2C2729",
"r  c #2A2527",
"t  c #332C2D",
"y  c #382926",
"u  c #352F32",
"i  c #3A3334",
"p  c #3E3C3D",
"a  c #3B3538",
"s  c #3D332E",
"d  c #411E12",
"f  c #431F0B",
"g  c #46230A",
"h  c #472819",
"j  c #562D16",
"k  c #583519",
"l  c #532C0E",
"z  c #633719",
"x  c #462D25",
"c  c #49332B",
"v  c #583827",
"b  c #423634",
"n  c #423D3D",
"m  c #453835",
"M  c #593D35",
"N  c #643B26",
"B  c #733D26",
"V  c #58433C",
"C  c #68442B",
"Z  c #774829",
"A  c #674737",
"S  c #774B34",
"D  c #795337",
"F  c #7C532F",
"G  c #7A491F",
"H  c #453E41",
"J  c #4A3F41",
"K  c #4A4345",
"L  c #4D4549",
"P  c #464240",
"I  c #534A4C",
"U  c #564747",
"Y  c #564D52",
"T  c #594F54",
"R  c #5D5358",
"E  c #654C47",
"W  c #65524B",
"Q  c #735443",
"!  c #77574A",
"~  c #61565A",
"^  c #645A5D",
"/  c #6A5756",
"(  c #755B54",
")  c #79635D",
"_  c #7D624A",
"`  c #655B60",
"'  c #685E63",
"]  c #6D6569",
"[  c #71666C",
"{  c #756A6E",
"}  c #7C6D6E",
"|  c #776664",
" . c #796E74",
".. c #766C71",
"X. c #7F7E7E",
"o. c #7E7377",
"O. c #865939",
"+. c #965937",
"@. c #8A502D",
"#. c #99643A",
"$. c #A76B3F",
"%. c #875B43",
"&. c #8E5E49",
"*. c #896347",
"=. c #986848",
"-. c #856659",
";. c #966B54",
":. c #9A7459",
">. c #947255",
",. c #A56C4B",
"<. c #AA754B",
"1. c #B67649",
"2. c #A37353",
"3. c #A87758",
"4. c #B77B55",
"5. c #B56F49",
"6. c #856B67",
"7. c #997866",
"8. c #82757B",
"9. c #88797B",
"0. c #957A75",
"q. c #8C7867",
"w. c #A47967",
"e. c #A47C76",
"r. c #B27E6F",
"t. c #BA8557",
"y. c #B48454",
"u. c #998176",
"i. c #AC8268",
"p. c #BA8667",
"a. c #B28C7A",
"s. c #C5885A",
"d. c #CC965C",
"f. c #C78D68",
"g. c #C89567",
"h. c #CA9875",
"j. c #D49C75",
"k. c #D29667",
"l. c #D9A577",
"z. c #D3A172",
"x. c #E3AA75",
"c. c #867B81",
"v. c #8A7D84",
"b. c #8E8186",
"n. c #92858D",
"m. c #988584",
"M. c #9B8C94",
"N. c #9A8B94",
"B. c #9F9E9D",
"V. c #9E9099",
"C. c #A48B89",
"Z. c #A4949A",
"A. c #B69A9A",
"S. c #B69088",
"D. c #AB9BA4",
"F. c #AA9BA4",
"G. c #B69FA4",
"H. c #B3A4AD",
"J. c #B9A4A8",
"K. c #BBABB4",
"L. c #BAABB4",
"P. c #BFBDBD",
"I. c #BFB1BA",
"U. c #AFA2AA",
"Y. c #B8A384",
"T. c #CA9983",
"R. c #D09F86",
"E. c #D8A887",
"W. c #D6AB98",
"Q. c #DCB297",
"!. c #D1AF91",
"~. c #E9B786",
"^. c #E4BA97",
"/. c #E1AB8A",
"(. c #C9A9A8",
"). c #DAB4AD",
"_. c #C6AFB4",
"`. c #C3B3BC",
"'. c #C9B2B6",
"]. c #D8B7B7",
"[. c #D8AEAA",
"{. c #E4BAA4",
"}. c #E6BEB5",
"|. c #DEC395",
" X c #E8C59D",
".X c #EFCD92",
"XX c #EBC7A9",
"oX c #F2D9A7",
"OX c #EAC9B6",
"+X c #F3CDB6",
"@X c #F4D6B9",
"#X c #EDD2AB",
"$X c #F6E5AA",
"%X c #F6E7B8",
"&X c #F3EEBD",
"*X c #E9D0AB",
"=X c #CABBC4",
"-X c #C9B9C3",
";X c #D1BDC9",
":X c #CECDCC",
">X c #D4C5CD",
",X c #D9C9CE",
"<X c #DBCCD3",
"1X c #DEDADA",
"2X c #E9C7C2",
"3X c #F6DAC6",
"4X c #E3D3D9",
"5X c #F4DCD8",
"6X c #EFDBC4",
"7X c #F4E4C4",
"8X c #F6ECC3",
"9X c #F4E5CB",
"0X c #F6ECCB",
"qX c #F9EDCB",
"wX c #F9E7C5",
"eX c #F7F3CB",
"rX c #F9F4CC",
"tX c #FBFACD",
"yX c #F8F4C4",
"uX c #F5ECD3",
"iX c #F9EDD3",
"pX c #F8EBD8",
"aX c #F6F3D5",
"sX c #FAF5D3",
"dX c #FDFBD5",
"fX c #F6F3DB",
"gX c #FAF5DB",
"hX c #FBFADC",
"jX c #EFE4C3",
"kX c #E9DCE5",
"lX c #EEE5EA",
"zX c #F6EAE7",
"xX c #FAF5E4",
"cX c #FCFBE4",
"vX c #FAF6EA",
"bX c #FDFCEC",
"nX c #F6F3E5",
"mX c #F7EDF3",
"MX c #FDFCF3",
"NX c #FCF6FA",
"BX c #FEFCFB",
"VX c #FAF3F5",
/* pixels */
"  o                   o O - r a L ` [ c.N.F.H.;XNXmX<X-X;XI.N.c...` T H u J H $ o                   .                   . o     ",
"                  .   o O - r i L R { c.N.F.H.>XVXlX<X-X`.K.F.v...~ I H m b m J 9 X .   .                                     o ",
"                  . . o O - r i L ^ { c.N.F.H.>XNXlX<XI.L._.U.v.8.' ^ ^ Y b U M 0 & . .   o o                         o   o     ",
"                    o o O - r a U ^ { 9.M.F.H.>XNXlX<XL.U.`.`.n.n.6.} 6.6.E W ( V 1 + .         .       o     .     o         o ",
"                    o o $ - r a L '  .v.V.D.L.<XNXlX>X`.H.H.;XC.v.| / -.6.E ! ! E 1 < & X     X                               o ",
"                    o o O - r H U } 8.N.D.(._.<XNXNX4X-X'.J.'.C.0.) ( ( ( E Q 6.! , > + X                                       ",
"                .     o $ - r ` U  .N.S.A.'.].5XBXNX4X].)._.].A.e.6.( 0.S.-.A v ! 5 , @ + .                     .               ",
"                    . - i - r ..] ) 9.C.(.).}.lXBXNX5X2X].[.[.[.h.a.:.;.;.w.:.&.S D x 3 7 % .         O           .             ",
"                o .   $ W 9 e m 0.v.v.S.[.2XpXNXBXNXvX5X3X@XOXXXW.E.j.p.1.,.,.3.O.D C C -.U 7 . .     .                         ",
"                . o o o s U u.o.v.6.r.(.).5XNXBXBXNXMXxXcXcXgXsXqX@XwX^.s.1.5.$.<.G F A -.q.V # + .   .     .         o o       ",
"                . .   = V U c.Z.6.6.v.R.}.zXNXBX1X1XBXvXxXhXhXcXhX0X8X#XE.j.d.y.$.@.=.*.:.q.Q 1 # X .     X   .       o o   o   ",
"                O $ e i - m V | v.w.S.W.3XmXMXBXX.] :XBXcXhXdXdXcXcXuXfXiXgX3X/.k.y.4.#.*.:.e.M 0 # @ + X X . . O . .       o   ",
"                X s t M s y V ! e.r.T.+X6XnXMXBXB.q p BXMXcXdXsXgXqXoXoXgXcXbXsX%X~.k.1.#.2.3.D *.E 8 @ # # # + & X .       o   ",
"                  t V C.v h A %.,.r.R.pXuXMXBXBXBXX.p BXMXcXqXqXcXoX~..XsXgXaXcXhX%Xx.k.s.h.T.*.! D v 5 5 2 2 2 % . .           ",
"                  7 y E A x N %.2.h.XXhXcXMXBXBXBXX.p BXBXcXqXrXcXoXoXoXsXhXhXcXcXqX#X^.l.h.f.2.@.k C 4 4 4 5 5 2 X .           ",
"                . y 1 3 h N S =.f.+XiXvXBXBXBXBXBXX.  p BXcXhXdXgX8XdX%XqXcXxXhXcXbXbXnXuX{.f.5.O.S k l g l 4 4 , 2 & . o o   o ",
"                X # 2 h k O.a.<.^.9XvXBXBXMXMXMXBXX.  p BXMXcXhXxXxXbXgX0XcXbXhXxX8XvXbXMXnXOXs.#.2.B j j a.v g 4 % # X   .     ",
"        . * . 7 / % y l N F =.t.+XvXnXzXNXMXnXnXMXBXP.  p MXbXcXcXcXcXbXsXdXcXcXcX%X0XvX9XnXuXs.j.&.B C C Y.C k A 2 & . O       ",
"        = w n b V 0 A v F >.$.t.#XMXMXpXvXBXMXBXBXBXP.u :XbXcXcXbXMXMXcXcXhXhXcXhXrXgXgXuXcXiX/.R.+.@.w.D q.-.Q V % # .         ",
"      ; ^ = a y 9 W _ C D !.|.g./.gXMXvXvXNXBXBXBXB.u p BXbXcXbXbXbXMXbXbXcXcXhXhXdXgXcXcXiX7X+XT.+.@.*.N C u.d 2 # + . . .     ",
"      K I $ $ % 7 y i.O.D y.z.d.x.%XcXMXnXMXBXBXBXX.u :XBXMXbXbXbXbXMXbXhXbXbXhXfXcXbXMXvXqX@X+X/.+.+.;.j j M , V < . .   o     ",
"      - $     $ y 1 A *.>.y.t.d..X%XhXMXBXBXBXB.B.1XB.{ BXMXbXnXbXMXMXbXbXxXvXhXbXbXvXMXfX7XwX9X{.5.+.,.N d 3 > + + .     O     ",
"            . 9 2 0 C F y.y.s.x.oXrXhXbXBXBXBXP.P.BXP.p MXbXbXMXMXMXMXbXMXhX&X%XbXbXbXMXxX9X0X9X3Xf.+.B z d , > . .             ",
"      ; O . m 7 V 0 h F >.y.d.x.$XcXbXbXbXMXBXBXBXP.X.B.BXbXMXMXMXbXMXcXcXcXdX&XeXcXMXMXMXcXxXuX3X/.R.+.j j M > . X .           ",
"  .     o i m % 0 c z 2.y.E.|.eX7XbXcXbXbXMXP.P.BXP.B.BXBXBXMXMXMXbXbXcXaXcXcXhXcXdXhXMXMXfXjXnX3X+X+XT.w.B x 1 .               ",
"        y ] W + y %._ #.t.|.sXbXbXbXcXhXcXMXP.P.BXBXBXBXMXMXbXMXMXMXMXnX&XvXMXcXyX%XhXbXbXuX*X9XpX3X{.3.Z v d b % . o = o       ",
";       w y U x x A F #.y.|.cXcXhXcXcXcXhXcXbXMXMXBXmX:XbXnXbXMXMXMXMXMXvXMXcXaXsX%XsXgXeX8XjXXX7X+XR.,.;.j h 1 9 w = $ .       ",
"        . 7 n 7 x k *.y.y.|.cXaXhXdXtXhXdXcXbXMXMXMXP.p lX:XMXMXMXBXbXeXyXeXeXeXdX8X8XsXoXoXuXfX XE.r.2.O.j d 8 y t 6 :         ",
"  . o o   w U @ 4 k F i.g.~.$XaX%XyXrXyXrXcXMXBXMXMXP.p :X{ BXBXMXcXhX$XyXhXcXcXaXyX8XsXwXoXiXiX^.f.5.=.F C M y b $ o           ",
"      r t i y 0 c C k #.g.z.l.aX%XoXyXyXtXhXbXMXbXbX:X{ BXBXBXMXbXbXhX&XtXcXcX$XeXtX%XeXaXgXwX~.x.s.$.+.O.A 5 m :   .         o ",
"    . . = y 7 c h 4 z i.y.d.|.aXfXcXgXrXyXhXbXbXbXbXBXBXMXBXBXMXMXcXhXdXdXcXsX.XyX%XoXrXgXfXiX.X~.s.s.+.O.v 4 8 w .           o ",
"    - r . + # x 3 C C F #.y.z.eX9XbXaXeXbXbXMXMXMXBXBXBXBXBXBXBXbXdXtXtXtXbXcXdXdX8XdXaXcXxXgXcXsXz.t.#.S j , @ . $             ",
"      i 7 + 8 x 4 0 C >.@.g.z.3XnXMXvXnXMX0XaXBXBXX.    P BXBXBXbXdXtXtXdXbXhXcXcXdXcXrXgXMXbXMXMXOXl.i.;.A 3 @ .         o     ",
"      6 7 @ > , -.D ! u.i.1.4.{.nXvXnXfXMXbXMXMXBXX.p P.p MXbXcXdXyX&XrXxXdXtXcXaX8XtXsX&XMXMXvXnXQ.f.:.i.7.M + .               ",
"      % = + , 8 a.C C -.i.=.4.h.@XuX&X%XnXvXbXgXBX1X:XP.p MXbXcXtXdXdXdXcXrXeXcXhXdXgXcXvXBXMXxX3XE.h.i.D Q c &                 ",
"      . . @ > , C A h C C =.3.4.z.^.XX0XnXxXMXcXMXcXMXP.V MXbXMXhXcXdXtX8XrXsX8XeXvXvXbXvXgX9X+X/.p.2.;.v 8 2 &                 ",
"        . @ @ @ > V v k j S O.<.1.s.x.wXuXxXbXbXMXbXbXP.p bXbXMXbXbXbXcXhXgXhXoXsXbXbXxXpXoX~.d.1.,.@.;.v 3 > .             O   ",
"          . + @ # 0 V 0 d l B ,.1.k.#X8XqXsXgXMXMXMXMXP.H MXcXrXaXbXbXbXbXxXaX%XbXMXMX7XXXj.k.5.+.Z z j 3 @ +                   ",
"        . . . . + % s 2 3 f l &.#.E.wXdXhXqX6XxXjXcXBX1XX.B.cXsXsXMXMXMXbXvXhXbXbXMXbX@X/.d.t.$.@.z l 5 > . . .                 ",
"          . . .   . . X > 5 g S #.^.wXrXtXdXrX#XfXbXBXBXP.H BXBXMXbXMXMXbXnXMXcXbXbXxXXXk.4.#.<.z g 4 , + .                     ",
"                O   . . @ , 4 j B w.{.@X3XqXsXgXgX7XxXBX`.p BXBXcXMXMXMXpXXXgXwX XXX^.j.t.+.@.O.g 5 > +   O               .     ",
"      .               . & 1 , N S *.r.R.{.@X3X@XOX+X3XvX1XB.BXxXpXpXpXgX3X{.+Xl.k.s.s.5.2.C z g , # 7 X                     o   ",
"                        . < > d N D %.w.T.{.^.W.[.#X3XzXBXBXNXzXpX3X3X3X3XQ.R.f.4.4.,.+.O.N h 3 # y w X .                       ",
"                        . . @ , d N B Q &.e.e.S.(.).OX2XvXBXVXpX2X}.).}.[.r.r.r.;.:.w.-.C d 4 y 7 =               .             ",
"                          . + , 3 h M Q E -.0.C.A.[.).}.kXBXVX5XOX_.(._.A.e.e.6.! A M v x 3 y $                     o           ",
"          O               . + # 1 d x M E / -.v.A.J.J.'.4XBXNX4X'.'.G._.G.0.6./ /  .U y 9 7 $ o                                 ",
"            .           . . X @ 1 4 h v M T / c.M.Z.J._.,XMXNX<X'._.G.`.G.8.} / R / b u w $ o o o                               ",
"                .         . + < 1 x 6.7.J E ..6.9.Z.D.K.;XmXBXkX-XL.D.K.U.v...` U J u u = $ o .         .                       ",
"                          . . # 1 4 x u._ U ^ { X.N.Z.U.-XkXNXlX-XL.H.L.H.c. .' T H u r ; O o o     o                           ",
"                            . # 2 8 0 h W I Y { X.b.V.U.L.4XNXNX;XL.H.-XL.v. .' T H a e - O o o             o                   ",
"    . *                   . . & < 1 8 0 c V K ]  .b.N.F.H.>XVXNX>XI.H.-XL.v.o.' T K p e - * O o             o                   ",
"                            . . % : 2 7 y V K R [ c.n.F.H.-XlXBX4X`.I.-XL.v.c.[ R L p e - O O O           o                     ",
"                            .   o & % 7 r u H Y ] o.b.V.F.I.<XNXlX;XI.-XH.n.c.[ R L p e - * o o       .       O                 ",
"                        .   .     o & = q u a Y `  .c.M.F.H.=XmXmX<X-X;XH.n.c.[ R L H e - * o o   o           .   .             ",
"                                . o o O ; r a L R { o.n.V.F.`.lXNXkX;X=XH.N.c.[ ~ L p e q $ O     o             .               ",
"                                  o . O = r u H R ]  .v.N.F.F.1XNXmX1X=XF.v.c.[ R J p e - $ O o   .                           O ",
"                .               o o   o * - e p Y ` [ 8.n.N.F.-XmXNXkX-XV.v.c.[ R L a r - $ o o                         .       ",
"              .                     . o $ - r u H T ` ..c.n.N.H.<XmXkXI.V.c. .' T H i r ; O o o   .                             ",
"                                  o   o O = q u H I R [ o.v.n.V.-XkX4XH.v.8.[ ` Y H u r ; O o o   .           O                 ",
"                                    o o O * ; e a H Y ` [ 8.c.n.F.-X-XF.c. .] R L a t q * O O       o     .                     ",
"                        .           o o o O * q u p H T ` [  .8.c.V.F.v. .] ` Y H u r - * O o   o   .                           ",
"                                      O o o O = q u p L T ` ' [ [  . .[ ' R T H i t q - * o o   o                               ",
"                                      o o o O * q e u H J R R ` ' ' ' ` R T L H u r q * O O o   .   o                           ",
"                                          o o o * q q u p J L T T R T T I H p u e - = $ $ O O                                   "
};
