/* XPM */
static char *result[] = {
/* columns rows colors chars-per-pixel */
"64 64 186 2 ",
"   c #020202",
".  c #0B0503",
"X  c #0E0806",
"o  c #0A0A0A",
"O  c #120603",
"+  c #140905",
"@  c #1A0C06",
"#  c #150B09",
"$  c #1B0D09",
"%  c #1D1007",
"&  c #1D110A",
"*  c #131313",
"=  c #181413",
"-  c #181818",
";  c #230E07",
":  c #2A1507",
">  c #2D1907",
",  c #23120B",
"<  c #2A150B",
"1  c #2C190C",
"2  c #241306",
"3  c #321A07",
"4  c #30170D",
"5  c #331C0D",
"6  c #271712",
"7  c #2B1711",
"8  c #2C1C12",
"9  c #321D12",
"0  c #3C230D",
"q  c #332114",
"w  c #3C2412",
"e  c #3D261A",
"r  c #3F2D1E",
"t  c #42260D",
"y  c #47280F",
"u  c #4A2C0D",
"i  c #53320F",
"p  c #5D3A0F",
"a  c #422612",
"s  c #452B15",
"d  c #4A2C13",
"f  c #422B1A",
"g  c #492E1A",
"h  c #4E3011",
"j  c #4C331B",
"k  c #533313",
"l  c #593614",
"z  c #5B3A12",
"x  c #50371B",
"c  c #57391C",
"v  c #5C3C1A",
"b  c #5C371B",
"n  c #613C15",
"m  c #623B18",
"M  c #463324",
"N  c #4F3423",
"B  c #523723",
"V  c #513A21",
"C  c #5D3E21",
"Z  c #644216",
"A  c #6B4316",
"S  c #6F4816",
"D  c #65421C",
"F  c #69451B",
"G  c #6E481C",
"H  c #764E16",
"J  c #744B1C",
"K  c #784D1B",
"L  c #7D5217",
"P  c #76521E",
"I  c #7B521D",
"U  c #5E4328",
"Y  c #634323",
"T  c #694625",
"R  c #6E4B23",
"E  c #6E4B29",
"W  c #724C24",
"Q  c #734E28",
"!  c #6E5025",
"~  c #755223",
"^  c #7A5322",
"/  c #7B542B",
"(  c #82571E",
")  c #845B1F",
"_  c #845724",
"`  c #835A24",
"'  c #8B5D22",
"]  c #8A5D2A",
"[  c #865D31",
"{  c #8C6023",
"}  c #8D612E",
"|  c #936423",
" . c #966826",
".. c #9C6C26",
"X. c #956529",
"o. c #996729",
"O. c #9B6C2A",
"+. c #9F7025",
"@. c #8E6130",
"#. c #9D6D35",
"$. c #956A33",
"%. c #A06D2B",
"&. c #A4722B",
"*. c #A9762C",
"=. c #AC7A2C",
"-. c #B17D2E",
";. c #A06D32",
":. c #A37333",
">. c #AC7A31",
",. c #AB7D3C",
"<. c #B17E33",
"1. c #B48133",
"2. c #B98434",
"3. c #BD8A35",
"4. c #B2823B",
"5. c #BA863A",
"6. c #BD893A",
"7. c #C38D37",
"8. c #C28C3A",
"9. c #C59337",
"0. c #C6913D",
"q. c #CA933D",
"w. c #CF9B3F",
"e. c #CB9646",
"r. c #CE9A43",
"t. c #C6994F",
"y. c #CA9E4B",
"u. c #D29D42",
"i. c #D29E4C",
"p. c #D5A144",
"a. c #D4A44C",
"s. c #D8A64F",
"d. c #DDAB4C",
"f. c #D7A957",
"g. c #DBAB54",
"h. c #D5AC58",
"j. c #DBAB5C",
"k. c #DDB45E",
"l. c #DBAF62",
"z. c #D9AF6E",
"x. c #DCB46C",
"c. c #DBB463",
"v. c #DCB572",
"b. c #DDBA72",
"n. c #E0B762",
"m. c #E1B963",
"M. c #E2BC6C",
"N. c #E1B777",
"B. c #E3BA7B",
"V. c #E9C67F",
"C. c #E5C37B",
"Z. c #E4C484",
"A. c #ECCB8D",
"S. c #E5C58B",
"D. c #E6CC96",
"F. c #E9CD92",
"G. c #EED296",
"H. c #EDD49C",
"J. c #F0D598",
"K. c #F1D99B",
"L. c #F2D692",
"P. c #EFDBA4",
"I. c #EEDAAE",
"U. c #F2DCA4",
"Y. c #F1DEAD",
"T. c #F5E4A6",
"R. c #F8E7AE",
"E. c #F3E2B3",
"W. c #F9E9B6",
"Q. c #F6E7BA",
"!. c #F7EBBD",
"~. c #FCF9B7",
"^. c #FBF5BB",
"/. c #FDF9BC",
"(. c #F7E9C7",
"). c #F9EDC3",
"_. c #F7F1C5",
"`. c #F8F0C5",
"'. c #FDFBC3",
"]. c #F7F2CC",
"[. c #FBF3CD",
"{. c #FDFBCB",
"}. c #FDF6D3",
"|. c #FDFBD4",
" X c #FBF6D9",
".X c #FDFADA",
/* pixels */
"  o                                                                                                   o o                       ",
"                                                                                                                        o       ",
"                                                                                            o   o                     o   o   o ",
"                                                                                                              o     o           ",
"                                                                                o                                             o ",
"                                                o                               o                                               ",
"                                                =           o               o   o                                               ",
"                                                      .                   o o           o             *           o             ",
"                                                    o . .       .   .                                                           ",
"                            o o             .   .   . o o . .   o     o .       .               o                     o o o     ",
"                                            .   o . o X # # $ # + O X X .   .                                         o o       ",
"                                          .   X o # $ , 6 6 8 7 7 6 6 , ; + + O . .   .                                     o   ",
"                                          . . @ , 9 9 f f g j j g s s a a 9 4 ; @ O . .       . o         o       o             ",
"                                      . O + , 5 a g b U Y E E R R R F F m k u y 9 $ + O .                       o               ",
"                                      . + : 9 y m T Q / [ @.@.@.] } ] _ K J m m y 5 < + O .                               o   o ",
"                                . . O @ > a k D / [ $.:.,.4.4.4.4.<.<.>.*.O.| ( A i y : + . .                     o             ",
"                                . X $ 4 u n J ' O.4.6.r.i.j.b.S.h.p.u.w.q.3.1.&.) J n t > @ X                         o         ",
"                                . @ 5 d n ( o.>.8.a.b.G.P.E.[.[.T.K.K.G.G.b.y.7.=. .I p 0 : + . .               o       o       ",
"                              = O > t l L  .>.0.a.A.(.|.[.{.'.'.'.{..X|.{.].P.g.7.*.| G u 3 , . .                               ",
"                              # ; t k H  .<.0.c.U. X|.{.'././.'.'.{.{.{.'.{.{.E.f.3.*.' m y 4 + .             o                 ",
"                              O 5 i A { -.q.M.].|.'.'.'.'.'.'./././.'.'./././.|.E.u.3...I l w , .   .                           ",
"                        . . . @ w z I %.3.Z.R.{.{.'.'.'.'.'.'././././././././.{..Xn.w.-.{ F h > + . .                     o     ",
"                            . ; 0 Z ` *.y.Q.'.'.'.{.{.'.'.'.'.~.~./././././.'.'.|.K.g.3.O.J z 3 @ X                             ",
"                            X : d G { =.h.^.~.{.{.'.'.'.'.{.'.~././././././.'./.{.|.E.y.>.( Z t ; X               o             ",
"  o                       . + : h H o.<.k.^./.|.|.'.'.'.'.'.'.~././.~././.~./.'./.'.}.x.>.' G d ; .                             ",
"                            O > h K o.2.m.{.{.'.'.'.'./././././.~.~././././././.'.'.}.x.1.| J d : O .                     o     ",
"                          . O 4 k K o.7.c..X|.'.'.'./.'./.'./.~.~.~././.^././././.'.}.c.2.| J d : O .                 o         ",
"                          . O 4 l K o.7.C..X|.{.'./.'././.'././.~.~.~./.^./././.'.'.!.g.2.' G s 6 +                             ",
"    o                       O > h K o.3.Z. X{.{.'./.'././.'.'./.~.~././.~././././.|.U.p.-._ F f ; O                         o   ",
"                          . X : u S | -.f.`.'.'.'.'././././././.~.^././././././.'..XA.r.*._ C e $ . .       o   o             o ",
"                            O 2 y A ' =.r.E.{./.'.'./.'./././././.^.~././././././..XC.9.&.~ c w # .                           o ",
"                            O @ 5 m ^ o.6.j.K.'./.'././././././.~././.^././.'././.[.x.3.| R V 9 + . .                           ",
"                            . # 1 h F ' *.w.M.{.~./.'.'./././.~./.'././././.'./.'.I.t.*.) Y f < O .                         o   ",
"      o o                     . & 0 l P O.8.i.(.'.'./.'.'./././././.'././.{.|.G.d.0.<.| W j q @ . .                             ",
"                              . # 5 s F ] =.8.C.].'./.'.{.'.'.'.{.{.{.{.{.].I.j.w.1.+.( U f 8 + .                               ",
"                                X & 9 k W X.*.e.j.W.{.}.).L.U..X XQ.U.F.Z.l.u.7.=.| _ T M 8 & X .                               ",
"                              . . O ; 0 z ~ X.=.6.v.D.D.c.d.g.B.N.s.p.r.q.3.<.%.) J Y M q % X X                             o   ",
"                                  X O > f C W ] O.>.4.6.3.8.7.6.6.4.1.>.&. .{ L Y x f 8 & # X                         o         ",
"                                  . O ; 5 g U ! ` X.O.O.:.O.#.#.;.#.X.@.` ~ R v N e 8 & X . .                                   ",
"                            o         . # 1 w x Y E Q ~ ^ ^ ~ ~ Q R R T v x s r 8 & # . .                                       ",
"                                  .   . . @ 2 5 f g j V V B N x j j j s w q 1 , # X .                     o                     ",
"                                          X O @ , 6 8 q q 9 q q 9 1 6 , & & # o . . .   o                 o                 o   ",
"                                          . . . X O & & & & & & & % # # X   X o .                                               ",
"                                          o     . . . . . X # . . . X . X   .                                     o           o ",
"                                  o             .     X   . .   o       .                   o                                   ",
"          o                                         o           o         . o                                       o           ",
"                                          o .                             o                                                     ",
"                                                    o                                                               o           ",
"                                                                                                    o                           ",
"                                                                      -                                                         ",
"      *                                                               o     o                                                   ",
"                                                                    o       o                 o           o                     ",
"                                                                                                            o o                 ",
"                                                                                                              o   o             ",
"                                                                                                                o               ",
"                                                                          o o                                                 o ",
"                o                                                               o                                               ",
"      o                                                                           o                                             ",
"                                                                                                              o               o ",
"                                                                                                    o     o                     ",
"                                                                                        o                                       ",
"                                                                                        o         o                             ",
"                                                                                          o         o                           ",
"                                                                                        o o o                                   "
};
