/* XPM */
static char *result[] = {
/* columns rows colors chars-per-pixel */
"64 64 222 2 ",
"   c #010101",
".  c #0A0504",
"X  c #0B0807",
"o  c #0A0708",
"O  c #0B090A",
"+  c #140604",
"@  c #1B0704",
"#  c #140806",
"$  c #1C0905",
"%  c #120C0C",
"&  c #1B0C0A",
"*  c #19110E",
"=  c #140F11",
"-  c #151112",
";  c #1B1515",
":  c #1B1618",
">  c #1E1A1B",
",  c #230C05",
"<  c #2A0E05",
"1  c #220D09",
"2  c #280E09",
"3  c #2C1105",
"4  c #24110B",
"5  c #2B130A",
"6  c #2E1B0F",
"7  c #321406",
"8  c #361806",
"9  c #3A1A06",
"0  c #321509",
"q  c #361A0A",
"w  c #3B1B0A",
"e  c #231C1D",
"r  c #261A16",
"t  c #371E14",
"y  c #300D09",
"u  c #2B201E",
"i  c #27201F",
"p  c #342218",
"a  c #261E20",
"s  c #262221",
"d  c #2B2323",
"f  c #2F2829",
"g  c #332623",
"h  c #3D2A24",
"j  c #342A2B",
"k  c #382B29",
"l  c #3B302E",
"z  c #3B2F31",
"x  c #373130",
"c  c #421E09",
"v  c #441E06",
"b  c #452206",
"n  c #44210B",
"m  c #4B250B",
"M  c #4E2A0B",
"N  c #482704",
"B  c #532A07",
"V  c #532B0D",
"C  c #5D330E",
"Z  c #57300F",
"A  c #492611",
"S  c #4D2B15",
"D  c #48291A",
"F  c #552D10",
"G  c #592F10",
"H  c #5C3312",
"J  c #5A3519",
"K  c #61360E",
"L  c #633613",
"P  c #643A12",
"I  c #6B3C13",
"U  c #61361B",
"Y  c #452D23",
"T  c #512F20",
"R  c #43302D",
"E  c #5B3B2C",
"W  c #543527",
"Q  c #4A3632",
"!  c #4D3A33",
"~  c #473A38",
"^  c #583D35",
"/  c #653C23",
"(  c #714315",
")  c #76451A",
"_  c #7B4B1B",
"`  c #784819",
"'  c #6D451C",
"]  c #53403B",
"[  c #5C443C",
"{  c #6B422C",
"}  c #774A25",
"|  c #674638",
" . c #724A39",
".. c #775038",
"X. c #5D4742",
"o. c #6C4C44",
"O. c #654B47",
"+. c #755348",
"@. c #7C5A51",
"#. c #6F524A",
"$. c #844F1E",
"%. c #82521D",
"&. c #8B591E",
"*. c #804F2F",
"=. c #855223",
"-. c #8B5522",
";. c #8D5A23",
":. c #8E552D",
">. c #915B24",
",. c #925E28",
"<. c #935A26",
"1. c #8A5B38",
"2. c #965C35",
"3. c #966226",
"4. c #9B632B",
"5. c #9D692B",
"6. c #9D6726",
"7. c #95623C",
"8. c #9E6835",
"9. c #A66C2C",
"0. c #A56A32",
"q. c #AA6D37",
"w. c #AC7233",
"e. c #B17534",
"r. c #B47935",
"t. c #B47B3C",
"y. c #B7793D",
"u. c #845948",
"i. c #825C54",
"p. c #9D6A44",
"a. c #866254",
"s. c #8A6353",
"d. c #946A55",
"f. c #956A58",
"g. c #9D725E",
"h. c #A8734A",
"j. c #B87F4C",
"k. c #B57947",
"l. c #A9785B",
"z. c #B47E55",
"x. c #A16D48",
"c. c #A57A6C",
"v. c #BA813B",
"b. c #C2833C",
"n. c #BD844C",
"m. c #BB8254",
"M. c #BE875C",
"N. c #B7886A",
"B. c #B08674",
"V. c #C28445",
"C. c #C48946",
"Z. c #CC924B",
"A. c #C68C5C",
"S. c #CC955C",
"D. c #CD9153",
"F. c #D59A5C",
"G. c #CC9465",
"H. c #C99467",
"J. c #DB9B6B",
"K. c #C79673",
"L. c #D29F73",
"P. c #D3A16D",
"I. c #D8A467",
"U. c #DBAB73",
"Y. c #D6A678",
"T. c #D9B57A",
"R. c #E1B06F",
"E. c #E4B27E",
"W. c #E7B576",
"Q. c #E2A86A",
"!. c #B48981",
"~. c #C99E87",
"^. c #DDBC81",
"/. c #DAB192",
"(. c #E4B483",
"). c #E6B988",
"_. c #E8B98C",
"`. c #E7B893",
"'. c #E0AA84",
"]. c #E3BDAF",
"[. c #E9C28C",
"{. c #EBC591",
"}. c #EDCC9D",
"|. c #E4C395",
" X c #F5E499",
".X c #EDC9A4",
"XX c #F1CCA7",
"oX c #EED4A6",
"OX c #F2D4A4",
"+X c #F3D6AA",
"@X c #F3DAAC",
"#X c #F8D5AE",
"$X c #F5DAB3",
"%X c #F3E9A9",
"&X c #F9E3B6",
"*X c #F5E3B9",
"=X c #F6EDBC",
"-X c #F8E7B8",
";X c #F8F1B8",
":X c #F3D6C3",
">X c #F6ECC2",
",X c #FAEAC4",
"<X c #FAECCB",
"1X c #F8E9C7",
"2X c #F6F2C3",
"3X c #FAF3C4",
"4X c #FAF8C5",
"5X c #F6F3CB",
"6X c #FAF4CC",
"7X c #FCFBCD",
"8X c #F7F9CC",
"9X c #FAEBD3",
"0X c #FBF5D4",
"qX c #FCFBD4",
"wX c #FBF6DC",
"eX c #FCFBDC",
"rX c #F5F4D3",
"tX c #FDF5E2",
"yX c #FDFCE4",
"uX c #FDFDEB",
"iX c #FDFDF3",
"pX c #FDFDFA",
/* pixels */
"  o                                       o o         o           o         .                       o   o               o   o   ",
"                                    o     o   o   . .   o     .   . .                                                           ",
"                                            o     .   o o o   o .                         o                                   o ",
"                                        o     o o   o o o o o o . o .   . o                     o             o     o o       o ",
"                                          o o O o o o O % = O % % o o . o                     o               o               o ",
"                                    o . . . o O - - - : : > > ; : = O X o o o   o       o                                       ",
"                                  .   o . o O = s : e a a d j a > ; - % O o .     o                                             ",
"                                  o   o o O = ; a d f j j z z z f d e ; - % % o .     o               O           o             ",
"                                    . . O - : a f x x X.] ] ] ] ! R k u r 4 * % . . . .               o                         ",
"                  o     o   o o o   o O & r g h ~ ] X.O.#.#.#.o.| | E W D p 0 2 1 . .           o                     o o o     ",
"                        o   o   . o o % r d h Q ^ O.#.@.@.a.s.s.u.+. .{ W F A w 5 1 @ + .                             o o   o   ",
"                                . X % 4 t Y ! | +.i.f.g.B.B.B.K.N.p.7.1.} ' P Z M c 8 , @ + . .                 o           o   ",
"                          o     . # 4 q D { | u.d.l.N.N./.]././.Y.M.z.h.4.,.=._ ( L V b 0 & + X X                 o         o   ",
"                              . $ 5 q S { ..1.x.z.H.L.`.:XtXyX2X-X|.T.^.T.t.w.5.;.%.' P N 8 , + .                               ",
"                          . + $ 5 t S J { 1.x.m.G.).OX-XtXuXyXeX8X2X=X;X%XU.D.v.w.6.&.` P m 9 @ + .                       o o o ",
"                        . . $ 5 n Z / } 4.h.K.+X,XeXyXuXpXuXuXuXyXeXyX0X<X2X-XW.Z.v.w.6.%.P F q $ +           o   o o           ",
"                        + @ 3 n C ` =.4.y.L.&XwXyXiXiXiXpXuXyXuXuXuXuXyXyXyXeX6X,XR.Z.r.5.%.I M 7 + .                 o         ",
"                      . + 3 n C ` ,.0.k.D.OX6X6X6XuXiXiXpXuXuXuXuXyXyXuXyXyXtXeXuXwX+XI.k.3.%.L b , #           o               ",
"                .     X & 9 V } <.q.V.(.{.*XrX5X>XeXuXiXpXuXuXuXyXyXuXuXuXyXyXrXuXuXwX+XF.w.;.I B 7 $ X                         ",
"                    . + 3 m L =.0.A..XwX0X9XeX0X4XqXuXiXpXuXuXuXuXuXuXuXuXiXuXyXyXuXiXtX.XV.0.$.C 9 , # o     o                 ",
"                    . + 7 V I <.q..XwXiXuXuXuXqXqXqXyXyXiXuXyXyXyXuXuXuXiXuXiXuXuXuXuXuX1XY.y.<.P b 7 # .     .                 ",
"o                   . @ w G ) 2.G.9XiXuXuXuXeX4X%XqXeXqXuXyXqXeXeXqXeXyXuXuXuXtXuXeXwXuXtXXXD.4.( B 9 $ .                 o     ",
"                    . @ 9 H ) 0.'.tXuXyXuXuXeX%X;XqXeXeXuXyX7XqX7X7X7XeXyXuXuXwXuXeX8XeXyX#XU.0.` V c , .                       ",
"o                   . @ 8 H _ 4.S.<XeX5XyXyX7X4X7XeXeXyXiXuXqX7X7X7X7XqXyXyXyXwXeXwXyXyXeX,X_.w.$.C n , +         o             ",
"                      $ 8 G ) 4.n.OXwXuXuXyXyXeXeXeXyXyXiXiXeX7X7X7X4X7XeXeXeXyXyXyXuXuXyX,X_.k.-.L n 3 +                       ",
"                  o . + 7 V I 4.y.}.wXuXuXuXyXeXeXeXyXuXiXiXyXeXqXqXqXeXeXeX7X7XyXyXyXeXyX2XoXn.-.I m 2 + .                     ",
"                  o   @ 7 V I 3.C.T.>XuXiXyXyXeXqXeXyXyXiXiXuXyXqX4X8XeXyX7X;X;XyXuXeX2X>X0X$XG.-.I m < $ .                     ",
"          o           + < M P &.r.J.$XyXyXyXyXeXqXeXeXyXuXuXyXeX7X7XqXeXyX6X7XqXyXyXyXeXwXwXXXV.;.I M 3 +           o           ",
"    o               . + < n P %.w.E.$XeXeXrXyXyXeXqXeXeXeXuXuXeXyXuXuXyXyXyXeXeXyXyXyXyXwX,XU.e.&.L c < +                       ",
"                      + 2 b H %.w.).>XeXeXyXyXuXqX8XeXyXyXyX5X;X=XyXyXeXeXeXqXeXeXuXuXyXwX{.Z.w.$.L c 2 + .         o       o   ",
"      o               . , c H %.9.E.,XtXyXeX=XyXeXqXyXyXyXuXqX7XeXeXyXeXeXqXqXeXyXyXyXuXtX[.C.0.$.G c , .                       ",
"                      . @ w G ` 5.Z.oXwXrX-X X=XyXyXuXuXyXuXuXqX4X7XeX5XqXqXyXyXuXuXtXuX<XQ.b.6.) M 0 @ .                       ",
"        o       o     . @ 9 M ( 4.v.[.wXrX5X6XqXyXeXtXeXuXuXuXeX7XqXeXrXeXeXuXuXuXuXuXuX,XF.r.,.I m 3 #                   o     ",
"                      X # 3 N P ;.w.P.6XuXuXyXyXeXeXyXyXuXiXiXyXyXeXyXyXyXyXyXyXuXuXuXuX1XJ.w.=.L w , + .                       ",
"                        . < c C =.9.C.{.wXiXiXyXyXyXyXyXuXuXiXuXyXuXyXyXuXuXuXuXuXuXyX0X*XL.4.` V 8 1 X .                       ",
"                        . , 8 M ` 4.e.F.*XuXiXuXuXuX0XwXuXuXpXpXuXuXuXiXuXyXyXuXyX&XOX{.`.h.-.I M < @ .                         ",
"                        . + , b K &.9.V.+XuXuXtX=XeX=X>XuXuXuXpXuXuXiXuXuXqX0X<X=XQ.F.G.k.=.( V 8 , @   .                   O   ",
"                          . @ 8 V ( -.w.T.<XqX6X{.*XoX=XeXyXuXpXuXuXyX0XqX-X$X=XOXC.e.5.=.I Z c , + .                           ",
"                          . . 3 n K ` 3.j.[.$X+X{.}.}.+X=XrXeXuXiX9X$X$X$X).E.[.I.0.3.%.I B c y @ + .                   o       ",
"                          . % # 0 M L ` >.9.k.z.z.H.L.T.|.(.(.oX9X`.J.J.G.m.k.q.3.%.( C N q 4 $ .     .                         ",
"                            . # , 9 v K I $.=.:.2.8.7.h.z.N.M.K.].~.c.z.x.7.2...I U G c 0 1 # +       o   o               o     ",
"      o                       X . , 7 c V J U / {  ...u.s.d.f.g.!.c.f.i.+. .| / S D q y & + .   o         o                 o   ",
"                                . # , 3 q c A S W E [ | +.@.@.a.i.i.u.o.| ^ W Y p 5 5 & # . o                                   ",
"                                  . . + 1 4 5 6 p p D ! ^ [ [ O.O.X.[ ^ Q k g t r & # o     o   o                 o             ",
"o                                 o o . # o # & * r u g z Q ~ ~ ~ ~ ~ x j a e - % + o     o o       .                           ",
"          O                             . o o O % - i i a g f j z j j s a e ; = o . o                               o           ",
"            o                             o . O o % - : > a a s a a a a : ; = o . o . o         o           o                   ",
"                    o                   .   . o o o O % = - ; : > : : - = = O o o                       o                       ",
"                                                  . . o o o O % % O O O o o o .                     o                           ",
"                                            o         o o . o o o o O > o o                                 o                   ",
"    o -                                           .   . . . . . o o o % o   o o .                                     o         ",
"                                o                   .   o       o   . o   . O .               O             o                   ",
"                                                        . .         .     .                                   O                 ",
"                        o                               .     o       o                           o           o   o             ",
"                                                  o               o         o                     o             o       o       ",
"                                                                          o                                                   O ",
"                                                                          o     O                                               ",
"              o                                                                                                               o ",
"                                                                                  o                           o                 ",
"                                                                                                          o                     ",
"                        o                                                               o                                       ",
"                                      o                                               o o                                       ",
"                                                                                                    o                           ",
"                                                                                        o o O                                   "
};
