/* XPM */
static char *result[] = {
/* columns rows colors chars-per-pixel */
"64 64 227 2 ",
"   c #010101",
".  c #0A0504",
"X  c #0D0806",
"o  c #0A0708",
"O  c #0C0A0A",
"+  c #130604",
"@  c #1A0604",
"#  c #130805",
"$  c #1C0A04",
"%  c #110D0D",
"&  c #1B0D0A",
"*  c #130F10",
"=  c #151213",
"-  c #1A1515",
";  c #1C1719",
":  c #1E191A",
">  c #1B1917",
",  c #1E100C",
"<  c #240D05",
"1  c #2B0E05",
"2  c #240D08",
"3  c #280D09",
"4  c #2C1205",
"5  c #2D150A",
"6  c #271109",
"7  c #341605",
"8  c #3D1B06",
"9  c #341508",
"0  c #3B1B09",
"q  c #361708",
"w  c #221D1D",
"e  c #2A1914",
"r  c #321F15",
"t  c #27211E",
"y  c #39231C",
"u  c #241F21",
"i  c #252122",
"p  c #2A2526",
"a  c #2E292B",
"s  c #2D2729",
"d  c #332C2D",
"f  c #382824",
"g  c #382F31",
"h  c #363032",
"j  c #3A3334",
"k  c #3D3638",
"l  c #3F393B",
"z  c #431E06",
"x  c #421D08",
"c  c #442106",
"v  c #44230A",
"b  c #4B250B",
"n  c #4E2909",
"m  c #4C2206",
"M  c #542C0D",
"N  c #5A2F0C",
"B  c #522A07",
"V  c #5C330D",
"C  c #492915",
"Z  c #552E10",
"A  c #593417",
"S  c #653B12",
"D  c #6B3D12",
"F  c #613610",
"G  c #6A3C13",
"H  c #482E24",
"J  c #46312D",
"K  c #55382B",
"L  c #433B3D",
"P  c #4A3B3A",
"I  c #5F3F30",
"U  c #643C23",
"Y  c #6E4315",
"T  c #6C431C",
"R  c #74441A",
"E  c #76491C",
"W  c #774818",
"Q  c #5D4134",
"!  c #764D28",
"~  c #7D5326",
"^  c #68483B",
"/  c #6F492D",
"(  c #463F41",
")  c #4B4345",
"_  c #4E4649",
"`  c #474040",
"'  c #534544",
"]  c #544A4D",
"[  c #57494A",
"{  c #594E51",
"}  c #5C5254",
"|  c #575052",
" . c #624E4B",
".. c #6D524D",
"X. c #7B5948",
"o. c #665859",
"O. c #745B58",
"+. c #6A5D62",
"@. c #726263",
"#. c #796869",
"$. c #7D6F71",
"%. c #83521D",
"&. c #814C1D",
"*. c #8D5D2D",
"=. c #875725",
"-. c #945D21",
";. c #835D37",
":. c #95632D",
">. c #976426",
",. c #99693A",
"<. c #966935",
"1. c #A37138",
"2. c #AC793B",
"3. c #AB7537",
"4. c #A1702F",
"5. c #9A6944",
"6. c #886559",
"7. c #926B54",
"8. c #906F5D",
"9. c #9B7058",
"0. c #8F6241",
"q. c #B27C4A",
"w. c #A77C59",
"e. c #AD7948",
"r. c #876A66",
"t. c #98736C",
"y. c #8A7576",
"u. c #9A7B74",
"i. c #957976",
"p. c #A47B69",
"a. c #B9844D",
"s. c #AE8455",
"d. c #BB8B5B",
"f. c #B78957",
"g. c #9F817A",
"h. c #B48866",
"j. c #AB877B",
"k. c #BD9272",
"l. c #B48B6D",
"z. c #C5965A",
"x. c #C48D4E",
"c. c #C89969",
"v. c #C59A77",
"b. c #CEA16C",
"n. c #CBA47A",
"m. c #D4A877",
"M. c #DBB37A",
"N. c #D6A56C",
"B. c #8B7B80",
"V. c #988485",
"C. c #B38E82",
"Z. c #B89688",
"A. c #AA9699",
"S. c #A68983",
"D. c #BEA099",
"F. c #B49EA2",
"G. c #BEA6A7",
"H. c #C79D82",
"J. c #DBB383",
"K. c #DDB888",
"L. c #CBA993",
"P. c #DCB697",
"I. c #D4AB8E",
"U. c #E5BB89",
"Y. c #E5BC93",
"T. c #D1B7B7",
"R. c #CFB3AD",
"E. c #E0BEAF",
"W. c #E5C48E",
"Q. c #F3D985",
"!. c #EBCD9C",
"~. c #E7C695",
"^. c #F2DA9C",
"/. c #EDD09F",
"(. c #F5E499",
"). c #EEE28F",
"_. c #E8C9A6",
"`. c #ECD6A7",
"'. c #F3DBAC",
"]. c #F2D7A6",
"[. c #EDD3B3",
"{. c #F2DDB3",
"}. c #F2D8B5",
"|. c #ECC8AE",
" X c #F4E3A4",
".X c #F3E3AD",
"XX c #F5EBAD",
"oX c #F6EBA4",
"OX c #F3E4B3",
"+X c #F4EAB3",
"@X c #F9EEB2",
"#X c #F4E4BB",
"$X c #F5ECBC",
"%X c #F9EAB8",
"&X c #F6F2BD",
"*X c #FAF4BB",
"=X c #FAF3B6",
"-X c #F3E9B1",
";X c #D4BFC4",
":X c #DAC1C4",
">X c #E9D2CF",
",X c #F5EBC5",
"<X c #F9EBC6",
"1X c #F5ECCD",
"2X c #F9EFCE",
"3X c #F5E6C3",
"4X c #F6F3C5",
"5X c #FAF4C3",
"6X c #FCFAC5",
"7X c #F7F3CC",
"8X c #FAF5CC",
"9X c #FCFACB",
"0X c #F7F8CC",
"qX c #F6EED7",
"wX c #F7F3D4",
"eX c #FAF5D4",
"rX c #FCFBD4",
"tX c #FBF6D9",
"yX c #FCFBDC",
"uX c #F7F8D6",
"iX c #EFDBE1",
"pX c #F7E9E8",
"aX c #FDFCE3",
"sX c #FEFCEA",
"dX c #FBF5E7",
"fX c #FDFDF4",
"gX c #FDF8F4",
/* pixels */
"  o                               .       o O o O O O * * O O O o * o o     o   o                     o                 o   o   ",
"                                  o o . o O O % % * = - : ; - = * o o o o   o                                                 o ",
"                                o     o o O * * ; : u u u u u : - = * o o o o               o                         o         ",
"                                    o O O % ; : u p a a a a a p u ; - % o O O                   o       o     o       o       o ",
"                                o   o O % > w i a h k l l l l j d p u w * O o . o                                             o ",
"                                  o O O - w p h ( ( ( ( _ _ _ ( L g s u : * O o o                                         o     ",
"                            .     o o = : p h k ] _ ] | | | | ] ( L g s w = O o O o                                             ",
"                            .   o O % : i a k ) ] } +.+.$.+.#.B.r.( P g s w : O O   . o               O           o             ",
"                          .   . o O = : s j L ] o.+.@.B.F.i.r.#.O. .[ ( J y w & # . . . .                                       ",
"                            O O O O - u g L ' o.+.$.$.A.;XF.S.i.r.6.6.^ I K C q 5 @ # .         o                     o O o     ",
"                          . o   o % - p j Q { O.r.y.i.R.iXR.H.j.p.9.6.7.7./ A C 0 6 $ + .                             o o   o   ",
"                            . o X , w d P  .O.r.u.S.C.T.iX>XT.P.H.H.v.I.L.h.! Y Z v q 4 $ + .                               o   ",
"                            . o # e r J ' X.r.p.l.H.L.>XgXdXeX#X|.|._.P.P.v.1.~ Y V B c 7 $ # o X                 O             ",
"                          . . X , e H K X.8.l.H.|.[.}.pXfXsXaXaX<X<X<X}.`.Y.c.4.-.~ Y V n q 3 @ . .     o       o               ",
"                          . . @ 5 C A X.7.h.Y._.<X<XeXdXfXsXaXaXaXaXyX2X2X#X~.x.4.>.%.W V n 0 $ + .                       o   o ",
"                        . X @ 5 C F U w.h.Y.[.2XaXsXsXfXfXaXaXaXsXsXsXsXwX1X'.`.K.b.2.%.W V n q $ . .       o     O             ",
"                        + @ 1 z V E 5.v.K.|.'.2XsXsXyXsXfXaXaXaXaXaXsXsXtX7X#X.X{.{.!.2.-.W S c 9 + .                 o         ",
"                        @ 1 x N R *.f.n.K.{.#XwXaX0XrXsXfXaXaXaXaXaXaXaXaX&X,X#X+X`.#XM.2.=.E Z 8 $ . .                 o       ",
"                .     # 2 7 z R %.f.J.!.].5XeXyXeX+XeXsXfXaXsXaXyXyXyXyXyX9XuX%XOX,XwX{.m.1.%.S c 2 @ . o     o                 ",
"                    . @ 9 z V W 1.U..X6XrXyXsXyXaXrXaXsXfXsXsXaXrXrXrXyXyXuX7X XuXuXeX9X!.z.>.Y B 7 $ +                         ",
"                    . @ q n V s.m.'.OX6XyXtX%XXXrXrXyXaXfXsXyXrXrXrX6XrX9X@XrXrXuX X8XyXK.M.a.=.V 8 1 @                         ",
"                    . @ 0 n Y n.].*X5XrXyX8X(.8X9X9XrXrXfXaX9X9XrXrX9X6XrX&X9XtXeXQ.4XqXW.U.d.<.D c 4 +                   o     ",
"                    . $ q Z Y n.'.&X%X8XyXyXyXyX9XyXrXyXfXsXrX9X9X9X9X9XrXyXyXaXtXoX5XqX,XW.z.:.D c 7 @ X                       ",
"                    . $ q Z Y d.J.'.%X4X4XrXrXyXyXyXaXyXfXsXrX9X9X6X6X*X9XrXyX0XrX6XeXaX8X`.U.1.Y M 7 $ .                       ",
"                    . @ 7 M Y :.b.'.5XrXeXrXyXyXaXaXaXaXfXsXrX9X9X6X6X=XrXrXrXrX9X9XrXeX5X@X~.3.W B z @ .                       ",
"                  .   @ 5 n ;.f.v.'.#XyXtXrXyXyXaXfXfXaXsXaXrXrX9X=XoX6X&X=X9XrX(.&X9XeX$X~.W.a.=.N z < +                 o     ",
"                    . @ r / ! l.b.!.%X2XtXrXrXyXaXfXfXaXsXsXrXyXyX6X@X=X*X(.=X=X).5X9XrX0XW.M.a.:.N c < +                       ",
"                    . + < C T s.d.!.`.,XtX+X+XeX0XaXaX0XaXsXrXrX9X*X=X=X*XoXoXoX5XrXrXeXuX,X.XJ.=.F c 1 @                       ",
"                  .   + 1 b ! s.f.`.3X#X,X.X^.8X7XyXyXyXaXfXrX0X5XrXrXyX6X*X*X9XyXsXtXeX8X`.!.c.&.N z 1 + .                     ",
"                    . + 6 Z ! :.f.!.eXtX8X8X$X5X7XuXyXyXaXfXrX9X8X6X6XyXrX5X(.9XaXaX8X X,X^.N.3.! N z 3 . .                 o   ",
"                    X + 4 A ~ ~ f.!.2XsXyXyXyXeXeX&X9XuXaXsX4X*X@X5X9XrX5XoXQ.9XaXaX4X+XrX'.z.4.E M 8 2 +       O               ",
"                    . . 2 v X.~ b.M.}.3X^.rXrX8X9X4X0XyXyXsXrX0XrXaXyXrX9X9X9XyXaXyXaX8XrX/.x.-.D b 7 @ .                       ",
"                      . $ 8 M ~ s.m./.}.'.5XrX8X7XrXuXyXaXsXfX0XrX&X9X8X(.9X6X9XrXyXyX,X1XM.3.-.F z 7 @ .                       ",
"      O             . X # 7 n D =.z. X.XaXaXrX8XrXXXoX6XaXfXfXuXyXyXyX8X.XyXXX(.+X<XeXtX#Xm.e.&.N 8 < .                         ",
"                        + 1 z V %.2.M.XXyXaXyXyXyXXX(.-XyXfXfXdXaXaX&X8XyXaX$X X8XeXyXeX].m.q.R M 7 < . .                       ",
"                        . < q M W >.2.M.8XyXaXaXaX6X6XuXsXfXfXaXtXyX.X8XaXyXtXyXaXtX{.U.c.l.5.A c 2 @                           ",
"                        . @ < c F %.>.z.[.<XyXyXaXyXyXrXdXsXgXsX1X8X8XyXyXyXeX#X5X!.N.a.s.<.T n 4 $ +                       O   ",
"                          + @ 7 B D &.e.Y.'..X%X9X#X'.OXaXtXpXqX1X2XtXaXyXwXOX.X].c.q.e.=.S M 8 2 . . .                         ",
"                          . @ 6 z V D :.m.].]./.].~.U.'.tXdXdXpXqXqXeXeX<X{.!.!.J.q.,.=.S n 8 6 @   .                           ",
"                            % # 1 c N R *.q.d.d.M.Y._.~._.[.1XgXdX3X|._.Y.I.c.d.5.*.R F m 7 < @ .                               ",
"                              + < 4 z B G ! =.5.f.v.k.I.P.I.E.qXdXE.P.v.c.w.9.0.&.U A x 7 $ # .           o                     ",
"                              . X @ < 7 c A U ^ X.6.r.L.Z.C.S.:XpX:XD.u.t.6.6.I I H y e , X . .       o                         ",
"                                . + @ < r y H K ^ ..O.u.i.g.g.G.iX;XA.t.r.O...P J y e & X . o                                   ",
"                                  . . X @ e r f P '  .O.@.r.y.g.;XR.V.r.O. .[ P f u ; * o o                       o             ",
"                                  o o o % % 6 p d P ) { +.@.#.#.A.A.$.+.} _ L g s w = O o o .                                   ",
"          O                         .   . % % w p g ( _ ] } } +.#.$.+.} ] ( ( h u - % O o   .                     o             ",
"                                        . O X > u d j L ) ] | } } | | ] ( ( j s u = O O o   o   .                               ",
"                                        . O O O = u s j L ( ) _ _ _ ( ( ( h a u = O O o .     o                       o         ",
"                                            o O % - w p d j k l l l k h d p t > = o o o .                                       ",
"                                          . o o O % > : u p a d h d d l s : = = o o . .                                         ",
"      =                                   .   o o O % = : u u p i p p a : - > O o o o     . .                                   ",
"      o                                     o   o o o O = = = > : : : - = O - O o o   .       o           o                     ",
"                                                .     o O O o O O O % O O o o o   o                           O                 ",
"                                                  o . o o o o o O O O O o o   .     .                                           ",
"                                                  O   o     o o o O o o o                                       o               ",
"                                                    o     o .     o       O o . o .                                             ",
"                                                            . .   .   .   o   o o                                               ",
"                                                                o   .             o                                           o ",
"                                                                    .                                                           ",
"                                                                                                                                ",
"                                                                                                                                ",
"                                                                                        o                                       ",
"                                                                                                                                ",
"                                                                                        O O o         o                         "
};
