/* XPM */
static char *e12771039f554d61ab388ebbf126404f4HfroVv9ASnArugw[] = {
/* columns rows colors chars-per-pixel */
"64 64 133 2 ",
"   c #000000",
".  c #070709",
"X  c #0B0B0B",
"o  c #0F0F11",
"O  c #100F11",
"+  c #131314",
"@  c #16151A",
"#  c #18171C",
"$  c #17191B",
"%  c #1A191D",
"&  c #1D1C21",
"*  c #201F24",
"=  c #1D2125",
"-  c #222126",
";  c #242429",
":  c #28272C",
">  c #25292C",
",  c #2A2A2E",
"<  c #272A31",
"1  c #2D2D32",
"2  c #302F34",
"3  c #2E3235",
"4  c #2F3239",
"5  c #323236",
"6  c #35363A",
"7  c #38373C",
"8  c #36393D",
"9  c #393A3D",
"0  c #373A40",
"q  c #3B3D43",
"w  c #403F44",
"e  c #3D4145",
"r  c #3E4148",
"t  c #414146",
"y  c #43454B",
"u  c #45494D",
"i  c #494B4E",
"p  c #474A51",
"a  c #4A4D54",
"s  c #504F54",
"d  c #4E5156",
"f  c #4F5259",
"g  c #525154",
"h  c #52555B",
"j  c #58575C",
"k  c #55585E",
"l  c #595A5D",
"z  c #575A61",
"x  c #5A5D64",
"c  c #5D6067",
"v  c #5F6269",
"b  c #62656C",
"n  c #65686F",
"m  c #6B6B6D",
"M  c #656670",
"N  c #666970",
"B  c #6A6D74",
"V  c #6F6D78",
"C  c #6D7077",
"Z  c #6E7279",
"A  c #72757C",
"S  c #75787F",
"D  c #707781",
"F  c #767A81",
"G  c #7A7D84",
"H  c #7C7F89",
"J  c #7C8087",
"K  c #7D8189",
"L  c #7F8289",
"P  c #7D848E",
"I  c #7E828A",
"U  c #848687",
"Y  c #828789",
"T  c #81848B",
"R  c #80828D",
"E  c #83848C",
"W  c #83868D",
"Q  c #80858F",
"!  c #84878E",
"~  c #82858C",
"^  c #85888E",
"/  c #84888F",
"(  c #808690",
")  c #848793",
"_  c #858793",
"`  c #858692",
"'  c #868990",
"]  c #848B95",
"[  c #878A95",
"{  c #868A91",
"}  c #888B92",
"|  c #898C93",
" . c #898B97",
".. c #8A8D94",
"X. c #8B8E95",
"o. c #8B8E96",
"O. c #8A8D94",
"+. c #8B8D99",
"@. c #8D8F9B",
"#. c #8C8E9A",
"$. c #8D9093",
"%. c #8C9094",
"&. c #8E9295",
"*. c #8D9097",
"=. c #8D9097",
"-. c #8A919B",
";. c #8E9198",
":. c #8F9299",
">. c #8D909A",
",. c #8D949E",
"<. c #8D9299",
"1. c #91949B",
"2. c #91959D",
"3. c #92969E",
"4. c #91949C",
"5. c #93999F",
"6. c #9294A1",
"7. c #9297A2",
"8. c #9295A0",
"9. c #9298A2",
"0. c #9299A3",
"q. c #9799A2",
"w. c #939AA4",
"e. c #9499A5",
"r. c #9699A4",
"t. c #979CA7",
"y. c #969DA7",
"u. c #959BA2",
"i. c #9A9DA4",
"p. c #999CA6",
"a. c #9B9DA8",
"s. c #9B9DA9",
"d. c #9B9DA9",
/* pixels */
"                                                                                                                                ",
"                                                                                                                                ",
"                                                . o % ; 1 6 6 6 6 2 : & + X .                                                   ",
"                                        . + ; w j x b b n v c x j j g s i t 6 , + X                                             ",
"                                      X 7 l m V B N M N M v N b j j s j a y y t 6 ; + .                                         ",
"                                  % z S S A A A A A N b v b b x h h k d h a y e 0 5 , & o .                                     ",
"                              - d S F G G G G A S F B N x b b x f a z a a a u e 9 5 1 & $ $ +                                   ",
"                          . 0 F H H G S G H F F Y G B B n N n c z k z h f a y e 8 1 , & $ $ $ $ X                               ",
"                        $ d R  .+.@.O.} O.| ! ! E L G F F A Z B N b v x k h a y q 6 1 - % $ $ $ $ X                             ",
"                      1 E q.y.r.6.9.3.:.%.O.{ ! Y L G G F A C B n b x z h f a u t 9 1 - % % % % % $ + .                         ",
"                    $ ^ a.a.y.w.w.9.3.1.:.O.{ Y L J F G S A B B b b v z k h a y q 6 , - % % % % % % $ +                         ",
"                  , Y i.r.6.,.-.[ P L H G A B A B N N B b B v z h f h d a y q 0 8 5 ; & % % % % % $ $ $ +                       ",
"                - U %.:._ _ ( P D Z F A A N B A b x x b v N z h a f h a p q 0 8 5 1 ; & # % % # # $ $ $ $ + .                   ",
"              X b $.%.O.:.[ E G Z F S A B N B B x z z v z N z d p a a p y q 8 6 1 , - & % % % # # $ $ # # @ O                   ",
"            . h ,.O.} G E J H A A G F A A B A B v v c x k b k a a a a u e q 3 3 1 ; * & % % & % # # # # @ $ + X                 ",
"            e { -.) G G F G E L ! H F F L G F A Z Z b h k a y q y u u y e 6 3 3 1 & % % % % % % # # # # @ $ @ + X               ",
"          X A L P P L T F F E E ^ G F G L G S Z B Z b z u 1 < 1 0 q y p u 8 6 3 , & # # # # # % % % # # # $ $ $ +               ",
"          i ! R P G J G S F E { E J F H G F A C B B z 8 > > < 4 8 r y u u i 8 3 ; % # # # # # % % % # # # $ $ $ $ X             ",
"        + T Y T L G F F F L E | L F G L F A A Z Z B q & * - ; 3 8 u y a a a u 4 - % % # @ @ % % % % @ @ @ @ @ # # @             ",
"      . w E ! ! T J F G G E T Y F A S F Z Z C B B v > & & - ; 1 8 u i h h a d r & % % # # # % % % % @ @ @ @ @ # # @ X           ",
"      - S } { O.O.T F H G H F F A Z Z n n N b b v p & & & & - , 8 u d j f h h h ; % % % % # % % % % % % @ @ @ @ @ @ +           ",
"      i ! O.{ 1.{ F S F S S F F A Z B b n B b b c r = - & - & - 6 i h k z b b v < & % % % # # # # % % % @ @ @ @ @ @ + .         ",
"    X B E :.! 1.^ S A F F S A A A Z N b b B b b v r > ; - ; - ; 3 h k k v b z x 5 % % & % % % # # % % % @ @ @ @ @ @ @ X         ",
"    & G E o.{ { ^ S S F F S S A Z A B N N N v v c p < 3 3 6 1 6 y h k z v b c x < & & & % % & % % % % % # @ @ @ @ @ $ + .       ",
"    9 G _ 3.:.^ O.G G F S S S S S Z N N B N x v x h 4 3 6 q q e a h l j z z z h - & & & % % & & % % % % # @ @ @ @ @ $ $ X       ",
"    g H E :.^ F Y L E J A G F A B B B Z B n z x x k r 6 q e e u d h h k z x b u - & % & % % % % % % % % # # @ @ @ @ $ $ X       ",
"  X b T ! E L F L G L { A F F A B N B C N n x z z f a e q q e u d h h d h k a ; & & % & % % % % % % # # # # @ @ @ @ $ $ +       ",
"  + A E _ P I F K F E ! Z A G F A N B Z B B b x x h f d e r e y i a d d k i ; & % & % & & % @ # # # # # # # @ @ # # # @ +       ",
"  % F L _ ) E G L F E A B S S A C B B Z Z B n z z h a a a y y u d a d u q = = % % & % & & % @ # # # # # # # @ @ # # # # # .     ",
"  ; J P _ { W I E L Y F F J G F A Z A A A N v c z h h h z a p a e 8 e 3 > = & = - * & & & % % % % % % % % % % # @ # % % # .     ",
"  6 5.i.a.y.9.5.3.:.%.O.{ ^ E T L G F S Z C B N b c z k b h z u e 8 6 ; ; = = = - * & & * & & & & & & & % % % % % % % % % X     ",
"  9 :.6.6.,.:.O.O.{ ^ E Y L H F F A A Z B B n b c x z k z d d a y 6 9 1 , - - - - & & & & & & & & & & & % & % % % % % % % X     ",
"  6 Y { ( E I J J F F S A A Z B B N b b c x z k h a d i c d h j i 9 - - * - * & & & & & & % % & & & % % & % % # % % $ $ $ X     ",
"  9 1.3.6.:.-.-.O.} { ! Y L L G F A A B N N b c x z h d a u u 9 1 ; - - - - - - - - - * & & & & & & & & & & & & & & % $ % X     ",
"  5 O.:.@.-.O.W { W ! L G G F S A A B N N n b c x k f a u y q 6 1 ; - - - - - - - - * & & & & & & & & & & % & & & & $ $ % X     ",
"  & J { H E G C F A S B b b b b v v z f z k h d d a p e e q 3 , - & & * & & & % % % % & * & & & & & & % % % % % # # % $ $ .     ",
"  + S { J Y H A G A A B v v b v x x h f k h f y r q r q q 8 1 ; & & & & & & & & % % % & * & & & & & & % % % % # # # % % @ .     ",
"  X b ^ G H F A G Z C B v c b c x z h a h f a y e q q 8 8 6 > & & & & & & & & % % % % & & & & & % & & % % & % % # # @ @ @       ",
"    d T G F S N C B N N x x b x z k h a a a u q q 0 0 3 6 3 ; & % % & & & & & % % % % & & & % % % & & % % & % # # # @ @ +       ",
"    t F A G B b b N n N x x b c z z h a d a u q q 0 8 3 3 1 = & % % & & & & & % % % % % & & % % % & & % % % % % # # @ @ o       ",
"    ; B B A Z N B N b N N b n c x z x x k f a u y e 3 1 , - - & & & & & & & % % % % % & % # # # % % % % # # # % % % $ $ X       ",
"    X b V B N b b v v c N b n x z z x z h a p y e e 3 , - * * % & & - - - & % % % % % & % # # % & % % % # # # % % % $ + .       ",
"      i V N n b b c v x x v N v z k z k h a u e 9 8 1 ; - & * & & & * - * & % % % % % % % # # % & & % @ @ @ @ # & % + X         ",
"      ; n n N b v x x z x v b v z h h h a p y e 9 6 , ; * & * & & & * - * & % % % % % % % # % & & & % @ @ @ @ # & % + .         ",
"      X t n n n n v z z x c x z h a a a u y t q 9 5 ; * & & - & & & * * & & % & & & % & % % % % % & % % # @ @ @ % $ +           ",
"        - b N b N b z z z z h h f p y y w q q 7 5 1 ; & & - - & & & & & & & & & - & & & % % % % % & & % # @ @ @ # $ X           ",
"          a n v n b z h f f d a a u y t 9 7 6 2 , ; - & - * - * & & & & & & & - & & % % & & % % % % % % # @ @ # % @             ",
"          $ k v v v x d f a a p p u t q 6 6 5 1 ; - & & - - - - & & & & & & & - & & % % & & % & & & % # # # # % % X             ",
"            e z b b z k d a a u u y t q 6 5 1 , ; * & & - - - * & & & & & & & - & & % % & & % & & % % # # # % % +               ",
"            + a l x k h d d a u u y q 9 6 1 , - * * * & & & & & & & & & & & & * & & % % % & & % % # # # # % % @ .               ",
"              $ i h h a d a i u y e 9 6 5 1 : - & * & & * & & & % % & * & & & & & & % % % & % % # # # # # % # X                 ",
"                , d d a i u u u e e 9 6 1 , ; - & * & & * & & & % # % & & & & & & & % % % % % # # # # % % % +                   ",
"                  5 d d i u y e 8 6 6 1 ; ; ; ; - * & & * & & & % # % & & & & & & & % % % % % # # # # % % o                     ",
"                  . ; g i i i y w 9 5 , ; ; ; ; - - - - - - - - - * * - * * & & & & & & & & & & & % % % +                       ",
"                    . , u u y t q 9 2 , ; ; ; ; ; ; ; ; ; - - - ; - - * * * & & & & & & & & & & & % % +                         ",
"                        % 6 q 9 6 1 , ; ; ; ; ; ; - ; ; ; - ; - ; - - * - - & & & & & * & & & & & $ X                           ",
"                          X , 2 , ; ; ; - - - ; - - - - - - - - ; - * & * * & & & & & & & & % & % .                             ",
"                            . $ - ; - * & & & & & * & & & & - & & & & & & & & & & & & & % % % O .                               ",
"                                . + & * & & & & & * & % & & * & & & & & & & & & & & % & % + .                                   ",
"                                    . + & & & & & & & & & & & & & & & & & & & & & & % + .                                       ",
"                                        X + % & - - * * * & & & & & & & & & & % $ o X                                           ",
"                                              . X + @ $ % % % % % % $ @ + + X .                                                 ",
"                                                          . . . . .                                                             ",
"                                                                                                                                "
};
