/* XPM */
static char *result[] = {
/* columns rows colors chars-per-pixel */
"64 64 149 2 ",
"   c #000000",
".  c #030609",
"X  c #04080B",
"o  c #0D0D0D",
"O  c #11100F",
"+  c #0F0F10",
"@  c #100F10",
"#  c #071017",
"$  c #061219",
"%  c #09151C",
"&  c #131313",
"*  c #181717",
"=  c #1D1D1C",
"-  c #20201F",
";  c #0A1E29",
":  c #0A1A25",
">  c #1F1E20",
",  c #131C23",
"<  c #10222E",
"1  c #0C2533",
"2  c #102231",
"3  c #242323",
"4  c #292827",
"5  c #2C2B2B",
"6  c #27262A",
"7  c #333333",
"8  c #383736",
"9  c #3C3C3B",
"0  c #413E3E",
"q  c #41403F",
"w  c #112E40",
"e  c #13394F",
"r  c #173D52",
"t  c #203743",
"y  c #413F40",
"u  c #0F425D",
"i  c #1B4156",
"p  c #1C425A",
"a  c #11415B",
"s  c #22495E",
"d  c #28495C",
"f  c #22516B",
"g  c #454444",
"h  c #484646",
"j  c #494847",
"k  c #484749",
"l  c #4C4B4B",
"z  c #514F4E",
"x  c #51504F",
"c  c #545252",
"v  c #595757",
"b  c #595856",
"n  c #5C5B5A",
"m  c #615E5D",
"M  c #62605F",
"N  c #5A666F",
"B  c #656362",
"V  c #696766",
"C  c #6A6867",
"Z  c #6D6C6B",
"A  c #716F6E",
"S  c #71706F",
"D  c #6F6F72",
"F  c #726F70",
"G  c #6C777C",
"H  c #757372",
"J  c #787675",
"K  c #7A7877",
"L  c #7D7B7A",
"P  c #807F7D",
"I  c #82807F",
"U  c #2D6583",
"Y  c #356E8C",
"T  c #3F7994",
"R  c #397798",
"E  c #3A7A9B",
"W  c #487487",
"Q  c #47778F",
"!  c #3C83A4",
"~  c #54899F",
"^  c #7C8484",
"/  c #768A91",
"(  c #76919A",
")  c #4B8BA8",
"_  c #508AA3",
"`  c #5090AD",
"'  c #5295B2",
"]  c #589FBF",
"[  c #6F96A6",
"{  c #7197A5",
"}  c #7F97A2",
"|  c #749CAC",
" . c #7EA0AE",
".. c #6FA1B7",
"X. c #74A0B3",
"o. c #71A5B8",
"O. c #5CA2C1",
"+. c #61A7C2",
"@. c #858482",
"#. c #898785",
"$. c #8A8887",
"%. c #848B8E",
"&. c #8D8C8A",
"*. c #848288",
"=. c #908E8D",
"-. c #92908F",
";. c #8C8F92",
":. c #908F90",
">. c #899193",
",. c #949392",
"<. c #989795",
"1. c #9A9997",
"2. c #969599",
"3. c #93989A",
"4. c #9D9C9A",
"5. c #A09F9D",
"6. c #A2A09E",
"7. c #829AA2",
"8. c #9B9AA1",
"9. c #83A4AE",
"0. c #A5A4A2",
"q. c #A8A6A4",
"w. c #A9A8A6",
"e. c #A8A6A8",
"r. c #ADACAB",
"t. c #A4A3A9",
"y. c #B0AFAD",
"u. c #B2B0AE",
"i. c #B5B4B2",
"p. c #B8B7B5",
"a. c #BAB9B7",
"s. c #BDBCBA",
"d. c #B2B0BA",
"f. c #C0BFBD",
"g. c #C2C1BF",
"h. c #8DBFD1",
"j. c #8EC0D4",
"k. c #C5C4C2",
"l. c #C8C7C5",
"z. c #CAC9C7",
"x. c #CDCCCA",
"c. c #C7C5CA",
"v. c #D0CFCD",
"b. c #D2D1CE",
"n. c #D5D4D2",
"m. c #D8D7D5",
"M. c #DAD9D7",
"N. c #DCDBD9",
"B. c #E7E6E8",
/* pixels */
"                                                                                                                                ",
"                                                                                                                                ",
"                                                                                                                                ",
"                                                                                                                                ",
"                                                                                                                                ",
"                                                                                                                                ",
"                                                                                                                                ",
"                                                                                                                                ",
"                                                                                                                                ",
"                                                                                                                                ",
"                                                                                                                                ",
"                                                                                                                                ",
"                                      + = - - - 3 = > +               O & O o                                                   ",
"                                  + l D t.2.*.d.0.x.s.K O   = 9 g g 4 S P P 5 > c v 9 o                                         ",
"                                  7 ,.g B ,.&.x.y.N.0.r.j 5 %.H c V t l z z y #.B.B.n.8.v *                                     ",
"                                  7 2.$.w.5.-.6.H @.>.s.y.L u.z.x.,.m H -.P V =.f.f.g.i.e.1.v & .                               ",
"                                  7 @.m #.4.=.r.K $.<.6.n.Z z.N.M.f.z m P A x K 1.6.a.g.w.z.&.H 7 , 1 %                         ",
"                                  o 8 z S C c H m 1.u.4.4.y.<.g.r.&.z m A B m <.s.f.p.w.>.w.q.N.&.N Q T < .                     ",
"                                    X * 7 h n H g H x.5.=.f.I ,.r.,.m H #.P B P 6.a.p.0.w.0.s.N.2.Z G [ f :                     ",
"                                    . - Z &.H b n g $.<.6.I r.=.m.f.m Z P H V -.v.5.1.4.b.b.6.p.H 4.x.=.9.) $                   ",
"                                  O c #.@.H S f.-.b n y.$.<.s.-.g.r.c z v n S #.6.4.f.u.i.n.a.M 1.a.g.1.Z j.a .                 ",
"                            * 7 A P &.#.-.@.z.a.a.u.b b w.<.r.p.=.f.V l I V =.z.6.w.p.w.r.0.H r.g.u.w.i.4.^ _ s .               ",
"                        & 4 b P $.#.=.0.1.-.z.5.v.l.&.m &.5.0.i.<.f.A l S M $.s.,.w.w.r.5.#.0.m.p.a.k.p.q.L ( _ ;               ",
"                    & 7 H L P =.5.=.m #.#.&.I ,.f.a.6.-.x <.-.<.#.-.#.0 S m $.6.1.I 6.5.^ r.M.i.u.a.b.x.0.s.3.| f $             ",
"                o 5 B L P P ,.w.y.-.0 V #.@.5.5.1.=.5.w.S x -.-.y.,.&.7 P m 5.x.3.<.=.@.r.x.a.5.y.u.z.s.s.5.=./ Q 1             ",
"            & 9 @.-.L L #.z c ,.q.5.-.&.=.#.v.<.0.w.5.,.u.L V u.i.w.P 5 l 0 y.f.w.0.K 6.u.5.a.g.l.a.k.y.g.=.6.^ ' p .           ",
"          * Z &.P P =.I @.m m @.$.#.P P I <.z.5.w.a.l.0.6.<.c J 5.0.f.m P A #.5.<.C -.4.w.z.u.8 C u.y.s.0.i.w.,.o.Y #           ",
"          = Z H J P I J @.P L @.P P P P I 1.s.w.k.v.1.B n.1.&.v 5.f.5.A P P 5.&.C K 1.L x &.#.  9 q.0.a.6.y.4.&.o.R %           ",
"          3 @.I 1.5.5.4.4.-.H D H S A H J =.0.<.f.f.4.A p.$.u.<.q.5.J P 5.5.w.5.L ,.&.L o l 4.= x u.u.r.,.a.&.&.7.` t           ",
"          * g j m m m n n l B @.#.#.#.&.,.<.4.1.5.,.5.=.-.&.@.L P =.F y P ,.0.y.&.,.4.u.S 4.n.r.w.0.-.0.-.$.$.r.>.+.d           ",
"            o @ o @ o o o * &.i.,.-.,.,.:.:.:.:.=.=.:.-.<.4.4.I A m z = c A P P L ,.6.i.Z 6.x.I I 1.$.6.1.Z P $.%.O.p           ",
"                          o 4.p.#.&.v.b.a.5.#.#.#.#.#.#.-.<.w.$.8 5 <.&.z 4 Z &.g.<.,.K o j $.  O b $.K Z c #.y.;.O.i           ",
"                          o 0.a.$.$.g.s.x.f.N.N.N.N.z.m.g.p.u.I 8 4 =.$.z 4 Z =.g.1.,.J X j I . O b $.K Z c I u.>.] i           ",
"            o o o o o o o & =.w.&.&.&.$.$.I &.&.I I I $.I 6.6.I H M z = c S K I L ,.6.p.S 6.x.P I 1.$.6.1.Z I $./ ] i           ",
"          * g h n m m n n l B P P L P P I K $.#.I I -.,.,.I I J H =.A h H 1.0.u.&.,.6.u.S 4.n.r.r.6.-.6.-.$.$.u.-.] a           ",
"          3 @.I 4.4.4.4.5.=.J A Z S Z S &.,.-.<.6.6.g.i.$.J i.y.$.=.L J 0.0.w.5.L =.&.L o l 4.= x u.u.y.,.a.&.&.} ` 1           ",
"          - A H L P L &.5.5.0.q.6.-.I S &.$.-.z.s.g.p.6.f.a.6.y.s.1.<.Z @.$.5.&.C K <.L x &.#.  9 w.6.s.6.y.4.&...R :           ",
"          * C =.L P P H J B B #.&.&.S n 1.k.m.&.7 C r.g.6.f.-.p.N.x.H Z &.I -.1.<.C $.5.w.z.u.7 C u.r.s.6.i.w.1...Y $           ",
"            & 9 P =.J V #.z c ,.6.6.&.I w.m.x.x 5 - M y.1.g.i.r.b.s.4.8 b x r.k.r.6.K 0.u.6.a.g.g.a.g.u.g.-.6.^ ' p .           ",
"                o 7 M P P P =.q.f.,.q M 1.r.P 9 7 4 j M I y.i.f.-.r.u.8 K n 4.z.<.<.-.@.y.v.a.5.u.u.x.f.f.5.&./ E 1 .           ",
"                    * 7 S L @.=.6.-.m #.I 5.5.8 0 7 b M Z m.i.u.<.w.I g H b L 4.L H @.<.I u.N.i.f.f.g.f.0.f.3.X.f %             ",
"                        @ 5 b L =.I =.q.5.=.5.8 7 4 q m 6.N.m.g.u.s.Z j Z b K i.b 4 5 C 4.$.w.m.f.f.g.f.q.P ( _ ; .             ",
"                          . * 7 A P &.#.-.=.0.j 4 - M -.6.g.x.a.k.x.B k @.B L g.$.7 < 0 $.6.J r.f.q.q.f.5.W _ s X               ",
"                                  & v #.I P H A q P z.N.m.6.6.g.z.k.n l c l n @.6.&.0 z 4.b.a.M ,.f.f.<.P j.u X                 ",
"                                    . 4 A =.H v y.f.6.z.n.5.r.5.w.2.M S K H B 2.v.,.b I v.b.6.p.P 1.g.-. .! %                   ",
"                                        o - n #.,.u.z.u.I b.n.x.g.=.M H #.L B K w.v.g.u.r.6.s.N.5.V G >.U %                     ",
"                                            * q P -.f.f.$.g.f.u.g.#.x B F V v 2.b.N.g.w.-.w.w.N.6.N W Q 2                       ",
"                                                & 0 I 6.u.g.<.5.0.&.l n J Z c J 6.6.g.g.r.g.&.S 7 < ; %                         ",
"                                                  X x P y.5.u.y.i.1.v Z =.P n &.g.s.f.y.0.=.c &                                 ",
"                                                      o t J P P L Z 9 l c l g @.N.s.i.,.l &                                     ",
"                                                          o l n Z K 3 F L H 5 3 c x 8 o                                         ",
"                                                              o > = + & @ @ .                                                   ",
"                                                                                                                                ",
"                                                                                                                                ",
"                                                                                                                                ",
"                                                                                                                                ",
"                                                                                                                                ",
"                                                                                                                                ",
"                                                                                                                                ",
"                                                                                                                                ",
"                                                                                                                                ",
"                                                                                                                                ",
"                                                                                                                                ",
"                                                                                                                                "
};
