/* XPM */
static char *result[] = {
/* columns rows colors chars-per-pixel */
"64 64 149 2 ",
"   c #000000",
".  c #030609",
"X  c #04080B",
"o  c #0D0D0D",
"O  c #11100F",
"+  c #0F0F10",
"@  c #100F10",
"#  c #071017",
"$  c #061219",
"%  c #09151C",
"&  c #131313",
"*  c #181717",
"=  c #1D1D1C",
"-  c #20201F",
";  c #0A1E29",
":  c #0A1A25",
">  c #1F1E20",
",  c #131C23",
"<  c #10222E",
"1  c #0C2533",
"2  c #102231",
"3  c #242323",
"4  c #292827",
"5  c #2C2B2B",
"6  c #27262A",
"7  c #333333",
"8  c #383736",
"9  c #3C3C3B",
"0  c #413E3E",
"q  c #41403F",
"w  c #112E40",
"e  c #13394F",
"r  c #173D52",
"t  c #203743",
"y  c #413F40",
"u  c #0F425D",
"i  c #1B4156",
"p  c #1C425A",
"a  c #11415B",
"s  c #22495E",
"d  c #28495C",
"f  c #22516B",
"g  c #454444",
"h  c #484646",
"j  c #494847",
"k  c #484749",
"l  c #4C4B4B",
"z  c #514F4E",
"x  c #51504F",
"c  c #545252",
"v  c #595757",
"b  c #595856",
"n  c #5C5B5A",
"m  c #615E5D",
"M  c #62605F",
"N  c #5A666F",
"B  c #656362",
"V  c #696766",
"C  c #6A6867",
"Z  c #6D6C6B",
"A  c #716F6E",
"S  c #71706F",
"D  c #6F6F72",
"F  c #726F70",
"G  c #6C777C",
"H  c #757372",
"J  c #787675",
"K  c #7A7877",
"L  c #7D7B7A",
"P  c #807F7D",
"I  c #82807F",
"U  c #2D6583",
"Y  c #356E8C",
"T  c #3F7994",
"R  c #397798",
"E  c #3A7A9B",
"W  c #487487",
"Q  c #47778F",
"!  c #3C83A4",
"~  c #54899F",
"^  c #7C8484",
"/  c #768A91",
"(  c #76919A",
")  c #4B8BA8",
"_  c #508AA3",
"`  c #5090AD",
"'  c #5295B2",
"]  c #589FBF",
"[  c #6F96A6",
"{  c #7197A5",
"}  c #7F97A2",
"|  c #749CAC",
" . c #7EA0AE",
".. c #6FA1B7",
"X. c #74A0B3",
"o. c #71A5B8",
"O. c #5CA2C1",
"+. c #61A7C2",
"@. c #858482",
"#. c #898785",
"$. c #8A8887",
"%. c #848B8E",
"&. c #8D8C8A",
"*. c #848288",
"=. c #908E8D",
"-. c #92908F",
";. c #8C8F92",
":. c #908F90",
">. c #899193",
",. c #949392",
"<. c #989795",
"1. c #9A9997",
"2. c #969599",
"3. c #93989A",
"4. c #9D9C9A",
"5. c #A09F9D",
"6. c #A2A09E",
"7. c #829AA2",
"8. c #9B9AA1",
"9. c #83A4AE",
"0. c #A5A4A2",
"q. c #A8A6A4",
"w. c #A9A8A6",
"e. c #A8A6A8",
"r. c #ADACAB",
"t. c #A4A3A9",
"y. c #B0AFAD",
"u. c #B2B0AE",
"i. c #B5B4B2",
"p. c #B8B7B5",
"a. c #BAB9B7",
"s. c #BDBCBA",
"d. c #B2B0BA",
"f. c #C0BFBD",
"g. c #C2C1BF",
"h. c #8DBFD1",
"j. c #8EC0D4",
"k. c #C5C4C2",
"l. c #C8C7C5",
"z. c #CAC9C7",
"x. c #CDCCCA",
"c. c #C7C5CA",
"v. c #D0CFCD",
"b. c #D2D1CE",
"n. c #D5D4D2",
"m. c #D8D7D5",
"M. c #DAD9D7",
"N. c #DCDBD9",
"B. c #E7E6E8",
/* pixels */
"                                                                                                                                ",
"                                                                                                                                ",
"                                                                                                                                ",
"                                                                                                                                ",
"                                                                                                                                ",
"                                                    * = 3 *         & 3 = *                                                     ",
"                                                  & A A @.g o     O g I A Z &                                                   ",
"                                                  0 &.S I h o     + j I H =.0                                                   ",
"                                                o P P K 1.n +     o n 4.P P P o                                                 ",
"                                                5 =.P P 5.M o     + M 4.P P =.4                                                 ",
"                                              & M K I L 4.n o     o n 5.P =.P B &                                               ",
"                                              7 P V H =.5.n o     o n 5.J I J P 7                                               ",
"                                            O Z I #.H 6.4.n o     o n 4.@.@.$.P H O                                             ",
"                                            4 P P z M 6.-.l & o + & l &.P m z I P 4 .                                           ",
"                                          * m P -.c V 6.S V =.6.4.;.V J P m c =.I v *                                           ",
"                                          7 P =.w.,.#.q.S L r.f.i.i.@.A @.I ,.w.=.K 7                                           ",
"                                          Z &.0.a.6.=.q.S P &.I #.,.#.A I #.6.y.6.$.Z                                           ",
"                                        & P #.=.,.6.$.=.Z P &.&.$.,.#.A I =.6.-.-.@.I O     + 7 8 7 o                           ",
"                                      o v $.=.m q $.S ^ Z P $.g.v.,.#.Z P I -.0 M =.$.v . o 9 @.2.;.l                           ",
"                                      3 $.#.q.#.V L m Z A P &.a.b.:.#.P P P $.V I q.#.#.- & l m $.k D o                         ",
"                                    . A I =.<.@.1.w.1.=.$.I $.x.f.:.,.P I I =.&.$.1.=.#.Z 7 S @.r.B t.=                         ",
"                                    3 =.P =.=.5.r.m.l.@.<.K I f.1.=.<.$.1.1.#.I =.=.I H =.h Z 1.4.,.2.>                         ",
"                                  * n J F q.5.5.I x.m.,.,.$.&.N.$.:.5.0.a.z.v.6.P z.z.H H n c =.=.,.*.>                         ",
"                                  g #.v A h 9 9 8 x &.z.<.I =.N.$.:.<.<.q.5.<.5.,.5.p.f.b H H r.5.z.d.>                         ",
"                                & K ,.y.q 5 7 8 7 5 7 g.6.K I N.#.=.1.f.k.r.q.<.s.v.a.-.n h m K J r.0.3                         ",
"                              o 0 ,.i.g.L 3 4 7 4 - C l.4.I I M.#.=.,.f.v.a.q.=.a.z.u.b g H 1.&.@.N.c.-                         ",
"                              x @.a.l.0.l.M j b j C r.u.f.,.@.z.#.,.5.4.<.l.0.4.0.&.b n $.x.u.,.,.0.s.>                         ",
"                            O P 6.g.u.z.N.-.b M m r.g.6.i.,.$.n.#.=.=.A B 0.,.q.-.n n r.<.5.4.6.a.r.K o                         ",
"                            t y.u.#.@.n.n.w.6.A I 1.6.s.$.-.@.f.-.,.-.a.n.4.u.H x &.w.$.0.=.4.b.y.l +                           ",
"                          o J 4.f.f.b.6.6.k.N.m.u.f.f.s.H @.w.u.1.6.$.$.1.<.L c 1.4.1.<.P f.u.A L 5                             ",
"                          l L u.1.s.m.r.0.z.n.u.u.i.,.5.p.I 6.r.w.5.#.u.$.v V &.&.w.r.a.r.I ,.z.i.%.*                           ",
"                        o n L u.4.i.x.4.k.i.g.u.f.r.p.u.r.H I $.$.I K ,.b K i.-.,.i.p.,.=.,.g.N.c.J 9                           ",
"                        > Z K i.0.g.g.w.l.g.u.,.-.b.N.s.$.H S 8 8 S K w.<.0.u.u.#.<.&.k.M.r.r.N.v.z y                           ",
"                        * K Z 1.$.$.-.,.k.v.s.w.r.s.x.1.-.=.M 5 5 M =.5.f.q.w.-.-.f.p.y.f.<.#.f.,.V h                           ",
"                        & 6 9 v l x n M n B Z ^ u.4.H <.K S l >.<.l H K q.a.K &.#.F V c m m l l v 0 5                           ",
"                        & F l A M B K Z x l j q 8 9 C S K j = &.&.= g K S B 5 7 0 l z z A P m m F z H O                         ",
"                        O L x =.K S $.K x I S S K b &.I 6.H c x x x H 0.@.K l K A A #.x P #.S L ,.c P @                         ",
"                        O J l L C C L S x B b b b x I $.q.4.S 4 4 H 1.q.$.Z h n m m V m H L C Z P l J @                         ",
"                        . 5 h M x n B B n L K L 5.y.-.5.w.6.K Z Z K 0.w.4.$.r.0.$.&.=.S V M n x m y 7 o                         ",
"                          - ^ &.K 3.L ,.@.k.u.5.z.k.1.&.6.u.I =.=.^ u.4.&.<.k.z.6.a.z.#.,.P 3.K -.&.>                           ",
"                          c M.g.0.n.r.x.0.&.n L 1.w.<.C L =.L g.g.L =.L C ,.r.1.1.-.6.0.v.0.a.1.f.B.c                           ",
"                          c s.s.0.m.x.,.=.5 4 S <.6.C K -.-.-.<.<.-.,.-.J C 0.,.@.w.w.4.4.a.f.0.k.B.c                           ",
"                          8 i.f.a.k.l.x 9 = 7 @.-.K &.1.=.6.6.-.-.6.6.$.4.>.H =.6.w.p.s.<.i.i.a.k.v.9                           ",
"                          o ,.u.k.q.u.@.x 9 C <.$.6.4.L K u.p.K K p.u.L L 4.0.@.6.w.r.i.4.q.q.g.u.8.o                           ",
"                            l 0.r.-.w.x.4.%.4.I r.i.w.x o S Z X o Z S o z w.i.r.I 4.r.i.v.q.=.r.e.v                             ",
"                            & -.g.w.0.b.b.q.$.r.v.6.z.&.l 4.6.j j 6.4.l $.l.5.x.r.@.0.n.n.0.r.l.2.*                             ",
"                              c &.q.f.5.a.K q.N.a.a.u.I 4.n.v.$.$.x.n.4.$.u.a.a.N.0.J a.5.s.q.&.v                               ",
"                              & S M.N.p.m r.m.i.4.g.8 . = r.L .   I r.=   8 g.5.i.m.r.m p.N.N.H &                               ",
"                              . 7 6.e.H 4.g.p.u.y.k.Z 9 x w.I O O I w.x 9 C z.r.i.p.g.4.H <.&.7 .                               ",
"                                , N Z 4.p.u.a.a.u.a.u.0.i.0.1.b n 1.0.u.w.u.a.r.p.a.u.p.4.D N ,                                 ",
"                                ; W G z.s.r.k.b.z.k.y.0.u.=.$.$.$.$.-.u.0.r.l.z.b.k.w.s.z.G Q 1                                 ",
"                                % Q { -.4.i.p.x.s.u.s.a.u.6.6.K K 6.0.r.a.f.r.s.x.p.i.4.=.[ Q :                                 ",
"                                  2 U | C 4.e.0.s.g.6.6.,.-.<.Z Z <.=.,.5.6.k.f.0.q.5.Z | f 2                                   ",
"                                    : ! h.^ P s.4.=.p.r.a.$.Z c c Z $.s.r.p.=.4.s.P ^ j.) % o                                   ",
"                                      % u _ ( 3.&.6.w.5.&.$.I $.I I $.$.5.q.6.=.3.( _ a $                                       ",
"                                        X s _ X.( ^ ,.&.&.r.$.r.u.$.u.&.&.,.^ / | _ p .                                         ",
"                                          X ; f E ' o.X.} >.%.>.>.%.>.9.X...` E f ; .                                           ",
"                                              $ 1 a Y R ) ] ] ] O.O.+.` T Y i 1 $                                               ",
"                                                . . $ : w e i r i p d t % $ .                                                   ",
"                                                                                                                                ",
"                                                                                                                                ",
"                                                                                                                                ",
"                                                                                                                                ",
"                                                                                                                                "
};
