/* XPM */
static char *result[] = {
/* columns rows colors chars-per-pixel */
"64 64 149 2 ",
"   c #000000",
".  c #030609",
"X  c #04080B",
"o  c #0D0D0D",
"O  c #11100F",
"+  c #0F0F10",
"@  c #100F10",
"#  c #071017",
"$  c #061219",
"%  c #09151C",
"&  c #131313",
"*  c #181717",
"=  c #1D1D1C",
"-  c #20201F",
";  c #0A1E29",
":  c #0A1A25",
">  c #1F1E20",
",  c #131C23",
"<  c #10222E",
"1  c #0C2533",
"2  c #102231",
"3  c #242323",
"4  c #292827",
"5  c #2C2B2B",
"6  c #27262A",
"7  c #333333",
"8  c #383736",
"9  c #3C3C3B",
"0  c #413E3E",
"q  c #41403F",
"w  c #112E40",
"e  c #13394F",
"r  c #173D52",
"t  c #203743",
"y  c #413F40",
"u  c #0F425D",
"i  c #1B4156",
"p  c #1C425A",
"a  c #11415B",
"s  c #22495E",
"d  c #28495C",
"f  c #22516B",
"g  c #454444",
"h  c #484646",
"j  c #494847",
"k  c #484749",
"l  c #4C4B4B",
"z  c #514F4E",
"x  c #51504F",
"c  c #545252",
"v  c #595757",
"b  c #595856",
"n  c #5C5B5A",
"m  c #615E5D",
"M  c #62605F",
"N  c #5A666F",
"B  c #656362",
"V  c #696766",
"C  c #6A6867",
"Z  c #6D6C6B",
"A  c #716F6E",
"S  c #71706F",
"D  c #6F6F72",
"F  c #726F70",
"G  c #6C777C",
"H  c #757372",
"J  c #787675",
"K  c #7A7877",
"L  c #7D7B7A",
"P  c #807F7D",
"I  c #82807F",
"U  c #2D6583",
"Y  c #356E8C",
"T  c #3F7994",
"R  c #397798",
"E  c #3A7A9B",
"W  c #487487",
"Q  c #47778F",
"!  c #3C83A4",
"~  c #54899F",
"^  c #7C8484",
"/  c #768A91",
"(  c #76919A",
")  c #4B8BA8",
"_  c #508AA3",
"`  c #5090AD",
"'  c #5295B2",
"]  c #589FBF",
"[  c #6F96A6",
"{  c #7197A5",
"}  c #7F97A2",
"|  c #749CAC",
" . c #7EA0AE",
".. c #6FA1B7",
"X. c #74A0B3",
"o. c #71A5B8",
"O. c #5CA2C1",
"+. c #61A7C2",
"@. c #858482",
"#. c #898785",
"$. c #8A8887",
"%. c #848B8E",
"&. c #8D8C8A",
"*. c #848288",
"=. c #908E8D",
"-. c #92908F",
";. c #8C8F92",
":. c #908F90",
">. c #899193",
",. c #949392",
"<. c #989795",
"1. c #9A9997",
"2. c #969599",
"3. c #93989A",
"4. c #9D9C9A",
"5. c #A09F9D",
"6. c #A2A09E",
"7. c #829AA2",
"8. c #9B9AA1",
"9. c #83A4AE",
"0. c #A5A4A2",
"q. c #A8A6A4",
"w. c #A9A8A6",
"e. c #A8A6A8",
"r. c #ADACAB",
"t. c #A4A3A9",
"y. c #B0AFAD",
"u. c #B2B0AE",
"i. c #B5B4B2",
"p. c #B8B7B5",
"a. c #BAB9B7",
"s. c #BDBCBA",
"d. c #B2B0BA",
"f. c #C0BFBD",
"g. c #C2C1BF",
"h. c #8DBFD1",
"j. c #8EC0D4",
"k. c #C5C4C2",
"l. c #C8C7C5",
"z. c #CAC9C7",
"x. c #CDCCCA",
"c. c #C7C5CA",
"v. c #D0CFCD",
"b. c #D2D1CE",
"n. c #D5D4D2",
"m. c #D8D7D5",
"M. c #DAD9D7",
"N. c #DCDBD9",
"B. c #E7E6E8",
/* pixels */
"                                                                                                                                ",
"                                                                                                                                ",
"                                                                                                                                ",
"                                                                                                                                ",
"                                                                                                                                ",
"                                                                                                                                ",
"                                                                                                                                ",
"                                                                                                                                ",
"                                                                                                                                ",
"                                                                                                                                ",
"                                                                                                                                ",
"                                                                                                                                ",
"                                                  . O O & + * > o                                                               ",
"                                        o 8 c c 3 5 H L F 4 L Z n j O                                                           ",
"                                    & j ,.i.s.N.@.g l c j 9 Z L L L H d O                                                       ",
"                              . & c ,.0.u.s.s.s.&.m L =.Z v 4.i.u.u.4.w.P z o                                                   ",
"                        % ; , 7 D %.g.r.g.a.0.6.K x Z K m l $.0.4.1.s.u.6.@.0 *                                                 ",
"                    . < T W N 6.N.0.r.-.w.g.N.n.,.b C S B z $.g.i.s.g.#.g.a.,.K g *                                             ",
"                    % U { G Z w.N.s.6.w.u.l.v.w.L N L $.H m -.g.x.n.b.@.u.l.u.,.@.n - o                                         ",
"                  % !  .=.z.4.H a.4.n.v.I c ,.x.,.B S L S m ,.w.4.y.4.m.x.0.g.u.b J =.A 3 o                                     ",
"                X u j.C 1.f.p.4.M a.b.4.x 9 =.6.@.n x x x b l.g.g.6.4.n.M.l.L q S H L @.#.m O                                   ",
"              X p ~ ^ 4.i.w.u.g.r.K q.$.9 - 7 =.g.L M @.l B b.k.p.x.l.w.-.B 3 4 j q.=.-.#.$.P V 7 * .                           ",
"              ; _ ( I w.p.l.a.p.m.q.@.4.C 7 4 b i.K b Z j Z s.u.g.b.N.6.b j 3 7 9 4.-.<.q.=.#.&.L b 5 o                         ",
"            $ f X.3.s.6.x.b.a.u.i.N.u.I 1.I S L 6.L b S q ^ w.<.u.u.m.Z M n 7 9 9 4.5.@.#.m ,.5.&.@.L S 7 &                     ",
"            1 E ( ;.4.f.s.z.u.y.5.a.b.r.$.-.<.1.z.5.b K 8 u.r.-.g.u.u.I M l 4 7 9 L y.<.B q ,.p.w.-.I P P B 5 o                 ",
"          X p ' ^ 0.=.k.u.k.a.l.g.a.5.i.6.K 6.r.g.u.x b 9 4.s.b.y.p.s.1.r.C 3 4 x x.m.e.L &.0.6.,.c z #.V J =.P 9 &             ",
"          $ Y o.,.q.i.6.s.y.u.V 7 u.l.w.4.$.C <.1.-.I &.C H x.N.p.-.g.6.s.y.Z 7 &.m.k.1.n S &.&.#.M M J H I L P &.Z *           ",
"          : R X.&.5.y.5.a.0.0.9 . $.%.x L 1.J C &.6.$.I Z <.1.s.u.4.s.s.6.i.l.s.z.,.@.-.A I =.q.w.6.6.5.=.P I K H A =           ",
"          w ) } &.&.a.,.r.u.i.x = 1.l o L &.-.L 5.w.q.6.K K -.$.u.p.H $.u.g.4.6.<.-.<.&.A A A A S J -.5.4.4.6.4.I I 4           ",
"          r ] >.y.$.$.-.0.-.0.w.r.n.1.S u.4.,.=.i.6.<.H q H &.K K I I -.,.-.I K @.$.K I L L L L P M j m n n n n h g *           ",
"          r ] %.$.I Z 1.6.$.1.I P v.6.S p.6.,.L ^ K S c - x M S I 6.w.#.&.I I I &.&.I $.&.&.&.&.w.&.& o o o o + o o             ",
"          r ] ;.r.#.c Z J #.b & . I j o K -.<.g.=.Z 4 x $.-.5 8 $.r.u.s.n.x.N.N.N.N.s.x.s.g.&.#.a.0.O                           ",
"          i O.>.y.#.x Z J $.b O   @.j . K ,.<.f.&.C 4 z $.<.3 0 $.w.<.-.$.$.I &.#.#.1.a.v.v.&.#.i.4.o                           ",
"          i O.%.#.I S 1.6.$.1.I I v.6.A p.5.-.P P P F z = z m A I 4.4.<.-.,.&.=.=.=.=.,.:.,.:.,.i.;.& o o o O o o o             ",
"          d +.>.y.#.$.-.0.-.0.w.y.n.4.A u.5.,.=.u.0.5.F y J =.P K I &.-.=.4.<.1.<.5.5.-.=.#.#.#.@.V l n v m m m j g *           ",
"          t ` 7.=.$.a.,.r.u.i.x = 4.l o L &.:.P 5.w.q.5.J P 5.q.,.u.&.a.S 4.f.f.5.6.#.P H A A A H H =.4.5.5.5.<.I @.3           ",
"          % E X.&.4.r.6.a.0.w.9   @.=.x P <.H V =.5.#.P V 0.f.<.b &.1.n.M <.b.g.w.f.<.P P P #.I @.L P @.J P P P H A =           ",
"          # Y o.,.w.i.6.s.y.u.C 7 u.z.w.5.=.C <.<.$.A K v f.q.6.K c <.4.q.l.a.w.5.z.<.P P P #.$.@.m m @.@.=.P P &.Z *           ",
"          . i ' ^ 6.=.k.u.k.a.k.k.a.5.u.0.J 0.r.f.r.h z 4 P 0.f.i.C L i.,.0.w.q.5.z.I =.$.-.6.q.,.c z $.P P $.P 9 *             ",
"            1 ! / =.4.s.s.z.u.y.4.a.x.r.@.=.,.<.x.5.m J 0 &.=.y.-.&.c S w.6.&.1.5.6.#.#.V 0 -.y.q.:.P I P m 5 o                 ",
"            # f | 3.s.0.x.b.a.u.i.M.r.P 5.6.#.<.5.#.m F 0 #.=.#.<.-.<.x -.q.p.s.,.^ &.I @.M -.5.&.@.L S 7 &                     ",
"              ; _ ( P q.p.k.a.p.m.0.#.4.w.w.q.,.f.$.m A l F f.<.u.q.5.$.M &.l.v.5.z.,.4.q.&.@.&.K v 5 O                         ",
"              X s ~ ^ 5.i.w.u.f.r.H e.r.r.i.w.4.z.=.V P l V f.=.i.r.<.w.b b u.s.f.g.I ,.#.$.I Z 7 * .                           ",
"                . a h.Z 4.f.p.4.M a.n.i.i.s.4.e.#.F m z z v w.f.,.s.<.$.u.b b -.f.S K I $.c &                                   ",
"                  $ ! 9.-.z.4.H a.6.b.v.4.1.4.x.,.B J P A m s.M.-.r.P 6.<.$.j b b H -.S - .                                     ",
"                    $ U [ G Z <.N.s.0.w.0.p.a.0.P m P @.H m 2.r.-.^ f.-.5.v.H q H m q 8 * .                                     ",
"                      < T Q N ;.N.0.w.-.0.p.s.a.,.m V A B z &.r.g.<.u.4.4.u.1.n H x Z H l 9 O                                   ",
"                        % 1 , 7 H =.l.r.k.a.0.1.P c Z P m z s.N.N.z.Z b.6.<.$.L r.=.1.I M I 7 .                                 ",
"                              . * v 2.e.i.g.k.s.:.M I 2.F v :.v.c.i.L y.a.,.#.H 5.=.0.w.$.2.8                                   ",
"                                    & v 8.b.B.B.$.k z c l 0 V c H &.5 k y.0.N.r.z.&.,.B k ;.7                                   ",
"                                        + 9 c c > 5 H P H 4 g h 9 *   + J s.z.0.d.*.2.t.D k o                                   ",
"                                                  . @ @ @               + > = 3 3 > > = +                                       ",
"                                                                                                                                ",
"                                                                                                                                ",
"                                                                                                                                ",
"                                                                                                                                ",
"                                                                                                                                ",
"                                                                                                                                ",
"                                                                                                                                ",
"                                                                                                                                ",
"                                                                                                                                ",
"                                                                                                                                ",
"                                                                                                                                ",
"                                                                                                                                "
};
