/* XPM */
static char *result[] = {
/* columns rows colors chars-per-pixel */
"64 64 49 1 ",
"  c #000000",
". c #070708",
"X c #070808",
"o c #0B0B0C",
"O c #0E0E10",
"+ c #131314",
"@ c #171817",
"# c #161719",
"$ c #171819",
"% c #1B1B1C",
"& c #1F211F",
"* c #1E1F21",
"= c #1F2020",
"- c #232324",
"; c #272827",
": c #242628",
"> c #27292B",
", c #2B2B2C",
"< c #302F30",
"1 c #2F3134",
"2 c #343434",
"3 c #373837",
"4 c #353638",
"5 c #383739",
"6 c #37383A",
"7 c #3A3A3A",
"8 c #40403F",
"9 c #3C3D42",
"0 c #3D4044",
"q c #454545",
"w c #494647",
"e c #454649",
"r c #484648",
"t c #4B4B4B",
"y c #514D4D",
"u c #54514E",
"i c #4E4F51",
"p c #4F5153",
"a c #4F545A",
"s c #545454",
"d c #595554",
"f c #535459",
"g c #575858",
"h c #5C5C5C",
"j c #636363",
"k c #6C6C6C",
"l c #737373",
"z c #7A7A7A",
"x c None",
/* pixels */
"                                                                ",
"                                                                ",
"                                                                ",
"                                                                ",
"                                                                ",
"                                                                ",
"                                                                ",
"                                                                ",
"              .2:X                                       o      ",
"              $shs                                      Xts%    ",
"         .q67-7jks7                                  73,,jjq    ",
"         -sstrsjgr*                                 @fsrtgt,    ",
"         8hsswwtqq.                                 7khtqq7X    ",
"        Xglkgr0qq$                                  gljtqq:     ",
"        @jlkswq87               X+o               +7shyq7q=     ",
"       =ishhtq7wq.             othg%=-,-          qjhsrtq7$     ",
"      :ghgswwe08q              +hlhskkgtX        oglhuprq2.     ",
"      qhljssst8q2       *o      >shskksi%         4t:%:q2X      ",
"      tjkgtttq88X      +ae=.    Xqswustr<$@            .        ",
"      *is,%%0q3   X    1fff7.   +ttiqqqrjjr                     ",
"  o22  .          00+ Xasss3    6t0q8q8quhr                     ",
" Xqjt,      .X   #asfe+7sssw2&. %rtq0qwtqq$                     ",
" .8ksqO     =0@. 1fsfq o7sywqq<O-qtissssu2X                     ",
"  .ttq7=X   egsq=6sss6 ;77qqqqqqqqq87qssrq7,o                   ",
"  2qq8q0<X @ssgpO ,ss72377wqqqqqwqq7377qqqqqq,O                 ",
" @ssiw88q@ &sgsto@65q77378qqqq788qq3337277qqqwqo+               ",
" 2sgjsqt8,  <usq2275qqw77qqqq837788372367377qr6O                ",
" X9klgwsq: .2wt87777qqqq88qqq73537qq7773337qq2.          .29@X  ",
"  .ehsit,o +qqqqq73qqqqq3378753568qqrq77727qq7.          &ist7+ ",
"   .rhh0o .2qqqqqw08qqq87737qq737qqqqqqqq7qqqw7o .      -gsssrr%",
"9*  rklqX.5qqqqqqq7337q33537qqqqqqqwwqqqqqqqqqq7-X     $jlkgsrrs",
"re  >hjt32rqqtrwwq36338q737qqqqqqqqqqqqqqqqqqqqq5. X+++tlzlhsrqs",
"wq   :twqwqqtssir83573qrqq7qqqqqqqqqtwqqqqqtqqqq3XX1ssssklkhuqqw",
"rqX  @38qqqqpssss77337rqqqwqqqqqwqqtssttq0qqqqq3X.1sjjssgjgirw8q",
"qq% +33338qtssssw3737qqqqqqqqqtqqqqissssutqqqqq- +pjllhstrrqqq08",
"qw7;2377333qpusp7733337qqqqqqtssittsssssssstqqq<+Osjlkhssqwq77tq",
"qqqq7333737wwrit733533778qqtqtssgssssssssssuqq7oo.1shsqssuptq7q8",
"qqqqq877370wqqwqq73773333370qpsssssssssssssttq@   X+++1qwiiq8083",
"qqqqqqqq87qqqqqqqqq7337733378tsgssssgssssssqqq8o.$.   .o7wq80q3o",
"qqqqqqqwq88qqqqqqqqqq83377738qttussssssssstqqqq3-77:X  .,08w72o ",
"qqqqqqqqq7378qqqqqqqqqq73337wqqqttpssssssssutqqqqqwqq:. .+O+X   ",
"qqwqqqwq87363qqqqqqqwqqrq878qqqqqqwtpsssssssssttqqqqq$ o        ",
"qwqqqqqq73333qqqqqqqqqqqqqqqqqwqqqqqqtypsssssssstrqqqo          ",
"qqqqqqqq08738qqqqqqqqqwqqqqqqqqqqqqqqqqtusssssgsssrw2           ",
"ptqqqqqqqqq8qqqqqqqqwqqqqqqqwqqqqqqqqqqtsssssssssiw8o           ",
"ssqqqqqqqqqqqqqqqqqqqqqwqqqqqqqqqqqqqqqtssssssssstqq-  .        ",
"siqqeqqqqqqqqqqqqqqeqqqrqttqqqqqqwqqqqtpsssssssspwqqq- oX       ",
"stwqqqqqqqqqqqqqtqqqqqwqtssptqqqqqqqqqqsssssssssptwqwq73o$0%    ",
"pqqqqqqqqqqqtqqqqqwttwtqpsssgstqqqqqqqwqrsssssssssstqqwqqtugt>  ",
"uitqqqqqqqqqqqqqqqwpspttssugsssstqqqqqqqqqygsssssssssitqtsssssi>",
"gsptwqqqqqqqqqtqqwtsssssssssssssgsitqqqwqqysssssssssssstggssssgu",
"ssssrwqqwqqqqtsptrusssssssgssssgssssptqqwrsssshjggssssshlkjssssg",
"sffiqqqqqqqqqusssssssssssssjhgssssgussstwisssgjjjhhgssskzzzlhsss",
"ssfrqqqqqqqqtssssssgsgdsssgjjjhjggsssssssssssgjjjjlkhgszzzzljjhg",
"fsuqqqwqqqqtpssssssssjkhsujjjjjzljggssgsssssdjjjjkzzzlkzzzzkjjjj",
"sftqrqqqqqqtssssssssglzzljjjjjkzzzlgssssssssshhjjlzzzzzzzzzjjjjh",
"suwqqqqqqqqpssssssssjzzzzzlljjzzzzkgsssssssssssgjzzzzzzzzzzjjjjs",
"stqwqqqqqqqsssssssgslzzzzzzzzlzzzzjssssssssssssshjlzzzzzzzzzlkjs",
"er8wwqqqqqysssssssshjkzzzzzzzzzzzlgsssssssssssggjjjjlzzzzzzzzzjg",
"xsurqqqqqtssssssssghjjjlzzzzzzzzzkhgsugssdssssshjjjjzzzzzzzzzljj",
"fssspqqqqtssssgsssgjjjjkzzzzzzzzzjjjhgsssssssssjjjjjzzzzllzzzjjj",
"sdgstqqqqssssssssshjjkjlzzzzzzzzkjjjjgsssssssssggjjlzzzzjjjlljjj",
"fgdutqqqysssssssssdghjkzzzzzzzzljjjjjssssssssssssshlzzzljjjjhhjj",
"xifyqqqqusssssssssgsshzzzzzzzzzzkkjjggsssssssssssghjjlzjjjjjssgh"
};
