/* XPM */
static char *d3e63ee13e364bb8b2cb73be05d2b082dDFizNj1wxlBH4dz[] = {
/* columns rows colors chars-per-pixel */
"100 6 175 2 ",
"   c #020101",
".  c #0B0202",
"X  c #140202",
"o  c #1B0203",
"O  c #240203",
"+  c #2C0204",
"@  c #200808",
"#  c #2D090A",
"$  c #330204",
"%  c #3C0205",
"&  c #390508",
"*  c #32090A",
"=  c #3A0F10",
"-  c #371011",
";  c #430205",
":  c #4C0305",
">  c #420508",
",  c #4B0509",
"<  c #420B0D",
"1  c #530306",
"2  c #5C0105",
"3  c #530508",
"4  c #5C0509",
"5  c #54090D",
"6  c #5A0A0E",
"7  c #50100F",
"8  c #500C10",
"9  c #5A0E11",
"0  c #491214",
"q  c #421213",
"w  c #5E1114",
"e  c #5F1B1A",
"r  c #541719",
"t  c #640206",
"y  c #680407",
"u  c #6A0509",
"i  c #7A0408",
"p  c #70090E",
"a  c #79090D",
"s  c #770307",
"d  c #611D1F",
"f  c #7B1113",
"g  c #602322",
"h  c #752C2D",
"j  c #753233",
"k  c #7F3D3E",
"l  c #8B060B",
"z  c #8A080B",
"x  c #900B0F",
"c  c #800E14",
"v  c #9B0C12",
"b  c #861317",
"n  c #8C1B1E",
"m  c #9A1316",
"M  c #A2161C",
"N  c #941B20",
"B  c #9D1F24",
"V  c #A61C20",
"C  c #8C2B2D",
"Z  c #95262A",
"A  c #992A2F",
"S  c #942A2E",
"D  c #8F2F33",
"F  c #852D32",
"G  c #942E32",
"H  c #9B2E31",
"J  c #883235",
"K  c #863E3E",
"L  c #913235",
"P  c #993035",
"I  c #943338",
"U  c #96383C",
"Y  c #9C353A",
"T  c #AD2327",
"R  c #A1272C",
"E  c #B02A2D",
"W  c #A92F31",
"Q  c #A13538",
"!  c #AB3A3F",
"~  c #B63538",
"^  c #B03B3D",
"/  c #BD3C3F",
"(  c #853F40",
")  c #AD3E41",
"_  c #8C4243",
"`  c #9A4C4D",
"'  c #A24345",
"]  c #AC4245",
"[  c #B44347",
"{  c #BB4547",
"}  c #B14549",
"|  c #BE464B",
" . c #B94D52",
".. c #AC5255",
"X. c #A85E5D",
"o. c #A55A5B",
"O. c #B65353",
"+. c #BA5457",
"@. c #B1595C",
"#. c #BD5A5E",
"$. c #BB555A",
"%. c #BD5C60",
"&. c #AF6164",
"*. c #B56163",
"=. c #BB6265",
"-. c #BB6669",
";. c #BF6A6C",
":. c #C25256",
">. c #C7555B",
",. c #C25A5C",
"<. c #C55C61",
"1. c #CA5E62",
"2. c #C16365",
"3. c #CA6065",
"4. c #C86A67",
"5. c #CD666A",
"6. c #C6686B",
"7. c #CE696D",
"8. c #C26E70",
"9. c #CD6F74",
"0. c #C77377",
"q. c #CB7375",
"w. c #C57478",
"e. c #CB7679",
"r. c #C47A7A",
"t. c #C97D7E",
"y. c #D17477",
"u. c #CF7E82",
"i. c #CD8484",
"p. c #CE8887",
"a. c #D28385",
"s. c #D98587",
"d. c #D28788",
"f. c #D48C8D",
"g. c #D49393",
"h. c #DC9394",
"j. c #D49A9A",
"k. c #D89B9C",
"l. c #E2A39D",
"z. c #D5A3A2",
"x. c #DAA5A4",
"c. c #DCADAD",
"v. c #D8B1AF",
"b. c #DDB3B2",
"n. c #DEBCBD",
"m. c #E1AFAD",
"M. c #E9B4B0",
"N. c #E4B8B5",
"B. c #E7BDBD",
"V. c #E8BEBE",
"C. c #EBC2BE",
"Z. c #E1C4C3",
"A. c #E9C3C2",
"S. c #E4C8C7",
"D. c #EDCAC6",
"F. c #E5CCCB",
"G. c #EBCDCC",
"H. c #E6D0CE",
"J. c #EFD1CE",
"K. c #F0D3CF",
"L. c #E7D2D1",
"P. c #ECD5D4",
"I. c #EDD8D7",
"U. c #EEDBD9",
"Y. c #F0D5D4",
"T. c #F0DAD6",
"R. c #F1DBD9",
"E. c #F0D9D8",
"W. c #F1DDDA",
"Q. c #F1DDDA",
"!. c #F2E1DD",
"~. c #F2E1DE",
"^. c #EFE1E1",
"/. c #F3E4E1",
"(. c #F1E3E0",
/* pixels */
". . . . . . . . X X X X X X X X o o o O + + $ $ + + O + $ $ $ $ > 5 9 9 w r < & $ $ $ $ $ + + $ > , : , , 3 5 6 5 , $ $ $ $ $ $ $ $ $ + O O O O O $ : t i l v M B Z F h d 0 * @ X . .                   ",
"X o o o o O O + + $ % ; : y b n N B R W ^ +.2.8.8.;.;.-.=.8.w.0.u.g.k.x.c.b.b.x.k.g.f.a.q.6.2.2.#.$.#.%.2.q.u.d.f.d.t.r.t.i.f.g.g.a.0.*...' U D G ' O.,.<.<.3.7.y.s.h.h.h.f.0.*.` j r = # @ o X . .     ",
"$ % % ; ; : 1 1 t s z m T / ,.4.q.t.p.g.j.z.v.n.Z.F.F.H.F.H.L.P.I.U.U.U.^.^.^.^.(.^.U.U.P.P.P.P.P.P.P.P.P.I.U.U.U.U.U.U.U.U.R.R.R.U.R.R.R.R.E.Y.E.E.Q.Q.Q.~.~.Q.W.(.(.(.(.~.E.P.J.D.C.N.m.x.g.r.X._ h e ",
"+ $ % % ; : 1 2 y i l x m V E ~ { ,.q.i.f.z.b.n.Z.Z.S.F.L.L.L.L.F.S.S.S.S.F.L.L.I.U.I.P.L.G.G.G.L.P.P.P.P.P.I.P.P.P.P.P.G.D.A.V.B.A.G.E.R.P.I.R.~.~.~.~.(.(.(.~.Q.E.E.E.R.Q.Q.Q.Q.E.K.D.D.C.M.l.a.O.C 7 ",
"X X X X o o O O + + $ % ; : 1 2 y u p f n Z H Q ] ] } } ] ) ) ) Q G C C S A H H P I J L Y H Q ]  .:.,. .} ! [ :.3.7.3.:.| { { >.5.y.e.e.;.*.@...@.=.q.q.7.7.7.5.1.1.7.9.e.8.&.o.` _ K ( k j g 0 # o .   ",
"      . . . . . . . . . . X X o o o o X o o O O O O + + + + + o X o o X o o o o X X X X O # + O + > > > % > : 4 4 4 3 3 3 3 : 4 4 : > & & $ & % % 3 u a c p 4 6 5 8 0 q - @ X . . .                     "
};
