/* XPM */
static char *aad957a64e3a4bfdb21382fc0dbc510c1jTYKGSiOwVHec4W[] = {
/* columns rows colors chars-per-pixel */
"100 12 141 2 ",
"   c #000000",
".  c #080701",
"X  c #0C0A01",
"o  c #120F02",
"O  c #141102",
"+  c #1A1602",
"@  c #1D1902",
"#  c #221E03",
"$  c #252103",
"%  c #292502",
"&  c #29260B",
"*  c #2C2809",
"=  c #322C02",
"-  c #322E0C",
";  c #373105",
":  c #3A3302",
">  c #3B360A",
",  c #322E11",
"<  c #3A3513",
"1  c #3D3A16",
"2  c #433B03",
"3  c #433E16",
"4  c #433E19",
"5  c #4C4404",
"6  c #46410C",
"7  c #4B450C",
"8  c #4E480B",
"9  c #504803",
"0  c #474214",
"q  c #494414",
"w  c #46421C",
"e  c #48431E",
"r  c #544E13",
"t  c #504B18",
"y  c #565012",
"u  c #5C5510",
"i  c #5E571E",
"p  c #635C16",
"a  c #635C1B",
"s  c #796D0E",
"d  c #68621B",
"f  c #756B13",
"g  c #786E13",
"h  c #72691D",
"j  c #7C7115",
"k  c #7A701E",
"l  c #4C4821",
"z  c #534E25",
"x  c #5B5529",
"c  c #6A6324",
"v  c #6F6925",
"b  c #67612F",
"n  c #746C24",
"m  c #726B2B",
"M  c #777027",
"N  c #7C7325",
"B  c #7E762D",
"V  c #6F6834",
"C  c #736C35",
"Z  c #777036",
"A  c #797138",
"S  c #85790E",
"D  c #807622",
"F  c #867B26",
"G  c #807629",
"H  c #827A2C",
"J  c #857C31",
"K  c #918515",
"L  c #908419",
"P  c #968B22",
"I  c #90872D",
"U  c #9D922A",
"Y  c #898231",
"T  c #8F8837",
"R  c #938A36",
"E  c #998E33",
"W  c #938B3B",
"Q  c #988E3F",
"!  c #9E9435",
"~  c #97903E",
"^  c #9E953B",
"/  c #A4993A",
"(  c #B7AC3E",
")  c #918A43",
"_  c #9B9141",
"`  c #9C954F",
"'  c #A29A4B",
"]  c #A49D5C",
"[  c #AAA149",
"{  c #B6AB42",
"}  c #B9AE45",
"|  c #B7AC4B",
" . c #BDB14F",
".. c #A9A154",
"X. c #AFA75E",
"o. c #BBAF52",
"O. c #B2AA5B",
"+. c #B8AF5F",
"@. c #BEB454",
"#. c #B6AE63",
"$. c #B8AF60",
"%. c #B1AA6B",
"&. c #BFB667",
"*. c #B8B176",
"=. c #BDB77F",
"-. c #C1B655",
";. c #C6BA52",
":. c #C5BB5B",
">. c #C8BD5F",
",. c #C5BC64",
"<. c #C0B96B",
"1. c #C8BF6C",
"2. c #CAC060",
"3. c #CEC46A",
"4. c #D4CA6C",
"5. c #C9C071",
"6. c #D7CC71",
"7. c #D0C87F",
"8. c #DBD176",
"9. c #C2BA86",
"0. c #C5BE8B",
"q. c #D7D087",
"w. c #DCD48D",
"e. c #C8C190",
"r. c #D3CC9D",
"t. c #E1D994",
"y. c #E7DF9F",
"u. c #EAE296",
"i. c #EDE59C",
"p. c #D6D0A1",
"a. c #DAD3A4",
"s. c #DED7A8",
"d. c #E7DEA1",
"f. c #E3DCAC",
"g. c #E6E0A6",
"h. c #ECE4A3",
"j. c #EFE8A4",
"k. c #E7E0AD",
"l. c #EEE6A8",
"z. c #EFE6A8",
"x. c #E8E1AC",
/* pixels */
"                                                                                                                                                                                                        ",
"                                                                                                                                                                                                        ",
"                                                                                                                                                                                                        ",
"                                                                            . . . . . X X X X X X o O O O O O + + @ @ @ @ @ + O O O O O O @ # $ # @ @ @ + O O o X X X . .                               ",
"                . . X O O + # & , < 1 3 3 4 4 w w e l z x b V C A Z m c a p p h N H J J J B B B H H H H G G G N N N k D F F D f f g j g s S K K L P U ! ^ R J B m c i t 0 > * # @ O X X . .             ",
"        X o @ % ; 7 p n J ) ` ] %.*.=.9.0.0.e.r.p.a.s.f.f.f.f.f.k.x.g.d.d.d.y.g.g.i.g.h.g.h.h.h.h.h.h.h.h.h.j.j.h.i.i.i.i.i.i.i.i.i.i.i.i.i.i.u.i.h.h.h.z.z.h.g.y.t.w.q.7.<...W B v a r 6 ; % @ X       ",
"        . . X O + $ = 2 8 u p h N N M M n n n M B F I ! [ O.$.+.#.#.#.X.....' _ Q Q W W R R E / { ;.4.6.3.:.@.o.| |  .-.:.:.2.4.8.6.>. .} ( ( ( { } @.:.,.1.5.&.#.O...' ' ~ T Y H n d y > % @ O .       ",
"                          . . . X X X X X X X X X X o O O O O O O O O O o O O O O O + @ # $ % % = : : : ; = = = = = = = = = = = = : : 2 2 5 5 9 5 7 q q 0 q q 0 3 < - * $ @ + O o X X . .               ",
"                                                                                          . .     . . . . . . . . . . . . . . . . . . . X X X X X X . . . . . .                                         ",
"                                                                                                                                                                                                        ",
"                                                                                                                                                                                                        ",
"                                                                                                                                                                                                        "
};
