/* XPM */
static char *_6811c9394884171fb9604419276db714OHHKKkHLJtupoQk[] = {
/* columns rows colors chars-per-pixel */
"64 64 142 2 ",
"   c #000000",
".  c #0B0C0D",
"X  c #0F1112",
"o  c #121315",
"O  c #151618",
"+  c #191B1D",
"@  c #1B1F25",
"#  c #1C2026",
"$  c #1E2229",
"%  c #212427",
"&  c #21252C",
"*  c #23292F",
"=  c #2B2C2D",
"-  c #262D34",
";  c #292E35",
":  c #283037",
">  c #2C333B",
",  c #323232",
"<  c #31363D",
"1  c #35383C",
"2  c #3E3D3C",
"3  c #47683A",
"4  c #303740",
"5  c #343B43",
"6  c #3F3F40",
"7  c #353F49",
"8  c #393F48",
"9  c #374047",
"0  c #3C4146",
"q  c #3B424B",
"w  c #3E4751",
"e  c #3F4955",
"r  c #444445",
"t  c #42474B",
"y  c #47494B",
"u  c #4B4C4C",
"i  c #444C54",
"p  c #494E54",
"a  c #434F5B",
"s  c #494F58",
"d  c #4C5156",
"f  c #47515B",
"g  c #4B535D",
"h  c #525252",
"j  c #50585F",
"k  c #566858",
"l  c #587552",
"z  c #475461",
"x  c #4E5762",
"c  c #4E5863",
"v  c #4F5B69",
"b  c #505760",
"n  c #525A63",
"m  c #585C60",
"M  c #525D69",
"N  c #596167",
"B  c #55616D",
"V  c #5B646C",
"C  c #5D776C",
"Z  c #5D7869",
"A  c #546372",
"S  c #5B6672",
"D  c #5E6975",
"F  c #5C6C7D",
"G  c #5F6B7A",
"H  c #5E707E",
"J  c #60676E",
"K  c #60686E",
"L  c #63696F",
"P  c #63686E",
"I  c #616A72",
"U  c #616A73",
"Y  c #646D75",
"T  c #666E75",
"R  c #636C75",
"E  c #686E73",
"W  c #686F75",
"Q  c #606C79",
"!  c #646F7D",
"~  c #616D7B",
"^  c #6A7177",
"/  c #66737F",
"(  c #68717A",
")  c #69717B",
"_  c #68727B",
"`  c #69727B",
"'  c #6C7379",
"]  c #69747E",
"[  c #6A757E",
"{  c #6C747C",
"}  c #6A747C",
"|  c #71787F",
" . c #73787F",
".. c #648274",
"X. c #627281",
"o. c #647482",
"O. c #647585",
"+. c #647484",
"@. c #687685",
"#. c #6A7580",
"$. c #6D7985",
"%. c #6D7A89",
"&. c #757E87",
"*. c #737D87",
"=. c #707D8C",
"-. c #757F88",
";. c #697D90",
":. c #75818A",
">. c #76838C",
",. c #75838F",
"<. c #7E878E",
"1. c #78828C",
"2. c #778491",
"3. c #7A8793",
"4. c #798793",
"5. c #7B8895",
"6. c #848D95",
"7. c #818992",
"8. c #818D98",
"9. c #808D99",
"0. c #818D99",
"q. c #808D9A",
"w. c #828E9A",
"e. c #838F9B",
"r. c #848E99",
"t. c #818E9A",
"y. c #84909C",
"u. c #83919E",
"i. c #8A939D",
"p. c #8C959E",
"a. c #8796A4",
"s. c #8795A2",
"d. c #8B97A3",
"f. c #8996A2",
"g. c #8B99A5",
"h. c #919AA4",
"j. c #939FAD",
"k. c #929DAA",
"l. c #94A2AD",
"z. c #92A0AB",
"x. c #9AA6B2",
"c. c #98A3B0",
/* pixels */
"                                                                                                                                ",
"                                                                                                                                ",
"                                                                                                                                ",
"                                                                                                                                ",
"                                                                                                                                ",
"                                                                                                                                ",
"                                                                                                                                ",
"                                                                                                                                ",
"                                                                                                                                ",
"                                                                                                                                ",
"                                                                                                                                ",
"                                                                                                                                ",
"                                                                                                                                ",
"                                                                                                                                ",
"                                                                                                                                ",
"                                                                                                                                ",
"                                                                                                                                ",
"                                                                                                                                ",
"                                                                                                                                ",
"                                          o o o o o o                     o o o o o o                                           ",
"                                        < M g g g g n 0                 d T V V V V ( 0                                         ",
"                                        n * # # @ @ * D                 :.> - - ; ; < '                                         ",
"                                      o n @ # # # @ @ B @             % [ ; - ; ; - - { o                                       ",
"                                      5 M 4 # # # @ > g g             L B q - ; ; - p ` u                                       ",
"                                      5 g q # # # @ 4 i g             V M i - ; ; - n U p                                       ",
"                                      5 f q # # # @ 4 i g             L N i - ; ; - n U d                                       ",
"                                    X ! q i @ # # @ q 5 Q +         + ,.s x - ; ; ; N g 6.o                                     ",
"                                    o i $ B # # # @ c $ q f q q 5 . @ i > ( - ; ; ; &.: N o                                     ",
"                                    ; g # B # # @ @ c # M A F A F M i g ; ( - ; ; ; &.; U 1                                     ",
"                                    x 5 $ 7 5 # @ > w 7 S d d g A F w.5 : m i ; ; s g : f E                                     ",
"                                    g - # * g q q i g D y 2 h 2 N O.4.> ; g B n n T < ; > L                                     ",
"                                  o D ; ; ; / B B M f t r r r y r [ 5.4 5 j r.5.4.i.8 5 q <.o                                   ",
"                                  % @.S S D =.i a z g r u = , r u  .a.w.w.f.l.X.o.x.y.w.w.j.=                                   ",
"                                  % o.G G ~ %.e a f f r h , , r h  .s.f.s.k.z.X.o.c.g.f.d.k.=                                   ",
"                                  o Q ; ; ; $.M v Q g 0 y r r y r #.w.4 5 b p.2.,.h.9 5 9 E                                     ",
"                                    g * # - g i a i f S u r h 6 N O.4.> ; d V V V T > ; > L                                     ",
"                                    n 4 $ 4 q # @ 4 w w l g m k C ;.u.4 : n i ; ; g i ; i ^                                     ",
"                                    ; g # B $ # # @ x # 3 H O...Z i p g ; ( - ; ; ; &.; U 1                                     ",
"                                    o i $ B # # # @ c $ 5 & . . .   + i > ( - ; ; ; -.; N O                                     ",
"                                    o Q 5 i # # # @ q 4 D +         + *.i n - ; ; ; V g 7.o                                     ",
"                                      t f q # # # # 4 i n             E B i - ; ; - n U m                                       ",
"                                      5 g q # # # @ 4 w g             V V i - ; ; - n U p                                       ",
"                                      5 c 5 # # # @ > g g             J V q - ; ; - s T p                                       ",
"                                      O M @ # # # @ @ B %             ; [ ; - ; ; - - { +                                       ",
"                                        n * @ # @ @ * S                 *.> ; ; ; ; > W                                         ",
"                                        q D c n c c S g                 N $.Q Q Q Q 1.d                                         ",
"                                          o o o o X o                     O o o o o o                                           ",
"                                                                                                                                ",
"                                                                                                                                ",
"                                                                                                                                ",
"                                                                                                                                ",
"                                                                                                                                ",
"                                                                                                                                ",
"                                                                                                                                ",
"                                                                                                                                ",
"                                                                                                                                ",
"                                                                                                                                ",
"                                                                                                                                ",
"                                                                                                                                ",
"                                                                                                                                ",
"                                                                                                                                ",
"                                                                                                                                ",
"                                                                                                                                ",
"                                                                                                                                "
};
