/* XPM */
static char *result[] = {
/* columns rows colors chars-per-pixel */
"64 64 98 2 ",
"   c #000000",
".  c #070708",
"X  c #0B0A0B",
"o  c #0F0F10",
"O  c #141415",
"+  c #171718",
"@  c #19191A",
"#  c #262728",
"$  c #2D2D33",
"%  c #323336",
"&  c #31333B",
"*  c #3B3B3E",
"=  c #444023",
"-  c #4C4932",
";  c #58543E",
":  c #3C3F44",
">  c #424246",
",  c #42444B",
"<  c #44494F",
"1  c #4A4A4C",
"2  c #57564C",
"3  c #5D5B4E",
"4  c #474950",
"5  c #4E5259",
"6  c #535355",
"7  c #5E5B50",
"8  c #52545A",
"9  c #5D5D58",
"0  c #605F58",
"q  c #565760",
"w  c #565A62",
"e  c #5D5D62",
"r  c #5F6064",
"t  c #606065",
"y  c #62656C",
"u  c #6B6A6E",
"i  c #6C6E75",
"p  c #6A6F78",
"a  c #737478",
"s  c #82827B",
"d  c #7C7C83",
"f  c #807D86",
"g  c #7D8B97",
"h  c #85868D",
"j  c #8A8B8D",
"k  c #8B8C94",
"l  c #8F919C",
"z  c #909197",
"x  c #919299",
"c  c #99999E",
"v  c #9B9BA4",
"b  c #A19FAA",
"n  c #A3A3A7",
"m  c #A4A4AB",
"M  c #ABABAF",
"N  c #B3B2AE",
"B  c #A6A7B1",
"V  c #A5A8B2",
"C  c #ACACB4",
"Z  c #AEAEBB",
"A  c #B0AFB7",
"S  c #ADB0BB",
"D  c #B2B2B7",
"F  c #B8B7B7",
"G  c #B3B4BD",
"H  c #BDBDBF",
"J  c #B4B6C2",
"K  c #B5B8C2",
"L  c #BABAC4",
"P  c #BDBEC8",
"I  c #BFC1C2",
"U  c #BEC0CF",
"Y  c #BAC2D5",
"T  c #BEC7DB",
"R  c #C2C2C3",
"E  c #C5C5CD",
"W  c #C7C7D1",
"Q  c #CBCCD4",
"!  c #C9CEDC",
"~  c #CFD1D9",
"^  c #D3D4DD",
"/  c #D8D9DF",
"(  c #C2CDE2",
")  c #C9D1E3",
"_  c #D5D6E0",
"`  c #D5D8E2",
"'  c #DBDBE4",
"]  c #DDDEE8",
"[  c #DDE2EE",
"{  c #E0E0E5",
"}  c #E2E2EC",
"|  c #E7EAF1",
" . c #ECECF4",
".. c #EFEFF9",
"X. c #F0F1F7",
"o. c #F5F5FC",
"O. c #F7F8FF",
"+. c #F9F9FF",
/* pixels */
"                                                                                                                                ",
"                                                                                                                                ",
"                                                                                                                                ",
"                                                                                                                                ",
"                                                                                                                                ",
"                                                                                                                                ",
"                                                                                                                                ",
"                                                                                                                                ",
"                                                                                                                                ",
"                                                                                                                                ",
"                                                                                                                                ",
"                                                                                                                                ",
"                                                                                                                                ",
"                                                                                                                                ",
"                                                                                                                                ",
"                                                                                                                                ",
"                                                                                                                                ",
"                                                                                                                                ",
"                                                                                                                                ",
"                                                                                                                                ",
"                                                                                                                                ",
"                                                                                                                                ",
"                                                          o + @ + X .                                                           ",
"                                                    X 6 M Q ^ / / W K z > X                                                     ",
"                                                  @ n o.O.O.O.O.+.o.o.o.} v #                                                   ",
"                                                . E +.+.O.O.O.O.O.+.o.o. .} L .                                                 ",
"                                                1 o.o.+.O.O.O.O.o.o.o...| } ] :                                                 ",
"                                                m O.o.o.O.O.O.O.o..... .! J _ i                                                 ",
"                                              . c H I W W ~ ^ ^ ` ` ' ' V g S k                                                 ",
"                                                8 r y p y w 8 5 5 5 5 5 , : < l                                                 ",
"                                                j 2 9 / [ c 0 C 7 3 7 h v v v J X                                               ",
"                                                ^ s F X.X.` M I - = ; C P L L S %                                               ",
"                                              . X.|  ...} ^ ^ ' R N E B x L Z k %                                               ",
"                                              X  .X.X.X.' ^ ^ ^ ^ ^ J q f L C Z $                                               ",
"                                              8 o.o.~ Z Z _ ] | | ' L i C P P Z d                                               ",
"                                            $ ` X.{ } ` J Z W  .| ~ P L ^ ) Y P K :                                             ",
"                                            i } X.X.o.} ' ^ W E ~ L W ] ( T ! W P h O                                           ",
"                                            a O.o.o. .{ ' ' ] } ^ ` | ( ) _ U Z m e .                                           ",
"                                          O M +.o.' k i Q ' ' ] }  .X.' P b f t % .                                             ",
"                                          O A ^ c v 4 & k ^ Q E o.o. .~ b * +                                                   ",
"                                            t Q d e , & , C h > Q { Q Z e                                                       ",
"                                            . a P Q k $ $ k D z ' G b u O                                                       ",
"                                                @ # O X . O u H D d > .                                                         ",
"                                                              . X                                                               ",
"                                                                                                                                ",
"                                                                                                                                ",
"                                                                                                                                ",
"                                                                                                                                ",
"                                                                                                                                ",
"                                                                                                                                ",
"                                                                                                                                ",
"                                                                                                                                ",
"                                                                                                                                ",
"                                                                                                                                ",
"                                                                                                                                ",
"                                                                                                                                ",
"                                                                                                                                ",
"                                                                                                                                ",
"                                                                                                                                ",
"                                                                                                                                ",
"                                                                                                                                ",
"                                                                                                                                ",
"                                                                                                                                ",
"                                                                                                                                "
};
