/* XPM */
static char *result[] = {
/* columns rows colors chars-per-pixel */
"64 64 128 2 ",
"   c #04080F",
".  c #050A13",
"X  c #090D15",
"o  c #070D19",
"O  c #080E1A",
"+  c #0E1117",
"@  c #0B121C",
"#  c #11151E",
"$  c #0C1523",
"%  c #0F1927",
"&  c #0B1728",
"*  c #0E1A2B",
"=  c #111723",
"-  c #131A25",
";  c #131D2B",
":  c #181E29",
">  c #0E1E32",
",  c #101E31",
"<  c #16212F",
"1  c #1B222D",
"2  c #0F2035",
"3  c #142234",
"4  c #1A2432",
"5  c #1D2937",
"6  c #14253A",
"7  c #1A2738",
"8  c #16293E",
"9  c #1A2A3C",
"0  c #202631",
"q  c #222A34",
"w  c #232E3A",
"e  c #26303C",
"r  c #2A323D",
"t  c #31363D",
"y  c #162740",
"u  c #172B42",
"i  c #1A2E44",
"p  c #182F48",
"a  c #1C3146",
"s  c #1D344B",
"d  c #1F384F",
"f  c #1F3750",
"g  c #222F40",
"h  c #233343",
"j  c #2B3542",
"k  c #2F3944",
"l  c #21364B",
"z  c #22384D",
"x  c #2C3B4C",
"c  c #323A43",
"v  c #323E4B",
"b  c #223B52",
"n  c #2A3E52",
"m  c #36424E",
"M  c #3A414B",
"N  c #3F484F",
"B  c #254057",
"V  c #2B4156",
"C  c #264159",
"Z  c #2D4459",
"A  c #344453",
"S  c #3A4653",
"D  c #3D4955",
"F  c #31475A",
"G  c #35495B",
"H  c #3C4B5B",
"J  c #3B4E61",
"K  c #3F5163",
"L  c #434C56",
"P  c #424F5C",
"I  c #495057",
"U  c #45515D",
"Y  c #49535D",
"T  c #435464",
"R  c #495663",
"E  c #4C5965",
"W  c #465868",
"Q  c #4D5B69",
"!  c #515A64",
"~  c #585E64",
"^  c #515E6B",
"/  c #585F68",
"(  c #4E606F",
")  c #55626E",
"_  c #5B646D",
"`  c #566472",
"'  c #596672",
"]  c #5D6A76",
"[  c #5E6C78",
"{  c #636C75",
"}  c #6B6F74",
"|  c #626E79",
" . c #6C7275",
".. c #65727D",
"X. c #6A747C",
"o. c #70757A",
"O. c #72787D",
"+. c #6A7681",
"@. c #6D7983",
"#. c #727C85",
"$. c #7A7F85",
"%. c #747F89",
"&. c #787F88",
"*. c #7C8386",
"=. c #76818B",
"-. c #7B848D",
";. c #7D8791",
":. c #7E8991",
">. c #82888D",
",. c #838C94",
"<. c #898D90",
"1. c #8C9295",
"2. c #8C949B",
"3. c #91969B",
"4. c #93999E",
"5. c #8F98A0",
"6. c #949BA2",
"7. c #999EA3",
"8. c #9AA1A6",
"9. c #9DA4AA",
"0. c #A0A6AC",
"q. c #A2A8AD",
"w. c #A5ACB2",
"e. c #A8AEB4",
"r. c #AAB0B5",
"t. c #ADB4B9",
"y. c #B5BCC3",
"u. c None",
/* pixels */
"u.u.u.u.u.u.u.u.u.u.u.u.u.u.u.u.u.u.u.u.u.u.u.u.u.u.u.u.u.u.u.u.u.u.u.u.u.u.u.u.u.u.u.u.u.u.u.u.u.u.u.u.u.u.u.u.u.u.u.u.u.u.u.u.",
"u.u.u.u.u.u.u.u.u.u.u.u.u.u.u.u.u.u.u.u.u.u.u.u.u.u.u.u.u.u.u.u.u.u.u.u.u.u.u.u.u.u.u.u.u.u.u.u.u.u.u.u.u.u.u.u.u.u.u.u.u.u.u.u.",
"u.u.u.u.u.u.u.u.u.u.u.u.u.u.u.u.u.u.u.u.u.u.u.u.u.u.u.u.u.u.u.u.u.u.u.u.u.u.u.u.u.u.u.u.u.u.u.u.u.u.u.u.u.u.u.u.u.u.u.u.u.u.u.u.",
"u.u.u.u.u.u.u.u.u.u.u.u.u.u.u.u.u.u.u.u.u.u.u.u.u.u.u.u.u.u.u.u.u.u.u.u.u.u.u.u.u.u.u.u.u.u.u.u.u.u.u.u.u.u.u.u.u.u.u.u.u.u.u.u.",
"u.u.u.u.u.u.u.u.u.u.u.u.u.u.u.u.u.u.u.u.u.u.u.u.u.u.u.u.u.u.u.u.u.u.u.u.u.u.u.u.u.u.u.u.u.u.u.u.u.u.u.u.u.u.u.u.u.u.u.u.u.u.u.u.",
"u.u.u.u.u.u.u.u.u.u.u.u.u.u.u.u.u.u.u.u.u.u.u.u.u.u.u.u.u.u.u.u.u.u.u.u.u.u.u.u.u.u.u.u.u.u.u.u.u.u.u.u.u.u.u.u.u.u.u.u.u.u.u.u.",
"u.u.u.u.u.u.u.u.u.u.u.u.u.u.u.u.u.u.u.u.u.u.u.u.u.u.u.u.u.u.u.u.u.u.u.u.u.u.u.u.u.u.u.u.u.u._ u.u.u.u.u.u.u.u.u.u.u.u.u.u.u.u.u.",
"u.u.u.u.u.u.u.u.u.u.u.u.u.u.u.u.u.u.u.u.u.u.u.u.u.u.u.u.u.u.u.u.u.u.u.u.u.u.u.u.u.u.u.u.u.q.^ u.u.u.u.u.u.u.u.u.u.u.u.u.u.u.u.u.",
"u.u.u.u.u.u.u.u.u.u.u.u.u.u.u.u.u.u.u.u.u.u.u.u.u.u.u.u.u.u.u.u.u.u.u.u.u.u.u.u.u.u.u.u.u.t._ t u.u.u.u.u.u.u.u.u.u.u.u.u.u.u.u.",
"u.u.u.u.u.u.u.u.u.u.u.u.u.u.u.u.u.u.u.u.u.u.u.u.u.u.u.u.u.u.u.u.u.u.u.u.u.u.u.u.u.u.u.u.u. ._ ! S _ -.u.u.u.u.u.u.u.u.u.u.u.u.u.",
"u.u.u.u.u.u.u.u.u.u.u.u.u.u.u.u.u.u.u.u.u.u.u.u.u.u.u.u.u.u.u.u.u.u.u.u.u.u.u.u.u.u.u.u.u.O./ o.D ) -.G u.u.u.u.u.u.u.u.u.u.u.u.",
"u.u.u.u.u.u.u.u.u.u.u.u.u.u.u.u.u.u.u.u.u.u.u.u.u.u.u.u.u.u.u.u.u.u.u.u.u.u.u.u.u.u.u.u.1.1.$._ I v | v u.u.u.u.u.u.u.u.u.u.u.u.",
"u.u.u.u.u.u.u.u.u.u.u.u.u.u.u.u.u.u.u.u.u.u.u.u.u.u.u.u.u.u.u.u.u.u.u.u.u.u.u.u.u.u.u.u.>.1.>.o.I e c 4 l u.u.u.u.u.u.u.u.u.u.u.",
"u.u.u.u.u.u.u.u.u.u.u.u.u.u.u.u.u.u.u.u.u.u.u.u.u.u.u.u.u.u.u.u.u.u.u.u.u.u.u.u.u.u.u.u.u.1.1. .$._ c ; h l u.u.u.u.u.u.u.u.u.u.",
"u.u.u.u.u.u.u.u.u.u.u.u.u.u.u.u.u.u.u.u.u.u.u.u.u.u.u.u.u.u.u.u.u.u.u.u.u.u.u.u.u.u.u.u.u.u.1. .*.X.D 4 , 9 u.u.u.u.u.u.u.u.u.u.",
"u.u.u.u.u.u.u.u.u.u.u.u.u.u.u.u.u.u.u.u.u.u.u.u.u.u.u.u.u.u.u.u.u.u.u.u.u.u.u.u.u.u.u.u.u.3.1. .o.*.x 9 7 9 l 3 u.u.u.u.u.u.u.u.",
"u.u.u.u.u.u.u.u.u.u.u.u.u.u.u.u.u.u.u.u.u.u.u.u.u.u.u.u.u.u.u.u.u.u.u.u.u.u.u.u.u.u.u.u.3.-.} I ~ { k 1 6 6 3 , u.u.u.u.u.u.u.u.",
"u.u.u.u.u.u.u.u.u.u.u.u.u.u.u.u.u.u.u.u.u.u.u.u.u.u.u.u.u.u.u.u.u.u.u.u.u.u.u.u.u.u.4.4.O.A w ; = t ; X & 6 & > a u.u.u.u.u.u.u.",
"u.u.u.u.u.u.u.u.u.u.u.u.u.u.u.u.u.u.u.u.u.u.u.u.u.u.u.u.u.u.u.u.u.u.u.u.u.u.u.u.*.2.5.2.m 9 x V w N 1 O > 8 p p s u.u.u.u.u.u.u.",
"u.u.u.u.u.u.u.u.u.u.u.u.u.u.u.u.u.u.u.u.u.u.u.u.u.u.u.u.u.u.u.u.u.u.u.u.u.u.u.1.,.2.X.| Q Q R H ^ R m v h y y i s u.u.u.u.u.u.u.",
"u.u.u.u.u.u.u.u.u.u.u.u.u.u.u.u.u.u.u.u.u.u.u.u.u.u.u.u.u.u.u.u.u.u.u.u.u.3.2.;.....| ] ) ..[ [ ] A L R x 3 $ y u i u.u.u.u.u.u.",
"u.u.u.u.u.u.u.u.u.u.u.u.u.u.u.u.u.u.u.u.u.u.u.u.u.u.u.u.u.u.u.u.u.u.u.7.2.#.....E [ [ ' ` ..' U v ; - h , - & * & u u.u.u.u.u.u.",
"u.u.u.u.u.u.u.u.u.u.u.u.u.u.u.u.u.u.u.u.u.u.u.u.u.u.u.u.u.u.u.u.u.7.#.3...Q ( H ( ] [ ` ! T m $ o $ X $ O $ $ > > p s u.u.u.u.u.",
"u.u.u.u.u.u.u.u.u.u.u.u.u.u.u.u.u.u.u.u.u.u.u.u.u.u.u.u.u.u.u.u.3.1.Q H A [ ) K ' ' ' Q G a 3 O $ 6 3 * & * $ $ > a s s u.u.u.u.",
"u.u.u.u.u.u.u.u.u.u.u.u.u.u.u.u.u.u.u.u.u.u.u.u.u.u.u.u.u.u.u.4.7. .e > $ k ! ' ` R g ; , $ @ o % $ w $ % ; : j u p 6 p d u.u.u.",
"u.u.u.u.u.u.u.u.u.u.u.u.u.u.u.u.u.u.u.u.u.u.u.u.u.u.u.u.u.u.6.4.,._ A * * $ q H v : $ $ * 3 9 o . $ v , , 6 i p f s s u d u.u.u.",
"u.u.u.u.u.u.u.u.u.u.u.u.u.u.u.u.u.u.u.u.u.u.u.u.u.u.u.u.4.7.#._ / < ; & a 9 $ w ; - $ , s z a i ; p y p h l p s f d f 2 s u.u.u.",
"u.u.u.u.u.u.u.u.u.u.u.u.u.u.u.u.u.u.u.u.u.u.u.u.u.u.u.7.0.@.^ P Y I A x z 8 9 3 * * 8 s i 3 s 7 i g g p b b b f b b B a u z u.u.",
"u.u.u.u.u.u.u.u.u.u.u.u.u.u.u.u.u.u.u.u.u.u.u.u.u.2.0.e.q. .j 9 3 j ) D V V V z u x G G ; O 7 * g l z b z b b b b b f z a b u.u.",
"u.u.u.u.u.u.u.u.u.u.u.u.u.u.u.u.u.u.u.u.u.u.u.u.q.r.0.e.4._ i O - ' ' Q ' [ [ ` Q | L g $ * $ * > l z f b b b f b b b Z A a G u.",
"u.u.u.u.u.u.u.u.u.u.u.u.u.u.u.u.u.u.u.u.u.u.u.e.q.7.#.#.&.L ; $ 3 X...' [ ..[ ) U A ; $ 6 p u 3 y b b b b b b b b b Z G K T A u.",
"u.u.u.u.u.u.u.u.u.u.u.u.u.u.u.u.u.u.u.u.u.8.r.r.q.{ A i v ; 3 z 9  .Y D c w < 0 ; $ $ > u f f f f b b C z b b C C J T T T T U u.",
"u.u.u.u.u.u.u.u.u.u.u.u.u.u.u.u.u.u.u.2.r.w.t.r.8.U u u i s W Q H D w - $ < ; @ * $ & * s z f b b B d B b b F F J G A v A w 1 u.",
"u.u.u.u.u.u.u.u.u.u.u.u.u.u.u.u.u.u.8.t.r.9.2.,.@.| ) F C b H [ X.] m ; - $ @ * a u a u s b b b B b b B Z x h j w e 4 +   4 4 u.",
"u.u.u.u.u.u.u.u.u.u.u.u.u.u.u.u.u.t.e.e.9.2.=.+.@.+.+.| ( T T [ ..' _ h 9 9 a s d b B b f b B b s a 9 4 - +   + X + X . . - u.u.",
"u.u.u.u.u.u.u.u.u.u.u.u.u.u.u.w.t.t.9.2.=.=.@.+.....@.@.[ ] +._ H H S x Q V V b z z B x n l j 9 ; ; * # X # - - - @ & u.u.u.u.u.",
"u.u.u.u.u.u.u.u.u.u.u.u.u.7.t.r.q.2.:.=.@.@.#...[ ] ..] ..] ..| H R m H ) ) W A z x x h 5 ; < ; + < w @ - q u.u.u.u.u.u.u.u.u.u.",
"u.u.u.u.u.u.u.u.u.u.u.u.0.y.y.9.,.@...@.+.X.=.=.....] ..[ | +.' .._ 9 x W H A j e X 1 ; 1 q $ o   . @ u.u.u.u.u.u.u.u.u.u.u.u.u.",
"u.u.u.u.u.u.u.u.u.u.u.0.y.0.2.@.X...=.+.@...@...@.' ] ..[ ..] Q E D M r e 0 e 1 1 < ; * + o $ u.u.u.u.u.u.u.u.u.u.u.u.u.u.u.u.u.",
"u.u.u.u.u.u.u.u.u.2.t.t.5.;.#.| ..=.+.| +.@.=.+.X...| ] Q R U e 4 3 1 +   + 1 o - ; - u.u.u.u.u.u.u.u.u.u.u.u.u.u.u.u.u.u.u.u.u.",
"u.u.u.u.u.u.u.u.0.0.5.;.@.%.#.+...#.#.X.X.+.[ ` Q M m r r 0 ; - ; + @ O @ & - u.u.u.u.u.u.u.u.u.u.u.u.u.u.u.u.u.u.u.u.u.u.u.u.u.",
"u.u.u.u.u.u.1.w.5.;.&.&.+.%.@.@.......) Q Q S j 1 @ = X X X O @ $ $ u.u.u.u.u.u.u.u.u.u.u.u.u.u.u.u.u.u.u.u.u.u.u.u.u.u.u.u.u.u.",
"u.u.u.u.u.9.8.-.@.#.%.%.@.' ` ^ Y k q w - # @ + o 4 @ . @ $ u.u.u.u.u.u.u.u.u.u.u.u.u.u.u.u.u.u.u.u.u.u.u.u.u.u.u.u.u.u.u.u.u.u.",
"u.u.u.0.9.:.-.%.@.X.' ~ U U k : w 1 + < 4 o X . + j u.u.u.u.u.u.u.u.u.u.u.u.u.u.u.u.u.u.u.u.u.u.u.u.u.u.u.u.u.u.u.u.u.u.u.u.u.u.",
"u.u.6.,.@.' _ R c k r e - # X o - 1 . - + = u.u.u.u.u.u.u.u.u.u.u.u.u.u.u.u.u.u.u.u.u.u.u.u.u.u.u.u.u.u.u.u.u.u.u.u.u.u.u.u.u.u.",
"u.>.` / ^ S j q : # ; ; - o o $ $ u.u.u.u.u.u.u.u.u.u.u.u.u.u.u.u.u.u.u.u.u.u.u.u.u.u.u.u.u.u.u.u.u.u.u.u.u.u.u.u.u.u.u.u.u.u.u.",
"u.u.I : X o = $ @ . $ @ ; u.u.u.u.u.u.u.u.u.u.u.u.u.u.u.u.u.u.u.u.u.u.u.u.u.u.u.u.u.u.u.u.u.u.u.u.u.u.u.u.u.u.u.u.u.u.u.u.u.u.u.",
"u.<.M - . o @ $ $ u.u.u.u.u.u.u.u.u.u.u.u.u.u.u.u.u.u.u.u.u.u.u.u.u.u.u.u.u.u.u.u.u.u.u.u.u.u.u.u.u.u.u.u.u.u.u.u.u.u.u.u.u.u.u.",
"u.#.e - $ $ u.u.u.u.u.u.u.u.u.u.u.u.u.u.u.u.u.u.u.u.u.u.u.u.u.u.u.u.u.u.u.u.u.u.u.u.u.u.u.u.u.u.u.u.u.u.u.u.u.u.u.u.u.u.u.u.u.u.",
"u.u.u.u.u.u.u.u.u.u.u.u.u.u.u.u.u.u.u.u.u.u.u.u.u.u.u.u.u.u.u.u.u.u.u.u.u.u.u.u.u.u.u.u.u.u.u.u.u.u.u.u.u.u.u.u.u.u.u.u.u.u.u.u.",
"u.u.u.u.u.u.u.u.u.u.u.u.u.u.u.u.u.u.u.u.u.u.u.u.u.u.u.u.u.u.u.u.u.u.u.u.u.u.u.u.u.u.u.u.u.u.u.u.u.u.u.u.u.u.u.u.u.u.u.u.u.u.u.u.",
"u.u.u.u.u.u.u.u.u.u.u.u.u.u.u.u.u.u.u.u.u.u.u.u.u.u.u.u.u.u.u.u.u.u.u.u.u.u.u.u.u.u.u.u.u.u.u.u.u.u.u.u.u.u.u.u.u.u.u.u.u.u.u.u.",
"u.u.u.u.u.u.u.u.u.u.u.u.u.u.u.u.u.u.u.u.u.u.u.u.u.u.u.u.u.u.u.u.u.u.u.u.u.u.u.u.u.u.u.u.u.u.u.u.u.u.u.u.u.u.u.u.u.u.u.u.u.u.u.u.",
"u.u.u.u.u.u.u.u.u.u.u.u.u.u.u.u.u.u.u.u.u.u.u.u.u.u.u.u.u.u.u.u.u.u.u.u.u.u.u.u.u.u.u.u.u.u.u.u.u.u.u.u.u.u.u.u.u.u.u.u.u.u.u.u.",
"u.u.u.u.u.u.u.u.u.u.u.u.u.u.u.u.u.u.u.u.u.u.u.u.u.u.u.u.u.u.u.u.u.u.u.u.u.u.u.u.u.u.u.u.u.u.u.u.u.u.u.u.u.u.u.u.u.u.u.u.u.u.u.u.",
"u.u.u.u.u.u.u.u.u.u.u.u.u.u.u.u.u.u.u.u.u.u.u.u.u.u.u.u.u.u.u.u.u.u.u.u.u.u.u.u.u.u.u.u.u.u.u.u.u.u.u.u.u.u.u.u.u.u.u.u.u.u.u.u.",
"u.u.u.u.u.u.u.u.u.u.u.u.u.u.u.u.u.u.u.u.u.u.u.u.u.u.u.u.u.u.u.u.u.u.u.u.u.u.u.u.u.u.u.u.u.u.u.u.u.u.u.u.u.u.u.u.u.u.u.u.u.u.u.u.",
"u.u.u.u.u.u.u.u.u.u.u.u.u.u.u.u.u.u.u.u.u.u.u.u.u.u.u.u.u.u.u.u.u.u.u.u.u.u.u.u.u.u.u.u.u.u.u.u.u.u.u.u.u.u.u.u.u.u.u.u.u.u.u.u.",
"u.u.u.u.u.u.u.u.u.u.u.u.u.u.u.u.u.u.u.u.u.u.u.u.u.u.u.u.u.u.u.u.u.u.u.u.u.u.u.u.u.u.u.u.u.u.u.u.u.u.u.u.u.u.u.u.u.u.u.u.u.u.u.u.",
"u.u.u.u.u.u.u.u.u.u.u.u.u.u.u.u.u.u.u.u.u.u.u.u.u.u.u.u.u.u.u.u.u.u.u.u.u.u.u.u.u.u.u.u.u.u.u.u.u.u.u.u.u.u.u.u.u.u.u.u.u.u.u.u.",
"u.u.u.u.u.u.u.u.u.u.u.u.u.u.u.u.u.u.u.u.u.u.u.u.u.u.u.u.u.u.u.u.u.u.u.u.u.u.u.u.u.u.u.u.u.u.u.u.u.u.u.u.u.u.u.u.u.u.u.u.u.u.u.u.",
"u.u.u.u.u.u.u.u.u.u.u.u.u.u.u.u.u.u.u.u.u.u.u.u.u.u.u.u.u.u.u.u.u.u.u.u.u.u.u.u.u.u.u.u.u.u.u.u.u.u.u.u.u.u.u.u.u.u.u.u.u.u.u.u.",
"u.u.u.u.u.u.u.u.u.u.u.u.u.u.u.u.u.u.u.u.u.u.u.u.u.u.u.u.u.u.u.u.u.u.u.u.u.u.u.u.u.u.u.u.u.u.u.u.u.u.u.u.u.u.u.u.u.u.u.u.u.u.u.u.",
"u.u.u.u.u.u.u.u.u.u.u.u.u.u.u.u.u.u.u.u.u.u.u.u.u.u.u.u.u.u.u.u.u.u.u.u.u.u.u.u.u.u.u.u.u.u.u.u.u.u.u.u.u.u.u.u.u.u.u.u.u.u.u.u."
};
