/* XPM */
static char *result[] = {
/* columns rows colors chars-per-pixel */
"64 64 231 2 ",
"   c #0C0A06",
".  c #0E0C09",
"X  c #070805",
"o  c #120F0A",
"O  c #120C06",
"+  c #0E110D",
"@  c #14120D",
"#  c #0E1412",
"$  c #0F1E1C",
"%  c #141612",
"&  c #151916",
"*  c #151C1A",
"=  c #1A1E1B",
"-  c #181A17",
";  c #201F19",
":  c #1B211E",
">  c #17201E",
",  c #22241D",
"<  c #29271E",
"1  c #2D281F",
"2  c #1C2422",
"3  c #192826",
"4  c #1C312F",
"5  c #222622",
"6  c #242924",
"7  c #2B2C24",
"8  c #252B29",
"9  c #2A2D2A",
"0  c #312E24",
"q  c #2D322D",
"w  c #26312D",
"e  c #343126",
"r  c #33332C",
"t  c #39352B",
"y  c #3B392E",
"u  c #2B3431",
"i  c #2B3936",
"p  c #343532",
"a  c #353A33",
"s  c #3B3B34",
"d  c #3D3C39",
"f  c #383732",
"g  c #433B2E",
"h  c #493D2D",
"j  c #433D33",
"k  c #4A3E31",
"l  c #413F3A",
"z  c #3D433C",
"x  c #35403B",
"c  c #444137",
"v  c #4B4234",
"b  c #44433C",
"n  c #4B463C",
"m  c #4C493E",
"M  c #47493F",
"N  c #534B3D",
"B  c #554838",
"V  c #4C402E",
"C  c #64523F",
"Z  c #334D4A",
"A  c #285553",
"S  c #464541",
"D  c #494642",
"F  c #444B43",
"G  c #4C4B43",
"H  c #4F4D49",
"J  c #524E44",
"K  c #514F4A",
"L  c #584E40",
"P  c #4A524A",
"I  c #555145",
"U  c #5B5345",
"Y  c #55534C",
"T  c #5A554B",
"R  c #5D594D",
"E  c #56584F",
"W  c #565450",
"Q  c #595651",
"!  c #5C5A53",
"~  c #585A53",
"^  c #625545",
"/  c #625749",
"(  c #645B4C",
")  c #6A5D4C",
"_  c #695A46",
"`  c #635E53",
"'  c #625E59",
"]  c #695E51",
"[  c #715E48",
"{  c #5E625A",
"}  c #4C625B",
"|  c #74634C",
" . c #7B654A",
".. c #656255",
"X. c #6B6355",
"o. c #64625B",
"O. c #6B655B",
"+. c #6D695C",
"@. c #746756",
"#. c #736B5C",
"$. c #786E5D",
"%. c #776956",
"&. c #7A715F",
"*. c #67604F",
"=. c #58756D",
"-. c #4F6F69",
";. c #6B6761",
":. c #6C6A63",
">. c #6B6C66",
",. c #736D62",
"<. c #766F64",
"1. c #757264",
"2. c #7C7363",
"3. c #7C7569",
"4. c #78766C",
"5. c #7A7872",
"6. c #6F7267",
"7. c #826C53",
"8. c #84745D",
"9. c #8A765C",
"0. c #947C5F",
"q. c #94795A",
"w. c #817665",
"e. c #847966",
"r. c #8C7962",
"t. c #837B6A",
"y. c #8A7E6A",
"u. c #897763",
"i. c #957E63",
"p. c #937F67",
"a. c #837E72",
"s. c #867F75",
"d. c #54827B",
"f. c #79877C",
"g. c #8D826D",
"h. c #86816D",
"j. c #93846D",
"k. c #9B856B",
"l. c #9A8668",
"z. c #8C8273",
"x. c #84827C",
"c. c #8B867A",
"v. c #898879",
"b. c #938672",
"n. c #958A73",
"m. c #9B8C74",
"M. c #938C7C",
"N. c #9C8D7B",
"B. c #958775",
"V. c #9D9077",
"C. c #9E927B",
"Z. c #94927F",
"A. c #A58D6C",
"S. c #A49174",
"D. c #A3947B",
"F. c #AC9A7D",
"G. c #A8977B",
"H. c #B29B79",
"J. c #A08E71",
"K. c #B5A07E",
"L. c #518F89",
"P. c #71958B",
"I. c #6FBDB5",
"U. c #7FA194",
"Y. c #70C3BB",
"T. c #978F82",
"R. c #849285",
"E. c #9D9384",
"W. c #989687",
"Q. c #8C8881",
"!. c #A39582",
"~. c #AC9B83",
"^. c #A39B8A",
"/. c #A79B8C",
"(. c #B09E86",
"). c #AA9D94",
"_. c #A69C93",
"`. c #95A797",
"'. c #AAA18D",
"]. c #B3A285",
"[. c #B4A38A",
"{. c #B9A68C",
"}. c #BDAA8D",
"|. c #B9A88A",
" X c #AEA393",
".X c #A8A698",
"XX c #B2A594",
"oX c #B3A995",
"OX c #B5AB9C",
"+X c #B8A997",
"@X c #BCB39D",
"#X c #B9B59A",
"$X c #A6B29F",
"%X c #95B2A5",
"&X c #A8B8A8",
"*X c #BCB3A3",
"=X c #BAB7A9",
"-X c #B3AAA1",
";X c #C1AC8E",
":X c #C2AE92",
">X c #C3AF9A",
",X c #C5B194",
"<X c #CBB596",
"1X c #C5B39B",
"2X c #CAB69C",
"3X c #CDB99B",
"4X c #D3BC9D",
"5X c #C2B6A5",
"6X c #C4BBAC",
"7X c #C2BAA7",
"8X c #C4BFB3",
"9X c #9ACCBC",
"0X c #A6C5B6",
"qX c #B8C8B5",
"wX c #BED0BE",
"eX c #B2C3AD",
"rX c #D7C09F",
"tX c #C4C4AD",
"yX c #D7C3A6",
"uX c #C9C6B8",
"iX c #DAC9B0",
"pX c #E3D1B7",
"aX c #E3CEB0",
"sX c #B6CFC7",
"dX c #ABE2DA",
"fX c #ABE2D7",
"gX c #D1D3C7",
"hX c #E8DECF",
"jX c #D7EEEB",
"kX c #DAEBE2",
"lX c None",
/* pixels */
"lXlXlXlXlXlXlXlXlXlXlXlXlXlXlXlXlXlXlXlXlXlXlXlXlXlXlXlXlXlXlXlXlXlXlXlXlXlXlXlXlXlXlXlXlXlXlXlXlXlXlXlXlXlXlXlXlXlXlXlXlXlXlXlX",
"lXlXlXlXlXlXlXlXlXlXlXlXlXlXlXlXlXlXlXlXlXlXlXlXlXlXlXlXlXlXlXlXlXlXlXlXlXlXlXlXlXlXlXlXlXlXlXlXlXlXlXlXlXlXlXlXlXlXlXlXlXlXlXlX",
"lXlXlXlXlXlXlXlXlXlXlXlXlXlXlXlXlXlXlXlXlXlXlXlXlXlX9X0XeXeX$X'.W.^.$X$XeX9XlXlXlXlXlXlXlXlXlXlXlXlXlXlXlXlXlXlXlXlXlXlXlXlXlXlX",
"lXlXlXlXlXlXlXlXlXlXlXlXlXlXlXlXlXlXlXlXlXlX9XtXtX#XrX3X,X,X}.|.].].G.V.g.n.C..X$X9XlXlXlXlXlXlXlXlXlXlXlXlXlXlXlXlXlXlXlXlXlXlX",
"lXlXlXlXlXlXlXlXlXlXlXlXlXlXlXlXlXlXlXlXuX5X2X4X3X3X3X<X,X}.}.}.|.].].'.F.C.n.h.n.W.`.$XlXlXlXlXlXlXlXlXlXlXlXlXlXlXlXlXlXlXlXlX",
"lXlXlXlXlXlXlXlXlXlXlXlXlXlXlXlXlXjXgXeX#X3X4X2X3X<X3X3X<X,X}.|.].].F.F.F.C.C.n.j.h.m.Z.M.&XY.lXlXlXlXlXlXlXlXlXlXlXlXlXlXlXlXlX",
"lXlXlXlXlXlXlXlXlXlXlXlXlXlXlXlXjXuX#X,XrXrX4X4X3XyXyX<X,X}.}.|.'.F.'.G.G.G.G.C.C.n.g.h.&.v.n.`.lXlXlXlXlXlXlXlXlXlXlXlXlXlXlXlX",
"lXlXlXlXlXlXlXlXlXlXlXlXlXlXkXuX*X|.<XyXrXrXiXpXhXhX3X#X,X}.}.|.'.G.F.F.C.G.C.V.V.n.n.h.n.#.f.v.Z.I.lXlXlXlXlXlXlXlXlXlXlXlXlXlX",
"lXlXlXlXlXlXlXlXlXlXlXlXlXqX#X2X4X4XaXaXpXaX4X5X}.].}.;X:X}.[.(.F.G.G.G.S.V.n.V.n.n.z.n.3.&.2.1.f.v.U.lXlXlXlXlXlXlXlXlXlXlXlXlX",
"lXlXlXlXlXlXlXlXlXlXlXlXuXuXtXyXyXrX4X4X<X<X<X<X,X:X}.:X{.[.(.(.F.C.C.V.V.n.n.n.b.g.h.z.n.&.&.2.%.v.v.R.lXlXlXlXlXlXlXlXlXlXlXlX",
"lXlXlXlXlXlXlXlXlXlXlXeX@X[.3XrXrXrX4X4X4X<X<X<X:X,X;X}.[.[.(.~.G.V.C.V.V.n.b.j.g.h.h.h.g.h.h.&.%.f.f.h.R.lXlXlXlXlXlXlXlXlXlXlX",
"lXlXlXlXlXlXlXlXlXlXqX].].3XrXrX4X4X4X<X>X<X<X:X:X:X}.[.[.(.G.~.C.V.V.V.n.b.g.h.t.t.3.3.3.h.e.2.X.&.1.&.f.f.lXlXlXlXlXlXlXlXlXlX",
"lXlXlXlXlXlXlXlXlXtXH.F.|.|.<XrX4X2X2X>X>X;X>X:X:X;X(.(.(.(.D.D.V.V.n.j.j.g.h.3.3.3.4.2.3.e.2.#.^ ( *.+.6.f.f.lXlXlXlXlXlXlXlXlX",
"lXlXlXlXlXlXlXlXqX;XH.H.F.|.3X5X4X>X:X:X:X:X:X;X}.(.{.(.(.~.!.D.m.n.j.g.g.h.3.3.3.1.,.<.1.2.1.#._ ( R ..X.4.&.f.lXlXlXlXlXlXlXlX",
"lXlXlXlXlXlXlXfX|.].H.H.F.XX2X2X>X>X>X>X{.{.:X{.+X(./.(.~.!.D.D.m.n.g.g.h.e.2.1.,.,.:.,.#.,.#.#.R R U +.....{ 6.L.lXlXlXlXlXlXlX",
"lXlXlXlXlXlXlX@X].H.S.A.A.{.>X>X>X:X;X(.(.(.{.(.(.~.!.~.~.D.m.N.n.j.g.h.u.3.3.&.,.;.:.O.:.,.o.O.*.C N R R R R ..:.lXlXlXlXlXlXlX",
"lXlXlXlXlXlXqX|.H.p.i.p.p.(.(.(.{.{.(.(.H.(.(.(.~.~.!.!.D.N.m.b.p.y.u.w.w.w.w.,.;.;.;.;.;.;.' ' { E T I U *.I U { =.lXlXlXlXlXlX",
"lXlXlXlXlXjX6XF.p.!.~.S.p.p.H.p.N.p.p.G.S.S.!.S.G.!.!.D.m.N.b.z.y.s.w.w.<.w.,.;.o.;.;.;.;.' ' ' { R R R I n N I U { L.lXlXlXlXlX",
"lXlXlXlXlXgX@XG.p.).N.N.S.H.i.i.p.p.S.!.A.N.S.!.!.!.N.D.m.B.j.p.y.t.w.<.<.<.,.O.;.;.>.>.' ' Q ! R { R E I m m I I ~ -.lXlXlXlXlX",
"lXlXlXlXdX=X~.S.N.+X_.p.S.i.A.p.N.p.p.p.p.p.!.N.!.N.N.N.B.j.p.t.u.w.<.<.<.#.;.;.>.s.>.' ! ! ` Q ! R R m n n m N m E E d.lXlXlXlX",
"lXlXlXlXsX*Xk.k.).).+X+Xm.i.0.i.N.A.i.i.p.s.p.E.N.N.b.y.y.h.g.u.w.2.<.,.;.#.O.,.5.5.Q Q ` W Q W R R T I v D y v M M P } lXlXlXlX",
"lXlXlXlXqX-XN.B.-X).-X).N.i.p.i.i.0.0.i.p.u.p.s.y.y.s.t.e.u.w.w.2.<.<.O.O.;.;.] ;.' ' Q Q Q W W Y Y I T G c z z z M M P lXlXlXlX",
"lXlXlXjXgX=XXXE.).).).).!.8.r.r.q.i.9.9.u.u.u.8.$.8.e.e.2.w.2.2.<.$.$.O.O.O.;.' ;.Q Q Q Q Y W W Y I T T U G n M M z M z -.lXlXlX",
"lXlXlXkXhX5X=X_._.).).).T.9.r.u.i.i.p.q.9.w.8.@.X.w.w.2.2.&.&.<.$.,.#.O.O.O.' ' Q W W ' Q Y K K I I I I I I m M M z z M Z lXlXlX",
"lXlXlXgX6X5XOX-X6X-X).-X_.y.u.u.r.p.p.q.7.@.w.w.$.X.$.8.$.$.1.#.#.O.;.O.X.X.` ` Q Q Q ! W K K Y H I I I m m n y x z z x x lXlXlX",
"lXlXdX8X6X5X5X5X-XOX-X).E.y.j.r.8.9.s.7.| @.w.w.w.$.$.$.$.$.#.#.O.O.X.X.X.' ` Q W W W K H H K K ! I G m m m M x e t z x u A lXlX",
"lXlXfX8X8X8X5X@X+XOX+X)._.!.D.y.u.7.u.7. . .#.2.&.2.2.%.#.#.#.+.O.] O.' ' ! ( Q W W W K H H H D G G G M m m c y y r x u x A lXlX",
"lXlXsX8XgX=X5X6X5X{. X).).T.s.u.r.q.7.7.7. .X.@.&.2.$.,.#.#.#.@.@.] ' ` ' ( Q W W W Q H H H S S n n v M M M c x x r q q w x lXlX",
"lXlX&X*X=X-X*XuX+XXXXX).~.s.%.7.p.7.7. ._ ) ] X.$.$.#.X.@.#.@.X.] ] ` ' ' ' W ' W ' ~ H K G D G G S b b V z y q q a q q w w lXlX",
"lXlX&XOX*XXXOXOX XXX*X).!.w.%.| $.| [ [ _ ) ] X.#.#.#.#.X.....X.] ` ;./ ' ' ' ' W H H D S D S S S n b c z z y t q q q w w 4 lXlX",
"lXlX&XOXOXXXOX X+X5X X^.T.w.) / %.[  .[ _ / O.@.$.#.O.X.X.( ( ..] ;.] W Q Y Y ' H H S S S S S b c c c s x y t x q q w 8 3 4 lXlX",
"lXlX$XoXOXoX X XXX-X^.E.!.s._ ^ X.C [ [ _ I ] X.] @.@.X.) I U ..O.' W ` K Q Y H D S H S S l S d d d z s x y y r 7 6 6 3 : 3 lXlX",
"lXlX`.oXoXXX X X_.=X^.E.T.,.) _ ^ ^ L _ ^ ( L X.@.X.#.@.) J U ;.] T Q Y J K K G S S S l l l d d d d d p g 9 9 9 8 5 2 2 3 3 lXlX",
"lXlX$XoXXXXX'.'.^.E.B.B.B.<.( ] _ [ C X._ U ^ ( R X.X.) ( U T ( Y I K J J K D D S S S l d d d d p d f f p 9 9 8 5 = > 2 3 * lXlX",
"lXlX%X X X X'./.E.E.a.O.a.Q @.;./ ) ( ^ U N C ^ ) #.,...( ( N I J J K J J K D S S d l d d f f f p p p p 9 9 8 8 5 = > * > > lXlX",
"lXlX%X'. X'.^.^.E.T.<.] ] W t.y.$.<.( U L Y B n ( 4.' ` k n n I n j J D D D S l S l d d d f f f p p p 9 9 8 8 5 = * * # > > lXlX",
"lXlX%X.X'._.^.^.T.<./ @.] ` M.2.@.@.@.U ] ' n B ( T n N h j j k k n J J G D l l l d d p p p p p u u 9 9 9 5 2 = & $ # * * > lXlX",
"lXlX%XW./.^.W.!.s./ %.t.w.2.s.w.w.) <.2.s.` J n T U v v h h h g g l n l D l n l d d d f p p p p 9 8 8 8 8 5 2 * & & % % # $ lXlX",
"lXlXlX`.^.^.!.T.t.X.y.a.e.#.@.2.@.,.s.s.5.U n v N U j k v k h g t j l l D l l l d d f p p p 9 9 9 8 8 8 2 2 = # # $ # % & $ lXlX",
"lXlXlXW.W.E.E.T.t.s.t.w.#./ / 3.<.s.Q.,.] B n v v U n g h g j h j G G D k l j j d f p p 9 9 9 8 8 8 5 2 = = - - # # % % % lXlXlX",
"lXlXlX`.W.W.T.t.e.2.e.2.%._ / #.w.s.Q.>.( ] k k V h j j V k h t j l s f s y s p a p p 9 9 9 9 8 8 2 2 2 : > & # # . + @ @ lXlXlX",
"lXlXlXY.R.T.T.t.h.2.e.3.3.#./ 1.<.<.x.5.K U L k B v h h h V V e e t s t r r r y r p p 9 8 8 8 5 2 2 2 > & # # # # % @ @ # lXlXlX",
"lXlXlXlXR.T.T.t.2.1.t.1.2.2.1.:.,.x.x.>.G B L B N N B V h g h g g j t g y r r t r r 9 9 8 8 8 5 2 : > * & & % @ @ @ o @ lXlXlXlX",
"lXlXlXlXU.Q.c.z.3.*.$.#.#.#.1.&.<.s.5.o.I ' ' L N v v v v j h g y t t f t e r e 9 9 7 7 8 5 2 2 * * * & % # + + . @ o @ lXlXlXlX",
"lXlXlXlXlXv.v.c.2.<.#.#.$.#.+.+.;.4.6.6.o.Q K J I J K N c V g t t t y r e 0 7 q 9 7 7 5 5 2 > = > * * & & @ @ @ o o o + lXlXlXlX",
"lXlXlXlXlXP.x.x.2.$.#.+.+.X.O.:.( Q W ' ' S g l I I T ~ J c y t e e e 0 0 9 7 6 5 5 5 2 2 = = * * * & % % & @ @ o o o lXlXlXlXlX",
"lXlXlXlXlXY.f.5.,.#.X...( X.O...` T J J K d t j c g b n s t t t r r r e 7 7 6 6 5 5 : 2 = - * * * % % % @ @ @ o o o   lXlXlXlXlX",
"lXlXlXlXlXlXP.1.f.6.....( ..R ] ' ' ' U n K W D s j n v e 0 e e 0 0 0 9 6 < < , , : = = * * * % # % % % @ @ @ o o o lXlXlXlXlXlX",
"lXlXlXlXlXlXlXf.o.f...{ ....R ..R I Y M n g e j s s s j g e e e e e 1 , , , , : = = - - - % % % % % % @ @ @ @ @ o lXlXlXlXlXlXlX",
"lXlXlXlXlXlXlXI.6.6.6.E R R I R R Y { I m v g y s b r 0 0 0 0 1 6 7 6 , : : : : = = - % - - - % % % % @ @ @ @ o O lXlXlXlXlXlXlX",
"lXlXlXlXlXlXlXlXP.+.:.>.E T R T E I E I G j s g j s 0 7 0 1 1 1 < 7 , , : - : - = & - ; - % - @ @ % @ @ @ o o @ lXlXlXlXlXlXlXlX",
"lXlXlXlXlXlXlXlXlXd.o.{ { T E I I J I G n z s t e 0 7 0 7 < 1 < , , ; , - : : - = % % - - % @ @ @ % @ @ @ o O lXlXlXlXlXlXlXlXlX",
"lXlXlXlXlXlXlXlXlXlX=.{ E P I G P G J M M b y r e 0 7 7 1 1 , , , , : - * - - > & - % @ % % o % @ @ @ @ o O lXlXlXlXlXlXlXlXlXlX",
"lXlXlXlXlXlXlXlXlXlXlX=.E E P G G M M M z c s r 0 0 7 < 5 , , , : - : - * & & - - @ @ % o % @ @ @ @ @ @ o lXlXlXlXlXlXlXlXlXlXlX",
"lXlXlXlXlXlXlXlXlXlXlXlX=.P P m G M b c c s a a p 7 9 7 6 5 , - > > - % & % % % - @ % @ % o o @ @ @ @ @ lXlXlXlXlXlXlXlXlXlXlXlX",
"lXlXlXlXlXlXlXlXlXlXlXlXlX-.F z z z b z z a r a q 8 5 6 , : = = - & & @ + # @ @ @ @ @ @ o % o @ @ @ O lXlXlXlXlXlXlXlXlXlXlXlXlX",
"lXlXlXlXlXlXlXlXlXlXlXlXlXlXL.Z F b z a a a r q q 8 , : - & & - @ % @ @ % % @ @ o % o @ @ @ o o o . lXlXlXlXlXlXlXlXlXlXlXlXlXlX",
"lXlXlXlXlXlXlXlXlXlXlXlXlXlXlXlXA z d i u 8 9 w 8 8 6 : > > > % - @ - % @ @ @ o o @ o o o o o . lXlXlXlXlXlXlXlXlXlXlXlXlXlXlXlX",
"lXlXlXlXlXlXlXlXlXlXlXlXlXlXlXlXlXlXZ u w 8 3 6 3 : : : > - % - % @ @ % % @ o o o o O     O   lXlXlXlXlXlXlXlXlXlXlXlXlXlXlXlXlX",
"lXlXlXlXlXlXlXlXlXlXlXlXlXlXlXlXlXlXlXlXZ 3 3 3 3 : > : : > : - - @ @ @ @ @ o o o O     X lXlXlXlXlXlXlXlXlXlXlXlXlXlXlXlXlXlXlX",
"lXlXlXlXlXlXlXlXlXlXlXlXlXlXlXlXlXlXlXlXlXlXA 4 3 > > > : - % % % % - @ @ o o o @   lXlXlXlXlXlXlXlXlXlXlXlXlXlXlXlXlXlXlXlXlXlX",
"lXlXlXlXlXlXlXlXlXlXlXlXlXlXlXlXlXlXlXlXlXlXlXlXlXlX3 > * : * % % @ % % @ o lXlXlXlXlXlXlXlXlXlXlXlXlXlXlXlXlXlXlXlXlXlXlXlXlXlX",
"lXlXlXlXlXlXlXlXlXlXlXlXlXlXlXlXlXlXlXlXlXlXlXlXlXlXlXlXlXlXlXlXlXlXlXlXlXlXlXlXlXlXlXlXlXlXlXlXlXlXlXlXlXlXlXlXlXlXlXlXlXlXlXlX",
"lXlXlXlXlXlXlXlXlXlXlXlXlXlXlXlXlXlXlXlXlXlXlXlXlXlXlXlXlXlXlXlXlXlXlXlXlXlXlXlXlXlXlXlXlXlXlXlXlXlXlXlXlXlXlXlXlXlXlXlXlXlXlXlX"
};
