/* XPM */
static char *result[] = {
/* columns rows colors chars-per-pixel */
"100 72 197 2 ",
"   c #000000",
".  c #0A0A0B",
"X  c #070809",
"o  c #0E0F11",
"O  c #0F1012",
"+  c #121214",
"@  c #161619",
"#  c #17181B",
"$  c #191A1D",
"%  c #1C1E22",
"&  c #251E22",
"*  c #2D1D21",
"=  c #1F2024",
"-  c #222326",
";  c #232529",
":  c #26292F",
">  c #29292E",
",  c #2A2429",
"<  c #272A30",
"1  c #2B2D33",
"2  c #362D32",
"3  c #2E3135",
"4  c #33353C",
"5  c #35353B",
"6  c #3A2127",
"7  c #732C36",
"8  c #363A42",
"9  c #3A3D44",
"0  c #323742",
"q  c #463F44",
"w  c #3D4047",
"e  c #3E424B",
"r  c #42444C",
"t  c #454A54",
"y  c #494D54",
"u  c #464C5B",
"i  c #4A4D5A",
"p  c #424751",
"a  c #4D515C",
"s  c #52545C",
"d  c #4D5361",
"f  c #515764",
"g  c #555A65",
"h  c #5B5E66",
"j  c #5A5F69",
"k  c #555A6B",
"l  c #565F74",
"z  c #6F5764",
"x  c #5D626C",
"c  c #5B6374",
"v  c #5D667B",
"b  c #60636B",
"n  c #646A76",
"m  c #656B7A",
"M  c #686976",
"N  c #75697C",
"B  c #6C727D",
"V  c #9A2B36",
"C  c #AE2F3C",
"Z  c #B42C38",
"A  c #B1303D",
"S  c #9A3E4B",
"D  c #AC3846",
"F  c #B03F4D",
"G  c #8A4C5E",
"H  c #984151",
"J  c #954B5C",
"K  c #9F4A5A",
"L  c #A34A59",
"P  c #A94856",
"I  c #AB515F",
"U  c #A9404D",
"Y  c #8B576B",
"T  c #945364",
"R  c #9D5162",
"E  c #875C71",
"W  c #915F72",
"Q  c #A95665",
"!  c #88657A",
"~  c #986C7E",
"^  c #AC606F",
"/  c #AD6473",
"(  c #A16B7D",
")  c #B06573",
"_  c #5F6A83",
"`  c #636D82",
"'  c #686F8A",
"]  c #726B84",
"[  c #6B7484",
"{  c #65718C",
"}  c #6C738B",
"|  c #6F798A",
" . c #697384",
".. c #747985",
"X. c #727A8A",
"o. c #77778A",
"O. c #667390",
"+. c #697692",
"@. c #6D7A95",
"#. c #6F7C98",
"$. c #777C95",
"%. c #717E99",
"&. c #7F7D94",
"*. c #8D758A",
"=. c #AC7C8C",
"-. c #BB7C8B",
";. c #B67786",
":. c #A57E90",
">. c #C07D8B",
",. c #7C828E",
"<. c #768093",
"1. c #7B8493",
"2. c #75829D",
"3. c #79859E",
"4. c #7F8897",
"5. c #7986A0",
"6. c #7D8AA4",
"7. c #7785A0",
"8. c #818692",
"9. c #848995",
"0. c #838B9C",
"q. c #8B8D97",
"w. c #94899B",
"e. c #8C919D",
"r. c #AC8697",
"t. c #A7889A",
"y. c #B78695",
"u. c #828EA5",
"i. c #818FA8",
"p. c #888CA1",
"a. c #9F8FA2",
"s. c #8691A5",
"d. c #8B95A5",
"f. c #8592AB",
"g. c #8996AD",
"h. c #8B98AE",
"j. c #9399A5",
"k. c #959CAC",
"l. c #9896A8",
"z. c #8997B0",
"x. c #8D9BB2",
"c. c #919EB5",
"v. c #9A9EB4",
"b. c #A88EA1",
"n. c #AB9AAA",
"m. c #A596A8",
"M. c #B998A7",
"N. c #9CA1AC",
"B. c #94A1B7",
"V. c #9CA3B4",
"C. c #93A2B9",
"Z. c #99A6BB",
"A. c #9DA9BE",
"S. c #9FA8B7",
"D. c #A4A4B4",
"F. c #A3AAB6",
"G. c #A4A5B8",
"H. c #A4ACBB",
"J. c #A8AEBC",
"K. c #AAA3B2",
"L. c #ABB1BE",
"P. c #B8ACBC",
"I. c #C28997",
"U. c #C297A5",
"Y. c #C5ABB9",
"T. c #CFB1BF",
"R. c #D2B1BF",
"E. c #9FABC0",
"W. c #A2AEC2",
"Q. c #A6B1C5",
"!. c #AAB4C6",
"~. c #ABB6C9",
"^. c #AEB9CB",
"/. c #AFB8C7",
"(. c #B1B5C4",
"). c #B1B8C5",
"_. c #B2BCCD",
"`. c #B7BCCB",
"'. c #B4BED0",
"]. c #CBB4C3",
"[. c #C3BECC",
"{. c #CCBCCB",
"}. c #C5B6C4",
"|. c #D0B4C2",
" X c #D0BAC8",
".X c #BAC0CD",
"XX c #B6C1D2",
"oX c #BBC4D5",
"OX c #BDC7D8",
"+X c #BFC8D9",
"@X c #C2C1CE",
"#X c #C2C6D5",
"$X c #C2C9D6",
"%X c #CBC9D7",
"&X c #C5CDDC",
"*X c #C8CFDC",
"=X c #CAC3D2",
/* pixels */
"                                                                                                                                                                                                        ",
"                                                                                                                                                                                                        ",
"                                                                                                                                                                                                        ",
"                                                                                                                                                                                                        ",
"                                                                                                                                                                                                        ",
"                                                                                                                                                                                                        ",
"                                                                                                                                                                                                        ",
"                                                                      . $ $ @     + $ $ $ $ $ #     . % $ @                                                                                             ",
"                                                                + + O s !.).D.X   B d.d.c./.(.L.;   a s.s.s.= @ + X                                                                                     ",
"                                                                F.F.H..X*X*X(.  X X.C.Q.&X*X*X$X3   a C.C.C.6.6.0.e                                                                                     ",
"                                                          3 S.H.*X*X*X_.A.W.^.X  .x.B.^.*X*X*X*XL.y g C.C.C.C.C.c.Z.H...                                                                                ",
"                                                        > j.&X&X&X^.Q.E.B.C.c.% } 2.7.6.g.f.f.g.f.y f C.C.C.^.Z.B.E._.).M .                                                                             ",
"                                                      3 | XX&X^.&XE.c.C.C.C.f.u ` f.B.x.c.x.x.x.6. .| C.Z.Q.^.E.C.E.~.XXOXx X                                                                           ",
"                                                    ; 9.^.~.XXQ.*X~.E.C.E.E.E.+.O.^.*X/.e.k.&X*XA.C.x.z.Z.XXQ.C.E.XXOXQ.XX.Xs 5 @                                                                       ",
"                                                  = e.^.^.oXE.OX+X&XE.z.E.XXoX+.O.~.&X..+ 4 #X*XA.C.6.2.C.A.XXA.^.+X+X+XQ.$X*XQ.a $ +                                                                   ",
"                                                +  .H.+X&X+XoXZ.B.^.g.+.O.7.XX+.+.^.&X4.; r $X*XA.C.5.2.Z.OXZ.C.C.C.Q.+X&X&X*X*Xg.3.m % O                                                               ",
"                                            X - N.XXx.Q.$XXXZ.c.@.2.6.6.+.7.'.@.O.^.*XOX_._.*X&XA.C.6.2.C.C.C.C.C.C.B.W.&X*X*X*XW.f.2.s.k.$ .                                                           ",
"                                          3 ..j.$X&XXXc.z.A.c.2.O.6.C.c.7.#.E.f.@.^.*X*X*X*X*X&XE.6.6.z.C.C.C.C.~.x.2.6.Q.+X*X*X+XW.6.5.A.e.q.;                                                         ",
"                                    X h 9.S._.~.+XQ.XXE.6.6.c.g.O.2.z.C.6.7.'.XX2.c.'.*X*X*X&X*XE.6.z.oX_.C.C.c.f.C.c.+.7.Q.&X&X*X&XA.@.6.+X*XN.q.s                                                     ",
"                                    e S.*XoX^.~.^.~.+XQ.z.6.6.C.7.@.7.z.6.#.E.&X5.g.^.F.X.9.&X*XA.6.C.&X+X~.C.c.7.E.XXz.6.6.~.+X*X*X'.x.%.~.&X*X*XN.x y .                                               ",
"                                  r ~ y.T.XX^.&X~.&X*X'.Q.C.7.f.6.6.#.7.7.O.@._.2.5.b.z @ 0 #X*XE.7.C.&X*X&XS.:.o.z.^.OXE.#.6.Q.+X*X*XoX@.i.'.^.W._.&X/.j y +                                           ",
"                                . K.Q F y.&X&X&X&X&X&X&X&XXXx.@.@.6.7.+.O.+.@.c.2.} Y 7 = 9 #X+XE.6.C.$X*X*Xt.D z { 6.OXOX7.@.x.'.*X*X+X%.+.~.i.O.g.&X*X*X*Xr + + + # # @ @ .                           ",
"                              X ; n.R.{.!.~.*X+XE.oX*X~.^.XXA.Z.2.6.C.f.#.#.7.c.B.$.G / v.E.*XZ.Z.A.Z.Q.+X@XT 6 + 9 _ 7.XXXXE.XX&X*X&X+X'.%.W.z.2.i.H.&X&X&X*X*X~.2.%.O.O.O.9                           ",
"                              $ w.I I t.C.^.*X&X&XE._.XXOX&X&X$Xc.7.E.OXQ.E.XXZ.C.$.Y / c.E.&XZ.XXOX+XXXC.A.(.8 + % 0 @.#.7.'.Q.'.*X'.A.C.@.z.'.OX+XoXG.[.%X&X$X+X+X_.%.@.{ 8       .                   ",
"                              - .XY.Y.n.~.+XOXQ.$XXXn w X.XXQ.*Xc.z.6.c.~.OX&XOXE.#.&.m.C.E.&XG./ U.XXA.C.C.OXH.q + 8 z.z.z.A._.~.E.Q.XX^.#.#.~.*X*X{.I Q }.B.6.C.*X+X^.~.k o       .                   ",
"                              ; $X*X*XH.XX*X+XXXW.u = O ; m XX*XoXXX^.c.c.&X&X&XE.#.+.6.c.C.W.m.K y.~.C.C.C.W.+XW.c.A._.Z.'.oX&X~.E.+X*X&X^.5.~.'.W.G.:.r.D.7.{ 6.Q.*X*X*XH.j.y                         ",
"                            % x ^.&X*XXX~.XX*X+XB.= O + + t !.B.m m Q.~.B.A.&X&X^.z.#.#.6.6.6.( -.M.E.C.c.C.~.~.+X*X+XW.C.~.&X*XXX^.'.*X*X&X6.C.~.^.^.)./.~.A.Z.E.'.*X*X*X*X*XN.b x                     ",
"                            9 Q.C.~.$X*XoXXX*X$X~.g < + < m s.u + + s V._.B.A.^.E.f.7.+.7.z.c.Y l.C.C.C.Z.~.&X_.^._.^.~.Q.Z.+X*X*X'.W.&X*X&X6.7.w.-.>.I.[.*X*X*X*X*X*X*X*X*X*X*X*X.X                    ",
"                            r $XE.A.+X+X+X+X&X&X*XZ.g 3 k x.3.# + + O B *XXX2.g.6.7.7.7.z.+X*Xp.3.i.x.C.Q.&X*X&XQ.Z.~.&X&XE.OX&X*X'.W.+X*XoXg.+.J Z Z F Y.*X*X*X$X+X&X+XOXOXXX+X*X.X                    ",
"                            r &X*X&X&X~.E.^.OXOXXX_.A.Z.E.z._ 1 + + < ,.&XXXz.2.XXOXOX+X*X*X*X*X*XA.i.A.$XOX+X+XE.~.+XOXoXE.'.OX+X^.C.E.'.W.'.6.G V V S m.F..X*XOXQ.+XH.E.A.E._.&X`.                    ",
"                            r &X*X*X&X*X&X_.Z.c.#.@.g.^.&XQ.@.{ % = 0.+X^.g.2.oX&XQ.Z.~.&X*X*X*X*X=Xv.u.XXx.Z.C.C.A.Z.Z.Z.B.Z.Z.Z.c.W.oXE.oXW.7.u & & * r + ,..XXX.X.X.X.XXX_..X.XL.                    ",
"                            8 Q.*X*X*X*X&X+XOX~.#.+.f.^.*X+X'.^.H.H.XXE.2.#.+.2.C.'.OX^.~.OXA.A.#Xy.W p.H.4 /.OX+XoXOXoXOXOXoXOXW.C.C.A.C.A.v.c.i.4.1.3.1.: $ $ $ $ # # # $ $ $ $ #                     ",
"                            r OX*X&XQ.OX^.A.E.Z.f.4 1 | ^.oXh.9 w V.c.B.'._.^.{ z.OX^.^.'.A.C.C.H./ C J ] # l.E.'.^.E.E.E.E.E.oXQ.Q.^.E.XXOXOXOXQ.B.Z.XXC.0.3                                           ",
"                            r *X*X*X'.+XoX'.Q.i.d # + 4 ..s.t @ @ a s.B.c.Z.$XA.B.Q.^.^.h.d u g.B.t.I H M d W.'.+XoXQ.E.~.C.~.+XXXoX+XXX+X^.+X<.k X.'.+XA.B.w                                           ",
"                            r &X&X*X*X*X*X*XoX1.- + + + e l @ + + @ 0.B.O.7.&X*XE.c.^.^.| $ + p.C.c./ S ] @.OX*X*X*X+X'.&X'.&X*X*X*X*X&X+XE.XXe + h *X+XA.B.w                                           ",
"                            p OX*X*XXX&X+XoX^.6.9 # O : d k 1 + + 1 u.B.6.z.&X&XE.E.^.^.u.9 4 g.C.a.Q S ] l '.oXoXoXoX'.oXXXoXXX&X*X+XXX&XQ.OXm r ..*X+XA.B.9                                           ",
"                            5 t.}.#X~.oX^.E.E.E.Z.r 4 X.z.@._ 4 9 0.6.x.'.'.'.*XE.oX_.~._.E.B.C.G./ D R ] % ).Q.E.E.E.E.E.E.E.A.XX&X^.E.oXOXoXOXoXOXOXXXZ.3.>                                           ",
"                            , J R }.&X&X&X*X&X&X&X$XQ._._.f.#.x.XX'.W.6.+.+.#.&XW.XX&X^.Q.oXZ.Z.#X=.R p.A.& _.*X&X+X&X+X&X+X&X&X&X^.B.C.C.Z.C.c.x.d.d.d.s.< X . . . . . . . . . . X                     ",
"                            r |.|.%X*X*X^.^.oXE.E.&X$X*X_.c.f.+.> - 0.oXQ.z.%.+XOXE.Z.Q.+X&X+X+X*X[.l.i.'.u.Z.Z.Z.Z.E.E.E.E.Z.Z.E.C.B.Z.&X$X+Xf.k = = = = + ..L.H.J.H.J.J.H.H.H.H.N.                    ",
"                            2 Q / {.&X*X$X+X&XXXoX*X*X*X_.g.@.8     = &.+X'.x.6.6.2.#.7.c.+X*X*X*XE.v.^.W.oX'.A.C.Q.XXXX'.C.C.c.C.C.C.C.&X*X~.7.0.j.j.j.j.j.).*XXX~.OXQ.A.E.H._.*X@X                    ",
"                            2 =.U.{.^.OX&X&X*X&X~.W.[ g $.H.<.o       M *XoX5.i.+.O.O.O.6.+X*Xx.z.C.'.+X_.~.&X'.E.E.Q.^.&XE.C.c.c.C.E.'.&X&Xz.@.f.Q.Q.Q.Q.Q.+X&XOXXX&XXXXXXXXXOX*X.X                    ",
"                            r ).*X&XW.oX*X*X&XQ.C.j : + 8 <.d.i     9 j.'.C.C.^.Z.i.%.O.2.B.Z.B.c._.oX'.+X^.+X'.~.^.^.Q.C.6.c.C.C.C.Q.&X&X+X6.7.g.A.~.~.^.~.+X&X*X*X&X*X&X*X&X*X*X@X                    ",
"                            3 q.M.U.G.'.&X*XoXQ.Z.; + + + t Z.2.r 5 k.XXZ.c.&X*X'.c.2.@.7.7.2.^.+X*X'.~.'.*X'.~.OX*X&X^.O.O.6.z.c.E.^.*X&XXX5.f.B.E.XXXXXXXX~.Q.~.oX*X&X*X*X&XJ.9.,.                    ",
"                              * L L m.'.&X&X&XOXoXe % + = b OXH.H.XXoXB.x.*X*X*Xn.$.@.i.c.B.A.C.+X&X&XoXQ.+XQ.+X*X&X+XW.O.O.O.+.6.E.+X*X+Xc.#.z.A.A.Z.b.b.V.2.{ 3.Q.*X*X&X/.H.x                         ",
"                              ; [.].].G.'.*XOXA.E.^.k , n &X%X}.}.oXg.f.Q.&X$X].I E c.^.B.E.&XZ.+X&X*X&X'.c.'.+X%X%X!.+.O.+.O.6.2.6.Q.+XXX#.@.Q.&X&X{.U P Y.g.2.z.&X&XOXXXa +                           ",
"                              = a.Q L r.^.&X&X&X&X&X'.`.'.&X].F K *.W.+X^.E.{.F C E v._.c.E.*XZ.OX&X&XoXx.@.%.c.'.%X(.' O.@.x.7.O.g.'.A.B.@.f.'.&X&X+Xm.}.%X+X+X+X*X_.2.#.{ 4           X               ",
"                                ; M.|.[.~.^.&X&X*X*X*X*X'.Z.M.D ! p.C.f.@.+.*.C C E v._.B.E.&XC.E.E.E.z.@.O.@.^.~.;.P J } +.@.6.2.z.&X&XXX#.Q.g.#.6.E.&X&X*X*X*XQ.#.#.O.{ O.9                           ",
"                                . S.&X*X$XOX*X&X&X~.oX*X'.c.k.N +.f.6.@.O.O.} U.*.] c.1.3 u OXoXC.c.i.#.O.O.@.'.'.m.r.-.G @.6.6.B.Q.~.+Xi.@.~.f.O.g.XX&X&X&Xh 4 4 : : : : : +                           ",
"                                X i H.$X*X*X+X^.~.^.+XXXW.x.6.6.6.6.@.%.2.O.#.&X3.2.W.B   ; #X&XE.f.%.@.6.#.E.OX&X^.m.;.r.v.u.c.'.OX~.Q.@.6.'.Q.Z.~.*X_.B h #                                           ",
"                                    g H.*XOX/.C.Q.$X+XE.c.f.7.c.f.#.#.z.6.@.x.&X3.g.^.d.y x $X&XE.7.#.6.6.O.~.OX&XXXm.*.%X_.x.'.*X+XW.i.#.E.+X*X*XH...b +                                               ",
"                                    X s 1.k.H.Q.&X&XQ.z.6.6.c.f.+.#.z.C.f.2.'.oX2.c._.*X*X*X*X*XE.6.6.E.z.7.6.OX&X&XOXE.'.W.'.&X*X^.6.@.5.+X*XN.,.a                                                     ",
"                                      X X t F.L.$X&XW.6.6.Z.x.2.+.6.c.c.6.#.Z.x.#.^.*X*X*X*X*X&XE.6.6.z.x.E.7.^.&X+X'.E.A.OXQ.'.oXZ.+.%.Z.H.F.< X                                                       ",
"                                          X   - J.+Xg.E.+XXXC.B.+.#.z.6.O.2.XX@.+.^.&X&X$X&X&X&XE.x.6.2.E.6.7.x.'.~.C.C.Z.&X&XQ.5.+.2.x.L.+ X                                                           ",
"                                              X ; <.H.$X&X&XXXC.z.Q.f.+.O.7.XX+.O.^.*X,.; r oX*XE.C.7.2.C.E.6.2.z.E.C.c.c.W.OX&Xf.2.B ; - X                                                             ",
"                                                  = 0./.^.XXQ.oXOX+XE.f.C._.oX+.O.^.*XB X - oX*XE.E.7.2.C.z.x.#.6.E.v.E.'.Z.Z.i.a < $                                                                   ",
"                                                  X w d.^.^.^.^.&X^.E.C.E.~.Q.+.O./.*XN.h B $X*XE.x.7.+.6.E.x.2.6.E.^.'.#Xc.c p $                                                                       ",
"                                                      5 9.'.&X/.&XE.B.c.C.C.z.d { z.Z.Z.Z.Z.Z.Z.f.+._ O.#.c.6.6.6.~.&X*X&XQ.m a a a u t t y t r %                                                       ",
"                                                        5 H.*X*X&X~.A.Z.C.C.d.X  .#.%.2.5.5.5.2.5.e u +.#.c.2.z.2.E.&X*X&X&X+XQ.E.E.A.A.V.4.,.1.f +                                                     ",
"                                                          4 k.F.*X*X*X_.E.Q.~.   .z.c.~.*X*X&X&XJ.t d O.#.z.2.6.7.E.XX&X*XoXW.oX*X*X+XXX/.3 # # M X.#                                                   ",
"                                                            . . XX.X.XOX&X*X).X . X.B.!.*X*X*X&X3 X e O.+.@.z.2.6.6.z.&X+XW.OX*X*X*XQ.7.&X/.L.<.{ d.V..                                                 ",
"                                                                - = = B *X*X/.    X.B.Z.!.&X*X$X-   u O.O.O.z.#.6.6.E.&XE.OX&X*X&X*XQ.2./.3 = % $ a B.f +                                               ",
"                                                                      o = = $     # ; ; ; - ; -     + - & 8 d.c.E.E.x.6.B.Z.Z.E.Z.E.z.#.s.O       w x.v $                                               ",
"                                                                                                          X u 6.E.6.6.6.x.E.C.c.B.C.f.#.g.c k u t ` s.1 .                                               ",
"                                                                                                            o 7.6.6.6.x.6.c.6.x.B.B.f.#.g.x d a `  .e                                                   ",
"                                                                                                            . | 2.f.x.i.<.f.2.z.B.c.f.#.f.r < w b t                                                     ",
"                                                                                                            X t  .X. .v } c | X.X.|  .c | ....X.r                                                       ",
"                                                                                                                . . X X X X . . . . . . . . . .                                                         ",
"                                                                                                                                                                                                        ",
"                                                                                                                                                                                                        ",
"                                                                                                                                                                                                        ",
"                                                                                                                                                                                                        ",
"                                                                                                                                                                                                        "
};
