/* XPM */
static char *result[] = {
/* columns rows colors chars-per-pixel */
"64 64 157 2 ",
"   c #000000",
".  c #040708",
"X  c #04090C",
"o  c #0B0C0C",
"O  c #100F0F",
"+  c #060E13",
"@  c #090F14",
"#  c #071016",
"$  c #0A151B",
"%  c #131313",
"&  c #171818",
"*  c #1C1C1C",
"=  c #201F1E",
"-  c #0E1C23",
";  c #0A1D2B",
":  c #0E202B",
">  c #10232D",
",  c #1D272E",
"<  c #0D2334",
"1  c #102430",
"2  c #152A35",
"3  c #1E2931",
"4  c #152A3A",
"5  c #1E2E3C",
"6  c #252424",
"7  c #282727",
"8  c #282827",
"9  c #282728",
"0  c #2B2B2B",
"q  c #2F2F30",
"w  c #333333",
"e  c #383637",
"r  c #3B3B3B",
"t  c #403F3F",
"y  c #41403F",
"u  c #173647",
"i  c #1C3543",
"p  c #1C3B4B",
"a  c #233E4C",
"s  c #1F4259",
"d  c #1B4156",
"f  c #214254",
"g  c #274759",
"h  c #2A4B5C",
"j  c #354753",
"k  c #1E4961",
"l  c #224D65",
"z  c #275269",
"x  c #2B546A",
"c  c #325667",
"v  c #30566B",
"b  c #33596C",
"n  c #2B5872",
"m  c #3B667C",
"M  c #3B6376",
"N  c #444343",
"B  c #494747",
"V  c #484847",
"C  c #4C4B4B",
"Z  c #504F4E",
"A  c #51504F",
"S  c #504F51",
"D  c #545353",
"F  c #585756",
"G  c #595857",
"H  c #575659",
"J  c #595759",
"K  c #5C5B5B",
"L  c #605F5E",
"P  c #61605F",
"I  c #5F5F61",
"U  c #635F60",
"Y  c #55717E",
"T  c #646362",
"R  c #696766",
"E  c #6A6867",
"W  c #696768",
"Q  c #6D6B6A",
"!  c #66696B",
"~  c #716E6E",
"^  c #72706F",
"/  c #6C6F71",
"(  c #656E75",
")  c #726F70",
"_  c #6A747B",
"`  c #747372",
"'  c #797775",
"]  c #7A7877",
"[  c #797778",
"{  c #7D7B7A",
"}  c #757478",
"|  c #817E7D",
" . c #82817F",
".. c #3A6E8B",
"X. c #396A83",
"o. c #506F80",
"O. c #4D7385",
"+. c #477289",
"@. c #4D7688",
"#. c #437C9A",
"$. c #54859B",
"%. c #5A8294",
"&. c #6D8D9A",
"*. c #608493",
"=. c #748C95",
"-. c #778F98",
";. c #7F939B",
":. c #5287A0",
">. c #5E96AF",
",. c #5691AC",
"<. c #5D9BB5",
"1. c #6695A9",
"2. c #7295A4",
"3. c #7A96A3",
"4. c #759BAA",
"5. c #619CB7",
"6. c #619DB8",
"7. c #65A2BA",
"8. c #848382",
"9. c #888785",
"0. c #8A8987",
"q. c #888788",
"w. c #838A8C",
"e. c #8D8C8A",
"r. c #908E8D",
"t. c #92908F",
"y. c #839095",
"u. c #8C9395",
"i. c #84959B",
"p. c #959492",
"a. c #989695",
"s. c #969897",
"d. c #999897",
"f. c #959A9C",
"g. c #9D9B9A",
"h. c #A09F9D",
"j. c #9FA09F",
"k. c #A1A09E",
"l. c #A5A4A3",
"z. c #A8A7A5",
"x. c #AAA9A7",
"c. c #ADACAA",
"v. c #B0AFAD",
"b. c #B1B0AE",
"n. c #B1AFB0",
"m. c #B5B4B2",
"M. c #B8B7B5",
"N. c #BAB9B7",
"B. c #BDBCBA",
"V. c #C0BFBD",
"C. c #C2C1BF",
"Z. c #C5C4C2",
"A. c #C8C7C5",
"S. c #CAC9C7",
"D. c #CDCCCA",
"F. c #D2D1CF",
"G. c #D4D3D1",
/* pixels */
"                                                                                                                                ",
"                                                                                                                                ",
"                                                                                                                                ",
"                                                        @ 2 q 4 4 < < ; ; @ .                                                   ",
"                                                        @ 9 5 4 4 < < ; - + .                                                   ",
"                                                        + , 5 4 4 < < ; ; + .                                                   ",
"                                                      . @ 9 i 4 4 < < < ; $ .                                                   ",
"                                                . X $ ; 2 h v x n k l k d 4 ; - X .                                             ",
"                                            . + : p x ..$.>.7.6.<.<.<.<.,.#...n p < $                                           ",
"                                          X - d m $.1.4.2.i.u.8.u.u.w.u.i.3.4.1.:.X.f : X                                       ",
"                                        + 2 c %.2.i.u.u.9.r.a.] p.p.[ p.t.9.p.u.i.2.$.b 2 # .                                   ",
"                                      $ i M *.i.f.p.g.l.j.s.t.| |  .| e.a.k.k.g.p.f.i.*.M p $ .                                 ",
"                                  . $ a O.&.;.s.l.l.x.c.x.g.9.{ T P { 9.d.x.x.x.z.z.s.y.&.O.f $ .                               ",
"                                  $ g @.=.u.j.x.m.m.v.b.v.j.d.a.^ ~ p.d.j.b.b.b.m.m.c.j.u.=.@.h $                               ",
"                                . u O.=.f.k.b.B.Z.V.M.m.b.z.g.d.{ ] g.g.l.b.M.N.B.Z.B.b.l.j.&.@.u X                             ",
"                                X d Y =.v.b.m.C.Z.C.M.c.b.m.g.d.0.9.d.g.b.b.c.m.V.Z.V.m.b.b.w.Y d X                             ",
"                                o j ( 8.g.c.M.N.M.M.n.g.d.z.l.p.P K p.k.k.d.j.c.m.N.N.m.b.k.8._ j o                             ",
"                                & ! s.d.r.l.N.N.m.m.k.R N L l.' = = ^ x.P y P j.m.m.V.N.z.t.j.x./ *                             ",
"                              o e p.V.B.g.t.c.C.M.n.a.D 0 C c. .8 6 ] b.F 0 A p.b.N.C.v.p.j.C.Z.g.r o                           ",
"                              0 / l.M.N.n.j.p.n.Z.N.c.a.' 9.C.m.Q E b.C.e.' p.c.B.C.b.a.j.v.N.b.l.~ 0 .                         ",
"                            @ S g.M.x.v.Z.B.g.s.n.B.M.m. .P k.h.F A j.k.P | b.m.B.m.d.g.m.Z.b.z.m.g.C O                         ",
"                            0 [ x.c.g.b.V.M.z.p.p.z.c.s.F 0 | ` 8 6 ^  .q D d.b.c.p.0.0.t.b.m.j.x.z.' 0 .                       ",
"                          o D j.V.c.h.z.z.c.c.g.r.p.g.p.~ L a.a.G G t.d.P Q t.j.t.0.' A C | k.z.c.B.a.A o                       ",
"                          % ) n.B.b.M.c.z.m.v.z.g.e.0.r.r.t.z.x.d.a.x.x.p.r.e.0.e. .F w y R z.Z.m.N.x.Q &                       ",
"                          6 r.F.N.m.M.m.x.v.c.h.a.t.r.9.| 9.r.0.a.a.e.t. . . .e.t.' V e G | v.D.B.m.C.8.7                       ",
"                          = 8.Z.z.m.b.l.x.z.x.h.h.h.h.| | r.a.| k.k. .d.a.{  .j.j.9.E ' t.l.c.C.B.z.N.| 6                       ",
"                          & L h.e.t.p.e.t.h.v.l.h.n.v.p.0.h.h.| d.d.] k.k. .t.c.m.g.r.k.j.a.e.s.g.q.a.L &                       ",
"                      . . & N Q ~ R ` ` | 9.t.r.r.h.h.r.a.z.h.` ^ ^ ` k.x.d.t.j.g.9.8.9.] ` ^ ` R Q E B * . .                   ",
"                      % o w C R ~ K ~ | ~ ~ ) E Q Q Q ) t.h.p.~ A A Q d.k.p.{ ` Q T I R U R ' ~ F ~ R S w O o                   ",
"                      % & r L ) | L ` | ) U Q L U L L R 0.p.| C C y A ] t.t.` E U T L E T Q | ' K { ~ K t & &                   ",
"                      % % e D Q ' L ~ ' Q L R L U J L ~ | e.L t ^ ` r K r. .` E T T L T U W [ ) J ) Q D r % &                   ",
"                      o . 6 N L E L R ) ~ Q ) | | E | r.r.r.R t ` ` y E  . . . .8.{ ) ` ~ ~ Q R D R L C q & %                   ",
"                          * N W e.r.{ r.d.a.g.g.r.r.g.v.x.a.8.F A V D  . .p.x.v.x.k.j.z.k.t. . .^ { ] G r * *                   ",
"                          * B q.B.Z.k.c.V.v.k.k.g.z.v.l.l.a.| T r r T { r.v.C.C.x.k.c.C.C.b.c.b.j.k.a.Q V 6 6                   ",
"                          * C p.D.G.b.l.c.l.k.k.g.z.z.| 8.r.' ' R R ` ^ r.m.C.C.v.c.N.C.C.m.B.C.x.x.g.E r & &                   ",
"                          @ C e.B.B.k.p.g.x.c.l.p.e.| Q 8.p.| r.s.d.s. .d.v.z.b.M.B.C.C.m.b.C.C.k.k.d.P 7 o .                   ",
"                          . e } g.h.g.g.j.l.k.d.9.] ^  .h.p.0.h.k.b.x. . .v.x.v.v.M.C.C.b.b.C.C.x.x.e.A % .                     ",
"                          o e ' j.l.g.g.g.g.p.9.] ] 9.d.z.r.p.a.d.N.d.t. .v.N.x.d.s.x.m.N.B.m.c.x.x.` q .                       ",
"                      O O 9 U s.c.l.g.g.g.r.{ ^  .p.g.p.r.| p.r. .C. .g.d.c.v.j.| ^ ] t.B.S.b.c.v.a.K & .                       ",
"                      = = S p.j.l.g.c.x.e.^ Q 9.p.g.z.k.a.9.a.e.t.C. .p.k.N.l. .P G G ^ c.N.N.N.j.^ w o                         ",
"                      7 7 R v.l.p.p.x.e.E Q e.x.h.h.z.m.V.h.h.0. .C. .d.d.N.s.K r r r y { x.N.v.{ N &                           ",
"                      8 9 T z.s.8.8.' K T 9.b.C.v.h.h.M.S.z.h.0.t.G. . .r.b.{ r q w w w D t.x.t.D &                             ",
"                      9 9 K g.g.e.e.T K ' l.M.m.l.h.h.z.V.h.h.0. .G. . .e.b. .C r r r r A ^ r.` 7 .                             ",
"                      9 9 H p.f.p.t.K E { k.N.c.h.l.n.m.b.t.h.9. .G.r.t. .c.z. .Q E ^ ^ ^ ^ ` y o                               ",
"                      9 9 D 9.p.p.e.G P ] 9.g.k.t.p.h.z.c.r.g.e.p.C. . . .z.x.V.z.d.p. . . .G = .                               ",
"                      7 9 H 8.g.g.t.P Z ^  .r.t.e.0.e.t.e.{ d.e.x.C. . . .h.j.N.x.d.p.t. .] w o                                 ",
"                      * * S I 8.| ^ A q F | t.h.e.|  .8.q.) p.q.B.C. . .^  . . . .r.g.p. .K = .                                 ",
"                      o o q H 8.] Q w % w ~ e.a.' W | |  .U e.e.C.C.t. .P ` Q ^ Q ] t.r.{ r o .                                 ",
"                          & S } ' L 6 . & D | 8.Q E | 8.8.L 0.e.V.b.9.| L | | | R ~ 8.8.K =                                     ",
"                          o * 0 q 7 o   o r ` 0.r.r.a.e.8.L e.r.r.p.e.| U r.h.p.a.r.0.` r o                                     ",
"                            . . .         = K  .h.l.h.9.9.L 0.a.a.h.p.| U a.h.h.l.h.9.L 6                                       ",
"                                          O r ^ e.a. .| 8.U | l.k.z.h.| R a.a.9.p.r.` t %                                       ",
"                                          . = G | | L R | ' L L R Q L L ' e.| L | | L 7 .                                       ",
"                                            O t ~ ) P Q | p.C = & & = B h.t.| R ) ~ N O                                         ",
"                                            . 6 L | | | | x.L o     . Z x.t.9.| | L 6 .                                         ",
"                                              o t ~ | | | c.F o     o Z c.9.| ' ~ N O                                           ",
"                                              . 6 L | |  .c.K o     o Z c. .| | K 7 .                                           ",
"                                                o t ^ |  .c.K O     O D x. .| ` N O                                             ",
"                                                  7 T ] | k.D o     O Z h.| ' P 0 .                                             ",
"                                                  O B ~ ] | V o     o t | | ` C %                                               ",
"                                                  . 7 Z ~ | N o     o y ] ^ D 0 .                                               ",
"                                                      O % % o         o % O O                                                   ",
"                                                      O % % o         o % % O                                                   ",
"                                                                                                                                "
};
