/* XPM */
static char *result[] = {
/* columns rows colors chars-per-pixel */
"64 64 45 1 ",
"  c #000000",
". c #070708",
"X c #070808",
"o c #0B0B0C",
"O c #0E0E10",
"+ c #131314",
"@ c #171817",
"# c #161719",
"$ c #171819",
"% c #1B1B1C",
"& c #1F211F",
"* c #1E1F20",
"= c #1F2020",
"- c #232324",
"; c #272827",
": c #242628",
"> c #2B2B2C",
", c #302F30",
"< c #2F3134",
"1 c #343434",
"2 c #373837",
"3 c #353638",
"4 c #383739",
"5 c #37383A",
"6 c #3A3A3A",
"7 c #40403F",
"8 c #3C3D40",
"9 c #3D4044",
"0 c #454545",
"q c #494747",
"w c #454649",
"e c #484748",
"r c #4B4B4B",
"t c #514D4D",
"y c #4E4E50",
"u c #4F5152",
"i c #4F545A",
"p c #545454",
"a c #51555A",
"s c #575858",
"d c #5C5C5C",
"f c #636363",
"g c #6C6C6C",
"h c #737373",
"j c #7A7A7A",
/* pixels */
"ptq00qypaapq0000e000000006%. .  .6pp>.70o                       ",
"pqq0q0qqtpy000000000e0007;     .0hdpergd2                       ",
"t0000q000qw000000000000061+  ;eqdhfr0rdp,                       ",
"q00000q0q000000w0e000000662+:dgspdp0709;.                       ",
"q00000000qw00000000000066162efhduq0706O  *r9;                   ",
"000000q00000000q0000000666670r00rpe60&  .yfds-                  ",
"000000000000000007670066266002.o>0001.   pghdr@X                ",
"rqq000000000000006266766616002  o;>+.    ;sgspfs6:.             ",
"ppt00000000000000666170066000w4.         %epudhhdp0             ",
"pppppr000e000000666260000qe00002+. &+.   %rpedggpp6             ",
"pppppppre000000e07627000euppr000021pp0=. 0eperpppr6             ",
"ppppppppure0000000070000eppppr0000ppas9. 00r00e0we-             ",
"ppppppppppr000000000000euppppe000epppp+  6080607qp6$.           ",
"pppppppppp00000e0q000q07epppy000070rue.   609000effp1           ",
"pppppppppr0000000000000727eueq00061oO&    X100600sgd;           ",
"pspppppppee0000000000006666660qq662+ 2<+     ..+0rppX           ",
"spppppppstr0000e00000076622242476662>ppa9o      .*6             ",
"fdsppppsppppr000000r0066222242270646pppp9                       ",
"ffghfsppppppr00000000766226662400007ppaa#                       ",
"ffgjjhfppppu0000000007266696227000e6620r                        ",
"ffjjjjgpppsre00ee00002222700e60000061  +.                       ",
"ghjjjjdppppre0e0000072622000e02700726;X6i<+                     ",
"jjjjjhppppppure000002622700006266666666ppai*                    ",
"jjjjjfppppppppr000e7262600000226660066pppaw.                    ",
"jjjjjffsppppppr00006262700007222600000yppa=                     ",
"jjjjgfffdspppt0000076260e00000726000000q56.                     ",
"jjjjffffdppppr0000000770000000e770000001 .                      ",
"jjjhffffdpsppr00000000ytre0000004670000-                        ",
"jjjjjgffppppr00000000rpppur0000622660q>.                        ",
"jjjjjjhfppppq000e000erppppe00006226600O     +o                  ",
"jjjjjjhspppt00000000eppppu0000722660q0-%5+ ;drX                 ",
"gghjjjgpsppe00000000rppppr0e00e07660q00errwpjd+                 ",
"fspfhhspppp000000000pppppr000q00007000er9tusdso                 ",
"fppppdpppp000000000ypppppptre000006467y00tepp&                  ",
"dppppppppp00000000etppppppppr000066246p060tgg=                  ",
"spppppppprq0000000rpppppppppe000022460p000phg-                  ",
"ppppppppp000000000uppppppppt000066226up000epp;                  ",
"ppppppppr7000pprerpppppppppr000062220ppr0eqrr;                  ",
"pppppppue000rppppuppppppppu0000762620epqpd,%X                   ",
"pppppppppr0eppppppppppppppr000064266q018ff@                     ",
"ppppppppppprppspppppprpppu000000622007X@ee+                     ",
"psppppspppppppppppppu00rpr000000q070q;                          ",
"ppppppppppppppppppppr0000000000000000o                          ",
"pppppdfdspppppppppspe00000000q0062q0>                           ",
"pppppdfffdpppppppppr007@600000e6..30o                           ",
"ddsssffffdsppppppppe06o o,-6w06o  Oo                            ",
"fffddffffspppuupppy0e-. o+ .26-   .+                            ",
"ffffjhgffppppr0rtpe006$ .o+.o o             o                   ",
"fffhjjjhdpppp0000000q8..,pp>.              1p0+                 ",
"gffjjjjgspppt0e700000; +pffs<o             rhf7                 ",
"jjhjjjjdpppp0e0-o200w. +dhhgp+             :ddpp6#.             ",
"jjjjjjhspppt00-   o%-  +ughdp+             &tpdjgp2             ",
"jjjjjjgppppee2 .    . .<eddpp+             ;peufdp2             ",
"jjjjjjjjgdre02X.   o .o0pppppp$           .0re0er0>             ",
"hjjjjjjjjhpr0OX      >6epurdghf&           >07600r;.            ",
"hjjjjjjjjhspe@      +00pu0efhjhp-.         X57070sgro           ",
"jjjjhjjjjfpsp7      o00rp0rshhgsr1          .#=:6efp            ",
"jjjjffghhpppp%      O060r90tddppp8              X;0%            ",
"jjjhffffdpppr       X6000600tppur@                              ",
"fhjgffffpppp>        1066600eree6X                              ",
"fffffffdpppu.        o17er070eee+                               ",
"ffdpsddsspp;          o67060etp&                                ",
"ffsppppppsuo           Xo<70rdd1X                               ",
"ddppppsppp4              X;0rggd2o                              "
};
