/* XPM */
static char *_51b416ad7ce42dfa6cf367a87566ac8rks2GQet1eDWqRFk[] = {
/* columns rows colors chars-per-pixel */
"64 64 142 2 ",
"   c #000000",
".  c #060708",
"X  c #070808",
"o  c #0A0B0C",
"O  c #0D0E10",
"+  c #100F11",
"@  c #0E1012",
"#  c #121314",
"$  c #161719",
"%  c #171A1C",
"&  c #1B1C1D",
"*  c #1D1E21",
"=  c #1E2124",
"-  c #212223",
";  c #232529",
":  c #262829",
">  c #2B2C2D",
",  c #2C2E32",
"<  c #2F3132",
"1  c #333434",
"2  c #33353B",
"3  c #35393C",
"4  c #3A3A3A",
"5  c #363C41",
"6  c #3C3D42",
"7  c #3D4044",
"8  c #454545",
"9  c #44474B",
"0  c #484749",
"q  c #46494E",
"w  c #4B4B4C",
"e  c #4C504E",
"r  c #53534F",
"t  c #434650",
"y  c #4B4D52",
"u  c #504F55",
"i  c #4E5154",
"p  c #545551",
"a  c #555651",
"s  c #545452",
"d  c #555452",
"f  c #545552",
"g  c #545453",
"h  c #545553",
"j  c #555553",
"k  c #565452",
"l  c #565552",
"z  c #565453",
"x  c #575453",
"c  c #565652",
"v  c #505155",
"b  c #535354",
"n  c #525255",
"m  c #505356",
"M  c #515257",
"N  c #505455",
"B  c #525454",
"V  c #535454",
"C  c #535554",
"Z  c #525455",
"A  c #535555",
"S  c #515655",
"D  c #515457",
"F  c #535456",
"G  c #535556",
"H  c #535457",
"J  c #515657",
"K  c gray33",
"L  c #555454",
"P  c #555554",
"I  c #545455",
"U  c #555455",
"Y  c #555555",
"T  c #565454",
"R  c #565554",
"E  c #545654",
"W  c #545655",
"Q  c #555755",
"!  c #545456",
"~  c #555556",
"^  c #555656",
"/  c #565656",
"(  c gray34",
")  c #545454",
"_  c #585452",
"`  c #565856",
"'  c #595957",
"]  c #505158",
"[  c #515459",
"{  c #535458",
"}  c #565758",
"|  c #56575A",
" . c #565558",
".. c #565958",
"X. c #585858",
"o. c #585959",
"O. c gray35",
"+. c #59595A",
"@. c #595A5A",
"#. c #5A5A5A",
"$. c #5B5B5B",
"%. c gray36",
"&. c #5D5D5D",
"*. c #5D5D5F",
"=. c #5D5E5E",
"-. c gray37",
";. c #5F5F5F",
":. c #5B5B5B",
">. c #555960",
",. c #595A60",
"<. c #5F6060",
"1. c #5F6365",
"2. c #5F6160",
"3. c #606060",
"4. c gray38",
"5. c #626262",
"6. c gray39",
"7. c #636465",
"8. c #646464",
"9. c #646465",
"0. c #656565",
"q. c #676767",
"w. c #636363",
"e. c #676867",
"r. c #686867",
"t. c #6A6A6A",
"y. c gray42",
"u. c #6C6C6C",
"i. c #6C6C6C",
"p. c #6E706D",
"a. c gray44",
"s. c gray45",
"d. c #747372",
"f. c #747474",
"g. c gray46",
"h. c #767675",
"j. c #767676",
"k. c #747474",
"l. c #7A7B77",
"z. c #777978",
"x. c gray47",
"c. c #7A7A7A",
/* pixels */
"5 J L y o                                                                                                                       ",
"J h h L 3                                                                                                                       ",
"f f h h i -                                                                                                                     ",
"J J J L h y o                                                                                             & -                   ",
"L J J L h g 2                                 $ $ .                   $ $ .                             : @.@.2 o               ",
"L @.J L L h v *                             o @.<.1                 o @.<.1                             4 y.s.*.1               ",
"3.3.@.J J L L q o                           X w 0.s 0 > #           X w 0.s 0 > #                       1 0.h.*.1               ",
"3.3.3.} J L h v 2       o & *                 1 s L s.3.w o           1 s L s.3.w o                   o 4 s *.L 0 #             ",
"3.3.0.*.J J L s i > > 8 s L w o             o 4 w 0 L L 0 o         o 4 w 0 L L 0 o                 . # 0 h w L *.*.&           ",
"3.0.0.*.L f J h s ] e.h.u.L s 4             # 8 8 8 8 8 8 X         # 8 8 8 8 8 8 X                 , 8 w w 0 3.c.h.*.>         ",
"0.3.*.L L f f J h v ,.h.y.L w 8 o   o         > 4 8 8 8 *.@.$         > 4 8 8 8 *.@.$             . 4 8 e w 8 L s.y.@.h 1       ",
"3.@.L L h h f f h h v } @.s 8 w 4 4 w -         # & & 1 s L o           # & & 1 s L o             . 8 4 8 8 8 w L L L s -       ",
"*.L L L L L f f L h h y 0 8 8 w { >.7.4               . $ $                   . $ $                 - 8 4 8 8 8 0 w 0 0 o       ",
"3.L L L L L L f f L h J q 8 7 q i { y 0 .     . .                                                   . 4 8 8 8 8 8 8 8 &         ",
"3.*.L L L L L h f h h L i 9 y v J J i >     $ t 2                                                     o 1 8 8 8 8 s 8 .         ",
"3.0.@.L L L L L L L L L L f f f f f { , o 2 i L i &       @ , O                                           . < 8 0 3.*.3 o       ",
"3.*.@.L L L L L L L L h h h h f f J J 1.i J L h L q o   ; 9 J 2         o #                                 . ; 8 *.h.@.:       ",
"*.L L L L L L L L L L L L L L J f ..p.l.d.h h h h L 3 6 i s r y =     = 8 q @                                 # 4 s @.8 o       ",
"L L L L L L L L L L L L L L L L 0.z.l.c.c.0.h L L $.3.@.J h h L 8 $ 2 u h L 3       @ 3 ;                       o 4 4 o         ",
"L L J L L L L J L L L L L L L 3.s.l.c.c.c.c.@.' <.7.0.3.` L L h L i } } L h i * . ; q J y o                                     ",
"L L L L L L L L L L L L L @.3.w.0.h.c.c.c.c.s.3.0.7.0.0.%.L L h h L L L L L L q 3 J h h L 6                                     ",
"*.L L L L L L L L L L L *.3.3.w.0.y.c.c.c.c.c.u.8.7.3.3.0.:.L h L L L L L L L L h f L J h v ;                                   ",
"3.L L L L L L L L L L L *.3.3.0.3.0.s.c.c.c.c.c.0.3.3.y.s.u.@.L L L L L L J J L h L L L J h y .                                 ",
"@.L L L L L L L L L L L L *.3.3.0.y.h.c.c.c.c.c.s.0.u.h.c.c.0.L L L L L L L J L L L L L L h L 2                                 ",
"L L L L L L L L L L L L L @.3.0.s.c.c.c.c.c.c.c.c.h.c.c.c.c.c.*.L L L L L L L L L L L L L L h v &   O 8 8 < .                   ",
"L L L L L L L L L L L L L L y.h.c.c.c.c.c.c.c.c.c.c.c.c.c.c.c.y.L L L L L L L L L L L L L L h L y . : <.y.*.>                   ",
"L L L L L L L L L L L L *.u.c.c.c.c.c.c.c.c.c.c.c.c.c.c.c.c.s.@.L L L L L L L L L L L L L x L v > . $ 3.h.*.s < $ .             ",
"L L w 0 w L L L L L L 0.h.c.c.c.c.c.c.c.c.c.c.c.c.c.c.c.h.3.L L L L L L L L L L L h L L L } 8 #       1 @.@.L y.y.s 4 $         ",
"s 0 8 8 8 s L L L L *.h.c.c.c.c.c.c.c.c.c.c.c.c.c.c.c.s.@.L L L L L L L L L L L L L L h L 1 .         4 s w @.h.h.@.L :         ",
"0 8 8 8 8 0 s L L L L y.c.c.c.c.h.h.c.c.c.c.c.c.c.h.u.3.*.L L L L J L L L L L L L L L L h 8 .       o 4 s 0 w @.3.L s 1         ",
"w 8 8 8 8 8 w L L L L @.h.c.c.s.y.y.c.c.c.c.c.c.s.0.0.0.3.@.L L L L L L L L L L L L L h h f >       ; 8 w w 8 0 w 0 8 -         ",
"L 0 8 8 8 8 8 s L L L L 3.h.u.0.3.0.s.c.c.c.c.c.y.3.0.0.3.3.L L L L L L L L L L L L L h f h w #     - 8 8 8 4 8 8 8 s & .       ",
"s s 8 8 8 8 8 0 s L L L L 3.3.3.3.3.0.h.c.c.c.c.h.0.3.3.3.3.L L L L L L L L J L L L L L h h h 6 .   . 3 8 4 7 0 8 0 @.*.w &     ",
"L s 0 8 8 8 8 8 w L L L L L 3.3.0.3.3.y.c.c.c.c.c.u.3.3.3.L L L L L L L L L L L L L L L L L h g ;       ; 2 8 4 4 8 L u.3.&     ",
"s 0 8 8 8 8 8 8 8 s L L L L @.3.0.3.*.L y.c.c.c.c.c.0.@.L L L L L L L L L L L L L L L L L L L g w +         o . o > 0 L i o     ",
"8 8 8 8 8 8 8 8 8 0 L L L L L *.3.L L L @.s.c.c.c.u.@.L L L L L L L L L L L L L L L s w s L h h _ 4 .             . # > #       ",
"8 8 8 8 8 8 8 8 8 8 s L L L L L L L L s L 3.c.c.3.L L L L L L L L L L L L L L L s s 0 8 0 v h h h w $                           ",
"8 8 8 8 8 8 8 8 8 8 0 s L L L L L L L L J L 0.@.L L L L L L L L L L L L L L L s w 8 8 8 8 w h h 9 =                             ",
"8 8 8 8 8 8 8 8 8 8 8 w L L L L L L L L L L L L L L L L L L L L L L L L L s w 0 8 8 8 8 8 0 w 1 o                               ",
"w 8 8 8 8 8 8 8 8 8 8 8 s L L L L L L L L L L L L L L L L L L L L L L L s 0 8 8 8 8 8 8 8 0 3                                   ",
"s 0 8 8 8 8 8 8 8 8 8 8 0 s L L L s w L L L L L L L L L L L L L L L s w 0 8 8 8 8 8 8 8 w g y %                                 ",
"L s 8 8 8 8 8 8 8 8 8 8 8 w L L w 8 8 s L L L L s s L L L L L L L s 0 8 8 8 8 8 8 8 0 s L h L 6 o                               ",
"L L w 8 8 8 8 8 8 8 8 8 8 8 w 0 8 8 8 0 s L L s 0 w L L L L L s w 8 8 8 8 8 8 8 8 8 0 L L h _ h >                               ",
"L L s 0 8 8 8 8 8 8 8 8 8 8 8 8 8 8 8 8 w s w 8 8 8 s L L L s 0 8 8 8 8 8 8 8 8 8 8 8 w g _ _ s < .                             ",
"L L L s 8 8 8 8 8 8 8 8 8 8 8 8 8 8 8 8 8 8 8 8 8 8 0 s s w 8 8 8 8 8 8 8 8 8 8 8 8 8 8 r s q =                                 ",
"L L L s w 8 8 8 8 8 8 8 8 8 8 8 8 8 8 8 8 8 8 8 8 8 8 0 0 8 8 8 8 8 8 8 8 8 8 8 8 8 8 8 0 3 o                                   ",
"L L L L s 0 8 8 8 4 4 8 8 8 8 8 8 8 8 8 8 8 8 8 8 8 8 8 8 8 8 8 8 8 8 8 8 8 8 8 8 8 8 8 y -                                     ",
"s L L L L s 8 4 4 4 4 4 8 8 8 8 8 8 8 8 8 8 8 8 8 8 8 8 8 8 8 8 8 8 8 8 8 8 8 8 8 8 w v L q O                                   ",
"0 L L L L w 8 4 4 4 4 4 8 8 8 8 8 8 8 8 8 8 8 8 8 8 8 8 8 8 8 8 8 8 8 8 8 8 8 8 9 s L } L v 2 .                                 ",
"8 w L s 0 8 8 4 4 4 4 4 4 8 8 8 8 8 8 8 8 8 8 8 8 8 8 8 8 8 8 8 8 8 8 8 8 8 8 w v L L L L g v *                                 ",
"8 8 w 8 8 8 8 8 4 4 4 4 4 4 8 8 8 8 8 8 8 8 8 8 8 8 8 8 8 8 8 8 8 8 8 8 8 0 s L L L L L J h g 8 o                               ",
"8 8 8 8 8 8 8 8 4 4 4 4 4 4 8 8 8 8 8 8 8 8 8 8 8 8 8 8 8 8 8 8 8 8 8 8 8 s L L L L L L L h h s 1         @ $                   ",
"8 8 8 8 8 8 8 8 8 4 1 4 4 4 4 8 8 8 8 8 8 8 8 8 8 8 8 8 8 8 8 8 8 8 8 8 8 0 v L L L L h h h h h i %     ; 8 9 O         X       ",
"8 8 8 8 8 8 8 8 8 8 4 4 4 4 4 4 8 8 8 8 8 8 8 8 4 4 4 8 8 8 8 8 8 8 8 8 8 8 w L L L h h h h h h f 9 % 3 i f i 2       & 7 =     ",
"8 8 8 8 8 8 8 8 8 8 4 4 4 4 4 4 8 8 8 8 8 8 8 4 4 4 4 4 8 8 8 8 8 8 8 8 8 8 0 s h h h h h h h L J J e f f f r e = o < i J q @   ",
"8 8 8 8 4 8 8 8 8 8 8 4 4 4 4 4 4 8 8 8 8 8 8 4 4 4 4 4 8 8 8 8 8 8 8 8 8 8 8 r h h h h h h h L J f f f f J f f 0 8 J L J J 5   ",
"8 8 4 4 1 4 8 8 8 8 8 4 4 4 4 4 4 8 8 8 8 8 8 4 4 4 4 4 4 8 8 8 8 8 8 8 8 0 s h h h h h h L @.L J J J f h h h h h L L J L h i = ",
"4 4 4 4 4 1 4 8 8 8 4 4 4 4 4 4 4 4 8 8 8 8 8 8 4 4 4 8 8 8 8 8 8 8 8 0 s s L L L h h h 3.s.u.L L J J L h h h h L L L L L L h q ",
"8 4 4 4 4 4 4 8 4 1 4 4 4 4 4 4 8 w w 8 8 8 8 8 4 4 8 8 8 8 8 8 8 8 8 0 s L L L L L ' y.h.c.c.0.L L L *.u.@.L L L L L L L L L f ",
"8 8 4 4 4 4 4 8 4 4 4 4 4 1 4 0 s s L w 8 8 8 8 4 8 8 8 8 8 8 8 8 8 8 8 w L L L L L r.c.c.c.c.c.@.' 0.h.c.u.L L L L L L h L L f ",
"8 8 8 4 4 8 8 8 4 4 4 4 4 4 w L L s J s 8 8 8 4 4 4 8 8 8 8 8 8 8 8 8 8 8 s L L L L @.h.c.c.c.c.s.s.c.c.c.c.3.L L L L h h L L h ",
"8 8 8 8 8 8 8 8 8 4 4 4 4 8 0 s L L L L w 4 4 4 1 1 8 8 8 8 8 8 8 8 8 8 8 0 s L L L L 3.c.c.c.c.c.c.c.c.c.c.h.@.L h h L L h h L ",
"8 8 4 4 8 8 8 8 8 8 4 8 8 8 8 w L L L w 8 4 1 4 4 4 4 8 8 8 8 8 8 8 8 8 8 8 w L L s L L u.c.c.c.c.c.c.c.c.c.c.u.L L L L h h v 5 ",
"4 4 4 4 4 8 8 8 8 4 4 8 8 8 8 8 s s 0 8 8 8 4 4 4 4 4 4 8 8 8 8 8 8 8 8 8 8 8 s L L s L @.h.c.c.c.c.c.c.c.c.c.c.3.L L h h f :   "
};
