/* XPM */
static char *result[] = {
/* columns rows colors chars-per-pixel */
"64 64 57 1 ",
"  c #000000",
". c #060708",
"X c #070808",
"o c #0A0B0C",
"O c #0D0E11",
"+ c #100F11",
"@ c #0E1012",
"# c #131314",
"$ c #151618",
"% c #171A1D",
"& c #1A1B1C",
"* c #1C1E21",
"= c #1E2024",
"- c #212224",
"; c #232529",
": c #2A2B2E",
"> c #2B2E33",
", c #2E2F39",
"< c #2F3237",
"1 c #343536",
"2 c #33353C",
"3 c #35393D",
"4 c #3A3A3A",
"5 c #353B40",
"6 c #3C3D42",
"7 c #3F4042",
"8 c #454545",
"9 c #44464A",
"0 c #484749",
"q c #46494E",
"w c #4B4B4C",
"e c #4D504E",
"r c #53524F",
"t c #434650",
"y c #464B53",
"u c #4B4D52",
"i c #504F55",
"p c #4E5155",
"a c #545454",
"s c #585452",
"d c #565856",
"f c #595957",
"g c #545558",
"h c #565958",
"j c #5B5B5B",
"k c #555960",
"l c #595A60",
"z c #5F6161",
"x c #636363",
"c c #676867",
"v c #686867",
"b c #6B6B6B",
"n c #6E706D",
"m c #747474",
"M c #7A7B77",
"N c #777978",
"B c #7A7A7A",
/* pixels */
"NmmNBBBMfaaaaa88888888888444888rrraaw4444148884488888888888rrrra",
"xffNBBBBbaaaaaw8888880888848888wrrrw44144448441448888448w888rraa",
"aaaxNBMnfaaaaaa88888888884788888re741444114844444888441888888raa",
"aaagnnzaaaaaaaa08888888844488888874444144788444114414144888448rd",
"aadahaaraaaaaw888888884414448888844444148888844448841144774414wa",
"aaaaaaarrrar888888888874444488888844414488888747888444148411447e",
"epddaaaaarsa0888888888874444888888844441488888888888417887441418",
"&9prarraaaaae888888888884148888888844414488888888888878888744414",
" %praaaaaaaga088888888887888888888884444148888888888888888844144",
"  <aaaaaaaagaa88888888888888888888888444414888888808888888884141",
"  o0raaaagaga08888888888888888888888841414488880e888888888884414",
"   &isggaaaw8888888888888888888888888844411888wrae88808888888444",
"   .2aagii08888888888888888888888808888444447rdaaaw88wrrw8888848",
"    O0isw088888888888888888888888888888741448raraar0waaar8888888",
"     -w088888888888888888888888888888888447888rraaaaaaadr8888888",
"    o40888888888888888we0888888888888888888888rraaaaaaaarr888888",
"   -0rr88888888888880waa08888008880888888888888aaaaaaaaaaaw88888",
" .<aasse888888888880raaai880erw0088888888888888waaaaaaaaaaa08888",
"  :assaaw888888880rraaaaae0isaa08800e88888888888waaaaaaaaaaa0888",
"  o6ssse08888888wraaaaaaaaaaaaar8wwaaw88888888888aaaaaaaaaaaw888",
"   %usw88888880iaaaaaaaaaaaaagsaeraaaa88088888808waaaaaaaaaw8888",
"    308888888wiaaaaaaaaaaaaaaaaaaaaaada88888888888eaaaaaaw888888",
"  o1w0888880eaaaaaaaaaaaaaaaaaaaaaaaaaae88888888880aaaaaa8888888",
" =0ase8888wraaaaaaaaaaaagaafcaaaaaaaaaarw8088888888waaaaaw88888>",
"%waaaa080raaaaaaaaaaaaaaagxNBxsaaaaaaaaae88888888888aaaaaa08888,",
".4sraaaeaaaaaaaaaaaaaafafnBBBmjiafxjaaadaw888888088waaaaaae88808",
" +wsaaaaaaaaaaaaaaaaaaajvBBBBBvgjxxxfaaaaa88088880aaaaaaaaa08888",
"  ;iraaaaaaaaaaaaaaaagxxxnBBBBBvxxxxxfaaaar888880aaaaaaaaaaa0888",
". .6sraaaaaaaaaaaaagfxxxxxmBBBBBcxxxxxaadaaw88880aaaaaaaaaaaw888",
"-  #wsraaaaaaaaaaaaaaxxxxxvBBBBBnxxxbmxaaaaa08088waaaaaaaaaaaw88",
";   :araaaaaaaaaaaaaafxxxxmNBBBBBbvmNBmjaaaae88888waaaaaaaaadw88",
"o   .8aagaaaaaaaaaaaaajxbNBBBBBBNBNBBBBbaaaarw88880aaaaaaaaa0088",
"    .1afaaaaaaaaaagasijmBBBBBBBBBBBBBBBBjagaaa8800aaaaaaaar88888",
"   #7gsaaaaaaaaaaaasaxmBBBBBBBBBBBBBBBmxfaaaaae0raaaaaaaaa088088",
"&.>igsaaaaaaaaaaasgjnBBBBBBBBBBBBBBBBnlsaaaaaaaaaaaaaaaaaai08888",
":.ussgaaaaagaaaaagfbBBNBBBBBBBBBBBBNvgaaaaaaaaaaaaaaaffaaaa08888",
"O &aaaaaaaaaaaaaaaajNBNBBBBBBBBBBNmxxgsaaaaaaaaaaaafjxjaaaaaw888",
"   2aaaaaaaaaaaaaaafvBBBnxmBBBBBNbxxxzaaaaaaaaaaaafxxxxgaaadr880",
"   .uaaaaaaagaaaaaagfnmvxxxBBBBBnxxxxxjaaaaaaaaaagxxxxxxaaaaaw8w",
"    ;aadaadaagaaaaaafjxxxxxbBBBBBbxxxxxsaaaaaaaaaajxxxxxjdaaarw8",
"     6aaag3waaaafaaaafjxxxxxmMBBBNxxxjadaaaaaaaaasszxxvmmhaaaaww",
"     oydw;X=paaggiafaaaxxxxfdMBBBBnxdaaaaaaaaaaaaisgvnNBNbaaafvx",
"      =5@   3aag2$8aaaafxjfdaxBBBNvgaddaaaaaaaaaaagjvBBBBBxaxmNm",
"       .    @w7=  *urap64aaaaamMngiaaapaaaaaaaaaagjzvmBBBBmbNBBB",
"             #o    2a9=.oqaaaapzaapaaaaaaaaaaaaafxxxxbBBBBBBNBBB",
"                   @>@   *pgg2o>aaaaaaaaaaaaaaadjxxxxxmBBBBBBBBB",
"                          2t$  :ppapy9paaaaaaaaaajxxxxnBBBBBBBBm",
".                         ..  .0pgpq77wdadraaaaaaaxxbmBBBBBBBNbx",
"-        ##.         ##.       4xlgw88wpdrdaaaaaagjnNBBBBBBBBBvx",
"8.      oaa1$*#     oaa1$*#    -w47w8aggpdraaaaaafxmBBBBBBBBBBmx",
"4o      &fj8887:    &fj8887:    o o8wabMlararaafjzxvBBBBBmBBBBBb",
">        o888707#    o888707#      6aabmcpaaaaazxvxxbBNmxxmBBBBB",
".        o0as0r4o    o0as0w4o      owaa8>:paaaalxxxxvmvxxxvBBBBv",
"         owxmdr1     owxmda1        *&o   2aagghxxxxlfxxxxxbBbxx",
"          #:0ecwo     #:0rcwo             Xqaaaajxjfagjxzxxxxxxx",
"             1xfo        1zfO              *aaaaijfasafzxzjsgxxx",
"             .#$         .$$                2aaaaaaaaaafjgaaajxx",
"                                            owsaapaaaaaaasaaafzx",
"                                             -paaaaaaaaaaaaaadaa",
"                                              5adaauwgaigiaaaaaa",
"                                              oudh5X*iiaaapaaapd",
"                                               =q&  .5gaa9-8aapa",
"                                               .o    @7p:X =paad",
"                                                      *$    2dp2"
};
