/* XPM */
static char *_0979a780ee24a9bd3b8a183fa3b32079QudFHfjX5E0ipKu[] = {
/* columns rows colors chars-per-pixel */
"64 64 145 2 ",
"   c #000000",
".  c #050608",
"X  c #06080B",
"o  c #0A0A0C",
"O  c #0C0E10",
"+  c #131315",
"@  c #141619",
"#  c #161A1E",
"$  c #191B1E",
"%  c #1C1E21",
"&  c #1E2022",
"*  c #222425",
"=  c #242629",
"-  c #25292A",
";  c #292A2D",
":  c #262B31",
">  c #292D32",
",  c #2E343A",
"<  c #363636",
"1  c #36383B",
"2  c #3A3A3A",
"3  c #373C42",
"4  c #3D3E44",
"5  c #3D4247",
"6  c #3B4348",
"7  c #454545",
"8  c #43454C",
"9  c #4B4B4B",
"0  c #504F4F",
"q  c #53544F",
"w  c #424651",
"e  c #474952",
"r  c #4A4D55",
"t  c #4B4E58",
"y  c #4E5455",
"u  c #4D535B",
"i  c #545551",
"p  c #545450",
"a  c #565451",
"s  c #545452",
"d  c #555452",
"f  c #545552",
"g  c #545453",
"h  c #555453",
"j  c #545553",
"k  c #555553",
"l  c #565453",
"z  c #565553",
"x  c #545753",
"c  c #535354",
"v  c #525355",
"b  c #535355",
"n  c #515256",
"m  c #535257",
"M  c #525357",
"N  c #545254",
"B  c #555354",
"V  c #555255",
"C  c #555355",
"Z  c #555356",
"A  c #575356",
"S  c #525454",
"D  c #535554",
"F  c #515655",
"G  c #535654",
"H  c #535456",
"J  c #525457",
"K  c #535457",
"L  c #515756",
"P  c #525756",
"I  c gray33",
"U  c #555454",
"Y  c #545554",
"T  c #555554",
"R  c #545455",
"E  c #555455",
"W  c #545555",
"Q  c #555555",
"!  c #575454",
"~  c #565455",
"^  c #555655",
"/  c #575655",
"(  c #545456",
")  c #545556",
"_  c #555556",
"`  c #545457",
"'  c #575456",
"]  c #565556",
"[  c #545656",
"{  c #565656",
"}  c #565757",
"|  c gray34",
" . c #545454",
".. c #585350",
"X. c #595450",
"o. c #585451",
"O. c #585452",
"+. c #595452",
"@. c #595453",
"#. c #585356",
"$. c #585454",
"%. c #585456",
"&. c #565857",
"*. c #515358",
"=. c #535459",
"-. c #545558",
";. c #565559",
":. c #555658",
">. c #56545A",
",. c #55565C",
"<. c #53555A",
"1. c gray35",
"2. c #5B5B5B",
"3. c #5D5D5B",
"4. c #5B5B5D",
"5. c gray36",
"6. c gray37",
"7. c #5F5F5F",
"8. c #5C5C5C",
"9. c #5E5E60",
"0. c #616160",
"q. c #606261",
"w. c #626262",
"e. c gray39",
"r. c #646464",
"t. c #676767",
"y. c #636363",
"u. c #686868",
"i. c #696968",
"p. c DimGray",
"a. c #6A6A6A",
"s. c #6F6F6D",
"d. c #6D6D6D",
"f. c gray44",
"g. c gray45",
"h. c gray46",
"j. c #767676",
"k. c #737373",
"l. c #767875",
"z. c gray47",
"x. c #7A7A78",
"c. c gray48",
"v. c #7B7B7B",
"b. c #7C7C7C",
"n. c #7A7A7A",
/* pixels */
"                                                                                                            5 5 S S j >.u     > ",
"                                                                                                          6 D j j R j j R . > D ",
"                                                            =                                         3 D D j R C R C j j S D j ",
"                ; $       O =                               R 7.c                                     u D D R R R R R C q q j D ",
"              9 R R 9 &   S R j                     $ j & $ D g.R 4                                   = D D D R R R S R R j j R ",
"            $ q.R R 7 7 j 7.c.c 7                 * R R 7 R q.c 7                                       ; R R R R R R j R R R R ",
"            4.c.p.R 7 7 c g.R R R                 j R R 7 7 7 7 7                                         S R R R R R R R R 7.c.",
"      + R R q.c.h.R 7 7 7 7 7 7                   p.c.7.7 7 2 2                                         > R j R R R R R R 7.c.c.",
"    b R R R R R R 7 7 2 7 7 7                   b r.c.R 7 7 7 7                                       > y j j j j j R 3.c.c.c.c.",
"  % R p.c.q.R 7 7 7 7 7 7 ;                   + j R R 7 7 2 2 7                                   # u S S c j R j R 3.c.c.c.c.c.",
"  % R r.h.R R 7 c 7 7 7 7                   & q.q.R 7 7 c 7 7 R                                     S q D b j j 3.c.c.c.c.c.c.c.",
"    $ R c 7 7 c R 7 2 7 >                   j r.c.R R R R 7 7 R                                     , y S S S c p.c.c.c.c.c.b.c.",
"              7 7 2 7 0 o                   R 1.c.7 7 7 7 2 j                                         , S S D j R c.c.c.c.b.c.R ",
"              @ 7 R $                         $ o       @ $         =                                   y S D D R r.c.c.c.c.c.c ",
"                                              .                   4 R 1                             # u S S D D R R p.c.c.c.c.h.",
"                                            . r #             4 #...q S         > e               # y S b D D R R R c.c.c.c.c.c.",
"                                        . r R o.,.@         4 #.j j j R 3   : >.R j           $ y O.q j R R R R R c.c.c.c.c.c.c.",
"                                      . r R j j %.>.    4 R j j R j j q R 7 >.R o.o.e     $ $ y c j j j j j R c.c.c.c.c.c.c.c.c.",
"                                  . r R j R R C o.R + 5 j q j R C R R 9 7 7 R j o.%.O.8 $ *.C O.j j j j j j c p.c.c.c.c.c.c.1.R ",
"                                . r R j D R C R j j j j j S j C R R 7 7 7 7 7 b C %.q 7 b b C R D j j j j j j R c.c.c.c.c.1.R R ",
"                                u j q D R R R R R R j C j D R R R 9 7 7 7 7 7 b R q 7 7 7 b <.R j j j j j j j R s.c.c.1.R R j R ",
"                <               @ y S D R R R R R R R D D R R R R c 9 7 7 7 7 7 7 7 7 7 7 7 R R j j R j j j j j j s.1.R R c R j ",
"                s.R               @ D q R R R R R j R R R R R R R R 9 7 7 7 7 7 7 7 7 7 7 7 R R R R R R j j j j R R R R c R R R ",
"          R c 1 r.9                 <.j R R R R R R R R R R R R R R c 9 7 7 7 7 7 7 7 7 7 7 8 R R R R R j c R R R R R R R R R 7 ",
"        $ r.R 7 7 *               4 7 R R R R R R R R R R R R R R j R c 7 7 7 7 7 7 7 7 7 7 7 8 R R R R j q j R R R R R R R 7 7 ",
"        c c.7.7 7 %             4 R C R D D R R R R R R R R j R R R R R 9 7 7 7 7 7 7 7 7 7 7 7 R R R 7 7 7 c R R R R R 9 7 7 7 ",
"      < R 7.9 2 2 ;         % D R j C R D R R R R R R R R R j R R R R R c 9 7 7 7 7 7 7 7 7 7 7 7 c 7 7 7 7 c c R R 9 9 7 7 7 7 ",
"      p.r.c 9 7 7             R j R D R R R R R R R R R R R R R R R R R R c 7 7 7 7 7 7 7 7 7 7 7 7 7 7 7 7 7 c R 9 7 7 7 7 7 7 ",
"      1.r.7 7 2 =             ; >.>.R R R R R R R R R R R R R R R R R R R R 9 7 7 7 7 7 7 7 7 7 7 7 7 7 7 7 7 7 7 7 7 7 7 7 7 7 ",
"            @                   > R R R R R R R j R R R R R R R R R R R R R c 9 7 7 7 7 7 7 7 7 7 7 7 7 7 7 7 7 7 7 7 7 7 7 7 7 ",
"                                  R j R R R R c j R R R R R R j R R R R R R R c 7 7 7 7 7 7 7 7 7 7 7 7 7 7 7 7 7 7 7 7 7 7 7 7 ",
"                              : <.j j R R R R R R R R R R R R j R R R R R R R R 9 7 7 7 7 7 7 7 7 7 7 7 7 7 7 7 7 7 7 7 7 7 7 7 ",
"                            : D j j j R &.R 7.b.c R R R R R R R R R R R R R R R c 9 7 7 7 7 7 7 7 7 7 7 7 7 7 7 7 7 7 7 7 7 7 7 ",
"                <         , S q q C R R R 7.b.c.g.c R R R R R O.R R R R R R R R R c 7 7 7 7 7 7 7 7 7 7 7 7 7 7 7 7 7 7 7 7 7 7 ",
"                s.R         D c c D R 8.c.c.c.c.c.g.R R R q.y.R R c R R R R R R R R 9 7 7 7 7 7 7 7 7 7 7 7 7 7 7 7 7 7 7 7 7 7 ",
"          R c 1 r.9         , <.S R 1.q.s.c.c.c.c.g.R q.y.y.y.q.R R R R R R R R R R R 9 7 7 7 7 7 7 7 7 7 2 2 7 7 7 7 7 7 7 7 2 ",
"        $ r.R 7 7 *           , 1.r.q.q.q.c.c.c.c.c.c.q.r.r.q.q.R R R R R R R R R R R 7 7 7 7 7 7 7 7 7 7 2 2 7 7 7 7 7 7 2 2 2 ",
"        c c.7.7 7 %           $ q.r.r.q.q.s.c.c.c.c.c.q.r.r.q.q.q.R R R R R R R R 9 9 7 7 7 7 7 7 7 2 2 2 2 2 2 7 7 7 7 2 2 2 2 ",
"      < R 7.9 2 2 ;       $ ,.R 3.r.r.r.q.q.s.c.c.c.c.h.q.q.q.c.c.c.R R R R R R 9 7 7 7 7 7 7 7 7 7 7 < 2 2 2 < 2 7 2 2 < 2 2 2 ",
"      p.r.c 9 7 7       % <.R j j 7.r.r.r.c.c.c.c.c.c.c.h.r.h.c.c.c.R c R R R R 7 7 7 7 7 7 7 7 7 7 7 7 2 2 2 2 2 2 2 2 2 2 2 2 ",
"      1.r.7 7 2 =       w R j R j j r.r.c.c.c.c.c.c.c.c.c.c.c.c.c.c.c.R R R R R R 7 7 7 7 7 7 7 7 7 7 7 < 2 2 7 7 7 2 2 2 2 2 2 ",
"            @             >.R j j j c.c.c.c.c.c.c.c.c.c.c.c.c.c.c.c.c.q.R R R R R 7 7 7 7 7 7 7 7 7 7 7 7 2 7 7 7 7 7 2 < 2 7 7 ",
"                          8 D O.j c.c.c.c.c.c.c.c.c.c.c.c.c.v.v.b.c.q.R R R R R R R 7 7 7 7 7 7 7 7 7 7 7 7 7 7 7 7 7 2 2 7 7 7 ",
"                            r c.v.c.c.c.c.c.c.c.c.c.c.c.c.c.c.v.q.c R R R R R R R 9 7 7 7 7 7 7 7 7 7 7 7 7 7 7 7 7 7 R 7 7 7 7 ",
"                  $ j S 7 X y x.b.c.c.c.c.c.c.c.c.c.c.c.c.c.c.p.c R O.R R R R 9 7 7 7 7 7 7 7 7 7 7 7 7 7 7 7 7 7 7 R R R 7 7 7 ",
"                  R q.9 u D b l.x.c.c.c.c.g.c.c.c.c.c.c.v.s.r.r.q.R R R R R 9 7 7 7 7 7 7 7 7 7 7 7 7 7 7 7 7 7 c R R R R 7 7 7 ",
"                  S u D b S b D h.x.c.r.r.g.c.c.c.c.c.c.s.q.q.q.q.c R c R R R 7 7 7 7 7 7 7 7 7 7 7 7 7 7 7 2 2 R c c R R R 7 7 ",
"                  j <.u S S S S D r.r.r.q.q.g.c.b.c.c.c.q.q.q.r.r.q.c R R R R R 7 7 7 7 7 7 7 7 7 7 7 7 7 2 2 2 7 R R R R R 7 7 ",
"              j 9 9 7 4 D S S D R q.q.q.r.q.q.c.c.c.c.c.s.q.q.q.q.7.R R R R R c 7 7 7 7 7 7 7 7 7 7 7 2 2 2 2 2 2 7 c R 7 7 7 7 ",
"          ; R R 7 7 7 7 u S R R R R q.r.r.q.q.g.c.c.c.c.c.s.q.q.7.R R R R R R R c 7 7 7 7 7 7 7 7 7 2 2 2 2 2 2 2 2 7 7 7 7 7 7 ",
"            R R R R 7 2 8 b j R R R q.q.y.7.7.R s.c.c.c.c.c.q.R R R R R R R R c 7 7 7 7 7 7 7 7 2 2 2 2 2 2 2 2 2 2 2 7 7 7 7 7 ",
"            j c.p.R 7 r <.R j j R R R q.7.R R R R c.c.c.c.s.R R R R R R R c 7 7 7 7 7 7 7 7 7 2 2 2 2 2 2 2 2 2 2 < < 2 7 7 7 7 ",
"            j c.z.R t D R R j R R R R R R R R R R s.b.s.R R R R R R R R c 7 7 7 7 7 7 7 7 2 2 2 2 2 2 2 2 2 2 < 2 2 2 < 7 7 2 2 ",
"            @ q.<.b j j j R R R R R R R R R R R R R R R R R R R R R c 7 7 7 7 7 7 7 7 7 2 < 2 2 2 2 2 2 7 7 7 < 2 2 2 2 2 2 < 2 ",
"              u b j j R S R R R R R R R R R R R R R R R R R R R c c 7 7 7 7 7 7 7 7 7 7 2 2 2 2 2 2 2 7 7 7 7 2 < 2 2 2 7 7 < 2 ",
"          8 b c j R R S S R R R R R R R R R R R R R R R R R R c 7 7 7 7 7 7 7 7 7 7 7 7 7 2 2 2 2 7 7 7 7 7 7 7 7 2 2 7 7 7 2 2 ",
"        8 b c j D S S S R R R R R R R R R R R R R R R R R c 7 7 7 7 7 7 7 7 7 7 7 7 7 7 7 2 2 2 7 7 7 7 7 7 7 7 2 7 7 7 7 7 7 2 ",
"    8 >.j j D S S S S R R R R R R R R R R R R R R R R j c 7 7 7 7 7 7 7 7 7 7 7 7 7 7 7 7 7 7 7 7 7 7 7 7 7 7 2 < 7 7 7 7 7 7 2 ",
"  8 R j R R R D S j R R R R R R R R R R R R R R R R c 7 7 7 7 7 7 7 7 7 7 7 7 7 7 7 7 7 7 c c 7 7 7 7 7 7 7 < < 2 2 2 7 7 7 7 7 ",
"R j j R R b D R R R R R R R R R R j j j R R R R R c 7 7 7 7 7 7 7 7 7 7 7 7 7 7 7 7 7 c c R R 7 7 7 7 7 7 2 < 2 2 2 4 7 7 2 2 < ",
"j j R R S R 9.q.R j R c R R R R R R R R R R R R R 7 7 7 7 7 7 7 7 7 7 7 7 7 7 7 7 c c c j j R R 7 7 7 7 7 7 2 2 2 2 2 7 < 2 2 2 ",
"R D D R 7.7.r.q.1.R R R R 1.R R R R R R R R R R c R 7 7 7 7 7 9 7 7 7 7 7 7 7 7 c c R R c R R R R 7 7 7 7 7 2 2 2 2 7 7 < 2 2 2 ",
"S R D 7.q.q.q.r.q.1.R R 1.r.7.R R R R R R R R R R c 7 7 7 7 R R 9 7 7 7 7 7 c c c R R R R R R 9 7 7 7 7 7 7 7 2 2 7 7 7 2 2 2 2 ",
"S D R R q.q.q.q.r.1.7.q.q.q.q.7.R R R R r.R R R R R R 7 c R c R 9 7 7 7 7 c c R R R R R R 9 9 7 7 7 7 7 7 7 7 7 7 7 7 7 7 2 2 2 "
};
