/* XPM */
static char *result[] = {
/* columns rows colors chars-per-pixel */
"64 64 189 2 ",
"   c black",
".  c #010101",
"X  c gray4",
"o  c #0B0C0C",
"O  c #2A2B2B",
"+  c gray1",
"@  c gray13",
"#  c #171718",
"$  c #181818",
"%  c #060606",
"&  c gray3",
"*  c #474848",
"=  c #484848",
"-  c #464747",
";  c #070707",
":  c #0F1010",
">  c #3C3D3D",
",  c #656565",
"<  c #49494A",
"1  c #535353",
"2  c #101010",
"3  c gray5",
"4  c gray6",
"5  c gray2",
"6  c #0C0C0C",
"7  c #252525",
"8  c gray37",
"9  c #464646",
"0  c #2C2C2D",
"q  c #373838",
"w  c gray30",
"e  c gray26",
"r  c #141415",
"t  c #020202",
"y  c #6C6C6C",
"u  c #868686",
"i  c #808080",
"p  c #282828",
"a  c #0D0D0E",
"s  c #555656",
"d  c #434343",
"f  c #161617",
"g  c #09090A",
"h  c gray15",
"j  c #19191A",
"k  c #7E7E7E",
"l  c gray62",
"z  c gray60",
"x  c #505050",
"c  c #444444",
"v  c #585858",
"b  c #929292",
"n  c #202020",
"m  c gray46",
"M  c #8E8E8E",
"N  c #9B9B9B",
"B  c gray59",
"V  c #959595",
"C  c #5A5A5A",
"Z  c gray28",
"A  c gray38",
"S  c #898989",
"D  c #989898",
"F  c #6F6F6F",
"G  c #646464",
"H  c #1E1E1E",
"J  c #131313",
"K  c #7B7B7B",
"L  c #939393",
"P  c gray39",
"I  c #4E4E4E",
"U  c #0E0E0E",
"Y  c #9A9A9A",
"T  c #9D9D9D",
"R  c gray58",
"E  c #555555",
"W  c gray51",
"Q  c #909090",
"!  c #1D1D1D",
"~  c gray19",
"^  c #040505",
"/  c gray24",
"(  c #2A2A2B",
")  c #030404",
"_  c #717171",
"`  c #5D5D5D",
"'  c gray35",
"]  c gray61",
"[  c gray54",
"{  c #2A2A2A",
"}  c #020303",
"|  c #303031",
" . c #39393A",
".. c #1B1B1B",
"X. c #767676",
"o. c #818181",
"O. c gray49",
"+. c #979797",
"@. c #5B5B5B",
"#. c gray40",
"$. c #676767",
"%. c gray53",
"&. c #848484",
"*. c #313131",
"=. c #414142",
"-. c #4C4C4C",
";. c #5F5F5F",
":. c #8D8D8D",
">. c gray42",
",. c gray57",
"<. c gray55",
"1. c #101011",
"2. c #3F4040",
"3. c #565656",
"4. c #797979",
"5. c #777777",
"6. c #6D6D6D",
"7. c #414242",
"8. c gray52",
"9. c #2C2C2C",
"0. c #7C7C7C",
"q. c gray17",
"w. c #2F2F2F",
"e. c DimGray",
"r. c gray50",
"t. c #040404",
"y. c gray33",
"u. c #494949",
"i. c gray44",
"p. c gray47",
"a. c #686868",
"s. c #6A6A6A",
"d. c gray27",
"f. c gray7",
"g. c gray36",
"h. c gray48",
"j. c #353535",
"k. c gray43",
"l. c #626262",
"z. c gray21",
"x. c #606060",
"c. c gray29",
"v. c #393939",
"b. c gray25",
"n. c #3F3F3F",
"m. c #4B4B4B",
"M. c gray32",
"N. c #888888",
"B. c gray23",
"V. c gray18",
"C. c #8B8B8B",
"Z. c gray34",
"A. c gray56",
"S. c #747474",
"D. c #111111",
"F. c #838383",
"G. c #727272",
"H. c #2D2D2D",
"J. c gray31",
"K. c gray45",
"L. c #272727",
"P. c gray10",
"I. c gray8",
"U. c #191919",
"Y. c #515151",
"T. c gray16",
"R. c #090909",
"E. c gray20",
"W. c #3C3C3C",
"Q. c gray14",
"!. c #0B0B0B",
"~. c #161616",
"^. c #323233",
"/. c #292A2A",
"(. c #111112",
"). c #1A1B1B",
"_. c #484849",
"`. c gray12",
"'. c #505051",
"]. c #323232",
"[. c gray22",
"{. c #1D1D1E",
"}. c #3A3A3A",
"|. c #525253",
" X c #565757",
".X c #343535",
"XX c #333434",
"oX c #515252",
"OX c #3B3B3C",
/* pixels */
"                                                                                                                                ",
"                                                                                                                                ",
"                                                                                                                                ",
"                                                                                                                    .           ",
"                                                                                                                X o O           ",
"                + @ # $ %                                                                                     & * = - ;         ",
"              : > , < 1 2                                               3 2 4 5     6 5                     . 7 8 9 0           ",
"              q 1 w e r t                                               y u i p     , p                     a s w d f           ",
"                g h j                                       k l l l z x e e c v b l l l l l n               . 2 g 5             ",
"                                                    . 3 m M N l l l l B V V C Z A S D D F G v H .                               ",
"                                                    J K N l l l l l l l l l L A C P G G 1 I I = U                               ",
"                                                    y Y l l l l l l l l l l T R E Z Z Z W Q Q Q !                               ",
"                                          2 k l l l l l l l l l l l l l l l l l l l l l l l l l l ~                             ",
"          ^ / ( ) .               t J K _ S Y l l l l l l l l l l B ` I S ' I I S ] l l l l l l l Q [ {                         ",
"          } | Z  .4               ..X.] o.O.+.l l l l l l l l l +.' @.P y #.G G $.%.] l l l l l l &.O.*.+                       ",
"          t =.' -.n               K z l z O.B l l l l l l l l l ;.@.P :.V V V V >.E M l l l l l l W ,.<...                      ",
"            1.2.3.3               M l l l 4.5.D l l l l l l z x e ` b l l l l l 6.A w W l l l l O.m B l n                       ",
"              2 7.X             2 Q l l l +.i 4.L l l l l l z x ' #.L l l l l l z X.E 8.l l l 8.4.Q T l 9.5                     ",
"                                M ] l l l l z 0.4.Y l l l l z x @.Q T l l l l l l Y B N l l l o.L T l l ,.q.                    ",
"                                l l l l l l l z 0.Y l l l l z x @.V l l l l l l l l l l l l l o.B l l l l ~                     ",
"                          X 3.Z e V l l l l l l l 4.B l l l z x @.V l l l l l l l 8 e e <.l l o.B l l l l l w.                  ",
"                        X $ 8 , 8 E M l l l l l l 4.B l l l z x v P e.,.T l z B C r.V V ] l N i B l l l l l w.                  ",
"                      t.@.[ +.D A I <.l l l l l l 4.V l l l Y y.u.9 @.#.,.N i.y.= &.l l l T i p.B l l l l l w.                  ",
"                    t.9 V T l l A I <.l l l l l l 4.0.z l l T b Q I Z ` a.s.A -.o.Y l l l u X.M T l l l l l w.                  ",
"                    & u l l l l A d.Z Q l l l l l l i D l l l l l l y.e @.A = e <.l l l l W B l l l l l l l w.                  ",
"                X f.v R l l ] m $.g.-.Q l l l l l Y r.D l l l l l l +.V g.I x r.] l ] 8.O.b T l l l l l l l w.                  ",
"              5 @.A b T l l l z D G w Q l l l l l O.h.D l l l l l l l l +.V V Y ] ] Y W L T l l l l l l l l j.+                 ",
"            t.9 V B T l l l l l l G w Q l l l l l 4.,.T l l l l l l l l l l ] u K K O.Q T l l l l l l l l l :.p                 ",
"          2 M l l l l l l k.D l l y.<.l l l l l O.m B l l l l l l l l l l 0.5.b l l l l l l l l l l l l l l l l l ~             ",
"          4 u F $.$.$.$.D l.I 1 y.y.:.l l l l N 0.B T l l l l l l l l l o.4.R T l l l l l l l l l l l l l l l l l L z.2 %       ",
"          X @.A x.x.x.x.#.u.c.S V B ] l l l N k p.Y l l l l l l l l l ] O.V T l l l l l l N z z T l l l l l l l l l L M v.      ",
"          ; b.Z Z Z Z Z Z c.S ] l l l l l N W X.,.T l l l l l l l l ] i X.D l l l l l l l $.x x M l l l l l l l l l l l n.      ",
"          2 M l l l l l l l l l l l l l l l l l l l l l l l ] K m m 5.D l l l l l l z 8 e e @.A b 8 <.l l l l l l l l l n.      ",
"          2 M l l l Y Y l l l l l l l l l l l l N Y Y Y Y Y W V Y Y Y T l l l l +.P I = ' 8 <.D T G m.8.l l l l l l l l n.      ",
"          4 M ] ] z O.4.] ] ] ] l l l l l ] ] ] W K K K K K h.D l l T l l l l l g.' 8 x.G G L l l R M.W l l l l l l l l c & +   ",
"          2 :.i K K X.m K K K K l l l l l r.K K b D D D D D D T l l &.z l l l l y.v G u V V ] l l $.d.W l l l l l l l l Q u z.  ",
"          M l l l l l l l l ] K m Y l l l l l l l l l l l l l l l l i D l l l l y.e 8 <.l l l l l 8 <.l l l l l l l l l l l n.  ",
"  t ..K M ] l l l l l l l l l N m Y l l l l l l l B C I I -.u V ] l i D l l l l +.@.8 N.T l l l +.@.<.l +.A w I I I -.r.Y B.%   ",
"  U k +.l l l l l l l l l l l l m Y l l l Y z z z y.Z C A u.I x M l i D l l l l l A @., ,.T l N @.= :.l g.= ' ;.A ;.-.u.h.V.    ",
"  & = x l l l l l l l l l l l l m Y l l l v x x x @.` x.C.,.Q Q N l i D l l l l l R Z.' a.A.l $.d.4.N l y.4.R _ C._ 8 c.c.$     ",
"  X E Z e e e e e V l l l l l l m Y l l l I @.A A A b l l l l l l l ] K B l l l l l y.e @.<.l 8 <.l l l y.W l l l l S.A A !     ",
"  . D.M.V V V V m.E M V V T l l m Y l l l I @.A :.D T l l l l l l B ] N F.k 0.L l l L A I u l D ] l l G u N l l l l Y G.H.+     ",
"    X 1 l l l l V l.J.w m.B l l m Y l l l I @.G b l l l l l l l ] Z.:.l N Y i ,.] T l D V N l l l l l 8 <.l l l l l ] K.L.      ",
"    X 1 l l l l l $.` g.e V l l m Y l l l I 8 :.] l l l l l l l m = <.l l l D &.K R l l l l l l l l l 8 <.l l l l l h.G L.      ",
"        A D l l l l l l A I V l m 4.B l l I 8 V l l l l l l l l 6.Z <.l l l l l O.b l l l l l l l l l 8 <.l l l l l S.!         ",
"        Z.>.z l l l l l $.J.V l Y Y T l l I g.V l l l l l l l B e.9 <.l l l l l N F.R Y Y Y F.k k k h.:.A W N l l p.g.P.        ",
"        I.;.V l l l l l b 1 ,.T l l l l l x x M z z T Y z z B P J.= :.l l l l l l F.k i i i b B B B O.,.A., N.l ] K.q.%         ",
"          v y B l l l l l w M.b l l l l l b :.' x x [ g.x x 1 %.Q Q N l l l l l l Y D D D D T l l l z &.+.8 W l m G !           ",
"          X Z.A l l l l l G c.Q l l l l l l l l l m.e e <.l l l l l l l l l l l l l l l l l l l l l l o.B 8 e W 6.!             ",
"          . 3 -.$.z l l l l.u.Q l l l l l l l l l B V V ] l l l N T l l l l l D C w I I I I I -.u V ] &.4.[ x.M.U.+             ",
"            . D.A B l l l Y.m.,.l l l l l l l l l l l l l l l ] 8.Y l l l l Y >.Z 3.8 g.8 8 g.m.M.E <.+.O.0.u u P.              ",
"                A F z l l 1 S ] l l l l l l l l l l l l l l ] i b T l l l l z 8 Z.&.b _ C.V y 8 g.c.w %.z i 4.z.5               ",
"                  Z.G V e m.V l l l l l l l l l l 4.m m m m m m B l l l l l 3.v A <.N K.b l 6.A A A = W l l w.                  ",
"                  D.x ` E 4 4 2 2 F.N N Y +.i O.k +.Y Y Y Y Y Y T l l l l v = ' :.] l Y T l G.[ _ P m.u.o.z.5                   ",
"                  t f.I.I.t       T.O.o.r.r.h.,.B T l l l l l l l l D B B J.Z.A b l l l l l R Y R G.` Z 7 R.                    ",
"                                  + $ $.,.D D T l l l l l l l l l l E.$ $ W.8 u ] l l l l l l l l D y Q.t                       ",
"            . J $ +                 . I.F.,.v.n n n n n n n n n n n ;     !.Y.s.R l l l l l l l l 9 ~.%   . Q.^.X .             ",
"            . /.m.H.(.                  3 4 +                               6 b.` , L l l l ,.M T.5         )._.b.`.            ",
"              $ '.9 ].                                                      . U I.9 A.N +.B [.`.%           {.' -.}.            ",
"              J |. X.X                                                            X v s.p $ 5               % XXZ.{             ",
"                R.oX{                                                               2 J t.                      OXQ.            ",
"                  6 R.                                                                                          .               ",
"                                                                                                                                ",
"                                                                                                                                "
};
