/* XPM */
static char *result[] = {
/* columns rows colors chars-per-pixel */
"64 64 49 1 ",
"  c #000000",
". c #070708",
"X c #070808",
"o c #0B0B0C",
"O c #0E0E10",
"+ c #131314",
"@ c #171817",
"# c #161719",
"$ c #171819",
"% c #1B1B1C",
"& c #1F211F",
"* c #1E1F21",
"= c #1F2020",
"- c #232324",
"; c #272827",
": c #242628",
"> c #27292B",
", c #2B2B2C",
"< c #302F30",
"1 c #2F3134",
"2 c #343434",
"3 c #373837",
"4 c #353638",
"5 c #383739",
"6 c #37383A",
"7 c #3A3A3A",
"8 c #40403F",
"9 c #3C3D42",
"0 c #3D4044",
"q c #454545",
"w c #494647",
"e c #454649",
"r c #484648",
"t c #4B4B4B",
"y c #514D4D",
"u c #54514E",
"i c #4E4E50",
"p c #4F5153",
"a c #4F545A",
"s c #545454",
"d c #595554",
"f c #525459",
"g c #575858",
"h c #5C5C5C",
"j c #636363",
"k c #6C6C6C",
"l c #737373",
"z c gray48",
"x c None",
/* pixels */
"jjhhjjjjkzzzlhssssssssgsssghjjjjzzzzzzzzzkjjgssgsssssssiqqqqudgd",
"jjjllkjjzzzzljhhgsssssssssgjjjjlzzzzzzzzljjjjhsssssssspqqqqtsgsd",
"jjkzzzzlzzzzkjjjhgssssssssghjjjzzzzzzzzzkjjjjgssssssssuqqqqusddp",
"jjlzzzzzzzzljjjjhsssssssssssshkzzzzzzzzzlkjjhssssssssseqqqqqrysx",
"hhlzzzzzzzzlkjjjgssssssssssssglzzzzzzzzzzlljgssssssssuqqqqqqeqwe",
"dhklzzzzzzzzlkkhsssssssssssdsjzzzzlzzzzzzzzkggsssssssqqqqqwqqqts",
"gjjjjlzzzzzzzzljggssgsssssssslzzzzjjklzzzzzjssssssssuqqqqqqqqwss",
"hjjjjzzzzzzzzzljjhhsssssssssglzzzljjjjjlzzlgssssssgstqqqqqqwerfs",
"jjjjkzzzzklzzzkjjjjssssssgsssgklljjjjjsshkjgsssssssuwqqqqqqqesss",
"shjjlzzzldsjkljjjjhssssssssssssgjjjjjgsussgsssssssstqqqqqwqewsss",
"sssjlzzzksssdgjjjjgsssuqtsssssssssghjssssssssgsssssqqqwqqqqqifss",
"sssssjkzhssssssghhsssst8qqtpssssssssssssssssssqupstqqqqqqqwwssfs",
"ssssssssissdsssssgssspqqqqqqtissssssssssssssstqqqtqqqqqqqqqetsss",
",issssstqrisssssgssssiqqqqqqqqqisgssgsssttsssqqqqqqqqqqqqqqqwrts",
"  >tsstqqqqqtdssssssssuttqqqtqqq8tsgsssuqqtttqqqqqqqqqqqqqqqqqri",
"    %8@o37qqeetpsssssssssqqqqqqqwwqtusstqqqqqqqqqqqqqqeqqqqeqqtd",
"       oo -eqqeussssssssuqqqqqqqqqqqqttewqqqqqqqqqqqwqqqqqqwqqus",
"        .  -qqtsssssssssiqqqqqqqqqqqqqqqqwqwqqqqqqqqqqqqqqqqqqss",
"           o8qusssssssssqqqqqqqqqqqwqqqqqqqqqqqqqqwq7qewqqqqqqtp",
"           2qwpssssssssutqqqqqqqqqqqqqqqqqqqqqqeqqq83778qqqqqqqq",
"          oqqqwtsssssssssutqqqqqqqqqeqqqqqqqqqqqqqq77337qqqqqqqq",
"        o %eqqeqqisssssssssiiqqqqqqq778qqqqqwqqqqq033338qtqqqqqq",
"   X+o+. .-eqqeqqqqtpssssssssstqqqqq77378qqqqqqqqqqq737qqqqqqqqq",
" o27e7q,.  X>77-7qqqqisdssssssssitw83673378qqqqqqqqqq88eqqqqqqqq",
"X4eq8qq7OX   .#.o8eqqsssssssssssssi7773777357qqqqqqqqq78qqqqqtqq",
"78q7qiiq02+++X   @qqqssssssssssssssqq77333773578qeqqqq73778qqqqq",
"8e7qtsussruhg1.oo7qquasssgsssssssstqqqq733333375wuweq77733378qqq",
"qt77qqqisgkljso+<qqqtusssssssttssuqqqqqqq8733778sssuq7337772;7qq",
"7qqqqtrisjllki+ -8qqqqtussssu0qqqtqqqqqqqq87337qsssst887372+ %qq",
"w7qwugjssshks, .7wqtqqqtqusstqqtqqqqqqqqqe77777usssiqqqq87+  Xet",
"qqqthklkssss1XX4qqqqqqqqqqttqqqqqqqqq8qqeq37338tisstqqeqet-   qq",
"setsjlzli+++o .6qqqqqqqqqqqqqqqqqqqq8778q73633qqqwtqee22tjh,  qw",
"sqrsdklj$     o-7qqqqqqqqqqqqqqqqqqq73733q7337qqqqqqq7 Xqlkr  *9",
"=rrdsds*        o8qqqq78qqqqqqq777qq33378qwq88eqqqqq2X OqghwX  .",
" +7tst-          .7qe33737qqqq8373387537qqwqq77qqqqqO o<tushe.  ",
"  X+q1.          .3qq3337777qq73367qeqq7qqqq77778tq3X ;qseszk9X ",
"                O5wq877337373877338qqqq78eeq5772qup2  ,8wqsjhs1 ",
"               +O8eeq87733337qqq77qqqq87277877+otssg& @q88etus+ ",
"                 O<8qqqeq7757qqeweqwqw77727si, Ousss@ X18e8et,. ",
"                   O,7qwssw70qqqeqqqqq77; 3ssd4=rssq   X&7qtt.  ",
"                     X2isusiitq-O<wqqpi7X qssf1 .$0=     O7hk8. ",
"                     @qrttqqqtr=  -<qsds8+effa+   ..      ;sjq. ",
"                     whsq0q7q8t6    3ssdp..+0e          .  22o  ",
"                     tjhwqqqittO   X9fff1    X   7qq%%>st-      ",
"                     +@,qiisese     .=ea+      X9qqwtrgkjt      ",
"      X<q;%:t4         -idkksgd,      o%       1q8tsssklhq      ",
"     .7qttphldo        Xtdkksjzh+             .q8qeerpghg:      ",
"     @89ttpjjq          ->-&%shto              qq78thhdt-       ",
"     -q7euhs0+               o+X              .7qqqsklj$        ",
"     -8qtjls                                  #qq8qdklg.        ",
"    X7qqthk7                                 .qetqwssh7         ",
"    ,tgtwss$                                 *tdjsttsd-         ",
"    qjk:,22.                                 7dkj7-77q.         ",
"    %ttX                                      ihs$              ",
"      O                                       .;2X              ",
"                                                                ",
"                                                                ",
"                                                                ",
"                                                                ",
"                                                                ",
"                                                                ",
"                                                                ",
"                                                                ",
"                                                                "
};
