/* XPM */
static char *ae9ea815b94943d6ee6608a08cebbb92lNdGD7knTzQBKCRX[] = {
/* columns rows colors chars-per-pixel */
"64 64 170 2 ",
"   c black",
".  c #070707",
"X  c #151616",
"o  c #1C1D1D",
"O  c #020202",
"+  c #101111",
"@  c gray22",
"#  c #29292A",
"$  c #151515",
"%  c gray1",
"&  c gray2",
"*  c #040404",
"=  c #010101",
"-  c #0C0C0C",
";  c #3A3B3B",
":  c #444444",
">  c #2A2B2B",
",  c #090A0A",
"<  c #373737",
"1  c #5D5D5D",
"2  c gray11",
"3  c #1E1E1E",
"4  c #343434",
"5  c gray16",
"6  c #0B0B0B",
"7  c #2A2A2A",
"8  c #252525",
"9  c gray30",
"0  c #3A3A3B",
"q  c #181819",
"w  c #060606",
"e  c #1D1D1D",
"r  c gray20",
"t  c #1C1C1D",
"y  c #626262",
"u  c DimGray",
"i  c #686868",
"p  c #565656",
"a  c gray28",
"s  c #535353",
"d  c #505050",
"f  c #676767",
"g  c #8B8B8B",
"h  c #727272",
"j  c #313131",
"k  c #222223",
"l  c gray8",
"z  c #090909",
"x  c gray46",
"c  c #929292",
"v  c #9D9D9D",
"b  c gray62",
"n  c #9B9B9B",
"m  c #959595",
"M  c gray33",
"N  c #7C7C7C",
"B  c #989898",
"V  c gray54",
"C  c gray42",
"Z  c gray36",
"A  c #101010",
"S  c gray61",
"D  c gray35",
"F  c #5A5A5A",
"G  c gray39",
"H  c #646464",
"J  c #606060",
"K  c gray5",
"L  c #3C3C3C",
"P  c gray58",
"I  c #838383",
"U  c #818181",
"Y  c #888888",
"T  c gray59",
"R  c gray60",
"E  c gray34",
"W  c #0F1010",
"Q  c #242425",
"!  c gray32",
"~  c gray55",
"^  c #6F6F6F",
"/  c #7B7B7B",
"(  c #767676",
")  c gray56",
"_  c #111212",
"`  c #3E3E3E",
"'  c gray6",
"]  c gray7",
"[  c #585858",
"{  c #939393",
"}  c #808080",
"|  c #8E8E8E",
" . c gray37",
".. c #656565",
"X. c gray50",
"o. c gray29",
"O. c #111111",
"+. c #3B3B3C",
"@. c gray10",
"#. c #909090",
"$. c #868686",
"%. c gray49",
"&. c #898989",
"*. c #5F5F5F",
"=. c gray47",
"-. c #131313",
";. c #0E0E0E",
":. c gray23",
">. c gray51",
",. c #515151",
"<. c gray45",
"1. c #979797",
"2. c #8D8D8D",
"3. c gray13",
"4. c gray53",
"5. c #3A3A3A",
"6. c #9A9A9A",
"7. c gray31",
"8. c gray43",
"9. c gray57",
"0. c #797979",
"q. c #2C2C2C",
"w. c #848484",
"e. c gray48",
"r. c #6A6A6A",
"t. c #555555",
"y. c #777777",
"u. c gray38",
"i. c #717171",
"p. c #4C4C4C",
"a. c #4E4E4E",
"s. c gray27",
"d. c gray40",
"f. c #5B5B5B",
"g. c #191919",
"h. c #7E7E7E",
"j. c #6D6D6D",
"k. c #202020",
"l. c gray52",
"z. c #232323",
"x. c #4B4B4B",
"c. c #747474",
"v. c #2F2F2F",
"b. c #6C6C6C",
"n. c #393939",
"m. c #323232",
"M. c #282828",
"N. c gray24",
"B. c #272727",
"V. c gray12",
"C. c #414141",
"Z. c gray25",
"A. c gray17",
"S. c #484848",
"D. c #434343",
"F. c gray44",
"G. c gray4",
"H. c #1B1B1B",
"J. c gray26",
"K. c gray3",
"L. c #1E1E1F",
"P. c #3F3F3F",
"I. c #353535",
"U. c gray21",
"Y. c #3D3D3E",
"T. c #4B4C4C",
"R. c #222222",
"E. c gray15",
"W. c #535454",
"Q. c #333334",
/* pixels */
"                                                                                                                                ",
"                                                                                                                                ",
"                                                                                                                                ",
"                                                                                                                                ",
"                                                                                                                                ",
"                                                                                                                                ",
"                                                                                                                                ",
"                                                                                                                                ",
"                                                                                                                                ",
"                                                                                                                                ",
"                                                                                                      . X o                     ",
"                        O + @ # $ %                                   % & * =   * =                 - ; : > O                   ",
"                        , < 1 : 2 *                                   3 4 5 6   7 6               O 8 9 0 q                     ",
"                        w e r t %                           2 y u i p a p s d f g h u j           O 2 k l &                     ",
"                                                        z x c v b b n m m M d N B V C Z 3 =                                     ",
"                                                      A u S b b b b b b b V u D F 1 G H J K                                     ",
"                                              * L u u x B b b b b b b b b v P I U Y T R R E 6                                   ",
"                      W Q 6 =           = z d ! U b b b b b b b b ~ ^ I / u ( B b b b b b ) G j                                 ",
"                      _ @ ` '           ] [ { } | b b b b b b b R F  .u i H ..N S b b b b m X.o.O                               ",
"                      O.+.d @.          p c v #.$.S b b b b v ~ ..G %.T B B &.*.=.B b b b ~ ~ c -.                              ",
"                      O ;.:.6         * G R b B >.I R b b b S i ,.<.T b b b 1.=.! 2.b b 2.X.P v 2 O                             ",
"                        O A %         3.4.S b v P / V S b b S i E V n b b b v { } 1.b b >.) S b M l                             ",
"                                  O e 5.c v b b b n V { v b S i E B b b b b b #.X.Y 6.b U R b b $.` &                           ",
"                                O 6 D 7.8.#.b b b b c I n b S i E 4.9.S b S m <. .^ T v U R b b b 0.A                           ",
"                              = q.[ w.e.p 0.b b b b c >.n b v r.d t.f V 6.y.u.i.n S v #./ R b b b 0.A                           ",
"                              @./ 6.b V M y.b b b b c e.) b b T 9.p.a.H u F  .c b b T / | v b b b 0.A                           ",
"                          O w s.B b v U M o.m b b b b { #.b b b b 2.d.Z f.7.r.6.v m ) { b b b b b 0.A                           ",
"                        = g.q.e.S b v h.f ! m b b b R V ) b b b b S R %.u h ) v n w.V n b b b b b e.O.                          ",
"                      = ] f w.n b b b S y.t.m b b b c X.m b b b b b b S n m V $.4.#.n b b b b b b ) @ z                         ",
"                      5.{ b b b b h.B b j.0.b b b b e.} n b b b b b b b 4.} T b b b b b b b b b b b b b k.                      ",
"                      j <.f ....N u 9 f r.l.b b v 9.w.R b b b b b b b V U R b b b b b v S b b b b b b b U p.z.                  ",
"                      3 x.7.7.7.,.p.c.1.n v b v #.0.) v b b b b b b T h.2.b b b b b 9.8.i 1.b b b b b b v 6.Z                   ",
"                      v.=.U U U U >.1.b b b b b 1.9.n b b b b | w.I Y #.B b b b n j.f.M f.4.Y 6.b b b b b b *.                  ",
"                      5.{ v S #.R v v b b b b b v v c #.#.#.V | 6.n S b b b m b.s M  .X.6.#.F h b b b b b b J % =               ",
"                      n.) c ) e.&.9.9.m b b b 6.9.9.$.l.l.l.w.c v n 1.v b b 4.D J ^ c.g b T J i.b b b b b b <.m.K               ",
"                      x 1.{ c 9.c c 9.h.{ v b n { c n S S S S v b P &.S b b l.9 J #.n v b V 8.V b b b b b b n T M.              ",
"                . N.*.6.b b b b b b v 4.| v b b b b S g C u c.m n P Y S b b P y  .#.b b b l.N B 2.i.i u i <.m Z O.              ",
"              * q.0.b b b b b b b b b #.| v b m >.U <.M E ^ y ..I P Y S b b b U F b.V S V t.X.6.D *.i b.*.7.*.B.                ",
"              % V.9 X.X.X.X.n b b b b #.| v b $.M p [ G <.9.m m 6.1.g 1.v b b 6.p E h R H r.P v u.l.Y ~ y.*.! @.                ",
"              = A C.0.0.0.[ r.m B S b #.| v b I E u.U ~ S b b b b 6.B ~ &.~ R b h.t.H 1.l.R b w.X.T b b B >.a.-                 ",
"                % :.b b b B y a.p.%.b #.| v b I E H T b b b b b v u { S 6.$.m v b 1.1.v b b b <.c b b b v | Z.                  ",
"                O B.V v b b 0.h D j.n #.$.1.b I D #.v b b b b b U  .c b b T 4.g b b b b b b b <.c b b b 9.u A.                  ",
"                     .) v b b b y.t.m P I c b I [ m b b b b b S N  .c b b b T g n v v B { { c e.l.1.b b l.,.z                   ",
"                    7 c.R b b b ~ y c v v v b w.! #.n S S n 6.} u. .c b b b b ~ l.&.&.~ | | >.&.e.0.R v y q.*                   ",
"                      *.e.n b b b i ! T b b b 6.) D d G C d ,.( 2.P S b b b b n B B B n b b n g w.r.m I p.-.                    ",
"                      g.S./ S b b y.o.m b b b b b b g y  .9.b b v b b b b v m w.I I I I I B v g >.y ..Z ;.                      ",
"                      O A a.1.b b 8.o.m b b b b b b v n n v b v c S b b b #.C ,.D [ D [ x.d.w.9.%.h.( @ =                       ",
"                        O D.N S b b.c.6.b b b b b b b b b b b #.~ v b b b 4.1 u U F.h.F.[ t.f.h.V h.J z.                        ",
"                            Z.r.Z N.i ^ Y 6.v S 1.{ | >.U U U U 9.b b b | M J $.S 4.B h.^ ..,.y ~ 1 6                           ",
"                            - ` C.2 G.6 a >.c #.w.w.~ 6.n n n n v v S n b.! j.B b S b Y ) ( D x.7.H.=                           ",
"                            = w . %     G.q.0.2.) R S b b b b b b $.a.J.J.d.w.S b b b S v T <.J.G.O                             ",
"                        & ' O           = w 9 ~ b.o.o.o.o.o.o.o.o.n.O.K.$ *.X.S b b b b b V J.2 = K.L.A                         ",
"                        - P.I.-.            % z &                         $ U.s c v S U u $ =     z Y.a H.                      ",
"                        . Y.T.R.                                          * 6 E.%.>.F.` $ %       . 5.7.z.                      ",
"                        O q W.3                                               O M.8 K *           = - Q.g.                      ",
"                            - w                                                                       =                         ",
"                                                                                                                                ",
"                                                                                                                                ",
"                                                                                                                                ",
"                                                                                                                                ",
"                                                                                                                                ",
"                                                                                                                                ",
"                                                                                                                                ",
"                                                                                                                                "
};
