/* XPM */
static char *result[] = {
/* columns rows colors chars-per-pixel */
"64 64 56 1 ",
"  c #000000",
". c #060708",
"X c #070808",
"o c #0A0B0C",
"O c #0D0E10",
"+ c #100F11",
"@ c #0E1012",
"# c #121314",
"$ c #161719",
"% c #171A1C",
"& c #1B1C1D",
"* c #1D1E21",
"= c #1F2124",
"- c #212223",
"; c #232529",
": c #262829",
"> c #2B2C2D",
", c #2C2E32",
"< c #2F3132",
"1 c #343435",
"2 c #33353B",
"3 c #35393C",
"4 c #3A3A3A",
"5 c #373F42",
"6 c #3C3D42",
"7 c #3D4044",
"8 c #454545",
"9 c #44474B",
"0 c #484749",
"q c #46494E",
"w c #4B4B4C",
"e c #4C504E",
"r c #53534F",
"t c #434650",
"y c #4B4D52",
"u c #504F55",
"i c #4E5154",
"p c #545454",
"a c #585452",
"s c #565856",
"d c #595957",
"f c #545558",
"g c #565958",
"h c #5B5B5B",
"j c #555960",
"k c #595A60",
"l c #5F6161",
"z c #636363",
"x c #676867",
"c c #686867",
"v c #6C6C6C",
"b c #6E706D",
"n c #747474",
"m c #7A7B77",
"M c #777978",
"N c #7A7A7A",
/* pixels */
"s088888811888888880pppppppppw8wapppppspppgzzzlggzzzzzvnczzzhafpr",
"844888884888888880ipppppppw8880pppae0pppppgzhaafhzzzzhzzzzzksppp",
"4448888448888888wapppppssw88888wpp088wppppafpppppzzlspglzzzzgppp",
"444488444488888wsppppppw88888880088888epppppppppufhappshzzzhpppp",
"1444641414888888apppprw8880888888880880pppppppppappppppahhspppap",
"1447844444488888wappw88888888888888880epppfppppfppppppppsfffpsri",
"48888844448888888wrw80888888888808880papppppppppppppfppppppsppw=",
"78888844488888888688888888888880880epppppppppppppppppppapppsi2O ",
"448888488888888844488888088888888wrpfapppppppppppprsprppppf9*   ",
"44888844888888844447888888880880epsppppppppppppppppeppppfi2X    ",
"448844418888841414448888888888wppfpppppppppppppppppsppppi>      ",
"41444114188414414444888888880upppsppphfppfpppppppprsspfkz,      ",
"44w841444444444144480888888wppfpppsgvncpppppppfppppppyfnn8      ",
"88888441414114444888888880raappppaznNNMhppahlpappppiw0hvvpX     ",
"888884141444444488888888wpssppppsznNNNNbfglzzhpfppp988usss&     ",
"88888w44141444888888888wpsppppphhzvNNNNNczzzzzapppiy688wfw*     ",
"888wraw4414448888888888wpppppshzzzznNNNNNzzzzzzsppritww04o      ",
"88rraar74148888888888w88wpppppzzzzzcNNNNNnzzzzbcppsiif7X        ",
"w8aaprrr88888888888888880rppppgzzzzvMNNNNNvzvMNNgrsifj4.        ",
"88wapppr88888888888888880yppppphzzbNNNNNNNMbNNNNbsiiizwX        ",
"888wpsw8888888888w88888wuppppupavnNNNNNNNNNNNNNNml,>q4-         ",
"8880w88888888888888800rapapppphvNNNNNNNNNNNNNNNNMio .           ",
"0884488888888888888888rrppppdznNNNNNNNNNNNNNNNMzpi3             ",
"8744488888488888888888wrppppzMNNNNNNNNNNNNNNMndpsai%    #X Xo   ",
"44411488844488888888808espppgMNNNNMNNNNNNNNNvzdspsft.  <841wh$  ",
"444444484144888888888880papppzNNNNvnNNNNNNnzzzldasi2. #4wwpzk&  ",
"41411484444448888888880wpppspfbNbzzznNNNNnzzzxzhs9&   &880sp<.  ",
"4444888841444888888800rpppppppgzzzzzvNNNNNbzzzzz3o    &88sn0    ",
"44488888444488888888wrppppppppphzzzzznNNNNMzzzlg6.   .188pz>    ",
"18888888848888888888wappppppppsfzzzzkhnNNNNnzhspi;   #ph8ww#    ",
"88888888888888888w888eapppppppppazzguazNNNNbhsppfq@  #sd.XX     ",
"8888888w88888888888880rppppppppspfppauanNNzgssppri,   o&        ",
"8888888888888888888888wappppppppppppppahvhffspppy2O             ",
"88888888888088888888888wpppppppppppppfpfafppppa7-               ",
"888888888888888880888880uppppappppppppppppppaay$                ",
"888888880888888888888808wppppfppppppppppppppspg2        #X Xo   ",
"8888888ww8888888888888880wppppppppfpppppppppppfi-      >841eh$  ",
"808888wpe88888888888888880pppppppppapppfpppppspa8o    #40eucz$  ",
"88880rpppw888we08888888888wpppppppppppppppppppsat#    &86wse<.  ",
"88wwpppppp8wwfsp80888880888wpppppppppppppppffpi3@     &88anw    ",
"80esfpppppeippfpw8088888888wrapppppppppppppppe=       180az>    ",
"wapppppppaaapppfp08808888888wppppppppppppppap3.      #ph70w#    ",
"ppppppspprrppppppu88888888888eappppppppppppsis=      #shXoo     ",
"pppppgcdpaappppppfw88880088880pppppffpppppppppiO      o&        ",
"pppdzMNvpprrppppafp088wae08888uppppppapppppfppi5.               ",
"pahvNNNnlpppppppfupy0raapw8880pppparpppapffpppy;                ",
"gzMNNNNNnsarrppppuq-4raaua00wspppppp71sdapppf6O                 ",
"bNNNNNNNvgaprpapp2O .0aaau4erpaupaw>..6fppay-                   ",
"NNNNNNMzfappprp7*.   =ps6$ 2sppap4#   #fpf2.                    ",
"NNNNNnhupapppe2o      <>o  o8aaw;.     ,q*                      ",
"MNNNNbgppfpp9%.       .     -y4#       X.             XX        ",
"cNNNNMcafppe%                %    -:o  #:+          X-84<.      ",
"fNNNNNNhirsi3.                   478444zl8         X48880#X     ",
"MNNNNNNvssrri;                  :88eppsnv8         1778wew414:  ",
"NNNNNNvhppisr7@                 468w0wdlh1        .8888wespcvh* ",
"NNNNMzafppsri9$                X8648wdpp>.       .>887880elnvh- ",
"NNNvhspppsse<@                 .4080anv<        +:8678wdzpphh4  ",
"Nnzsppppesw=                   o488wznv$       o400000sbMl041X  ",
"vhppppppss8o                   18w8wphr.       4rhze0wpvnl#     ",
"gppfpppprps,                  #0ahe0rd4        4hnh88wpdh&      ",
"ppppppppsisi*                 >pbh*-1:$        +8d4 &wpp>       ",
"pprpspppssri7X                #rzr              o>o  X*1        ",
"ppaappsippsq=                  X&&                              ",
"i7;ipppsri7@                                                    "
};
