/* XPM */
static char *result[] = {
/* columns rows colors chars-per-pixel */
"64 64 47 1 ",
"  c #000000",
". c #070708",
"X c #070808",
"o c #0B0B0C",
"O c #0E0E10",
"+ c #131314",
"@ c #171817",
"# c #161719",
"$ c #171819",
"% c #1B1B1C",
"& c #1F211F",
"* c #1E1F20",
"= c #1F2020",
"- c #232324",
"; c #272827",
": c #242628",
"> c #27292B",
", c #2B2B2C",
"< c #302F30",
"1 c #2F3134",
"2 c #343434",
"3 c #373837",
"4 c #383739",
"5 c #37383A",
"6 c #3A3A3A",
"7 c #40403F",
"8 c #3C3D40",
"9 c #3D4044",
"0 c #454545",
"q c #494747",
"w c #454649",
"e c #484748",
"r c #4B4B4B",
"t c #514D4D",
"y c #54514E",
"u c #4E4E50",
"i c #4F5152",
"p c #4F545A",
"a c #545454",
"s c #565857",
"d c #535559",
"f c #575858",
"g c #5C5C5C",
"h c #636363",
"j c #6C6C6C",
"k c #737373",
"l c #7A7A7A",
/* pixels */
"                           o2gkjr0>X              5aaaaaaaagggff",
"                            .3fgr07<oX           oaafaafaafhhhhg",
"                             %aaee6063X          ,aaffggfaghhhhg",
"                            +q00060r005o         raaaghhhghhhhhf",
"                           X6rqrq0066602        ,aaafhhhhjlkjhfa",
"                           +raaauq050006X       raaaghhhhklllkga",
"         %0,X              0aaaggy00r080+      %aaafkkjhhlllljhh",
"         ahr6-=$.          2rfjkkfr0au06o      0aaahllllklllljhh",
"        orhf00064X         .=aklkh00ay00+      $qaakllllllllkhgh",
"         X,r00600,           %hkjsriaq6,.     Xo0rakllllllllkjhh",
"          ,err0rr0.           $aaaaaa8o. o   .X20qtgjkllllllllkj",
"          3aghyru:             +aahg02. .     .3wqaaafjllllllllk",
"          3ajlgir%             +ahkjaO  -$o   -00taaafkllllllllj",
"          .$5aagh-             +ahkkg+ Xw003o-0e0aaaahllllkklllj",
"              6jkr             o1shha+ :00007000raaafjlllljhjkkh",
"              O0a3              X,aa2X.8e00ee000aaaafkllljhhhhfg",
"                o             X X.+O. #700earr0raaafghjkkjhhhhaa",
"                         O.   -52. +X .&00raaaaaaaafhhhhhghhhfaa",
"                         OO  o6005-<o X60raaaaaaaaahhhhhaafggfaa",
"                        o03.X7e000006@7e0raaaaaaaaaghhhhaaaafaaa",
"                        <0e3600000000000eaaaaaaaaaaaaghfaaaaaaaa",
"                       o0000000000000e00raaaaaaaaaaaaafaaaaaaafa",
"                       ,0070e00000eruq0eaaaaaaaaafaaaaaaaaaaaaaa",
"                  +rr$X600336700000aaaaraaaaaaaaaraaaaaaaaaaaaaa",
"                  $jg0<00635360e00eaaaaaaaaaaaaau0eqyaaaaaaaaaaa",
"                X%,guraqe333670000yaaaaaaaaaiaaar000qaaaaaaaaaaa",
"               -rrqr0raa055360000qaaaaaaaaar0raae000taaafaaaaaaa",
"               ,far07eai63366e000aaaaaaaaay00000e000aaaaaaaaaaaa",
"               -jka000a063460000eaaaaaaaaar0e000000raaaaaaaafffa",
"               -jjr060a663460000raaaaaaaau000000000taaaaaaaaghhf",
"               %aaey00u963600000eriaaaaaar00000000raafafaaaahhhh",
"              oaggyr0re0e7700000000raaaaar00000000raaaakkhafhhhh",
"              +glf0rqq070076700000eeaaaar00000000eaaaahlllkkhhhh",
"              Xrg> +5&-0006346700e0uaaaae0000e00ersaaskllllllkhj",
"               oO     O00736460000eaaaau000000000aasahllllllllll",
"                     .<e0433460000raaaae00000000raaaahhjllllllll",
"                     -00007647e0000eruu00000000eaaaafhhhhkllllll",
"                   . <0e000070000000007700e0000raaaaghhhhlllllll",
"                  .65ee00000737700000066670e000yasashhhhjlllllll",
"                  =daar00000633370000733330000qaaaaaafhhllllllll",
"                 owdaaa56007444400000443370000rafaaaaaahllllllll",
"                 *pasa656367634500007336600000qrtaaaayakllllllll",
"                 .O1a6X;4370073000006436700000qeeraaaagllllkjkll",
"                    .+ .250000070e07346600000e000rfaaajlllljhhjk",
"                     w0567000063367663360000000eqaaaafhklljhhjhf",
"                    +daay00000636365364000000e00raaaaaafhjjhhhha",
"                   .9saay64706333333336000000000raaaaaafaagghhfa",
"          5*.      o9ppa,4553053355366000000000000ryaaaaaaaafgaa",
"        Xaar0# ..    +15 @536qe07633360000000000000eaaaaaaaasaaa",
"        -gja006002.    %Oo35000eeaq7670e00000e00000raaaaaaaaaaaa",
"        3ahhe000606   .waq070000uaaaqe0000e0000000eiaaaaaaaaaaaa",
"        .#6ae0060704  +aaaar000raaaau0000e0000q000raaaaaaaaaaaaa",
"          -r0ee90r09 .9saau0000raaaaqe000700000000eriaaaaaasaaaa",
"          6raaar0ar0..:0aa237000ruay00007337000000000ruaaaaaaaaa",
"          5aajjg0ar%    @& X+2q000r0e00063536000000000eruaaaaaaa",
"          0afklgaar%         X3e0006670036550e00e000000e0eyaaaaa",
"          .-6shaajs,    .+,-o .2007336675356e000000e000000eeuyaa",
"             X%rgkja   .2000,X.30066537e0067000000000000000000ri",
"               -sghu.  -77rar00r07353300000000000000e0000000000e",
"                >9r*  O6w60wugkhr35656000000e000e0000000e0000000",
"                     ,700eyfafjf;+23300000e00000000e000qq0000e00",
"                    <aar0rhkh0r;  +360000000000000ee0000000qyr00",
"                    3hjrwygk0.     ;7e000000000000raur0q0q0qsayu",
"                    X00.,aa8.  . .%500000000wq000qaaaftqq70taaaa"
};
